# MagicaVoxel @ Ephtracy

# group
o 

# material
mtllib 20_House_05.mtl
usemtl palette

# normals
vn -1 0 0
vn 1 0 0
vn 0 0 1
vn 0 0 -1
vn 0 -1 0
vn 0 1 0

# texcoords
vt 0.0214844 0.5
vt 0.373047 0.5
vt 0.705078 0.5
vt 0.857422 0.5
vt 0.962891 0.5
vt 0.978516 0.5
vt 0.982422 0.5
vt 0.990234 0.5

# verts
v 0 2 0
v 0 2 -2
v 0 2.1 0
v 0 2.1 -0.8
v 0 2.2 0
v 0 2.2 -0.8
v 0 2.9 -0.7
v 0 2.9 -0.8
v 0 3 -0.6
v 0 3 -0.7
v 0 3.8 -0.6
v 0 3.8 -0.9
v 0 3.9 -0.6
v 0 3.9 -0.9
v 0 3.9 -2
v 0 4 -0.9
v 0 4 -2
v 0.1 3.2 -0.5
v 0.1 3.2 -0.6
v 0.1 3.6 -0.5
v 0.1 3.6 -0.6
v 0.1 3.7 -0.5
v 0.1 3.7 -0.6
v 0.5 2.1 -0.9
v 0.5 2.1 -1
v 0.5 2.7 -0.9
v 0.5 2.7 -1
v 0.8 3.3 -0.5
v 0.8 3.3 -0.6
v 0.8 3.6 -0.5
v 0.8 3.6 -0.6
v 0.9 2.1 -0.8
v 0.9 2.1 -0.9
v 0.9 2.7 -0.8
v 0.9 2.7 -0.9
v 1 2.6 -0.7
v 1 2.6 -0.8
v 1 2.7 -0.7
v 1 2.7 -0.8
v 1 3.2 -0.5
v 1 3.2 -0.6
v 1 3.6 -0.5
v 1 3.6 -0.6
v 1.3 2.2 -0.7
v 1.3 2.2 -0.8
v 1.3 2.3 -0.7
v 1.3 2.3 -0.8
v 1.4 2 -0.6
v 1.4 2 -0.8
v 1.4 2.2 -0.7
v 1.4 2.2 -0.8
v 1.4 2.3 -0.7
v 1.4 2.3 -0.8
v 1.4 2.6 -0.7
v 1.4 2.6 -0.8
v 1.4 2.7 -0.7
v 1.4 2.7 -0.8
v 1.4 2.9 -0.7
v 1.4 2.9 -0.8
v 1.4 3 -0.6
v 1.4 3 -0.7
v 1.5 2.2 -0.5
v 1.5 2.2 -0.6
v 1.5 2.6 -0.5
v 1.5 2.6 -0.6
v 1.8 2.3 -0.5
v 1.8 2.3 -0.6
v 1.8 2.5 -0.5
v 1.8 2.5 -0.6
v 1.8 3.3 -0.5
v 1.8 3.3 -0.6
v 1.8 3.6 -0.5
v 1.8 3.6 -0.6
v 0.1 2 -0.1
v 0.1 2 -0.5
v 0.1 2.1 -0.1
v 0.1 2.1 -0.5
v 0.1 2.1 -0.8
v 0.1 2.2 -0.1
v 0.1 2.2 -0.8
v 0.2 2.1 -0.8
v 0.2 2.1 -1
v 0.2 2.7 -0.8
v 0.2 2.7 -1
v 0.2 3.3 -0.5
v 0.2 3.3 -0.6
v 0.2 3.6 -0.5
v 0.2 3.6 -0.6
v 0.8 2 0
v 0.8 2 -0.1
v 0.8 2.1 0
v 0.8 2.1 -0.1
v 0.8 2.2 0
v 0.8 2.2 -0.1
v 0.9 3.2 -0.5
v 0.9 3.2 -0.6
v 0.9 3.6 -0.5
v 0.9 3.6 -0.6
v 1 2 -0.5
v 1 2 -0.8
v 1 2.1 -0.5
v 1 2.1 -0.8
v 1.1 3.3 -0.5
v 1.1 3.3 -0.6
v 1.1 3.6 -0.5
v 1.1 3.6 -0.6
v 1.6 2.3 -0.5
v 1.6 2.3 -0.6
v 1.6 2.5 -0.5
v 1.6 2.5 -0.6
v 1.9 2.2 -0.5
v 1.9 2.2 -0.6
v 1.9 2.6 -0.5
v 1.9 2.6 -0.6
v 1.9 3.2 -0.5
v 1.9 3.2 -0.6
v 1.9 3.6 -0.5
v 1.9 3.6 -0.6
v 1.9 3.7 -0.5
v 1.9 3.7 -0.6
v 2 2 -0.6
v 2 2 -2
v 2 3.8 -0.6
v 2 3.8 -0.9
v 2 3.9 -0.6
v 2 3.9 -0.9
v 2 3.9 -2
v 2 4 -0.9
v 2 4 -2
v 0 2 0
v 0 2.1 0
v 0 2.2 0
v 0.8 2 0
v 0.8 2.1 0
v 0.8 2.2 0
v 0.1 2 -0.5
v 0.1 2.1 -0.5
v 0.1 3.2 -0.5
v 0.1 3.6 -0.5
v 0.1 3.7 -0.5
v 0.2 3.3 -0.5
v 0.2 3.6 -0.5
v 0.8 3.3 -0.5
v 0.8 3.6 -0.5
v 0.9 3.2 -0.5
v 0.9 3.6 -0.5
v 1 2 -0.5
v 1 2.1 -0.5
v 1 3.2 -0.5
v 1 3.6 -0.5
v 1.1 3.3 -0.5
v 1.1 3.6 -0.5
v 1.5 2.2 -0.5
v 1.5 2.6 -0.5
v 1.6 2.3 -0.5
v 1.6 2.5 -0.5
v 1.8 2.3 -0.5
v 1.8 2.5 -0.5
v 1.8 3.3 -0.5
v 1.8 3.6 -0.5
v 1.9 2.2 -0.5
v 1.9 2.6 -0.5
v 1.9 3.2 -0.5
v 1.9 3.6 -0.5
v 1.9 3.7 -0.5
v 0 3 -0.6
v 0 3.8 -0.6
v 0 3.9 -0.6
v 0.1 3.2 -0.6
v 0.1 3.6 -0.6
v 0.1 3.7 -0.6
v 0.2 3.3 -0.6
v 0.2 3.6 -0.6
v 0.8 3.3 -0.6
v 0.8 3.6 -0.6
v 0.9 3.2 -0.6
v 0.9 3.6 -0.6
v 1 3.2 -0.6
v 1 3.6 -0.6
v 1.1 3.3 -0.6
v 1.1 3.6 -0.6
v 1.4 2 -0.6
v 1.4 3 -0.6
v 1.5 2.2 -0.6
v 1.5 2.6 -0.6
v 1.6 2.3 -0.6
v 1.6 2.5 -0.6
v 1.8 2.3 -0.6
v 1.8 2.5 -0.6
v 1.8 3.3 -0.6
v 1.8 3.6 -0.6
v 1.9 2.2 -0.6
v 1.9 2.6 -0.6
v 1.9 3.2 -0.6
v 1.9 3.6 -0.6
v 1.9 3.7 -0.6
v 2 2 -0.6
v 2 3.8 -0.6
v 2 3.9 -0.6
v 0 2.9 -0.7
v 0 3 -0.7
v 1 2.6 -0.7
v 1 2.7 -0.7
v 1.3 2.2 -0.7
v 1.3 2.3 -0.7
v 1.4 2.2 -0.7
v 1.4 2.3 -0.7
v 1.4 2.6 -0.7
v 1.4 2.7 -0.7
v 1.4 2.9 -0.7
v 1.4 3 -0.7
v 0 2.2 -0.8
v 0 2.9 -0.8
v 0.1 2.1 -0.8
v 0.1 2.2 -0.8
v 0.2 2.1 -0.8
v 0.2 2.7 -0.8
v 0.9 2.1 -0.8
v 0.9 2.7 -0.8
v 1 2 -0.8
v 1 2.1 -0.8
v 1 2.6 -0.8
v 1 2.7 -0.8
v 1.3 2.2 -0.8
v 1.3 2.3 -0.8
v 1.4 2 -0.8
v 1.4 2.2 -0.8
v 1.4 2.3 -0.8
v 1.4 2.6 -0.8
v 1.4 2.7 -0.8
v 1.4 2.9 -0.8
v 0 3.9 -0.9
v 0 4 -0.9
v 0.5 2.1 -0.9
v 0.5 2.7 -0.9
v 0.6 2.1 -0.9
v 0.6 2.7 -0.9
v 0.9 2.1 -0.9
v 0.9 2.7 -0.9
v 2 3.9 -0.9
v 2 4 -0.9
v 0.2 2.1 -1
v 0.2 2.7 -1
v 0.5 2.1 -1
v 0.5 2.7 -1
v 0.1 2 -0.1
v 0.1 2.1 -0.1
v 0.1 2.2 -0.1
v 0.8 2 -0.1
v 0.8 2.1 -0.1
v 0.8 2.2 -0.1
v 0 2 -2
v 0 3.9 -2
v 0 4 -2
v 2 2 -2
v 2 3.9 -2
v 2 4 -2
v 0 2 0
v 0.8 2 0
v 0.1 2 -0.1
v 0.8 2 -0.1
v 0.1 2 -0.5
v 1 2 -0.5
v 1.4 2 -0.6
v 2 2 -0.6
v 0.1 2 -0.8
v 1 2 -0.8
v 1.4 2 -0.8
v 1 2 -0.9
v 1.4 2 -0.9
v 0 2 -2
v 2 2 -2
v 1.5 2.2 -0.5
v 1.9 2.2 -0.5
v 1.5 2.2 -0.6
v 1.9 2.2 -0.6
v 1.3 2.2 -0.7
v 1.4 2.2 -0.7
v 1.3 2.2 -0.8
v 1.4 2.2 -0.8
v 1.6 2.5 -0.5
v 1.8 2.5 -0.5
v 1.6 2.5 -0.6
v 1.8 2.5 -0.6
v 1 2.6 -0.7
v 1.4 2.6 -0.7
v 1 2.6 -0.8
v 1.4 2.6 -0.8
v 0.2 2.7 -0.8
v 0.9 2.7 -0.8
v 0.5 2.7 -0.9
v 0.6 2.7 -0.9
v 0.9 2.7 -0.9
v 0.2 2.7 -1
v 0.5 2.7 -1
v 0 2.9 -0.7
v 1.4 2.9 -0.7
v 0 2.9 -0.8
v 1.4 2.9 -0.8
v 0 3 -0.6
v 1.4 3 -0.6
v 0 3 -0.7
v 1.4 3 -0.7
v 0.1 3.2 -0.5
v 0.9 3.2 -0.5
v 1 3.2 -0.5
v 1.9 3.2 -0.5
v 0.1 3.2 -0.6
v 0.9 3.2 -0.6
v 1 3.2 -0.6
v 1.9 3.2 -0.6
v 0.2 3.6 -0.5
v 0.8 3.6 -0.5
v 0.9 3.6 -0.5
v 1 3.6 -0.5
v 1.1 3.6 -0.5
v 1.8 3.6 -0.5
v 0.2 3.6 -0.6
v 0.8 3.6 -0.6
v 0.9 3.6 -0.6
v 1 3.6 -0.6
v 1.1 3.6 -0.6
v 1.8 3.6 -0.6
v 0.1 2.1 -0.5
v 1 2.1 -0.5
v 0.1 2.1 -0.8
v 0.2 2.1 -0.8
v 0.9 2.1 -0.8
v 1 2.1 -0.8
v 0.5 2.1 -0.9
v 0.6 2.1 -0.9
v 0.9 2.1 -0.9
v 0.2 2.1 -1
v 0.5 2.1 -1
v 0 2.2 0
v 0.8 2.2 0
v 0.1 2.2 -0.1
v 0.8 2.2 -0.1
v 0 2.2 -0.8
v 0.1 2.2 -0.8
v 1.6 2.3 -0.5
v 1.8 2.3 -0.5
v 1.6 2.3 -0.6
v 1.8 2.3 -0.6
v 1.3 2.3 -0.7
v 1.4 2.3 -0.7
v 1.3 2.3 -0.8
v 1.4 2.3 -0.8
v 1.5 2.6 -0.5
v 1.9 2.6 -0.5
v 1.5 2.6 -0.6
v 1.9 2.6 -0.6
v 1 2.7 -0.7
v 1.4 2.7 -0.7
v 1 2.7 -0.8
v 1.4 2.7 -0.8
v 0.2 3.3 -0.5
v 0.8 3.3 -0.5
v 1.1 3.3 -0.5
v 1.8 3.3 -0.5
v 0.2 3.3 -0.6
v 0.8 3.3 -0.6
v 1.1 3.3 -0.6
v 1.8 3.3 -0.6
v 0.1 3.7 -0.5
v 1.9 3.7 -0.5
v 0.1 3.7 -0.6
v 1.9 3.7 -0.6
v 0 3.9 -0.6
v 2 3.9 -0.6
v 0 3.9 -0.9
v 2 3.9 -0.9
v 0 4 -0.9
v 2 4 -0.9
v 0 4 -2
v 2 4 -2

# faces
f 3/5/1 2/5/1 1/5/1
f 4/5/1 2/5/1 3/5/1
f 5/6/1 4/6/1 3/6/1
f 6/5/1 2/5/1 4/5/1
f 6/6/1 4/6/1 5/6/1
f 8/5/1 2/5/1 6/5/1
f 10/5/1 8/5/1 7/5/1
f 11/5/1 10/5/1 9/5/1
f 12/5/1 2/5/1 8/5/1
f 12/5/1 10/5/1 11/5/1
f 12/5/1 8/5/1 10/5/1
f 13/6/1 12/6/1 11/6/1
f 14/5/1 2/5/1 12/5/1
f 14/6/1 12/6/1 13/6/1
f 15/5/1 2/5/1 14/5/1
f 16/6/1 15/6/1 14/6/1
f 17/6/1 15/6/1 16/6/1
f 20/8/1 19/8/1 18/8/1
f 21/8/1 19/8/1 20/8/1
f 22/2/1 21/2/1 20/2/1
f 23/2/1 21/2/1 22/2/1
f 26/7/1 25/7/1 24/7/1
f 27/7/1 25/7/1 26/7/1
f 30/8/1 29/8/1 28/8/1
f 31/8/1 29/8/1 30/8/1
f 34/5/1 33/5/1 32/5/1
f 35/5/1 33/5/1 34/5/1
f 38/5/1 37/5/1 36/5/1
f 39/5/1 37/5/1 38/5/1
f 42/8/1 41/8/1 40/8/1
f 43/8/1 41/8/1 42/8/1
f 46/1/1 45/1/1 44/1/1
f 47/1/1 45/1/1 46/1/1
f 50/5/1 49/5/1 48/5/1
f 51/5/1 49/5/1 50/5/1
f 52/5/1 50/5/1 48/5/1
f 54/5/1 52/5/1 48/5/1
f 54/5/1 53/5/1 52/5/1
f 55/5/1 53/5/1 54/5/1
f 56/5/1 54/5/1 48/5/1
f 58/5/1 56/5/1 48/5/1
f 58/5/1 57/5/1 56/5/1
f 59/5/1 57/5/1 58/5/1
f 60/5/1 58/5/1 48/5/1
f 61/5/1 58/5/1 60/5/1
f 64/8/1 63/8/1 62/8/1
f 65/8/1 63/8/1 64/8/1
f 68/8/1 67/8/1 66/8/1
f 69/8/1 67/8/1 68/8/1
f 72/8/1 71/8/1 70/8/1
f 73/8/1 71/8/1 72/8/1
f 74/5/2 75/5/2 76/5/2
f 76/5/2 75/5/2 77/5/2
f 76/6/2 77/6/2 79/6/2
f 77/6/2 78/6/2 79/6/2
f 79/6/2 78/6/2 80/6/2
f 81/5/2 82/5/2 83/5/2
f 83/5/2 82/5/2 84/5/2
f 85/8/2 86/8/2 87/8/2
f 87/8/2 86/8/2 88/8/2
f 89/5/2 90/5/2 91/5/2
f 91/5/2 90/5/2 92/5/2
f 91/6/2 92/6/2 93/6/2
f 93/6/2 92/6/2 94/6/2
f 95/8/2 96/8/2 97/8/2
f 97/8/2 96/8/2 98/8/2
f 99/4/2 100/4/2 101/4/2
f 101/4/2 100/4/2 102/4/2
f 103/8/2 104/8/2 105/8/2
f 105/8/2 104/8/2 106/8/2
f 107/8/2 108/8/2 109/8/2
f 109/8/2 108/8/2 110/8/2
f 111/8/2 112/8/2 113/8/2
f 113/8/2 112/8/2 114/8/2
f 115/8/2 116/8/2 117/8/2
f 117/8/2 116/8/2 118/8/2
f 117/2/2 118/2/2 119/2/2
f 119/2/2 118/2/2 120/2/2
f 121/5/2 122/5/2 123/5/2
f 123/5/2 122/5/2 124/5/2
f 123/6/2 124/6/2 125/6/2
f 124/5/2 122/5/2 126/5/2
f 125/6/2 124/6/2 126/6/2
f 126/5/2 122/5/2 127/5/2
f 126/6/2 127/6/2 128/6/2
f 128/6/2 127/6/2 129/6/2
f 133/5/3 131/5/3 130/5/3
f 134/6/3 132/6/3 131/6/3
f 134/5/3 131/5/3 133/5/3
f 135/6/3 132/6/3 134/6/3
f 141/8/3 139/8/3 138/8/3
f 142/2/3 140/2/3 139/2/3
f 142/8/3 139/8/3 141/8/3
f 143/8/3 141/8/3 138/8/3
f 144/2/3 140/2/3 142/2/3
f 145/8/3 143/8/3 138/8/3
f 145/8/3 144/8/3 143/8/3
f 146/2/3 140/2/3 144/2/3
f 146/8/3 144/8/3 145/8/3
f 147/4/3 137/4/3 136/4/3
f 148/4/3 137/4/3 147/4/3
f 150/2/3 140/2/3 146/2/3
f 151/8/3 150/8/3 149/8/3
f 152/2/3 140/2/3 150/2/3
f 152/8/3 150/8/3 151/8/3
f 155/8/3 154/8/3 153/8/3
f 156/8/3 154/8/3 155/8/3
f 157/8/3 155/8/3 153/8/3
f 158/8/3 154/8/3 156/8/3
f 159/8/3 151/8/3 149/8/3
f 160/2/3 140/2/3 152/2/3
f 161/8/3 158/8/3 157/8/3
f 161/8/3 157/8/3 153/8/3
f 162/8/3 154/8/3 158/8/3
f 162/8/3 158/8/3 161/8/3
f 163/8/3 160/8/3 159/8/3
f 163/8/3 159/8/3 149/8/3
f 164/2/3 140/2/3 160/2/3
f 164/8/3 160/8/3 163/8/3
f 165/2/3 140/2/3 164/2/3
f 169/5/3 167/5/3 166/5/3
f 170/5/3 167/5/3 169/5/3
f 171/5/3 167/5/3 170/5/3
f 174/3/3 173/3/3 172/3/3
f 175/3/3 173/3/3 174/3/3
f 176/5/3 169/5/3 166/5/3
f 178/5/3 176/5/3 166/5/3
f 178/5/3 177/5/3 176/5/3
f 179/5/3 177/5/3 178/5/3
f 183/5/3 178/5/3 166/5/3
f 184/5/3 183/5/3 182/5/3
f 185/5/3 183/5/3 184/5/3
f 188/3/3 187/3/3 186/3/3
f 189/3/3 187/3/3 188/3/3
f 190/3/3 181/3/3 180/3/3
f 191/3/3 181/3/3 190/3/3
f 192/5/3 184/5/3 182/5/3
f 193/5/3 183/5/3 185/5/3
f 194/5/3 178/5/3 183/5/3
f 194/5/3 183/5/3 193/5/3
f 196/5/3 167/5/3 171/5/3
f 197/5/3 195/5/3 194/5/3
f 197/5/3 196/5/3 195/5/3
f 197/5/3 194/5/3 193/5/3
f 197/5/3 193/5/3 192/5/3
f 197/5/3 192/5/3 182/5/3
f 198/6/3 168/6/3 167/6/3
f 198/5/3 196/5/3 197/5/3
f 198/5/3 167/5/3 196/5/3
f 199/6/3 168/6/3 198/6/3
f 206/1/3 205/1/3 204/1/3
f 207/1/3 205/1/3 206/1/3
f 208/5/3 203/5/3 202/5/3
f 209/5/3 203/5/3 208/5/3
f 210/5/3 201/5/3 200/5/3
f 211/5/3 201/5/3 210/5/3
f 215/5/3 213/5/3 212/5/3
f 216/5/3 215/5/3 214/5/3
f 217/5/3 213/5/3 215/5/3
f 217/5/3 215/5/3 216/5/3
f 219/5/3 213/5/3 217/5/3
f 221/5/3 219/5/3 218/5/3
f 222/5/3 219/5/3 221/5/3
f 223/5/3 213/5/3 219/5/3
f 223/5/3 219/5/3 222/5/3
f 224/2/3 222/2/3 221/2/3
f 224/2/3 221/2/3 220/2/3
f 225/2/3 222/2/3 224/2/3
f 226/2/3 224/2/3 220/2/3
f 227/2/3 224/2/3 226/2/3
f 228/2/3 222/2/3 225/2/3
f 229/2/3 222/2/3 228/2/3
f 230/5/3 213/5/3 223/5/3
f 231/5/3 213/5/3 230/5/3
f 236/7/3 235/7/3 234/7/3
f 237/7/3 235/7/3 236/7/3
f 238/3/3 237/3/3 236/3/3
f 239/3/3 237/3/3 238/3/3
f 240/6/3 233/6/3 232/6/3
f 241/6/3 233/6/3 240/6/3
f 244/3/3 243/3/3 242/3/3
f 245/3/3 243/3/3 244/3/3
f 246/5/4 247/5/4 249/5/4
f 247/6/4 248/6/4 250/6/4
f 249/5/4 247/5/4 250/5/4
f 250/6/4 248/6/4 251/6/4
f 252/5/4 253/5/4 255/5/4
f 253/6/4 254/6/4 256/6/4
f 255/5/4 253/5/4 256/5/4
f 256/6/4 254/6/4 257/6/4
f 260/5/5 259/5/5 258/5/5
f 261/5/5 259/5/5 260/5/5
f 262/5/5 260/5/5 258/5/5
f 266/5/5 262/5/5 258/5/5
f 266/4/5 263/4/5 262/4/5
f 267/4/5 263/4/5 266/4/5
f 268/5/5 265/5/5 264/5/5
f 269/5/5 267/5/5 266/5/5
f 269/2/5 268/2/5 267/2/5
f 270/5/5 265/5/5 268/5/5
f 270/2/5 268/2/5 269/2/5
f 271/5/5 269/5/5 266/5/5
f 271/5/5 266/5/5 258/5/5
f 271/5/5 270/5/5 269/5/5
f 272/5/5 265/5/5 270/5/5
f 272/5/5 270/5/5 271/5/5
f 275/8/5 274/8/5 273/8/5
f 276/8/5 274/8/5 275/8/5
f 279/1/5 278/1/5 277/1/5
f 280/1/5 278/1/5 279/1/5
f 283/8/5 282/8/5 281/8/5
f 284/8/5 282/8/5 283/8/5
f 287/5/5 286/5/5 285/5/5
f 288/5/5 286/5/5 287/5/5
f 291/5/5 290/5/5 289/5/5
f 292/5/5 290/5/5 291/5/5
f 293/5/5 290/5/5 292/5/5
f 294/5/5 291/5/5 289/5/5
f 295/5/5 291/5/5 294/5/5
f 298/5/5 297/5/5 296/5/5
f 299/5/5 297/5/5 298/5/5
f 302/5/5 301/5/5 300/5/5
f 303/5/5 301/5/5 302/5/5
f 308/8/5 305/8/5 304/8/5
f 309/8/5 305/8/5 308/8/5
f 310/8/5 307/8/5 306/8/5
f 311/8/5 307/8/5 310/8/5
f 318/2/5 313/2/5 312/2/5
f 319/2/5 313/2/5 318/2/5
f 320/2/5 315/2/5 314/2/5
f 321/2/5 315/2/5 320/2/5
f 322/2/5 317/2/5 316/2/5
f 323/2/5 317/2/5 322/2/5
f 324/4/6 325/4/6 326/4/6
f 326/4/6 325/4/6 327/4/6
f 327/4/6 325/4/6 328/4/6
f 328/4/6 325/4/6 329/4/6
f 327/5/6 328/5/6 330/5/6
f 330/5/6 328/5/6 331/5/6
f 331/5/6 328/5/6 332/5/6
f 327/5/6 330/5/6 333/5/6
f 333/5/6 330/5/6 334/5/6
f 335/6/6 336/6/6 337/6/6
f 337/6/6 336/6/6 338/6/6
f 335/6/6 337/6/6 339/6/6
f 339/6/6 337/6/6 340/6/6
f 341/8/6 342/8/6 343/8/6
f 343/8/6 342/8/6 344/8/6
f 345/1/6 346/1/6 347/1/6
f 347/1/6 346/1/6 348/1/6
f 349/8/6 350/8/6 351/8/6
f 351/8/6 350/8/6 352/8/6
f 353/5/6 354/5/6 355/5/6
f 355/5/6 354/5/6 356/5/6
f 357/8/6 358/8/6 361/8/6
f 361/8/6 358/8/6 362/8/6
f 359/8/6 360/8/6 363/8/6
f 363/8/6 360/8/6 364/8/6
f 365/2/6 366/2/6 367/2/6
f 367/2/6 366/2/6 368/2/6
f 369/6/6 370/6/6 371/6/6
f 371/6/6 370/6/6 372/6/6
f 373/6/6 374/6/6 375/6/6
f 375/6/6 374/6/6 376/6/6
