# MagicaVoxel @ Ephtracy

# group
o 

# material
mtllib 10_Cart_03.mtl
usemtl palette

# normals
vn -1 0 0
vn 1 0 0
vn 0 0 1
vn 0 0 -1
vn 0 -1 0
vn 0 1 0

# texcoords
vt 0.533203 0.5
vt 0.705078 0.5
vt 0.853516 0.5
vt 0.873047 0.5
vt 0.962891 0.5
vt 0.982422 0.5
vt 0.990234 0.5
vt 0.994141 0.5

# verts
v 0.2 2 -0.2
v 0.2 2 -0.5
v 0.2 2 -0.6
v 0.2 2 -0.9
v 0.2 2.1 -0.3
v 0.2 2.1 -0.4
v 0.2 2.1 -0.7
v 0.2 2.1 -0.8
v 0.2 2.2 -0.2
v 0.2 2.2 -0.3
v 0.2 2.2 -0.4
v 0.2 2.2 -0.5
v 0.2 2.2 -0.6
v 0.2 2.2 -0.7
v 0.2 2.2 -0.8
v 0.2 2.2 -0.9
v 0.2 2.3 -0.2
v 0.2 2.3 -0.3
v 0.2 2.3 -0.6
v 0.2 2.3 -0.8
v 0.2 2.3 -0.9
v 0.2 2.4 -0.6
v 0.2 2.4 -0.8
v 0.2 2.5 -0.3
v 0.2 2.5 -0.5
v 0.2 2.5 -0.6
v 0.2 2.5 -0.8
v 0.2 2.5 -0.9
v 0.2 2.6 -0.5
v 0.2 2.6 -0.6
v 0.3 2.1 -0.9
v 0.3 2.1 -1
v 0.3 2.2 -0.1
v 0.3 2.2 -0.2
v 0.3 2.2 -0.8
v 0.3 2.2 -0.9
v 0.3 2.2 -1
v 0.3 2.3 -0.1
v 0.3 2.3 -0.2
v 0.3 2.3 -0.3
v 0.3 2.3 -0.8
v 0.3 2.3 -0.9
v 0.3 2.3 -1
v 0.3 2.4 -0.7
v 0.3 2.4 -0.8
v 0.3 2.5 -0.2
v 0.3 2.5 -0.3
v 0.3 2.5 -0.4
v 0.3 2.5 -0.5
v 0.3 2.5 -0.7
v 0.3 2.5 -0.8
v 0.3 2.5 -0.9
v 0.3 2.5 -1
v 0.3 2.6 -0.5
v 0.3 2.7 -0.4
v 0.3 2.7 -0.5
v 0.4 2.2 0
v 0.4 2.2 -0.1
v 0.4 2.2 -0.9
v 0.4 2.2 -1
v 0.4 2.3 0
v 0.4 2.3 -0.1
v 0.4 2.3 -0.2
v 0.4 2.3 -0.9
v 0.4 2.3 -1
v 0.4 2.4 -0.1
v 0.4 2.4 -0.2
v 0.4 2.4 -0.5
v 0.4 2.4 -0.6
v 0.4 2.4 -0.8
v 0.4 2.4 -0.9
v 0.4 2.5 -0.5
v 0.4 2.5 -0.8
v 0.4 2.5 -0.9
v 0.4 2.6 -0.5
v 0.4 2.6 -0.6
v 0.6 2.4 -0.7
v 0.6 2.4 -0.8
v 0.6 2.5 -0.7
v 0.6 2.5 -0.8
v 0.7 2 -0.2
v 0.7 2 -0.5
v 0.7 2 -0.6
v 0.7 2 -0.9
v 0.7 2.1 -0.3
v 0.7 2.1 -0.4
v 0.7 2.1 -0.7
v 0.7 2.1 -0.8
v 0.7 2.2 -0.2
v 0.7 2.2 -0.3
v 0.7 2.2 -0.4
v 0.7 2.2 -0.5
v 0.7 2.2 -0.6
v 0.7 2.2 -0.7
v 0.7 2.2 -0.8
v 0.7 2.2 -0.9
v 0.7 2.3 -0.4
v 0.7 2.3 -0.6
v 0.7 2.3 -0.7
v 0.7 2.4 -0.4
v 0.7 2.4 -0.5
v 0.7 2.4 -0.6
v 0.7 2.4 -0.7
v 0.7 2.4 -0.8
v 0.7 2.4 -0.9
v 0.7 2.5 -0.5
v 0.7 2.5 -0.6
v 0.7 2.5 -0.8
v 0.7 2.5 -0.9
v 0.7 2.6 -0.5
v 0.7 2.6 -0.6
v 0.3 2 -0.2
v 0.3 2 -0.5
v 0.3 2 -0.6
v 0.3 2 -0.9
v 0.3 2.1 -0.3
v 0.3 2.1 -0.4
v 0.3 2.1 -0.7
v 0.3 2.1 -0.8
v 0.3 2.1 -0.9
v 0.3 2.2 -0.2
v 0.3 2.2 -0.3
v 0.3 2.2 -0.4
v 0.3 2.2 -0.5
v 0.3 2.2 -0.6
v 0.3 2.2 -0.7
v 0.3 2.2 -0.8
v 0.3 2.3 -0.4
v 0.3 2.3 -0.6
v 0.3 2.3 -0.7
v 0.3 2.4 -0.4
v 0.3 2.4 -0.5
v 0.3 2.4 -0.6
v 0.3 2.4 -0.7
v 0.3 2.4 -0.8
v 0.3 2.4 -0.9
v 0.3 2.5 -0.5
v 0.3 2.5 -0.6
v 0.3 2.5 -0.8
v 0.3 2.5 -0.9
v 0.3 2.6 -0.5
v 0.3 2.6 -0.6
v 0.4 2.1 -0.8
v 0.4 2.1 -1
v 0.4 2.2 -0.8
v 0.4 2.2 -1
v 0.4 2.4 -0.7
v 0.4 2.4 -0.8
v 0.4 2.5 -0.7
v 0.4 2.5 -0.8
v 0.6 2.2 0
v 0.6 2.2 -0.1
v 0.6 2.2 -0.9
v 0.6 2.2 -1
v 0.6 2.3 0
v 0.6 2.3 -0.1
v 0.6 2.3 -0.2
v 0.6 2.3 -0.9
v 0.6 2.3 -1
v 0.6 2.4 -0.1
v 0.6 2.4 -0.2
v 0.6 2.4 -0.5
v 0.6 2.4 -0.6
v 0.6 2.4 -0.8
v 0.6 2.4 -0.9
v 0.6 2.5 -0.5
v 0.6 2.5 -0.8
v 0.6 2.5 -0.9
v 0.6 2.6 -0.5
v 0.6 2.6 -0.6
v 0.7 2.2 -0.1
v 0.7 2.2 -0.2
v 0.7 2.2 -0.8
v 0.7 2.2 -0.9
v 0.7 2.3 -0.1
v 0.7 2.3 -0.2
v 0.7 2.3 -0.3
v 0.7 2.3 -0.8
v 0.7 2.3 -0.9
v 0.7 2.3 -1
v 0.7 2.4 -0.7
v 0.7 2.4 -0.8
v 0.7 2.5 -0.2
v 0.7 2.5 -0.3
v 0.7 2.5 -0.4
v 0.7 2.5 -0.5
v 0.7 2.5 -0.7
v 0.7 2.5 -0.8
v 0.7 2.5 -0.9
v 0.7 2.5 -1
v 0.7 2.6 -0.5
v 0.7 2.7 -0.4
v 0.7 2.7 -0.5
v 0.8 2 -0.2
v 0.8 2 -0.5
v 0.8 2 -0.6
v 0.8 2 -0.9
v 0.8 2.1 -0.3
v 0.8 2.1 -0.4
v 0.8 2.1 -0.7
v 0.8 2.1 -0.8
v 0.8 2.2 -0.2
v 0.8 2.2 -0.3
v 0.8 2.2 -0.4
v 0.8 2.2 -0.5
v 0.8 2.2 -0.6
v 0.8 2.2 -0.7
v 0.8 2.2 -0.8
v 0.8 2.2 -0.9
v 0.8 2.3 -0.2
v 0.8 2.3 -0.3
v 0.8 2.3 -0.6
v 0.8 2.3 -0.8
v 0.8 2.3 -0.9
v 0.8 2.4 -0.6
v 0.8 2.4 -0.8
v 0.8 2.5 -0.3
v 0.8 2.5 -0.5
v 0.8 2.5 -0.6
v 0.8 2.5 -0.8
v 0.8 2.5 -0.9
v 0.8 2.6 -0.5
v 0.8 2.6 -0.6
v 0.4 2.2 0
v 0.4 2.3 0
v 0.6 2.2 0
v 0.6 2.3 0
v 0.3 2.2 -0.1
v 0.3 2.3 -0.1
v 0.4 2.2 -0.1
v 0.4 2.3 -0.1
v 0.4 2.4 -0.1
v 0.6 2.2 -0.1
v 0.6 2.3 -0.1
v 0.6 2.4 -0.1
v 0.7 2.2 -0.1
v 0.7 2.3 -0.1
v 0.2 2 -0.2
v 0.2 2.2 -0.2
v 0.2 2.3 -0.2
v 0.3 2 -0.2
v 0.3 2.2 -0.2
v 0.3 2.3 -0.2
v 0.3 2.5 -0.2
v 0.4 2.3 -0.2
v 0.4 2.4 -0.2
v 0.4 2.5 -0.2
v 0.6 2.3 -0.2
v 0.6 2.4 -0.2
v 0.6 2.5 -0.2
v 0.7 2 -0.2
v 0.7 2.2 -0.2
v 0.7 2.3 -0.2
v 0.7 2.5 -0.2
v 0.8 2 -0.2
v 0.8 2.2 -0.2
v 0.8 2.3 -0.2
v 0.2 2.3 -0.3
v 0.2 2.5 -0.3
v 0.3 2.3 -0.3
v 0.3 2.5 -0.3
v 0.7 2.3 -0.3
v 0.7 2.5 -0.3
v 0.8 2.3 -0.3
v 0.8 2.5 -0.3
v 0.3 2.5 -0.4
v 0.3 2.7 -0.4
v 0.7 2.5 -0.4
v 0.7 2.7 -0.4
v 0.2 2.5 -0.5
v 0.2 2.6 -0.5
v 0.3 2.5 -0.5
v 0.3 2.6 -0.5
v 0.7 2.5 -0.5
v 0.7 2.6 -0.5
v 0.8 2.5 -0.5
v 0.8 2.6 -0.5
v 0.2 2 -0.6
v 0.2 2.2 -0.6
v 0.3 2 -0.6
v 0.3 2.2 -0.6
v 0.7 2 -0.6
v 0.7 2.2 -0.6
v 0.8 2 -0.6
v 0.8 2.2 -0.6
v 0.3 2.3 -0.7
v 0.3 2.4 -0.7
v 0.3 2.5 -0.7
v 0.4 2.4 -0.7
v 0.4 2.5 -0.7
v 0.6 2.4 -0.7
v 0.6 2.5 -0.7
v 0.7 2.3 -0.7
v 0.7 2.4 -0.7
v 0.7 2.5 -0.7
v 0.2 2.4 -0.8
v 0.2 2.5 -0.8
v 0.3 2.1 -0.8
v 0.3 2.2 -0.8
v 0.3 2.4 -0.8
v 0.3 2.5 -0.8
v 0.4 2.1 -0.8
v 0.4 2.2 -0.8
v 0.4 2.4 -0.8
v 0.4 2.5 -0.8
v 0.6 2.4 -0.8
v 0.6 2.5 -0.8
v 0.7 2.4 -0.8
v 0.7 2.5 -0.8
v 0.8 2.4 -0.8
v 0.8 2.5 -0.8
v 0.3 2.4 -0.9
v 0.3 2.5 -0.9
v 0.4 2.4 -0.9
v 0.4 2.5 -0.9
v 0.6 2.4 -0.9
v 0.6 2.5 -0.9
v 0.7 2.4 -0.9
v 0.7 2.5 -0.9
v 0.3 2.3 -0.4
v 0.3 2.4 -0.4
v 0.7 2.3 -0.4
v 0.7 2.4 -0.4
v 0.2 2 -0.5
v 0.2 2.2 -0.5
v 0.3 2 -0.5
v 0.3 2.2 -0.5
v 0.3 2.4 -0.5
v 0.3 2.5 -0.5
v 0.3 2.6 -0.5
v 0.3 2.7 -0.5
v 0.4 2.4 -0.5
v 0.4 2.5 -0.5
v 0.4 2.6 -0.5
v 0.6 2.4 -0.5
v 0.6 2.5 -0.5
v 0.6 2.6 -0.5
v 0.7 2 -0.5
v 0.7 2.2 -0.5
v 0.7 2.4 -0.5
v 0.7 2.5 -0.5
v 0.7 2.6 -0.5
v 0.7 2.7 -0.5
v 0.8 2 -0.5
v 0.8 2.2 -0.5
v 0.2 2.4 -0.6
v 0.2 2.5 -0.6
v 0.2 2.6 -0.6
v 0.3 2.4 -0.6
v 0.3 2.5 -0.6
v 0.3 2.6 -0.6
v 0.4 2.4 -0.6
v 0.4 2.6 -0.6
v 0.6 2.4 -0.6
v 0.6 2.6 -0.6
v 0.7 2.4 -0.6
v 0.7 2.5 -0.6
v 0.7 2.6 -0.6
v 0.8 2.4 -0.6
v 0.8 2.5 -0.6
v 0.8 2.6 -0.6
v 0.2 2.2 -0.8
v 0.2 2.3 -0.8
v 0.3 2.2 -0.8
v 0.3 2.3 -0.8
v 0.3 2.4 -0.8
v 0.3 2.5 -0.8
v 0.4 2.4 -0.8
v 0.4 2.5 -0.8
v 0.6 2.4 -0.8
v 0.6 2.5 -0.8
v 0.7 2.2 -0.8
v 0.7 2.3 -0.8
v 0.7 2.4 -0.8
v 0.7 2.5 -0.8
v 0.8 2.2 -0.8
v 0.8 2.3 -0.8
v 0.2 2 -0.9
v 0.2 2.2 -0.9
v 0.2 2.3 -0.9
v 0.2 2.5 -0.9
v 0.3 2 -0.9
v 0.3 2.1 -0.9
v 0.3 2.2 -0.9
v 0.3 2.3 -0.9
v 0.3 2.5 -0.9
v 0.4 2.2 -0.9
v 0.4 2.3 -0.9
v 0.6 2.2 -0.9
v 0.6 2.3 -0.9
v 0.7 2 -0.9
v 0.7 2.2 -0.9
v 0.7 2.3 -0.9
v 0.7 2.5 -0.9
v 0.8 2 -0.9
v 0.8 2.2 -0.9
v 0.8 2.3 -0.9
v 0.8 2.5 -0.9
v 0.3 2.1 -1
v 0.3 2.2 -1
v 0.3 2.3 -1
v 0.3 2.5 -1
v 0.4 2.1 -1
v 0.4 2.2 -1
v 0.4 2.3 -1
v 0.6 2.2 -1
v 0.6 2.3 -1
v 0.7 2.3 -1
v 0.7 2.5 -1
v 0.2 2 -0.2
v 0.3 2 -0.2
v 0.7 2 -0.2
v 0.8 2 -0.2
v 0.2 2 -0.5
v 0.3 2 -0.5
v 0.7 2 -0.5
v 0.8 2 -0.5
v 0.2 2 -0.6
v 0.3 2 -0.6
v 0.7 2 -0.6
v 0.8 2 -0.6
v 0.2 2 -0.9
v 0.3 2 -0.9
v 0.7 2 -0.9
v 0.8 2 -0.9
v 0.3 2.1 -0.8
v 0.4 2.1 -0.8
v 0.3 2.1 -0.9
v 0.3 2.1 -1
v 0.4 2.1 -1
v 0.4 2.2 0
v 0.6 2.2 0
v 0.3 2.2 -0.1
v 0.4 2.2 -0.1
v 0.6 2.2 -0.1
v 0.7 2.2 -0.1
v 0.3 2.2 -0.2
v 0.7 2.2 -0.2
v 0.3 2.2 -0.3
v 0.7 2.2 -0.3
v 0.3 2.2 -0.4
v 0.7 2.2 -0.4
v 0.2 2.2 -0.5
v 0.3 2.2 -0.5
v 0.7 2.2 -0.5
v 0.8 2.2 -0.5
v 0.2 2.2 -0.6
v 0.3 2.2 -0.6
v 0.7 2.2 -0.6
v 0.8 2.2 -0.6
v 0.3 2.2 -0.7
v 0.7 2.2 -0.7
v 0.3 2.2 -0.8
v 0.4 2.2 -0.8
v 0.7 2.2 -0.8
v 0.6 2.2 -0.9
v 0.7 2.2 -0.9
v 0.4 2.2 -1
v 0.6 2.2 -1
v 0.2 2.3 -0.8
v 0.3 2.3 -0.8
v 0.7 2.3 -0.8
v 0.8 2.3 -0.8
v 0.2 2.3 -0.9
v 0.3 2.3 -0.9
v 0.4 2.3 -0.9
v 0.6 2.3 -0.9
v 0.7 2.3 -0.9
v 0.8 2.3 -0.9
v 0.3 2.3 -1
v 0.4 2.3 -1
v 0.6 2.3 -1
v 0.7 2.3 -1
v 0.3 2.4 -0.4
v 0.7 2.4 -0.4
v 0.3 2.4 -0.5
v 0.4 2.4 -0.5
v 0.6 2.4 -0.5
v 0.7 2.4 -0.5
v 0.4 2.4 -0.6
v 0.6 2.4 -0.6
v 0.2 2.2 -0.8
v 0.3 2.2 -0.8
v 0.7 2.2 -0.8
v 0.8 2.2 -0.8
v 0.2 2.2 -0.9
v 0.3 2.2 -0.9
v 0.4 2.2 -0.9
v 0.7 2.2 -0.9
v 0.8 2.2 -0.9
v 0.3 2.2 -1
v 0.4 2.2 -1
v 0.4 2.3 0
v 0.6 2.3 0
v 0.3 2.3 -0.1
v 0.4 2.3 -0.1
v 0.6 2.3 -0.1
v 0.7 2.3 -0.1
v 0.2 2.3 -0.2
v 0.3 2.3 -0.2
v 0.4 2.3 -0.2
v 0.6 2.3 -0.2
v 0.7 2.3 -0.2
v 0.8 2.3 -0.2
v 0.2 2.3 -0.3
v 0.3 2.3 -0.3
v 0.7 2.3 -0.3
v 0.8 2.3 -0.3
v 0.3 2.3 -0.4
v 0.7 2.3 -0.4
v 0.3 2.3 -0.6
v 0.7 2.3 -0.6
v 0.3 2.3 -0.7
v 0.7 2.3 -0.7
v 0.4 2.4 -0.1
v 0.6 2.4 -0.1
v 0.4 2.4 -0.2
v 0.6 2.4 -0.2
v 0.2 2.4 -0.6
v 0.3 2.4 -0.6
v 0.7 2.4 -0.6
v 0.8 2.4 -0.6
v 0.3 2.4 -0.7
v 0.4 2.4 -0.7
v 0.6 2.4 -0.7
v 0.7 2.4 -0.7
v 0.2 2.4 -0.8
v 0.3 2.4 -0.8
v 0.4 2.4 -0.8
v 0.6 2.4 -0.8
v 0.7 2.4 -0.8
v 0.8 2.4 -0.8
v 0.3 2.4 -0.9
v 0.4 2.4 -0.9
v 0.6 2.4 -0.9
v 0.7 2.4 -0.9
v 0.3 2.5 -0.2
v 0.4 2.5 -0.2
v 0.6 2.5 -0.2
v 0.7 2.5 -0.2
v 0.2 2.5 -0.3
v 0.3 2.5 -0.3
v 0.4 2.5 -0.3
v 0.6 2.5 -0.3
v 0.7 2.5 -0.3
v 0.8 2.5 -0.3
v 0.3 2.5 -0.4
v 0.7 2.5 -0.4
v 0.2 2.5 -0.5
v 0.3 2.5 -0.5
v 0.7 2.5 -0.5
v 0.8 2.5 -0.5
v 0.3 2.5 -0.7
v 0.4 2.5 -0.7
v 0.6 2.5 -0.7
v 0.7 2.5 -0.7
v 0.2 2.5 -0.8
v 0.3 2.5 -0.8
v 0.4 2.5 -0.8
v 0.6 2.5 -0.8
v 0.7 2.5 -0.8
v 0.8 2.5 -0.8
v 0.2 2.5 -0.9
v 0.3 2.5 -0.9
v 0.4 2.5 -0.9
v 0.6 2.5 -0.9
v 0.7 2.5 -0.9
v 0.8 2.5 -0.9
v 0.3 2.5 -1
v 0.7 2.5 -1
v 0.2 2.6 -0.5
v 0.3 2.6 -0.5
v 0.4 2.6 -0.5
v 0.6 2.6 -0.5
v 0.7 2.6 -0.5
v 0.8 2.6 -0.5
v 0.2 2.6 -0.6
v 0.3 2.6 -0.6
v 0.4 2.6 -0.6
v 0.6 2.6 -0.6
v 0.7 2.6 -0.6
v 0.8 2.6 -0.6
v 0.3 2.7 -0.4
v 0.7 2.7 -0.4
v 0.3 2.7 -0.5
v 0.7 2.7 -0.5

# faces
f 5/8/1 2/8/1 1/8/1
f 6/8/1 2/8/1 5/8/1
f 7/8/1 4/8/1 3/8/1
f 8/8/1 4/8/1 7/8/1
f 9/8/1 5/8/1 1/8/1
f 10/5/1 6/5/1 5/5/1
f 10/8/1 5/8/1 9/8/1
f 11/8/1 2/8/1 6/8/1
f 11/5/1 6/5/1 10/5/1
f 12/8/1 2/8/1 11/8/1
f 13/8/1 7/8/1 3/8/1
f 14/5/1 8/5/1 7/5/1
f 14/8/1 7/8/1 13/8/1
f 15/8/1 4/8/1 8/8/1
f 15/5/1 8/5/1 14/5/1
f 16/8/1 4/8/1 15/8/1
f 17/1/1 10/1/1 9/1/1
f 17/1/1 14/1/1 13/1/1
f 17/1/1 15/1/1 14/1/1
f 17/1/1 12/1/1 11/1/1
f 17/1/1 11/1/1 10/1/1
f 17/1/1 13/1/1 12/1/1
f 18/1/1 15/1/1 17/1/1
f 19/1/1 15/1/1 18/1/1
f 20/1/1 15/1/1 19/1/1
f 22/1/1 19/1/1 18/1/1
f 22/4/1 20/4/1 19/4/1
f 23/1/1 21/1/1 20/1/1
f 23/4/1 20/4/1 22/4/1
f 24/1/1 22/1/1 18/1/1
f 25/1/1 22/1/1 24/1/1
f 26/1/1 22/1/1 25/1/1
f 27/1/1 21/1/1 23/1/1
f 28/1/1 21/1/1 27/1/1
f 29/2/1 26/2/1 25/2/1
f 30/2/1 26/2/1 29/2/1
f 36/6/1 32/6/1 31/6/1
f 37/6/1 32/6/1 36/6/1
f 38/1/1 34/1/1 33/1/1
f 39/1/1 34/1/1 38/1/1
f 41/1/1 36/1/1 35/1/1
f 42/1/1 36/1/1 41/1/1
f 46/1/1 40/1/1 39/1/1
f 47/1/1 40/1/1 46/1/1
f 50/6/1 45/6/1 44/6/1
f 51/6/1 45/6/1 50/6/1
f 52/1/1 43/1/1 42/1/1
f 53/1/1 43/1/1 52/1/1
f 54/2/1 49/2/1 48/2/1
f 55/2/1 54/2/1 48/2/1
f 56/2/1 54/2/1 55/2/1
f 61/1/1 58/1/1 57/1/1
f 62/1/1 58/1/1 61/1/1
f 64/1/1 60/1/1 59/1/1
f 65/1/1 60/1/1 64/1/1
f 66/5/1 63/5/1 62/5/1
f 67/5/1 63/5/1 66/5/1
f 72/7/1 69/7/1 68/7/1
f 73/6/1 71/6/1 70/6/1
f 74/6/1 71/6/1 73/6/1
f 75/7/1 69/7/1 72/7/1
f 76/7/1 69/7/1 75/7/1
f 79/6/1 78/6/1 77/6/1
f 80/6/1 78/6/1 79/6/1
f 85/8/1 82/8/1 81/8/1
f 86/8/1 82/8/1 85/8/1
f 87/8/1 84/8/1 83/8/1
f 88/8/1 84/8/1 87/8/1
f 89/8/1 85/8/1 81/8/1
f 90/5/1 86/5/1 85/5/1
f 90/8/1 85/8/1 89/8/1
f 91/8/1 82/8/1 86/8/1
f 91/5/1 86/5/1 90/5/1
f 92/8/1 82/8/1 91/8/1
f 93/8/1 87/8/1 83/8/1
f 94/5/1 88/5/1 87/5/1
f 94/8/1 87/8/1 93/8/1
f 95/8/1 84/8/1 88/8/1
f 95/5/1 88/5/1 94/5/1
f 96/8/1 84/8/1 95/8/1
f 100/1/1 98/1/1 97/1/1
f 101/1/1 98/1/1 100/1/1
f 102/4/1 99/4/1 98/4/1
f 102/1/1 98/1/1 101/1/1
f 103/4/1 99/4/1 102/4/1
f 106/1/1 102/1/1 101/1/1
f 107/1/1 102/1/1 106/1/1
f 108/1/1 105/1/1 104/1/1
f 109/1/1 105/1/1 108/1/1
f 110/2/1 107/2/1 106/2/1
f 111/2/1 107/2/1 110/2/1
f 112/8/2 113/8/2 116/8/2
f 116/8/2 113/8/2 117/8/2
f 114/8/2 115/8/2 118/8/2
f 118/8/2 115/8/2 119/8/2
f 119/8/2 115/8/2 120/8/2
f 112/8/2 116/8/2 121/8/2
f 116/5/2 117/5/2 122/5/2
f 121/8/2 116/8/2 122/8/2
f 117/8/2 113/8/2 123/8/2
f 122/5/2 117/5/2 123/5/2
f 123/8/2 113/8/2 124/8/2
f 114/8/2 118/8/2 125/8/2
f 118/5/2 119/5/2 126/5/2
f 125/8/2 118/8/2 126/8/2
f 126/5/2 119/5/2 127/5/2
f 128/1/2 129/1/2 131/1/2
f 131/1/2 129/1/2 132/1/2
f 129/4/2 130/4/2 133/4/2
f 132/1/2 129/1/2 133/1/2
f 133/4/2 130/4/2 134/4/2
f 132/1/2 133/1/2 137/1/2
f 137/1/2 133/1/2 138/1/2
f 135/1/2 136/1/2 139/1/2
f 139/1/2 136/1/2 140/1/2
f 137/2/2 138/2/2 141/2/2
f 141/2/2 138/2/2 142/2/2
f 143/6/2 144/6/2 145/6/2
f 145/6/2 144/6/2 146/6/2
f 147/6/2 148/6/2 149/6/2
f 149/6/2 148/6/2 150/6/2
f 151/1/2 152/1/2 155/1/2
f 155/1/2 152/1/2 156/1/2
f 153/1/2 154/1/2 158/1/2
f 158/1/2 154/1/2 159/1/2
f 156/5/2 157/5/2 160/5/2
f 160/5/2 157/5/2 161/5/2
f 162/7/2 163/7/2 166/7/2
f 164/6/2 165/6/2 167/6/2
f 167/6/2 165/6/2 168/6/2
f 166/7/2 163/7/2 169/7/2
f 169/7/2 163/7/2 170/7/2
f 171/1/2 172/1/2 175/1/2
f 175/1/2 172/1/2 176/1/2
f 173/1/2 174/1/2 178/1/2
f 178/1/2 174/1/2 179/1/2
f 176/1/2 177/1/2 183/1/2
f 183/1/2 177/1/2 184/1/2
f 181/6/2 182/6/2 187/6/2
f 187/6/2 182/6/2 188/6/2
f 179/1/2 180/1/2 189/1/2
f 189/1/2 180/1/2 190/1/2
f 185/2/2 186/2/2 191/2/2
f 185/2/2 191/2/2 192/2/2
f 192/2/2 191/2/2 193/2/2
f 194/8/2 195/8/2 198/8/2
f 198/8/2 195/8/2 199/8/2
f 196/8/2 197/8/2 200/8/2
f 200/8/2 197/8/2 201/8/2
f 194/8/2 198/8/2 202/8/2
f 198/5/2 199/5/2 203/5/2
f 202/8/2 198/8/2 203/8/2
f 199/8/2 195/8/2 204/8/2
f 203/5/2 199/5/2 204/5/2
f 204/8/2 195/8/2 205/8/2
f 196/8/2 200/8/2 206/8/2
f 200/5/2 201/5/2 207/5/2
f 206/8/2 200/8/2 207/8/2
f 201/8/2 197/8/2 208/8/2
f 207/5/2 201/5/2 208/5/2
f 208/8/2 197/8/2 209/8/2
f 202/1/2 203/1/2 210/1/2
f 206/1/2 207/1/2 210/1/2
f 207/1/2 208/1/2 210/1/2
f 204/1/2 205/1/2 210/1/2
f 203/1/2 204/1/2 210/1/2
f 205/1/2 206/1/2 210/1/2
f 210/1/2 208/1/2 211/1/2
f 211/1/2 208/1/2 212/1/2
f 212/1/2 208/1/2 213/1/2
f 211/1/2 212/1/2 215/1/2
f 212/4/2 213/4/2 215/4/2
f 213/1/2 214/1/2 216/1/2
f 215/4/2 213/4/2 216/4/2
f 211/1/2 215/1/2 217/1/2
f 217/1/2 215/1/2 218/1/2
f 218/1/2 215/1/2 219/1/2
f 216/1/2 214/1/2 220/1/2
f 220/1/2 214/1/2 221/1/2
f 218/2/2 219/2/2 222/2/2
f 222/2/2 219/2/2 223/2/2
f 226/1/3 225/1/3 224/1/3
f 227/1/3 225/1/3 226/1/3
f 230/1/3 229/1/3 228/1/3
f 231/1/3 229/1/3 230/1/3
f 234/5/3 232/5/3 231/5/3
f 235/5/3 232/5/3 234/5/3
f 236/1/3 234/1/3 233/1/3
f 237/1/3 234/1/3 236/1/3
f 241/8/3 239/8/3 238/8/3
f 242/1/3 240/1/3 239/1/3
f 242/8/3 239/8/3 241/8/3
f 243/1/3 240/1/3 242/1/3
f 245/1/3 244/1/3 243/1/3
f 246/1/3 244/1/3 245/1/3
f 247/1/3 244/1/3 246/1/3
f 249/5/3 247/5/3 246/5/3
f 250/5/3 247/5/3 249/5/3
f 253/1/3 249/1/3 248/1/3
f 253/1/3 250/1/3 249/1/3
f 254/1/3 250/1/3 253/1/3
f 255/8/3 252/8/3 251/8/3
f 256/1/3 253/1/3 252/1/3
f 256/8/3 252/8/3 255/8/3
f 257/1/3 253/1/3 256/1/3
f 260/1/3 259/1/3 258/1/3
f 261/1/3 259/1/3 260/1/3
f 264/1/3 263/1/3 262/1/3
f 265/1/3 263/1/3 264/1/3
f 268/2/3 267/2/3 266/2/3
f 269/2/3 267/2/3 268/2/3
f 272/2/3 271/2/3 270/2/3
f 273/2/3 271/2/3 272/2/3
f 276/2/3 275/2/3 274/2/3
f 277/2/3 275/2/3 276/2/3
f 280/8/3 279/8/3 278/8/3
f 281/8/3 279/8/3 280/8/3
f 284/8/3 283/8/3 282/8/3
f 285/8/3 283/8/3 284/8/3
f 289/6/3 287/6/3 286/6/3
f 289/6/3 288/6/3 287/6/3
f 290/6/3 288/6/3 289/6/3
f 291/6/3 289/6/3 286/6/3
f 293/6/3 291/6/3 286/6/3
f 293/6/3 292/6/3 291/6/3
f 294/6/3 292/6/3 293/6/3
f 295/6/3 292/6/3 294/6/3
f 300/1/3 297/1/3 296/1/3
f 301/1/3 297/1/3 300/1/3
f 302/6/3 299/6/3 298/6/3
f 303/6/3 299/6/3 302/6/3
f 306/6/3 305/6/3 304/6/3
f 307/6/3 305/6/3 306/6/3
f 310/1/3 309/1/3 308/1/3
f 311/1/3 309/1/3 310/1/3
f 314/1/3 313/1/3 312/1/3
f 315/1/3 313/1/3 314/1/3
f 318/1/3 317/1/3 316/1/3
f 319/1/3 317/1/3 318/1/3
f 320/6/4 321/6/4 322/6/4
f 322/6/4 321/6/4 323/6/4
f 324/8/4 325/8/4 326/8/4
f 326/8/4 325/8/4 327/8/4
f 328/3/4 329/3/4 332/3/4
f 330/2/4 331/2/4 333/2/4
f 332/3/4 329/3/4 333/3/4
f 329/2/4 330/2/4 333/2/4
f 333/2/4 331/2/4 334/2/4
f 334/2/4 331/2/4 337/2/4
f 335/3/4 336/3/4 340/3/4
f 336/2/4 337/2/4 341/2/4
f 340/3/4 336/3/4 341/3/4
f 337/2/4 331/2/4 342/2/4
f 341/2/4 337/2/4 342/2/4
f 342/2/4 331/2/4 343/2/4
f 338/8/4 339/8/4 344/8/4
f 344/8/4 339/8/4 345/8/4
f 346/1/4 347/1/4 349/1/4
f 347/2/4 348/2/4 350/2/4
f 349/1/4 347/1/4 350/1/4
f 350/2/4 348/2/4 351/2/4
f 352/7/4 353/7/4 354/7/4
f 354/7/4 353/7/4 355/7/4
f 356/1/4 357/1/4 359/1/4
f 357/2/4 358/2/4 360/2/4
f 359/1/4 357/1/4 360/1/4
f 360/2/4 358/2/4 361/2/4
f 362/1/4 363/1/4 364/1/4
f 364/1/4 363/1/4 365/1/4
f 366/6/4 367/6/4 368/6/4
f 368/6/4 367/6/4 369/6/4
f 370/6/4 371/6/4 374/6/4
f 374/6/4 371/6/4 375/6/4
f 372/1/4 373/1/4 376/1/4
f 376/1/4 373/1/4 377/1/4
f 378/8/4 379/8/4 382/8/4
f 382/8/4 379/8/4 383/8/4
f 383/8/4 379/8/4 384/8/4
f 380/1/4 381/1/4 385/1/4
f 385/1/4 381/1/4 386/1/4
f 384/1/4 385/1/4 387/1/4
f 387/1/4 385/1/4 388/1/4
f 389/1/4 390/1/4 392/1/4
f 392/1/4 390/1/4 393/1/4
f 391/8/4 392/8/4 395/8/4
f 395/8/4 392/8/4 396/8/4
f 393/1/4 394/1/4 397/1/4
f 397/1/4 394/1/4 398/1/4
f 399/6/4 400/6/4 403/6/4
f 403/6/4 400/6/4 404/6/4
f 401/1/4 402/1/4 405/1/4
f 404/1/4 405/1/4 406/1/4
f 405/1/4 402/1/4 407/1/4
f 406/1/4 405/1/4 407/1/4
f 407/1/4 402/1/4 408/1/4
f 408/1/4 402/1/4 409/1/4
f 414/8/5 411/8/5 410/8/5
f 415/8/5 411/8/5 414/8/5
f 416/8/5 413/8/5 412/8/5
f 417/8/5 413/8/5 416/8/5
f 422/8/5 419/8/5 418/8/5
f 423/8/5 419/8/5 422/8/5
f 424/8/5 421/8/5 420/8/5
f 425/8/5 421/8/5 424/8/5
f 428/6/5 427/6/5 426/6/5
f 429/6/5 427/6/5 428/6/5
f 430/6/5 427/6/5 429/6/5
f 434/1/5 432/1/5 431/1/5
f 435/1/5 432/1/5 434/1/5
f 437/1/5 434/1/5 433/1/5
f 437/1/5 436/1/5 435/1/5
f 437/1/5 435/1/5 434/1/5
f 438/1/5 436/1/5 437/1/5
f 439/1/5 438/1/5 437/1/5
f 440/1/5 438/1/5 439/1/5
f 441/1/5 440/1/5 439/1/5
f 442/1/5 440/1/5 441/1/5
f 444/1/5 442/1/5 441/1/5
f 445/1/5 442/1/5 444/1/5
f 447/1/5 445/1/5 444/1/5
f 447/1/5 446/1/5 445/1/5
f 447/1/5 444/1/5 443/1/5
f 448/1/5 446/1/5 447/1/5
f 449/1/5 446/1/5 448/1/5
f 450/1/5 446/1/5 449/1/5
f 451/1/5 449/1/5 448/1/5
f 452/1/5 449/1/5 451/1/5
f 453/1/5 452/1/5 451/1/5
f 454/1/5 452/1/5 453/1/5
f 455/1/5 452/1/5 454/1/5
f 456/1/5 455/1/5 454/1/5
f 457/1/5 455/1/5 456/1/5
f 458/1/5 456/1/5 454/1/5
f 459/1/5 456/1/5 458/1/5
f 464/1/5 461/1/5 460/1/5
f 465/1/5 461/1/5 464/1/5
f 468/1/5 463/1/5 462/1/5
f 469/1/5 463/1/5 468/1/5
f 470/1/5 466/1/5 465/1/5
f 471/1/5 466/1/5 470/1/5
f 472/1/5 468/1/5 467/1/5
f 473/1/5 468/1/5 472/1/5
f 476/3/5 475/3/5 474/3/5
f 477/3/5 475/3/5 476/3/5
f 478/3/5 475/3/5 477/3/5
f 479/3/5 475/3/5 478/3/5
f 480/7/5 478/7/5 477/7/5
f 481/7/5 478/7/5 480/7/5
f 482/8/6 483/8/6 486/8/6
f 486/8/6 483/8/6 487/8/6
f 484/8/6 485/8/6 489/8/6
f 489/8/6 485/8/6 490/8/6
f 487/6/6 488/6/6 491/6/6
f 491/6/6 488/6/6 492/6/6
f 493/1/6 494/1/6 496/1/6
f 496/1/6 494/1/6 497/1/6
f 495/1/6 496/1/6 500/1/6
f 500/1/6 496/1/6 501/1/6
f 497/1/6 498/1/6 502/1/6
f 502/1/6 498/1/6 503/1/6
f 499/1/6 500/1/6 505/1/6
f 505/1/6 500/1/6 506/1/6
f 503/1/6 504/1/6 507/1/6
f 507/1/6 504/1/6 508/1/6
f 509/1/6 510/1/6 511/1/6
f 511/1/6 510/1/6 512/1/6
f 511/1/6 512/1/6 513/1/6
f 513/1/6 512/1/6 514/1/6
f 515/5/6 516/5/6 517/5/6
f 517/5/6 516/5/6 518/5/6
f 519/4/6 520/4/6 523/4/6
f 521/4/6 522/4/6 526/4/6
f 519/4/6 523/4/6 527/4/6
f 527/4/6 523/4/6 528/4/6
f 524/6/6 525/6/6 529/6/6
f 529/6/6 525/6/6 530/6/6
f 526/4/6 522/4/6 531/4/6
f 531/4/6 522/4/6 532/4/6
f 528/6/6 529/6/6 533/6/6
f 533/6/6 529/6/6 534/6/6
f 530/6/6 531/6/6 535/6/6
f 535/6/6 531/6/6 536/6/6
f 537/1/6 538/1/6 542/1/6
f 538/5/6 539/5/6 543/5/6
f 542/1/6 538/1/6 543/1/6
f 539/1/6 540/1/6 544/1/6
f 543/5/6 539/5/6 544/5/6
f 544/1/6 540/1/6 545/1/6
f 542/1/6 543/1/6 547/1/6
f 545/1/6 546/1/6 547/1/6
f 544/1/6 545/1/6 547/1/6
f 543/1/6 544/1/6 547/1/6
f 541/1/6 542/1/6 547/1/6
f 547/1/6 546/1/6 548/1/6
f 541/1/6 547/1/6 549/1/6
f 549/1/6 547/1/6 550/1/6
f 548/1/6 546/1/6 551/1/6
f 551/1/6 546/1/6 552/1/6
f 553/6/6 554/6/6 558/6/6
f 558/6/6 554/6/6 559/6/6
f 555/6/6 556/6/6 560/6/6
f 560/6/6 556/6/6 561/6/6
f 557/1/6 558/1/6 563/1/6
f 563/1/6 558/1/6 564/1/6
f 559/6/6 560/6/6 565/6/6
f 565/6/6 560/6/6 566/6/6
f 561/1/6 562/1/6 567/1/6
f 567/1/6 562/1/6 568/1/6
f 565/1/6 566/1/6 569/1/6
f 566/1/6 567/1/6 569/1/6
f 564/1/6 565/1/6 569/1/6
f 569/1/6 567/1/6 570/1/6
f 571/2/6 572/2/6 577/2/6
f 577/2/6 572/2/6 578/2/6
f 573/7/6 574/7/6 579/7/6
f 579/7/6 574/7/6 580/7/6
f 575/2/6 576/2/6 581/2/6
f 581/2/6 576/2/6 582/2/6
f 583/2/6 584/2/6 585/2/6
f 585/2/6 584/2/6 586/2/6
