# MagicaVoxel @ Ephtracy

# group
o 

# material
mtllib 10_car_03.mtl
usemtl palette

# normals
vn -1 0 0
vn 1 0 0
vn 0 0 1
vn 0 0 -1
vn 0 -1 0
vn 0 1 0

# texcoords
vt 0.00976562 0.5
vt 0.205078 0.5
vt 0.587891 0.5
vt 0.755859 0.5
vt 0.857422 0.5
vt 0.962891 0.5
vt 0.982422 0.5
vt 0.986328 0.5
vt 0.990234 0.5

# verts
v 0.2 2 -0.2
v 0.2 2 -0.5
v 0.2 2 -0.6
v 0.2 2 -0.9
v 0.2 2.1 0
v 0.2 2.1 -0.2
v 0.2 2.1 -0.3
v 0.2 2.1 -0.4
v 0.2 2.1 -0.7
v 0.2 2.1 -0.8
v 0.2 2.2 -0.2
v 0.2 2.2 -0.3
v 0.2 2.2 -0.4
v 0.2 2.2 -0.5
v 0.2 2.2 -0.6
v 0.2 2.2 -0.7
v 0.2 2.2 -0.8
v 0.2 2.2 -0.9
v 0.2 2.2 -1
v 0.2 2.3 -0.3
v 0.2 2.3 -0.4
v 0.2 2.3 -0.7
v 0.2 2.3 -0.8
v 0.2 2.3 -0.9
v 0.2 2.3 -1
v 0.2 2.4 0
v 0.2 2.4 -0.2
v 0.2 2.4 -0.3
v 0.2 2.4 -0.5
v 0.2 2.4 -0.6
v 0.2 2.4 -0.8
v 0.2 2.5 -0.7
v 0.2 2.5 -0.8
v 0.2 2.6 -0.3
v 0.2 2.6 -0.5
v 0.2 2.6 -0.6
v 0.2 2.6 -0.7
v 0.2 2.6 -0.8
v 0.2 2.6 -0.9
v 0.2 2.7 -0.2
v 0.2 2.7 -0.8
v 0.3 2.1 -0.9
v 0.3 2.1 -1
v 0.3 2.2 -0.9
v 0.3 2.2 -1
v 0.3 2.7 -0.2
v 0.3 2.7 -0.8
v 0.3 2.8 -0.2
v 0.3 2.8 -0.8
v 0.7 2 -0.2
v 0.7 2 -0.5
v 0.7 2 -0.6
v 0.7 2 -0.9
v 0.7 2.1 -0.2
v 0.7 2.1 -0.3
v 0.7 2.1 -0.4
v 0.7 2.1 -0.7
v 0.7 2.1 -0.8
v 0.7 2.2 -0.2
v 0.7 2.2 -0.3
v 0.7 2.2 -0.4
v 0.7 2.2 -0.5
v 0.7 2.2 -0.6
v 0.7 2.2 -0.7
v 0.7 2.2 -0.8
v 0.7 2.2 -0.9
v 0.3 2 -0.2
v 0.3 2 -0.5
v 0.3 2 -0.6
v 0.3 2 -0.9
v 0.3 2.1 -0.2
v 0.3 2.1 -0.3
v 0.3 2.1 -0.4
v 0.3 2.1 -0.7
v 0.3 2.1 -0.8
v 0.3 2.1 -0.9
v 0.3 2.2 -0.2
v 0.3 2.2 -0.3
v 0.3 2.2 -0.4
v 0.3 2.2 -0.5
v 0.3 2.2 -0.6
v 0.3 2.2 -0.7
v 0.3 2.2 -0.8
v 0.4 2.1 -0.8
v 0.4 2.1 -0.9
v 0.4 2.2 -0.8
v 0.4 2.2 -0.9
v 0.6 2.1 -0.9
v 0.6 2.1 -1
v 0.6 2.2 -0.9
v 0.6 2.2 -1
v 0.7 2.7 -0.2
v 0.7 2.7 -0.8
v 0.7 2.8 -0.2
v 0.7 2.8 -0.8
v 0.8 2 -0.2
v 0.8 2 -0.5
v 0.8 2 -0.6
v 0.8 2 -0.9
v 0.8 2.1 0
v 0.8 2.1 -0.2
v 0.8 2.1 -0.3
v 0.8 2.1 -0.4
v 0.8 2.1 -0.7
v 0.8 2.1 -0.8
v 0.8 2.2 -0.2
v 0.8 2.2 -0.3
v 0.8 2.2 -0.4
v 0.8 2.2 -0.5
v 0.8 2.2 -0.6
v 0.8 2.2 -0.7
v 0.8 2.2 -0.8
v 0.8 2.2 -0.9
v 0.8 2.2 -1
v 0.8 2.3 -0.3
v 0.8 2.3 -0.4
v 0.8 2.3 -0.7
v 0.8 2.3 -0.8
v 0.8 2.3 -0.9
v 0.8 2.3 -1
v 0.8 2.4 0
v 0.8 2.4 -0.2
v 0.8 2.4 -0.3
v 0.8 2.4 -0.5
v 0.8 2.4 -0.6
v 0.8 2.4 -0.8
v 0.8 2.5 -0.7
v 0.8 2.5 -0.8
v 0.8 2.6 -0.3
v 0.8 2.6 -0.5
v 0.8 2.6 -0.6
v 0.8 2.6 -0.7
v 0.8 2.6 -0.8
v 0.8 2.6 -0.9
v 0.8 2.7 -0.2
v 0.8 2.7 -0.8
v 0.2 2.1 0
v 0.2 2.4 0
v 0.3 2.2 0
v 0.3 2.3 0
v 0.4 2.1 0
v 0.4 2.2 0
v 0.4 2.3 0
v 0.6 2.1 0
v 0.6 2.2 0
v 0.6 2.3 0
v 0.7 2.2 0
v 0.7 2.3 0
v 0.8 2.1 0
v 0.8 2.4 0
v 0.2 2 -0.2
v 0.2 2.1 -0.2
v 0.2 2.4 -0.2
v 0.2 2.7 -0.2
v 0.3 2 -0.2
v 0.3 2.1 -0.2
v 0.3 2.4 -0.2
v 0.3 2.6 -0.2
v 0.3 2.7 -0.2
v 0.3 2.8 -0.2
v 0.7 2 -0.2
v 0.7 2.1 -0.2
v 0.7 2.4 -0.2
v 0.7 2.6 -0.2
v 0.7 2.7 -0.2
v 0.7 2.8 -0.2
v 0.8 2 -0.2
v 0.8 2.1 -0.2
v 0.8 2.4 -0.2
v 0.8 2.7 -0.2
v 0.2 2 -0.6
v 0.2 2.2 -0.6
v 0.3 2 -0.6
v 0.3 2.2 -0.6
v 0.7 2 -0.6
v 0.7 2.2 -0.6
v 0.8 2 -0.6
v 0.8 2.2 -0.6
v 0.3 2.1 -0.8
v 0.3 2.2 -0.8
v 0.4 2.1 -0.8
v 0.4 2.2 -0.8
v 0.4 2.1 -0.9
v 0.4 2.2 -0.9
v 0.6 2.1 -0.9
v 0.6 2.2 -0.9
v 0.3 2.1 -0.2
v 0.3 2.2 -0.2
v 0.7 2.1 -0.2
v 0.7 2.2 -0.2
v 0.2 2 -0.5
v 0.2 2.2 -0.5
v 0.3 2 -0.5
v 0.3 2.2 -0.5
v 0.7 2 -0.5
v 0.7 2.2 -0.5
v 0.8 2 -0.5
v 0.8 2.2 -0.5
v 0.2 2.6 -0.8
v 0.2 2.7 -0.8
v 0.3 2.6 -0.8
v 0.3 2.7 -0.8
v 0.3 2.8 -0.8
v 0.7 2.6 -0.8
v 0.7 2.7 -0.8
v 0.7 2.8 -0.8
v 0.8 2.6 -0.8
v 0.8 2.7 -0.8
v 0.2 2 -0.9
v 0.2 2.2 -0.9
v 0.2 2.3 -0.9
v 0.2 2.6 -0.9
v 0.3 2 -0.9
v 0.3 2.1 -0.9
v 0.3 2.2 -0.9
v 0.3 2.4 -0.9
v 0.3 2.6 -0.9
v 0.7 2 -0.9
v 0.7 2.2 -0.9
v 0.7 2.4 -0.9
v 0.7 2.6 -0.9
v 0.8 2 -0.9
v 0.8 2.2 -0.9
v 0.8 2.3 -0.9
v 0.8 2.6 -0.9
v 0.2 2.2 -1
v 0.2 2.3 -1
v 0.3 2.1 -1
v 0.3 2.2 -1
v 0.4 2.1 -1
v 0.4 2.2 -1
v 0.6 2.1 -1
v 0.6 2.2 -1
v 0.8 2.2 -1
v 0.8 2.3 -1
v 0.2 2 -0.2
v 0.3 2 -0.2
v 0.7 2 -0.2
v 0.8 2 -0.2
v 0.2 2 -0.5
v 0.3 2 -0.5
v 0.7 2 -0.5
v 0.8 2 -0.5
v 0.2 2 -0.6
v 0.3 2 -0.6
v 0.7 2 -0.6
v 0.8 2 -0.6
v 0.2 2 -0.9
v 0.3 2 -0.9
v 0.7 2 -0.9
v 0.8 2 -0.9
v 0.2 2.1 0
v 0.4 2.1 0
v 0.6 2.1 0
v 0.8 2.1 0
v 0.4 2.1 -0.1
v 0.6 2.1 -0.1
v 0.2 2.1 -0.2
v 0.3 2.1 -0.2
v 0.7 2.1 -0.2
v 0.8 2.1 -0.2
v 0.3 2.1 -0.8
v 0.4 2.1 -0.8
v 0.3 2.1 -0.9
v 0.4 2.1 -0.9
v 0.6 2.1 -0.9
v 0.3 2.1 -1
v 0.4 2.1 -1
v 0.6 2.1 -1
v 0.3 2.2 -0.2
v 0.7 2.2 -0.2
v 0.3 2.2 -0.3
v 0.7 2.2 -0.3
v 0.3 2.2 -0.4
v 0.7 2.2 -0.4
v 0.2 2.2 -0.5
v 0.3 2.2 -0.5
v 0.7 2.2 -0.5
v 0.8 2.2 -0.5
v 0.2 2.2 -0.6
v 0.3 2.2 -0.6
v 0.7 2.2 -0.6
v 0.8 2.2 -0.6
v 0.3 2.2 -0.7
v 0.7 2.2 -0.7
v 0.3 2.2 -0.8
v 0.4 2.2 -0.8
v 0.7 2.2 -0.8
v 0.2 2.2 -0.9
v 0.3 2.2 -0.9
v 0.4 2.2 -0.9
v 0.6 2.2 -0.9
v 0.7 2.2 -0.9
v 0.8 2.2 -0.9
v 0.2 2.2 -1
v 0.3 2.2 -1
v 0.6 2.2 -1
v 0.8 2.2 -1
v 0.2 2.3 -0.9
v 0.8 2.3 -0.9
v 0.2 2.3 -1
v 0.8 2.3 -1
v 0.2 2.4 0
v 0.8 2.4 0
v 0.2 2.4 -0.2
v 0.3 2.4 -0.2
v 0.7 2.4 -0.2
v 0.8 2.4 -0.2
v 0.2 2.6 -0.8
v 0.3 2.6 -0.8
v 0.7 2.6 -0.8
v 0.8 2.6 -0.8
v 0.2 2.6 -0.9
v 0.3 2.6 -0.9
v 0.7 2.6 -0.9
v 0.8 2.6 -0.9
v 0.2 2.7 -0.2
v 0.3 2.7 -0.2
v 0.7 2.7 -0.2
v 0.8 2.7 -0.2
v 0.2 2.7 -0.8
v 0.3 2.7 -0.8
v 0.7 2.7 -0.8
v 0.8 2.7 -0.8
v 0.3 2.8 -0.2
v 0.7 2.8 -0.2
v 0.3 2.8 -0.8
v 0.7 2.8 -0.8

# faces
f 6/9/1 2/9/1 1/9/1
f 7/9/1 2/9/1 6/9/1
f 8/9/1 2/9/1 7/9/1
f 9/9/1 4/9/1 3/9/1
f 10/9/1 4/9/1 9/9/1
f 11/1/1 6/1/1 5/1/1
f 11/9/1 7/9/1 6/9/1
f 12/7/1 8/7/1 7/7/1
f 12/9/1 7/9/1 11/9/1
f 13/9/1 2/9/1 8/9/1
f 13/7/1 8/7/1 12/7/1
f 14/9/1 2/9/1 13/9/1
f 15/9/1 9/9/1 3/9/1
f 16/7/1 10/7/1 9/7/1
f 16/9/1 9/9/1 15/9/1
f 17/9/1 4/9/1 10/9/1
f 17/7/1 10/7/1 16/7/1
f 18/9/1 4/9/1 17/9/1
f 20/1/1 12/1/1 11/1/1
f 20/9/1 13/9/1 12/9/1
f 21/1/1 16/1/1 15/1/1
f 21/9/1 13/9/1 20/9/1
f 21/1/1 15/1/1 14/1/1
f 21/1/1 14/1/1 13/1/1
f 22/9/1 17/9/1 16/9/1
f 22/1/1 16/1/1 21/1/1
f 23/1/1 18/1/1 17/1/1
f 23/9/1 17/9/1 22/9/1
f 24/7/1 19/7/1 18/7/1
f 24/1/1 18/1/1 23/1/1
f 25/7/1 19/7/1 24/7/1
f 26/1/1 23/1/1 22/1/1
f 26/1/1 20/1/1 11/1/1
f 26/1/1 24/1/1 23/1/1
f 26/1/1 22/1/1 21/1/1
f 26/1/1 21/1/1 20/1/1
f 26/1/1 11/1/1 5/1/1
f 27/1/1 24/1/1 26/1/1
f 28/1/1 24/1/1 27/1/1
f 29/1/1 24/1/1 28/1/1
f 30/1/1 24/1/1 29/1/1
f 31/1/1 24/1/1 30/1/1
f 32/4/1 31/4/1 30/4/1
f 33/1/1 24/1/1 31/1/1
f 33/4/1 31/4/1 32/4/1
f 34/1/1 28/1/1 27/1/1
f 34/4/1 29/4/1 28/4/1
f 35/1/1 30/1/1 29/1/1
f 35/4/1 29/4/1 34/4/1
f 36/4/1 32/4/1 30/4/1
f 36/1/1 30/1/1 35/1/1
f 37/1/1 33/1/1 32/1/1
f 37/4/1 32/4/1 36/4/1
f 38/1/1 24/1/1 33/1/1
f 38/1/1 33/1/1 37/1/1
f 39/1/1 24/1/1 38/1/1
f 40/1/1 35/1/1 34/1/1
f 40/1/1 37/1/1 36/1/1
f 40/1/1 38/1/1 37/1/1
f 40/1/1 34/1/1 27/1/1
f 40/1/1 36/1/1 35/1/1
f 41/1/1 38/1/1 40/1/1
f 44/8/1 43/8/1 42/8/1
f 45/8/1 43/8/1 44/8/1
f 48/1/1 47/1/1 46/1/1
f 49/1/1 47/1/1 48/1/1
f 54/9/1 51/9/1 50/9/1
f 55/9/1 51/9/1 54/9/1
f 56/9/1 51/9/1 55/9/1
f 57/9/1 53/9/1 52/9/1
f 58/9/1 53/9/1 57/9/1
f 59/9/1 55/9/1 54/9/1
f 60/7/1 56/7/1 55/7/1
f 60/9/1 55/9/1 59/9/1
f 61/9/1 51/9/1 56/9/1
f 61/7/1 56/7/1 60/7/1
f 62/9/1 51/9/1 61/9/1
f 63/9/1 57/9/1 52/9/1
f 64/7/1 58/7/1 57/7/1
f 64/9/1 57/9/1 63/9/1
f 65/9/1 53/9/1 58/9/1
f 65/7/1 58/7/1 64/7/1
f 66/9/1 53/9/1 65/9/1
f 67/9/2 68/9/2 71/9/2
f 71/9/2 68/9/2 72/9/2
f 72/9/2 68/9/2 73/9/2
f 69/9/2 70/9/2 74/9/2
f 74/9/2 70/9/2 75/9/2
f 75/9/2 70/9/2 76/9/2
f 71/9/2 72/9/2 77/9/2
f 72/7/2 73/7/2 78/7/2
f 77/9/2 72/9/2 78/9/2
f 73/9/2 68/9/2 79/9/2
f 78/7/2 73/7/2 79/7/2
f 79/9/2 68/9/2 80/9/2
f 69/9/2 74/9/2 81/9/2
f 74/7/2 75/7/2 82/7/2
f 81/9/2 74/9/2 82/9/2
f 82/7/2 75/7/2 83/7/2
f 84/8/2 85/8/2 86/8/2
f 86/8/2 85/8/2 87/8/2
f 88/6/2 89/6/2 90/6/2
f 90/6/2 89/6/2 91/6/2
f 92/1/2 93/1/2 94/1/2
f 94/1/2 93/1/2 95/1/2
f 96/9/2 97/9/2 101/9/2
f 101/9/2 97/9/2 102/9/2
f 102/9/2 97/9/2 103/9/2
f 98/9/2 99/9/2 104/9/2
f 104/9/2 99/9/2 105/9/2
f 100/1/2 101/1/2 106/1/2
f 101/9/2 102/9/2 106/9/2
f 102/7/2 103/7/2 107/7/2
f 106/9/2 102/9/2 107/9/2
f 103/9/2 97/9/2 108/9/2
f 107/7/2 103/7/2 108/7/2
f 108/9/2 97/9/2 109/9/2
f 98/9/2 104/9/2 110/9/2
f 104/7/2 105/7/2 111/7/2
f 110/9/2 104/9/2 111/9/2
f 105/9/2 99/9/2 112/9/2
f 111/7/2 105/7/2 112/7/2
f 112/9/2 99/9/2 113/9/2
f 106/1/2 107/1/2 115/1/2
f 107/9/2 108/9/2 115/9/2
f 110/1/2 111/1/2 116/1/2
f 115/9/2 108/9/2 116/9/2
f 109/1/2 110/1/2 116/1/2
f 108/1/2 109/1/2 116/1/2
f 111/9/2 112/9/2 117/9/2
f 116/1/2 111/1/2 117/1/2
f 112/1/2 113/1/2 118/1/2
f 117/9/2 112/9/2 118/9/2
f 113/7/2 114/7/2 119/7/2
f 118/1/2 113/1/2 119/1/2
f 119/7/2 114/7/2 120/7/2
f 117/1/2 118/1/2 121/1/2
f 106/1/2 115/1/2 121/1/2
f 118/1/2 119/1/2 121/1/2
f 116/1/2 117/1/2 121/1/2
f 115/1/2 116/1/2 121/1/2
f 100/1/2 106/1/2 121/1/2
f 121/1/2 119/1/2 122/1/2
f 122/1/2 119/1/2 123/1/2
f 123/1/2 119/1/2 124/1/2
f 124/1/2 119/1/2 125/1/2
f 125/1/2 119/1/2 126/1/2
f 125/4/2 126/4/2 127/4/2
f 126/1/2 119/1/2 128/1/2
f 127/4/2 126/4/2 128/4/2
f 122/1/2 123/1/2 129/1/2
f 123/4/2 124/4/2 129/4/2
f 124/1/2 125/1/2 130/1/2
f 129/4/2 124/4/2 130/4/2
f 125/4/2 127/4/2 131/4/2
f 130/1/2 125/1/2 131/1/2
f 127/1/2 128/1/2 132/1/2
f 131/4/2 127/4/2 132/4/2
f 128/1/2 119/1/2 133/1/2
f 132/1/2 128/1/2 133/1/2
f 133/1/2 119/1/2 134/1/2
f 129/1/2 130/1/2 135/1/2
f 131/1/2 132/1/2 135/1/2
f 132/1/2 133/1/2 135/1/2
f 122/1/2 129/1/2 135/1/2
f 130/1/2 131/1/2 135/1/2
f 135/1/2 133/1/2 136/1/2
f 139/1/3 138/1/3 137/1/3
f 140/1/3 138/1/3 139/1/3
f 141/1/3 139/1/3 137/1/3
f 142/2/3 140/2/3 139/2/3
f 142/1/3 139/1/3 141/1/3
f 143/1/3 138/1/3 140/1/3
f 143/2/3 140/2/3 142/2/3
f 144/6/3 142/6/3 141/6/3
f 145/1/3 143/1/3 142/1/3
f 145/6/3 142/6/3 144/6/3
f 146/1/3 138/1/3 143/1/3
f 146/1/3 143/1/3 145/1/3
f 147/1/3 145/1/3 144/1/3
f 147/2/3 146/2/3 145/2/3
f 148/1/3 138/1/3 146/1/3
f 148/2/3 146/2/3 147/2/3
f 149/1/3 147/1/3 144/1/3
f 149/1/3 148/1/3 147/1/3
f 150/1/3 138/1/3 148/1/3
f 150/1/3 148/1/3 149/1/3
f 155/9/3 152/9/3 151/9/3
f 156/9/3 152/9/3 155/9/3
f 157/1/3 154/1/3 153/1/3
f 158/1/3 154/1/3 157/1/3
f 159/1/3 154/1/3 158/1/3
f 163/4/3 158/4/3 157/4/3
f 164/1/3 160/1/3 159/1/3
f 164/4/3 158/4/3 163/4/3
f 164/1/3 159/1/3 158/1/3
f 165/1/3 160/1/3 164/1/3
f 166/1/3 160/1/3 165/1/3
f 167/9/3 162/9/3 161/9/3
f 168/9/3 162/9/3 167/9/3
f 169/1/3 164/1/3 163/1/3
f 169/1/3 165/1/3 164/1/3
f 170/1/3 165/1/3 169/1/3
f 173/9/3 172/9/3 171/9/3
f 174/9/3 172/9/3 173/9/3
f 177/9/3 176/9/3 175/9/3
f 178/9/3 176/9/3 177/9/3
f 181/8/3 180/8/3 179/8/3
f 182/8/3 180/8/3 181/8/3
f 185/6/3 184/6/3 183/6/3
f 186/6/3 184/6/3 185/6/3
f 187/1/4 188/1/4 189/1/4
f 189/1/4 188/1/4 190/1/4
f 191/9/4 192/9/4 193/9/4
f 193/9/4 192/9/4 194/9/4
f 195/9/4 196/9/4 197/9/4
f 197/9/4 196/9/4 198/9/4
f 199/1/4 200/1/4 201/1/4
f 201/1/4 200/1/4 202/1/4
f 201/3/4 202/3/4 204/3/4
f 202/1/4 203/1/4 205/1/4
f 204/3/4 202/3/4 205/3/4
f 205/1/4 203/1/4 206/1/4
f 204/1/4 205/1/4 207/1/4
f 207/1/4 205/1/4 208/1/4
f 209/9/4 210/9/4 213/9/4
f 213/9/4 210/9/4 214/9/4
f 214/9/4 210/9/4 215/9/4
f 211/1/4 212/1/4 216/1/4
f 216/1/4 212/1/4 217/1/4
f 216/4/4 217/4/4 220/4/4
f 211/1/4 216/1/4 220/1/4
f 220/4/4 217/4/4 221/4/4
f 218/9/4 219/9/4 222/9/4
f 222/9/4 219/9/4 223/9/4
f 211/1/4 220/1/4 224/1/4
f 220/1/4 221/1/4 224/1/4
f 224/1/4 221/1/4 225/1/4
f 226/7/4 227/7/4 229/7/4
f 228/8/4 229/8/4 230/8/4
f 229/7/4 227/7/4 231/7/4
f 230/8/4 229/8/4 231/8/4
f 230/6/4 231/6/4 232/6/4
f 231/7/4 227/7/4 233/7/4
f 232/6/4 231/6/4 233/6/4
f 233/7/4 227/7/4 234/7/4
f 234/7/4 227/7/4 235/7/4
f 240/9/5 237/9/5 236/9/5
f 241/9/5 237/9/5 240/9/5
f 242/9/5 239/9/5 238/9/5
f 243/9/5 239/9/5 242/9/5
f 248/9/5 245/9/5 244/9/5
f 249/9/5 245/9/5 248/9/5
f 250/9/5 247/9/5 246/9/5
f 251/9/5 247/9/5 250/9/5
f 256/1/5 253/1/5 252/1/5
f 256/6/5 254/6/5 253/6/5
f 257/1/5 255/1/5 254/1/5
f 257/6/5 254/6/5 256/6/5
f 258/1/5 256/1/5 252/1/5
f 258/1/5 257/1/5 256/1/5
f 259/1/5 257/1/5 258/1/5
f 260/1/5 255/1/5 257/1/5
f 260/1/5 257/1/5 259/1/5
f 261/1/5 255/1/5 260/1/5
f 264/8/5 263/8/5 262/8/5
f 265/8/5 263/8/5 264/8/5
f 267/8/5 265/8/5 264/8/5
f 268/6/5 266/6/5 265/6/5
f 268/8/5 265/8/5 267/8/5
f 269/6/5 266/6/5 268/6/5
f 272/1/5 271/1/5 270/1/5
f 273/1/5 271/1/5 272/1/5
f 274/1/5 273/1/5 272/1/5
f 275/1/5 273/1/5 274/1/5
f 277/1/5 275/1/5 274/1/5
f 278/1/5 275/1/5 277/1/5
f 280/1/5 278/1/5 277/1/5
f 280/1/5 279/1/5 278/1/5
f 280/1/5 277/1/5 276/1/5
f 281/1/5 279/1/5 280/1/5
f 282/1/5 279/1/5 281/1/5
f 283/1/5 279/1/5 282/1/5
f 284/1/5 282/1/5 281/1/5
f 285/1/5 282/1/5 284/1/5
f 286/1/5 285/1/5 284/1/5
f 287/1/5 285/1/5 286/1/5
f 288/1/5 285/1/5 287/1/5
f 291/1/5 288/1/5 287/1/5
f 292/1/5 288/1/5 291/1/5
f 293/1/5 288/1/5 292/1/5
f 295/7/5 290/7/5 289/7/5
f 296/7/5 290/7/5 295/7/5
f 297/7/5 293/7/5 292/7/5
f 297/7/5 294/7/5 293/7/5
f 298/7/5 294/7/5 297/7/5
f 299/7/6 300/7/6 301/7/6
f 301/7/6 300/7/6 302/7/6
f 303/1/6 304/1/6 305/1/6
f 305/1/6 304/1/6 306/1/6
f 306/1/6 304/1/6 307/1/6
f 307/1/6 304/1/6 308/1/6
f 309/1/6 310/1/6 313/1/6
f 310/4/6 311/4/6 314/4/6
f 313/1/6 310/1/6 314/1/6
f 311/1/6 312/1/6 315/1/6
f 314/4/6 311/4/6 315/4/6
f 315/1/6 312/1/6 316/1/6
f 317/1/6 318/1/6 321/1/6
f 321/1/6 318/1/6 322/1/6
f 319/1/6 320/1/6 323/1/6
f 323/1/6 320/1/6 324/1/6
f 325/1/6 326/1/6 327/1/6
f 327/1/6 326/1/6 328/1/6
