# MagicaVoxel @ Ephtracy

# group
o 

# material
mtllib 10_car_02.mtl
usemtl palette

# normals
vn -1 0 0
vn 1 0 0
vn 0 0 1
vn 0 0 -1
vn 0 -1 0
vn 0 1 0

# texcoords
vt 0.205078 0.5
vt 0.587891 0.5
vt 0.755859 0.5
vt 0.857422 0.5
vt 0.962891 0.5
vt 0.982422 0.5
vt 0.986328 0.5
vt 0.990234 0.5

# verts
v 0.2 2 -0.2
v 0.2 2 -0.5
v 0.2 2 -0.6
v 0.2 2 -0.9
v 0.2 2.1 0
v 0.2 2.1 -0.2
v 0.2 2.1 -0.3
v 0.2 2.1 -0.4
v 0.2 2.1 -0.7
v 0.2 2.1 -0.8
v 0.2 2.2 -0.2
v 0.2 2.2 -0.3
v 0.2 2.2 -0.4
v 0.2 2.2 -0.5
v 0.2 2.2 -0.6
v 0.2 2.2 -0.7
v 0.2 2.2 -0.8
v 0.2 2.2 -0.9
v 0.2 2.2 -1
v 0.2 2.3 -0.3
v 0.2 2.3 -0.4
v 0.2 2.3 -0.7
v 0.2 2.3 -0.8
v 0.2 2.3 -0.9
v 0.2 2.3 -1
v 0.2 2.4 0
v 0.2 2.4 -0.2
v 0.2 2.4 -0.3
v 0.2 2.4 -0.5
v 0.2 2.4 -0.6
v 0.2 2.4 -0.8
v 0.2 2.5 -0.7
v 0.2 2.5 -0.8
v 0.2 2.6 -0.3
v 0.2 2.6 -0.5
v 0.2 2.6 -0.6
v 0.2 2.6 -0.7
v 0.2 2.6 -0.8
v 0.2 2.6 -0.9
v 0.2 2.7 -0.2
v 0.2 2.7 -0.8
v 0.3 2.1 -0.9
v 0.3 2.1 -1
v 0.3 2.2 -0.9
v 0.3 2.2 -1
v 0.3 2.7 -0.2
v 0.3 2.7 -0.8
v 0.3 2.8 -0.2
v 0.3 2.8 -0.8
v 0.7 2 -0.2
v 0.7 2 -0.5
v 0.7 2 -0.6
v 0.7 2 -0.9
v 0.7 2.1 -0.2
v 0.7 2.1 -0.3
v 0.7 2.1 -0.4
v 0.7 2.1 -0.7
v 0.7 2.1 -0.8
v 0.7 2.2 -0.2
v 0.7 2.2 -0.3
v 0.7 2.2 -0.4
v 0.7 2.2 -0.5
v 0.7 2.2 -0.6
v 0.7 2.2 -0.7
v 0.7 2.2 -0.8
v 0.7 2.2 -0.9
v 0.3 2 -0.2
v 0.3 2 -0.5
v 0.3 2 -0.6
v 0.3 2 -0.9
v 0.3 2.1 -0.2
v 0.3 2.1 -0.3
v 0.3 2.1 -0.4
v 0.3 2.1 -0.7
v 0.3 2.1 -0.8
v 0.3 2.1 -0.9
v 0.3 2.2 -0.2
v 0.3 2.2 -0.3
v 0.3 2.2 -0.4
v 0.3 2.2 -0.5
v 0.3 2.2 -0.6
v 0.3 2.2 -0.7
v 0.3 2.2 -0.8
v 0.4 2.1 -0.8
v 0.4 2.1 -0.9
v 0.4 2.2 -0.8
v 0.4 2.2 -0.9
v 0.6 2.1 -0.9
v 0.6 2.1 -1
v 0.6 2.2 -0.9
v 0.6 2.2 -1
v 0.7 2.7 -0.2
v 0.7 2.7 -0.8
v 0.7 2.8 -0.2
v 0.7 2.8 -0.8
v 0.8 2 -0.2
v 0.8 2 -0.5
v 0.8 2 -0.6
v 0.8 2 -0.9
v 0.8 2.1 0
v 0.8 2.1 -0.2
v 0.8 2.1 -0.3
v 0.8 2.1 -0.4
v 0.8 2.1 -0.7
v 0.8 2.1 -0.8
v 0.8 2.2 -0.2
v 0.8 2.2 -0.3
v 0.8 2.2 -0.4
v 0.8 2.2 -0.5
v 0.8 2.2 -0.6
v 0.8 2.2 -0.7
v 0.8 2.2 -0.8
v 0.8 2.2 -0.9
v 0.8 2.2 -1
v 0.8 2.3 -0.3
v 0.8 2.3 -0.4
v 0.8 2.3 -0.7
v 0.8 2.3 -0.8
v 0.8 2.3 -0.9
v 0.8 2.3 -1
v 0.8 2.4 0
v 0.8 2.4 -0.2
v 0.8 2.4 -0.3
v 0.8 2.4 -0.5
v 0.8 2.4 -0.6
v 0.8 2.4 -0.8
v 0.8 2.5 -0.7
v 0.8 2.5 -0.8
v 0.8 2.6 -0.3
v 0.8 2.6 -0.5
v 0.8 2.6 -0.6
v 0.8 2.6 -0.7
v 0.8 2.6 -0.8
v 0.8 2.6 -0.9
v 0.8 2.7 -0.2
v 0.8 2.7 -0.8
v 0.2 2.1 0
v 0.2 2.4 0
v 0.3 2.2 0
v 0.3 2.3 0
v 0.4 2.1 0
v 0.4 2.2 0
v 0.4 2.3 0
v 0.6 2.1 0
v 0.6 2.2 0
v 0.6 2.3 0
v 0.7 2.2 0
v 0.7 2.3 0
v 0.8 2.1 0
v 0.8 2.4 0
v 0.2 2 -0.2
v 0.2 2.1 -0.2
v 0.2 2.4 -0.2
v 0.2 2.7 -0.2
v 0.3 2 -0.2
v 0.3 2.1 -0.2
v 0.3 2.4 -0.2
v 0.3 2.6 -0.2
v 0.3 2.7 -0.2
v 0.3 2.8 -0.2
v 0.7 2 -0.2
v 0.7 2.1 -0.2
v 0.7 2.4 -0.2
v 0.7 2.6 -0.2
v 0.7 2.7 -0.2
v 0.7 2.8 -0.2
v 0.8 2 -0.2
v 0.8 2.1 -0.2
v 0.8 2.4 -0.2
v 0.8 2.7 -0.2
v 0.2 2 -0.6
v 0.2 2.2 -0.6
v 0.3 2 -0.6
v 0.3 2.2 -0.6
v 0.7 2 -0.6
v 0.7 2.2 -0.6
v 0.8 2 -0.6
v 0.8 2.2 -0.6
v 0.3 2.1 -0.8
v 0.3 2.2 -0.8
v 0.4 2.1 -0.8
v 0.4 2.2 -0.8
v 0.4 2.1 -0.9
v 0.4 2.2 -0.9
v 0.6 2.1 -0.9
v 0.6 2.2 -0.9
v 0.3 2.1 -0.2
v 0.3 2.2 -0.2
v 0.7 2.1 -0.2
v 0.7 2.2 -0.2
v 0.2 2 -0.5
v 0.2 2.2 -0.5
v 0.3 2 -0.5
v 0.3 2.2 -0.5
v 0.7 2 -0.5
v 0.7 2.2 -0.5
v 0.8 2 -0.5
v 0.8 2.2 -0.5
v 0.2 2.6 -0.8
v 0.2 2.7 -0.8
v 0.3 2.6 -0.8
v 0.3 2.7 -0.8
v 0.3 2.8 -0.8
v 0.7 2.6 -0.8
v 0.7 2.7 -0.8
v 0.7 2.8 -0.8
v 0.8 2.6 -0.8
v 0.8 2.7 -0.8
v 0.2 2 -0.9
v 0.2 2.2 -0.9
v 0.2 2.3 -0.9
v 0.2 2.6 -0.9
v 0.3 2 -0.9
v 0.3 2.1 -0.9
v 0.3 2.2 -0.9
v 0.3 2.4 -0.9
v 0.3 2.6 -0.9
v 0.7 2 -0.9
v 0.7 2.2 -0.9
v 0.7 2.4 -0.9
v 0.7 2.6 -0.9
v 0.8 2 -0.9
v 0.8 2.2 -0.9
v 0.8 2.3 -0.9
v 0.8 2.6 -0.9
v 0.2 2.2 -1
v 0.2 2.3 -1
v 0.3 2.1 -1
v 0.3 2.2 -1
v 0.4 2.1 -1
v 0.4 2.2 -1
v 0.6 2.1 -1
v 0.6 2.2 -1
v 0.8 2.2 -1
v 0.8 2.3 -1
v 0.2 2 -0.2
v 0.3 2 -0.2
v 0.7 2 -0.2
v 0.8 2 -0.2
v 0.2 2 -0.5
v 0.3 2 -0.5
v 0.7 2 -0.5
v 0.8 2 -0.5
v 0.2 2 -0.6
v 0.3 2 -0.6
v 0.7 2 -0.6
v 0.8 2 -0.6
v 0.2 2 -0.9
v 0.3 2 -0.9
v 0.7 2 -0.9
v 0.8 2 -0.9
v 0.2 2.1 0
v 0.4 2.1 0
v 0.6 2.1 0
v 0.8 2.1 0
v 0.4 2.1 -0.1
v 0.6 2.1 -0.1
v 0.2 2.1 -0.2
v 0.3 2.1 -0.2
v 0.7 2.1 -0.2
v 0.8 2.1 -0.2
v 0.3 2.1 -0.8
v 0.4 2.1 -0.8
v 0.3 2.1 -0.9
v 0.4 2.1 -0.9
v 0.6 2.1 -0.9
v 0.3 2.1 -1
v 0.4 2.1 -1
v 0.6 2.1 -1
v 0.3 2.2 -0.2
v 0.7 2.2 -0.2
v 0.3 2.2 -0.3
v 0.7 2.2 -0.3
v 0.3 2.2 -0.4
v 0.7 2.2 -0.4
v 0.2 2.2 -0.5
v 0.3 2.2 -0.5
v 0.7 2.2 -0.5
v 0.8 2.2 -0.5
v 0.2 2.2 -0.6
v 0.3 2.2 -0.6
v 0.7 2.2 -0.6
v 0.8 2.2 -0.6
v 0.3 2.2 -0.7
v 0.7 2.2 -0.7
v 0.3 2.2 -0.8
v 0.4 2.2 -0.8
v 0.7 2.2 -0.8
v 0.2 2.2 -0.9
v 0.3 2.2 -0.9
v 0.4 2.2 -0.9
v 0.6 2.2 -0.9
v 0.7 2.2 -0.9
v 0.8 2.2 -0.9
v 0.2 2.2 -1
v 0.3 2.2 -1
v 0.6 2.2 -1
v 0.8 2.2 -1
v 0.2 2.3 -0.9
v 0.8 2.3 -0.9
v 0.2 2.3 -1
v 0.8 2.3 -1
v 0.2 2.4 0
v 0.8 2.4 0
v 0.2 2.4 -0.2
v 0.3 2.4 -0.2
v 0.7 2.4 -0.2
v 0.8 2.4 -0.2
v 0.2 2.6 -0.8
v 0.3 2.6 -0.8
v 0.7 2.6 -0.8
v 0.8 2.6 -0.8
v 0.2 2.6 -0.9
v 0.3 2.6 -0.9
v 0.7 2.6 -0.9
v 0.8 2.6 -0.9
v 0.2 2.7 -0.2
v 0.3 2.7 -0.2
v 0.7 2.7 -0.2
v 0.8 2.7 -0.2
v 0.2 2.7 -0.8
v 0.3 2.7 -0.8
v 0.7 2.7 -0.8
v 0.8 2.7 -0.8
v 0.3 2.8 -0.2
v 0.7 2.8 -0.2
v 0.3 2.8 -0.8
v 0.7 2.8 -0.8

# faces
f 6/8/1 2/8/1 1/8/1
f 7/8/1 2/8/1 6/8/1
f 8/8/1 2/8/1 7/8/1
f 9/8/1 4/8/1 3/8/1
f 10/8/1 4/8/1 9/8/1
f 11/2/1 6/2/1 5/2/1
f 11/8/1 7/8/1 6/8/1
f 12/6/1 8/6/1 7/6/1
f 12/8/1 7/8/1 11/8/1
f 13/8/1 2/8/1 8/8/1
f 13/6/1 8/6/1 12/6/1
f 14/8/1 2/8/1 13/8/1
f 15/8/1 9/8/1 3/8/1
f 16/6/1 10/6/1 9/6/1
f 16/8/1 9/8/1 15/8/1
f 17/8/1 4/8/1 10/8/1
f 17/6/1 10/6/1 16/6/1
f 18/8/1 4/8/1 17/8/1
f 20/2/1 12/2/1 11/2/1
f 20/8/1 13/8/1 12/8/1
f 21/2/1 16/2/1 15/2/1
f 21/8/1 13/8/1 20/8/1
f 21/2/1 15/2/1 14/2/1
f 21/2/1 14/2/1 13/2/1
f 22/8/1 17/8/1 16/8/1
f 22/2/1 16/2/1 21/2/1
f 23/2/1 18/2/1 17/2/1
f 23/8/1 17/8/1 22/8/1
f 24/6/1 19/6/1 18/6/1
f 24/2/1 18/2/1 23/2/1
f 25/6/1 19/6/1 24/6/1
f 26/2/1 23/2/1 22/2/1
f 26/2/1 20/2/1 11/2/1
f 26/2/1 24/2/1 23/2/1
f 26/2/1 22/2/1 21/2/1
f 26/2/1 21/2/1 20/2/1
f 26/2/1 11/2/1 5/2/1
f 27/2/1 24/2/1 26/2/1
f 28/2/1 24/2/1 27/2/1
f 29/2/1 24/2/1 28/2/1
f 30/2/1 24/2/1 29/2/1
f 31/2/1 24/2/1 30/2/1
f 32/3/1 31/3/1 30/3/1
f 33/2/1 24/2/1 31/2/1
f 33/3/1 31/3/1 32/3/1
f 34/2/1 28/2/1 27/2/1
f 34/3/1 29/3/1 28/3/1
f 35/2/1 30/2/1 29/2/1
f 35/3/1 29/3/1 34/3/1
f 36/3/1 32/3/1 30/3/1
f 36/2/1 30/2/1 35/2/1
f 37/2/1 33/2/1 32/2/1
f 37/3/1 32/3/1 36/3/1
f 38/2/1 24/2/1 33/2/1
f 38/2/1 33/2/1 37/2/1
f 39/2/1 24/2/1 38/2/1
f 40/2/1 35/2/1 34/2/1
f 40/2/1 37/2/1 36/2/1
f 40/2/1 38/2/1 37/2/1
f 40/2/1 34/2/1 27/2/1
f 40/2/1 36/2/1 35/2/1
f 41/2/1 38/2/1 40/2/1
f 44/7/1 43/7/1 42/7/1
f 45/7/1 43/7/1 44/7/1
f 48/2/1 47/2/1 46/2/1
f 49/2/1 47/2/1 48/2/1
f 54/8/1 51/8/1 50/8/1
f 55/8/1 51/8/1 54/8/1
f 56/8/1 51/8/1 55/8/1
f 57/8/1 53/8/1 52/8/1
f 58/8/1 53/8/1 57/8/1
f 59/8/1 55/8/1 54/8/1
f 60/6/1 56/6/1 55/6/1
f 60/8/1 55/8/1 59/8/1
f 61/8/1 51/8/1 56/8/1
f 61/6/1 56/6/1 60/6/1
f 62/8/1 51/8/1 61/8/1
f 63/8/1 57/8/1 52/8/1
f 64/6/1 58/6/1 57/6/1
f 64/8/1 57/8/1 63/8/1
f 65/8/1 53/8/1 58/8/1
f 65/6/1 58/6/1 64/6/1
f 66/8/1 53/8/1 65/8/1
f 67/8/2 68/8/2 71/8/2
f 71/8/2 68/8/2 72/8/2
f 72/8/2 68/8/2 73/8/2
f 69/8/2 70/8/2 74/8/2
f 74/8/2 70/8/2 75/8/2
f 75/8/2 70/8/2 76/8/2
f 71/8/2 72/8/2 77/8/2
f 72/6/2 73/6/2 78/6/2
f 77/8/2 72/8/2 78/8/2
f 73/8/2 68/8/2 79/8/2
f 78/6/2 73/6/2 79/6/2
f 79/8/2 68/8/2 80/8/2
f 69/8/2 74/8/2 81/8/2
f 74/6/2 75/6/2 82/6/2
f 81/8/2 74/8/2 82/8/2
f 82/6/2 75/6/2 83/6/2
f 84/7/2 85/7/2 86/7/2
f 86/7/2 85/7/2 87/7/2
f 88/5/2 89/5/2 90/5/2
f 90/5/2 89/5/2 91/5/2
f 92/2/2 93/2/2 94/2/2
f 94/2/2 93/2/2 95/2/2
f 96/8/2 97/8/2 101/8/2
f 101/8/2 97/8/2 102/8/2
f 102/8/2 97/8/2 103/8/2
f 98/8/2 99/8/2 104/8/2
f 104/8/2 99/8/2 105/8/2
f 100/2/2 101/2/2 106/2/2
f 101/8/2 102/8/2 106/8/2
f 102/6/2 103/6/2 107/6/2
f 106/8/2 102/8/2 107/8/2
f 103/8/2 97/8/2 108/8/2
f 107/6/2 103/6/2 108/6/2
f 108/8/2 97/8/2 109/8/2
f 98/8/2 104/8/2 110/8/2
f 104/6/2 105/6/2 111/6/2
f 110/8/2 104/8/2 111/8/2
f 105/8/2 99/8/2 112/8/2
f 111/6/2 105/6/2 112/6/2
f 112/8/2 99/8/2 113/8/2
f 106/2/2 107/2/2 115/2/2
f 107/8/2 108/8/2 115/8/2
f 110/2/2 111/2/2 116/2/2
f 115/8/2 108/8/2 116/8/2
f 109/2/2 110/2/2 116/2/2
f 108/2/2 109/2/2 116/2/2
f 111/8/2 112/8/2 117/8/2
f 116/2/2 111/2/2 117/2/2
f 112/2/2 113/2/2 118/2/2
f 117/8/2 112/8/2 118/8/2
f 113/6/2 114/6/2 119/6/2
f 118/2/2 113/2/2 119/2/2
f 119/6/2 114/6/2 120/6/2
f 117/2/2 118/2/2 121/2/2
f 106/2/2 115/2/2 121/2/2
f 118/2/2 119/2/2 121/2/2
f 116/2/2 117/2/2 121/2/2
f 115/2/2 116/2/2 121/2/2
f 100/2/2 106/2/2 121/2/2
f 121/2/2 119/2/2 122/2/2
f 122/2/2 119/2/2 123/2/2
f 123/2/2 119/2/2 124/2/2
f 124/2/2 119/2/2 125/2/2
f 125/2/2 119/2/2 126/2/2
f 125/3/2 126/3/2 127/3/2
f 126/2/2 119/2/2 128/2/2
f 127/3/2 126/3/2 128/3/2
f 122/2/2 123/2/2 129/2/2
f 123/3/2 124/3/2 129/3/2
f 124/2/2 125/2/2 130/2/2
f 129/3/2 124/3/2 130/3/2
f 125/3/2 127/3/2 131/3/2
f 130/2/2 125/2/2 131/2/2
f 127/2/2 128/2/2 132/2/2
f 131/3/2 127/3/2 132/3/2
f 128/2/2 119/2/2 133/2/2
f 132/2/2 128/2/2 133/2/2
f 133/2/2 119/2/2 134/2/2
f 129/2/2 130/2/2 135/2/2
f 131/2/2 132/2/2 135/2/2
f 132/2/2 133/2/2 135/2/2
f 122/2/2 129/2/2 135/2/2
f 130/2/2 131/2/2 135/2/2
f 135/2/2 133/2/2 136/2/2
f 139/2/3 138/2/3 137/2/3
f 140/2/3 138/2/3 139/2/3
f 141/2/3 139/2/3 137/2/3
f 142/1/3 140/1/3 139/1/3
f 142/2/3 139/2/3 141/2/3
f 143/2/3 138/2/3 140/2/3
f 143/1/3 140/1/3 142/1/3
f 144/5/3 142/5/3 141/5/3
f 145/2/3 143/2/3 142/2/3
f 145/5/3 142/5/3 144/5/3
f 146/2/3 138/2/3 143/2/3
f 146/2/3 143/2/3 145/2/3
f 147/2/3 145/2/3 144/2/3
f 147/1/3 146/1/3 145/1/3
f 148/2/3 138/2/3 146/2/3
f 148/1/3 146/1/3 147/1/3
f 149/2/3 147/2/3 144/2/3
f 149/2/3 148/2/3 147/2/3
f 150/2/3 138/2/3 148/2/3
f 150/2/3 148/2/3 149/2/3
f 155/8/3 152/8/3 151/8/3
f 156/8/3 152/8/3 155/8/3
f 157/2/3 154/2/3 153/2/3
f 158/2/3 154/2/3 157/2/3
f 159/2/3 154/2/3 158/2/3
f 163/3/3 158/3/3 157/3/3
f 164/2/3 160/2/3 159/2/3
f 164/3/3 158/3/3 163/3/3
f 164/2/3 159/2/3 158/2/3
f 165/2/3 160/2/3 164/2/3
f 166/2/3 160/2/3 165/2/3
f 167/8/3 162/8/3 161/8/3
f 168/8/3 162/8/3 167/8/3
f 169/2/3 164/2/3 163/2/3
f 169/2/3 165/2/3 164/2/3
f 170/2/3 165/2/3 169/2/3
f 173/8/3 172/8/3 171/8/3
f 174/8/3 172/8/3 173/8/3
f 177/8/3 176/8/3 175/8/3
f 178/8/3 176/8/3 177/8/3
f 181/7/3 180/7/3 179/7/3
f 182/7/3 180/7/3 181/7/3
f 185/5/3 184/5/3 183/5/3
f 186/5/3 184/5/3 185/5/3
f 187/2/4 188/2/4 189/2/4
f 189/2/4 188/2/4 190/2/4
f 191/8/4 192/8/4 193/8/4
f 193/8/4 192/8/4 194/8/4
f 195/8/4 196/8/4 197/8/4
f 197/8/4 196/8/4 198/8/4
f 199/2/4 200/2/4 201/2/4
f 201/2/4 200/2/4 202/2/4
f 201/2/4 202/2/4 204/2/4
f 202/2/4 203/2/4 204/2/4
f 204/2/4 203/2/4 205/2/4
f 205/2/4 203/2/4 206/2/4
f 204/2/4 205/2/4 207/2/4
f 207/2/4 205/2/4 208/2/4
f 209/8/4 210/8/4 213/8/4
f 213/8/4 210/8/4 214/8/4
f 214/8/4 210/8/4 215/8/4
f 211/2/4 212/2/4 216/2/4
f 216/2/4 212/2/4 217/2/4
f 216/3/4 217/3/4 220/3/4
f 211/2/4 216/2/4 220/2/4
f 220/3/4 217/3/4 221/3/4
f 218/8/4 219/8/4 222/8/4
f 222/8/4 219/8/4 223/8/4
f 211/2/4 220/2/4 224/2/4
f 220/2/4 221/2/4 224/2/4
f 224/2/4 221/2/4 225/2/4
f 226/6/4 227/6/4 229/6/4
f 228/7/4 229/7/4 230/7/4
f 229/6/4 227/6/4 231/6/4
f 230/7/4 229/7/4 231/7/4
f 230/5/4 231/5/4 232/5/4
f 231/6/4 227/6/4 233/6/4
f 232/5/4 231/5/4 233/5/4
f 233/6/4 227/6/4 234/6/4
f 234/6/4 227/6/4 235/6/4
f 240/8/5 237/8/5 236/8/5
f 241/8/5 237/8/5 240/8/5
f 242/8/5 239/8/5 238/8/5
f 243/8/5 239/8/5 242/8/5
f 248/8/5 245/8/5 244/8/5
f 249/8/5 245/8/5 248/8/5
f 250/8/5 247/8/5 246/8/5
f 251/8/5 247/8/5 250/8/5
f 256/2/5 253/2/5 252/2/5
f 256/5/5 254/5/5 253/5/5
f 257/2/5 255/2/5 254/2/5
f 257/5/5 254/5/5 256/5/5
f 258/2/5 256/2/5 252/2/5
f 258/2/5 257/2/5 256/2/5
f 259/2/5 257/2/5 258/2/5
f 260/2/5 255/2/5 257/2/5
f 260/2/5 257/2/5 259/2/5
f 261/2/5 255/2/5 260/2/5
f 264/7/5 263/7/5 262/7/5
f 265/7/5 263/7/5 264/7/5
f 267/7/5 265/7/5 264/7/5
f 268/5/5 266/5/5 265/5/5
f 268/7/5 265/7/5 267/7/5
f 269/5/5 266/5/5 268/5/5
f 272/2/5 271/2/5 270/2/5
f 273/2/5 271/2/5 272/2/5
f 274/2/5 273/2/5 272/2/5
f 275/2/5 273/2/5 274/2/5
f 277/2/5 275/2/5 274/2/5
f 278/2/5 275/2/5 277/2/5
f 280/2/5 278/2/5 277/2/5
f 280/2/5 279/2/5 278/2/5
f 280/2/5 277/2/5 276/2/5
f 281/2/5 279/2/5 280/2/5
f 282/2/5 279/2/5 281/2/5
f 283/2/5 279/2/5 282/2/5
f 284/2/5 282/2/5 281/2/5
f 285/2/5 282/2/5 284/2/5
f 286/2/5 285/2/5 284/2/5
f 287/2/5 285/2/5 286/2/5
f 288/2/5 285/2/5 287/2/5
f 291/2/5 288/2/5 287/2/5
f 292/2/5 288/2/5 291/2/5
f 293/2/5 288/2/5 292/2/5
f 295/6/5 290/6/5 289/6/5
f 296/6/5 290/6/5 295/6/5
f 297/6/5 293/6/5 292/6/5
f 297/6/5 294/6/5 293/6/5
f 298/6/5 294/6/5 297/6/5
f 299/6/6 300/6/6 301/6/6
f 301/6/6 300/6/6 302/6/6
f 303/2/6 304/2/6 305/2/6
f 305/2/6 304/2/6 306/2/6
f 306/2/6 304/2/6 307/2/6
f 307/2/6 304/2/6 308/2/6
f 309/2/6 310/2/6 313/2/6
f 310/3/6 311/3/6 314/3/6
f 313/2/6 310/2/6 314/2/6
f 311/2/6 312/2/6 315/2/6
f 314/3/6 311/3/6 315/3/6
f 315/2/6 312/2/6 316/2/6
f 317/2/6 318/2/6 321/2/6
f 321/2/6 318/2/6 322/2/6
f 319/2/6 320/2/6 323/2/6
f 323/2/6 320/2/6 324/2/6
f 325/2/6 326/2/6 327/2/6
f 327/2/6 326/2/6 328/2/6
