# MagicaVoxel @ Ephtracy

# group
o 

# material
mtllib 10_car_01.mtl
usemtl palette

# normals
vn -1 0 0
vn 1 0 0
vn 0 0 1
vn 0 0 -1
vn 0 -1 0
vn 0 1 0

# texcoords
vt 0.205078 0.5
vt 0.755859 0.5
vt 0.857422 0.5
vt 0.962891 0.5
vt 0.982422 0.5
vt 0.986328 0.5
vt 0.990234 0.5

# verts
v 0.2 2 -0.2
v 0.2 2 -0.5
v 0.2 2 -0.6
v 0.2 2 -0.9
v 0.2 2.1 0
v 0.2 2.1 -0.2
v 0.2 2.1 -0.3
v 0.2 2.1 -0.4
v 0.2 2.1 -0.7
v 0.2 2.1 -0.8
v 0.2 2.2 -0.2
v 0.2 2.2 -0.3
v 0.2 2.2 -0.4
v 0.2 2.2 -0.5
v 0.2 2.2 -0.6
v 0.2 2.2 -0.7
v 0.2 2.2 -0.8
v 0.2 2.2 -0.9
v 0.2 2.2 -1
v 0.2 2.3 -0.3
v 0.2 2.3 -0.4
v 0.2 2.3 -0.7
v 0.2 2.3 -0.8
v 0.2 2.3 -0.9
v 0.2 2.3 -1
v 0.2 2.4 0
v 0.2 2.4 -0.2
v 0.2 2.4 -0.3
v 0.2 2.4 -0.5
v 0.2 2.4 -0.6
v 0.2 2.4 -0.8
v 0.2 2.5 -0.7
v 0.2 2.5 -0.8
v 0.2 2.6 -0.3
v 0.2 2.6 -0.5
v 0.2 2.6 -0.6
v 0.2 2.6 -0.7
v 0.2 2.6 -0.8
v 0.2 2.6 -0.9
v 0.2 2.7 -0.2
v 0.2 2.7 -0.8
v 0.3 2.1 -0.9
v 0.3 2.1 -1
v 0.3 2.2 -0.9
v 0.3 2.2 -1
v 0.3 2.7 -0.2
v 0.3 2.7 -0.8
v 0.3 2.8 -0.2
v 0.3 2.8 -0.8
v 0.7 2 -0.2
v 0.7 2 -0.5
v 0.7 2 -0.6
v 0.7 2 -0.9
v 0.7 2.1 -0.2
v 0.7 2.1 -0.3
v 0.7 2.1 -0.4
v 0.7 2.1 -0.7
v 0.7 2.1 -0.8
v 0.7 2.2 -0.2
v 0.7 2.2 -0.3
v 0.7 2.2 -0.4
v 0.7 2.2 -0.5
v 0.7 2.2 -0.6
v 0.7 2.2 -0.7
v 0.7 2.2 -0.8
v 0.7 2.2 -0.9
v 0.3 2 -0.2
v 0.3 2 -0.5
v 0.3 2 -0.6
v 0.3 2 -0.9
v 0.3 2.1 -0.2
v 0.3 2.1 -0.3
v 0.3 2.1 -0.4
v 0.3 2.1 -0.7
v 0.3 2.1 -0.8
v 0.3 2.1 -0.9
v 0.3 2.2 -0.2
v 0.3 2.2 -0.3
v 0.3 2.2 -0.4
v 0.3 2.2 -0.5
v 0.3 2.2 -0.6
v 0.3 2.2 -0.7
v 0.3 2.2 -0.8
v 0.4 2.1 -0.8
v 0.4 2.1 -0.9
v 0.4 2.2 -0.8
v 0.4 2.2 -0.9
v 0.6 2.1 -0.9
v 0.6 2.1 -1
v 0.6 2.2 -0.9
v 0.6 2.2 -1
v 0.7 2.7 -0.2
v 0.7 2.7 -0.8
v 0.7 2.8 -0.2
v 0.7 2.8 -0.8
v 0.8 2 -0.2
v 0.8 2 -0.5
v 0.8 2 -0.6
v 0.8 2 -0.9
v 0.8 2.1 0
v 0.8 2.1 -0.2
v 0.8 2.1 -0.3
v 0.8 2.1 -0.4
v 0.8 2.1 -0.7
v 0.8 2.1 -0.8
v 0.8 2.2 -0.2
v 0.8 2.2 -0.3
v 0.8 2.2 -0.4
v 0.8 2.2 -0.5
v 0.8 2.2 -0.6
v 0.8 2.2 -0.7
v 0.8 2.2 -0.8
v 0.8 2.2 -0.9
v 0.8 2.2 -1
v 0.8 2.3 -0.3
v 0.8 2.3 -0.4
v 0.8 2.3 -0.7
v 0.8 2.3 -0.8
v 0.8 2.3 -0.9
v 0.8 2.3 -1
v 0.8 2.4 0
v 0.8 2.4 -0.2
v 0.8 2.4 -0.3
v 0.8 2.4 -0.5
v 0.8 2.4 -0.6
v 0.8 2.4 -0.8
v 0.8 2.5 -0.7
v 0.8 2.5 -0.8
v 0.8 2.6 -0.3
v 0.8 2.6 -0.5
v 0.8 2.6 -0.6
v 0.8 2.6 -0.7
v 0.8 2.6 -0.8
v 0.8 2.6 -0.9
v 0.8 2.7 -0.2
v 0.8 2.7 -0.8
v 0.2 2.1 0
v 0.2 2.4 0
v 0.3 2.2 0
v 0.3 2.3 0
v 0.4 2.1 0
v 0.4 2.2 0
v 0.4 2.3 0
v 0.6 2.1 0
v 0.6 2.2 0
v 0.6 2.3 0
v 0.7 2.2 0
v 0.7 2.3 0
v 0.8 2.1 0
v 0.8 2.4 0
v 0.2 2 -0.2
v 0.2 2.1 -0.2
v 0.2 2.4 -0.2
v 0.2 2.7 -0.2
v 0.3 2 -0.2
v 0.3 2.1 -0.2
v 0.3 2.4 -0.2
v 0.3 2.6 -0.2
v 0.3 2.7 -0.2
v 0.3 2.8 -0.2
v 0.7 2 -0.2
v 0.7 2.1 -0.2
v 0.7 2.4 -0.2
v 0.7 2.6 -0.2
v 0.7 2.7 -0.2
v 0.7 2.8 -0.2
v 0.8 2 -0.2
v 0.8 2.1 -0.2
v 0.8 2.4 -0.2
v 0.8 2.7 -0.2
v 0.2 2 -0.6
v 0.2 2.2 -0.6
v 0.3 2 -0.6
v 0.3 2.2 -0.6
v 0.7 2 -0.6
v 0.7 2.2 -0.6
v 0.8 2 -0.6
v 0.8 2.2 -0.6
v 0.3 2.1 -0.8
v 0.3 2.2 -0.8
v 0.4 2.1 -0.8
v 0.4 2.2 -0.8
v 0.4 2.1 -0.9
v 0.4 2.2 -0.9
v 0.6 2.1 -0.9
v 0.6 2.2 -0.9
v 0.3 2.1 -0.2
v 0.3 2.2 -0.2
v 0.7 2.1 -0.2
v 0.7 2.2 -0.2
v 0.2 2 -0.5
v 0.2 2.2 -0.5
v 0.3 2 -0.5
v 0.3 2.2 -0.5
v 0.7 2 -0.5
v 0.7 2.2 -0.5
v 0.8 2 -0.5
v 0.8 2.2 -0.5
v 0.2 2.6 -0.8
v 0.2 2.7 -0.8
v 0.3 2.6 -0.8
v 0.3 2.7 -0.8
v 0.3 2.8 -0.8
v 0.7 2.6 -0.8
v 0.7 2.7 -0.8
v 0.7 2.8 -0.8
v 0.8 2.6 -0.8
v 0.8 2.7 -0.8
v 0.2 2 -0.9
v 0.2 2.2 -0.9
v 0.2 2.3 -0.9
v 0.2 2.6 -0.9
v 0.3 2 -0.9
v 0.3 2.1 -0.9
v 0.3 2.2 -0.9
v 0.3 2.4 -0.9
v 0.3 2.6 -0.9
v 0.7 2 -0.9
v 0.7 2.2 -0.9
v 0.7 2.4 -0.9
v 0.7 2.6 -0.9
v 0.8 2 -0.9
v 0.8 2.2 -0.9
v 0.8 2.3 -0.9
v 0.8 2.6 -0.9
v 0.2 2.2 -1
v 0.2 2.3 -1
v 0.3 2.1 -1
v 0.3 2.2 -1
v 0.4 2.1 -1
v 0.4 2.2 -1
v 0.6 2.1 -1
v 0.6 2.2 -1
v 0.8 2.2 -1
v 0.8 2.3 -1
v 0.2 2 -0.2
v 0.3 2 -0.2
v 0.7 2 -0.2
v 0.8 2 -0.2
v 0.2 2 -0.5
v 0.3 2 -0.5
v 0.7 2 -0.5
v 0.8 2 -0.5
v 0.2 2 -0.6
v 0.3 2 -0.6
v 0.7 2 -0.6
v 0.8 2 -0.6
v 0.2 2 -0.9
v 0.3 2 -0.9
v 0.7 2 -0.9
v 0.8 2 -0.9
v 0.2 2.1 0
v 0.4 2.1 0
v 0.6 2.1 0
v 0.8 2.1 0
v 0.4 2.1 -0.1
v 0.6 2.1 -0.1
v 0.2 2.1 -0.2
v 0.3 2.1 -0.2
v 0.7 2.1 -0.2
v 0.8 2.1 -0.2
v 0.3 2.1 -0.8
v 0.4 2.1 -0.8
v 0.3 2.1 -0.9
v 0.4 2.1 -0.9
v 0.6 2.1 -0.9
v 0.3 2.1 -1
v 0.4 2.1 -1
v 0.6 2.1 -1
v 0.3 2.2 -0.2
v 0.7 2.2 -0.2
v 0.3 2.2 -0.3
v 0.7 2.2 -0.3
v 0.3 2.2 -0.4
v 0.7 2.2 -0.4
v 0.2 2.2 -0.5
v 0.3 2.2 -0.5
v 0.7 2.2 -0.5
v 0.8 2.2 -0.5
v 0.2 2.2 -0.6
v 0.3 2.2 -0.6
v 0.7 2.2 -0.6
v 0.8 2.2 -0.6
v 0.3 2.2 -0.7
v 0.7 2.2 -0.7
v 0.3 2.2 -0.8
v 0.4 2.2 -0.8
v 0.7 2.2 -0.8
v 0.2 2.2 -0.9
v 0.3 2.2 -0.9
v 0.4 2.2 -0.9
v 0.6 2.2 -0.9
v 0.7 2.2 -0.9
v 0.8 2.2 -0.9
v 0.2 2.2 -1
v 0.3 2.2 -1
v 0.6 2.2 -1
v 0.8 2.2 -1
v 0.2 2.3 -0.9
v 0.8 2.3 -0.9
v 0.2 2.3 -1
v 0.8 2.3 -1
v 0.2 2.4 0
v 0.8 2.4 0
v 0.2 2.4 -0.2
v 0.3 2.4 -0.2
v 0.7 2.4 -0.2
v 0.8 2.4 -0.2
v 0.2 2.6 -0.8
v 0.3 2.6 -0.8
v 0.7 2.6 -0.8
v 0.8 2.6 -0.8
v 0.2 2.6 -0.9
v 0.3 2.6 -0.9
v 0.7 2.6 -0.9
v 0.8 2.6 -0.9
v 0.2 2.7 -0.2
v 0.3 2.7 -0.2
v 0.7 2.7 -0.2
v 0.8 2.7 -0.2
v 0.2 2.7 -0.8
v 0.3 2.7 -0.8
v 0.7 2.7 -0.8
v 0.8 2.7 -0.8
v 0.3 2.8 -0.2
v 0.7 2.8 -0.2
v 0.3 2.8 -0.8
v 0.7 2.8 -0.8

# faces
f 6/7/1 2/7/1 1/7/1
f 7/7/1 2/7/1 6/7/1
f 8/7/1 2/7/1 7/7/1
f 9/7/1 4/7/1 3/7/1
f 10/7/1 4/7/1 9/7/1
f 11/3/1 6/3/1 5/3/1
f 11/7/1 7/7/1 6/7/1
f 12/5/1 8/5/1 7/5/1
f 12/7/1 7/7/1 11/7/1
f 13/7/1 2/7/1 8/7/1
f 13/5/1 8/5/1 12/5/1
f 14/7/1 2/7/1 13/7/1
f 15/7/1 9/7/1 3/7/1
f 16/5/1 10/5/1 9/5/1
f 16/7/1 9/7/1 15/7/1
f 17/7/1 4/7/1 10/7/1
f 17/5/1 10/5/1 16/5/1
f 18/7/1 4/7/1 17/7/1
f 20/3/1 12/3/1 11/3/1
f 20/7/1 13/7/1 12/7/1
f 21/3/1 16/3/1 15/3/1
f 21/7/1 13/7/1 20/7/1
f 21/3/1 15/3/1 14/3/1
f 21/3/1 14/3/1 13/3/1
f 22/7/1 17/7/1 16/7/1
f 22/3/1 16/3/1 21/3/1
f 23/3/1 18/3/1 17/3/1
f 23/7/1 17/7/1 22/7/1
f 24/5/1 19/5/1 18/5/1
f 24/3/1 18/3/1 23/3/1
f 25/5/1 19/5/1 24/5/1
f 26/3/1 23/3/1 22/3/1
f 26/3/1 20/3/1 11/3/1
f 26/3/1 24/3/1 23/3/1
f 26/3/1 22/3/1 21/3/1
f 26/3/1 21/3/1 20/3/1
f 26/3/1 11/3/1 5/3/1
f 27/3/1 24/3/1 26/3/1
f 28/3/1 24/3/1 27/3/1
f 29/3/1 24/3/1 28/3/1
f 30/3/1 24/3/1 29/3/1
f 31/3/1 24/3/1 30/3/1
f 32/2/1 31/2/1 30/2/1
f 33/3/1 24/3/1 31/3/1
f 33/2/1 31/2/1 32/2/1
f 34/3/1 28/3/1 27/3/1
f 34/2/1 29/2/1 28/2/1
f 35/3/1 30/3/1 29/3/1
f 35/2/1 29/2/1 34/2/1
f 36/2/1 32/2/1 30/2/1
f 36/3/1 30/3/1 35/3/1
f 37/3/1 33/3/1 32/3/1
f 37/2/1 32/2/1 36/2/1
f 38/3/1 24/3/1 33/3/1
f 38/3/1 33/3/1 37/3/1
f 39/3/1 24/3/1 38/3/1
f 40/3/1 35/3/1 34/3/1
f 40/3/1 37/3/1 36/3/1
f 40/3/1 38/3/1 37/3/1
f 40/3/1 34/3/1 27/3/1
f 40/3/1 36/3/1 35/3/1
f 41/3/1 38/3/1 40/3/1
f 44/6/1 43/6/1 42/6/1
f 45/6/1 43/6/1 44/6/1
f 48/3/1 47/3/1 46/3/1
f 49/3/1 47/3/1 48/3/1
f 54/7/1 51/7/1 50/7/1
f 55/7/1 51/7/1 54/7/1
f 56/7/1 51/7/1 55/7/1
f 57/7/1 53/7/1 52/7/1
f 58/7/1 53/7/1 57/7/1
f 59/7/1 55/7/1 54/7/1
f 60/5/1 56/5/1 55/5/1
f 60/7/1 55/7/1 59/7/1
f 61/7/1 51/7/1 56/7/1
f 61/5/1 56/5/1 60/5/1
f 62/7/1 51/7/1 61/7/1
f 63/7/1 57/7/1 52/7/1
f 64/5/1 58/5/1 57/5/1
f 64/7/1 57/7/1 63/7/1
f 65/7/1 53/7/1 58/7/1
f 65/5/1 58/5/1 64/5/1
f 66/7/1 53/7/1 65/7/1
f 67/7/2 68/7/2 71/7/2
f 71/7/2 68/7/2 72/7/2
f 72/7/2 68/7/2 73/7/2
f 69/7/2 70/7/2 74/7/2
f 74/7/2 70/7/2 75/7/2
f 75/7/2 70/7/2 76/7/2
f 71/7/2 72/7/2 77/7/2
f 72/5/2 73/5/2 78/5/2
f 77/7/2 72/7/2 78/7/2
f 73/7/2 68/7/2 79/7/2
f 78/5/2 73/5/2 79/5/2
f 79/7/2 68/7/2 80/7/2
f 69/7/2 74/7/2 81/7/2
f 74/5/2 75/5/2 82/5/2
f 81/7/2 74/7/2 82/7/2
f 82/5/2 75/5/2 83/5/2
f 84/6/2 85/6/2 86/6/2
f 86/6/2 85/6/2 87/6/2
f 88/4/2 89/4/2 90/4/2
f 90/4/2 89/4/2 91/4/2
f 92/3/2 93/3/2 94/3/2
f 94/3/2 93/3/2 95/3/2
f 96/7/2 97/7/2 101/7/2
f 101/7/2 97/7/2 102/7/2
f 102/7/2 97/7/2 103/7/2
f 98/7/2 99/7/2 104/7/2
f 104/7/2 99/7/2 105/7/2
f 100/3/2 101/3/2 106/3/2
f 101/7/2 102/7/2 106/7/2
f 102/5/2 103/5/2 107/5/2
f 106/7/2 102/7/2 107/7/2
f 103/7/2 97/7/2 108/7/2
f 107/5/2 103/5/2 108/5/2
f 108/7/2 97/7/2 109/7/2
f 98/7/2 104/7/2 110/7/2
f 104/5/2 105/5/2 111/5/2
f 110/7/2 104/7/2 111/7/2
f 105/7/2 99/7/2 112/7/2
f 111/5/2 105/5/2 112/5/2
f 112/7/2 99/7/2 113/7/2
f 106/3/2 107/3/2 115/3/2
f 107/7/2 108/7/2 115/7/2
f 110/3/2 111/3/2 116/3/2
f 115/7/2 108/7/2 116/7/2
f 109/3/2 110/3/2 116/3/2
f 108/3/2 109/3/2 116/3/2
f 111/7/2 112/7/2 117/7/2
f 116/3/2 111/3/2 117/3/2
f 112/3/2 113/3/2 118/3/2
f 117/7/2 112/7/2 118/7/2
f 113/5/2 114/5/2 119/5/2
f 118/3/2 113/3/2 119/3/2
f 119/5/2 114/5/2 120/5/2
f 117/3/2 118/3/2 121/3/2
f 106/3/2 115/3/2 121/3/2
f 118/3/2 119/3/2 121/3/2
f 116/3/2 117/3/2 121/3/2
f 115/3/2 116/3/2 121/3/2
f 100/3/2 106/3/2 121/3/2
f 121/3/2 119/3/2 122/3/2
f 122/3/2 119/3/2 123/3/2
f 123/3/2 119/3/2 124/3/2
f 124/3/2 119/3/2 125/3/2
f 125/3/2 119/3/2 126/3/2
f 125/2/2 126/2/2 127/2/2
f 126/3/2 119/3/2 128/3/2
f 127/2/2 126/2/2 128/2/2
f 122/3/2 123/3/2 129/3/2
f 123/2/2 124/2/2 129/2/2
f 124/3/2 125/3/2 130/3/2
f 129/2/2 124/2/2 130/2/2
f 125/2/2 127/2/2 131/2/2
f 130/3/2 125/3/2 131/3/2
f 127/3/2 128/3/2 132/3/2
f 131/2/2 127/2/2 132/2/2
f 128/3/2 119/3/2 133/3/2
f 132/3/2 128/3/2 133/3/2
f 133/3/2 119/3/2 134/3/2
f 129/3/2 130/3/2 135/3/2
f 131/3/2 132/3/2 135/3/2
f 132/3/2 133/3/2 135/3/2
f 122/3/2 129/3/2 135/3/2
f 130/3/2 131/3/2 135/3/2
f 135/3/2 133/3/2 136/3/2
f 139/3/3 138/3/3 137/3/3
f 140/3/3 138/3/3 139/3/3
f 141/3/3 139/3/3 137/3/3
f 142/1/3 140/1/3 139/1/3
f 142/3/3 139/3/3 141/3/3
f 143/3/3 138/3/3 140/3/3
f 143/1/3 140/1/3 142/1/3
f 144/4/3 142/4/3 141/4/3
f 145/3/3 143/3/3 142/3/3
f 145/4/3 142/4/3 144/4/3
f 146/3/3 138/3/3 143/3/3
f 146/3/3 143/3/3 145/3/3
f 147/3/3 145/3/3 144/3/3
f 147/1/3 146/1/3 145/1/3
f 148/3/3 138/3/3 146/3/3
f 148/1/3 146/1/3 147/1/3
f 149/3/3 147/3/3 144/3/3
f 149/3/3 148/3/3 147/3/3
f 150/3/3 138/3/3 148/3/3
f 150/3/3 148/3/3 149/3/3
f 155/7/3 152/7/3 151/7/3
f 156/7/3 152/7/3 155/7/3
f 157/3/3 154/3/3 153/3/3
f 158/3/3 154/3/3 157/3/3
f 159/3/3 154/3/3 158/3/3
f 163/2/3 158/2/3 157/2/3
f 164/3/3 160/3/3 159/3/3
f 164/2/3 158/2/3 163/2/3
f 164/3/3 159/3/3 158/3/3
f 165/3/3 160/3/3 164/3/3
f 166/3/3 160/3/3 165/3/3
f 167/7/3 162/7/3 161/7/3
f 168/7/3 162/7/3 167/7/3
f 169/3/3 164/3/3 163/3/3
f 169/3/3 165/3/3 164/3/3
f 170/3/3 165/3/3 169/3/3
f 173/7/3 172/7/3 171/7/3
f 174/7/3 172/7/3 173/7/3
f 177/7/3 176/7/3 175/7/3
f 178/7/3 176/7/3 177/7/3
f 181/6/3 180/6/3 179/6/3
f 182/6/3 180/6/3 181/6/3
f 185/4/3 184/4/3 183/4/3
f 186/4/3 184/4/3 185/4/3
f 187/3/4 188/3/4 189/3/4
f 189/3/4 188/3/4 190/3/4
f 191/7/4 192/7/4 193/7/4
f 193/7/4 192/7/4 194/7/4
f 195/7/4 196/7/4 197/7/4
f 197/7/4 196/7/4 198/7/4
f 199/3/4 200/3/4 201/3/4
f 201/3/4 200/3/4 202/3/4
f 201/3/4 202/3/4 204/3/4
f 202/3/4 203/3/4 204/3/4
f 204/3/4 203/3/4 205/3/4
f 205/3/4 203/3/4 206/3/4
f 204/3/4 205/3/4 207/3/4
f 207/3/4 205/3/4 208/3/4
f 209/7/4 210/7/4 213/7/4
f 213/7/4 210/7/4 214/7/4
f 214/7/4 210/7/4 215/7/4
f 211/3/4 212/3/4 216/3/4
f 216/3/4 212/3/4 217/3/4
f 216/2/4 217/2/4 220/2/4
f 211/3/4 216/3/4 220/3/4
f 220/2/4 217/2/4 221/2/4
f 218/7/4 219/7/4 222/7/4
f 222/7/4 219/7/4 223/7/4
f 211/3/4 220/3/4 224/3/4
f 220/3/4 221/3/4 224/3/4
f 224/3/4 221/3/4 225/3/4
f 226/5/4 227/5/4 229/5/4
f 228/6/4 229/6/4 230/6/4
f 229/5/4 227/5/4 231/5/4
f 230/6/4 229/6/4 231/6/4
f 230/4/4 231/4/4 232/4/4
f 231/5/4 227/5/4 233/5/4
f 232/4/4 231/4/4 233/4/4
f 233/5/4 227/5/4 234/5/4
f 234/5/4 227/5/4 235/5/4
f 240/7/5 237/7/5 236/7/5
f 241/7/5 237/7/5 240/7/5
f 242/7/5 239/7/5 238/7/5
f 243/7/5 239/7/5 242/7/5
f 248/7/5 245/7/5 244/7/5
f 249/7/5 245/7/5 248/7/5
f 250/7/5 247/7/5 246/7/5
f 251/7/5 247/7/5 250/7/5
f 256/3/5 253/3/5 252/3/5
f 256/4/5 254/4/5 253/4/5
f 257/3/5 255/3/5 254/3/5
f 257/4/5 254/4/5 256/4/5
f 258/3/5 256/3/5 252/3/5
f 258/3/5 257/3/5 256/3/5
f 259/3/5 257/3/5 258/3/5
f 260/3/5 255/3/5 257/3/5
f 260/3/5 257/3/5 259/3/5
f 261/3/5 255/3/5 260/3/5
f 264/6/5 263/6/5 262/6/5
f 265/6/5 263/6/5 264/6/5
f 267/6/5 265/6/5 264/6/5
f 268/4/5 266/4/5 265/4/5
f 268/6/5 265/6/5 267/6/5
f 269/4/5 266/4/5 268/4/5
f 272/3/5 271/3/5 270/3/5
f 273/3/5 271/3/5 272/3/5
f 274/3/5 273/3/5 272/3/5
f 275/3/5 273/3/5 274/3/5
f 277/3/5 275/3/5 274/3/5
f 278/3/5 275/3/5 277/3/5
f 280/3/5 278/3/5 277/3/5
f 280/3/5 279/3/5 278/3/5
f 280/3/5 277/3/5 276/3/5
f 281/3/5 279/3/5 280/3/5
f 282/3/5 279/3/5 281/3/5
f 283/3/5 279/3/5 282/3/5
f 284/3/5 282/3/5 281/3/5
f 285/3/5 282/3/5 284/3/5
f 286/3/5 285/3/5 284/3/5
f 287/3/5 285/3/5 286/3/5
f 288/3/5 285/3/5 287/3/5
f 291/3/5 288/3/5 287/3/5
f 292/3/5 288/3/5 291/3/5
f 293/3/5 288/3/5 292/3/5
f 295/5/5 290/5/5 289/5/5
f 296/5/5 290/5/5 295/5/5
f 297/5/5 293/5/5 292/5/5
f 297/5/5 294/5/5 293/5/5
f 298/5/5 294/5/5 297/5/5
f 299/5/6 300/5/6 301/5/6
f 301/5/6 300/5/6 302/5/6
f 303/3/6 304/3/6 305/3/6
f 305/3/6 304/3/6 306/3/6
f 306/3/6 304/3/6 307/3/6
f 307/3/6 304/3/6 308/3/6
f 309/3/6 310/3/6 313/3/6
f 310/2/6 311/2/6 314/2/6
f 313/3/6 310/3/6 314/3/6
f 311/3/6 312/3/6 315/3/6
f 314/2/6 311/2/6 315/2/6
f 315/3/6 312/3/6 316/3/6
f 317/3/6 318/3/6 321/3/6
f 321/3/6 318/3/6 322/3/6
f 319/3/6 320/3/6 323/3/6
f 323/3/6 320/3/6 324/3/6
f 325/3/6 326/3/6 327/3/6
f 327/3/6 326/3/6 328/3/6
