# MagicaVoxel @ Ephtracy

# group
o 

# material
mtllib 10_Track_01.mtl
usemtl palette

# normals
vn -1 0 0
vn 1 0 0
vn 0 0 1
vn 0 0 -1
vn 0 -1 0
vn 0 1 0

# texcoords
vt 0.0214844 0.5
vt 0.728516 0.5
vt 0.958984 0.5
vt 0.962891 0.5
vt 0.966797 0.5
vt 0.970703 0.5
vt 0.978516 0.5
vt 0.982422 0.5
vt 0.986328 0.5
vt 0.990234 0.5

# verts
v 0.1 2 -0.4
v 0.1 2 -0.7
v 0.1 2 -0.8
v 0.1 2 -1.1
v 0.1 2 -1.2
v 0.1 2 -1.5
v 0.1 2 -1.6
v 0.1 2 -1.9
v 0.1 2.1 -0.5
v 0.1 2.1 -0.6
v 0.1 2.1 -0.9
v 0.1 2.1 -1
v 0.1 2.1 -1.3
v 0.1 2.1 -1.4
v 0.1 2.1 -1.7
v 0.1 2.1 -1.8
v 0.1 2.2 0
v 0.1 2.2 -0.4
v 0.1 2.2 -0.5
v 0.1 2.2 -0.6
v 0.1 2.2 -0.7
v 0.1 2.2 -0.8
v 0.1 2.2 -0.9
v 0.1 2.2 -1
v 0.1 2.2 -1.1
v 0.1 2.2 -1.2
v 0.1 2.2 -1.3
v 0.1 2.2 -1.4
v 0.1 2.2 -1.5
v 0.1 2.2 -1.6
v 0.1 2.2 -1.7
v 0.1 2.2 -1.8
v 0.1 2.2 -1.9
v 0.1 2.2 -2
v 0.1 2.3 0
v 0.1 2.3 -0.1
v 0.1 2.4 0
v 0.1 2.4 -0.1
v 0.1 2.4 -0.5
v 0.1 2.4 -2
v 0.1 2.5 -0.2
v 0.1 2.5 -0.3
v 0.1 2.5 -0.5
v 0.1 2.5 -0.7
v 0.1 2.5 -0.8
v 0.1 2.5 -1
v 0.1 2.5 -1.1
v 0.1 2.5 -1.4
v 0.1 2.5 -1.5
v 0.1 2.5 -1.7
v 0.1 2.5 -1.8
v 0.1 2.5 -2
v 0.1 2.7 -0.2
v 0.1 2.7 -0.3
v 0.1 2.8 -0.1
v 0.1 2.8 -0.5
v 0.1 2.9 -0.5
v 0.1 2.9 -0.7
v 0.1 2.9 -0.8
v 0.1 2.9 -1
v 0.1 2.9 -1.1
v 0.1 2.9 -1.4
v 0.1 2.9 -1.5
v 0.1 2.9 -1.7
v 0.1 2.9 -1.8
v 0.1 2.9 -2
v 0.1 3 -0.5
v 0.1 3 -2
v 0.2 2.1 -1.9
v 0.2 2.1 -2
v 0.2 2.2 -1.9
v 0.2 2.2 -2
v 0.4 2.1 -1.9
v 0.4 2.1 -2
v 0.4 2.2 -1.9
v 0.4 2.2 -2
v 0.8 2 -0.4
v 0.8 2 -0.7
v 0.8 2 -0.8
v 0.8 2 -1.1
v 0.8 2 -1.2
v 0.8 2 -1.5
v 0.8 2 -1.6
v 0.8 2 -1.9
v 0.8 2.1 -0.5
v 0.8 2.1 -0.6
v 0.8 2.1 -0.9
v 0.8 2.1 -1
v 0.8 2.1 -1.3
v 0.8 2.1 -1.4
v 0.8 2.1 -1.7
v 0.8 2.1 -1.8
v 0.8 2.2 -0.4
v 0.8 2.2 -0.5
v 0.8 2.2 -0.6
v 0.8 2.2 -0.7
v 0.8 2.2 -0.8
v 0.8 2.2 -0.9
v 0.8 2.2 -1
v 0.8 2.2 -1.1
v 0.8 2.2 -1.2
v 0.8 2.2 -1.3
v 0.8 2.2 -1.4
v 0.8 2.2 -1.5
v 0.8 2.2 -1.6
v 0.8 2.2 -1.7
v 0.8 2.2 -1.8
v 0.8 2.2 -1.9
v 0.2 2 -0.4
v 0.2 2 -0.7
v 0.2 2 -0.8
v 0.2 2 -1.1
v 0.2 2 -1.2
v 0.2 2 -1.5
v 0.2 2 -1.6
v 0.2 2 -1.9
v 0.2 2.1 -0.5
v 0.2 2.1 -0.6
v 0.2 2.1 -0.9
v 0.2 2.1 -1
v 0.2 2.1 -1.3
v 0.2 2.1 -1.4
v 0.2 2.1 -1.7
v 0.2 2.1 -1.9
v 0.2 2.2 -0.4
v 0.2 2.2 -0.5
v 0.2 2.2 -0.6
v 0.2 2.2 -0.7
v 0.2 2.2 -0.8
v 0.2 2.2 -0.9
v 0.2 2.2 -1
v 0.2 2.2 -1.1
v 0.2 2.2 -1.2
v 0.2 2.2 -1.3
v 0.2 2.2 -1.4
v 0.2 2.2 -1.5
v 0.2 2.2 -1.6
v 0.2 2.2 -1.7
v 0.3 2.1 -1.7
v 0.3 2.1 -2
v 0.3 2.2 -1.7
v 0.3 2.2 -2
v 0.6 2.1 -1.9
v 0.6 2.1 -2
v 0.6 2.2 -1.9
v 0.6 2.2 -2
v 0.9 2 -0.4
v 0.9 2 -0.7
v 0.9 2 -0.8
v 0.9 2 -1.1
v 0.9 2 -1.2
v 0.9 2 -1.5
v 0.9 2 -1.6
v 0.9 2 -1.9
v 0.9 2.1 -0.5
v 0.9 2.1 -0.6
v 0.9 2.1 -0.9
v 0.9 2.1 -1
v 0.9 2.1 -1.3
v 0.9 2.1 -1.4
v 0.9 2.1 -1.7
v 0.9 2.1 -1.8
v 0.9 2.2 0
v 0.9 2.2 -0.4
v 0.9 2.2 -0.5
v 0.9 2.2 -0.6
v 0.9 2.2 -0.7
v 0.9 2.2 -0.8
v 0.9 2.2 -0.9
v 0.9 2.2 -1
v 0.9 2.2 -1.1
v 0.9 2.2 -1.2
v 0.9 2.2 -1.3
v 0.9 2.2 -1.4
v 0.9 2.2 -1.5
v 0.9 2.2 -1.6
v 0.9 2.2 -1.7
v 0.9 2.2 -1.8
v 0.9 2.2 -1.9
v 0.9 2.2 -2
v 0.9 2.3 0
v 0.9 2.3 -0.1
v 0.9 2.4 0
v 0.9 2.4 -0.1
v 0.9 2.4 -0.5
v 0.9 2.4 -2
v 0.9 2.5 -0.2
v 0.9 2.5 -0.3
v 0.9 2.5 -0.5
v 0.9 2.5 -0.7
v 0.9 2.5 -0.8
v 0.9 2.5 -1
v 0.9 2.5 -1.1
v 0.9 2.5 -1.4
v 0.9 2.5 -1.5
v 0.9 2.5 -1.7
v 0.9 2.5 -1.8
v 0.9 2.5 -2
v 0.9 2.7 -0.2
v 0.9 2.7 -0.3
v 0.9 2.8 -0.1
v 0.9 2.8 -0.5
v 0.9 2.9 -0.5
v 0.9 2.9 -0.7
v 0.9 2.9 -0.8
v 0.9 2.9 -1
v 0.9 2.9 -1.1
v 0.9 2.9 -1.4
v 0.9 2.9 -1.5
v 0.9 2.9 -1.7
v 0.9 2.9 -1.8
v 0.9 2.9 -2
v 0.9 3 -0.5
v 0.9 3 -2
v 0.1 2.2 0
v 0.1 2.3 0
v 0.1 2.4 0
v 0.3 2.3 0
v 0.3 2.4 0
v 0.4 2.2 0
v 0.4 2.3 0
v 0.6 2.2 0
v 0.6 2.3 0
v 0.7 2.3 0
v 0.7 2.4 0
v 0.9 2.2 0
v 0.9 2.3 0
v 0.9 2.4 0
v 0.1 2.4 -0.1
v 0.1 2.8 -0.1
v 0.2 2.4 -0.1
v 0.2 2.7 -0.1
v 0.3 2.4 -0.1
v 0.7 2.4 -0.1
v 0.8 2.4 -0.1
v 0.8 2.7 -0.1
v 0.9 2.4 -0.1
v 0.9 2.8 -0.1
v 0.1 2 -0.4
v 0.1 2.2 -0.4
v 0.2 2 -0.4
v 0.2 2.2 -0.4
v 0.8 2 -0.4
v 0.8 2.2 -0.4
v 0.9 2 -0.4
v 0.9 2.2 -0.4
v 0.1 2.8 -0.5
v 0.1 2.9 -0.5
v 0.1 3 -0.5
v 0.2 2.8 -0.5
v 0.2 2.9 -0.5
v 0.3 2.8 -0.5
v 0.3 2.9 -0.5
v 0.4 2.8 -0.5
v 0.4 2.9 -0.5
v 0.6 2.8 -0.5
v 0.6 2.9 -0.5
v 0.7 2.8 -0.5
v 0.7 2.9 -0.5
v 0.8 2.8 -0.5
v 0.8 2.9 -0.5
v 0.9 2.8 -0.5
v 0.9 2.9 -0.5
v 0.9 3 -0.5
v 0.1 2 -0.8
v 0.1 2.2 -0.8
v 0.2 2 -0.8
v 0.2 2.2 -0.8
v 0.8 2 -0.8
v 0.8 2.2 -0.8
v 0.9 2 -0.8
v 0.9 2.2 -0.8
v 0.1 2 -1.2
v 0.1 2.2 -1.2
v 0.2 2 -1.2
v 0.2 2.2 -1.2
v 0.8 2 -1.2
v 0.8 2.2 -1.2
v 0.9 2 -1.2
v 0.9 2.2 -1.2
v 0.1 2 -1.6
v 0.1 2.2 -1.6
v 0.2 2 -1.6
v 0.2 2.2 -1.6
v 0.8 2 -1.6
v 0.8 2.2 -1.6
v 0.9 2 -1.6
v 0.9 2.2 -1.6
v 0.2 2.1 -1.7
v 0.2 2.2 -1.7
v 0.3 2.1 -1.7
v 0.3 2.2 -1.7
v 0.4 2.1 -1.9
v 0.4 2.2 -1.9
v 0.6 2.1 -1.9
v 0.6 2.2 -1.9
v 0.1 2 -0.7
v 0.1 2.2 -0.7
v 0.2 2 -0.7
v 0.2 2.2 -0.7
v 0.8 2 -0.7
v 0.8 2.2 -0.7
v 0.9 2 -0.7
v 0.9 2.2 -0.7
v 0.1 2 -1.1
v 0.1 2.2 -1.1
v 0.2 2 -1.1
v 0.2 2.2 -1.1
v 0.8 2 -1.1
v 0.8 2.2 -1.1
v 0.9 2 -1.1
v 0.9 2.2 -1.1
v 0.1 2 -1.5
v 0.1 2.2 -1.5
v 0.2 2 -1.5
v 0.2 2.2 -1.5
v 0.8 2 -1.5
v 0.8 2.2 -1.5
v 0.9 2 -1.5
v 0.9 2.2 -1.5
v 0.1 2 -1.9
v 0.1 2.2 -1.9
v 0.2 2 -1.9
v 0.2 2.1 -1.9
v 0.2 2.2 -1.9
v 0.8 2 -1.9
v 0.8 2.2 -1.9
v 0.9 2 -1.9
v 0.9 2.2 -1.9
v 0.1 2.2 -2
v 0.1 2.4 -2
v 0.1 2.5 -2
v 0.1 2.9 -2
v 0.1 3 -2
v 0.2 2.1 -2
v 0.2 2.2 -2
v 0.2 2.5 -2
v 0.2 2.9 -2
v 0.3 2.1 -2
v 0.3 2.2 -2
v 0.3 2.5 -2
v 0.3 2.9 -2
v 0.4 2.1 -2
v 0.4 2.2 -2
v 0.4 2.5 -2
v 0.4 2.9 -2
v 0.6 2.1 -2
v 0.6 2.2 -2
v 0.6 2.5 -2
v 0.6 2.9 -2
v 0.7 2.5 -2
v 0.7 2.9 -2
v 0.8 2.5 -2
v 0.8 2.9 -2
v 0.9 2.2 -2
v 0.9 2.4 -2
v 0.9 2.5 -2
v 0.9 2.9 -2
v 0.9 3 -2
v 0.1 2 -0.4
v 0.2 2 -0.4
v 0.8 2 -0.4
v 0.9 2 -0.4
v 0.1 2 -0.7
v 0.2 2 -0.7
v 0.8 2 -0.7
v 0.9 2 -0.7
v 0.1 2 -0.8
v 0.2 2 -0.8
v 0.8 2 -0.8
v 0.9 2 -0.8
v 0.1 2 -1.1
v 0.2 2 -1.1
v 0.8 2 -1.1
v 0.9 2 -1.1
v 0.1 2 -1.2
v 0.2 2 -1.2
v 0.8 2 -1.2
v 0.9 2 -1.2
v 0.1 2 -1.5
v 0.2 2 -1.5
v 0.8 2 -1.5
v 0.9 2 -1.5
v 0.1 2 -1.6
v 0.2 2 -1.6
v 0.8 2 -1.6
v 0.9 2 -1.6
v 0.1 2 -1.9
v 0.2 2 -1.9
v 0.8 2 -1.9
v 0.9 2 -1.9
v 0.2 2.1 -1.7
v 0.3 2.1 -1.7
v 0.2 2.1 -1.9
v 0.4 2.1 -1.9
v 0.6 2.1 -1.9
v 0.2 2.1 -2
v 0.3 2.1 -2
v 0.4 2.1 -2
v 0.6 2.1 -2
v 0.1 2.2 0
v 0.4 2.2 0
v 0.6 2.2 0
v 0.9 2.2 0
v 0.4 2.2 -0.1
v 0.6 2.2 -0.1
v 0.1 2.2 -0.4
v 0.2 2.2 -0.4
v 0.8 2.2 -0.4
v 0.9 2.2 -0.4
v 0.2 2.2 -0.5
v 0.8 2.2 -0.5
v 0.2 2.2 -0.6
v 0.8 2.2 -0.6
v 0.1 2.2 -0.7
v 0.2 2.2 -0.7
v 0.8 2.2 -0.7
v 0.9 2.2 -0.7
v 0.1 2.2 -0.8
v 0.2 2.2 -0.8
v 0.8 2.2 -0.8
v 0.9 2.2 -0.8
v 0.2 2.2 -0.9
v 0.8 2.2 -0.9
v 0.2 2.2 -1
v 0.8 2.2 -1
v 0.1 2.2 -1.1
v 0.2 2.2 -1.1
v 0.8 2.2 -1.1
v 0.9 2.2 -1.1
v 0.1 2.2 -1.2
v 0.2 2.2 -1.2
v 0.8 2.2 -1.2
v 0.9 2.2 -1.2
v 0.2 2.2 -1.3
v 0.8 2.2 -1.3
v 0.2 2.2 -1.4
v 0.8 2.2 -1.4
v 0.1 2.2 -1.5
v 0.2 2.2 -1.5
v 0.8 2.2 -1.5
v 0.9 2.2 -1.5
v 0.1 2.2 -1.6
v 0.2 2.2 -1.6
v 0.8 2.2 -1.6
v 0.9 2.2 -1.6
v 0.2 2.2 -1.7
v 0.3 2.2 -1.7
v 0.8 2.2 -1.7
v 0.8 2.2 -1.8
v 0.1 2.2 -1.9
v 0.2 2.2 -1.9
v 0.4 2.2 -1.9
v 0.6 2.2 -1.9
v 0.8 2.2 -1.9
v 0.9 2.2 -1.9
v 0.1 2.2 -2
v 0.2 2.2 -2
v 0.3 2.2 -2
v 0.4 2.2 -2
v 0.6 2.2 -2
v 0.9 2.2 -2
v 0.1 2.4 0
v 0.3 2.4 0
v 0.7 2.4 0
v 0.9 2.4 0
v 0.1 2.4 -0.1
v 0.2 2.4 -0.1
v 0.3 2.4 -0.1
v 0.7 2.4 -0.1
v 0.8 2.4 -0.1
v 0.9 2.4 -0.1
v 0.1 2.8 -0.1
v 0.9 2.8 -0.1
v 0.1 2.8 -0.5
v 0.2 2.8 -0.5
v 0.3 2.8 -0.5
v 0.4 2.8 -0.5
v 0.6 2.8 -0.5
v 0.7 2.8 -0.5
v 0.8 2.8 -0.5
v 0.9 2.8 -0.5
v 0.1 3 -0.5
v 0.9 3 -0.5
v 0.1 3 -2
v 0.9 3 -2

# faces
f 9/9/1 2/9/1 1/9/1
f 10/9/1 2/9/1 9/9/1
f 11/9/1 4/9/1 3/9/1
f 12/9/1 4/9/1 11/9/1
f 13/9/1 6/9/1 5/9/1
f 14/9/1 6/9/1 13/9/1
f 15/9/1 8/9/1 7/9/1
f 16/9/1 8/9/1 15/9/1
f 18/9/1 9/9/1 1/9/1
f 19/4/1 10/4/1 9/4/1
f 19/9/1 9/9/1 18/9/1
f 20/9/1 2/9/1 10/9/1
f 20/4/1 10/4/1 19/4/1
f 21/9/1 2/9/1 20/9/1
f 22/9/1 11/9/1 3/9/1
f 23/4/1 12/4/1 11/4/1
f 23/9/1 11/9/1 22/9/1
f 24/9/1 4/9/1 12/9/1
f 24/4/1 12/4/1 23/4/1
f 25/9/1 4/9/1 24/9/1
f 26/9/1 13/9/1 5/9/1
f 27/4/1 14/4/1 13/4/1
f 27/9/1 13/9/1 26/9/1
f 28/9/1 6/9/1 14/9/1
f 28/4/1 14/4/1 27/4/1
f 29/9/1 6/9/1 28/9/1
f 30/9/1 15/9/1 7/9/1
f 31/4/1 16/4/1 15/4/1
f 31/9/1 15/9/1 30/9/1
f 32/9/1 8/9/1 16/9/1
f 32/4/1 16/4/1 31/4/1
f 33/9/1 8/9/1 32/9/1
f 35/7/1 27/7/1 26/7/1
f 35/7/1 34/7/1 33/7/1
f 35/7/1 33/7/1 32/7/1
f 35/7/1 32/7/1 31/7/1
f 35/7/1 19/7/1 18/7/1
f 35/7/1 28/7/1 27/7/1
f 35/7/1 23/7/1 22/7/1
f 35/7/1 24/7/1 23/7/1
f 35/7/1 31/7/1 30/7/1
f 35/7/1 20/7/1 19/7/1
f 35/7/1 18/7/1 17/7/1
f 35/7/1 30/7/1 29/7/1
f 35/7/1 29/7/1 28/7/1
f 35/7/1 26/7/1 25/7/1
f 35/7/1 25/7/1 24/7/1
f 35/7/1 22/7/1 21/7/1
f 35/7/1 21/7/1 20/7/1
f 36/7/1 34/7/1 35/7/1
f 37/1/1 36/1/1 35/1/1
f 38/7/1 34/7/1 36/7/1
f 38/1/1 36/1/1 37/1/1
f 39/7/1 34/7/1 38/7/1
f 40/7/1 34/7/1 39/7/1
f 41/7/1 39/7/1 38/7/1
f 42/7/1 39/7/1 41/7/1
f 43/8/1 40/8/1 39/8/1
f 43/7/1 39/7/1 42/7/1
f 44/8/1 40/8/1 43/8/1
f 45/8/1 40/8/1 44/8/1
f 46/8/1 40/8/1 45/8/1
f 47/8/1 40/8/1 46/8/1
f 48/8/1 40/8/1 47/8/1
f 49/8/1 40/8/1 48/8/1
f 50/8/1 40/8/1 49/8/1
f 51/8/1 40/8/1 50/8/1
f 52/8/1 40/8/1 51/8/1
f 53/2/1 42/2/1 41/2/1
f 53/7/1 41/7/1 38/7/1
f 54/7/1 43/7/1 42/7/1
f 54/2/1 42/2/1 53/2/1
f 55/7/1 53/7/1 38/7/1
f 55/7/1 54/7/1 53/7/1
f 56/7/1 43/7/1 54/7/1
f 56/7/1 54/7/1 55/7/1
f 56/4/1 44/4/1 43/4/1
f 57/4/1 44/4/1 56/4/1
f 58/6/1 45/6/1 44/6/1
f 58/4/1 44/4/1 57/4/1
f 59/4/1 46/4/1 45/4/1
f 59/6/1 45/6/1 58/6/1
f 60/6/1 47/6/1 46/6/1
f 60/4/1 46/4/1 59/4/1
f 61/4/1 48/4/1 47/4/1
f 61/6/1 47/6/1 60/6/1
f 62/6/1 49/6/1 48/6/1
f 62/4/1 48/4/1 61/4/1
f 63/4/1 50/4/1 49/4/1
f 63/6/1 49/6/1 62/6/1
f 64/6/1 51/6/1 50/6/1
f 64/4/1 50/4/1 63/4/1
f 65/4/1 52/4/1 51/4/1
f 65/6/1 51/6/1 64/6/1
f 66/4/1 52/4/1 65/4/1
f 67/8/1 64/8/1 63/8/1
f 67/8/1 63/8/1 62/8/1
f 67/8/1 66/8/1 65/8/1
f 67/8/1 65/8/1 64/8/1
f 67/8/1 62/8/1 61/8/1
f 67/8/1 61/8/1 60/8/1
f 67/8/1 60/8/1 59/8/1
f 67/8/1 59/8/1 58/8/1
f 67/8/1 58/8/1 57/8/1
f 68/8/1 66/8/1 67/8/1
f 71/10/1 70/10/1 69/10/1
f 72/10/1 70/10/1 71/10/1
f 75/3/1 74/3/1 73/3/1
f 76/3/1 74/3/1 75/3/1
f 85/9/1 78/9/1 77/9/1
f 86/9/1 78/9/1 85/9/1
f 87/9/1 80/9/1 79/9/1
f 88/9/1 80/9/1 87/9/1
f 89/9/1 82/9/1 81/9/1
f 90/9/1 82/9/1 89/9/1
f 91/9/1 84/9/1 83/9/1
f 92/9/1 84/9/1 91/9/1
f 93/9/1 85/9/1 77/9/1
f 94/4/1 86/4/1 85/4/1
f 94/9/1 85/9/1 93/9/1
f 95/9/1 78/9/1 86/9/1
f 95/4/1 86/4/1 94/4/1
f 96/9/1 78/9/1 95/9/1
f 97/9/1 87/9/1 79/9/1
f 98/4/1 88/4/1 87/4/1
f 98/9/1 87/9/1 97/9/1
f 99/9/1 80/9/1 88/9/1
f 99/4/1 88/4/1 98/4/1
f 100/9/1 80/9/1 99/9/1
f 101/9/1 89/9/1 81/9/1
f 102/4/1 90/4/1 89/4/1
f 102/9/1 89/9/1 101/9/1
f 103/9/1 82/9/1 90/9/1
f 103/4/1 90/4/1 102/4/1
f 104/9/1 82/9/1 103/9/1
f 105/9/1 91/9/1 83/9/1
f 106/4/1 92/4/1 91/4/1
f 106/9/1 91/9/1 105/9/1
f 107/9/1 84/9/1 92/9/1
f 107/4/1 92/4/1 106/4/1
f 108/9/1 84/9/1 107/9/1
f 109/9/2 110/9/2 117/9/2
f 117/9/2 110/9/2 118/9/2
f 111/9/2 112/9/2 119/9/2
f 119/9/2 112/9/2 120/9/2
f 113/9/2 114/9/2 121/9/2
f 121/9/2 114/9/2 122/9/2
f 115/9/2 116/9/2 123/9/2
f 123/9/2 116/9/2 124/9/2
f 109/9/2 117/9/2 125/9/2
f 117/4/2 118/4/2 126/4/2
f 125/9/2 117/9/2 126/9/2
f 118/9/2 110/9/2 127/9/2
f 126/4/2 118/4/2 127/4/2
f 127/9/2 110/9/2 128/9/2
f 111/9/2 119/9/2 129/9/2
f 119/4/2 120/4/2 130/4/2
f 129/9/2 119/9/2 130/9/2
f 120/9/2 112/9/2 131/9/2
f 130/4/2 120/4/2 131/4/2
f 131/9/2 112/9/2 132/9/2
f 113/9/2 121/9/2 133/9/2
f 121/4/2 122/4/2 134/4/2
f 133/9/2 121/9/2 134/9/2
f 122/9/2 114/9/2 135/9/2
f 134/4/2 122/4/2 135/4/2
f 135/9/2 114/9/2 136/9/2
f 115/9/2 123/9/2 137/9/2
f 137/9/2 123/9/2 138/9/2
f 139/10/2 140/10/2 141/10/2
f 141/10/2 140/10/2 142/10/2
f 143/3/2 144/3/2 145/3/2
f 145/3/2 144/3/2 146/3/2
f 147/9/2 148/9/2 155/9/2
f 155/9/2 148/9/2 156/9/2
f 149/9/2 150/9/2 157/9/2
f 157/9/2 150/9/2 158/9/2
f 151/9/2 152/9/2 159/9/2
f 159/9/2 152/9/2 160/9/2
f 153/9/2 154/9/2 161/9/2
f 161/9/2 154/9/2 162/9/2
f 147/9/2 155/9/2 164/9/2
f 155/4/2 156/4/2 165/4/2
f 164/9/2 155/9/2 165/9/2
f 156/9/2 148/9/2 166/9/2
f 165/4/2 156/4/2 166/4/2
f 166/9/2 148/9/2 167/9/2
f 149/9/2 157/9/2 168/9/2
f 157/4/2 158/4/2 169/4/2
f 168/9/2 157/9/2 169/9/2
f 158/9/2 150/9/2 170/9/2
f 169/4/2 158/4/2 170/4/2
f 170/9/2 150/9/2 171/9/2
f 151/9/2 159/9/2 172/9/2
f 159/4/2 160/4/2 173/4/2
f 172/9/2 159/9/2 173/9/2
f 160/9/2 152/9/2 174/9/2
f 173/4/2 160/4/2 174/4/2
f 174/9/2 152/9/2 175/9/2
f 153/9/2 161/9/2 176/9/2
f 161/4/2 162/4/2 177/4/2
f 176/9/2 161/9/2 177/9/2
f 162/9/2 154/9/2 178/9/2
f 177/4/2 162/4/2 178/4/2
f 178/9/2 154/9/2 179/9/2
f 172/7/2 173/7/2 181/7/2
f 179/7/2 180/7/2 181/7/2
f 178/7/2 179/7/2 181/7/2
f 177/7/2 178/7/2 181/7/2
f 164/7/2 165/7/2 181/7/2
f 173/7/2 174/7/2 181/7/2
f 168/7/2 169/7/2 181/7/2
f 169/7/2 170/7/2 181/7/2
f 176/7/2 177/7/2 181/7/2
f 165/7/2 166/7/2 181/7/2
f 163/7/2 164/7/2 181/7/2
f 175/7/2 176/7/2 181/7/2
f 174/7/2 175/7/2 181/7/2
f 171/7/2 172/7/2 181/7/2
f 170/7/2 171/7/2 181/7/2
f 167/7/2 168/7/2 181/7/2
f 166/7/2 167/7/2 181/7/2
f 181/7/2 180/7/2 182/7/2
f 181/1/2 182/1/2 183/1/2
f 182/7/2 180/7/2 184/7/2
f 183/1/2 182/1/2 184/1/2
f 184/7/2 180/7/2 185/7/2
f 185/7/2 180/7/2 186/7/2
f 184/7/2 185/7/2 187/7/2
f 187/7/2 185/7/2 188/7/2
f 185/8/2 186/8/2 189/8/2
f 188/7/2 185/7/2 189/7/2
f 189/8/2 186/8/2 190/8/2
f 190/8/2 186/8/2 191/8/2
f 191/8/2 186/8/2 192/8/2
f 192/8/2 186/8/2 193/8/2
f 193/8/2 186/8/2 194/8/2
f 194/8/2 186/8/2 195/8/2
f 195/8/2 186/8/2 196/8/2
f 196/8/2 186/8/2 197/8/2
f 197/8/2 186/8/2 198/8/2
f 187/2/2 188/2/2 199/2/2
f 184/7/2 187/7/2 199/7/2
f 188/7/2 189/7/2 200/7/2
f 199/2/2 188/2/2 200/2/2
f 184/7/2 199/7/2 201/7/2
f 199/7/2 200/7/2 201/7/2
f 200/7/2 189/7/2 202/7/2
f 201/7/2 200/7/2 202/7/2
f 189/4/2 190/4/2 202/4/2
f 202/4/2 190/4/2 203/4/2
f 190/6/2 191/6/2 204/6/2
f 203/4/2 190/4/2 204/4/2
f 191/4/2 192/4/2 205/4/2
f 204/6/2 191/6/2 205/6/2
f 192/6/2 193/6/2 206/6/2
f 205/4/2 192/4/2 206/4/2
f 193/4/2 194/4/2 207/4/2
f 206/6/2 193/6/2 207/6/2
f 194/6/2 195/6/2 208/6/2
f 207/4/2 194/4/2 208/4/2
f 195/4/2 196/4/2 209/4/2
f 208/6/2 195/6/2 209/6/2
f 196/6/2 197/6/2 210/6/2
f 209/4/2 196/4/2 210/4/2
f 197/4/2 198/4/2 211/4/2
f 210/6/2 197/6/2 211/6/2
f 211/4/2 198/4/2 212/4/2
f 209/8/2 210/8/2 213/8/2
f 208/8/2 209/8/2 213/8/2
f 211/8/2 212/8/2 213/8/2
f 210/8/2 211/8/2 213/8/2
f 207/8/2 208/8/2 213/8/2
f 206/8/2 207/8/2 213/8/2
f 205/8/2 206/8/2 213/8/2
f 204/8/2 205/8/2 213/8/2
f 203/8/2 204/8/2 213/8/2
f 213/8/2 212/8/2 214/8/2
f 218/7/3 216/7/3 215/7/3
f 218/1/3 217/1/3 216/1/3
f 219/1/3 217/1/3 218/1/3
f 220/7/3 218/7/3 215/7/3
f 220/7/3 219/7/3 218/7/3
f 221/7/3 219/7/3 220/7/3
f 222/3/3 221/3/3 220/3/3
f 223/7/3 219/7/3 221/7/3
f 223/3/3 221/3/3 222/3/3
f 224/7/3 223/7/3 222/7/3
f 224/7/3 219/7/3 223/7/3
f 225/7/3 219/7/3 224/7/3
f 226/7/3 224/7/3 222/7/3
f 227/1/3 225/1/3 224/1/3
f 227/7/3 224/7/3 226/7/3
f 228/1/3 225/1/3 227/1/3
f 231/7/3 230/7/3 229/7/3
f 232/7/3 230/7/3 231/7/3
f 233/2/3 232/2/3 231/2/3
f 234/2/3 232/2/3 233/2/3
f 235/2/3 232/2/3 234/2/3
f 236/7/3 230/7/3 232/7/3
f 236/2/3 232/2/3 235/2/3
f 237/7/3 236/7/3 235/7/3
f 238/7/3 230/7/3 236/7/3
f 238/7/3 236/7/3 237/7/3
f 241/9/3 240/9/3 239/9/3
f 242/9/3 240/9/3 241/9/3
f 245/9/3 244/9/3 243/9/3
f 246/9/3 244/9/3 245/9/3
f 250/4/3 248/4/3 247/4/3
f 251/8/3 249/8/3 248/8/3
f 251/4/3 248/4/3 250/4/3
f 252/6/3 251/6/3 250/6/3
f 253/8/3 249/8/3 251/8/3
f 253/6/3 251/6/3 252/6/3
f 254/4/3 253/4/3 252/4/3
f 255/8/3 249/8/3 253/8/3
f 255/4/3 253/4/3 254/4/3
f 256/6/3 255/6/3 254/6/3
f 257/8/3 249/8/3 255/8/3
f 257/6/3 255/6/3 256/6/3
f 258/4/3 257/4/3 256/4/3
f 259/8/3 249/8/3 257/8/3
f 259/4/3 257/4/3 258/4/3
f 260/6/3 259/6/3 258/6/3
f 261/8/3 249/8/3 259/8/3
f 261/6/3 259/6/3 260/6/3
f 262/4/3 261/4/3 260/4/3
f 263/8/3 249/8/3 261/8/3
f 263/4/3 261/4/3 262/4/3
f 264/8/3 249/8/3 263/8/3
f 267/9/3 266/9/3 265/9/3
f 268/9/3 266/9/3 267/9/3
f 271/9/3 270/9/3 269/9/3
f 272/9/3 270/9/3 271/9/3
f 275/9/3 274/9/3 273/9/3
f 276/9/3 274/9/3 275/9/3
f 279/9/3 278/9/3 277/9/3
f 280/9/3 278/9/3 279/9/3
f 283/9/3 282/9/3 281/9/3
f 284/9/3 282/9/3 283/9/3
f 287/9/3 286/9/3 285/9/3
f 288/9/3 286/9/3 287/9/3
f 291/10/3 290/10/3 289/10/3
f 292/10/3 290/10/3 291/10/3
f 295/3/3 294/3/3 293/3/3
f 296/3/3 294/3/3 295/3/3
f 297/9/4 298/9/4 299/9/4
f 299/9/4 298/9/4 300/9/4
f 301/9/4 302/9/4 303/9/4
f 303/9/4 302/9/4 304/9/4
f 305/9/4 306/9/4 307/9/4
f 307/9/4 306/9/4 308/9/4
f 309/9/4 310/9/4 311/9/4
f 311/9/4 310/9/4 312/9/4
f 313/9/4 314/9/4 315/9/4
f 315/9/4 314/9/4 316/9/4
f 317/9/4 318/9/4 319/9/4
f 319/9/4 318/9/4 320/9/4
f 321/9/4 322/9/4 323/9/4
f 323/9/4 322/9/4 324/9/4
f 324/9/4 322/9/4 325/9/4
f 326/9/4 327/9/4 328/9/4
f 328/9/4 327/9/4 329/9/4
f 330/7/4 331/7/4 336/7/4
f 331/8/4 332/8/4 337/8/4
f 332/4/4 333/4/4 337/4/4
f 333/8/4 334/8/4 338/8/4
f 337/4/4 333/4/4 338/4/4
f 335/10/4 336/10/4 339/10/4
f 336/7/4 331/7/4 340/7/4
f 339/10/4 336/10/4 340/10/4
f 331/8/4 337/8/4 341/8/4
f 337/6/4 338/6/4 341/6/4
f 338/8/4 334/8/4 342/8/4
f 341/6/4 338/6/4 342/6/4
f 340/7/4 331/7/4 344/7/4
f 341/4/4 342/4/4 345/4/4
f 331/8/4 341/8/4 345/8/4
f 342/8/4 334/8/4 346/8/4
f 345/4/4 342/4/4 346/4/4
f 343/3/4 344/3/4 347/3/4
f 344/7/4 331/7/4 348/7/4
f 347/3/4 344/3/4 348/3/4
f 331/8/4 345/8/4 349/8/4
f 345/6/4 346/6/4 349/6/4
f 346/8/4 334/8/4 350/8/4
f 349/6/4 346/6/4 350/6/4
f 331/8/4 349/8/4 351/8/4
f 349/4/4 350/4/4 351/4/4
f 350/8/4 334/8/4 352/8/4
f 351/4/4 350/4/4 352/4/4
f 331/8/4 351/8/4 353/8/4
f 351/6/4 352/6/4 353/6/4
f 352/8/4 334/8/4 354/8/4
f 353/6/4 352/6/4 354/6/4
f 348/7/4 331/7/4 355/7/4
f 331/8/4 353/8/4 356/8/4
f 355/7/4 331/7/4 356/7/4
f 353/4/4 354/4/4 357/4/4
f 356/8/4 353/8/4 357/8/4
f 354/8/4 334/8/4 358/8/4
f 357/4/4 354/4/4 358/4/4
f 358/8/4 334/8/4 359/8/4
f 364/9/5 361/9/5 360/9/5
f 365/9/5 361/9/5 364/9/5
f 366/9/5 363/9/5 362/9/5
f 367/9/5 363/9/5 366/9/5
f 372/9/5 369/9/5 368/9/5
f 373/9/5 369/9/5 372/9/5
f 374/9/5 371/9/5 370/9/5
f 375/9/5 371/9/5 374/9/5
f 380/9/5 377/9/5 376/9/5
f 381/9/5 377/9/5 380/9/5
f 382/9/5 379/9/5 378/9/5
f 383/9/5 379/9/5 382/9/5
f 388/9/5 385/9/5 384/9/5
f 389/9/5 385/9/5 388/9/5
f 390/9/5 387/9/5 386/9/5
f 391/9/5 387/9/5 390/9/5
f 394/10/5 393/10/5 392/10/5
f 397/10/5 393/10/5 394/10/5
f 398/10/5 393/10/5 397/10/5
f 399/3/5 396/3/5 395/3/5
f 400/3/5 396/3/5 399/3/5
f 405/7/5 402/7/5 401/7/5
f 405/3/5 403/3/5 402/3/5
f 406/7/5 404/7/5 403/7/5
f 406/3/5 403/3/5 405/3/5
f 407/7/5 405/7/5 401/7/5
f 407/7/5 406/7/5 405/7/5
f 408/7/5 406/7/5 407/7/5
f 409/7/5 404/7/5 406/7/5
f 409/7/5 406/7/5 408/7/5
f 410/7/5 404/7/5 409/7/5
f 411/7/5 409/7/5 408/7/5
f 412/7/5 409/7/5 411/7/5
f 413/7/5 412/7/5 411/7/5
f 414/7/5 412/7/5 413/7/5
f 416/7/5 414/7/5 413/7/5
f 417/7/5 414/7/5 416/7/5
f 419/7/5 417/7/5 416/7/5
f 419/7/5 418/7/5 417/7/5
f 419/7/5 416/7/5 415/7/5
f 420/7/5 418/7/5 419/7/5
f 421/7/5 418/7/5 420/7/5
f 422/7/5 418/7/5 421/7/5
f 423/7/5 421/7/5 420/7/5
f 424/7/5 421/7/5 423/7/5
f 425/7/5 424/7/5 423/7/5
f 426/7/5 424/7/5 425/7/5
f 428/7/5 426/7/5 425/7/5
f 429/7/5 426/7/5 428/7/5
f 431/7/5 429/7/5 428/7/5
f 431/7/5 430/7/5 429/7/5
f 431/7/5 428/7/5 427/7/5
f 432/7/5 430/7/5 431/7/5
f 433/7/5 430/7/5 432/7/5
f 434/7/5 430/7/5 433/7/5
f 435/7/5 433/7/5 432/7/5
f 436/7/5 433/7/5 435/7/5
f 437/7/5 436/7/5 435/7/5
f 438/7/5 436/7/5 437/7/5
f 440/7/5 438/7/5 437/7/5
f 441/7/5 438/7/5 440/7/5
f 443/7/5 441/7/5 440/7/5
f 443/7/5 442/7/5 441/7/5
f 443/7/5 440/7/5 439/7/5
f 444/7/5 442/7/5 443/7/5
f 445/7/5 442/7/5 444/7/5
f 446/7/5 442/7/5 445/7/5
f 447/7/5 445/7/5 444/7/5
f 448/7/5 445/7/5 447/7/5
f 449/7/5 445/7/5 448/7/5
f 450/7/5 449/7/5 448/7/5
f 453/7/5 450/7/5 448/7/5
f 454/7/5 450/7/5 453/7/5
f 455/7/5 450/7/5 454/7/5
f 457/7/5 452/7/5 451/7/5
f 458/7/5 452/7/5 457/7/5
f 459/7/5 453/7/5 448/7/5
f 460/7/5 453/7/5 459/7/5
f 461/7/5 455/7/5 454/7/5
f 461/7/5 456/7/5 455/7/5
f 462/7/5 456/7/5 461/7/5
f 463/1/6 464/1/6 467/1/6
f 467/1/6 464/1/6 468/1/6
f 464/7/6 465/7/6 469/7/6
f 468/1/6 464/1/6 469/1/6
f 465/1/6 466/1/6 470/1/6
f 469/7/6 465/7/6 470/7/6
f 470/1/6 466/1/6 471/1/6
f 471/1/6 466/1/6 472/1/6
f 473/7/6 474/7/6 475/7/6
f 475/7/6 474/7/6 476/7/6
f 476/7/6 474/7/6 477/7/6
f 477/7/6 474/7/6 478/7/6
f 478/7/6 474/7/6 479/7/6
f 479/7/6 474/7/6 480/7/6
f 480/7/6 474/7/6 481/7/6
f 481/7/6 474/7/6 482/7/6
f 483/8/6 484/8/6 485/8/6
f 485/8/6 484/8/6 486/8/6
