# MagicaVoxel @ Ephtracy

# group
o 

# material
mtllib 20_House_10.mtl
usemtl palette

# normals
vn -1 0 0
vn 1 0 0
vn 0 0 1
vn 0 0 -1
vn 0 -1 0
vn 0 1 0

# texcoords
vt 0.0175781 0.5
vt 0.705078 0.5
vt 0.857422 0.5
vt 0.896484 0.5
vt 0.962891 0.5
vt 0.982422 0.5

# verts
v 0 2 0
v 0 2 -2
v 0 2.2 0
v 0 2.2 -1.1
v 0 2.3 0
v 0 2.3 -1.1
v 0 3 -1.1
v 0 3 -1.2
v 0 3 -1.5
v 0 3.1 -1.2
v 0 3.1 -1.5
v 0 3.2 -1.1
v 0 3.2 -1.5
v 0 3.9 -1.5
v 0 3.9 -2
v 0 4 -1.5
v 0 4 -2
v 1 2.3 -1.1
v 1 2.3 -1.2
v 1 2.6 -1.1
v 1 2.6 -1.2
v 1 3 -1.5
v 1 3 -1.7
v 1 3.6 -1.5
v 1 3.6 -1.7
v 1.4 2.2 -1.1
v 1.4 2.2 -1.2
v 1.4 2.3 -1.1
v 1.4 2.3 -1.2
v 1.5 2.1 -1.1
v 1.5 2.1 -1.2
v 1.5 2.2 -1.1
v 1.5 2.2 -1.2
v 1.5 2.3 -1.1
v 1.5 2.3 -1.2
v 1.5 2.6 -1.1
v 1.5 2.6 -1.2
v 1.6 2.1 0
v 1.6 2.1 -0.1
v 1.6 2.2 0
v 1.6 2.2 -0.1
v 1.6 2.3 0
v 1.6 2.3 -0.1
v 1.6 3.1 -1.5
v 1.6 3.1 -1.6
v 1.6 3.2 -1.5
v 1.6 3.2 -1.6
v 1.7 3 -1.5
v 1.7 3 -1.6
v 1.7 3.1 -1.5
v 1.7 3.1 -1.6
v 1.7 3.2 -1.5
v 1.7 3.2 -1.6
v 1.7 3.5 -1.5
v 1.7 3.5 -1.6
v 1.9 2.1 -0.1
v 1.9 2.1 -1.1
v 1.9 2.2 -0.1
v 1.9 2.2 -1.1
v 1.9 2.3 -0.1
v 1.9 2.3 -1.1
v 1.9 3 -1.1
v 1.9 3 -1.2
v 1.9 3.1 -1.1
v 1.9 3.1 -1.2
v 1.9 3.1 -1.5
v 1.9 3.2 -1.2
v 1.9 3.2 -1.5
v 0.1 2.1 -0.1
v 0.1 2.1 -1.1
v 0.1 2.2 -0.1
v 0.1 2.2 -1.1
v 0.1 2.3 -0.1
v 0.1 2.3 -1.1
v 0.1 3 -1.1
v 0.1 3 -1.2
v 0.1 3.1 -1.1
v 0.1 3.1 -1.2
v 0.1 3.1 -1.5
v 0.1 3.2 -1.2
v 0.1 3.2 -1.5
v 0.2 2.3 -1.1
v 0.2 2.3 -1.2
v 0.2 2.6 -1.1
v 0.2 2.6 -1.2
v 0.2 3 -1.5
v 0.2 3 -1.6
v 0.2 3.6 -1.5
v 0.2 3.6 -1.6
v 0.6 3 -1.6
v 0.6 3 -1.7
v 0.6 3.6 -1.6
v 0.6 3.6 -1.7
v 1 2.1 0
v 1 2.1 -0.1
v 1 2.2 0
v 1 2.2 -0.1
v 1 2.3 0
v 1 2.3 -0.1
v 1.1 2.1 -1.1
v 1.1 2.1 -1.2
v 1.1 2.6 -1.1
v 1.1 2.6 -1.2
v 1.3 3 -1.5
v 1.3 3 -1.6
v 1.3 3.5 -1.5
v 1.3 3.5 -1.6
v 2 2 0
v 2 2 -2
v 2 2.2 0
v 2 2.2 -1.1
v 2 2.3 0
v 2 2.3 -1.1
v 2 3 -1.1
v 2 3 -1.2
v 2 3 -1.5
v 2 3.1 -1.2
v 2 3.1 -1.5
v 2 3.2 -1.1
v 2 3.2 -1.5
v 2 3.9 -1.5
v 2 3.9 -2
v 2 4 -1.5
v 2 4 -2
v 0 2 0
v 0 2.2 0
v 0 2.3 0
v 1 2 0
v 1 2.1 0
v 1 2.2 0
v 1 2.3 0
v 1.6 2 0
v 1.6 2.1 0
v 1.6 2.2 0
v 1.6 2.3 0
v 2 2 0
v 2 2.2 0
v 2 2.3 0
v 0 2.3 -1.1
v 0 3 -1.1
v 0 3.2 -1.1
v 0.1 2.1 -1.1
v 0.1 2.2 -1.1
v 0.1 2.3 -1.1
v 0.1 3 -1.1
v 0.1 3.1 -1.1
v 0.2 2.3 -1.1
v 0.2 2.6 -1.1
v 1 2.3 -1.1
v 1 2.6 -1.1
v 1.1 2.1 -1.1
v 1.1 2.6 -1.1
v 1.4 2.2 -1.1
v 1.4 2.3 -1.1
v 1.5 2.1 -1.1
v 1.5 2.2 -1.1
v 1.5 2.3 -1.1
v 1.5 2.6 -1.1
v 1.9 2.1 -1.1
v 1.9 2.2 -1.1
v 1.9 2.3 -1.1
v 1.9 3 -1.1
v 1.9 3.1 -1.1
v 2 2.3 -1.1
v 2 3 -1.1
v 2 3.2 -1.1
v 0.2 2.3 -1.2
v 0.2 2.6 -1.2
v 1 2.3 -1.2
v 1 2.6 -1.2
v 1.1 2.1 -1.2
v 1.1 2.6 -1.2
v 1.4 2.2 -1.2
v 1.4 2.3 -1.2
v 1.5 2.1 -1.2
v 1.5 2.2 -1.2
v 1.5 2.3 -1.2
v 1.5 2.6 -1.2
v 0 3 -1.5
v 0 3.1 -1.5
v 0 3.2 -1.5
v 0 3.9 -1.5
v 0 4 -1.5
v 0.1 3.1 -1.5
v 0.1 3.2 -1.5
v 0.2 3 -1.5
v 0.2 3.6 -1.5
v 1 3 -1.5
v 1 3.6 -1.5
v 1.3 3 -1.5
v 1.3 3.5 -1.5
v 1.6 3.1 -1.5
v 1.6 3.2 -1.5
v 1.7 3 -1.5
v 1.7 3.1 -1.5
v 1.7 3.2 -1.5
v 1.7 3.5 -1.5
v 1.9 3.1 -1.5
v 1.9 3.2 -1.5
v 2 3 -1.5
v 2 3.1 -1.5
v 2 3.2 -1.5
v 2 3.9 -1.5
v 2 4 -1.5
v 0.2 3 -1.6
v 0.2 3.6 -1.6
v 0.5 3 -1.6
v 0.5 3.6 -1.6
v 0.6 3 -1.6
v 0.6 3.6 -1.6
v 1.3 3 -1.6
v 1.3 3.5 -1.6
v 1.6 3.1 -1.6
v 1.6 3.2 -1.6
v 1.7 3 -1.6
v 1.7 3.1 -1.6
v 1.7 3.2 -1.6
v 1.7 3.5 -1.6
v 0.6 3 -1.7
v 0.6 3.6 -1.7
v 1 3 -1.7
v 1 3.6 -1.7
v 0.1 2.1 -0.1
v 0.1 2.2 -0.1
v 0.1 2.3 -0.1
v 1 2.1 -0.1
v 1 2.2 -0.1
v 1 2.3 -0.1
v 1.6 2.1 -0.1
v 1.6 2.2 -0.1
v 1.6 2.3 -0.1
v 1.9 2.1 -0.1
v 1.9 2.2 -0.1
v 1.9 2.3 -0.1
v 0 3 -1.2
v 0 3.1 -1.2
v 0.1 3 -1.2
v 0.1 3.1 -1.2
v 0.1 3.2 -1.2
v 1.9 3 -1.2
v 1.9 3.1 -1.2
v 1.9 3.2 -1.2
v 2 3 -1.2
v 2 3.1 -1.2
v 0 2 -2
v 0 3.9 -2
v 0 4 -2
v 2 2 -2
v 2 3.9 -2
v 2 4 -2
v 0 2 0
v 1 2 0
v 1.6 2 0
v 2 2 0
v 0.1 2 -0.1
v 1 2 -0.1
v 1.6 2 -0.1
v 1.9 2 -0.1
v 0.1 2 -1.1
v 1.1 2 -1.1
v 1.5 2 -1.1
v 1.9 2 -1.1
v 1.1 2 -1.2
v 1.5 2 -1.2
v 1.1 2 -1.3
v 1.5 2 -1.3
v 0 2 -2
v 2 2 -2
v 1.4 2.2 -1.1
v 1.5 2.2 -1.1
v 1.4 2.2 -1.2
v 1.5 2.2 -1.2
v 0.2 2.6 -1.1
v 1 2.6 -1.1
v 1.1 2.6 -1.1
v 1.5 2.6 -1.1
v 0.2 2.6 -1.2
v 1 2.6 -1.2
v 1.1 2.6 -1.2
v 1.5 2.6 -1.2
v 0.1 3.1 -1.1
v 1.9 3.1 -1.1
v 0 3.1 -1.2
v 0.1 3.1 -1.2
v 1.9 3.1 -1.2
v 2 3.1 -1.2
v 0 3.1 -1.5
v 0.1 3.1 -1.5
v 1.6 3.1 -1.5
v 1.7 3.1 -1.5
v 1.9 3.1 -1.5
v 2 3.1 -1.5
v 1.6 3.1 -1.6
v 1.7 3.1 -1.6
v 1.3 3.5 -1.5
v 1.7 3.5 -1.5
v 1.3 3.5 -1.6
v 1.7 3.5 -1.6
v 0.2 3.6 -1.5
v 1 3.6 -1.5
v 0.2 3.6 -1.6
v 0.5 3.6 -1.6
v 0.6 3.6 -1.6
v 0.6 3.6 -1.7
v 1 3.6 -1.7
v 1 2.1 0
v 1.6 2.1 0
v 0.1 2.1 -0.1
v 1 2.1 -0.1
v 1.6 2.1 -0.1
v 1.9 2.1 -0.1
v 0.1 2.1 -1.1
v 1.1 2.1 -1.1
v 1.5 2.1 -1.1
v 1.9 2.1 -1.1
v 1.1 2.1 -1.2
v 1.5 2.1 -1.2
v 0 2.3 0
v 1 2.3 0
v 1.6 2.3 0
v 2 2.3 0
v 0.1 2.3 -0.1
v 1 2.3 -0.1
v 1.6 2.3 -0.1
v 1.9 2.3 -0.1
v 0 2.3 -1.1
v 0.1 2.3 -1.1
v 0.2 2.3 -1.1
v 1 2.3 -1.1
v 1.4 2.3 -1.1
v 1.5 2.3 -1.1
v 1.9 2.3 -1.1
v 2 2.3 -1.1
v 0.2 2.3 -1.2
v 1 2.3 -1.2
v 1.4 2.3 -1.2
v 1.5 2.3 -1.2
v 0.1 3 -1.1
v 1.9 3 -1.1
v 0 3 -1.2
v 0.1 3 -1.2
v 1.9 3 -1.2
v 2 3 -1.2
v 0 3 -1.5
v 0.2 3 -1.5
v 1 3 -1.5
v 1.3 3 -1.5
v 1.7 3 -1.5
v 2 3 -1.5
v 0.2 3 -1.6
v 0.5 3 -1.6
v 0.6 3 -1.6
v 1.3 3 -1.6
v 1.7 3 -1.6
v 0.6 3 -1.7
v 1 3 -1.7
v 0 3.2 -1.1
v 2 3.2 -1.1
v 0.1 3.2 -1.2
v 1.9 3.2 -1.2
v 0 3.2 -1.5
v 0.1 3.2 -1.5
v 1.6 3.2 -1.5
v 1.7 3.2 -1.5
v 1.9 3.2 -1.5
v 2 3.2 -1.5
v 1.6 3.2 -1.6
v 1.7 3.2 -1.6
v 0 4 -1.5
v 2 4 -1.5
v 0 4 -2
v 2 4 -2

# faces
f 3/5/1 2/5/1 1/5/1
f 4/5/1 2/5/1 3/5/1
f 5/6/1 4/6/1 3/6/1
f 6/5/1 2/5/1 4/5/1
f 6/6/1 4/6/1 5/6/1
f 7/5/1 2/5/1 6/5/1
f 8/5/1 2/5/1 7/5/1
f 9/5/1 2/5/1 8/5/1
f 10/6/1 8/6/1 7/6/1
f 11/5/1 2/5/1 9/5/1
f 12/6/1 10/6/1 7/6/1
f 12/6/1 11/6/1 10/6/1
f 13/5/1 2/5/1 11/5/1
f 13/6/1 11/6/1 12/6/1
f 14/5/1 2/5/1 13/5/1
f 15/5/1 2/5/1 14/5/1
f 16/6/1 15/6/1 14/6/1
f 17/6/1 15/6/1 16/6/1
f 20/5/1 19/5/1 18/5/1
f 21/5/1 19/5/1 20/5/1
f 24/5/1 23/5/1 22/5/1
f 25/5/1 23/5/1 24/5/1
f 28/1/1 27/1/1 26/1/1
f 29/1/1 27/1/1 28/1/1
f 32/5/1 31/5/1 30/5/1
f 33/5/1 31/5/1 32/5/1
f 36/5/1 35/5/1 34/5/1
f 37/5/1 35/5/1 36/5/1
f 40/5/1 39/5/1 38/5/1
f 41/5/1 39/5/1 40/5/1
f 42/6/1 41/6/1 40/6/1
f 43/6/1 41/6/1 42/6/1
f 46/1/1 45/1/1 44/1/1
f 47/1/1 45/1/1 46/1/1
f 50/5/1 49/5/1 48/5/1
f 51/5/1 49/5/1 50/5/1
f 54/5/1 53/5/1 52/5/1
f 55/5/1 53/5/1 54/5/1
f 58/5/1 57/5/1 56/5/1
f 59/5/1 57/5/1 58/5/1
f 60/6/1 59/6/1 58/6/1
f 61/6/1 59/6/1 60/6/1
f 64/6/1 63/6/1 62/6/1
f 65/6/1 63/6/1 64/6/1
f 67/6/1 66/6/1 65/6/1
f 68/6/1 66/6/1 67/6/1
f 69/5/2 70/5/2 71/5/2
f 71/5/2 70/5/2 72/5/2
f 71/6/2 72/6/2 73/6/2
f 73/6/2 72/6/2 74/6/2
f 75/6/2 76/6/2 77/6/2
f 77/6/2 76/6/2 78/6/2
f 78/6/2 79/6/2 80/6/2
f 80/6/2 79/6/2 81/6/2
f 82/5/2 83/5/2 84/5/2
f 84/5/2 83/5/2 85/5/2
f 86/5/2 87/5/2 88/5/2
f 88/5/2 87/5/2 89/5/2
f 90/6/2 91/6/2 92/6/2
f 92/6/2 91/6/2 93/6/2
f 94/5/2 95/5/2 96/5/2
f 96/5/2 95/5/2 97/5/2
f 96/6/2 97/6/2 98/6/2
f 98/6/2 97/6/2 99/6/2
f 100/5/2 101/5/2 102/5/2
f 102/5/2 101/5/2 103/5/2
f 104/5/2 105/5/2 106/5/2
f 106/5/2 105/5/2 107/5/2
f 108/5/2 109/5/2 110/5/2
f 110/5/2 109/5/2 111/5/2
f 110/6/2 111/6/2 112/6/2
f 111/5/2 109/5/2 113/5/2
f 112/6/2 111/6/2 113/6/2
f 113/5/2 109/5/2 114/5/2
f 114/5/2 109/5/2 115/5/2
f 115/5/2 109/5/2 116/5/2
f 114/6/2 115/6/2 117/6/2
f 116/5/2 109/5/2 118/5/2
f 114/6/2 117/6/2 119/6/2
f 117/6/2 118/6/2 119/6/2
f 118/5/2 109/5/2 120/5/2
f 119/6/2 118/6/2 120/6/2
f 120/5/2 109/5/2 121/5/2
f 121/5/2 109/5/2 122/5/2
f 121/6/2 122/6/2 123/6/2
f 123/6/2 122/6/2 124/6/2
f 128/5/3 126/5/3 125/5/3
f 129/5/3 126/5/3 128/5/3
f 130/6/3 127/6/3 126/6/3
f 130/5/3 126/5/3 129/5/3
f 131/6/3 127/6/3 130/6/3
f 132/4/3 129/4/3 128/4/3
f 133/4/3 129/4/3 132/4/3
f 136/5/3 133/5/3 132/5/3
f 136/5/3 134/5/3 133/5/3
f 137/6/3 135/6/3 134/6/3
f 137/5/3 134/5/3 136/5/3
f 138/6/3 135/6/3 137/6/3
f 144/5/3 140/5/3 139/5/3
f 145/6/3 141/6/3 140/6/3
f 145/5/3 140/5/3 144/5/3
f 146/6/3 141/6/3 145/6/3
f 147/5/3 143/5/3 142/5/3
f 147/5/3 144/5/3 143/5/3
f 147/5/3 145/5/3 144/5/3
f 148/5/3 145/5/3 147/5/3
f 149/5/3 147/5/3 142/5/3
f 150/5/3 145/5/3 148/5/3
f 151/5/3 149/5/3 142/5/3
f 151/5/3 150/5/3 149/5/3
f 152/5/3 145/5/3 150/5/3
f 152/5/3 150/5/3 151/5/3
f 156/1/3 154/1/3 153/1/3
f 157/1/3 154/1/3 156/1/3
f 158/5/3 145/5/3 152/5/3
f 159/5/3 157/5/3 156/5/3
f 159/5/3 158/5/3 157/5/3
f 159/5/3 156/5/3 155/5/3
f 160/5/3 158/5/3 159/5/3
f 161/5/3 158/5/3 160/5/3
f 162/5/3 145/5/3 158/5/3
f 162/5/3 158/5/3 161/5/3
f 163/6/3 141/6/3 146/6/3
f 164/5/3 162/5/3 161/5/3
f 165/6/3 163/6/3 162/6/3
f 165/5/3 162/5/3 164/5/3
f 166/6/3 141/6/3 163/6/3
f 166/6/3 163/6/3 165/6/3
f 169/2/3 168/2/3 167/2/3
f 170/2/3 168/2/3 169/2/3
f 173/3/3 172/3/3 171/3/3
f 174/3/3 172/3/3 173/3/3
f 175/3/3 173/3/3 171/3/3
f 176/3/3 173/3/3 175/3/3
f 177/3/3 172/3/3 174/3/3
f 178/3/3 172/3/3 177/3/3
f 184/5/3 180/5/3 179/5/3
f 185/5/3 182/5/3 181/5/3
f 186/5/3 184/5/3 179/5/3
f 186/5/3 185/5/3 184/5/3
f 187/5/3 182/5/3 185/5/3
f 187/5/3 185/5/3 186/5/3
f 189/5/3 182/5/3 187/5/3
f 190/5/3 189/5/3 188/5/3
f 191/5/3 189/5/3 190/5/3
f 195/1/3 193/1/3 192/1/3
f 196/1/3 193/1/3 195/1/3
f 197/5/3 189/5/3 191/5/3
f 198/5/3 196/5/3 195/5/3
f 198/5/3 197/5/3 196/5/3
f 198/5/3 195/5/3 194/5/3
f 199/5/3 197/5/3 198/5/3
f 200/5/3 198/5/3 194/5/3
f 201/5/3 198/5/3 200/5/3
f 202/5/3 197/5/3 199/5/3
f 203/6/3 183/6/3 182/6/3
f 203/5/3 197/5/3 202/5/3
f 203/5/3 182/5/3 189/5/3
f 203/5/3 189/5/3 197/5/3
f 204/6/3 183/6/3 203/6/3
f 207/2/3 206/2/3 205/2/3
f 208/2/3 206/2/3 207/2/3
f 209/6/3 208/6/3 207/6/3
f 210/6/3 208/6/3 209/6/3
f 213/3/3 212/3/3 211/3/3
f 214/3/3 212/3/3 213/3/3
f 215/3/3 213/3/3 211/3/3
f 216/3/3 213/3/3 215/3/3
f 217/3/3 212/3/3 214/3/3
f 218/3/3 212/3/3 217/3/3
f 221/2/3 220/2/3 219/2/3
f 222/2/3 220/2/3 221/2/3
f 223/5/4 224/5/4 226/5/4
f 224/6/4 225/6/4 227/6/4
f 226/5/4 224/5/4 227/5/4
f 227/6/4 225/6/4 228/6/4
f 229/5/4 230/5/4 232/5/4
f 230/6/4 231/6/4 233/6/4
f 232/5/4 230/5/4 233/5/4
f 233/6/4 231/6/4 234/6/4
f 235/6/4 236/6/4 237/6/4
f 237/6/4 236/6/4 238/6/4
f 238/6/4 239/6/4 241/6/4
f 241/6/4 239/6/4 242/6/4
f 240/6/4 241/6/4 243/6/4
f 243/6/4 241/6/4 244/6/4
f 245/5/4 246/5/4 248/5/4
f 246/6/4 247/6/4 249/6/4
f 248/5/4 246/5/4 249/5/4
f 249/6/4 247/6/4 250/6/4
f 255/5/5 252/5/5 251/5/5
f 256/4/5 253/4/5 252/4/5
f 256/5/5 252/5/5 255/5/5
f 257/5/5 254/5/5 253/5/5
f 257/4/5 253/4/5 256/4/5
f 258/5/5 254/5/5 257/5/5
f 259/4/5 256/4/5 255/4/5
f 259/5/5 255/5/5 251/5/5
f 259/4/5 258/4/5 257/4/5
f 259/4/5 257/4/5 256/4/5
f 260/4/5 258/4/5 259/4/5
f 261/4/5 258/4/5 260/4/5
f 262/5/5 254/5/5 258/5/5
f 262/4/5 258/4/5 261/4/5
f 263/4/5 261/4/5 260/4/5
f 263/5/5 260/5/5 259/5/5
f 264/5/5 262/5/5 261/5/5
f 264/4/5 261/4/5 263/4/5
f 265/5/5 263/5/5 259/5/5
f 265/3/5 264/3/5 263/3/5
f 266/5/5 262/5/5 264/5/5
f 266/3/5 264/3/5 265/3/5
f 267/5/5 259/5/5 251/5/5
f 267/5/5 265/5/5 259/5/5
f 267/5/5 266/5/5 265/5/5
f 268/5/5 254/5/5 262/5/5
f 268/5/5 266/5/5 267/5/5
f 268/5/5 262/5/5 266/5/5
f 271/1/5 270/1/5 269/1/5
f 272/1/5 270/1/5 271/1/5
f 277/5/5 274/5/5 273/5/5
f 278/5/5 274/5/5 277/5/5
f 279/5/5 276/5/5 275/5/5
f 280/5/5 276/5/5 279/5/5
f 284/6/5 282/6/5 281/6/5
f 285/6/5 282/6/5 284/6/5
f 287/6/5 284/6/5 283/6/5
f 288/6/5 284/6/5 287/6/5
f 291/6/5 286/6/5 285/6/5
f 292/6/5 286/6/5 291/6/5
f 293/1/5 290/1/5 289/1/5
f 294/1/5 290/1/5 293/1/5
f 297/5/5 296/5/5 295/5/5
f 298/5/5 296/5/5 297/5/5
f 301/5/5 300/5/5 299/5/5
f 302/5/5 300/5/5 301/5/5
f 303/5/5 300/5/5 302/5/5
f 304/5/5 300/5/5 303/5/5
f 305/5/5 300/5/5 304/5/5
f 306/4/6 307/4/6 309/4/6
f 309/4/6 307/4/6 310/4/6
f 308/4/6 309/4/6 312/4/6
f 310/4/6 311/4/6 312/4/6
f 309/4/6 310/4/6 312/4/6
f 312/4/6 311/4/6 313/4/6
f 313/4/6 311/4/6 314/4/6
f 314/4/6 311/4/6 315/4/6
f 313/4/6 314/4/6 316/4/6
f 316/4/6 314/4/6 317/4/6
f 318/6/6 319/6/6 322/6/6
f 322/6/6 319/6/6 323/6/6
f 320/6/6 321/6/6 324/6/6
f 324/6/6 321/6/6 325/6/6
f 318/6/6 322/6/6 326/6/6
f 326/6/6 322/6/6 327/6/6
f 325/6/6 321/6/6 332/6/6
f 332/6/6 321/6/6 333/6/6
f 328/5/6 329/5/6 334/5/6
f 334/5/6 329/5/6 335/5/6
f 330/1/6 331/1/6 336/1/6
f 336/1/6 331/1/6 337/1/6
f 338/5/6 339/5/6 341/5/6
f 341/5/6 339/5/6 342/5/6
f 340/5/6 341/5/6 344/5/6
f 342/5/6 343/5/6 344/5/6
f 341/5/6 342/5/6 344/5/6
f 344/5/6 343/5/6 345/5/6
f 345/5/6 343/5/6 346/5/6
f 346/5/6 343/5/6 347/5/6
f 347/5/6 343/5/6 348/5/6
f 348/5/6 343/5/6 349/5/6
f 345/5/6 346/5/6 350/5/6
f 350/5/6 346/5/6 351/5/6
f 351/5/6 346/5/6 352/5/6
f 347/5/6 348/5/6 353/5/6
f 353/5/6 348/5/6 354/5/6
f 352/5/6 346/5/6 355/5/6
f 355/5/6 346/5/6 356/5/6
f 357/6/6 358/6/6 359/6/6
f 359/6/6 358/6/6 360/6/6
f 357/6/6 359/6/6 361/6/6
f 361/6/6 359/6/6 362/6/6
f 360/6/6 358/6/6 365/6/6
f 365/6/6 358/6/6 366/6/6
f 363/1/6 364/1/6 367/1/6
f 367/1/6 364/1/6 368/1/6
f 369/6/6 370/6/6 371/6/6
f 371/6/6 370/6/6 372/6/6
