# MagicaVoxel @ Ephtracy

# group
o 

# material
mtllib 20_House_09.mtl
usemtl palette

# normals
vn -1 0 0
vn 1 0 0
vn 0 0 1
vn 0 0 -1
vn 0 -1 0
vn 0 1 0

# texcoords
vt 0.0136719 0.5
vt 0.0175781 0.5
vt 0.705078 0.5
vt 0.861328 0.5
vt 0.962891 0.5
vt 0.978516 0.5
vt 0.982422 0.5

# verts
v 0 2 0
v 0 2 -2
v 0 2.2 0
v 0 2.2 -0.9
v 0 2.3 0
v 0 2.3 -0.9
v 0 3 -0.9
v 0 3 -2
v 0.1 3 -1
v 0.1 3 -1.1
v 0.1 3 -1.8
v 0.1 3 -1.9
v 0.1 3.1 -1.1
v 0.1 3.1 -1.8
v 0.1 3.2 -1
v 0.1 3.2 -1.9
v 0.5 2.9 -0.3
v 0.5 2.9 -0.9
v 0.5 3 -0.3
v 0.5 3 -0.9
v 0.6 2 -0.4
v 0.6 2 -0.6
v 0.6 2.9 -0.4
v 0.6 2.9 -0.6
v 0.6 3 -0.4
v 0.6 3 -0.5
v 0.6 3 -1
v 0.6 3 -1.1
v 0.6 3.1 -0.5
v 0.6 3.1 -1
v 0.6 3.1 -1.1
v 0.6 3.2 -0.4
v 0.6 3.2 -1
v 0.8 2.3 -0.9
v 0.8 2.3 -1
v 0.8 2.6 -0.9
v 0.8 2.6 -1
v 1 3 -0.9
v 1 3 -1.3
v 1 3 -1.7
v 1 3 -2
v 1 3.1 -1.8
v 1 3.1 -1.9
v 1 3.2 -1.3
v 1 3.2 -1.4
v 1 3.2 -1.8
v 1 3.2 -1.9
v 1 3.3 -1.3
v 1 3.3 -1.4
v 1 3.5 -1.3
v 1 3.5 -1.7
v 1 3.9 -0.9
v 1 3.9 -2
v 1 4 -0.9
v 1 4 -2
v 1.1 3 -1.3
v 1.1 3 -1.7
v 1.1 3.2 -1.3
v 1.1 3.2 -1.4
v 1.1 3.3 -1.3
v 1.1 3.3 -1.4
v 1.1 3.5 -1.3
v 1.1 3.5 -1.7
v 1.4 2.1 -0.9
v 1.4 2.1 -1
v 1.4 2.2 -0.9
v 1.4 2.2 -1
v 1.5 2 -0.9
v 1.5 2 -1
v 1.5 2.1 -0.9
v 1.5 2.1 -1
v 1.5 2.2 -0.9
v 1.5 2.2 -1
v 1.5 2.5 -0.9
v 1.5 2.5 -1
v 1.7 2 -0.4
v 1.7 2 -0.6
v 1.7 2.9 -0.4
v 1.7 2.9 -0.6
v 1.8 3 -0.4
v 1.8 3 -0.5
v 1.8 3.1 -0.4
v 1.8 3.1 -0.5
v 1.8 3.1 -0.9
v 1.8 3.2 -0.5
v 1.8 3.2 -0.9
v 1.9 3.3 -0.9
v 1.9 3.3 -1
v 1.9 3.6 -0.9
v 1.9 3.6 -1
v 0.1 2 -0.1
v 0.1 2 -0.9
v 0.1 2.2 -0.1
v 0.1 2.2 -0.9
v 0.1 2.3 -0.1
v 0.1 2.3 -0.9
v 0.2 2.3 -0.9
v 0.2 2.3 -1
v 0.2 2.6 -0.9
v 0.2 2.6 -1
v 0.2 3 -1
v 0.2 3 -1.1
v 0.2 3 -1.8
v 0.2 3 -1.9
v 0.2 3.1 -1
v 0.2 3.1 -1.1
v 0.2 3.1 -1.8
v 0.2 3.1 -1.9
v 0.2 3.2 -1.1
v 0.2 3.2 -1.8
v 0.7 3 -0.4
v 0.7 3 -0.5
v 0.7 3 -1
v 0.7 3 -1.1
v 0.7 3.1 -0.4
v 0.7 3.1 -0.5
v 0.7 3.1 -1
v 0.7 3.2 -0.5
v 0.7 3.2 -1.1
v 0.8 2 -0.4
v 0.8 2 -0.6
v 0.8 2.9 -0.4
v 0.8 2.9 -0.6
v 1.1 2 0
v 1.1 2 -0.1
v 1.1 2 -0.9
v 1.1 2 -1
v 1.1 2.2 0
v 1.1 2.2 -0.1
v 1.1 2.3 0
v 1.1 2.3 -0.1
v 1.1 2.5 -0.9
v 1.1 2.5 -1
v 1.1 3.3 -0.9
v 1.1 3.3 -1
v 1.1 3.6 -0.9
v 1.1 3.6 -1
v 1.9 2 -0.4
v 1.9 2 -0.6
v 1.9 2.9 -0.4
v 1.9 2.9 -0.6
v 1.9 3 -0.4
v 1.9 3 -0.5
v 1.9 3.1 -0.5
v 1.9 3.1 -0.9
v 1.9 3.2 -0.4
v 1.9 3.2 -0.9
v 2 2 -0.9
v 2 2 -2
v 2 2.9 -0.3
v 2 2.9 -0.9
v 2 3 -0.3
v 2 3 -0.9
v 2 3.9 -0.9
v 2 3.9 -2
v 2 4 -0.9
v 2 4 -2
v 0 2 0
v 0 2.2 0
v 0 2.3 0
v 1.1 2 0
v 1.1 2.2 0
v 1.1 2.3 0
v 0.5 2.9 -0.3
v 0.5 3 -0.3
v 2 2.9 -0.3
v 2 3 -0.3
v 0.6 2 -0.4
v 0.6 2.9 -0.4
v 0.6 3 -0.4
v 0.6 3.2 -0.4
v 0.7 3 -0.4
v 0.7 3.1 -0.4
v 0.8 2 -0.4
v 0.8 2.9 -0.4
v 1.7 2 -0.4
v 1.7 2.9 -0.4
v 1.8 3 -0.4
v 1.8 3.1 -0.4
v 1.9 2 -0.4
v 1.9 2.9 -0.4
v 1.9 3 -0.4
v 1.9 3.2 -0.4
v 0 2.3 -0.9
v 0 3 -0.9
v 0.1 2 -0.9
v 0.1 2.2 -0.9
v 0.1 2.3 -0.9
v 0.2 2.3 -0.9
v 0.2 2.6 -0.9
v 0.5 2.9 -0.9
v 0.5 3 -0.9
v 0.8 2.3 -0.9
v 0.8 2.6 -0.9
v 1 3 -0.9
v 1 3.9 -0.9
v 1 4 -0.9
v 1.1 2 -0.9
v 1.1 2.5 -0.9
v 1.1 3.3 -0.9
v 1.1 3.6 -0.9
v 1.4 2.1 -0.9
v 1.4 2.2 -0.9
v 1.5 2 -0.9
v 1.5 2.1 -0.9
v 1.5 2.2 -0.9
v 1.5 2.5 -0.9
v 1.8 3.1 -0.9
v 1.8 3.2 -0.9
v 1.9 3.1 -0.9
v 1.9 3.2 -0.9
v 1.9 3.3 -0.9
v 1.9 3.6 -0.9
v 2 2 -0.9
v 2 2.9 -0.9
v 2 3 -0.9
v 2 3.9 -0.9
v 2 4 -0.9
v 0.1 3 -1
v 0.1 3.2 -1
v 0.2 2.3 -1
v 0.2 2.6 -1
v 0.2 3 -1
v 0.2 3.1 -1
v 0.6 3 -1
v 0.6 3.1 -1
v 0.6 3.2 -1
v 0.7 3 -1
v 0.7 3.1 -1
v 0.8 2.3 -1
v 0.8 2.6 -1
v 1.1 2 -1
v 1.1 2.5 -1
v 1.1 3.3 -1
v 1.1 3.6 -1
v 1.4 2.1 -1
v 1.4 2.2 -1
v 1.5 2 -1
v 1.5 2.1 -1
v 1.5 2.2 -1
v 1.5 2.5 -1
v 1.9 3.3 -1
v 1.9 3.6 -1
v 1 3 -1.7
v 1 3.5 -1.7
v 1.1 3 -1.7
v 1.1 3.5 -1.7
v 0.1 3 -1.8
v 0.1 3.1 -1.8
v 0.2 3 -1.8
v 0.2 3.1 -1.8
v 0.2 3.2 -1.8
v 1 3.1 -1.8
v 1 3.2 -1.8
v 0.1 2 -0.1
v 0.1 2.2 -0.1
v 0.1 2.3 -0.1
v 1.1 2 -0.1
v 1.1 2.2 -0.1
v 1.1 2.3 -0.1
v 0.6 3 -0.5
v 0.6 3.1 -0.5
v 0.7 3 -0.5
v 0.7 3.1 -0.5
v 0.7 3.2 -0.5
v 1.8 3 -0.5
v 1.8 3.1 -0.5
v 1.8 3.2 -0.5
v 1.9 3 -0.5
v 1.9 3.1 -0.5
v 0.6 2 -0.6
v 0.6 2.9 -0.6
v 0.8 2 -0.6
v 0.8 2.9 -0.6
v 1.7 2 -0.6
v 1.7 2.9 -0.6
v 1.9 2 -0.6
v 1.9 2.9 -0.6
v 0.1 3 -1.1
v 0.1 3.1 -1.1
v 0.2 3 -1.1
v 0.2 3.1 -1.1
v 0.2 3.2 -1.1
v 0.6 3 -1.1
v 0.6 3.1 -1.1
v 0.7 3 -1.1
v 0.7 3.2 -1.1
v 1 3 -1.3
v 1 3.2 -1.3
v 1 3.3 -1.3
v 1 3.5 -1.3
v 1.1 3 -1.3
v 1.1 3.2 -1.3
v 1.1 3.3 -1.3
v 1.1 3.5 -1.3
v 1 3.2 -1.4
v 1 3.3 -1.4
v 1.1 3.2 -1.4
v 1.1 3.3 -1.4
v 0.1 3 -1.9
v 0.1 3.2 -1.9
v 0.2 3 -1.9
v 0.2 3.1 -1.9
v 1 3.1 -1.9
v 1 3.2 -1.9
v 0 2 -2
v 0 3 -2
v 1 3 -2
v 1 3.9 -2
v 1 4 -2
v 2 2 -2
v 2 3.9 -2
v 2 4 -2
v 0 2 0
v 1.1 2 0
v 0.1 2 -0.1
v 1.1 2 -0.1
v 0.6 2 -0.4
v 0.8 2 -0.4
v 1.7 2 -0.4
v 1.9 2 -0.4
v 0.6 2 -0.6
v 0.8 2 -0.6
v 1.7 2 -0.6
v 1.9 2 -0.6
v 0.1 2 -0.9
v 1.1 2 -0.9
v 1.5 2 -0.9
v 2 2 -0.9
v 1.1 2 -1
v 1.5 2 -1
v 1.1 2 -1.1
v 1.5 2 -1.1
v 0 2 -2
v 2 2 -2
v 1.4 2.1 -0.9
v 1.5 2.1 -0.9
v 1.4 2.1 -1
v 1.5 2.1 -1
v 1.1 2.5 -0.9
v 1.5 2.5 -0.9
v 1.1 2.5 -1
v 1.5 2.5 -1
v 0.2 2.6 -0.9
v 0.8 2.6 -0.9
v 0.2 2.6 -1
v 0.8 2.6 -1
v 0.5 2.9 -0.3
v 2 2.9 -0.3
v 0.6 2.9 -0.4
v 0.8 2.9 -0.4
v 1.7 2.9 -0.4
v 1.9 2.9 -0.4
v 0.6 2.9 -0.6
v 0.8 2.9 -0.6
v 1.7 2.9 -0.6
v 1.9 2.9 -0.6
v 0.5 2.9 -0.9
v 2 2.9 -0.9
v 0.7 3.1 -0.4
v 1.8 3.1 -0.4
v 0.6 3.1 -0.5
v 0.7 3.1 -0.5
v 1.8 3.1 -0.5
v 1.9 3.1 -0.5
v 1.8 3.1 -0.9
v 1.9 3.1 -0.9
v 0.2 3.1 -1
v 0.6 3.1 -1
v 0.7 3.1 -1
v 0.1 3.1 -1.1
v 0.2 3.1 -1.1
v 0.6 3.1 -1.1
v 0.1 3.1 -1.8
v 0.2 3.1 -1.8
v 1 3.1 -1.8
v 0.2 3.1 -1.9
v 1 3.1 -1.9
v 1 3.2 -1.3
v 1.1 3.2 -1.3
v 1 3.2 -1.4
v 1.1 3.2 -1.4
v 1 3.5 -1.3
v 1.1 3.5 -1.3
v 1 3.5 -1.7
v 1.1 3.5 -1.7
v 1.1 3.6 -0.9
v 1.9 3.6 -0.9
v 1.1 3.6 -1
v 1.9 3.6 -1
v 1.4 2.2 -0.9
v 1.5 2.2 -0.9
v 1.4 2.2 -1
v 1.5 2.2 -1
v 0 2.3 0
v 1.1 2.3 0
v 0.1 2.3 -0.1
v 1.1 2.3 -0.1
v 0 2.3 -0.9
v 0.1 2.3 -0.9
v 0.2 2.3 -0.9
v 0.8 2.3 -0.9
v 0.2 2.3 -1
v 0.8 2.3 -1
v 0.5 3 -0.3
v 2 3 -0.3
v 0.6 3 -0.4
v 0.7 3 -0.4
v 1.8 3 -0.4
v 1.9 3 -0.4
v 0.6 3 -0.5
v 0.7 3 -0.5
v 1.8 3 -0.5
v 1.9 3 -0.5
v 0 3 -0.9
v 0.5 3 -0.9
v 1 3 -0.9
v 2 3 -0.9
v 0.1 3 -1
v 0.2 3 -1
v 0.6 3 -1
v 0.7 3 -1
v 0.1 3 -1.1
v 0.2 3 -1.1
v 0.6 3 -1.1
v 0.7 3 -1.1
v 1 3 -1.3
v 1.1 3 -1.3
v 1 3 -1.7
v 1.1 3 -1.7
v 0.1 3 -1.8
v 0.2 3 -1.8
v 0.1 3 -1.9
v 0.2 3 -1.9
v 0 3 -2
v 1 3 -2
v 0.6 3.2 -0.4
v 1.9 3.2 -0.4
v 0.7 3.2 -0.5
v 1.8 3.2 -0.5
v 1.8 3.2 -0.9
v 1.9 3.2 -0.9
v 0.1 3.2 -1
v 0.6 3.2 -1
v 0.2 3.2 -1.1
v 0.7 3.2 -1.1
v 0.2 3.2 -1.8
v 1 3.2 -1.8
v 0.1 3.2 -1.9
v 1 3.2 -1.9
v 1.1 3.3 -0.9
v 1.9 3.3 -0.9
v 1.1 3.3 -1
v 1.9 3.3 -1
v 1 3.3 -1.3
v 1.1 3.3 -1.3
v 1 3.3 -1.4
v 1.1 3.3 -1.4
v 1 4 -0.9
v 2 4 -0.9
v 1 4 -2
v 2 4 -2

# faces
f 3/5/1 2/5/1 1/5/1
f 4/5/1 2/5/1 3/5/1
f 5/7/1 4/7/1 3/7/1
f 6/5/1 2/5/1 4/5/1
f 6/7/1 4/7/1 5/7/1
f 7/5/1 2/5/1 6/5/1
f 8/5/1 2/5/1 7/5/1
f 13/7/1 10/7/1 9/7/1
f 14/7/1 12/7/1 11/7/1
f 15/7/1 13/7/1 9/7/1
f 15/7/1 14/7/1 13/7/1
f 16/7/1 12/7/1 14/7/1
f 16/7/1 14/7/1 15/7/1
f 19/5/1 18/5/1 17/5/1
f 20/5/1 18/5/1 19/5/1
f 23/6/1 22/6/1 21/6/1
f 24/6/1 22/6/1 23/6/1
f 29/7/1 26/7/1 25/7/1
f 30/7/1 28/7/1 27/7/1
f 31/7/1 28/7/1 30/7/1
f 32/7/1 29/7/1 25/7/1
f 32/7/1 30/7/1 29/7/1
f 33/7/1 30/7/1 32/7/1
f 36/5/1 35/5/1 34/5/1
f 37/5/1 35/5/1 36/5/1
f 42/5/1 41/5/1 40/5/1
f 43/5/1 41/5/1 42/5/1
f 44/5/1 39/5/1 38/5/1
f 46/5/1 42/5/1 40/5/1
f 47/5/1 41/5/1 43/5/1
f 48/1/1 45/1/1 44/1/1
f 48/5/1 44/5/1 38/5/1
f 49/1/1 45/1/1 48/1/1
f 50/5/1 48/5/1 38/5/1
f 51/5/1 46/5/1 40/5/1
f 51/5/1 47/5/1 46/5/1
f 52/5/1 50/5/1 38/5/1
f 52/5/1 51/5/1 50/5/1
f 53/5/1 47/5/1 51/5/1
f 53/5/1 51/5/1 52/5/1
f 53/5/1 41/5/1 47/5/1
f 54/7/1 53/7/1 52/7/1
f 55/7/1 53/7/1 54/7/1
f 58/4/1 57/4/1 56/4/1
f 59/4/1 57/4/1 58/4/1
f 61/4/1 57/4/1 59/4/1
f 62/4/1 61/4/1 60/4/1
f 63/4/1 57/4/1 61/4/1
f 63/4/1 61/4/1 62/4/1
f 66/2/1 65/2/1 64/2/1
f 67/2/1 65/2/1 66/2/1
f 70/5/1 69/5/1 68/5/1
f 71/5/1 69/5/1 70/5/1
f 74/5/1 73/5/1 72/5/1
f 75/5/1 73/5/1 74/5/1
f 78/6/1 77/6/1 76/6/1
f 79/6/1 77/6/1 78/6/1
f 82/7/1 81/7/1 80/7/1
f 83/7/1 81/7/1 82/7/1
f 85/7/1 84/7/1 83/7/1
f 86/7/1 84/7/1 85/7/1
f 89/5/1 88/5/1 87/5/1
f 90/5/1 88/5/1 89/5/1
f 91/5/2 92/5/2 93/5/2
f 93/5/2 92/5/2 94/5/2
f 93/7/2 94/7/2 95/7/2
f 95/7/2 94/7/2 96/7/2
f 97/5/2 98/5/2 99/5/2
f 99/5/2 98/5/2 100/5/2
f 101/7/2 102/7/2 105/7/2
f 105/7/2 102/7/2 106/7/2
f 103/7/2 104/7/2 107/7/2
f 107/7/2 104/7/2 108/7/2
f 106/7/2 107/7/2 109/7/2
f 109/7/2 107/7/2 110/7/2
f 111/7/2 112/7/2 115/7/2
f 115/7/2 112/7/2 116/7/2
f 113/7/2 114/7/2 117/7/2
f 116/7/2 117/7/2 118/7/2
f 117/7/2 114/7/2 119/7/2
f 118/7/2 117/7/2 119/7/2
f 120/6/2 121/6/2 122/6/2
f 122/6/2 121/6/2 123/6/2
f 124/5/2 125/5/2 128/5/2
f 128/5/2 125/5/2 129/5/2
f 128/7/2 129/7/2 130/7/2
f 130/7/2 129/7/2 131/7/2
f 126/5/2 127/5/2 132/5/2
f 132/5/2 127/5/2 133/5/2
f 134/5/2 135/5/2 136/5/2
f 136/5/2 135/5/2 137/5/2
f 138/6/2 139/6/2 140/6/2
f 140/6/2 139/6/2 141/6/2
f 142/7/2 143/7/2 144/7/2
f 142/7/2 144/7/2 146/7/2
f 144/7/2 145/7/2 146/7/2
f 146/7/2 145/7/2 147/7/2
f 148/5/2 149/5/2 151/5/2
f 150/5/2 151/5/2 152/5/2
f 151/5/2 149/5/2 153/5/2
f 152/5/2 151/5/2 153/5/2
f 153/5/2 149/5/2 154/5/2
f 154/5/2 149/5/2 155/5/2
f 154/7/2 155/7/2 156/7/2
f 156/7/2 155/7/2 157/7/2
f 161/5/3 159/5/3 158/5/3
f 162/7/3 160/7/3 159/7/3
f 162/5/3 159/5/3 161/5/3
f 163/7/3 160/7/3 162/7/3
f 166/5/3 165/5/3 164/5/3
f 167/5/3 165/5/3 166/5/3
f 172/7/3 171/7/3 170/7/3
f 173/7/3 171/7/3 172/7/3
f 174/6/3 169/6/3 168/6/3
f 175/6/3 169/6/3 174/6/3
f 179/7/3 171/7/3 173/7/3
f 180/6/3 177/6/3 176/6/3
f 181/6/3 177/6/3 180/6/3
f 182/7/3 179/7/3 178/7/3
f 183/7/3 171/7/3 179/7/3
f 183/7/3 179/7/3 182/7/3
f 188/5/3 185/5/3 184/5/3
f 189/5/3 187/5/3 186/5/3
f 189/5/3 188/5/3 187/5/3
f 189/5/3 185/5/3 188/5/3
f 190/5/3 185/5/3 189/5/3
f 191/5/3 185/5/3 190/5/3
f 192/5/3 185/5/3 191/5/3
f 193/5/3 189/5/3 186/5/3
f 194/5/3 191/5/3 190/5/3
f 198/5/3 194/5/3 193/5/3
f 198/5/3 193/5/3 186/5/3
f 199/5/3 194/5/3 198/5/3
f 200/5/3 196/5/3 195/5/3
f 201/5/3 196/5/3 200/5/3
f 205/2/3 203/2/3 202/2/3
f 206/2/3 203/2/3 205/2/3
f 207/5/3 194/5/3 199/5/3
f 208/5/3 200/5/3 195/5/3
f 209/5/3 200/5/3 208/5/3
f 210/5/3 208/5/3 195/5/3
f 211/5/3 200/5/3 209/5/3
f 212/5/3 200/5/3 211/5/3
f 213/5/3 196/5/3 201/5/3
f 214/5/3 206/5/3 205/5/3
f 214/5/3 207/5/3 206/5/3
f 214/5/3 205/5/3 204/5/3
f 215/5/3 191/5/3 194/5/3
f 215/5/3 207/5/3 214/5/3
f 215/5/3 194/5/3 207/5/3
f 216/5/3 213/5/3 212/5/3
f 216/5/3 212/5/3 211/5/3
f 216/5/3 211/5/3 210/5/3
f 216/5/3 210/5/3 195/5/3
f 217/7/3 197/7/3 196/7/3
f 217/5/3 213/5/3 216/5/3
f 217/5/3 196/5/3 213/5/3
f 218/7/3 197/7/3 217/7/3
f 223/7/3 220/7/3 219/7/3
f 224/7/3 220/7/3 223/7/3
f 226/7/3 220/7/3 224/7/3
f 227/7/3 220/7/3 226/7/3
f 228/7/3 226/7/3 225/7/3
f 229/7/3 226/7/3 228/7/3
f 230/3/3 222/3/3 221/3/3
f 231/3/3 222/3/3 230/3/3
f 236/4/3 233/4/3 232/4/3
f 237/4/3 233/4/3 236/4/3
f 238/4/3 236/4/3 232/4/3
f 239/4/3 236/4/3 238/4/3
f 240/4/3 233/4/3 237/4/3
f 241/4/3 233/4/3 240/4/3
f 242/3/3 235/3/3 234/3/3
f 243/3/3 235/3/3 242/3/3
f 246/5/3 245/5/3 244/5/3
f 247/5/3 245/5/3 246/5/3
f 250/7/3 249/7/3 248/7/3
f 251/7/3 249/7/3 250/7/3
f 253/7/3 252/7/3 251/7/3
f 254/7/3 252/7/3 253/7/3
f 255/5/4 256/5/4 258/5/4
f 256/7/4 257/7/4 259/7/4
f 258/5/4 256/5/4 259/5/4
f 259/7/4 257/7/4 260/7/4
f 261/7/4 262/7/4 263/7/4
f 263/7/4 262/7/4 264/7/4
f 264/7/4 265/7/4 267/7/4
f 267/7/4 265/7/4 268/7/4
f 266/7/4 267/7/4 269/7/4
f 269/7/4 267/7/4 270/7/4
f 271/6/4 272/6/4 273/6/4
f 273/6/4 272/6/4 274/6/4
f 275/6/4 276/6/4 277/6/4
f 277/6/4 276/6/4 278/6/4
f 279/7/4 280/7/4 281/7/4
f 281/7/4 280/7/4 282/7/4
f 282/7/4 283/7/4 285/7/4
f 284/7/4 285/7/4 286/7/4
f 285/7/4 283/7/4 287/7/4
f 286/7/4 285/7/4 287/7/4
f 288/5/4 289/5/4 292/5/4
f 292/5/4 289/5/4 293/5/4
f 290/5/4 291/5/4 294/5/4
f 294/5/4 291/5/4 295/5/4
f 296/1/4 297/1/4 298/1/4
f 298/1/4 297/1/4 299/1/4
f 300/7/4 301/7/4 302/7/4
f 302/7/4 301/7/4 303/7/4
f 303/7/4 301/7/4 304/7/4
f 304/7/4 301/7/4 305/7/4
f 306/5/4 307/5/4 308/5/4
f 306/5/4 308/5/4 311/5/4
f 308/5/4 309/5/4 311/5/4
f 309/7/4 310/7/4 312/7/4
f 311/5/4 309/5/4 312/5/4
f 312/7/4 310/7/4 313/7/4
f 316/5/5 315/5/5 314/5/5
f 317/5/5 315/5/5 316/5/5
f 322/6/5 319/6/5 318/6/5
f 323/6/5 319/6/5 322/6/5
f 324/6/5 321/6/5 320/6/5
f 325/6/5 321/6/5 324/6/5
f 326/5/5 316/5/5 314/5/5
f 330/5/5 327/5/5 326/5/5
f 331/5/5 329/5/5 328/5/5
f 332/5/5 330/5/5 326/5/5
f 332/4/5 331/4/5 330/4/5
f 333/5/5 329/5/5 331/5/5
f 333/4/5 331/4/5 332/4/5
f 334/5/5 332/5/5 326/5/5
f 334/5/5 326/5/5 314/5/5
f 334/5/5 333/5/5 332/5/5
f 335/5/5 329/5/5 333/5/5
f 335/5/5 333/5/5 334/5/5
f 338/2/5 337/2/5 336/2/5
f 339/2/5 337/2/5 338/2/5
f 342/5/5 341/5/5 340/5/5
f 343/5/5 341/5/5 342/5/5
f 346/5/5 345/5/5 344/5/5
f 347/5/5 345/5/5 346/5/5
f 350/5/5 349/5/5 348/5/5
f 351/5/5 349/5/5 350/5/5
f 352/5/5 349/5/5 351/5/5
f 353/5/5 349/5/5 352/5/5
f 354/5/5 350/5/5 348/5/5
f 355/5/5 352/5/5 351/5/5
f 356/5/5 352/5/5 355/5/5
f 357/5/5 349/5/5 353/5/5
f 358/5/5 356/5/5 355/5/5
f 358/5/5 357/5/5 356/5/5
f 358/5/5 354/5/5 348/5/5
f 358/5/5 355/5/5 354/5/5
f 359/5/5 349/5/5 357/5/5
f 359/5/5 357/5/5 358/5/5
f 363/7/5 361/7/5 360/7/5
f 364/7/5 361/7/5 363/7/5
f 366/7/5 365/7/5 364/7/5
f 367/7/5 365/7/5 366/7/5
f 369/7/5 363/7/5 362/7/5
f 370/7/5 363/7/5 369/7/5
f 372/7/5 369/7/5 368/7/5
f 373/7/5 369/7/5 372/7/5
f 374/7/5 372/7/5 371/7/5
f 375/7/5 372/7/5 374/7/5
f 377/7/5 376/7/5 375/7/5
f 378/7/5 376/7/5 377/7/5
f 381/1/5 380/1/5 379/1/5
f 382/1/5 380/1/5 381/1/5
f 385/5/5 384/5/5 383/5/5
f 386/5/5 384/5/5 385/5/5
f 389/5/5 388/5/5 387/5/5
f 390/5/5 388/5/5 389/5/5
f 391/2/6 392/2/6 393/2/6
f 393/2/6 392/2/6 394/2/6
f 395/7/6 396/7/6 397/7/6
f 397/7/6 396/7/6 398/7/6
f 395/7/6 397/7/6 399/7/6
f 399/7/6 397/7/6 400/7/6
f 401/5/6 402/5/6 403/5/6
f 403/5/6 402/5/6 404/5/6
f 405/5/6 406/5/6 407/5/6
f 407/5/6 406/5/6 408/5/6
f 408/5/6 406/5/6 409/5/6
f 409/5/6 406/5/6 410/5/6
f 405/5/6 407/5/6 411/5/6
f 408/5/6 409/5/6 412/5/6
f 412/5/6 409/5/6 413/5/6
f 410/5/6 406/5/6 414/5/6
f 412/5/6 413/5/6 416/5/6
f 413/5/6 414/5/6 416/5/6
f 405/5/6 411/5/6 416/5/6
f 411/5/6 412/5/6 416/5/6
f 416/5/6 414/5/6 417/5/6
f 414/5/6 406/5/6 418/5/6
f 417/5/6 414/5/6 418/5/6
f 416/5/6 417/5/6 419/5/6
f 415/5/6 416/5/6 419/5/6
f 419/5/6 417/5/6 420/5/6
f 420/5/6 417/5/6 421/5/6
f 421/5/6 417/5/6 422/5/6
f 415/5/6 419/5/6 423/5/6
f 420/5/6 421/5/6 424/5/6
f 424/5/6 421/5/6 425/5/6
f 422/5/6 417/5/6 426/5/6
f 424/5/6 425/5/6 427/5/6
f 425/5/6 426/5/6 427/5/6
f 426/5/6 417/5/6 427/5/6
f 423/5/6 424/5/6 427/5/6
f 423/5/6 427/5/6 429/5/6
f 427/5/6 428/5/6 429/5/6
f 429/5/6 428/5/6 430/5/6
f 415/5/6 423/5/6 431/5/6
f 423/5/6 429/5/6 431/5/6
f 431/5/6 429/5/6 432/5/6
f 415/5/6 431/5/6 433/5/6
f 432/5/6 429/5/6 434/5/6
f 415/5/6 433/5/6 435/5/6
f 433/5/6 434/5/6 435/5/6
f 434/5/6 429/5/6 436/5/6
f 435/5/6 434/5/6 436/5/6
f 437/7/6 438/7/6 439/7/6
f 439/7/6 438/7/6 440/7/6
f 440/7/6 438/7/6 441/7/6
f 441/7/6 438/7/6 442/7/6
f 437/7/6 439/7/6 444/7/6
f 443/7/6 444/7/6 445/7/6
f 444/7/6 439/7/6 446/7/6
f 445/7/6 444/7/6 446/7/6
f 443/7/6 445/7/6 447/7/6
f 443/7/6 447/7/6 449/7/6
f 447/7/6 448/7/6 449/7/6
f 449/7/6 448/7/6 450/7/6
f 451/5/6 452/5/6 453/5/6
f 453/5/6 452/5/6 454/5/6
f 455/1/6 456/1/6 457/1/6
f 457/1/6 456/1/6 458/1/6
f 459/7/6 460/7/6 461/7/6
f 461/7/6 460/7/6 462/7/6
