# MagicaVoxel @ Ephtracy

# group
o 

# material
mtllib 20_House_08.mtl
usemtl palette

# normals
vn -1 0 0
vn 1 0 0
vn 0 0 1
vn 0 0 -1
vn 0 -1 0
vn 0 1 0

# texcoords
vt 0.0175781 0.5
vt 0.0214844 0.5
vt 0.705078 0.5
vt 0.865234 0.5
vt 0.896484 0.5
vt 0.958984 0.5
vt 0.962891 0.5
vt 0.978516 0.5
vt 0.982422 0.5

# verts
v 0 2 0
v 0 2 -2
v 0 2.1 0
v 0 2.1 -2
v 0 2.9 -0.5
v 0 2.9 -2
v 0 3.1 -0.5
v 0 3.1 -2
v 0 3.2 -0.5
v 0 3.2 -2
v 0 3.3 -0.5
v 0 3.3 -2
v 0.1 2.1 -0.6
v 0.1 2.1 -0.8
v 0.1 2.1 -1.7
v 0.1 2.1 -1.9
v 0.1 2.9 -0.6
v 0.1 2.9 -0.8
v 0.1 2.9 -1.7
v 0.1 2.9 -1.9
v 0.7 2.7 -0.5
v 0.7 2.7 -2
v 0.7 2.9 -0.5
v 0.7 2.9 -2
v 0.7 3.1 -0.5
v 0.7 3.1 -0.7
v 0.7 3.1 -1.1
v 0.7 3.1 -2
v 0.7 3.2 -0.5
v 0.7 3.2 -0.6
v 0.7 3.2 -1.9
v 0.7 3.2 -2
v 0.7 3.3 -0.6
v 0.7 3.3 -0.7
v 0.7 3.3 -1.1
v 0.7 3.3 -1.9
v 0.9 2.1 0
v 0.9 2.1 -0.5
v 0.9 2.1 -2
v 0.9 2.2 0
v 0.9 2.2 -0.5
v 0.9 2.2 -0.6
v 0.9 2.2 -1.9
v 0.9 2.3 0
v 0.9 2.3 -0.5
v 0.9 2.6 -0.6
v 0.9 2.6 -1.9
v 0.9 2.7 -0.5
v 0.9 2.7 -2
v 0.9 3.2 -0.8
v 0.9 3.2 -0.9
v 0.9 3.3 -0.5
v 0.9 3.3 -0.7
v 0.9 3.3 -0.8
v 0.9 3.3 -0.9
v 0.9 3.3 -1.1
v 0.9 3.3 -2
v 0.9 3.6 -0.7
v 0.9 3.6 -1.1
v 0.9 3.9 -0.5
v 0.9 3.9 -2
v 0.9 4 -0.5
v 0.9 4 -2
v 1 2.2 -0.7
v 1 2.2 -0.8
v 1 2.2 -1.7
v 1 2.2 -1.8
v 1 2.6 -0.7
v 1 2.6 -0.8
v 1 2.6 -1.7
v 1 2.6 -1.8
v 1 3.1 -0.7
v 1 3.1 -1.1
v 1 3.2 -0.8
v 1 3.2 -0.9
v 1 3.3 -0.8
v 1 3.3 -0.9
v 1 3.6 -0.7
v 1 3.6 -1.1
v 1.2 2.2 -0.6
v 1.2 2.2 -1.9
v 1.2 2.6 -0.6
v 1.2 2.6 -1.9
v 1.2 3.3 -0.6
v 1.2 3.3 -0.7
v 1.2 3.7 -0.6
v 1.2 3.7 -0.7
v 1.7 3.3 -0.6
v 1.7 3.3 -0.7
v 1.7 3.7 -0.6
v 1.7 3.7 -0.7
v 1.8 2.2 -0.5
v 1.8 2.2 -0.6
v 1.8 2.3 -0.5
v 1.8 2.3 -0.6
v 1.9 2.1 0
v 1.9 2.1 -0.5
v 1.9 2.1 -0.6
v 1.9 2.2 0
v 1.9 2.2 -0.5
v 1.9 2.2 -0.6
v 1.9 2.3 0
v 1.9 2.3 -0.5
v 1.9 2.3 -0.6
v 1.9 2.6 -0.5
v 1.9 2.6 -0.6
v 1.9 3.3 -0.5
v 1.9 3.3 -0.7
v 1.9 3.7 -0.5
v 1.9 3.7 -0.7
v 0.1 3.2 -0.6
v 0.1 3.2 -1.9
v 0.1 3.3 -0.6
v 0.1 3.3 -1.9
v 0.3 2.1 -0.6
v 0.3 2.1 -0.8
v 0.3 2.1 -1.7
v 0.3 2.1 -1.9
v 0.3 2.9 -0.6
v 0.3 2.9 -0.8
v 0.3 2.9 -1.7
v 0.3 2.9 -1.9
v 1 2.1 -0.1
v 1 2.1 -0.5
v 1 2.2 -0.1
v 1 2.2 -0.5
v 1 2.3 -0.1
v 1 2.3 -0.5
v 1.1 2.2 -0.7
v 1.1 2.2 -0.8
v 1.1 2.2 -1.7
v 1.1 2.2 -1.8
v 1.1 2.6 -0.7
v 1.1 2.6 -0.8
v 1.1 2.6 -1.7
v 1.1 2.6 -1.8
v 1.1 3.3 -0.5
v 1.1 3.3 -0.7
v 1.1 3.7 -0.5
v 1.1 3.7 -0.7
v 1.3 3.3 -0.6
v 1.3 3.3 -0.7
v 1.3 3.7 -0.6
v 1.3 3.7 -0.7
v 1.5 2.1 0
v 1.5 2.1 -0.1
v 1.5 2.1 -0.5
v 1.5 2.1 -0.6
v 1.5 2.2 0
v 1.5 2.2 -0.1
v 1.5 2.3 0
v 1.5 2.3 -0.1
v 1.5 2.6 -0.5
v 1.5 2.6 -0.6
v 1.8 3.3 -0.6
v 1.8 3.3 -0.7
v 1.8 3.7 -0.6
v 1.8 3.7 -0.7
v 2 2 0
v 2 2 -2
v 2 2.1 0
v 2 2.1 -0.5
v 2 2.2 0
v 2 2.2 -0.5
v 2 2.3 0
v 2 2.3 -0.5
v 2 3.9 -0.5
v 2 3.9 -2
v 2 4 -0.5
v 2 4 -2
v 0 2 0
v 0 2.1 0
v 0.9 2 0
v 0.9 2.1 0
v 0.9 2.2 0
v 0.9 2.3 0
v 1.5 2 0
v 1.5 2.1 0
v 1.5 2.2 0
v 1.5 2.3 0
v 1.9 2 0
v 1.9 2.1 0
v 1.9 2.2 0
v 1.9 2.3 0
v 2 2 0
v 2 2.1 0
v 2 2.2 0
v 2 2.3 0
v 0 2.9 -0.5
v 0 3.1 -0.5
v 0 3.2 -0.5
v 0 3.3 -0.5
v 0.7 2.7 -0.5
v 0.7 2.9 -0.5
v 0.7 3.1 -0.5
v 0.7 3.2 -0.5
v 0.7 3.3 -0.5
v 0.9 2.3 -0.5
v 0.9 2.7 -0.5
v 0.9 3.3 -0.5
v 0.9 3.9 -0.5
v 0.9 4 -0.5
v 1 2.1 -0.5
v 1 2.2 -0.5
v 1 2.3 -0.5
v 1.1 3.3 -0.5
v 1.1 3.7 -0.5
v 1.5 2.1 -0.5
v 1.5 2.6 -0.5
v 1.8 2.2 -0.5
v 1.8 2.3 -0.5
v 1.9 2.2 -0.5
v 1.9 2.3 -0.5
v 1.9 2.6 -0.5
v 1.9 3.3 -0.5
v 1.9 3.7 -0.5
v 2 2.3 -0.5
v 2 3.9 -0.5
v 2 4 -0.5
v 0.1 2.1 -0.6
v 0.1 2.9 -0.6
v 0.3 2.1 -0.6
v 0.3 2.9 -0.6
v 1.2 3.3 -0.6
v 1.2 3.7 -0.6
v 1.3 3.3 -0.6
v 1.3 3.7 -0.6
v 1.5 2.1 -0.6
v 1.5 2.6 -0.6
v 1.7 3.3 -0.6
v 1.7 3.7 -0.6
v 1.8 2.2 -0.6
v 1.8 2.3 -0.6
v 1.8 3.3 -0.6
v 1.8 3.7 -0.6
v 1.9 2.1 -0.6
v 1.9 2.2 -0.6
v 1.9 2.3 -0.6
v 1.9 2.6 -0.6
v 1 2.2 -0.7
v 1 2.6 -0.7
v 1.1 2.2 -0.7
v 1.1 2.6 -0.7
v 1.1 3.3 -0.7
v 1.1 3.7 -0.7
v 1.2 3.3 -0.7
v 1.2 3.7 -0.7
v 1.3 3.3 -0.7
v 1.3 3.7 -0.7
v 1.7 3.3 -0.7
v 1.7 3.7 -0.7
v 1.8 3.3 -0.7
v 1.8 3.7 -0.7
v 1.9 3.3 -0.7
v 1.9 3.7 -0.7
v 0.9 3.2 -0.8
v 0.9 3.3 -0.8
v 1 3.2 -0.8
v 1 3.3 -0.8
v 0.7 3.1 -1.1
v 0.7 3.3 -1.1
v 0.9 3.3 -1.1
v 0.9 3.6 -1.1
v 1 3.1 -1.1
v 1 3.6 -1.1
v 0.1 2.1 -1.7
v 0.1 2.9 -1.7
v 0.3 2.1 -1.7
v 0.3 2.9 -1.7
v 1 2.2 -1.7
v 1 2.6 -1.7
v 1.1 2.2 -1.7
v 1.1 2.6 -1.7
v 0.1 3.2 -1.9
v 0.1 3.3 -1.9
v 0.7 3.2 -1.9
v 0.7 3.3 -1.9
v 0.9 2.2 -1.9
v 0.9 2.6 -1.9
v 1.2 2.2 -1.9
v 1.2 2.6 -1.9
v 1 2.1 -0.1
v 1 2.2 -0.1
v 1 2.3 -0.1
v 1.5 2.1 -0.1
v 1.5 2.2 -0.1
v 1.5 2.3 -0.1
v 0.1 3.2 -0.6
v 0.1 3.3 -0.6
v 0.7 3.2 -0.6
v 0.7 3.3 -0.6
v 0.9 2.2 -0.6
v 0.9 2.6 -0.6
v 1.2 2.2 -0.6
v 1.2 2.6 -0.6
v 0.7 3.1 -0.7
v 0.7 3.3 -0.7
v 0.9 3.3 -0.7
v 0.9 3.6 -0.7
v 1 3.1 -0.7
v 1 3.6 -0.7
v 0.1 2.1 -0.8
v 0.1 2.9 -0.8
v 0.3 2.1 -0.8
v 0.3 2.9 -0.8
v 1 2.2 -0.8
v 1 2.6 -0.8
v 1.1 2.2 -0.8
v 1.1 2.6 -0.8
v 0.9 3.2 -0.9
v 0.9 3.3 -0.9
v 1 3.2 -0.9
v 1 3.3 -0.9
v 1 2.2 -1.8
v 1 2.6 -1.8
v 1.1 2.2 -1.8
v 1.1 2.6 -1.8
v 0.1 2.1 -1.9
v 0.1 2.9 -1.9
v 0.3 2.1 -1.9
v 0.3 2.9 -1.9
v 0 2 -2
v 0 2.1 -2
v 0 2.9 -2
v 0 3.1 -2
v 0 3.2 -2
v 0 3.3 -2
v 0.7 2.7 -2
v 0.7 2.9 -2
v 0.7 3.1 -2
v 0.7 3.2 -2
v 0.7 3.3 -2
v 0.9 2 -2
v 0.9 2.1 -2
v 0.9 2.7 -2
v 0.9 3.3 -2
v 0.9 3.9 -2
v 0.9 4 -2
v 2 2 -2
v 2 3.9 -2
v 2 4 -2
v 0 2 0
v 0.9 2 0
v 1.5 2 0
v 1.9 2 0
v 2 2 0
v 1 2 -0.1
v 1.5 2 -0.1
v 1 2 -0.5
v 1.5 2 -0.5
v 0.1 2 -0.6
v 0.3 2 -0.6
v 1.5 2 -0.6
v 1.9 2 -0.6
v 1.5 2 -0.7
v 1.9 2 -0.7
v 0.1 2 -0.8
v 0.3 2 -0.8
v 0.1 2 -1.7
v 0.3 2 -1.7
v 0.1 2 -1.9
v 0.3 2 -1.9
v 0 2 -2
v 0.9 2 -2
v 2 2 -2
v 1.8 2.2 -0.5
v 1.9 2.2 -0.5
v 1.8 2.2 -0.6
v 1.9 2.2 -0.6
v 1.5 2.6 -0.5
v 1.9 2.6 -0.5
v 0.9 2.6 -0.6
v 1.2 2.6 -0.6
v 1.5 2.6 -0.6
v 1.9 2.6 -0.6
v 1 2.6 -0.7
v 1.1 2.6 -0.7
v 1 2.6 -0.8
v 1.1 2.6 -0.8
v 1 2.6 -1.7
v 1.1 2.6 -1.7
v 1 2.6 -1.8
v 1.1 2.6 -1.8
v 0.9 2.6 -1.9
v 1.2 2.6 -1.9
v 0.7 2.7 -0.5
v 0.9 2.7 -0.5
v 0.7 2.7 -2
v 0.9 2.7 -2
v 0 2.9 -0.5
v 0.7 2.9 -0.5
v 0.1 2.9 -0.6
v 0.3 2.9 -0.6
v 0.1 2.9 -0.8
v 0.3 2.9 -0.8
v 0.1 2.9 -1.7
v 0.3 2.9 -1.7
v 0.1 2.9 -1.9
v 0.3 2.9 -1.9
v 0 2.9 -2
v 0.7 2.9 -2
v 0 3.2 -0.5
v 0.7 3.2 -0.5
v 0.1 3.2 -0.6
v 0.7 3.2 -0.6
v 0.9 3.2 -0.8
v 1 3.2 -0.8
v 0.9 3.2 -0.9
v 1 3.2 -0.9
v 0.1 3.2 -1.9
v 0.7 3.2 -1.9
v 0 3.2 -2
v 0.7 3.2 -2
v 0.9 3.6 -0.7
v 1 3.6 -0.7
v 0.9 3.6 -1.1
v 1 3.6 -1.1
v 1.1 3.7 -0.5
v 1.9 3.7 -0.5
v 1.2 3.7 -0.6
v 1.3 3.7 -0.6
v 1.7 3.7 -0.6
v 1.8 3.7 -0.6
v 1.1 3.7 -0.7
v 1.2 3.7 -0.7
v 1.3 3.7 -0.7
v 1.7 3.7 -0.7
v 1.8 3.7 -0.7
v 1.9 3.7 -0.7
v 0 2.1 0
v 0.9 2.1 0
v 1.5 2.1 0
v 1.9 2.1 0
v 1 2.1 -0.1
v 1.5 2.1 -0.1
v 0.9 2.1 -0.5
v 1 2.1 -0.5
v 1.5 2.1 -0.5
v 1.9 2.1 -0.5
v 0.1 2.1 -0.6
v 0.3 2.1 -0.6
v 1.5 2.1 -0.6
v 1.9 2.1 -0.6
v 0.1 2.1 -0.8
v 0.3 2.1 -0.8
v 0.1 2.1 -1.7
v 0.3 2.1 -1.7
v 0.1 2.1 -1.9
v 0.3 2.1 -1.9
v 0 2.1 -2
v 0.9 2.1 -2
v 0.9 2.2 -0.6
v 1.2 2.2 -0.6
v 1 2.2 -0.7
v 1.1 2.2 -0.7
v 1 2.2 -0.8
v 1.1 2.2 -0.8
v 1 2.2 -1.7
v 1.1 2.2 -1.7
v 1 2.2 -1.8
v 1.1 2.2 -1.8
v 0.9 2.2 -1.9
v 1.2 2.2 -1.9
v 0.9 2.3 0
v 1.5 2.3 0
v 1.9 2.3 0
v 2 2.3 0
v 1 2.3 -0.1
v 1.5 2.3 -0.1
v 0.9 2.3 -0.5
v 1 2.3 -0.5
v 1.8 2.3 -0.5
v 1.9 2.3 -0.5
v 2 2.3 -0.5
v 1.8 2.3 -0.6
v 1.9 2.3 -0.6
v 0 3.1 -0.5
v 0.7 3.1 -0.5
v 0.7 3.1 -0.7
v 1 3.1 -0.7
v 0.7 3.1 -1.1
v 1 3.1 -1.1
v 0 3.1 -2
v 0.7 3.1 -2
v 0 3.3 -0.5
v 0.7 3.3 -0.5
v 0.9 3.3 -0.5
v 1.1 3.3 -0.5
v 1.9 3.3 -0.5
v 0.1 3.3 -0.6
v 0.7 3.3 -0.6
v 1.2 3.3 -0.6
v 1.3 3.3 -0.6
v 1.7 3.3 -0.6
v 1.8 3.3 -0.6
v 0.7 3.3 -0.7
v 0.9 3.3 -0.7
v 1.1 3.3 -0.7
v 1.2 3.3 -0.7
v 1.3 3.3 -0.7
v 1.7 3.3 -0.7
v 1.8 3.3 -0.7
v 1.9 3.3 -0.7
v 0.9 3.3 -0.8
v 1 3.3 -0.8
v 0.9 3.3 -0.9
v 1 3.3 -0.9
v 0.7 3.3 -1.1
v 0.9 3.3 -1.1
v 0.1 3.3 -1.9
v 0.7 3.3 -1.9
v 0 3.3 -2
v 0.7 3.3 -2
v 0.9 3.3 -2
v 0.9 4 -0.5
v 2 4 -0.5
v 0.9 4 -2
v 2 4 -2

# faces
f 3/5/1 2/5/1 1/5/1
f 4/5/1 2/5/1 3/5/1
f 7/6/1 6/6/1 5/6/1
f 8/6/1 6/6/1 7/6/1
f 11/9/1 10/9/1 9/9/1
f 12/9/1 10/9/1 11/9/1
f 17/9/1 14/9/1 13/9/1
f 18/9/1 14/9/1 17/9/1
f 19/9/1 16/9/1 15/9/1
f 20/9/1 16/9/1 19/9/1
f 23/6/1 22/6/1 21/6/1
f 24/6/1 22/6/1 23/6/1
f 29/6/1 26/6/1 25/6/1
f 30/6/1 26/6/1 29/6/1
f 31/6/1 28/6/1 27/6/1
f 32/6/1 28/6/1 31/6/1
f 33/6/1 26/6/1 30/6/1
f 34/6/1 26/6/1 33/6/1
f 35/6/1 31/6/1 27/6/1
f 36/6/1 31/6/1 35/6/1
f 40/7/1 38/7/1 37/7/1
f 41/6/1 39/6/1 38/6/1
f 41/7/1 38/7/1 40/7/1
f 42/6/1 39/6/1 41/6/1
f 43/6/1 39/6/1 42/6/1
f 44/9/1 41/9/1 40/9/1
f 45/6/1 42/6/1 41/6/1
f 45/9/1 41/9/1 44/9/1
f 46/6/1 42/6/1 45/6/1
f 47/6/1 39/6/1 43/6/1
f 48/6/1 46/6/1 45/6/1
f 48/6/1 47/6/1 46/6/1
f 49/6/1 39/6/1 47/6/1
f 49/6/1 47/6/1 48/6/1
f 54/2/1 51/2/1 50/2/1
f 55/2/1 51/2/1 54/2/1
f 58/6/1 53/6/1 52/6/1
f 59/6/1 57/6/1 56/6/1
f 60/6/1 58/6/1 52/6/1
f 60/6/1 59/6/1 58/6/1
f 61/6/1 57/6/1 59/6/1
f 61/6/1 59/6/1 60/6/1
f 62/8/1 61/8/1 60/8/1
f 63/8/1 61/8/1 62/8/1
f 68/9/1 65/9/1 64/9/1
f 69/9/1 65/9/1 68/9/1
f 70/9/1 67/9/1 66/9/1
f 71/9/1 67/9/1 70/9/1
f 74/4/1 73/4/1 72/4/1
f 75/4/1 73/4/1 74/4/1
f 76/4/1 74/4/1 72/4/1
f 77/4/1 73/4/1 75/4/1
f 78/4/1 76/4/1 72/4/1
f 78/4/1 77/4/1 76/4/1
f 79/4/1 73/4/1 77/4/1
f 79/4/1 77/4/1 78/4/1
f 82/3/1 81/3/1 80/3/1
f 83/3/1 81/3/1 82/3/1
f 86/6/1 85/6/1 84/6/1
f 87/6/1 85/6/1 86/6/1
f 90/6/1 89/6/1 88/6/1
f 91/6/1 89/6/1 90/6/1
f 94/1/1 93/1/1 92/1/1
f 95/1/1 93/1/1 94/1/1
f 99/7/1 97/7/1 96/7/1
f 100/6/1 98/6/1 97/6/1
f 100/7/1 97/7/1 99/7/1
f 101/6/1 98/6/1 100/6/1
f 102/9/1 100/9/1 99/9/1
f 103/9/1 100/9/1 102/9/1
f 105/6/1 104/6/1 103/6/1
f 106/6/1 104/6/1 105/6/1
f 109/6/1 108/6/1 107/6/1
f 110/6/1 108/6/1 109/6/1
f 111/9/2 112/9/2 113/9/2
f 113/9/2 112/9/2 114/9/2
f 115/9/2 116/9/2 119/9/2
f 119/9/2 116/9/2 120/9/2
f 117/9/2 118/9/2 121/9/2
f 121/9/2 118/9/2 122/9/2
f 123/7/2 124/7/2 125/7/2
f 125/7/2 124/7/2 126/7/2
f 125/9/2 126/9/2 127/9/2
f 127/9/2 126/9/2 128/9/2
f 129/9/2 130/9/2 133/9/2
f 133/9/2 130/9/2 134/9/2
f 131/9/2 132/9/2 135/9/2
f 135/9/2 132/9/2 136/9/2
f 137/6/2 138/6/2 139/6/2
f 139/6/2 138/6/2 140/6/2
f 141/6/2 142/6/2 143/6/2
f 143/6/2 142/6/2 144/6/2
f 145/7/2 146/7/2 149/7/2
f 149/7/2 146/7/2 150/7/2
f 149/9/2 150/9/2 151/9/2
f 151/9/2 150/9/2 152/9/2
f 147/6/2 148/6/2 153/6/2
f 153/6/2 148/6/2 154/6/2
f 155/6/2 156/6/2 157/6/2
f 157/6/2 156/6/2 158/6/2
f 159/6/2 160/6/2 161/6/2
f 161/6/2 160/6/2 162/6/2
f 161/7/2 162/7/2 163/7/2
f 162/6/2 160/6/2 164/6/2
f 163/7/2 162/7/2 164/7/2
f 163/9/2 164/9/2 165/9/2
f 164/6/2 160/6/2 166/6/2
f 165/9/2 164/9/2 166/9/2
f 166/6/2 160/6/2 167/6/2
f 167/6/2 160/6/2 168/6/2
f 167/8/2 168/8/2 169/8/2
f 169/8/2 168/8/2 170/8/2
f 173/5/3 172/5/3 171/5/3
f 174/5/3 172/5/3 173/5/3
f 177/6/3 174/6/3 173/6/3
f 178/7/3 175/7/3 174/7/3
f 178/6/3 174/6/3 177/6/3
f 179/9/3 176/9/3 175/9/3
f 179/7/3 175/7/3 178/7/3
f 180/9/3 176/9/3 179/9/3
f 181/5/3 178/5/3 177/5/3
f 182/5/3 178/5/3 181/5/3
f 185/6/3 182/6/3 181/6/3
f 186/7/3 183/7/3 182/7/3
f 186/6/3 182/6/3 185/6/3
f 187/9/3 184/9/3 183/9/3
f 187/7/3 183/7/3 186/7/3
f 188/9/3 184/9/3 187/9/3
f 194/6/3 190/6/3 189/6/3
f 195/6/3 190/6/3 194/6/3
f 196/9/3 192/9/3 191/9/3
f 197/9/3 192/9/3 196/9/3
f 199/6/3 195/6/3 194/6/3
f 199/6/3 194/6/3 193/6/3
f 199/6/3 197/6/3 196/6/3
f 199/6/3 196/6/3 195/6/3
f 200/6/3 197/6/3 199/6/3
f 205/6/3 200/6/3 199/6/3
f 205/6/3 199/6/3 198/6/3
f 205/6/3 201/6/3 200/6/3
f 206/6/3 204/6/3 203/6/3
f 206/6/3 205/6/3 204/6/3
f 206/6/3 201/6/3 205/6/3
f 207/6/3 201/6/3 206/6/3
f 208/6/3 206/6/3 203/6/3
f 209/6/3 206/6/3 208/6/3
f 212/1/3 211/1/3 210/1/3
f 213/1/3 211/1/3 212/1/3
f 214/6/3 206/6/3 209/6/3
f 215/6/3 206/6/3 214/6/3
f 216/6/3 201/6/3 207/6/3
f 217/6/3 215/6/3 214/6/3
f 217/6/3 216/6/3 215/6/3
f 217/6/3 214/6/3 213/6/3
f 218/8/3 202/8/3 201/8/3
f 218/6/3 216/6/3 217/6/3
f 218/6/3 201/6/3 216/6/3
f 219/8/3 202/8/3 218/8/3
f 222/9/3 221/9/3 220/9/3
f 223/9/3 221/9/3 222/9/3
f 226/6/3 225/6/3 224/6/3
f 227/6/3 225/6/3 226/6/3
f 232/4/3 229/4/3 228/4/3
f 233/4/3 229/4/3 232/4/3
f 234/6/3 231/6/3 230/6/3
f 235/6/3 231/6/3 234/6/3
f 236/4/3 232/4/3 228/4/3
f 237/4/3 232/4/3 236/4/3
f 238/4/3 229/4/3 233/4/3
f 239/4/3 229/4/3 238/4/3
f 242/9/3 241/9/3 240/9/3
f 243/9/3 241/9/3 242/9/3
f 246/3/3 245/3/3 244/3/3
f 247/3/3 245/3/3 246/3/3
f 250/3/3 249/3/3 248/3/3
f 251/3/3 249/3/3 250/3/3
f 254/3/3 253/3/3 252/3/3
f 255/3/3 253/3/3 254/3/3
f 258/2/3 257/2/3 256/2/3
f 259/2/3 257/2/3 258/2/3
f 262/6/3 261/6/3 260/6/3
f 264/6/3 262/6/3 260/6/3
f 264/6/3 263/6/3 262/6/3
f 265/6/3 263/6/3 264/6/3
f 268/9/3 267/9/3 266/9/3
f 269/9/3 267/9/3 268/9/3
f 272/9/3 271/9/3 270/9/3
f 273/9/3 271/9/3 272/9/3
f 276/9/3 275/9/3 274/9/3
f 277/9/3 275/9/3 276/9/3
f 280/6/3 279/6/3 278/6/3
f 281/6/3 279/6/3 280/6/3
f 282/7/4 283/7/4 285/7/4
f 283/9/4 284/9/4 286/9/4
f 285/7/4 283/7/4 286/7/4
f 286/9/4 284/9/4 287/9/4
f 288/9/4 289/9/4 290/9/4
f 290/9/4 289/9/4 291/9/4
f 292/6/4 293/6/4 294/6/4
f 294/6/4 293/6/4 295/6/4
f 296/6/4 297/6/4 298/6/4
f 296/6/4 298/6/4 300/6/4
f 298/6/4 299/6/4 300/6/4
f 300/6/4 299/6/4 301/6/4
f 302/9/4 303/9/4 304/9/4
f 304/9/4 303/9/4 305/9/4
f 306/9/4 307/9/4 308/9/4
f 308/9/4 307/9/4 309/9/4
f 310/2/4 311/2/4 312/2/4
f 312/2/4 311/2/4 313/2/4
f 314/9/4 315/9/4 316/9/4
f 316/9/4 315/9/4 317/9/4
f 318/9/4 319/9/4 320/9/4
f 320/9/4 319/9/4 321/9/4
f 324/6/4 325/6/4 329/6/4
f 329/6/4 325/6/4 330/6/4
f 326/9/4 327/9/4 331/9/4
f 331/9/4 327/9/4 332/9/4
f 322/5/4 323/5/4 333/5/4
f 333/5/4 323/5/4 334/5/4
f 329/6/4 330/6/4 335/6/4
f 328/6/4 329/6/4 335/6/4
f 330/6/4 331/6/4 335/6/4
f 331/6/4 332/6/4 335/6/4
f 335/6/4 332/6/4 336/6/4
f 335/6/4 336/6/4 339/6/4
f 333/6/4 334/6/4 339/6/4
f 336/6/4 337/6/4 339/6/4
f 334/6/4 335/6/4 339/6/4
f 337/8/4 338/8/4 340/8/4
f 339/6/4 337/6/4 340/6/4
f 340/8/4 338/8/4 341/8/4
f 347/6/5 344/6/5 343/6/5
f 348/5/5 345/5/5 344/5/5
f 348/6/5 344/6/5 347/6/5
f 349/6/5 347/6/5 343/6/5
f 349/5/5 348/5/5 347/5/5
f 350/5/5 345/5/5 348/5/5
f 350/5/5 348/5/5 349/5/5
f 351/5/5 343/5/5 342/5/5
f 352/5/5 343/5/5 351/5/5
f 353/5/5 345/5/5 350/5/5
f 353/6/5 350/6/5 349/6/5
f 354/6/5 346/6/5 345/6/5
f 354/5/5 345/5/5 353/5/5
f 355/6/5 353/6/5 349/6/5
f 355/4/5 354/4/5 353/4/5
f 356/6/5 346/6/5 354/6/5
f 356/4/5 354/4/5 355/4/5
f 357/6/5 352/6/5 351/6/5
f 357/5/5 351/5/5 342/5/5
f 358/5/5 343/5/5 352/5/5
f 358/6/5 352/6/5 357/6/5
f 359/5/5 357/5/5 342/5/5
f 359/5/5 358/5/5 357/5/5
f 360/5/5 343/5/5 358/5/5
f 360/5/5 358/5/5 359/5/5
f 361/5/5 359/5/5 342/5/5
f 361/6/5 360/6/5 359/6/5
f 362/5/5 343/5/5 360/5/5
f 362/6/5 360/6/5 361/6/5
f 363/5/5 361/5/5 342/5/5
f 363/5/5 362/5/5 361/5/5
f 364/5/5 343/5/5 362/5/5
f 364/5/5 362/5/5 363/5/5
f 364/6/5 355/6/5 349/6/5
f 364/6/5 356/6/5 355/6/5
f 364/6/5 349/6/5 343/6/5
f 365/6/5 346/6/5 356/6/5
f 365/6/5 356/6/5 364/6/5
f 368/1/5 367/1/5 366/1/5
f 369/1/5 367/1/5 368/1/5
f 374/6/5 371/6/5 370/6/5
f 375/6/5 371/6/5 374/6/5
f 376/6/5 373/6/5 372/6/5
f 377/6/5 373/6/5 376/6/5
f 378/6/5 376/6/5 372/6/5
f 379/6/5 373/6/5 377/6/5
f 380/6/5 378/6/5 372/6/5
f 380/6/5 379/6/5 378/6/5
f 381/6/5 373/6/5 379/6/5
f 381/6/5 379/6/5 380/6/5
f 382/6/5 380/6/5 372/6/5
f 383/6/5 373/6/5 381/6/5
f 384/6/5 382/6/5 372/6/5
f 384/6/5 383/6/5 382/6/5
f 385/6/5 373/6/5 383/6/5
f 385/6/5 383/6/5 384/6/5
f 388/6/5 387/6/5 386/6/5
f 389/6/5 387/6/5 388/6/5
f 392/6/5 391/6/5 390/6/5
f 393/6/5 391/6/5 392/6/5
f 394/6/5 392/6/5 390/6/5
f 395/6/5 391/6/5 393/6/5
f 396/6/5 394/6/5 390/6/5
f 396/6/5 395/6/5 394/6/5
f 397/6/5 391/6/5 395/6/5
f 397/6/5 395/6/5 396/6/5
f 398/6/5 396/6/5 390/6/5
f 399/6/5 391/6/5 397/6/5
f 400/6/5 398/6/5 390/6/5
f 400/6/5 399/6/5 398/6/5
f 401/6/5 391/6/5 399/6/5
f 401/6/5 399/6/5 400/6/5
f 404/9/5 403/9/5 402/9/5
f 405/9/5 403/9/5 404/9/5
f 408/2/5 407/2/5 406/2/5
f 409/2/5 407/2/5 408/2/5
f 410/9/5 404/9/5 402/9/5
f 412/9/5 410/9/5 402/9/5
f 412/9/5 411/9/5 410/9/5
f 413/9/5 411/9/5 412/9/5
f 416/6/5 415/6/5 414/6/5
f 417/6/5 415/6/5 416/6/5
f 420/6/5 419/6/5 418/6/5
f 421/6/5 419/6/5 420/6/5
f 422/6/5 419/6/5 421/6/5
f 423/6/5 419/6/5 422/6/5
f 424/6/5 420/6/5 418/6/5
f 425/6/5 420/6/5 424/6/5
f 426/6/5 422/6/5 421/6/5
f 427/6/5 422/6/5 426/6/5
f 428/6/5 419/6/5 423/6/5
f 429/6/5 419/6/5 428/6/5
f 432/5/6 433/5/6 435/5/6
f 430/5/6 431/5/6 436/5/6
f 434/5/6 435/5/6 437/5/6
f 435/5/6 433/5/6 438/5/6
f 437/5/6 435/5/6 438/5/6
f 438/5/6 433/5/6 439/5/6
f 430/5/6 436/5/6 440/5/6
f 440/5/6 436/5/6 441/5/6
f 438/5/6 439/5/6 442/5/6
f 442/5/6 439/5/6 443/5/6
f 430/5/6 440/5/6 444/5/6
f 441/5/6 436/5/6 445/5/6
f 430/5/6 444/5/6 446/5/6
f 444/5/6 445/5/6 446/5/6
f 445/5/6 436/5/6 447/5/6
f 446/5/6 445/5/6 447/5/6
f 430/5/6 446/5/6 448/5/6
f 447/5/6 436/5/6 449/5/6
f 430/5/6 448/5/6 450/5/6
f 448/5/6 449/5/6 450/5/6
f 449/5/6 436/5/6 451/5/6
f 450/5/6 449/5/6 451/5/6
f 452/6/6 453/6/6 454/6/6
f 454/6/6 453/6/6 455/6/6
f 452/6/6 454/6/6 456/6/6
f 455/6/6 453/6/6 457/6/6
f 452/6/6 456/6/6 458/6/6
f 456/6/6 457/6/6 458/6/6
f 457/6/6 453/6/6 459/6/6
f 458/6/6 457/6/6 459/6/6
f 452/6/6 458/6/6 460/6/6
f 459/6/6 453/6/6 461/6/6
f 452/6/6 460/6/6 462/6/6
f 460/6/6 461/6/6 462/6/6
f 461/6/6 453/6/6 463/6/6
f 462/6/6 461/6/6 463/6/6
f 464/9/6 465/9/6 468/9/6
f 468/9/6 465/9/6 469/9/6
f 464/9/6 468/9/6 470/9/6
f 470/9/6 468/9/6 471/9/6
f 466/9/6 467/9/6 473/9/6
f 473/9/6 467/9/6 474/9/6
f 472/1/6 473/1/6 475/1/6
f 475/1/6 473/1/6 476/1/6
f 477/6/6 478/6/6 479/6/6
f 477/6/6 479/6/6 481/6/6
f 479/6/6 480/6/6 481/6/6
f 481/6/6 480/6/6 482/6/6
f 477/6/6 481/6/6 483/6/6
f 483/6/6 481/6/6 484/6/6
f 485/9/6 486/9/6 490/9/6
f 486/6/6 487/6/6 491/6/6
f 490/9/6 486/9/6 491/9/6
f 488/6/6 489/6/6 492/6/6
f 492/6/6 489/6/6 493/6/6
f 493/6/6 489/6/6 494/6/6
f 494/6/6 489/6/6 495/6/6
f 491/6/6 487/6/6 496/6/6
f 496/6/6 487/6/6 497/6/6
f 488/6/6 492/6/6 498/6/6
f 498/6/6 492/6/6 499/6/6
f 493/6/6 494/6/6 500/6/6
f 500/6/6 494/6/6 501/6/6
f 495/6/6 489/6/6 502/6/6
f 502/6/6 489/6/6 503/6/6
f 504/2/6 505/2/6 506/2/6
f 506/2/6 505/2/6 507/2/6
f 485/9/6 490/9/6 510/9/6
f 508/6/6 509/6/6 511/6/6
f 485/9/6 510/9/6 512/9/6
f 510/9/6 511/9/6 512/9/6
f 511/6/6 509/6/6 513/6/6
f 512/9/6 511/9/6 513/9/6
f 513/6/6 509/6/6 514/6/6
f 515/8/6 516/8/6 517/8/6
f 517/8/6 516/8/6 518/8/6
