# MagicaVoxel @ Ephtracy

# group
o 

# material
mtllib 20_House_05.mtl
usemtl palette

# normals
vn -1 0 0
vn 1 0 0
vn 0 0 1
vn 0 0 -1
vn 0 -1 0
vn 0 1 0

# texcoords
vt 0.0214844 0.5
vt 0.373047 0.5
vt 0.705078 0.5
vt 0.857422 0.5
vt 0.896484 0.5
vt 0.962891 0.5
vt 0.978516 0.5
vt 0.982422 0.5
vt 0.990234 0.5

# verts
v 0 2 0
v 0 2 -2
v 0 2.1 0
v 0 2.1 -0.8
v 0 2.2 0
v 0 2.2 -0.8
v 0 2.9 -0.7
v 0 2.9 -0.8
v 0 3 -0.6
v 0 3 -0.7
v 0 3.8 -0.6
v 0 3.8 -0.9
v 0 3.9 -0.6
v 0 3.9 -0.9
v 0 3.9 -2
v 0 4 -0.9
v 0 4 -2
v 0.1 3.2 -0.5
v 0.1 3.2 -0.6
v 0.1 3.6 -0.5
v 0.1 3.6 -0.6
v 0.1 3.7 -0.5
v 0.1 3.7 -0.6
v 0.5 2.1 -0.9
v 0.5 2.1 -1
v 0.5 2.7 -0.9
v 0.5 2.7 -1
v 0.8 3.3 -0.5
v 0.8 3.3 -0.6
v 0.8 3.6 -0.5
v 0.8 3.6 -0.6
v 0.9 2.1 -0.8
v 0.9 2.1 -0.9
v 0.9 2.7 -0.8
v 0.9 2.7 -0.9
v 1 2.6 -0.7
v 1 2.6 -0.8
v 1 2.7 -0.7
v 1 2.7 -0.8
v 1 3.2 -0.5
v 1 3.2 -0.6
v 1 3.6 -0.5
v 1 3.6 -0.6
v 1.3 2.2 -0.7
v 1.3 2.2 -0.8
v 1.3 2.3 -0.7
v 1.3 2.3 -0.8
v 1.4 2.1 -0.6
v 1.4 2.1 -0.8
v 1.4 2.2 -0.7
v 1.4 2.2 -0.8
v 1.4 2.3 -0.7
v 1.4 2.3 -0.8
v 1.4 2.6 -0.7
v 1.4 2.6 -0.8
v 1.4 2.7 -0.7
v 1.4 2.7 -0.8
v 1.4 2.9 -0.7
v 1.4 2.9 -0.8
v 1.4 3 -0.6
v 1.4 3 -0.7
v 1.5 2.2 -0.5
v 1.5 2.2 -0.6
v 1.5 2.6 -0.5
v 1.5 2.6 -0.6
v 1.8 2.3 -0.5
v 1.8 2.3 -0.6
v 1.8 2.5 -0.5
v 1.8 2.5 -0.6
v 1.8 3.3 -0.5
v 1.8 3.3 -0.6
v 1.8 3.6 -0.5
v 1.8 3.6 -0.6
v 0.1 2.1 -0.1
v 0.1 2.1 -0.5
v 0.1 2.1 -0.8
v 0.1 2.2 -0.1
v 0.1 2.2 -0.8
v 0.2 2.1 -0.8
v 0.2 2.1 -1
v 0.2 2.7 -0.8
v 0.2 2.7 -1
v 0.2 3.3 -0.5
v 0.2 3.3 -0.6
v 0.2 3.6 -0.5
v 0.2 3.6 -0.6
v 0.8 2.1 0
v 0.8 2.1 -0.1
v 0.8 2.2 0
v 0.8 2.2 -0.1
v 0.9 3.2 -0.5
v 0.9 3.2 -0.6
v 0.9 3.6 -0.5
v 0.9 3.6 -0.6
v 1.1 3.3 -0.5
v 1.1 3.3 -0.6
v 1.1 3.6 -0.5
v 1.1 3.6 -0.6
v 1.6 2.3 -0.5
v 1.6 2.3 -0.6
v 1.6 2.5 -0.5
v 1.6 2.5 -0.6
v 1.9 2.2 -0.5
v 1.9 2.2 -0.6
v 1.9 2.6 -0.5
v 1.9 2.6 -0.6
v 1.9 3.2 -0.5
v 1.9 3.2 -0.6
v 1.9 3.6 -0.5
v 1.9 3.6 -0.6
v 1.9 3.7 -0.5
v 1.9 3.7 -0.6
v 2 2 0
v 2 2 -0.6
v 2 2 -2
v 2 2.1 0
v 2 2.1 -0.6
v 2 3.8 -0.6
v 2 3.8 -0.9
v 2 3.9 -0.6
v 2 3.9 -0.9
v 2 3.9 -2
v 2 4 -0.9
v 2 4 -2
v 0 2 0
v 0 2.1 0
v 0 2.2 0
v 0.8 2 0
v 0.8 2.1 0
v 0.8 2.2 0
v 2 2 0
v 2 2.1 0
v 0.1 3.2 -0.5
v 0.1 3.6 -0.5
v 0.1 3.7 -0.5
v 0.2 3.3 -0.5
v 0.2 3.6 -0.5
v 0.8 3.3 -0.5
v 0.8 3.6 -0.5
v 0.9 3.2 -0.5
v 0.9 3.6 -0.5
v 1 3.2 -0.5
v 1 3.6 -0.5
v 1.1 3.3 -0.5
v 1.1 3.6 -0.5
v 1.5 2.2 -0.5
v 1.5 2.6 -0.5
v 1.6 2.3 -0.5
v 1.6 2.5 -0.5
v 1.8 2.3 -0.5
v 1.8 2.5 -0.5
v 1.8 3.3 -0.5
v 1.8 3.6 -0.5
v 1.9 2.2 -0.5
v 1.9 2.6 -0.5
v 1.9 3.2 -0.5
v 1.9 3.6 -0.5
v 1.9 3.7 -0.5
v 0 3 -0.6
v 0 3.8 -0.6
v 0 3.9 -0.6
v 0.1 3.2 -0.6
v 0.1 3.6 -0.6
v 0.1 3.7 -0.6
v 0.2 3.3 -0.6
v 0.2 3.6 -0.6
v 0.8 3.3 -0.6
v 0.8 3.6 -0.6
v 0.9 3.2 -0.6
v 0.9 3.6 -0.6
v 1 3.2 -0.6
v 1 3.6 -0.6
v 1.1 3.3 -0.6
v 1.1 3.6 -0.6
v 1.4 2.1 -0.6
v 1.4 3 -0.6
v 1.5 2.2 -0.6
v 1.5 2.6 -0.6
v 1.6 2.3 -0.6
v 1.6 2.5 -0.6
v 1.8 2.3 -0.6
v 1.8 2.5 -0.6
v 1.8 3.3 -0.6
v 1.8 3.6 -0.6
v 1.9 2.2 -0.6
v 1.9 2.6 -0.6
v 1.9 3.2 -0.6
v 1.9 3.6 -0.6
v 1.9 3.7 -0.6
v 2 2.1 -0.6
v 2 3.8 -0.6
v 2 3.9 -0.6
v 0 2.9 -0.7
v 0 3 -0.7
v 1 2.6 -0.7
v 1 2.7 -0.7
v 1.3 2.2 -0.7
v 1.3 2.3 -0.7
v 1.4 2.2 -0.7
v 1.4 2.3 -0.7
v 1.4 2.6 -0.7
v 1.4 2.7 -0.7
v 1.4 2.9 -0.7
v 1.4 3 -0.7
v 0 2.2 -0.8
v 0 2.9 -0.8
v 0.1 2.1 -0.8
v 0.1 2.2 -0.8
v 0.2 2.1 -0.8
v 0.2 2.7 -0.8
v 0.9 2.1 -0.8
v 0.9 2.7 -0.8
v 1 2.1 -0.8
v 1 2.6 -0.8
v 1 2.7 -0.8
v 1.3 2.2 -0.8
v 1.3 2.3 -0.8
v 1.4 2.1 -0.8
v 1.4 2.2 -0.8
v 1.4 2.3 -0.8
v 1.4 2.6 -0.8
v 1.4 2.7 -0.8
v 1.4 2.9 -0.8
v 0 3.9 -0.9
v 0 4 -0.9
v 0.5 2.1 -0.9
v 0.5 2.7 -0.9
v 0.6 2.1 -0.9
v 0.6 2.7 -0.9
v 0.9 2.1 -0.9
v 0.9 2.7 -0.9
v 2 3.9 -0.9
v 2 4 -0.9
v 0.2 2.1 -1
v 0.2 2.7 -1
v 0.5 2.1 -1
v 0.5 2.7 -1
v 0.1 2.1 -0.1
v 0.1 2.2 -0.1
v 0.8 2.1 -0.1
v 0.8 2.2 -0.1
v 0 2 -2
v 0 3.9 -2
v 0 4 -2
v 2 2 -2
v 2 3.9 -2
v 2 4 -2
v 0 2 0
v 0.8 2 0
v 2 2 0
v 0.1 2 -0.1
v 0.8 2 -0.1
v 0.1 2 -0.5
v 1 2 -0.5
v 1.4 2 -0.6
v 2 2 -0.6
v 0.1 2 -0.8
v 1 2 -0.8
v 1.4 2 -0.8
v 1 2 -0.9
v 1.4 2 -0.9
v 0 2 -2
v 2 2 -2
v 1.5 2.2 -0.5
v 1.9 2.2 -0.5
v 1.5 2.2 -0.6
v 1.9 2.2 -0.6
v 1.3 2.2 -0.7
v 1.4 2.2 -0.7
v 1.3 2.2 -0.8
v 1.4 2.2 -0.8
v 1.6 2.5 -0.5
v 1.8 2.5 -0.5
v 1.6 2.5 -0.6
v 1.8 2.5 -0.6
v 1 2.6 -0.7
v 1.4 2.6 -0.7
v 1 2.6 -0.8
v 1.4 2.6 -0.8
v 0.2 2.7 -0.8
v 0.9 2.7 -0.8
v 0.5 2.7 -0.9
v 0.6 2.7 -0.9
v 0.9 2.7 -0.9
v 0.2 2.7 -1
v 0.5 2.7 -1
v 0 2.9 -0.7
v 1.4 2.9 -0.7
v 0 2.9 -0.8
v 1.4 2.9 -0.8
v 0 3 -0.6
v 1.4 3 -0.6
v 0 3 -0.7
v 1.4 3 -0.7
v 0.1 3.2 -0.5
v 0.9 3.2 -0.5
v 1 3.2 -0.5
v 1.9 3.2 -0.5
v 0.1 3.2 -0.6
v 0.9 3.2 -0.6
v 1 3.2 -0.6
v 1.9 3.2 -0.6
v 0.2 3.6 -0.5
v 0.8 3.6 -0.5
v 0.9 3.6 -0.5
v 1 3.6 -0.5
v 1.1 3.6 -0.5
v 1.8 3.6 -0.5
v 0.2 3.6 -0.6
v 0.8 3.6 -0.6
v 0.9 3.6 -0.6
v 1 3.6 -0.6
v 1.1 3.6 -0.6
v 1.8 3.6 -0.6
v 0.8 2.1 0
v 2 2.1 0
v 0.1 2.1 -0.1
v 0.8 2.1 -0.1
v 0.1 2.1 -0.5
v 1 2.1 -0.5
v 1.4 2.1 -0.6
v 2 2.1 -0.6
v 0.1 2.1 -0.8
v 0.2 2.1 -0.8
v 0.9 2.1 -0.8
v 1 2.1 -0.8
v 1.4 2.1 -0.8
v 0.5 2.1 -0.9
v 0.6 2.1 -0.9
v 0.9 2.1 -0.9
v 0.2 2.1 -1
v 0.5 2.1 -1
v 0 2.2 0
v 0.8 2.2 0
v 0.1 2.2 -0.1
v 0.8 2.2 -0.1
v 0 2.2 -0.8
v 0.1 2.2 -0.8
v 1.6 2.3 -0.5
v 1.8 2.3 -0.5
v 1.6 2.3 -0.6
v 1.8 2.3 -0.6
v 1.3 2.3 -0.7
v 1.4 2.3 -0.7
v 1.3 2.3 -0.8
v 1.4 2.3 -0.8
v 1.5 2.6 -0.5
v 1.9 2.6 -0.5
v 1.5 2.6 -0.6
v 1.9 2.6 -0.6
v 1 2.7 -0.7
v 1.4 2.7 -0.7
v 1 2.7 -0.8
v 1.4 2.7 -0.8
v 0.2 3.3 -0.5
v 0.8 3.3 -0.5
v 1.1 3.3 -0.5
v 1.8 3.3 -0.5
v 0.2 3.3 -0.6
v 0.8 3.3 -0.6
v 1.1 3.3 -0.6
v 1.8 3.3 -0.6
v 0.1 3.7 -0.5
v 1.9 3.7 -0.5
v 0.1 3.7 -0.6
v 1.9 3.7 -0.6
v 0 3.9 -0.6
v 2 3.9 -0.6
v 0 3.9 -0.9
v 2 3.9 -0.9
v 0 4 -0.9
v 2 4 -0.9
v 0 4 -2
v 2 4 -2

# faces
f 3/6/1 2/6/1 1/6/1
f 4/6/1 2/6/1 3/6/1
f 5/7/1 4/7/1 3/7/1
f 6/6/1 2/6/1 4/6/1
f 6/7/1 4/7/1 5/7/1
f 8/6/1 2/6/1 6/6/1
f 10/6/1 8/6/1 7/6/1
f 11/6/1 10/6/1 9/6/1
f 12/6/1 2/6/1 8/6/1
f 12/6/1 10/6/1 11/6/1
f 12/6/1 8/6/1 10/6/1
f 13/7/1 12/7/1 11/7/1
f 14/6/1 2/6/1 12/6/1
f 14/7/1 12/7/1 13/7/1
f 15/6/1 2/6/1 14/6/1
f 16/7/1 15/7/1 14/7/1
f 17/7/1 15/7/1 16/7/1
f 20/9/1 19/9/1 18/9/1
f 21/9/1 19/9/1 20/9/1
f 22/2/1 21/2/1 20/2/1
f 23/2/1 21/2/1 22/2/1
f 26/8/1 25/8/1 24/8/1
f 27/8/1 25/8/1 26/8/1
f 30/9/1 29/9/1 28/9/1
f 31/9/1 29/9/1 30/9/1
f 34/6/1 33/6/1 32/6/1
f 35/6/1 33/6/1 34/6/1
f 38/6/1 37/6/1 36/6/1
f 39/6/1 37/6/1 38/6/1
f 42/9/1 41/9/1 40/9/1
f 43/9/1 41/9/1 42/9/1
f 46/1/1 45/1/1 44/1/1
f 47/1/1 45/1/1 46/1/1
f 50/6/1 49/6/1 48/6/1
f 51/6/1 49/6/1 50/6/1
f 52/6/1 50/6/1 48/6/1
f 54/6/1 52/6/1 48/6/1
f 54/6/1 53/6/1 52/6/1
f 55/6/1 53/6/1 54/6/1
f 56/6/1 54/6/1 48/6/1
f 58/6/1 56/6/1 48/6/1
f 58/6/1 57/6/1 56/6/1
f 59/6/1 57/6/1 58/6/1
f 60/6/1 58/6/1 48/6/1
f 61/6/1 58/6/1 60/6/1
f 64/9/1 63/9/1 62/9/1
f 65/9/1 63/9/1 64/9/1
f 68/9/1 67/9/1 66/9/1
f 69/9/1 67/9/1 68/9/1
f 72/9/1 71/9/1 70/9/1
f 73/9/1 71/9/1 72/9/1
f 74/7/2 75/7/2 77/7/2
f 75/7/2 76/7/2 77/7/2
f 77/7/2 76/7/2 78/7/2
f 79/6/2 80/6/2 81/6/2
f 81/6/2 80/6/2 82/6/2
f 83/9/2 84/9/2 85/9/2
f 85/9/2 84/9/2 86/9/2
f 87/7/2 88/7/2 89/7/2
f 89/7/2 88/7/2 90/7/2
f 91/9/2 92/9/2 93/9/2
f 93/9/2 92/9/2 94/9/2
f 95/9/2 96/9/2 97/9/2
f 97/9/2 96/9/2 98/9/2
f 99/9/2 100/9/2 101/9/2
f 101/9/2 100/9/2 102/9/2
f 103/9/2 104/9/2 105/9/2
f 105/9/2 104/9/2 106/9/2
f 107/9/2 108/9/2 109/9/2
f 109/9/2 108/9/2 110/9/2
f 109/2/2 110/2/2 111/2/2
f 111/2/2 110/2/2 112/2/2
f 113/5/2 114/5/2 116/5/2
f 114/6/2 115/6/2 117/6/2
f 116/5/2 114/5/2 117/5/2
f 117/6/2 115/6/2 118/6/2
f 118/6/2 115/6/2 119/6/2
f 118/7/2 119/7/2 120/7/2
f 119/6/2 115/6/2 121/6/2
f 120/7/2 119/7/2 121/7/2
f 121/6/2 115/6/2 122/6/2
f 121/7/2 122/7/2 123/7/2
f 123/7/2 122/7/2 124/7/2
f 128/6/3 126/6/3 125/6/3
f 129/7/3 127/7/3 126/7/3
f 129/6/3 126/6/3 128/6/3
f 130/7/3 127/7/3 129/7/3
f 131/5/3 129/5/3 128/5/3
f 132/5/3 129/5/3 131/5/3
f 136/9/3 134/9/3 133/9/3
f 137/2/3 135/2/3 134/2/3
f 137/9/3 134/9/3 136/9/3
f 138/9/3 136/9/3 133/9/3
f 139/2/3 135/2/3 137/2/3
f 140/9/3 138/9/3 133/9/3
f 140/9/3 139/9/3 138/9/3
f 141/2/3 135/2/3 139/2/3
f 141/9/3 139/9/3 140/9/3
f 143/2/3 135/2/3 141/2/3
f 144/9/3 143/9/3 142/9/3
f 145/2/3 135/2/3 143/2/3
f 145/9/3 143/9/3 144/9/3
f 148/9/3 147/9/3 146/9/3
f 149/9/3 147/9/3 148/9/3
f 150/9/3 148/9/3 146/9/3
f 151/9/3 147/9/3 149/9/3
f 152/9/3 144/9/3 142/9/3
f 153/2/3 135/2/3 145/2/3
f 154/9/3 151/9/3 150/9/3
f 154/9/3 150/9/3 146/9/3
f 155/9/3 147/9/3 151/9/3
f 155/9/3 151/9/3 154/9/3
f 156/9/3 153/9/3 152/9/3
f 156/9/3 152/9/3 142/9/3
f 157/2/3 135/2/3 153/2/3
f 157/9/3 153/9/3 156/9/3
f 158/2/3 135/2/3 157/2/3
f 162/6/3 160/6/3 159/6/3
f 163/6/3 160/6/3 162/6/3
f 164/6/3 160/6/3 163/6/3
f 167/3/3 166/3/3 165/3/3
f 168/3/3 166/3/3 167/3/3
f 169/6/3 162/6/3 159/6/3
f 171/6/3 169/6/3 159/6/3
f 171/6/3 170/6/3 169/6/3
f 172/6/3 170/6/3 171/6/3
f 176/6/3 171/6/3 159/6/3
f 177/6/3 176/6/3 175/6/3
f 178/6/3 176/6/3 177/6/3
f 181/3/3 180/3/3 179/3/3
f 182/3/3 180/3/3 181/3/3
f 183/3/3 174/3/3 173/3/3
f 184/3/3 174/3/3 183/3/3
f 185/6/3 177/6/3 175/6/3
f 186/6/3 176/6/3 178/6/3
f 187/6/3 171/6/3 176/6/3
f 187/6/3 176/6/3 186/6/3
f 189/6/3 160/6/3 164/6/3
f 190/6/3 188/6/3 187/6/3
f 190/6/3 189/6/3 188/6/3
f 190/6/3 187/6/3 186/6/3
f 190/6/3 186/6/3 185/6/3
f 190/6/3 185/6/3 175/6/3
f 191/7/3 161/7/3 160/7/3
f 191/6/3 189/6/3 190/6/3
f 191/6/3 160/6/3 189/6/3
f 192/7/3 161/7/3 191/7/3
f 199/1/3 198/1/3 197/1/3
f 200/1/3 198/1/3 199/1/3
f 201/6/3 196/6/3 195/6/3
f 202/6/3 196/6/3 201/6/3
f 203/6/3 194/6/3 193/6/3
f 204/6/3 194/6/3 203/6/3
f 208/6/3 206/6/3 205/6/3
f 209/6/3 208/6/3 207/6/3
f 210/6/3 206/6/3 208/6/3
f 210/6/3 208/6/3 209/6/3
f 212/6/3 206/6/3 210/6/3
f 213/6/3 212/6/3 211/6/3
f 214/6/3 212/6/3 213/6/3
f 215/6/3 206/6/3 212/6/3
f 215/6/3 212/6/3 214/6/3
f 216/2/3 214/2/3 213/2/3
f 217/2/3 214/2/3 216/2/3
f 218/2/3 216/2/3 213/2/3
f 219/2/3 216/2/3 218/2/3
f 220/2/3 214/2/3 217/2/3
f 221/2/3 214/2/3 220/2/3
f 222/6/3 206/6/3 215/6/3
f 223/6/3 206/6/3 222/6/3
f 228/8/3 227/8/3 226/8/3
f 229/8/3 227/8/3 228/8/3
f 230/3/3 229/3/3 228/3/3
f 231/3/3 229/3/3 230/3/3
f 232/7/3 225/7/3 224/7/3
f 233/7/3 225/7/3 232/7/3
f 236/3/3 235/3/3 234/3/3
f 237/3/3 235/3/3 236/3/3
f 238/7/4 239/7/4 240/7/4
f 240/7/4 239/7/4 241/7/4
f 242/6/4 243/6/4 245/6/4
f 243/7/4 244/7/4 246/7/4
f 245/6/4 243/6/4 246/6/4
f 246/7/4 244/7/4 247/7/4
f 251/6/5 249/6/5 248/6/5
f 252/5/5 250/5/5 249/5/5
f 252/6/5 249/6/5 251/6/5
f 253/6/5 251/6/5 248/6/5
f 253/5/5 252/5/5 251/5/5
f 254/5/5 250/5/5 252/5/5
f 254/5/5 252/5/5 253/5/5
f 255/5/5 250/5/5 254/5/5
f 256/5/5 250/5/5 255/5/5
f 257/6/5 253/6/5 248/6/5
f 257/4/5 254/4/5 253/4/5
f 258/5/5 255/5/5 254/5/5
f 258/4/5 254/4/5 257/4/5
f 259/6/5 256/6/5 255/6/5
f 259/5/5 255/5/5 258/5/5
f 260/6/5 258/6/5 257/6/5
f 260/2/5 259/2/5 258/2/5
f 261/6/5 256/6/5 259/6/5
f 261/2/5 259/2/5 260/2/5
f 262/6/5 260/6/5 257/6/5
f 262/6/5 257/6/5 248/6/5
f 262/6/5 261/6/5 260/6/5
f 263/6/5 256/6/5 261/6/5
f 263/6/5 261/6/5 262/6/5
f 266/9/5 265/9/5 264/9/5
f 267/9/5 265/9/5 266/9/5
f 270/1/5 269/1/5 268/1/5
f 271/1/5 269/1/5 270/1/5
f 274/9/5 273/9/5 272/9/5
f 275/9/5 273/9/5 274/9/5
f 278/6/5 277/6/5 276/6/5
f 279/6/5 277/6/5 278/6/5
f 282/6/5 281/6/5 280/6/5
f 283/6/5 281/6/5 282/6/5
f 284/6/5 281/6/5 283/6/5
f 285/6/5 282/6/5 280/6/5
f 286/6/5 282/6/5 285/6/5
f 289/6/5 288/6/5 287/6/5
f 290/6/5 288/6/5 289/6/5
f 293/6/5 292/6/5 291/6/5
f 294/6/5 292/6/5 293/6/5
f 299/9/5 296/9/5 295/9/5
f 300/9/5 296/9/5 299/9/5
f 301/9/5 298/9/5 297/9/5
f 302/9/5 298/9/5 301/9/5
f 309/2/5 304/2/5 303/2/5
f 310/2/5 304/2/5 309/2/5
f 311/2/5 306/2/5 305/2/5
f 312/2/5 306/2/5 311/2/5
f 313/2/5 308/2/5 307/2/5
f 314/2/5 308/2/5 313/2/5
f 315/5/6 316/5/6 318/5/6
f 317/5/6 318/5/6 319/5/6
f 318/5/6 316/5/6 320/5/6
f 319/5/6 318/5/6 320/5/6
f 320/5/6 316/5/6 321/5/6
f 321/5/6 316/5/6 322/5/6
f 319/4/6 320/4/6 323/4/6
f 323/4/6 320/4/6 324/4/6
f 324/4/6 320/4/6 325/4/6
f 320/5/6 321/5/6 326/5/6
f 325/4/6 320/4/6 326/4/6
f 326/5/6 321/5/6 327/5/6
f 324/6/6 325/6/6 328/6/6
f 328/6/6 325/6/6 329/6/6
f 329/6/6 325/6/6 330/6/6
f 324/6/6 328/6/6 331/6/6
f 331/6/6 328/6/6 332/6/6
f 333/7/6 334/7/6 335/7/6
f 335/7/6 334/7/6 336/7/6
f 333/7/6 335/7/6 337/7/6
f 337/7/6 335/7/6 338/7/6
f 339/9/6 340/9/6 341/9/6
f 341/9/6 340/9/6 342/9/6
f 343/1/6 344/1/6 345/1/6
f 345/1/6 344/1/6 346/1/6
f 347/9/6 348/9/6 349/9/6
f 349/9/6 348/9/6 350/9/6
f 351/6/6 352/6/6 353/6/6
f 353/6/6 352/6/6 354/6/6
f 355/9/6 356/9/6 359/9/6
f 359/9/6 356/9/6 360/9/6
f 357/9/6 358/9/6 361/9/6
f 361/9/6 358/9/6 362/9/6
f 363/2/6 364/2/6 365/2/6
f 365/2/6 364/2/6 366/2/6
f 367/7/6 368/7/6 369/7/6
f 369/7/6 368/7/6 370/7/6
f 371/7/6 372/7/6 373/7/6
f 373/7/6 372/7/6 374/7/6
