# MagicaVoxel @ Ephtracy

# group
o 

# material
mtllib 20_House_03.mtl
usemtl palette

# normals
vn -1 0 0
vn 1 0 0
vn 0 0 1
vn 0 0 -1
vn 0 -1 0
vn 0 1 0

# texcoords
vt 0.0175781 0.5
vt 0.0410156 0.5
vt 0.587891 0.5
vt 0.861328 0.5
vt 0.865234 0.5
vt 0.896484 0.5
vt 0.958984 0.5
vt 0.978516 0.5
vt 0.982422 0.5

# verts
v 0 2 0
v 0 2 -2
v 0 2.2 0
v 0 2.2 -0.5
v 0 2.3 0
v 0 2.3 -0.5
v 0 2.6 -0.8
v 0 2.6 -1.8
v 0 3 -0.8
v 0 3 -1.8
v 0 3.1 -0.2
v 0 3.1 -0.5
v 0 3.2 -0.2
v 0 3.2 -0.3
v 0 3.2 -0.4
v 0 3.2 -0.5
v 0 3.2 -0.6
v 0 3.2 -0.7
v 0 3.2 -0.8
v 0 3.4 -0.3
v 0 3.4 -0.4
v 0 3.4 -0.5
v 0 3.4 -0.6
v 0 3.4 -0.7
v 0 3.4 -0.8
v 0 3.5 -0.2
v 0 3.5 -0.8
v 0 3.8 -0.8
v 0 3.8 -0.9
v 0 3.9 -0.9
v 0 3.9 -1.2
v 0 4 -1.2
v 0 4 -2
v 0.1 2.6 -0.8
v 0.1 2.6 -0.9
v 0.1 2.6 -1.7
v 0.1 2.6 -1.8
v 0.1 2.7 -0.3
v 0.1 2.7 -0.5
v 0.1 2.8 -0.3
v 0.1 2.8 -0.5
v 0.1 2.9 -0.9
v 0.1 2.9 -1.7
v 0.1 3 -0.8
v 0.1 3 -1.8
v 0.2 2.6 -0.9
v 0.2 2.6 -1.3
v 0.2 2.6 -1.4
v 0.2 2.8 -0.4
v 0.2 2.8 -0.5
v 0.2 2.9 -0.4
v 0.2 2.9 -0.5
v 0.2 2.9 -0.9
v 0.2 2.9 -1.3
v 0.2 2.9 -1.4
v 0.3 2.6 -1.4
v 0.3 2.6 -1.7
v 0.3 2.9 -1.4
v 0.3 2.9 -1.7
v 0.4 3.2 -0.2
v 0.4 3.2 -0.3
v 0.4 3.4 -0.2
v 0.4 3.4 -0.3
v 0.5 2.2 -0.5
v 0.5 2.2 -0.6
v 0.5 2.3 -0.5
v 0.5 2.3 -0.6
v 0.6 3.2 -0.9
v 0.6 3.2 -1
v 0.6 3.7 -0.9
v 0.6 3.7 -1
v 0.7 2.1 0
v 0.7 2.1 -0.1
v 0.7 2.1 -0.5
v 0.7 2.1 -0.6
v 0.7 2.2 0
v 0.7 2.2 -0.1
v 0.7 2.3 0
v 0.7 2.3 -0.1
v 0.7 2.7 -0.5
v 0.7 2.7 -0.6
v 0.9 3.2 -0.2
v 0.9 3.2 -0.3
v 0.9 3.4 -0.2
v 0.9 3.4 -0.3
v 1 3.2 -0.8
v 1 3.2 -0.9
v 1 3.7 -0.8
v 1 3.7 -0.9
v 1.3 2.1 -1.3
v 1.3 2.1 -1.4
v 1.3 2.7 -1.3
v 1.3 2.7 -1.4
v 1.4 3.2 -0.2
v 1.4 3.2 -0.3
v 1.4 3.4 -0.2
v 1.4 3.4 -0.3
v 1.8 2.1 -1.2
v 1.8 2.1 -1.3
v 1.8 2.7 -1.2
v 1.8 2.7 -1.3
v 1.9 2.1 -0.1
v 1.9 2.1 -0.8
v 1.9 2.1 -1.2
v 1.9 2.2 -0.1
v 1.9 2.2 -1.2
v 1.9 2.3 -0.1
v 1.9 2.3 -1.2
v 1.9 3.2 -0.2
v 1.9 3.2 -0.3
v 1.9 3.2 -0.4
v 1.9 3.2 -0.5
v 1.9 3.2 -0.6
v 1.9 3.2 -0.7
v 1.9 3.4 -0.2
v 1.9 3.4 -0.3
v 1.9 3.4 -0.4
v 1.9 3.4 -0.5
v 1.9 3.4 -0.6
v 1.9 3.4 -0.7
v 1.9 3.4 -0.8
v 1.9 3.5 -0.3
v 1.9 3.5 -0.8
v 0.1 2.1 -0.1
v 0.1 2.1 -0.5
v 0.1 2.2 -0.1
v 0.1 2.2 -0.5
v 0.1 2.3 -0.1
v 0.1 2.3 -0.5
v 0.1 3.2 -0.2
v 0.1 3.2 -0.3
v 0.1 3.2 -0.4
v 0.1 3.2 -0.5
v 0.1 3.2 -0.6
v 0.1 3.2 -0.7
v 0.1 3.4 -0.2
v 0.1 3.4 -0.3
v 0.1 3.4 -0.4
v 0.1 3.4 -0.5
v 0.1 3.4 -0.6
v 0.1 3.4 -0.7
v 0.1 3.4 -0.8
v 0.1 3.5 -0.3
v 0.1 3.5 -0.8
v 0.2 2.1 0
v 0.2 2.1 -0.1
v 0.2 2.1 -0.5
v 0.2 2.1 -0.6
v 0.2 2.2 0
v 0.2 2.2 -0.1
v 0.2 2.3 0
v 0.2 2.3 -0.1
v 0.2 2.7 -0.5
v 0.2 2.7 -0.6
v 0.2 3.2 -0.8
v 0.2 3.2 -1
v 0.2 3.7 -0.8
v 0.2 3.7 -1
v 0.6 2.2 -0.5
v 0.6 2.2 -0.6
v 0.6 2.3 -0.5
v 0.6 2.3 -0.6
v 0.6 3.2 -0.2
v 0.6 3.2 -0.3
v 0.6 3.4 -0.2
v 0.6 3.4 -0.3
v 0.7 2.8 -0.4
v 0.7 2.8 -0.5
v 0.7 2.9 -0.4
v 0.7 2.9 -0.5
v 0.8 2.7 -0.3
v 0.8 2.7 -0.5
v 0.8 2.8 -0.3
v 0.8 2.8 -0.5
v 0.9 2.1 -0.5
v 0.9 2.1 -0.8
v 0.9 2.1 -1.2
v 0.9 3.1 -0.5
v 0.9 3.1 -1.2
v 1 2.1 -1.2
v 1 2.1 -1.4
v 1 2.7 -1.2
v 1 2.7 -1.4
v 1.1 3.2 -0.2
v 1.1 3.2 -0.3
v 1.1 3.4 -0.2
v 1.1 3.4 -0.3
v 1.6 3.2 -0.2
v 1.6 3.2 -0.3
v 1.6 3.4 -0.2
v 1.6 3.4 -0.3
v 2 2 0
v 2 2 -2
v 2 2.2 0
v 2 2.2 -1.2
v 2 2.3 0
v 2 2.3 -1.2
v 2 3.1 -0.2
v 2 3.1 -1.2
v 2 3.2 -0.2
v 2 3.2 -0.3
v 2 3.2 -0.4
v 2 3.2 -0.5
v 2 3.2 -0.6
v 2 3.2 -0.7
v 2 3.2 -0.8
v 2 3.4 -0.3
v 2 3.4 -0.4
v 2 3.4 -0.5
v 2 3.4 -0.6
v 2 3.4 -0.7
v 2 3.4 -0.8
v 2 3.5 -0.2
v 2 3.5 -0.8
v 2 3.8 -0.8
v 2 3.8 -0.9
v 2 3.9 -0.9
v 2 3.9 -1.2
v 2 4 -1.2
v 2 4 -2
v 0 2 0
v 0 2.2 0
v 0 2.3 0
v 0.2 2 0
v 0.2 2.1 0
v 0.2 2.2 0
v 0.2 2.3 0
v 0.7 2 0
v 0.7 2.1 0
v 0.7 2.2 0
v 0.7 2.3 0
v 2 2 0
v 2 2.2 0
v 2 2.3 0
v 0 3.1 -0.2
v 0 3.2 -0.2
v 0 3.5 -0.2
v 0.1 3.2 -0.2
v 0.1 3.4 -0.2
v 0.4 3.2 -0.2
v 0.4 3.4 -0.2
v 0.6 3.2 -0.2
v 0.6 3.4 -0.2
v 0.9 3.2 -0.2
v 0.9 3.4 -0.2
v 1.1 3.2 -0.2
v 1.1 3.4 -0.2
v 1.4 3.2 -0.2
v 1.4 3.4 -0.2
v 1.6 3.2 -0.2
v 1.6 3.4 -0.2
v 1.9 3.2 -0.2
v 1.9 3.4 -0.2
v 2 3.1 -0.2
v 2 3.2 -0.2
v 2 3.5 -0.2
v 0.1 2.7 -0.3
v 0.1 2.8 -0.3
v 0.8 2.7 -0.3
v 0.8 2.8 -0.3
v 0 3.2 -0.4
v 0 3.4 -0.4
v 0.1 3.2 -0.4
v 0.1 3.4 -0.4
v 0.2 2.8 -0.4
v 0.2 2.9 -0.4
v 0.7 2.8 -0.4
v 0.7 2.9 -0.4
v 1.9 3.2 -0.4
v 1.9 3.4 -0.4
v 2 3.2 -0.4
v 2 3.4 -0.4
v 0 2.3 -0.5
v 0 3.1 -0.5
v 0.1 2.1 -0.5
v 0.1 2.2 -0.5
v 0.1 2.3 -0.5
v 0.1 2.7 -0.5
v 0.1 2.8 -0.5
v 0.2 2.1 -0.5
v 0.2 2.7 -0.5
v 0.2 2.8 -0.5
v 0.2 2.9 -0.5
v 0.5 2.2 -0.5
v 0.5 2.3 -0.5
v 0.6 2.2 -0.5
v 0.6 2.3 -0.5
v 0.7 2.1 -0.5
v 0.7 2.7 -0.5
v 0.7 2.8 -0.5
v 0.7 2.9 -0.5
v 0.8 2.7 -0.5
v 0.8 2.8 -0.5
v 0.9 2.1 -0.5
v 0.9 3.1 -0.5
v 0 3.2 -0.6
v 0 3.4 -0.6
v 0.1 3.2 -0.6
v 0.1 3.4 -0.6
v 0.2 2.1 -0.6
v 0.2 2.7 -0.6
v 0.5 2.2 -0.6
v 0.5 2.3 -0.6
v 0.6 2.2 -0.6
v 0.6 2.3 -0.6
v 0.7 2.1 -0.6
v 0.7 2.7 -0.6
v 1.9 3.2 -0.6
v 1.9 3.4 -0.6
v 2 3.2 -0.6
v 2 3.4 -0.6
v 0 3.2 -0.8
v 0 3.4 -0.8
v 0 3.5 -0.8
v 0 3.8 -0.8
v 0.1 3.4 -0.8
v 0.1 3.5 -0.8
v 0.2 3.2 -0.8
v 0.2 3.7 -0.8
v 1 3.2 -0.8
v 1 3.7 -0.8
v 1.9 3.4 -0.8
v 1.9 3.5 -0.8
v 2 3.2 -0.8
v 2 3.4 -0.8
v 2 3.5 -0.8
v 2 3.8 -0.8
v 0 3.8 -0.9
v 0 3.9 -0.9
v 0.6 3.2 -0.9
v 0.6 3.7 -0.9
v 0.7 3.2 -0.9
v 0.7 3.7 -0.9
v 1 3.2 -0.9
v 1 3.7 -0.9
v 2 3.8 -0.9
v 2 3.9 -0.9
v 0.2 3.2 -1
v 0.2 3.7 -1
v 0.6 3.2 -1
v 0.6 3.7 -1
v 0 3.9 -1.2
v 0 4 -1.2
v 0.9 2.1 -1.2
v 0.9 3.1 -1.2
v 1 2.1 -1.2
v 1 2.7 -1.2
v 1.8 2.1 -1.2
v 1.8 2.7 -1.2
v 1.9 2.1 -1.2
v 1.9 2.2 -1.2
v 1.9 2.3 -1.2
v 2 2.3 -1.2
v 2 3.1 -1.2
v 2 3.9 -1.2
v 2 4 -1.2
v 1.3 2.1 -1.3
v 1.3 2.7 -1.3
v 1.4 2.1 -1.3
v 1.4 2.7 -1.3
v 1.8 2.1 -1.3
v 1.8 2.7 -1.3
v 1 2.1 -1.4
v 1 2.7 -1.4
v 1.3 2.1 -1.4
v 1.3 2.7 -1.4
v 0.1 2.6 -1.7
v 0.1 2.9 -1.7
v 0.3 2.6 -1.7
v 0.3 2.9 -1.7
v 0 2.6 -1.8
v 0 3 -1.8
v 0.1 2.6 -1.8
v 0.1 3 -1.8
v 0.1 2.1 -0.1
v 0.1 2.2 -0.1
v 0.1 2.3 -0.1
v 0.2 2.1 -0.1
v 0.2 2.2 -0.1
v 0.2 2.3 -0.1
v 0.7 2.1 -0.1
v 0.7 2.2 -0.1
v 0.7 2.3 -0.1
v 1.9 2.1 -0.1
v 1.9 2.2 -0.1
v 1.9 2.3 -0.1
v 0 3.2 -0.3
v 0 3.4 -0.3
v 0.1 3.2 -0.3
v 0.1 3.4 -0.3
v 0.1 3.5 -0.3
v 0.4 3.2 -0.3
v 0.4 3.4 -0.3
v 0.6 3.2 -0.3
v 0.6 3.4 -0.3
v 0.9 3.2 -0.3
v 0.9 3.4 -0.3
v 1.1 3.2 -0.3
v 1.1 3.4 -0.3
v 1.4 3.2 -0.3
v 1.4 3.4 -0.3
v 1.6 3.2 -0.3
v 1.6 3.4 -0.3
v 1.9 3.2 -0.3
v 1.9 3.4 -0.3
v 1.9 3.5 -0.3
v 2 3.2 -0.3
v 2 3.4 -0.3
v 0 3.2 -0.5
v 0 3.4 -0.5
v 0.1 3.2 -0.5
v 0.1 3.4 -0.5
v 1.9 3.2 -0.5
v 1.9 3.4 -0.5
v 2 3.2 -0.5
v 2 3.4 -0.5
v 0 3.2 -0.7
v 0 3.4 -0.7
v 0.1 3.2 -0.7
v 0.1 3.4 -0.7
v 1.9 3.2 -0.7
v 1.9 3.4 -0.7
v 2 3.2 -0.7
v 2 3.4 -0.7
v 0 2.6 -0.8
v 0 3 -0.8
v 0.1 2.6 -0.8
v 0.1 3 -0.8
v 0.1 2.6 -0.9
v 0.1 2.9 -0.9
v 0.2 2.6 -0.9
v 0.2 2.9 -0.9
v 0.2 2.6 -1.4
v 0.2 2.9 -1.4
v 0.3 2.6 -1.4
v 0.3 2.9 -1.4
v 0 2 -2
v 0 4 -2
v 2 2 -2
v 2 4 -2
v 0 2 0
v 0.2 2 0
v 0.7 2 0
v 2 2 0
v 0.1 2 -0.1
v 0.2 2 -0.1
v 0.7 2 -0.1
v 1.9 2 -0.1
v 0.1 2 -0.5
v 0.2 2 -0.5
v 0.7 2 -0.5
v 0.9 2 -0.5
v 0.2 2 -0.6
v 0.7 2 -0.6
v 0.2 2 -0.7
v 0.7 2 -0.7
v 0.9 2 -0.8
v 1.9 2 -0.8
v 0.9 2 -1.2
v 1.9 2 -1.2
v 0 2 -2
v 2 2 -2
v 0.5 2.2 -0.5
v 0.6 2.2 -0.5
v 0.5 2.2 -0.6
v 0.6 2.2 -0.6
v 0.1 2.7 -0.3
v 0.8 2.7 -0.3
v 0.1 2.7 -0.5
v 0.2 2.7 -0.5
v 0.7 2.7 -0.5
v 0.8 2.7 -0.5
v 0.2 2.7 -0.6
v 0.7 2.7 -0.6
v 1 2.7 -1.2
v 1.8 2.7 -1.2
v 1.3 2.7 -1.3
v 1.4 2.7 -1.3
v 1.8 2.7 -1.3
v 1 2.7 -1.4
v 1.3 2.7 -1.4
v 0.1 2.9 -0.9
v 0.2 2.9 -0.9
v 0.2 2.9 -1.3
v 0.2 2.9 -1.4
v 0.3 2.9 -1.4
v 0.1 2.9 -1.7
v 0.3 2.9 -1.7
v 0 3 -0.8
v 0.1 3 -0.8
v 0 3 -1.8
v 0.1 3 -1.8
v 0 3.1 -0.2
v 2 3.1 -0.2
v 0 3.1 -0.5
v 0.9 3.1 -0.5
v 0.9 3.1 -1.2
v 2 3.1 -1.2
v 0.1 3.4 -0.2
v 0.4 3.4 -0.2
v 0.6 3.4 -0.2
v 0.9 3.4 -0.2
v 1.1 3.4 -0.2
v 1.4 3.4 -0.2
v 1.6 3.4 -0.2
v 1.9 3.4 -0.2
v 0 3.4 -0.3
v 0.1 3.4 -0.3
v 0.4 3.4 -0.3
v 0.6 3.4 -0.3
v 0.9 3.4 -0.3
v 1.1 3.4 -0.3
v 1.4 3.4 -0.3
v 1.6 3.4 -0.3
v 1.9 3.4 -0.3
v 2 3.4 -0.3
v 0 3.4 -0.4
v 0.1 3.4 -0.4
v 1.9 3.4 -0.4
v 2 3.4 -0.4
v 0 3.4 -0.5
v 0.1 3.4 -0.5
v 1.9 3.4 -0.5
v 2 3.4 -0.5
v 0 3.4 -0.6
v 0.1 3.4 -0.6
v 1.9 3.4 -0.6
v 2 3.4 -0.6
v 0 3.4 -0.7
v 0.1 3.4 -0.7
v 1.9 3.4 -0.7
v 2 3.4 -0.7
v 0 3.4 -0.8
v 0.1 3.4 -0.8
v 1.9 3.4 -0.8
v 2 3.4 -0.8
v 0.2 3.7 -0.8
v 1 3.7 -0.8
v 0.6 3.7 -0.9
v 0.7 3.7 -0.9
v 1 3.7 -0.9
v 0.2 3.7 -1
v 0.6 3.7 -1
v 0.2 2.1 0
v 0.7 2.1 0
v 0.1 2.1 -0.1
v 0.2 2.1 -0.1
v 0.7 2.1 -0.1
v 1.9 2.1 -0.1
v 0.1 2.1 -0.5
v 0.2 2.1 -0.5
v 0.7 2.1 -0.5
v 0.9 2.1 -0.5
v 0.2 2.1 -0.6
v 0.7 2.1 -0.6
v 0.9 2.1 -0.8
v 1.9 2.1 -0.8
v 0.9 2.1 -1.2
v 1 2.1 -1.2
v 1.8 2.1 -1.2
v 1.9 2.1 -1.2
v 1.3 2.1 -1.3
v 1.4 2.1 -1.3
v 1.8 2.1 -1.3
v 1 2.1 -1.4
v 1.3 2.1 -1.4
v 0 2.3 0
v 0.2 2.3 0
v 0.7 2.3 0
v 2 2.3 0
v 0.1 2.3 -0.1
v 0.2 2.3 -0.1
v 0.7 2.3 -0.1
v 1.9 2.3 -0.1
v 0 2.3 -0.5
v 0.1 2.3 -0.5
v 0.5 2.3 -0.5
v 0.6 2.3 -0.5
v 0.5 2.3 -0.6
v 0.6 2.3 -0.6
v 1.9 2.3 -1.2
v 2 2.3 -1.2
v 0 2.6 -0.8
v 0.1 2.6 -0.8
v 0.1 2.6 -0.9
v 0.2 2.6 -0.9
v 0.2 2.6 -1.3
v 0.2 2.6 -1.4
v 0.3 2.6 -1.4
v 0.1 2.6 -1.7
v 0.3 2.6 -1.7
v 0 2.6 -1.8
v 0.1 2.6 -1.8
v 0.1 2.8 -0.3
v 0.8 2.8 -0.3
v 0.2 2.8 -0.4
v 0.7 2.8 -0.4
v 0.1 2.8 -0.5
v 0.2 2.8 -0.5
v 0.7 2.8 -0.5
v 0.8 2.8 -0.5
v 0.2 2.9 -0.4
v 0.7 2.9 -0.4
v 0.2 2.9 -0.5
v 0.7 2.9 -0.5
v 0.1 3.2 -0.2
v 0.4 3.2 -0.2
v 0.6 3.2 -0.2
v 0.9 3.2 -0.2
v 1.1 3.2 -0.2
v 1.4 3.2 -0.2
v 1.6 3.2 -0.2
v 1.9 3.2 -0.2
v 0 3.2 -0.3
v 0.1 3.2 -0.3
v 0.4 3.2 -0.3
v 0.6 3.2 -0.3
v 0.9 3.2 -0.3
v 1.1 3.2 -0.3
v 1.4 3.2 -0.3
v 1.6 3.2 -0.3
v 1.9 3.2 -0.3
v 2 3.2 -0.3
v 0 3.2 -0.4
v 0.1 3.2 -0.4
v 1.9 3.2 -0.4
v 2 3.2 -0.4
v 0 3.2 -0.5
v 0.1 3.2 -0.5
v 1.9 3.2 -0.5
v 2 3.2 -0.5
v 0 3.2 -0.6
v 0.1 3.2 -0.6
v 1.9 3.2 -0.6
v 2 3.2 -0.6
v 0 3.2 -0.7
v 0.1 3.2 -0.7
v 1.9 3.2 -0.7
v 2 3.2 -0.7
v 0 3.2 -0.8
v 0.2 3.2 -0.8
v 1 3.2 -0.8
v 2 3.2 -0.8
v 0.6 3.2 -0.9
v 0.7 3.2 -0.9
v 1 3.2 -0.9
v 0.2 3.2 -1
v 0.6 3.2 -1
v 0 3.5 -0.2
v 2 3.5 -0.2
v 0.1 3.5 -0.3
v 1.9 3.5 -0.3
v 0 3.5 -0.8
v 0.1 3.5 -0.8
v 1.9 3.5 -0.8
v 2 3.5 -0.8
v 0 3.8 -0.8
v 2 3.8 -0.8
v 0 3.8 -0.9
v 2 3.8 -0.9
v 0 3.9 -0.9
v 2 3.9 -0.9
v 0 3.9 -1.2
v 2 3.9 -1.2
v 0 4 -1.2
v 2 4 -1.2
v 0 4 -2
v 2 4 -2

# faces
f 3/7/1 2/7/1 1/7/1
f 4/7/1 2/7/1 3/7/1
f 5/5/1 4/5/1 3/5/1
f 6/7/1 2/7/1 4/7/1
f 6/5/1 4/5/1 5/5/1
f 7/7/1 2/7/1 6/7/1
f 8/7/1 2/7/1 7/7/1
f 9/7/1 7/7/1 6/7/1
f 10/7/1 2/7/1 8/7/1
f 12/7/1 9/7/1 6/7/1
f 12/7/1 10/7/1 9/7/1
f 13/7/1 12/7/1 11/7/1
f 14/7/1 12/7/1 13/7/1
f 15/7/1 12/7/1 14/7/1
f 16/7/1 10/7/1 12/7/1
f 16/7/1 12/7/1 15/7/1
f 17/7/1 10/7/1 16/7/1
f 18/7/1 10/7/1 17/7/1
f 19/7/1 10/7/1 18/7/1
f 20/9/1 14/9/1 13/9/1
f 21/9/1 16/9/1 15/9/1
f 22/9/1 16/9/1 21/9/1
f 23/9/1 18/9/1 17/9/1
f 24/9/1 18/9/1 23/9/1
f 25/7/1 10/7/1 19/7/1
f 26/9/1 24/9/1 23/9/1
f 26/9/1 25/9/1 24/9/1
f 26/9/1 22/9/1 21/9/1
f 26/9/1 20/9/1 13/9/1
f 26/9/1 23/9/1 22/9/1
f 26/9/1 21/9/1 20/9/1
f 27/7/1 10/7/1 25/7/1
f 27/9/1 25/9/1 26/9/1
f 28/7/1 10/7/1 27/7/1
f 29/7/1 10/7/1 28/7/1
f 30/7/1 10/7/1 29/7/1
f 31/7/1 10/7/1 30/7/1
f 32/7/1 10/7/1 31/7/1
f 33/7/1 2/7/1 10/7/1
f 33/7/1 10/7/1 32/7/1
f 40/9/1 39/9/1 38/9/1
f 41/9/1 39/9/1 40/9/1
f 42/7/1 35/7/1 34/7/1
f 43/7/1 37/7/1 36/7/1
f 44/7/1 42/7/1 34/7/1
f 44/7/1 43/7/1 42/7/1
f 45/7/1 37/7/1 43/7/1
f 45/7/1 43/7/1 44/7/1
f 51/9/1 50/9/1 49/9/1
f 52/9/1 50/9/1 51/9/1
f 53/3/1 47/3/1 46/3/1
f 54/8/1 48/8/1 47/8/1
f 54/3/1 47/3/1 53/3/1
f 55/8/1 48/8/1 54/8/1
f 58/3/1 57/3/1 56/3/1
f 59/3/1 57/3/1 58/3/1
f 62/9/1 61/9/1 60/9/1
f 63/9/1 61/9/1 62/9/1
f 66/1/1 65/1/1 64/1/1
f 67/1/1 65/1/1 66/1/1
f 70/8/1 69/8/1 68/8/1
f 71/8/1 69/8/1 70/8/1
f 76/7/1 73/7/1 72/7/1
f 77/7/1 73/7/1 76/7/1
f 78/5/1 77/5/1 76/5/1
f 79/5/1 77/5/1 78/5/1
f 80/7/1 75/7/1 74/7/1
f 81/7/1 75/7/1 80/7/1
f 84/9/1 83/9/1 82/9/1
f 85/9/1 83/9/1 84/9/1
f 88/7/1 87/7/1 86/7/1
f 89/7/1 87/7/1 88/7/1
f 92/8/1 91/8/1 90/8/1
f 93/8/1 91/8/1 92/8/1
f 96/9/1 95/9/1 94/9/1
f 97/9/1 95/9/1 96/9/1
f 100/7/1 99/7/1 98/7/1
f 101/7/1 99/7/1 100/7/1
f 105/7/1 103/7/1 102/7/1
f 105/7/1 104/7/1 103/7/1
f 106/7/1 104/7/1 105/7/1
f 107/5/1 106/5/1 105/5/1
f 108/5/1 106/5/1 107/5/1
f 115/9/1 110/9/1 109/9/1
f 116/9/1 110/9/1 115/9/1
f 117/9/1 112/9/1 111/9/1
f 118/9/1 112/9/1 117/9/1
f 119/9/1 114/9/1 113/9/1
f 120/9/1 114/9/1 119/9/1
f 122/9/1 118/9/1 117/9/1
f 122/9/1 121/9/1 120/9/1
f 122/9/1 120/9/1 119/9/1
f 122/9/1 119/9/1 118/9/1
f 122/9/1 117/9/1 116/9/1
f 123/9/1 121/9/1 122/9/1
f 124/7/2 125/7/2 126/7/2
f 126/7/2 125/7/2 127/7/2
f 126/5/2 127/5/2 128/5/2
f 128/5/2 127/5/2 129/5/2
f 130/9/2 131/9/2 136/9/2
f 136/9/2 131/9/2 137/9/2
f 132/9/2 133/9/2 138/9/2
f 138/9/2 133/9/2 139/9/2
f 134/9/2 135/9/2 140/9/2
f 140/9/2 135/9/2 141/9/2
f 141/9/2 142/9/2 143/9/2
f 140/9/2 141/9/2 143/9/2
f 139/9/2 140/9/2 143/9/2
f 138/9/2 139/9/2 143/9/2
f 137/9/2 138/9/2 143/9/2
f 143/9/2 142/9/2 144/9/2
f 145/7/2 146/7/2 149/7/2
f 149/7/2 146/7/2 150/7/2
f 149/5/2 150/5/2 151/5/2
f 151/5/2 150/5/2 152/5/2
f 147/7/2 148/7/2 153/7/2
f 153/7/2 148/7/2 154/7/2
f 155/7/2 156/7/2 157/7/2
f 157/7/2 156/7/2 158/7/2
f 159/1/2 160/1/2 161/1/2
f 161/1/2 160/1/2 162/1/2
f 163/9/2 164/9/2 165/9/2
f 165/9/2 164/9/2 166/9/2
f 167/9/2 168/9/2 169/9/2
f 169/9/2 168/9/2 170/9/2
f 171/9/2 172/9/2 173/9/2
f 173/9/2 172/9/2 174/9/2
f 175/7/2 176/7/2 178/7/2
f 176/7/2 177/7/2 178/7/2
f 178/7/2 177/7/2 179/7/2
f 180/7/2 181/7/2 182/7/2
f 182/7/2 181/7/2 183/7/2
f 184/9/2 185/9/2 186/9/2
f 186/9/2 185/9/2 187/9/2
f 188/9/2 189/9/2 190/9/2
f 190/9/2 189/9/2 191/9/2
f 192/7/2 193/7/2 194/7/2
f 194/7/2 193/7/2 195/7/2
f 194/5/2 195/5/2 196/5/2
f 195/7/2 193/7/2 197/7/2
f 196/5/2 195/5/2 197/5/2
f 197/7/2 193/7/2 199/7/2
f 198/7/2 199/7/2 200/7/2
f 200/7/2 199/7/2 201/7/2
f 201/7/2 199/7/2 202/7/2
f 202/7/2 199/7/2 203/7/2
f 203/7/2 199/7/2 204/7/2
f 204/7/2 199/7/2 205/7/2
f 205/7/2 199/7/2 206/7/2
f 200/9/2 201/9/2 207/9/2
f 202/9/2 203/9/2 208/9/2
f 208/9/2 203/9/2 209/9/2
f 204/9/2 205/9/2 210/9/2
f 210/9/2 205/9/2 211/9/2
f 206/7/2 199/7/2 212/7/2
f 210/9/2 211/9/2 213/9/2
f 211/9/2 212/9/2 213/9/2
f 208/9/2 209/9/2 213/9/2
f 200/9/2 207/9/2 213/9/2
f 209/9/2 210/9/2 213/9/2
f 207/9/2 208/9/2 213/9/2
f 212/7/2 199/7/2 214/7/2
f 213/9/2 212/9/2 214/9/2
f 214/7/2 199/7/2 215/7/2
f 215/7/2 199/7/2 216/7/2
f 216/7/2 199/7/2 217/7/2
f 199/7/2 193/7/2 218/7/2
f 217/7/2 199/7/2 218/7/2
f 218/7/2 193/7/2 219/7/2
f 219/7/2 193/7/2 220/7/2
f 224/7/3 222/7/3 221/7/3
f 225/7/3 222/7/3 224/7/3
f 226/5/3 223/5/3 222/5/3
f 226/7/3 222/7/3 225/7/3
f 227/5/3 223/5/3 226/5/3
f 228/6/3 225/6/3 224/6/3
f 229/6/3 225/6/3 228/6/3
f 232/7/3 229/7/3 228/7/3
f 232/7/3 230/7/3 229/7/3
f 233/5/3 231/5/3 230/5/3
f 233/7/3 230/7/3 232/7/3
f 234/5/3 231/5/3 233/5/3
f 238/7/3 236/7/3 235/7/3
f 238/9/3 237/9/3 236/9/3
f 239/9/3 237/9/3 238/9/3
f 240/7/3 238/7/3 235/7/3
f 241/9/3 237/9/3 239/9/3
f 242/7/3 240/7/3 235/7/3
f 242/9/3 241/9/3 240/9/3
f 243/9/3 237/9/3 241/9/3
f 243/9/3 241/9/3 242/9/3
f 244/7/3 242/7/3 235/7/3
f 245/9/3 237/9/3 243/9/3
f 246/7/3 244/7/3 235/7/3
f 246/9/3 245/9/3 244/9/3
f 247/9/3 237/9/3 245/9/3
f 247/9/3 245/9/3 246/9/3
f 248/7/3 246/7/3 235/7/3
f 249/9/3 237/9/3 247/9/3
f 250/7/3 248/7/3 235/7/3
f 250/9/3 249/9/3 248/9/3
f 251/9/3 237/9/3 249/9/3
f 251/9/3 249/9/3 250/9/3
f 252/7/3 250/7/3 235/7/3
f 253/9/3 237/9/3 251/9/3
f 254/7/3 252/7/3 235/7/3
f 255/9/3 253/9/3 252/9/3
f 255/7/3 252/7/3 254/7/3
f 256/9/3 237/9/3 253/9/3
f 256/9/3 253/9/3 255/9/3
f 259/9/3 258/9/3 257/9/3
f 260/9/3 258/9/3 259/9/3
f 263/9/3 262/9/3 261/9/3
f 264/9/3 262/9/3 263/9/3
f 267/9/3 266/9/3 265/9/3
f 268/9/3 266/9/3 267/9/3
f 271/9/3 270/9/3 269/9/3
f 272/9/3 270/9/3 271/9/3
f 277/7/3 274/7/3 273/7/3
f 278/7/3 274/7/3 277/7/3
f 279/7/3 274/7/3 278/7/3
f 280/7/3 276/7/3 275/7/3
f 280/7/3 277/7/3 276/7/3
f 280/7/3 278/7/3 277/7/3
f 281/7/3 278/7/3 280/7/3
f 282/7/3 274/7/3 279/7/3
f 283/7/3 274/7/3 282/7/3
f 286/1/3 285/1/3 284/1/3
f 287/1/3 285/1/3 286/1/3
f 291/7/3 274/7/3 283/7/3
f 292/7/3 289/7/3 288/7/3
f 293/7/3 291/7/3 290/7/3
f 294/7/3 292/7/3 288/7/3
f 294/7/3 293/7/3 292/7/3
f 295/7/3 291/7/3 293/7/3
f 295/7/3 293/7/3 294/7/3
f 295/7/3 274/7/3 291/7/3
f 298/9/3 297/9/3 296/9/3
f 299/9/3 297/9/3 298/9/3
f 302/4/3 301/4/3 300/4/3
f 303/4/3 301/4/3 302/4/3
f 304/4/3 302/4/3 300/4/3
f 305/4/3 301/4/3 303/4/3
f 306/4/3 304/4/3 300/4/3
f 306/4/3 305/4/3 304/4/3
f 307/4/3 301/4/3 305/4/3
f 307/4/3 305/4/3 306/4/3
f 310/9/3 309/9/3 308/9/3
f 311/9/3 309/9/3 310/9/3
f 316/7/3 313/7/3 312/7/3
f 317/7/3 315/7/3 314/7/3
f 318/7/3 316/7/3 312/7/3
f 318/7/3 317/7/3 316/7/3
f 319/7/3 315/7/3 317/7/3
f 319/7/3 317/7/3 318/7/3
f 321/7/3 315/7/3 319/7/3
f 322/7/3 321/7/3 320/7/3
f 323/7/3 321/7/3 322/7/3
f 324/7/3 322/7/3 320/7/3
f 325/7/3 322/7/3 324/7/3
f 326/7/3 321/7/3 323/7/3
f 327/7/3 315/7/3 321/7/3
f 327/7/3 321/7/3 326/7/3
f 332/8/3 331/8/3 330/8/3
f 333/8/3 331/8/3 332/8/3
f 334/3/3 333/3/3 332/3/3
f 335/3/3 333/3/3 334/3/3
f 336/7/3 329/7/3 328/7/3
f 337/7/3 329/7/3 336/7/3
f 340/3/3 339/3/3 338/3/3
f 341/3/3 339/3/3 340/3/3
f 346/7/3 345/7/3 344/7/3
f 347/7/3 345/7/3 346/7/3
f 349/7/3 345/7/3 347/7/3
f 350/7/3 349/7/3 348/7/3
f 351/7/3 349/7/3 350/7/3
f 352/7/3 349/7/3 351/7/3
f 353/7/3 349/7/3 352/7/3
f 354/7/3 345/7/3 349/7/3
f 354/7/3 349/7/3 353/7/3
f 355/7/3 343/7/3 342/7/3
f 356/7/3 343/7/3 355/7/3
f 359/8/3 358/8/3 357/8/3
f 360/8/3 358/8/3 359/8/3
f 361/3/3 360/3/3 359/3/3
f 362/3/3 360/3/3 361/3/3
f 365/3/3 364/3/3 363/3/3
f 366/3/3 364/3/3 365/3/3
f 369/7/3 368/7/3 367/7/3
f 370/7/3 368/7/3 369/7/3
f 373/7/3 372/7/3 371/7/3
f 374/7/3 372/7/3 373/7/3
f 375/7/4 376/7/4 378/7/4
f 376/5/4 377/5/4 379/5/4
f 378/7/4 376/7/4 379/7/4
f 379/5/4 377/5/4 380/5/4
f 381/7/4 382/7/4 384/7/4
f 382/5/4 383/5/4 385/5/4
f 384/7/4 382/7/4 385/7/4
f 385/5/4 383/5/4 386/5/4
f 387/9/4 388/9/4 389/9/4
f 389/9/4 388/9/4 390/9/4
f 390/9/4 391/9/4 393/9/4
f 392/9/4 393/9/4 394/9/4
f 393/9/4 391/9/4 395/9/4
f 394/9/4 393/9/4 395/9/4
f 395/9/4 391/9/4 397/9/4
f 396/9/4 397/9/4 398/9/4
f 397/9/4 391/9/4 399/9/4
f 398/9/4 397/9/4 399/9/4
f 399/9/4 391/9/4 401/9/4
f 400/9/4 401/9/4 402/9/4
f 401/9/4 391/9/4 403/9/4
f 402/9/4 401/9/4 403/9/4
f 403/9/4 391/9/4 405/9/4
f 405/9/4 391/9/4 406/9/4
f 404/9/4 405/9/4 407/9/4
f 407/9/4 405/9/4 408/9/4
f 409/9/4 410/9/4 411/9/4
f 411/9/4 410/9/4 412/9/4
f 413/9/4 414/9/4 415/9/4
f 415/9/4 414/9/4 416/9/4
f 417/9/4 418/9/4 419/9/4
f 419/9/4 418/9/4 420/9/4
f 421/9/4 422/9/4 423/9/4
f 423/9/4 422/9/4 424/9/4
f 425/7/4 426/7/4 427/7/4
f 427/7/4 426/7/4 428/7/4
f 429/7/4 430/7/4 431/7/4
f 431/7/4 430/7/4 432/7/4
f 433/8/4 434/8/4 435/8/4
f 435/8/4 434/8/4 436/8/4
f 437/7/4 438/7/4 439/7/4
f 439/7/4 438/7/4 440/7/4
f 445/7/5 442/7/5 441/7/5
f 446/6/5 443/6/5 442/6/5
f 446/7/5 442/7/5 445/7/5
f 447/7/5 444/7/5 443/7/5
f 447/6/5 443/6/5 446/6/5
f 448/7/5 444/7/5 447/7/5
f 449/6/5 446/6/5 445/6/5
f 449/7/5 445/7/5 441/7/5
f 449/6/5 448/6/5 447/6/5
f 449/6/5 447/6/5 446/6/5
f 450/6/5 448/6/5 449/6/5
f 451/6/5 448/6/5 450/6/5
f 452/6/5 448/6/5 451/6/5
f 453/7/5 450/7/5 449/7/5
f 453/6/5 451/6/5 450/6/5
f 454/7/5 452/7/5 451/7/5
f 454/6/5 451/6/5 453/6/5
f 455/7/5 453/7/5 449/7/5
f 455/4/5 454/4/5 453/4/5
f 456/7/5 452/7/5 454/7/5
f 456/4/5 454/4/5 455/4/5
f 457/6/5 448/6/5 452/6/5
f 457/7/5 452/7/5 456/7/5
f 457/7/5 456/7/5 455/7/5
f 458/7/5 444/7/5 448/7/5
f 458/6/5 448/6/5 457/6/5
f 459/7/5 457/7/5 455/7/5
f 459/2/5 458/2/5 457/2/5
f 460/7/5 444/7/5 458/7/5
f 460/2/5 458/2/5 459/2/5
f 461/7/5 459/7/5 455/7/5
f 461/7/5 449/7/5 441/7/5
f 461/7/5 460/7/5 459/7/5
f 461/7/5 455/7/5 449/7/5
f 462/7/5 444/7/5 460/7/5
f 462/7/5 460/7/5 461/7/5
f 465/1/5 464/1/5 463/1/5
f 466/1/5 464/1/5 465/1/5
f 469/9/5 468/9/5 467/9/5
f 470/9/5 468/9/5 469/9/5
f 471/9/5 468/9/5 470/9/5
f 472/9/5 468/9/5 471/9/5
f 473/7/5 471/7/5 470/7/5
f 474/7/5 471/7/5 473/7/5
f 477/7/5 476/7/5 475/7/5
f 478/7/5 476/7/5 477/7/5
f 479/7/5 476/7/5 478/7/5
f 480/7/5 477/7/5 475/7/5
f 481/7/5 477/7/5 480/7/5
f 484/7/5 483/7/5 482/7/5
f 485/7/5 484/7/5 482/7/5
f 487/7/5 485/7/5 482/7/5
f 487/7/5 486/7/5 485/7/5
f 488/7/5 486/7/5 487/7/5
f 491/7/5 490/7/5 489/7/5
f 492/7/5 490/7/5 491/7/5
f 495/7/5 494/7/5 493/7/5
f 496/7/5 494/7/5 495/7/5
f 497/7/5 494/7/5 496/7/5
f 498/7/5 494/7/5 497/7/5
f 508/9/5 500/9/5 499/9/5
f 509/9/5 500/9/5 508/9/5
f 510/9/5 502/9/5 501/9/5
f 511/9/5 502/9/5 510/9/5
f 512/9/5 504/9/5 503/9/5
f 513/9/5 504/9/5 512/9/5
f 514/9/5 506/9/5 505/9/5
f 515/9/5 506/9/5 514/9/5
f 517/9/5 508/9/5 507/9/5
f 518/9/5 508/9/5 517/9/5
f 519/9/5 516/9/5 515/9/5
f 520/9/5 516/9/5 519/9/5
f 525/9/5 522/9/5 521/9/5
f 526/9/5 522/9/5 525/9/5
f 527/9/5 524/9/5 523/9/5
f 528/9/5 524/9/5 527/9/5
f 533/9/5 530/9/5 529/9/5
f 534/9/5 530/9/5 533/9/5
f 535/9/5 532/9/5 531/9/5
f 536/9/5 532/9/5 535/9/5
f 539/7/5 538/7/5 537/7/5
f 540/7/5 538/7/5 539/7/5
f 541/7/5 538/7/5 540/7/5
f 542/7/5 539/7/5 537/7/5
f 543/7/5 539/7/5 542/7/5
f 544/6/6 545/6/6 547/6/6
f 547/6/6 545/6/6 548/6/6
f 546/6/6 547/6/6 550/6/6
f 548/6/6 549/6/6 550/6/6
f 547/6/6 548/6/6 550/6/6
f 550/6/6 549/6/6 551/6/6
f 551/6/6 549/6/6 552/6/6
f 552/6/6 549/6/6 553/6/6
f 551/6/6 552/6/6 554/6/6
f 554/6/6 552/6/6 555/6/6
f 553/6/6 549/6/6 556/6/6
f 556/6/6 549/6/6 557/6/6
f 556/2/6 557/2/6 558/2/6
f 558/2/6 557/2/6 559/2/6
f 559/2/6 557/2/6 560/2/6
f 560/2/6 557/2/6 561/2/6
f 559/7/6 560/7/6 562/7/6
f 562/7/6 560/7/6 563/7/6
f 563/7/6 560/7/6 564/7/6
f 559/7/6 562/7/6 565/7/6
f 565/7/6 562/7/6 566/7/6
f 567/5/6 568/5/6 571/5/6
f 571/5/6 568/5/6 572/5/6
f 569/5/6 570/5/6 573/5/6
f 573/5/6 570/5/6 574/5/6
f 567/5/6 571/5/6 575/5/6
f 575/5/6 571/5/6 576/5/6
f 577/1/6 578/1/6 579/1/6
f 579/1/6 578/1/6 580/1/6
f 574/5/6 570/5/6 581/5/6
f 581/5/6 570/5/6 582/5/6
f 583/7/6 584/7/6 585/7/6
f 585/7/6 586/7/6 587/7/6
f 585/7/6 587/7/6 588/7/6
f 583/7/6 585/7/6 590/7/6
f 588/7/6 589/7/6 590/7/6
f 585/7/6 588/7/6 590/7/6
f 590/7/6 589/7/6 591/7/6
f 583/7/6 590/7/6 592/7/6
f 592/7/6 590/7/6 593/7/6
f 594/9/6 595/9/6 596/9/6
f 596/9/6 595/9/6 597/9/6
f 594/9/6 596/9/6 598/9/6
f 598/9/6 596/9/6 599/9/6
f 597/9/6 595/9/6 600/9/6
f 600/9/6 595/9/6 601/9/6
f 602/9/6 603/9/6 604/9/6
f 604/9/6 603/9/6 605/9/6
f 606/7/6 607/7/6 615/7/6
f 615/7/6 607/7/6 616/7/6
f 608/7/6 609/7/6 617/7/6
f 617/7/6 609/7/6 618/7/6
f 610/7/6 611/7/6 619/7/6
f 619/7/6 611/7/6 620/7/6
f 612/7/6 613/7/6 621/7/6
f 621/7/6 613/7/6 622/7/6
f 619/7/6 620/7/6 624/7/6
f 622/7/6 623/7/6 624/7/6
f 621/7/6 622/7/6 624/7/6
f 620/7/6 621/7/6 624/7/6
f 615/7/6 616/7/6 624/7/6
f 618/7/6 619/7/6 624/7/6
f 617/7/6 618/7/6 624/7/6
f 616/7/6 617/7/6 624/7/6
f 614/7/6 615/7/6 624/7/6
f 624/7/6 623/7/6 625/7/6
f 625/7/6 623/7/6 626/7/6
f 626/7/6 623/7/6 627/7/6
f 625/7/6 626/7/6 629/7/6
f 629/7/6 626/7/6 630/7/6
f 628/7/6 629/7/6 632/7/6
f 630/7/6 631/7/6 632/7/6
f 629/7/6 630/7/6 632/7/6
f 632/7/6 631/7/6 633/7/6
f 633/7/6 631/7/6 634/7/6
f 634/7/6 631/7/6 635/7/6
f 633/7/6 634/7/6 637/7/6
f 637/7/6 634/7/6 638/7/6
f 636/7/6 637/7/6 640/7/6
f 638/7/6 639/7/6 640/7/6
f 637/7/6 638/7/6 640/7/6
f 640/7/6 639/7/6 641/7/6
f 641/7/6 639/7/6 642/7/6
f 642/7/6 639/7/6 643/7/6
f 641/7/6 642/7/6 644/7/6
f 644/7/6 642/7/6 645/7/6
f 645/7/6 642/7/6 646/7/6
f 641/7/6 644/7/6 647/7/6
f 647/7/6 644/7/6 648/7/6
f 649/9/6 650/9/6 651/9/6
f 651/9/6 650/9/6 652/9/6
f 649/9/6 651/9/6 653/9/6
f 653/9/6 651/9/6 654/9/6
f 652/9/6 650/9/6 655/9/6
f 655/9/6 650/9/6 656/9/6
f 657/7/6 658/7/6 659/7/6
f 659/7/6 658/7/6 660/7/6
f 661/7/6 662/7/6 663/7/6
f 663/7/6 662/7/6 664/7/6
f 665/7/6 666/7/6 667/7/6
f 667/7/6 666/7/6 668/7/6
