# MagicaVoxel @ Ephtracy

# group
o 

# material
mtllib 20_House_11.mtl
usemtl palette

# normals
vn -1 0 0
vn 1 0 0
vn 0 0 1
vn 0 0 -1
vn 0 -1 0
vn 0 1 0

# texcoords
vt 0.0136719 0.5
vt 0.705078 0.5
vt 0.861328 0.5
vt 0.896484 0.5
vt 0.958984 0.5
vt 0.974609 0.5
vt 0.982422 0.5

# verts
v 0 2 0
v 0 2 -2
v 0 2.2 0
v 0 2.2 -0.6
v 0 2.3 0
v 0 2.3 -0.6
v 0 3.3 -0.6
v 0 3.3 -2
v 0 3.4 -0.6
v 0 3.4 -2
v 0.2 2.7 -0.5
v 0.2 2.7 -0.6
v 0.2 2.8 -0.5
v 0.2 2.8 -0.6
v 0.3 2.2 -0.5
v 0.3 2.2 -0.6
v 0.3 2.3 -0.5
v 0.3 2.3 -0.6
v 0.3 2.7 -0.4
v 0.3 2.7 -0.5
v 0.3 2.8 -0.4
v 0.3 2.8 -0.5
v 0.3 2.8 -0.6
v 0.3 2.9 -0.5
v 0.3 2.9 -0.6
v 0.9 3.1 -1
v 0.9 3.1 -1.4
v 0.9 3.3 -1.5
v 0.9 3.3 -1.6
v 0.9 3.4 -1.5
v 0.9 3.4 -1.6
v 0.9 3.4 -1.9
v 0.9 3.4 -2
v 0.9 3.7 -1.4
v 0.9 3.7 -1.9
v 0.9 3.9 -1
v 0.9 3.9 -2
v 0.9 4 -1
v 0.9 4 -2
v 1 3.1 -1.4
v 1 3.1 -1.9
v 1 3.3 -1.5
v 1 3.3 -1.6
v 1 3.4 -1.5
v 1 3.4 -1.6
v 1 3.6 -0.9
v 1 3.6 -1
v 1 3.7 -0.9
v 1 3.7 -1
v 1 3.7 -1.4
v 1 3.7 -1.9
v 1.1 2.3 -0.6
v 1.1 2.3 -0.7
v 1.1 2.7 -0.6
v 1.1 2.7 -0.7
v 1.1 3.2 -0.9
v 1.1 3.2 -1
v 1.1 3.3 -0.9
v 1.1 3.3 -1
v 1.1 3.7 -0.9
v 1.1 3.7 -1
v 1.1 3.8 -0.9
v 1.1 3.8 -1
v 1.2 2.3 0
v 1.2 2.3 -0.1
v 1.2 2.6 0
v 1.2 2.6 -0.1
v 1.3 2.6 0
v 1.3 2.6 -0.1
v 1.3 2.7 0
v 1.3 2.7 -0.1
v 1.6 2.2 -0.6
v 1.6 2.2 -0.7
v 1.6 2.3 -0.6
v 1.6 2.3 -0.7
v 1.7 2.5 0
v 1.7 2.5 -0.1
v 1.7 2.6 0
v 1.7 2.6 -0.1
v 1.7 3.3 -1
v 1.7 3.3 -1.1
v 1.7 3.6 -1
v 1.7 3.6 -1.1
v 1.8 2.1 0
v 1.8 2.1 -0.1
v 1.8 2.1 -0.6
v 1.8 2.1 -0.7
v 1.8 2.5 0
v 1.8 2.5 -0.1
v 1.8 2.7 -0.6
v 1.8 2.7 -0.7
v 1.9 2.1 -0.1
v 1.9 2.1 -0.6
v 1.9 2.2 -0.1
v 1.9 2.2 -0.6
v 1.9 2.3 -0.1
v 1.9 2.3 -0.6
v 1.9 3.1 -0.7
v 1.9 3.1 -1
v 1.9 3.3 -0.7
v 1.9 3.3 -1
v 1.9 3.4 -0.7
v 1.9 3.4 -1
v 0.1 2.1 -0.1
v 0.1 2.1 -0.6
v 0.1 2.2 -0.1
v 0.1 2.2 -0.6
v 0.1 2.3 -0.1
v 0.1 2.3 -0.6
v 0.1 3.1 -0.7
v 0.1 3.1 -1.9
v 0.1 3.3 -0.7
v 0.1 3.3 -1.9
v 0.1 3.4 -0.7
v 0.1 3.4 -1.9
v 0.3 2.3 -0.6
v 0.3 2.3 -0.7
v 0.3 2.7 -0.6
v 0.3 2.7 -0.7
v 1.1 2.2 -0.5
v 1.1 2.2 -0.6
v 1.1 2.3 -0.5
v 1.1 2.3 -0.6
v 1.1 2.7 -0.4
v 1.1 2.7 -0.5
v 1.1 2.8 -0.4
v 1.1 2.8 -0.5
v 1.1 2.8 -0.6
v 1.1 2.9 -0.5
v 1.1 2.9 -0.6
v 1.1 3.3 -1
v 1.1 3.3 -1.1
v 1.1 3.6 -1
v 1.1 3.6 -1.1
v 1.2 2.7 -0.5
v 1.2 2.7 -0.6
v 1.2 2.8 -0.5
v 1.2 2.8 -0.6
v 1.3 2.1 0
v 1.3 2.1 -0.1
v 1.3 2.1 -0.6
v 1.3 2.1 -0.7
v 1.3 2.5 0
v 1.3 2.5 -0.1
v 1.3 2.7 -0.6
v 1.3 2.7 -0.7
v 1.4 2.5 0
v 1.4 2.5 -0.1
v 1.4 2.6 0
v 1.4 2.6 -0.1
v 1.7 2.2 -0.6
v 1.7 2.2 -0.7
v 1.7 2.3 -0.6
v 1.7 2.3 -0.7
v 1.7 3.2 -0.9
v 1.7 3.2 -1
v 1.7 3.3 -0.9
v 1.7 3.3 -1
v 1.7 3.7 -0.9
v 1.7 3.7 -1
v 1.7 3.8 -0.9
v 1.7 3.8 -1
v 1.8 2.6 0
v 1.8 2.6 -0.1
v 1.8 2.7 0
v 1.8 2.7 -0.1
v 1.8 3.6 -0.9
v 1.8 3.6 -1
v 1.8 3.7 -0.9
v 1.8 3.7 -1
v 1.9 2.3 0
v 1.9 2.3 -0.1
v 1.9 2.6 0
v 1.9 2.6 -0.1
v 2 2 0
v 2 2 -2
v 2 2.2 0
v 2 2.2 -0.6
v 2 2.3 0
v 2 2.3 -0.6
v 2 3.3 -0.6
v 2 3.3 -1
v 2 3.4 -0.6
v 2 3.4 -1
v 2 3.9 -1
v 2 3.9 -2
v 2 4 -1
v 2 4 -2
v 0 2 0
v 0 2.2 0
v 0 2.3 0
v 1.2 2.2 0
v 1.2 2.3 0
v 1.2 2.6 0
v 1.3 2 0
v 1.3 2.1 0
v 1.3 2.5 0
v 1.3 2.6 0
v 1.3 2.7 0
v 1.4 2.5 0
v 1.4 2.6 0
v 1.7 2.5 0
v 1.7 2.6 0
v 1.8 2 0
v 1.8 2.1 0
v 1.8 2.5 0
v 1.8 2.6 0
v 1.8 2.7 0
v 1.9 2.2 0
v 1.9 2.3 0
v 1.9 2.6 0
v 2 2 0
v 2 2.2 0
v 2 2.3 0
v 0.3 2.7 -0.4
v 0.3 2.8 -0.4
v 1.1 2.7 -0.4
v 1.1 2.8 -0.4
v 0.2 2.7 -0.5
v 0.2 2.8 -0.5
v 0.3 2.2 -0.5
v 0.3 2.3 -0.5
v 0.3 2.7 -0.5
v 0.3 2.8 -0.5
v 0.3 2.9 -0.5
v 1.1 2.2 -0.5
v 1.1 2.3 -0.5
v 1.1 2.7 -0.5
v 1.1 2.8 -0.5
v 1.1 2.9 -0.5
v 1.2 2.7 -0.5
v 1.2 2.8 -0.5
v 0 2.3 -0.6
v 0 3.3 -0.6
v 0 3.4 -0.6
v 0.1 2.1 -0.6
v 0.1 2.2 -0.6
v 0.1 2.3 -0.6
v 0.2 2.7 -0.6
v 0.2 2.8 -0.6
v 0.3 2.2 -0.6
v 0.3 2.3 -0.6
v 0.3 2.7 -0.6
v 0.3 2.8 -0.6
v 0.3 2.9 -0.6
v 1.1 2.2 -0.6
v 1.1 2.3 -0.6
v 1.1 2.7 -0.6
v 1.1 2.8 -0.6
v 1.1 2.9 -0.6
v 1.2 2.7 -0.6
v 1.2 2.8 -0.6
v 1.3 2.1 -0.6
v 1.3 2.7 -0.6
v 1.6 2.2 -0.6
v 1.6 2.3 -0.6
v 1.7 2.2 -0.6
v 1.7 2.3 -0.6
v 1.8 2.1 -0.6
v 1.8 2.7 -0.6
v 1.9 2.1 -0.6
v 1.9 2.2 -0.6
v 1.9 2.3 -0.6
v 2 2.3 -0.6
v 2 3.3 -0.6
v 2 3.4 -0.6
v 0.3 2.3 -0.7
v 0.3 2.7 -0.7
v 1.1 2.3 -0.7
v 1.1 2.7 -0.7
v 1.3 2.1 -0.7
v 1.3 2.7 -0.7
v 1.6 2.2 -0.7
v 1.6 2.3 -0.7
v 1.7 2.2 -0.7
v 1.7 2.3 -0.7
v 1.8 2.1 -0.7
v 1.8 2.7 -0.7
v 1 3.6 -0.9
v 1 3.7 -0.9
v 1.1 3.2 -0.9
v 1.1 3.3 -0.9
v 1.1 3.7 -0.9
v 1.1 3.8 -0.9
v 1.7 3.2 -0.9
v 1.7 3.3 -0.9
v 1.7 3.7 -0.9
v 1.7 3.8 -0.9
v 1.8 3.6 -0.9
v 1.8 3.7 -0.9
v 0.9 3.1 -1
v 0.9 3.9 -1
v 0.9 4 -1
v 1 3.6 -1
v 1 3.7 -1
v 1.1 3.2 -1
v 1.1 3.3 -1
v 1.1 3.6 -1
v 1.1 3.7 -1
v 1.1 3.8 -1
v 1.7 3.2 -1
v 1.7 3.3 -1
v 1.7 3.6 -1
v 1.7 3.7 -1
v 1.7 3.8 -1
v 1.8 3.6 -1
v 1.8 3.7 -1
v 1.9 3.1 -1
v 1.9 3.3 -1
v 1.9 3.4 -1
v 2 3.4 -1
v 2 3.9 -1
v 2 4 -1
v 1.1 3.3 -1.1
v 1.1 3.6 -1.1
v 1.7 3.3 -1.1
v 1.7 3.6 -1.1
v 0.9 3.3 -1.5
v 0.9 3.4 -1.5
v 1 3.3 -1.5
v 1 3.4 -1.5
v 0.1 3.1 -1.9
v 0.1 3.3 -1.9
v 0.1 3.4 -1.9
v 0.9 3.3 -1.9
v 0.9 3.4 -1.9
v 0.9 3.7 -1.9
v 1 3.1 -1.9
v 1 3.7 -1.9
v 0.1 2.1 -0.1
v 0.1 2.2 -0.1
v 0.1 2.3 -0.1
v 1.2 2.2 -0.1
v 1.2 2.3 -0.1
v 1.2 2.6 -0.1
v 1.3 2.1 -0.1
v 1.3 2.5 -0.1
v 1.3 2.6 -0.1
v 1.3 2.7 -0.1
v 1.4 2.5 -0.1
v 1.4 2.6 -0.1
v 1.7 2.5 -0.1
v 1.7 2.6 -0.1
v 1.8 2.1 -0.1
v 1.8 2.5 -0.1
v 1.8 2.6 -0.1
v 1.8 2.7 -0.1
v 1.9 2.1 -0.1
v 1.9 2.2 -0.1
v 1.9 2.3 -0.1
v 1.9 2.6 -0.1
v 0.1 3.1 -0.7
v 0.1 3.3 -0.7
v 0.1 3.4 -0.7
v 1.9 3.1 -0.7
v 1.9 3.3 -0.7
v 1.9 3.4 -0.7
v 0.9 3.1 -1.4
v 0.9 3.7 -1.4
v 1 3.1 -1.4
v 1 3.7 -1.4
v 0.9 3.3 -1.6
v 0.9 3.4 -1.6
v 1 3.3 -1.6
v 1 3.4 -1.6
v 0 2 -2
v 0 3.3 -2
v 0 3.4 -2
v 0.9 3.3 -2
v 0.9 3.4 -2
v 0.9 3.9 -2
v 0.9 4 -2
v 2 2 -2
v 2 3.9 -2
v 2 4 -2
v 0 2 0
v 1.3 2 0
v 1.8 2 0
v 2 2 0
v 0.1 2 -0.1
v 1.3 2 -0.1
v 1.8 2 -0.1
v 1.9 2 -0.1
v 0.1 2 -0.6
v 1.3 2 -0.6
v 1.8 2 -0.6
v 1.9 2 -0.6
v 1.3 2 -0.7
v 1.8 2 -0.7
v 1.3 2 -0.8
v 1.8 2 -0.8
v 0 2 -2
v 2 2 -2
v 0.3 2.2 -0.5
v 1.1 2.2 -0.5
v 0.3 2.2 -0.6
v 1.1 2.2 -0.6
v 1.6 2.2 -0.6
v 1.7 2.2 -0.6
v 1.6 2.2 -0.7
v 1.7 2.2 -0.7
v 1.3 2.5 0
v 1.4 2.5 0
v 1.7 2.5 0
v 1.8 2.5 0
v 1.3 2.5 -0.1
v 1.4 2.5 -0.1
v 1.7 2.5 -0.1
v 1.8 2.5 -0.1
v 1.4 2.6 0
v 1.7 2.6 0
v 1.4 2.6 -0.1
v 1.7 2.6 -0.1
v 0.3 2.7 -0.4
v 1.1 2.7 -0.4
v 0.2 2.7 -0.5
v 0.3 2.7 -0.5
v 1.1 2.7 -0.5
v 1.2 2.7 -0.5
v 0.2 2.7 -0.6
v 0.3 2.7 -0.6
v 1.1 2.7 -0.6
v 1.2 2.7 -0.6
v 1.3 2.7 -0.6
v 1.8 2.7 -0.6
v 0.3 2.7 -0.7
v 1.1 2.7 -0.7
v 1.3 2.7 -0.7
v 1.8 2.7 -0.7
v 1.1 3.2 -0.9
v 1.7 3.2 -0.9
v 1.1 3.2 -1
v 1.7 3.2 -1
v 0.9 3.3 -1.5
v 1 3.3 -1.5
v 0.9 3.3 -1.6
v 1 3.3 -1.6
v 1 3.6 -0.9
v 1.8 3.6 -0.9
v 1 3.6 -1
v 1.1 3.6 -1
v 1.7 3.6 -1
v 1.8 3.6 -1
v 1.1 3.6 -1.1
v 1.7 3.6 -1.1
v 0.9 3.7 -1.4
v 1 3.7 -1.4
v 0.9 3.7 -1.9
v 1 3.7 -1.9
v 1.3 2.1 0
v 1.8 2.1 0
v 0.1 2.1 -0.1
v 1.3 2.1 -0.1
v 1.8 2.1 -0.1
v 1.9 2.1 -0.1
v 0.1 2.1 -0.6
v 1.3 2.1 -0.6
v 1.8 2.1 -0.6
v 1.9 2.1 -0.6
v 1.3 2.1 -0.7
v 1.8 2.1 -0.7
v 0 2.3 0
v 1.2 2.3 0
v 1.9 2.3 0
v 2 2.3 0
v 0.1 2.3 -0.1
v 1.2 2.3 -0.1
v 1.9 2.3 -0.1
v 0.3 2.3 -0.5
v 1.1 2.3 -0.5
v 0 2.3 -0.6
v 0.1 2.3 -0.6
v 0.3 2.3 -0.6
v 1.1 2.3 -0.6
v 1.6 2.3 -0.6
v 1.7 2.3 -0.6
v 1.9 2.3 -0.6
v 2 2.3 -0.6
v 0.3 2.3 -0.7
v 1.1 2.3 -0.7
v 1.6 2.3 -0.7
v 1.7 2.3 -0.7
v 1.2 2.6 0
v 1.3 2.6 0
v 1.8 2.6 0
v 1.9 2.6 0
v 1.2 2.6 -0.1
v 1.3 2.6 -0.1
v 1.8 2.6 -0.1
v 1.9 2.6 -0.1
v 1.3 2.7 0
v 1.8 2.7 0
v 1.3 2.7 -0.1
v 1.8 2.7 -0.1
v 0.3 2.8 -0.4
v 1.1 2.8 -0.4
v 0.2 2.8 -0.5
v 0.3 2.8 -0.5
v 1.1 2.8 -0.5
v 1.2 2.8 -0.5
v 0.2 2.8 -0.6
v 0.3 2.8 -0.6
v 1.1 2.8 -0.6
v 1.2 2.8 -0.6
v 0.3 2.9 -0.5
v 1.1 2.9 -0.5
v 0.3 2.9 -0.6
v 1.1 2.9 -0.6
v 0.1 3.1 -0.7
v 1.9 3.1 -0.7
v 0.9 3.1 -1
v 1.9 3.1 -1
v 0.9 3.1 -1.4
v 1 3.1 -1.4
v 0.1 3.1 -1.9
v 1 3.1 -1.9
v 1.1 3.3 -0.9
v 1.7 3.3 -0.9
v 1.1 3.3 -1
v 1.7 3.3 -1
v 1.1 3.3 -1.1
v 1.7 3.3 -1.1
v 0 3.4 -0.6
v 2 3.4 -0.6
v 0.1 3.4 -0.7
v 1.9 3.4 -0.7
v 1.9 3.4 -1
v 2 3.4 -1
v 0.9 3.4 -1.5
v 1 3.4 -1.5
v 0.9 3.4 -1.6
v 1 3.4 -1.6
v 0.1 3.4 -1.9
v 0.9 3.4 -1.9
v 0 3.4 -2
v 0.9 3.4 -2
v 1 3.7 -0.9
v 1.1 3.7 -0.9
v 1.7 3.7 -0.9
v 1.8 3.7 -0.9
v 1 3.7 -1
v 1.1 3.7 -1
v 1.7 3.7 -1
v 1.8 3.7 -1
v 1.1 3.8 -0.9
v 1.7 3.8 -0.9
v 1.1 3.8 -1
v 1.7 3.8 -1
v 0.9 4 -1
v 2 4 -1
v 0.9 4 -2
v 2 4 -2

# faces
f 3/5/1 2/5/1 1/5/1
f 4/5/1 2/5/1 3/5/1
f 5/6/1 4/6/1 3/6/1
f 6/5/1 2/5/1 4/5/1
f 6/6/1 4/6/1 5/6/1
f 7/5/1 2/5/1 6/5/1
f 8/5/1 2/5/1 7/5/1
f 9/6/1 8/6/1 7/6/1
f 10/6/1 8/6/1 9/6/1
f 13/7/1 12/7/1 11/7/1
f 14/7/1 12/7/1 13/7/1
f 17/7/1 16/7/1 15/7/1
f 18/7/1 16/7/1 17/7/1
f 21/7/1 20/7/1 19/7/1
f 22/7/1 20/7/1 21/7/1
f 24/7/1 23/7/1 22/7/1
f 25/7/1 23/7/1 24/7/1
f 30/1/1 29/1/1 28/1/1
f 31/1/1 29/1/1 30/1/1
f 34/5/1 27/5/1 26/5/1
f 35/5/1 33/5/1 32/5/1
f 36/5/1 34/5/1 26/5/1
f 36/5/1 35/5/1 34/5/1
f 37/5/1 33/5/1 35/5/1
f 37/5/1 35/5/1 36/5/1
f 38/6/1 37/6/1 36/6/1
f 39/6/1 37/6/1 38/6/1
f 42/3/1 41/3/1 40/3/1
f 43/3/1 41/3/1 42/3/1
f 44/3/1 42/3/1 40/3/1
f 45/3/1 41/3/1 43/3/1
f 48/7/1 47/7/1 46/7/1
f 49/7/1 47/7/1 48/7/1
f 50/3/1 44/3/1 40/3/1
f 50/3/1 45/3/1 44/3/1
f 51/3/1 41/3/1 45/3/1
f 51/3/1 45/3/1 50/3/1
f 54/5/1 53/5/1 52/5/1
f 55/5/1 53/5/1 54/5/1
f 58/7/1 57/7/1 56/7/1
f 59/7/1 57/7/1 58/7/1
f 62/7/1 61/7/1 60/7/1
f 63/7/1 61/7/1 62/7/1
f 66/5/1 65/5/1 64/5/1
f 67/5/1 65/5/1 66/5/1
f 70/5/1 69/5/1 68/5/1
f 71/5/1 69/5/1 70/5/1
f 74/1/1 73/1/1 72/1/1
f 75/1/1 73/1/1 74/1/1
f 78/5/1 77/5/1 76/5/1
f 79/5/1 77/5/1 78/5/1
f 82/5/1 81/5/1 80/5/1
f 83/5/1 81/5/1 82/5/1
f 88/5/1 85/5/1 84/5/1
f 89/5/1 85/5/1 88/5/1
f 90/5/1 87/5/1 86/5/1
f 91/5/1 87/5/1 90/5/1
f 94/5/1 93/5/1 92/5/1
f 95/5/1 93/5/1 94/5/1
f 96/6/1 95/6/1 94/6/1
f 97/6/1 95/6/1 96/6/1
f 100/5/1 99/5/1 98/5/1
f 101/5/1 99/5/1 100/5/1
f 102/6/1 101/6/1 100/6/1
f 103/6/1 101/6/1 102/6/1
f 104/5/2 105/5/2 106/5/2
f 106/5/2 105/5/2 107/5/2
f 106/6/2 107/6/2 108/6/2
f 108/6/2 107/6/2 109/6/2
f 110/5/2 111/5/2 112/5/2
f 112/5/2 111/5/2 113/5/2
f 112/6/2 113/6/2 114/6/2
f 114/6/2 113/6/2 115/6/2
f 116/5/2 117/5/2 118/5/2
f 118/5/2 117/5/2 119/5/2
f 120/7/2 121/7/2 122/7/2
f 122/7/2 121/7/2 123/7/2
f 124/7/2 125/7/2 126/7/2
f 126/7/2 125/7/2 127/7/2
f 127/7/2 128/7/2 129/7/2
f 129/7/2 128/7/2 130/7/2
f 131/5/2 132/5/2 133/5/2
f 133/5/2 132/5/2 134/5/2
f 135/7/2 136/7/2 137/7/2
f 137/7/2 136/7/2 138/7/2
f 139/5/2 140/5/2 143/5/2
f 143/5/2 140/5/2 144/5/2
f 141/5/2 142/5/2 145/5/2
f 145/5/2 142/5/2 146/5/2
f 147/5/2 148/5/2 149/5/2
f 149/5/2 148/5/2 150/5/2
f 151/1/2 152/1/2 153/1/2
f 153/1/2 152/1/2 154/1/2
f 155/7/2 156/7/2 157/7/2
f 157/7/2 156/7/2 158/7/2
f 159/7/2 160/7/2 161/7/2
f 161/7/2 160/7/2 162/7/2
f 163/5/2 164/5/2 165/5/2
f 165/5/2 164/5/2 166/5/2
f 167/7/2 168/7/2 169/7/2
f 169/7/2 168/7/2 170/7/2
f 171/5/2 172/5/2 173/5/2
f 173/5/2 172/5/2 174/5/2
f 175/5/2 176/5/2 177/5/2
f 177/5/2 176/5/2 178/5/2
f 177/6/2 178/6/2 179/6/2
f 178/5/2 176/5/2 180/5/2
f 179/6/2 178/6/2 180/6/2
f 180/5/2 176/5/2 181/5/2
f 181/5/2 176/5/2 182/5/2
f 181/6/2 182/6/2 183/6/2
f 182/5/2 176/5/2 184/5/2
f 183/6/2 182/6/2 184/6/2
f 184/5/2 176/5/2 185/5/2
f 185/5/2 176/5/2 186/5/2
f 185/6/2 186/6/2 187/6/2
f 187/6/2 186/6/2 188/6/2
f 192/5/3 190/5/3 189/5/3
f 192/6/3 191/6/3 190/6/3
f 193/6/3 191/6/3 192/6/3
f 195/5/3 192/5/3 189/5/3
f 195/5/3 194/5/3 193/5/3
f 195/5/3 193/5/3 192/5/3
f 196/5/3 194/5/3 195/5/3
f 197/5/3 194/5/3 196/5/3
f 198/5/3 194/5/3 197/5/3
f 200/5/3 199/5/3 198/5/3
f 200/5/3 198/5/3 197/5/3
f 201/5/3 199/5/3 200/5/3
f 203/5/3 199/5/3 201/5/3
f 204/4/3 196/4/3 195/4/3
f 205/4/3 196/4/3 204/4/3
f 206/5/3 203/5/3 202/5/3
f 207/5/3 199/5/3 203/5/3
f 207/5/3 203/5/3 206/5/3
f 208/5/3 199/5/3 207/5/3
f 209/5/3 205/5/3 204/5/3
f 209/5/3 206/5/3 205/5/3
f 209/5/3 207/5/3 206/5/3
f 210/5/3 207/5/3 209/5/3
f 211/5/3 207/5/3 210/5/3
f 212/5/3 209/5/3 204/5/3
f 213/6/3 210/6/3 209/6/3
f 213/5/3 209/5/3 212/5/3
f 214/6/3 210/6/3 213/6/3
f 217/7/3 216/7/3 215/7/3
f 218/7/3 216/7/3 217/7/3
f 223/7/3 220/7/3 219/7/3
f 224/7/3 220/7/3 223/7/3
f 226/7/3 222/7/3 221/7/3
f 227/7/3 222/7/3 226/7/3
f 229/7/3 225/7/3 224/7/3
f 230/7/3 225/7/3 229/7/3
f 231/7/3 229/7/3 228/7/3
f 232/7/3 229/7/3 231/7/3
f 238/5/3 234/5/3 233/5/3
f 239/5/3 237/5/3 236/5/3
f 239/5/3 238/5/3 237/5/3
f 239/5/3 234/5/3 238/5/3
f 240/5/3 234/5/3 239/5/3
f 241/5/3 239/5/3 236/5/3
f 242/5/3 239/5/3 241/5/3
f 243/5/3 239/5/3 242/5/3
f 244/5/3 234/5/3 240/5/3
f 245/5/3 234/5/3 244/5/3
f 246/5/3 241/5/3 236/5/3
f 250/5/3 234/5/3 245/5/3
f 251/5/3 248/5/3 247/5/3
f 251/5/3 247/5/3 246/5/3
f 252/5/3 250/5/3 249/5/3
f 253/5/3 251/5/3 246/5/3
f 253/5/3 252/5/3 251/5/3
f 253/5/3 246/5/3 236/5/3
f 254/5/3 252/5/3 253/5/3
f 257/1/3 256/1/3 255/1/3
f 258/1/3 256/1/3 257/1/3
f 260/5/3 252/5/3 254/5/3
f 261/5/3 260/5/3 259/5/3
f 262/5/3 260/5/3 261/5/3
f 263/5/3 260/5/3 262/5/3
f 264/5/3 260/5/3 263/5/3
f 265/6/3 235/6/3 234/6/3
f 265/5/3 260/5/3 264/5/3
f 265/5/3 250/5/3 252/5/3
f 265/5/3 234/5/3 250/5/3
f 265/5/3 252/5/3 260/5/3
f 266/6/3 235/6/3 265/6/3
f 269/2/3 268/2/3 267/2/3
f 270/2/3 268/2/3 269/2/3
f 273/3/3 272/3/3 271/3/3
f 274/3/3 272/3/3 273/3/3
f 275/3/3 273/3/3 271/3/3
f 276/3/3 272/3/3 274/3/3
f 277/3/3 275/3/3 271/3/3
f 277/3/3 276/3/3 275/3/3
f 278/3/3 272/3/3 276/3/3
f 278/3/3 276/3/3 277/3/3
f 283/7/3 280/7/3 279/7/3
f 285/7/3 282/7/3 281/7/3
f 286/7/3 282/7/3 285/7/3
f 287/7/3 284/7/3 283/7/3
f 287/7/3 283/7/3 279/7/3
f 288/7/3 284/7/3 287/7/3
f 289/7/3 287/7/3 279/7/3
f 290/7/3 287/7/3 289/7/3
f 294/5/3 292/5/3 291/5/3
f 295/5/3 292/5/3 294/5/3
f 296/5/3 294/5/3 291/5/3
f 297/5/3 294/5/3 296/5/3
f 298/5/3 294/5/3 297/5/3
f 299/5/3 292/5/3 295/5/3
f 300/5/3 292/5/3 299/5/3
f 301/5/3 296/5/3 291/5/3
f 305/5/3 292/5/3 300/5/3
f 306/5/3 303/5/3 302/5/3
f 306/5/3 302/5/3 301/5/3
f 307/5/3 305/5/3 304/5/3
f 308/5/3 306/5/3 301/5/3
f 308/5/3 307/5/3 306/5/3
f 308/5/3 301/5/3 291/5/3
f 309/5/3 307/5/3 308/5/3
f 310/5/3 307/5/3 309/5/3
f 311/5/3 307/5/3 310/5/3
f 312/6/3 293/6/3 292/6/3
f 312/5/3 307/5/3 311/5/3
f 312/5/3 305/5/3 307/5/3
f 312/5/3 292/5/3 305/5/3
f 313/6/3 293/6/3 312/6/3
f 316/2/3 315/2/3 314/2/3
f 317/2/3 315/2/3 316/2/3
f 320/1/3 319/1/3 318/1/3
f 321/1/3 319/1/3 320/1/3
f 325/5/3 323/5/3 322/5/3
f 325/6/3 324/6/3 323/6/3
f 326/6/3 324/6/3 325/6/3
f 328/5/3 325/5/3 322/5/3
f 328/5/3 327/5/3 326/5/3
f 328/5/3 326/5/3 325/5/3
f 329/5/3 327/5/3 328/5/3
f 330/5/4 331/5/4 333/5/4
f 331/6/4 332/6/4 333/6/4
f 333/6/4 332/6/4 334/6/4
f 330/5/4 333/5/4 336/5/4
f 334/5/4 335/5/4 336/5/4
f 333/5/4 334/5/4 336/5/4
f 336/5/4 335/5/4 337/5/4
f 337/5/4 335/5/4 338/5/4
f 338/5/4 339/5/4 340/5/4
f 337/5/4 338/5/4 340/5/4
f 340/5/4 339/5/4 341/5/4
f 341/5/4 339/5/4 343/5/4
f 342/5/4 343/5/4 345/5/4
f 343/5/4 339/5/4 346/5/4
f 345/5/4 343/5/4 346/5/4
f 346/5/4 339/5/4 347/5/4
f 344/5/4 345/5/4 348/5/4
f 345/5/4 346/5/4 348/5/4
f 348/5/4 346/5/4 349/5/4
f 349/5/4 346/5/4 350/5/4
f 350/5/4 346/5/4 351/5/4
f 352/5/4 353/5/4 355/5/4
f 353/6/4 354/6/4 356/6/4
f 355/5/4 353/5/4 356/5/4
f 356/6/4 354/6/4 357/6/4
f 358/5/4 359/5/4 360/5/4
f 360/5/4 359/5/4 361/5/4
f 362/1/4 363/1/4 364/1/4
f 364/1/4 363/1/4 365/1/4
f 366/5/4 367/5/4 369/5/4
f 367/6/4 368/6/4 369/6/4
f 369/6/4 368/6/4 370/6/4
f 366/5/4 369/5/4 373/5/4
f 369/5/4 370/5/4 373/5/4
f 370/5/4 371/5/4 373/5/4
f 371/6/4 372/6/4 374/6/4
f 373/5/4 371/5/4 374/5/4
f 374/6/4 372/6/4 375/6/4
f 380/5/5 377/5/5 376/5/5
f 381/4/5 378/4/5 377/4/5
f 381/5/5 377/5/5 380/5/5
f 382/5/5 379/5/5 378/5/5
f 382/4/5 378/4/5 381/4/5
f 383/5/5 379/5/5 382/5/5
f 384/4/5 381/4/5 380/4/5
f 384/5/5 380/5/5 376/5/5
f 384/4/5 383/4/5 382/4/5
f 384/4/5 382/4/5 381/4/5
f 385/4/5 383/4/5 384/4/5
f 386/4/5 383/4/5 385/4/5
f 387/5/5 379/5/5 383/5/5
f 387/4/5 383/4/5 386/4/5
f 388/4/5 386/4/5 385/4/5
f 388/5/5 385/5/5 384/5/5
f 389/5/5 387/5/5 386/5/5
f 389/4/5 386/4/5 388/4/5
f 390/5/5 388/5/5 384/5/5
f 390/3/5 389/3/5 388/3/5
f 391/5/5 387/5/5 389/5/5
f 391/3/5 389/3/5 390/3/5
f 392/5/5 384/5/5 376/5/5
f 392/5/5 390/5/5 384/5/5
f 392/5/5 391/5/5 390/5/5
f 393/5/5 379/5/5 387/5/5
f 393/5/5 391/5/5 392/5/5
f 393/5/5 387/5/5 391/5/5
f 396/7/5 395/7/5 394/7/5
f 397/7/5 395/7/5 396/7/5
f 400/1/5 399/1/5 398/1/5
f 401/1/5 399/1/5 400/1/5
f 406/5/5 403/5/5 402/5/5
f 407/5/5 403/5/5 406/5/5
f 408/5/5 405/5/5 404/5/5
f 409/5/5 405/5/5 408/5/5
f 412/5/5 411/5/5 410/5/5
f 413/5/5 411/5/5 412/5/5
f 417/7/5 415/7/5 414/7/5
f 418/7/5 415/7/5 417/7/5
f 420/7/5 417/7/5 416/7/5
f 420/7/5 419/7/5 418/7/5
f 420/7/5 418/7/5 417/7/5
f 421/7/5 419/7/5 420/7/5
f 422/7/5 419/7/5 421/7/5
f 423/7/5 419/7/5 422/7/5
f 426/5/5 422/5/5 421/5/5
f 427/5/5 422/5/5 426/5/5
f 428/5/5 425/5/5 424/5/5
f 429/5/5 425/5/5 428/5/5
f 432/7/5 431/7/5 430/7/5
f 433/7/5 431/7/5 432/7/5
f 436/1/5 435/1/5 434/1/5
f 437/1/5 435/1/5 436/1/5
f 440/7/5 439/7/5 438/7/5
f 441/7/5 439/7/5 440/7/5
f 442/7/5 439/7/5 441/7/5
f 443/7/5 439/7/5 442/7/5
f 444/5/5 442/5/5 441/5/5
f 445/5/5 442/5/5 444/5/5
f 448/5/5 447/5/5 446/5/5
f 449/5/5 447/5/5 448/5/5
f 450/4/6 451/4/6 453/4/6
f 453/4/6 451/4/6 454/4/6
f 452/4/6 453/4/6 456/4/6
f 454/4/6 455/4/6 456/4/6
f 453/4/6 454/4/6 456/4/6
f 456/4/6 455/4/6 457/4/6
f 457/4/6 455/4/6 458/4/6
f 458/4/6 455/4/6 459/4/6
f 457/4/6 458/4/6 460/4/6
f 460/4/6 458/4/6 461/4/6
f 462/6/6 463/6/6 466/6/6
f 466/6/6 463/6/6 467/6/6
f 464/6/6 465/6/6 468/6/6
f 462/6/6 466/6/6 471/6/6
f 471/6/6 466/6/6 472/6/6
f 469/7/6 470/7/6 473/7/6
f 473/7/6 470/7/6 474/7/6
f 468/6/6 465/6/6 477/6/6
f 477/6/6 465/6/6 478/6/6
f 473/5/6 474/5/6 479/5/6
f 479/5/6 474/5/6 480/5/6
f 475/1/6 476/1/6 481/1/6
f 481/1/6 476/1/6 482/1/6
f 483/5/6 484/5/6 487/5/6
f 487/5/6 484/5/6 488/5/6
f 485/5/6 486/5/6 489/5/6
f 489/5/6 486/5/6 490/5/6
f 491/5/6 492/5/6 493/5/6
f 493/5/6 492/5/6 494/5/6
f 495/7/6 496/7/6 498/7/6
f 498/7/6 496/7/6 499/7/6
f 497/7/6 498/7/6 501/7/6
f 501/7/6 498/7/6 502/7/6
f 499/7/6 500/7/6 503/7/6
f 503/7/6 500/7/6 504/7/6
f 505/7/6 506/7/6 507/7/6
f 507/7/6 506/7/6 508/7/6
f 509/5/6 510/5/6 511/5/6
f 511/5/6 510/5/6 512/5/6
f 509/5/6 511/5/6 513/5/6
f 509/5/6 513/5/6 515/5/6
f 513/5/6 514/5/6 515/5/6
f 515/5/6 514/5/6 516/5/6
f 517/7/6 518/7/6 519/7/6
f 519/7/6 518/7/6 520/7/6
f 519/5/6 520/5/6 521/5/6
f 521/5/6 520/5/6 522/5/6
f 523/6/6 524/6/6 525/6/6
f 525/6/6 524/6/6 526/6/6
f 526/6/6 524/6/6 527/6/6
f 527/6/6 524/6/6 528/6/6
f 529/1/6 530/1/6 531/1/6
f 531/1/6 530/1/6 532/1/6
f 523/6/6 525/6/6 533/6/6
f 523/6/6 533/6/6 535/6/6
f 533/6/6 534/6/6 535/6/6
f 535/6/6 534/6/6 536/6/6
f 537/7/6 538/7/6 541/7/6
f 541/7/6 538/7/6 542/7/6
f 539/7/6 540/7/6 543/7/6
f 543/7/6 540/7/6 544/7/6
f 545/7/6 546/7/6 547/7/6
f 547/7/6 546/7/6 548/7/6
f 549/6/6 550/6/6 551/6/6
f 551/6/6 550/6/6 552/6/6
