# MagicaVoxel @ Ephtracy

# group
o 

# material
mtllib 20_House_10.mtl
usemtl palette

# normals
vn -1 0 0
vn 1 0 0
vn 0 0 1
vn 0 0 -1
vn 0 -1 0
vn 0 1 0

# texcoords
vt 0.0175781 0.5
vt 0.705078 0.5
vt 0.857422 0.5
vt 0.962891 0.5
vt 0.982422 0.5

# verts
v 0 2 0
v 0 2 -2
v 0 2.2 0
v 0 2.2 -1.1
v 0 2.3 0
v 0 2.3 -1.1
v 0 3 -1.1
v 0 3 -1.2
v 0 3 -1.5
v 0 3.1 -1.2
v 0 3.1 -1.5
v 0 3.2 -1.1
v 0 3.2 -1.5
v 0 3.9 -1.5
v 0 3.9 -2
v 0 4 -1.5
v 0 4 -2
v 1 2.3 -1.1
v 1 2.3 -1.2
v 1 2.6 -1.1
v 1 2.6 -1.2
v 1 3 -1.5
v 1 3 -1.7
v 1 3.6 -1.5
v 1 3.6 -1.7
v 1.4 2.2 -1.1
v 1.4 2.2 -1.2
v 1.4 2.3 -1.1
v 1.4 2.3 -1.2
v 1.5 2 -1.1
v 1.5 2 -1.2
v 1.5 2.2 -1.1
v 1.5 2.2 -1.2
v 1.5 2.3 -1.1
v 1.5 2.3 -1.2
v 1.5 2.6 -1.1
v 1.5 2.6 -1.2
v 1.6 2 0
v 1.6 2 -0.1
v 1.6 2.2 0
v 1.6 2.2 -0.1
v 1.6 2.3 0
v 1.6 2.3 -0.1
v 1.6 3.1 -1.5
v 1.6 3.1 -1.6
v 1.6 3.2 -1.5
v 1.6 3.2 -1.6
v 1.7 3 -1.5
v 1.7 3 -1.6
v 1.7 3.1 -1.5
v 1.7 3.1 -1.6
v 1.7 3.2 -1.5
v 1.7 3.2 -1.6
v 1.7 3.5 -1.5
v 1.7 3.5 -1.6
v 1.9 2 -0.1
v 1.9 2 -1.1
v 1.9 2.2 -0.1
v 1.9 2.2 -1.1
v 1.9 2.3 -0.1
v 1.9 2.3 -1.1
v 1.9 3 -1.1
v 1.9 3 -1.2
v 1.9 3.1 -1.1
v 1.9 3.1 -1.2
v 1.9 3.1 -1.5
v 1.9 3.2 -1.2
v 1.9 3.2 -1.5
v 0.1 2 -0.1
v 0.1 2 -1.1
v 0.1 2.2 -0.1
v 0.1 2.2 -1.1
v 0.1 2.3 -0.1
v 0.1 2.3 -1.1
v 0.1 3 -1.1
v 0.1 3 -1.2
v 0.1 3.1 -1.1
v 0.1 3.1 -1.2
v 0.1 3.1 -1.5
v 0.1 3.2 -1.2
v 0.1 3.2 -1.5
v 0.2 2.3 -1.1
v 0.2 2.3 -1.2
v 0.2 2.6 -1.1
v 0.2 2.6 -1.2
v 0.2 3 -1.5
v 0.2 3 -1.6
v 0.2 3.6 -1.5
v 0.2 3.6 -1.6
v 0.6 3 -1.6
v 0.6 3 -1.7
v 0.6 3.6 -1.6
v 0.6 3.6 -1.7
v 1 2 0
v 1 2 -0.1
v 1 2.2 0
v 1 2.2 -0.1
v 1 2.3 0
v 1 2.3 -0.1
v 1.1 2 -1.1
v 1.1 2 -1.2
v 1.1 2.6 -1.1
v 1.1 2.6 -1.2
v 1.3 3 -1.5
v 1.3 3 -1.6
v 1.3 3.5 -1.5
v 1.3 3.5 -1.6
v 2 2 0
v 2 2 -2
v 2 2.2 0
v 2 2.2 -1.1
v 2 2.3 0
v 2 2.3 -1.1
v 2 3 -1.1
v 2 3 -1.2
v 2 3 -1.5
v 2 3.1 -1.2
v 2 3.1 -1.5
v 2 3.2 -1.1
v 2 3.2 -1.5
v 2 3.9 -1.5
v 2 3.9 -2
v 2 4 -1.5
v 2 4 -2
v 0 2 0
v 0 2.2 0
v 0 2.3 0
v 1 2 0
v 1 2.2 0
v 1 2.3 0
v 1.6 2 0
v 1.6 2.2 0
v 1.6 2.3 0
v 2 2 0
v 2 2.2 0
v 2 2.3 0
v 0 2.3 -1.1
v 0 3 -1.1
v 0 3.2 -1.1
v 0.1 2 -1.1
v 0.1 2.2 -1.1
v 0.1 2.3 -1.1
v 0.1 3 -1.1
v 0.1 3.1 -1.1
v 0.2 2.3 -1.1
v 0.2 2.6 -1.1
v 1 2.3 -1.1
v 1 2.6 -1.1
v 1.1 2 -1.1
v 1.1 2.6 -1.1
v 1.4 2.2 -1.1
v 1.4 2.3 -1.1
v 1.5 2 -1.1
v 1.5 2.2 -1.1
v 1.5 2.3 -1.1
v 1.5 2.6 -1.1
v 1.9 2 -1.1
v 1.9 2.2 -1.1
v 1.9 2.3 -1.1
v 1.9 3 -1.1
v 1.9 3.1 -1.1
v 2 2.3 -1.1
v 2 3 -1.1
v 2 3.2 -1.1
v 0.2 2.3 -1.2
v 0.2 2.6 -1.2
v 1 2.3 -1.2
v 1 2.6 -1.2
v 1.1 2 -1.2
v 1.1 2.6 -1.2
v 1.4 2.2 -1.2
v 1.4 2.3 -1.2
v 1.5 2 -1.2
v 1.5 2.2 -1.2
v 1.5 2.3 -1.2
v 1.5 2.6 -1.2
v 0 3 -1.5
v 0 3.1 -1.5
v 0 3.2 -1.5
v 0 3.9 -1.5
v 0 4 -1.5
v 0.1 3.1 -1.5
v 0.1 3.2 -1.5
v 0.2 3 -1.5
v 0.2 3.6 -1.5
v 1 3 -1.5
v 1 3.6 -1.5
v 1.3 3 -1.5
v 1.3 3.5 -1.5
v 1.6 3.1 -1.5
v 1.6 3.2 -1.5
v 1.7 3 -1.5
v 1.7 3.1 -1.5
v 1.7 3.2 -1.5
v 1.7 3.5 -1.5
v 1.9 3.1 -1.5
v 1.9 3.2 -1.5
v 2 3 -1.5
v 2 3.1 -1.5
v 2 3.2 -1.5
v 2 3.9 -1.5
v 2 4 -1.5
v 0.2 3 -1.6
v 0.2 3.6 -1.6
v 0.5 3 -1.6
v 0.5 3.6 -1.6
v 0.6 3 -1.6
v 0.6 3.6 -1.6
v 1.3 3 -1.6
v 1.3 3.5 -1.6
v 1.6 3.1 -1.6
v 1.6 3.2 -1.6
v 1.7 3 -1.6
v 1.7 3.1 -1.6
v 1.7 3.2 -1.6
v 1.7 3.5 -1.6
v 0.6 3 -1.7
v 0.6 3.6 -1.7
v 1 3 -1.7
v 1 3.6 -1.7
v 0.1 2 -0.1
v 0.1 2.2 -0.1
v 0.1 2.3 -0.1
v 1 2 -0.1
v 1 2.2 -0.1
v 1 2.3 -0.1
v 1.6 2 -0.1
v 1.6 2.2 -0.1
v 1.6 2.3 -0.1
v 1.9 2 -0.1
v 1.9 2.2 -0.1
v 1.9 2.3 -0.1
v 0 3 -1.2
v 0 3.1 -1.2
v 0.1 3 -1.2
v 0.1 3.1 -1.2
v 0.1 3.2 -1.2
v 1.9 3 -1.2
v 1.9 3.1 -1.2
v 1.9 3.2 -1.2
v 2 3 -1.2
v 2 3.1 -1.2
v 0 2 -2
v 0 3.9 -2
v 0 4 -2
v 2 2 -2
v 2 3.9 -2
v 2 4 -2
v 0 2 0
v 1 2 0
v 1.6 2 0
v 2 2 0
v 0.1 2 -0.1
v 1 2 -0.1
v 1.6 2 -0.1
v 1.9 2 -0.1
v 0.1 2 -1.1
v 1.1 2 -1.1
v 1.5 2 -1.1
v 1.9 2 -1.1
v 1.1 2 -1.2
v 1.5 2 -1.2
v 1.1 2 -1.3
v 1.5 2 -1.3
v 0 2 -2
v 2 2 -2
v 1.4 2.2 -1.1
v 1.5 2.2 -1.1
v 1.4 2.2 -1.2
v 1.5 2.2 -1.2
v 0.2 2.6 -1.1
v 1 2.6 -1.1
v 1.1 2.6 -1.1
v 1.5 2.6 -1.1
v 0.2 2.6 -1.2
v 1 2.6 -1.2
v 1.1 2.6 -1.2
v 1.5 2.6 -1.2
v 0.1 3.1 -1.1
v 1.9 3.1 -1.1
v 0 3.1 -1.2
v 0.1 3.1 -1.2
v 1.9 3.1 -1.2
v 2 3.1 -1.2
v 0 3.1 -1.5
v 0.1 3.1 -1.5
v 1.6 3.1 -1.5
v 1.7 3.1 -1.5
v 1.9 3.1 -1.5
v 2 3.1 -1.5
v 1.6 3.1 -1.6
v 1.7 3.1 -1.6
v 1.3 3.5 -1.5
v 1.7 3.5 -1.5
v 1.3 3.5 -1.6
v 1.7 3.5 -1.6
v 0.2 3.6 -1.5
v 1 3.6 -1.5
v 0.2 3.6 -1.6
v 0.5 3.6 -1.6
v 0.6 3.6 -1.6
v 0.6 3.6 -1.7
v 1 3.6 -1.7
v 0 2.3 0
v 1 2.3 0
v 1.6 2.3 0
v 2 2.3 0
v 0.1 2.3 -0.1
v 1 2.3 -0.1
v 1.6 2.3 -0.1
v 1.9 2.3 -0.1
v 0 2.3 -1.1
v 0.1 2.3 -1.1
v 0.2 2.3 -1.1
v 1 2.3 -1.1
v 1.4 2.3 -1.1
v 1.5 2.3 -1.1
v 1.9 2.3 -1.1
v 2 2.3 -1.1
v 0.2 2.3 -1.2
v 1 2.3 -1.2
v 1.4 2.3 -1.2
v 1.5 2.3 -1.2
v 0.1 3 -1.1
v 1.9 3 -1.1
v 0 3 -1.2
v 0.1 3 -1.2
v 1.9 3 -1.2
v 2 3 -1.2
v 0 3 -1.5
v 0.2 3 -1.5
v 1 3 -1.5
v 1.3 3 -1.5
v 1.7 3 -1.5
v 2 3 -1.5
v 0.2 3 -1.6
v 0.5 3 -1.6
v 0.6 3 -1.6
v 1.3 3 -1.6
v 1.7 3 -1.6
v 0.6 3 -1.7
v 1 3 -1.7
v 0 3.2 -1.1
v 2 3.2 -1.1
v 0.1 3.2 -1.2
v 1.9 3.2 -1.2
v 0 3.2 -1.5
v 0.1 3.2 -1.5
v 1.6 3.2 -1.5
v 1.7 3.2 -1.5
v 1.9 3.2 -1.5
v 2 3.2 -1.5
v 1.6 3.2 -1.6
v 1.7 3.2 -1.6
v 0 4 -1.5
v 2 4 -1.5
v 0 4 -2
v 2 4 -2

# faces
f 3/4/1 2/4/1 1/4/1
f 4/4/1 2/4/1 3/4/1
f 5/5/1 4/5/1 3/5/1
f 6/4/1 2/4/1 4/4/1
f 6/5/1 4/5/1 5/5/1
f 7/4/1 2/4/1 6/4/1
f 8/4/1 2/4/1 7/4/1
f 9/4/1 2/4/1 8/4/1
f 10/5/1 8/5/1 7/5/1
f 11/4/1 2/4/1 9/4/1
f 12/5/1 10/5/1 7/5/1
f 12/5/1 11/5/1 10/5/1
f 13/4/1 2/4/1 11/4/1
f 13/5/1 11/5/1 12/5/1
f 14/4/1 2/4/1 13/4/1
f 15/4/1 2/4/1 14/4/1
f 16/5/1 15/5/1 14/5/1
f 17/5/1 15/5/1 16/5/1
f 20/4/1 19/4/1 18/4/1
f 21/4/1 19/4/1 20/4/1
f 24/4/1 23/4/1 22/4/1
f 25/4/1 23/4/1 24/4/1
f 28/1/1 27/1/1 26/1/1
f 29/1/1 27/1/1 28/1/1
f 32/4/1 31/4/1 30/4/1
f 33/4/1 31/4/1 32/4/1
f 36/4/1 35/4/1 34/4/1
f 37/4/1 35/4/1 36/4/1
f 40/4/1 39/4/1 38/4/1
f 41/4/1 39/4/1 40/4/1
f 42/5/1 41/5/1 40/5/1
f 43/5/1 41/5/1 42/5/1
f 46/1/1 45/1/1 44/1/1
f 47/1/1 45/1/1 46/1/1
f 50/4/1 49/4/1 48/4/1
f 51/4/1 49/4/1 50/4/1
f 54/4/1 53/4/1 52/4/1
f 55/4/1 53/4/1 54/4/1
f 58/4/1 57/4/1 56/4/1
f 59/4/1 57/4/1 58/4/1
f 60/5/1 59/5/1 58/5/1
f 61/5/1 59/5/1 60/5/1
f 64/5/1 63/5/1 62/5/1
f 65/5/1 63/5/1 64/5/1
f 67/5/1 66/5/1 65/5/1
f 68/5/1 66/5/1 67/5/1
f 69/4/2 70/4/2 71/4/2
f 71/4/2 70/4/2 72/4/2
f 71/5/2 72/5/2 73/5/2
f 73/5/2 72/5/2 74/5/2
f 75/5/2 76/5/2 77/5/2
f 77/5/2 76/5/2 78/5/2
f 78/5/2 79/5/2 80/5/2
f 80/5/2 79/5/2 81/5/2
f 82/4/2 83/4/2 84/4/2
f 84/4/2 83/4/2 85/4/2
f 86/4/2 87/4/2 88/4/2
f 88/4/2 87/4/2 89/4/2
f 90/5/2 91/5/2 92/5/2
f 92/5/2 91/5/2 93/5/2
f 94/4/2 95/4/2 96/4/2
f 96/4/2 95/4/2 97/4/2
f 96/5/2 97/5/2 98/5/2
f 98/5/2 97/5/2 99/5/2
f 100/4/2 101/4/2 102/4/2
f 102/4/2 101/4/2 103/4/2
f 104/4/2 105/4/2 106/4/2
f 106/4/2 105/4/2 107/4/2
f 108/4/2 109/4/2 110/4/2
f 110/4/2 109/4/2 111/4/2
f 110/5/2 111/5/2 112/5/2
f 111/4/2 109/4/2 113/4/2
f 112/5/2 111/5/2 113/5/2
f 113/4/2 109/4/2 114/4/2
f 114/4/2 109/4/2 115/4/2
f 115/4/2 109/4/2 116/4/2
f 114/5/2 115/5/2 117/5/2
f 116/4/2 109/4/2 118/4/2
f 114/5/2 117/5/2 119/5/2
f 117/5/2 118/5/2 119/5/2
f 118/4/2 109/4/2 120/4/2
f 119/5/2 118/5/2 120/5/2
f 120/4/2 109/4/2 121/4/2
f 121/4/2 109/4/2 122/4/2
f 121/5/2 122/5/2 123/5/2
f 123/5/2 122/5/2 124/5/2
f 128/4/3 126/4/3 125/4/3
f 129/5/3 127/5/3 126/5/3
f 129/4/3 126/4/3 128/4/3
f 130/5/3 127/5/3 129/5/3
f 134/4/3 132/4/3 131/4/3
f 135/5/3 133/5/3 132/5/3
f 135/4/3 132/4/3 134/4/3
f 136/5/3 133/5/3 135/5/3
f 142/4/3 138/4/3 137/4/3
f 143/5/3 139/5/3 138/5/3
f 143/4/3 138/4/3 142/4/3
f 144/5/3 139/5/3 143/5/3
f 145/4/3 141/4/3 140/4/3
f 145/4/3 142/4/3 141/4/3
f 145/4/3 143/4/3 142/4/3
f 146/4/3 143/4/3 145/4/3
f 147/4/3 145/4/3 140/4/3
f 148/4/3 143/4/3 146/4/3
f 149/4/3 147/4/3 140/4/3
f 149/4/3 148/4/3 147/4/3
f 150/4/3 143/4/3 148/4/3
f 150/4/3 148/4/3 149/4/3
f 154/1/3 152/1/3 151/1/3
f 155/1/3 152/1/3 154/1/3
f 156/4/3 143/4/3 150/4/3
f 157/4/3 155/4/3 154/4/3
f 157/4/3 156/4/3 155/4/3
f 157/4/3 154/4/3 153/4/3
f 158/4/3 156/4/3 157/4/3
f 159/4/3 156/4/3 158/4/3
f 160/4/3 143/4/3 156/4/3
f 160/4/3 156/4/3 159/4/3
f 161/5/3 139/5/3 144/5/3
f 162/4/3 160/4/3 159/4/3
f 163/5/3 161/5/3 160/5/3
f 163/4/3 160/4/3 162/4/3
f 164/5/3 139/5/3 161/5/3
f 164/5/3 161/5/3 163/5/3
f 167/2/3 166/2/3 165/2/3
f 168/2/3 166/2/3 167/2/3
f 171/3/3 170/3/3 169/3/3
f 172/3/3 170/3/3 171/3/3
f 173/3/3 171/3/3 169/3/3
f 174/3/3 171/3/3 173/3/3
f 175/3/3 170/3/3 172/3/3
f 176/3/3 170/3/3 175/3/3
f 182/4/3 178/4/3 177/4/3
f 183/4/3 180/4/3 179/4/3
f 184/4/3 182/4/3 177/4/3
f 184/4/3 183/4/3 182/4/3
f 185/4/3 180/4/3 183/4/3
f 185/4/3 183/4/3 184/4/3
f 187/4/3 180/4/3 185/4/3
f 188/4/3 187/4/3 186/4/3
f 189/4/3 187/4/3 188/4/3
f 193/1/3 191/1/3 190/1/3
f 194/1/3 191/1/3 193/1/3
f 195/4/3 187/4/3 189/4/3
f 196/4/3 194/4/3 193/4/3
f 196/4/3 195/4/3 194/4/3
f 196/4/3 193/4/3 192/4/3
f 197/4/3 195/4/3 196/4/3
f 198/4/3 196/4/3 192/4/3
f 199/4/3 196/4/3 198/4/3
f 200/4/3 195/4/3 197/4/3
f 201/5/3 181/5/3 180/5/3
f 201/4/3 195/4/3 200/4/3
f 201/4/3 180/4/3 187/4/3
f 201/4/3 187/4/3 195/4/3
f 202/5/3 181/5/3 201/5/3
f 205/2/3 204/2/3 203/2/3
f 206/2/3 204/2/3 205/2/3
f 207/5/3 206/5/3 205/5/3
f 208/5/3 206/5/3 207/5/3
f 211/3/3 210/3/3 209/3/3
f 212/3/3 210/3/3 211/3/3
f 213/3/3 211/3/3 209/3/3
f 214/3/3 211/3/3 213/3/3
f 215/3/3 210/3/3 212/3/3
f 216/3/3 210/3/3 215/3/3
f 219/2/3 218/2/3 217/2/3
f 220/2/3 218/2/3 219/2/3
f 221/4/4 222/4/4 224/4/4
f 222/5/4 223/5/4 225/5/4
f 224/4/4 222/4/4 225/4/4
f 225/5/4 223/5/4 226/5/4
f 227/4/4 228/4/4 230/4/4
f 228/5/4 229/5/4 231/5/4
f 230/4/4 228/4/4 231/4/4
f 231/5/4 229/5/4 232/5/4
f 233/5/4 234/5/4 235/5/4
f 235/5/4 234/5/4 236/5/4
f 236/5/4 237/5/4 239/5/4
f 239/5/4 237/5/4 240/5/4
f 238/5/4 239/5/4 241/5/4
f 241/5/4 239/5/4 242/5/4
f 243/4/4 244/4/4 246/4/4
f 244/5/4 245/5/4 247/5/4
f 246/4/4 244/4/4 247/4/4
f 247/5/4 245/5/4 248/5/4
f 253/4/5 250/4/5 249/4/5
f 254/4/5 250/4/5 253/4/5
f 255/4/5 252/4/5 251/4/5
f 256/4/5 252/4/5 255/4/5
f 257/4/5 253/4/5 249/4/5
f 260/4/5 252/4/5 256/4/5
f 261/4/5 258/4/5 257/4/5
f 262/4/5 260/4/5 259/4/5
f 263/4/5 261/4/5 257/4/5
f 263/3/5 262/3/5 261/3/5
f 264/4/5 260/4/5 262/4/5
f 264/3/5 262/3/5 263/3/5
f 265/4/5 263/4/5 257/4/5
f 265/4/5 257/4/5 249/4/5
f 265/4/5 264/4/5 263/4/5
f 266/4/5 260/4/5 264/4/5
f 266/4/5 264/4/5 265/4/5
f 266/4/5 252/4/5 260/4/5
f 269/1/5 268/1/5 267/1/5
f 270/1/5 268/1/5 269/1/5
f 275/4/5 272/4/5 271/4/5
f 276/4/5 272/4/5 275/4/5
f 277/4/5 274/4/5 273/4/5
f 278/4/5 274/4/5 277/4/5
f 282/5/5 280/5/5 279/5/5
f 283/5/5 280/5/5 282/5/5
f 285/5/5 282/5/5 281/5/5
f 286/5/5 282/5/5 285/5/5
f 289/5/5 284/5/5 283/5/5
f 290/5/5 284/5/5 289/5/5
f 291/1/5 288/1/5 287/1/5
f 292/1/5 288/1/5 291/1/5
f 295/4/5 294/4/5 293/4/5
f 296/4/5 294/4/5 295/4/5
f 299/4/5 298/4/5 297/4/5
f 300/4/5 298/4/5 299/4/5
f 301/4/5 298/4/5 300/4/5
f 302/4/5 298/4/5 301/4/5
f 303/4/5 298/4/5 302/4/5
f 304/5/6 305/5/6 308/5/6
f 308/5/6 305/5/6 309/5/6
f 306/5/6 307/5/6 310/5/6
f 310/5/6 307/5/6 311/5/6
f 304/5/6 308/5/6 312/5/6
f 312/5/6 308/5/6 313/5/6
f 311/5/6 307/5/6 318/5/6
f 318/5/6 307/5/6 319/5/6
f 314/4/6 315/4/6 320/4/6
f 320/4/6 315/4/6 321/4/6
f 316/1/6 317/1/6 322/1/6
f 322/1/6 317/1/6 323/1/6
f 324/4/6 325/4/6 327/4/6
f 327/4/6 325/4/6 328/4/6
f 326/4/6 327/4/6 330/4/6
f 328/4/6 329/4/6 330/4/6
f 327/4/6 328/4/6 330/4/6
f 330/4/6 329/4/6 331/4/6
f 331/4/6 329/4/6 332/4/6
f 332/4/6 329/4/6 333/4/6
f 333/4/6 329/4/6 334/4/6
f 334/4/6 329/4/6 335/4/6
f 331/4/6 332/4/6 336/4/6
f 336/4/6 332/4/6 337/4/6
f 337/4/6 332/4/6 338/4/6
f 333/4/6 334/4/6 339/4/6
f 339/4/6 334/4/6 340/4/6
f 338/4/6 332/4/6 341/4/6
f 341/4/6 332/4/6 342/4/6
f 343/5/6 344/5/6 345/5/6
f 345/5/6 344/5/6 346/5/6
f 343/5/6 345/5/6 347/5/6
f 347/5/6 345/5/6 348/5/6
f 346/5/6 344/5/6 351/5/6
f 351/5/6 344/5/6 352/5/6
f 349/1/6 350/1/6 353/1/6
f 353/1/6 350/1/6 354/1/6
f 355/5/6 356/5/6 357/5/6
f 357/5/6 356/5/6 358/5/6
