# MagicaVoxel @ Ephtracy

# group
o 

# material
mtllib 20_House_04.mtl
usemtl palette

# normals
vn -1 0 0
vn 1 0 0
vn 0 0 1
vn 0 0 -1
vn 0 -1 0
vn 0 1 0

# texcoords
vt 0.0917969 0.5
vt 0.373047 0.5
vt 0.587891 0.5
vt 0.896484 0.5
vt 0.962891 0.5
vt 0.982422 0.5
vt 0.990234 0.5

# verts
v 0 2 0
v 0 2 -0.4
v 0 2 -0.5
v 0 2 -0.8
v 0 2 -2
v 0 2.1 0
v 0 2.1 -0.4
v 0 2.1 -0.5
v 0 2.1 -0.8
v 0 2.9 0
v 0 2.9 -0.2
v 0 3 0
v 0 3 -0.1
v 0 3 -0.2
v 0 3 -0.4
v 0 3 -0.5
v 0 3 -0.8
v 0 3 -2
v 0 3.1 -0.1
v 0 3.1 -0.5
v 0 3.2 -0.5
v 0 3.2 -0.8
v 0 3.9 -0.8
v 0 3.9 -0.9
v 0 4 -0.9
v 0 4 -2
v 0.1 3.3 -0.7
v 0.1 3.3 -0.8
v 0.1 3.6 -0.7
v 0.1 3.6 -0.8
v 0.2 2.1 -0.4
v 0.2 2.1 -0.5
v 0.2 3 -0.4
v 0.2 3 -0.5
v 0.4 2.1 -0.4
v 0.4 2.1 -0.5
v 0.4 2.3 -0.9
v 0.4 2.3 -1
v 0.4 2.7 -0.9
v 0.4 2.7 -1
v 0.4 3 -0.4
v 0.4 3 -0.5
v 0.6 2.1 -0.4
v 0.6 2.1 -0.5
v 0.6 3 -0.4
v 0.6 3 -0.5
v 0.8 3.4 -0.7
v 0.8 3.4 -0.8
v 0.8 3.5 -0.7
v 0.8 3.5 -0.8
v 0.9 2.4 -0.9
v 0.9 2.4 -1
v 0.9 2.7 -0.9
v 0.9 2.7 -1
v 1 2.1 -0.8
v 1 2.1 -0.9
v 1 2.1 -1.2
v 1 2.4 -0.9
v 1 2.4 -1
v 1 2.7 -0.9
v 1 2.7 -1
v 1 2.8 -0.8
v 1 2.8 -0.9
v 1 2.8 -1
v 1 2.8 -1.2
v 1.1 3.3 -0.7
v 1.1 3.3 -0.8
v 1.1 3.6 -0.7
v 1.1 3.6 -0.8
v 1.4 2.2 -0.8
v 1.4 2.2 -0.9
v 1.4 2.4 -0.8
v 1.4 2.4 -0.9
v 1.5 2.1 -0.4
v 1.5 2.1 -0.8
v 1.5 2.3 -0.4
v 1.5 2.3 -0.8
v 1.8 3.4 -0.7
v 1.8 3.4 -0.8
v 1.8 3.5 -0.7
v 1.8 3.5 -0.8
v 1.9 2.2 -0.5
v 1.9 2.2 -0.8
v 1.9 2.3 -0.5
v 1.9 2.3 -0.8
v 1.9 2.5 -0.8
v 1.9 2.5 -0.9
v 1.9 2.8 -0.8
v 1.9 2.8 -0.9
v 0.1 2.1 -0.4
v 0.1 2.1 -0.5
v 0.1 3 -0.4
v 0.1 3 -0.5
v 0.2 2.1 -0.8
v 0.2 2.1 -1.2
v 0.2 2.4 -0.9
v 0.2 2.4 -1
v 0.2 2.7 -0.9
v 0.2 2.7 -1
v 0.2 2.8 -0.8
v 0.2 2.8 -0.9
v 0.2 2.8 -1
v 0.2 2.8 -1.2
v 0.2 3.4 -0.7
v 0.2 3.4 -0.8
v 0.2 3.5 -0.7
v 0.2 3.5 -0.8
v 0.3 2.1 -0.4
v 0.3 2.1 -0.5
v 0.3 2.4 -0.9
v 0.3 2.4 -1
v 0.3 2.7 -0.9
v 0.3 2.7 -1
v 0.3 3 -0.4
v 0.3 3 -0.5
v 0.5 2.1 -0.4
v 0.5 2.1 -0.5
v 0.5 3 -0.4
v 0.5 3 -0.5
v 0.7 2.1 -0.4
v 0.7 2.1 -0.5
v 0.7 3 -0.4
v 0.7 3 -0.5
v 0.8 2.3 -0.9
v 0.8 2.3 -1
v 0.8 2.7 -0.9
v 0.8 2.7 -1
v 0.9 3.3 -0.7
v 0.9 3.3 -0.8
v 0.9 3.6 -0.7
v 0.9 3.6 -0.8
v 1 2.9 0
v 1 2.9 -0.2
v 1 3 0
v 1 3 -0.1
v 1 3 -0.2
v 1 3 -0.8
v 1 3.1 -0.1
v 1 3.1 -0.5
v 1 3.2 -0.5
v 1 3.2 -0.8
v 1.2 2.2 -0.8
v 1.2 2.2 -0.9
v 1.2 2.4 -0.8
v 1.2 2.4 -0.9
v 1.2 3.4 -0.7
v 1.2 3.4 -0.8
v 1.2 3.5 -0.7
v 1.2 3.5 -0.8
v 1.4 2.5 -0.8
v 1.4 2.5 -0.9
v 1.4 2.8 -0.8
v 1.4 2.8 -0.9
v 1.6 2.2 -0.5
v 1.6 2.2 -0.8
v 1.6 2.3 -0.5
v 1.6 2.3 -0.8
v 1.9 3.3 -0.7
v 1.9 3.3 -0.8
v 1.9 3.6 -0.7
v 1.9 3.6 -0.8
v 2 2 0
v 2 2 -0.4
v 2 2 -0.8
v 2 2 -2
v 2 2.1 0
v 2 2.1 -0.4
v 2 2.3 -0.4
v 2 2.3 -0.8
v 2 3 -0.8
v 2 3 -2
v 2 3.9 -0.8
v 2 3.9 -0.9
v 2 4 -0.9
v 2 4 -2
v 0 2 0
v 0 2.1 0
v 0 2.9 0
v 0 3 0
v 1 2.9 0
v 1 3 0
v 2 2 0
v 2 2.1 0
v 0 3 -0.1
v 0 3.1 -0.1
v 1 3 -0.1
v 1 3.1 -0.1
v 0 2.1 -0.4
v 0 3 -0.4
v 0.1 2.1 -0.4
v 0.1 3 -0.4
v 0.2 2.1 -0.4
v 0.2 3 -0.4
v 0.3 2.1 -0.4
v 0.3 3 -0.4
v 0.4 2.1 -0.4
v 0.4 3 -0.4
v 0.5 2.1 -0.4
v 0.5 3 -0.4
v 0.6 2.1 -0.4
v 0.6 3 -0.4
v 0.7 2.1 -0.4
v 0.7 3 -0.4
v 1.5 2.1 -0.4
v 1.5 2.3 -0.4
v 1.6 2.1 -0.4
v 1.6 2.2 -0.4
v 1.8 2.1 -0.4
v 1.8 2.2 -0.4
v 2 2.1 -0.4
v 2 2.3 -0.4
v 0 3.1 -0.5
v 0 3.2 -0.5
v 1 3.1 -0.5
v 1 3.2 -0.5
v 0.1 3.3 -0.7
v 0.1 3.6 -0.7
v 0.2 3.4 -0.7
v 0.2 3.5 -0.7
v 0.8 3.4 -0.7
v 0.8 3.5 -0.7
v 0.9 3.3 -0.7
v 0.9 3.6 -0.7
v 1.1 3.3 -0.7
v 1.1 3.6 -0.7
v 1.2 3.4 -0.7
v 1.2 3.5 -0.7
v 1.8 3.4 -0.7
v 1.8 3.5 -0.7
v 1.9 3.3 -0.7
v 1.9 3.6 -0.7
v 0 2.1 -0.8
v 0 3 -0.8
v 0 3.2 -0.8
v 0 3.9 -0.8
v 0.1 3.3 -0.8
v 0.1 3.6 -0.8
v 0.2 2.1 -0.8
v 0.2 2.8 -0.8
v 0.2 3.4 -0.8
v 0.2 3.5 -0.8
v 0.8 3.4 -0.8
v 0.8 3.5 -0.8
v 0.9 3.3 -0.8
v 0.9 3.6 -0.8
v 1 2.1 -0.8
v 1 2.8 -0.8
v 1 3 -0.8
v 1 3.2 -0.8
v 1.1 3.3 -0.8
v 1.1 3.6 -0.8
v 1.2 2.2 -0.8
v 1.2 2.4 -0.8
v 1.2 3.4 -0.8
v 1.2 3.5 -0.8
v 1.4 2.2 -0.8
v 1.4 2.4 -0.8
v 1.4 2.5 -0.8
v 1.4 2.8 -0.8
v 1.5 2.1 -0.8
v 1.5 2.3 -0.8
v 1.6 2.2 -0.8
v 1.6 2.3 -0.8
v 1.8 3.4 -0.8
v 1.8 3.5 -0.8
v 1.9 2.2 -0.8
v 1.9 2.3 -0.8
v 1.9 2.5 -0.8
v 1.9 2.8 -0.8
v 1.9 3.3 -0.8
v 1.9 3.6 -0.8
v 2 2.3 -0.8
v 2 3 -0.8
v 2 3.9 -0.8
v 0 3.9 -0.9
v 0 4 -0.9
v 0.2 2.4 -0.9
v 0.2 2.7 -0.9
v 0.2 2.8 -0.9
v 0.3 2.4 -0.9
v 0.3 2.7 -0.9
v 0.4 2.3 -0.9
v 0.4 2.7 -0.9
v 0.5 2.4 -0.9
v 0.5 2.5 -0.9
v 0.6 2.4 -0.9
v 0.6 2.5 -0.9
v 0.6 2.6 -0.9
v 0.7 2.5 -0.9
v 0.7 2.6 -0.9
v 0.8 2.3 -0.9
v 0.8 2.7 -0.9
v 0.9 2.4 -0.9
v 0.9 2.7 -0.9
v 1 2.4 -0.9
v 1 2.7 -0.9
v 1 2.8 -0.9
v 1.2 2.2 -0.9
v 1.2 2.4 -0.9
v 1.4 2.2 -0.9
v 1.4 2.4 -0.9
v 1.4 2.5 -0.9
v 1.4 2.8 -0.9
v 1.9 2.5 -0.9
v 1.9 2.8 -0.9
v 2 3.9 -0.9
v 2 4 -0.9
v 0.2 2.1 -1.2
v 0.2 2.8 -1.2
v 1 2.1 -1.2
v 1 2.8 -1.2
v 0 2.9 -0.2
v 0 3 -0.2
v 1 2.9 -0.2
v 1 3 -0.2
v 0 2.1 -0.5
v 0 3 -0.5
v 0.1 2.1 -0.5
v 0.1 3 -0.5
v 0.2 2.1 -0.5
v 0.2 3 -0.5
v 0.3 2.1 -0.5
v 0.3 3 -0.5
v 0.4 2.1 -0.5
v 0.4 3 -0.5
v 0.5 2.1 -0.5
v 0.5 3 -0.5
v 0.6 2.1 -0.5
v 0.6 3 -0.5
v 0.7 2.1 -0.5
v 0.7 3 -0.5
v 1.6 2.2 -0.5
v 1.6 2.3 -0.5
v 1.9 2.2 -0.5
v 1.9 2.3 -0.5
v 0.2 2.4 -1
v 0.2 2.7 -1
v 0.2 2.8 -1
v 0.3 2.4 -1
v 0.3 2.7 -1
v 0.4 2.3 -1
v 0.4 2.7 -1
v 0.5 2.4 -1
v 0.5 2.5 -1
v 0.6 2.4 -1
v 0.6 2.5 -1
v 0.6 2.6 -1
v 0.7 2.5 -1
v 0.7 2.6 -1
v 0.8 2.3 -1
v 0.8 2.7 -1
v 0.9 2.4 -1
v 0.9 2.7 -1
v 1 2.4 -1
v 1 2.7 -1
v 1 2.8 -1
v 0 2 -2
v 0 3 -2
v 0 4 -2
v 2 2 -2
v 2 3 -2
v 2 4 -2
v 0 2 0
v 2 2 0
v 0 2 -0.4
v 0.1 2 -0.4
v 0.2 2 -0.4
v 0.3 2 -0.4
v 0.4 2 -0.4
v 0.5 2 -0.4
v 0.6 2 -0.4
v 0.7 2 -0.4
v 1.5 2 -0.4
v 2 2 -0.4
v 0 2 -0.5
v 0.1 2 -0.5
v 0.2 2 -0.5
v 0.3 2 -0.5
v 0.4 2 -0.5
v 0.5 2 -0.5
v 0.6 2 -0.5
v 0.7 2 -0.5
v 0 2 -0.8
v 0.2 2 -0.8
v 1 2 -0.8
v 1.5 2 -0.8
v 2 2 -0.8
v 1 2 -0.9
v 1.1 2 -0.9
v 0.2 2 -1.2
v 1 2 -1.2
v 0.2 2 -1.3
v 1.1 2 -1.3
v 0 2 -2
v 2 2 -2
v 0.4 2.3 -0.9
v 0.8 2.3 -0.9
v 0.4 2.3 -1
v 0.8 2.3 -1
v 1.2 2.4 -0.8
v 1.4 2.4 -0.8
v 0.2 2.4 -0.9
v 0.3 2.4 -0.9
v 0.9 2.4 -0.9
v 1 2.4 -0.9
v 1.2 2.4 -0.9
v 1.4 2.4 -0.9
v 0.2 2.4 -1
v 0.3 2.4 -1
v 0.9 2.4 -1
v 1 2.4 -1
v 0.3 2.7 -0.9
v 0.4 2.7 -0.9
v 0.8 2.7 -0.9
v 0.9 2.7 -0.9
v 0.3 2.7 -1
v 0.4 2.7 -1
v 0.8 2.7 -1
v 0.9 2.7 -1
v 0.2 2.8 -0.8
v 1 2.8 -0.8
v 1.4 2.8 -0.8
v 1.9 2.8 -0.8
v 0.2 2.8 -0.9
v 1 2.8 -0.9
v 1.4 2.8 -0.9
v 1.9 2.8 -0.9
v 0.2 2.8 -1
v 1 2.8 -1
v 0.2 2.8 -1.2
v 1 2.8 -1.2
v 0 2.9 0
v 1 2.9 0
v 0 2.9 -0.2
v 1 2.9 -0.2
v 0 3 -0.2
v 1 3 -0.2
v 0 3 -0.4
v 0.1 3 -0.4
v 0.2 3 -0.4
v 0.3 3 -0.4
v 0.4 3 -0.4
v 0.5 3 -0.4
v 0.6 3 -0.4
v 0.7 3 -0.4
v 0 3 -0.5
v 0.1 3 -0.5
v 0.2 3 -0.5
v 0.3 3 -0.5
v 0.4 3 -0.5
v 0.5 3 -0.5
v 0.6 3 -0.5
v 0.7 3 -0.5
v 0 3 -0.8
v 1 3 -0.8
v 0.1 3.3 -0.7
v 0.9 3.3 -0.7
v 1.1 3.3 -0.7
v 1.9 3.3 -0.7
v 0.1 3.3 -0.8
v 0.9 3.3 -0.8
v 1.1 3.3 -0.8
v 1.9 3.3 -0.8
v 0.2 3.5 -0.7
v 0.8 3.5 -0.7
v 1.2 3.5 -0.7
v 1.8 3.5 -0.7
v 0.2 3.5 -0.8
v 0.8 3.5 -0.8
v 1.2 3.5 -0.8
v 1.8 3.5 -0.8
v 0 2.1 0
v 2 2.1 0
v 0 2.1 -0.4
v 0.1 2.1 -0.4
v 0.2 2.1 -0.4
v 0.3 2.1 -0.4
v 0.4 2.1 -0.4
v 0.5 2.1 -0.4
v 0.6 2.1 -0.4
v 0.7 2.1 -0.4
v 1.5 2.1 -0.4
v 1.6 2.1 -0.4
v 1.8 2.1 -0.4
v 2 2.1 -0.4
v 0 2.1 -0.5
v 0.1 2.1 -0.5
v 0.2 2.1 -0.5
v 0.3 2.1 -0.5
v 0.4 2.1 -0.5
v 0.5 2.1 -0.5
v 0.6 2.1 -0.5
v 0.7 2.1 -0.5
v 0 2.1 -0.8
v 0.2 2.1 -0.8
v 1 2.1 -0.8
v 1.5 2.1 -0.8
v 1 2.1 -0.9
v 0.2 2.1 -1.2
v 1 2.1 -1.2
v 1.6 2.2 -0.5
v 1.9 2.2 -0.5
v 1.2 2.2 -0.8
v 1.4 2.2 -0.8
v 1.6 2.2 -0.8
v 1.9 2.2 -0.8
v 1.2 2.2 -0.9
v 1.4 2.2 -0.9
v 1.5 2.3 -0.4
v 2 2.3 -0.4
v 1.6 2.3 -0.5
v 1.9 2.3 -0.5
v 1.5 2.3 -0.8
v 1.6 2.3 -0.8
v 1.9 2.3 -0.8
v 2 2.3 -0.8
v 1.4 2.5 -0.8
v 1.9 2.5 -0.8
v 1.4 2.5 -0.9
v 1.9 2.5 -0.9
v 0 3 0
v 1 3 0
v 0 3 -0.1
v 1 3 -0.1
v 0 3.1 -0.1
v 1 3.1 -0.1
v 0 3.1 -0.5
v 1 3.1 -0.5
v 0 3.2 -0.5
v 1 3.2 -0.5
v 0 3.2 -0.8
v 1 3.2 -0.8
v 0.2 3.4 -0.7
v 0.8 3.4 -0.7
v 1.2 3.4 -0.7
v 1.8 3.4 -0.7
v 0.2 3.4 -0.8
v 0.8 3.4 -0.8
v 1.2 3.4 -0.8
v 1.8 3.4 -0.8
v 0.1 3.6 -0.7
v 0.9 3.6 -0.7
v 1.1 3.6 -0.7
v 1.9 3.6 -0.7
v 0.1 3.6 -0.8
v 0.9 3.6 -0.8
v 1.1 3.6 -0.8
v 1.9 3.6 -0.8
v 0 3.9 -0.8
v 2 3.9 -0.8
v 0 3.9 -0.9
v 2 3.9 -0.9
v 0 4 -0.9
v 2 4 -0.9
v 0 4 -2
v 2 4 -2

# faces
f 6/4/1 2/4/1 1/4/1
f 7/2/1 3/2/1 2/2/1
f 7/4/1 2/4/1 6/4/1
f 8/4/1 4/4/1 3/4/1
f 8/2/1 3/2/1 7/2/1
f 9/5/1 5/5/1 4/5/1
f 9/4/1 4/4/1 8/4/1
f 12/7/1 11/7/1 10/7/1
f 13/7/1 11/7/1 12/7/1
f 14/7/1 11/7/1 13/7/1
f 15/2/1 8/2/1 7/2/1
f 16/2/1 8/2/1 15/2/1
f 17/5/1 5/5/1 9/5/1
f 18/5/1 5/5/1 17/5/1
f 19/7/1 14/7/1 13/7/1
f 19/7/1 16/7/1 15/7/1
f 19/7/1 18/7/1 17/7/1
f 19/7/1 17/7/1 16/7/1
f 19/7/1 15/7/1 14/7/1
f 20/7/1 18/7/1 19/7/1
f 21/7/1 18/7/1 20/7/1
f 22/7/1 18/7/1 21/7/1
f 23/7/1 18/7/1 22/7/1
f 24/7/1 18/7/1 23/7/1
f 25/7/1 18/7/1 24/7/1
f 26/7/1 18/7/1 25/7/1
f 29/5/1 28/5/1 27/5/1
f 30/5/1 28/5/1 29/5/1
f 33/2/1 32/2/1 31/2/1
f 34/2/1 32/2/1 33/2/1
f 39/5/1 38/5/1 37/5/1
f 40/5/1 38/5/1 39/5/1
f 41/2/1 36/2/1 35/2/1
f 42/2/1 36/2/1 41/2/1
f 45/2/1 44/2/1 43/2/1
f 46/2/1 44/2/1 45/2/1
f 49/5/1 48/5/1 47/5/1
f 50/5/1 48/5/1 49/5/1
f 53/5/1 52/5/1 51/5/1
f 54/5/1 52/5/1 53/5/1
f 58/5/1 56/5/1 55/5/1
f 58/1/1 57/1/1 56/1/1
f 59/1/1 57/1/1 58/1/1
f 60/5/1 58/5/1 55/5/1
f 61/1/1 57/1/1 59/1/1
f 62/5/1 60/5/1 55/5/1
f 63/5/1 60/5/1 62/5/1
f 64/1/1 57/1/1 61/1/1
f 65/1/1 57/1/1 64/1/1
f 68/5/1 67/5/1 66/5/1
f 69/5/1 67/5/1 68/5/1
f 72/5/1 71/5/1 70/5/1
f 73/5/1 71/5/1 72/5/1
f 76/2/1 75/2/1 74/2/1
f 77/2/1 75/2/1 76/2/1
f 80/5/1 79/5/1 78/5/1
f 81/5/1 79/5/1 80/5/1
f 84/2/1 83/2/1 82/2/1
f 85/2/1 83/2/1 84/2/1
f 88/5/1 87/5/1 86/5/1
f 89/5/1 87/5/1 88/5/1
f 90/2/2 91/2/2 92/2/2
f 92/2/2 91/2/2 93/2/2
f 94/5/2 95/5/2 96/5/2
f 96/5/2 95/5/2 97/5/2
f 94/5/2 96/5/2 98/5/2
f 97/5/2 95/5/2 99/5/2
f 94/5/2 98/5/2 100/5/2
f 100/5/2 98/5/2 101/5/2
f 99/5/2 95/5/2 102/5/2
f 102/5/2 95/5/2 103/5/2
f 104/5/2 105/5/2 106/5/2
f 106/5/2 105/5/2 107/5/2
f 110/5/2 111/5/2 112/5/2
f 112/5/2 111/5/2 113/5/2
f 108/2/2 109/2/2 114/2/2
f 114/2/2 109/2/2 115/2/2
f 116/2/2 117/2/2 118/2/2
f 118/2/2 117/2/2 119/2/2
f 120/2/2 121/2/2 122/2/2
f 122/2/2 121/2/2 123/2/2
f 124/5/2 125/5/2 126/5/2
f 126/5/2 125/5/2 127/5/2
f 128/5/2 129/5/2 130/5/2
f 130/5/2 129/5/2 131/5/2
f 132/7/2 133/7/2 134/7/2
f 134/7/2 133/7/2 135/7/2
f 135/7/2 133/7/2 136/7/2
f 136/7/2 137/7/2 138/7/2
f 135/7/2 136/7/2 138/7/2
f 138/7/2 137/7/2 139/7/2
f 139/7/2 137/7/2 140/7/2
f 140/7/2 137/7/2 141/7/2
f 142/5/2 143/5/2 144/5/2
f 144/5/2 143/5/2 145/5/2
f 146/5/2 147/5/2 148/5/2
f 148/5/2 147/5/2 149/5/2
f 150/5/2 151/5/2 152/5/2
f 152/5/2 151/5/2 153/5/2
f 154/2/2 155/2/2 156/2/2
f 156/2/2 155/2/2 157/2/2
f 158/5/2 159/5/2 160/5/2
f 160/5/2 159/5/2 161/5/2
f 162/4/2 163/4/2 166/4/2
f 163/2/2 164/2/2 167/2/2
f 166/4/2 163/4/2 167/4/2
f 167/2/2 164/2/2 168/2/2
f 164/5/2 165/5/2 169/5/2
f 168/2/2 164/2/2 169/2/2
f 169/5/2 165/5/2 170/5/2
f 170/5/2 165/5/2 171/5/2
f 170/7/2 171/7/2 172/7/2
f 172/7/2 171/7/2 173/7/2
f 173/7/2 171/7/2 174/7/2
f 174/7/2 171/7/2 175/7/2
f 180/7/3 179/7/3 178/7/3
f 181/7/3 179/7/3 180/7/3
f 182/4/3 177/4/3 176/4/3
f 183/4/3 177/4/3 182/4/3
f 186/7/3 185/7/3 184/7/3
f 187/7/3 185/7/3 186/7/3
f 190/2/3 189/2/3 188/2/3
f 191/2/3 189/2/3 190/2/3
f 194/2/3 193/2/3 192/2/3
f 195/2/3 193/2/3 194/2/3
f 198/2/3 197/2/3 196/2/3
f 199/2/3 197/2/3 198/2/3
f 202/2/3 201/2/3 200/2/3
f 203/2/3 201/2/3 202/2/3
f 206/2/3 205/2/3 204/2/3
f 207/2/3 205/2/3 206/2/3
f 208/6/3 207/6/3 206/6/3
f 209/2/3 205/2/3 207/2/3
f 209/6/3 207/6/3 208/6/3
f 210/2/3 209/2/3 208/2/3
f 211/2/3 205/2/3 209/2/3
f 211/2/3 209/2/3 210/2/3
f 214/7/3 213/7/3 212/7/3
f 215/7/3 213/7/3 214/7/3
f 218/5/3 217/5/3 216/5/3
f 219/5/3 217/5/3 218/5/3
f 220/5/3 218/5/3 216/5/3
f 221/5/3 217/5/3 219/5/3
f 222/5/3 220/5/3 216/5/3
f 222/5/3 221/5/3 220/5/3
f 223/5/3 217/5/3 221/5/3
f 223/5/3 221/5/3 222/5/3
f 226/5/3 225/5/3 224/5/3
f 227/5/3 225/5/3 226/5/3
f 228/5/3 226/5/3 224/5/3
f 229/5/3 225/5/3 227/5/3
f 230/5/3 228/5/3 224/5/3
f 230/5/3 229/5/3 228/5/3
f 231/5/3 225/5/3 229/5/3
f 231/5/3 229/5/3 230/5/3
f 236/7/3 235/7/3 234/7/3
f 237/7/3 235/7/3 236/7/3
f 238/5/3 233/5/3 232/5/3
f 239/5/3 233/5/3 238/5/3
f 242/1/3 241/1/3 240/1/3
f 243/1/3 241/1/3 242/1/3
f 244/7/3 236/7/3 234/7/3
f 245/7/3 235/7/3 237/7/3
f 247/5/3 233/5/3 239/5/3
f 248/5/3 233/5/3 247/5/3
f 249/7/3 244/7/3 234/7/3
f 249/7/3 245/7/3 244/7/3
f 250/7/3 245/7/3 249/7/3
f 250/7/3 249/7/3 248/7/3
f 251/7/3 235/7/3 245/7/3
f 251/7/3 245/7/3 250/7/3
f 252/5/3 248/5/3 247/5/3
f 252/5/3 247/5/3 246/5/3
f 253/5/3 248/5/3 252/5/3
f 256/5/3 252/5/3 246/5/3
f 257/5/3 248/5/3 253/5/3
f 258/5/3 248/5/3 257/5/3
f 259/5/3 248/5/3 258/5/3
f 260/5/3 256/5/3 246/5/3
f 260/5/3 257/5/3 256/5/3
f 260/5/3 258/5/3 257/5/3
f 261/5/3 258/5/3 260/5/3
f 263/5/3 258/5/3 261/5/3
f 264/1/3 255/1/3 254/1/3
f 265/1/3 255/1/3 264/1/3
f 266/5/3 263/5/3 262/5/3
f 267/5/3 258/5/3 263/5/3
f 267/5/3 263/5/3 266/5/3
f 268/5/3 258/5/3 267/5/3
f 269/5/3 248/5/3 259/5/3
f 270/7/3 250/7/3 248/7/3
f 271/7/3 235/7/3 251/7/3
f 272/5/3 269/5/3 268/5/3
f 272/5/3 268/5/3 267/5/3
f 273/7/3 270/7/3 248/7/3
f 273/5/3 269/5/3 272/5/3
f 273/7/3 271/7/3 270/7/3
f 273/5/3 248/5/3 269/5/3
f 274/7/3 235/7/3 271/7/3
f 274/7/3 271/7/3 273/7/3
f 280/5/3 278/5/3 277/5/3
f 281/2/3 279/2/3 278/2/3
f 281/5/3 278/5/3 280/5/3
f 283/2/3 279/2/3 281/2/3
f 284/5/3 283/5/3 282/5/3
f 285/5/3 283/5/3 284/5/3
f 286/5/3 284/5/3 282/5/3
f 286/6/3 285/6/3 284/6/3
f 287/5/3 283/5/3 285/5/3
f 287/6/3 285/6/3 286/6/3
f 288/5/3 283/5/3 287/5/3
f 289/5/3 287/5/3 286/5/3
f 289/6/3 288/6/3 287/6/3
f 290/5/3 283/5/3 288/5/3
f 290/6/3 288/6/3 289/6/3
f 291/5/3 286/5/3 282/5/3
f 291/5/3 289/5/3 286/5/3
f 291/5/3 290/5/3 289/5/3
f 292/2/3 279/2/3 283/2/3
f 292/5/3 290/5/3 291/5/3
f 292/5/3 283/5/3 290/5/3
f 294/2/3 279/2/3 292/2/3
f 295/5/3 294/5/3 293/5/3
f 296/2/3 279/2/3 294/2/3
f 296/5/3 294/5/3 295/5/3
f 297/2/3 279/2/3 296/2/3
f 300/1/3 299/1/3 298/1/3
f 301/1/3 299/1/3 300/1/3
f 304/1/3 303/1/3 302/1/3
f 305/1/3 303/1/3 304/1/3
f 306/7/3 276/7/3 275/7/3
f 307/7/3 276/7/3 306/7/3
f 310/1/3 309/1/3 308/1/3
f 311/1/3 309/1/3 310/1/3
f 312/7/4 313/7/4 314/7/4
f 314/7/4 313/7/4 315/7/4
f 316/2/4 317/2/4 318/2/4
f 318/2/4 317/2/4 319/2/4
f 320/2/4 321/2/4 322/2/4
f 322/2/4 321/2/4 323/2/4
f 324/2/4 325/2/4 326/2/4
f 326/2/4 325/2/4 327/2/4
f 328/2/4 329/2/4 330/2/4
f 330/2/4 329/2/4 331/2/4
f 332/2/4 333/2/4 334/2/4
f 334/2/4 333/2/4 335/2/4
f 336/5/4 337/5/4 339/5/4
f 337/2/4 338/2/4 340/2/4
f 339/5/4 337/5/4 340/5/4
f 340/2/4 338/2/4 342/2/4
f 341/5/4 342/5/4 343/5/4
f 343/5/4 342/5/4 344/5/4
f 341/5/4 343/5/4 345/5/4
f 343/6/4 344/6/4 345/6/4
f 344/5/4 342/5/4 346/5/4
f 345/6/4 344/6/4 346/6/4
f 346/5/4 342/5/4 347/5/4
f 345/5/4 346/5/4 348/5/4
f 346/6/4 347/6/4 348/6/4
f 347/5/4 342/5/4 349/5/4
f 348/6/4 347/6/4 349/6/4
f 341/5/4 345/5/4 350/5/4
f 345/5/4 348/5/4 350/5/4
f 348/5/4 349/5/4 350/5/4
f 342/2/4 338/2/4 351/2/4
f 350/5/4 349/5/4 351/5/4
f 349/5/4 342/5/4 351/5/4
f 351/2/4 338/2/4 353/2/4
f 352/5/4 353/5/4 354/5/4
f 353/2/4 338/2/4 355/2/4
f 354/5/4 353/5/4 355/5/4
f 355/2/4 338/2/4 356/2/4
f 357/5/4 358/5/4 360/5/4
f 358/7/4 359/7/4 361/7/4
f 360/5/4 358/5/4 361/5/4
f 361/7/4 359/7/4 362/7/4
f 365/4/5 364/4/5 363/4/5
f 366/4/5 364/4/5 365/4/5
f 367/4/5 364/4/5 366/4/5
f 368/4/5 364/4/5 367/4/5
f 369/4/5 364/4/5 368/4/5
f 370/4/5 364/4/5 369/4/5
f 371/4/5 364/4/5 370/4/5
f 372/4/5 364/4/5 371/4/5
f 373/4/5 364/4/5 372/4/5
f 374/4/5 364/4/5 373/4/5
f 375/2/5 366/2/5 365/2/5
f 376/4/5 367/4/5 366/4/5
f 376/2/5 366/2/5 375/2/5
f 377/2/5 368/2/5 367/2/5
f 377/4/5 367/4/5 376/4/5
f 378/4/5 369/4/5 368/4/5
f 378/2/5 368/2/5 377/2/5
f 379/2/5 370/2/5 369/2/5
f 379/4/5 369/4/5 378/4/5
f 380/4/5 371/4/5 370/4/5
f 380/2/5 370/2/5 379/2/5
f 381/2/5 372/2/5 371/2/5
f 381/4/5 371/4/5 380/4/5
f 382/4/5 373/4/5 372/4/5
f 382/2/5 372/2/5 381/2/5
f 383/4/5 376/4/5 375/4/5
f 383/4/5 377/4/5 376/4/5
f 383/4/5 382/4/5 381/4/5
f 383/4/5 378/4/5 377/4/5
f 383/4/5 381/4/5 380/4/5
f 383/4/5 380/4/5 379/4/5
f 383/4/5 379/4/5 378/4/5
f 384/4/5 382/4/5 383/4/5
f 385/4/5 373/4/5 382/4/5
f 385/4/5 382/4/5 384/4/5
f 386/2/5 374/2/5 373/2/5
f 386/4/5 373/4/5 385/4/5
f 387/2/5 374/2/5 386/2/5
f 388/4/5 385/4/5 384/4/5
f 388/5/5 386/5/5 385/5/5
f 388/5/5 387/5/5 386/5/5
f 389/5/5 387/5/5 388/5/5
f 390/5/5 384/5/5 383/5/5
f 390/4/5 388/4/5 384/4/5
f 391/2/5 389/2/5 388/2/5
f 391/4/5 388/4/5 390/4/5
f 392/5/5 390/5/5 383/5/5
f 392/2/5 391/2/5 390/2/5
f 393/5/5 387/5/5 389/5/5
f 393/2/5 391/2/5 392/2/5
f 393/2/5 389/2/5 391/2/5
f 394/5/5 392/5/5 383/5/5
f 394/5/5 393/5/5 392/5/5
f 395/5/5 387/5/5 393/5/5
f 395/5/5 393/5/5 394/5/5
f 398/5/5 397/5/5 396/5/5
f 399/5/5 397/5/5 398/5/5
f 406/5/5 401/5/5 400/5/5
f 407/5/5 401/5/5 406/5/5
f 408/5/5 403/5/5 402/5/5
f 409/5/5 403/5/5 408/5/5
f 410/5/5 405/5/5 404/5/5
f 411/5/5 405/5/5 410/5/5
f 416/2/5 413/2/5 412/2/5
f 417/2/5 413/2/5 416/2/5
f 418/2/5 415/2/5 414/2/5
f 419/2/5 415/2/5 418/2/5
f 424/5/5 421/5/5 420/5/5
f 425/5/5 421/5/5 424/5/5
f 426/5/5 423/5/5 422/5/5
f 427/5/5 423/5/5 426/5/5
f 430/7/5 429/7/5 428/7/5
f 431/7/5 429/7/5 430/7/5
f 434/7/5 433/7/5 432/7/5
f 435/7/5 433/7/5 434/7/5
f 438/7/5 437/7/5 436/7/5
f 439/7/5 437/7/5 438/7/5
f 440/7/5 437/7/5 439/7/5
f 441/7/5 437/7/5 440/7/5
f 442/7/5 437/7/5 441/7/5
f 443/7/5 437/7/5 442/7/5
f 444/7/5 437/7/5 443/7/5
f 445/7/5 437/7/5 444/7/5
f 447/7/5 440/7/5 439/7/5
f 448/7/5 440/7/5 447/7/5
f 449/7/5 442/7/5 441/7/5
f 450/7/5 442/7/5 449/7/5
f 451/7/5 444/7/5 443/7/5
f 452/7/5 444/7/5 451/7/5
f 453/7/5 437/7/5 445/7/5
f 454/7/5 452/7/5 451/7/5
f 454/7/5 453/7/5 452/7/5
f 454/7/5 448/7/5 447/7/5
f 454/7/5 450/7/5 449/7/5
f 454/7/5 451/7/5 450/7/5
f 454/7/5 447/7/5 446/7/5
f 454/7/5 449/7/5 448/7/5
f 455/7/5 437/7/5 453/7/5
f 455/7/5 453/7/5 454/7/5
f 460/5/5 457/5/5 456/5/5
f 461/5/5 457/5/5 460/5/5
f 462/5/5 459/5/5 458/5/5
f 463/5/5 459/5/5 462/5/5
f 468/5/5 465/5/5 464/5/5
f 469/5/5 465/5/5 468/5/5
f 470/5/5 467/5/5 466/5/5
f 471/5/5 467/5/5 470/5/5
f 472/4/6 473/4/6 474/4/6
f 474/4/6 473/4/6 475/4/6
f 475/4/6 473/4/6 476/4/6
f 476/4/6 473/4/6 477/4/6
f 477/4/6 473/4/6 478/4/6
f 478/4/6 473/4/6 479/4/6
f 479/4/6 473/4/6 480/4/6
f 480/4/6 473/4/6 481/4/6
f 481/4/6 473/4/6 482/4/6
f 482/4/6 473/4/6 483/4/6
f 483/4/6 473/4/6 484/4/6
f 484/4/6 473/4/6 485/4/6
f 475/4/6 476/4/6 487/4/6
f 487/4/6 476/4/6 488/4/6
f 477/4/6 478/4/6 489/4/6
f 489/4/6 478/4/6 490/4/6
f 479/4/6 480/4/6 491/4/6
f 491/4/6 480/4/6 492/4/6
f 481/4/6 482/4/6 493/4/6
f 489/4/6 490/4/6 494/4/6
f 492/4/6 493/4/6 494/4/6
f 491/4/6 492/4/6 494/4/6
f 487/4/6 488/4/6 494/4/6
f 490/4/6 491/4/6 494/4/6
f 486/4/6 487/4/6 494/4/6
f 488/4/6 489/4/6 494/4/6
f 494/4/6 493/4/6 495/4/6
f 493/4/6 482/4/6 496/4/6
f 495/4/6 493/4/6 496/4/6
f 496/4/6 482/4/6 497/4/6
f 495/4/6 496/4/6 498/4/6
f 495/4/6 498/4/6 499/4/6
f 499/4/6 498/4/6 500/4/6
f 501/3/6 502/3/6 505/3/6
f 505/3/6 502/3/6 506/3/6
f 503/5/6 504/5/6 507/5/6
f 507/5/6 504/5/6 508/5/6
f 509/2/6 510/2/6 511/2/6
f 511/2/6 510/2/6 512/2/6
f 509/2/6 511/2/6 513/2/6
f 513/2/6 511/2/6 514/2/6
f 512/2/6 510/2/6 515/2/6
f 515/2/6 510/2/6 516/2/6
f 517/5/6 518/5/6 519/5/6
f 519/5/6 518/5/6 520/5/6
f 521/7/6 522/7/6 523/7/6
f 523/7/6 522/7/6 524/7/6
f 525/7/6 526/7/6 527/7/6
f 527/7/6 526/7/6 528/7/6
f 529/7/6 530/7/6 531/7/6
f 531/7/6 530/7/6 532/7/6
f 533/5/6 534/5/6 537/5/6
f 537/5/6 534/5/6 538/5/6
f 535/5/6 536/5/6 539/5/6
f 539/5/6 536/5/6 540/5/6
f 541/5/6 542/5/6 545/5/6
f 545/5/6 542/5/6 546/5/6
f 543/5/6 544/5/6 547/5/6
f 547/5/6 544/5/6 548/5/6
f 549/7/6 550/7/6 551/7/6
f 551/7/6 550/7/6 552/7/6
f 553/7/6 554/7/6 555/7/6
f 555/7/6 554/7/6 556/7/6
