# MagicaVoxel @ Ephtracy

# group
o 

# material
mtllib 20_House_12.mtl
usemtl palette

# normals
vn -1 0 0
vn 1 0 0
vn 0 0 1
vn 0 0 -1
vn 0 -1 0
vn 0 1 0

# texcoords
vt 0.00976562 0.5
vt 0.0136719 0.5
vt 0.705078 0.5
vt 0.857422 0.5
vt 0.896484 0.5
vt 0.958984 0.5
vt 0.978516 0.5

# verts
v 0 2 0
v 0 2 -0.9
v 0 2 -2
v 0 2.1 0
v 0 2.1 -0.9
v 0 3.2 -0.9
v 0 3.2 -2
v 0.1 3.2 -1
v 0.1 3.2 -1.1
v 0.1 3.2 -1.8
v 0.1 3.2 -1.9
v 0.1 3.3 -1.1
v 0.1 3.3 -1.8
v 0.1 3.4 -1
v 0.1 3.4 -1.9
v 0.3 2.2 -1
v 0.3 2.2 -1.1
v 0.3 2.9 -1
v 0.3 2.9 -1.1
v 0.5 3.1 0
v 0.5 3.1 -0.9
v 0.5 3.2 0
v 0.5 3.2 -0.9
v 0.5 3.8 0
v 0.5 3.8 -0.9
v 0.5 3.9 0
v 0.5 3.9 -0.9
v 0.6 2.1 -0.1
v 0.6 2.1 -0.3
v 0.6 3.1 -0.1
v 0.6 3.1 -0.3
v 0.6 3.2 -0.1
v 0.6 3.2 -0.3
v 0.6 3.8 -0.1
v 0.6 3.8 -0.3
v 0.7 2.2 -1
v 0.7 2.2 -1.1
v 0.7 2.9 -1
v 0.7 2.9 -1.1
v 0.7 3.3 -0.3
v 0.7 3.3 -1
v 0.7 3.4 -0.3
v 0.7 3.4 -1
v 0.9 2.2 -0.9
v 0.9 2.2 -1.2
v 0.9 2.9 -0.9
v 0.9 2.9 -1.2
v 0.9 3.2 -0.9
v 0.9 3.2 -2
v 0.9 3.3 -1.8
v 0.9 3.3 -1.9
v 0.9 3.4 -1.2
v 0.9 3.4 -1.7
v 0.9 3.4 -1.8
v 0.9 3.4 -1.9
v 0.9 3.7 -1.2
v 0.9 3.7 -1.7
v 0.9 3.8 -0.9
v 0.9 3.9 -0.9
v 0.9 4 -0.9
v 0.9 4 -2
v 1 3.4 -1.2
v 1 3.4 -1.7
v 1 3.7 -1.2
v 1 3.7 -1.7
v 1.4 2.2 -0.9
v 1.4 2.2 -1
v 1.4 2.3 -0.9
v 1.4 2.3 -1
v 1.4 3.4 -0.9
v 1.4 3.4 -1
v 1.4 3.5 -0.9
v 1.4 3.5 -1
v 1.5 2.1 -0.9
v 1.5 2.1 -1
v 1.5 2.2 -0.9
v 1.5 2.2 -1
v 1.5 2.3 -0.9
v 1.5 2.3 -1
v 1.5 2.6 -0.9
v 1.5 2.6 -1
v 1.5 3.2 -0.9
v 1.5 3.2 -1
v 1.5 3.4 -0.9
v 1.5 3.4 -1
v 1.5 3.5 -0.9
v 1.5 3.5 -1
v 1.5 3.7 -0.9
v 1.5 3.7 -1
v 1.7 2.1 -0.1
v 1.7 2.1 -0.3
v 1.7 3.1 -0.1
v 1.7 3.1 -0.3
v 1.7 3.2 -0.1
v 1.7 3.2 -0.3
v 1.7 3.3 -0.2
v 1.7 3.3 -0.3
v 1.7 3.3 -0.9
v 1.7 3.4 -0.2
v 1.7 3.4 -0.3
v 1.7 3.4 -0.9
v 1.7 3.8 -0.1
v 1.7 3.8 -0.3
v 0.2 2.2 -0.9
v 0.2 2.2 -1.2
v 0.2 2.9 -0.9
v 0.2 2.9 -1.2
v 0.2 3.2 -1
v 0.2 3.2 -1.1
v 0.2 3.2 -1.8
v 0.2 3.2 -1.9
v 0.2 3.3 -1
v 0.2 3.3 -1.1
v 0.2 3.3 -1.8
v 0.2 3.3 -1.9
v 0.2 3.4 -1.1
v 0.2 3.4 -1.8
v 0.4 2.2 -1
v 0.4 2.2 -1.1
v 0.4 2.9 -1
v 0.4 2.9 -1.1
v 0.8 2.1 -0.1
v 0.8 2.1 -0.3
v 0.8 2.2 -1
v 0.8 2.2 -1.1
v 0.8 2.9 -1
v 0.8 2.9 -1.1
v 0.8 3.1 -0.1
v 0.8 3.1 -0.3
v 0.8 3.2 -0.1
v 0.8 3.2 -0.3
v 0.8 3.3 -0.2
v 0.8 3.3 -0.3
v 0.8 3.3 -1.1
v 0.8 3.4 -0.2
v 0.8 3.4 -0.3
v 0.8 3.4 -1.1
v 0.8 3.8 -0.1
v 0.8 3.8 -0.3
v 1.1 2.1 -0.9
v 1.1 2.1 -1
v 1.1 2.6 -0.9
v 1.1 2.6 -1
v 1.1 3.2 -0.9
v 1.1 3.2 -1
v 1.1 3.7 -0.9
v 1.1 3.7 -1
v 1.8 3.3 -0.3
v 1.8 3.3 -0.9
v 1.8 3.4 -0.3
v 1.8 3.4 -0.9
v 1.9 2.1 -0.1
v 1.9 2.1 -0.3
v 1.9 3.1 -0.1
v 1.9 3.1 -0.3
v 1.9 3.2 -0.1
v 1.9 3.2 -0.3
v 1.9 3.8 -0.1
v 1.9 3.8 -0.3
v 2 2 0
v 2 2 -0.9
v 2 2 -2
v 2 2.1 0
v 2 2.1 -0.9
v 2 3.1 0
v 2 3.1 -0.9
v 2 3.2 0
v 2 3.2 -0.9
v 2 3.8 0
v 2 3.8 -0.9
v 2 3.9 0
v 2 3.9 -0.9
v 2 4 -0.9
v 2 4 -2
v 0 2 0
v 0 2.1 0
v 0.5 3.1 0
v 0.5 3.2 0
v 0.5 3.8 0
v 0.5 3.9 0
v 2 2 0
v 2 2.1 0
v 2 3.1 0
v 2 3.2 0
v 2 3.8 0
v 2 3.9 0
v 0.6 2.1 -0.1
v 0.6 3.1 -0.1
v 0.6 3.2 -0.1
v 0.6 3.8 -0.1
v 0.8 2.1 -0.1
v 0.8 3.1 -0.1
v 0.8 3.2 -0.1
v 0.8 3.8 -0.1
v 1.7 2.1 -0.1
v 1.7 3.1 -0.1
v 1.7 3.2 -0.1
v 1.7 3.8 -0.1
v 1.9 2.1 -0.1
v 1.9 3.1 -0.1
v 1.9 3.2 -0.1
v 1.9 3.8 -0.1
v 0.8 3.3 -0.2
v 0.8 3.4 -0.2
v 1.7 3.3 -0.2
v 1.7 3.4 -0.2
v 0 2.1 -0.9
v 0 3.2 -0.9
v 0.2 2.2 -0.9
v 0.2 2.9 -0.9
v 0.5 3.1 -0.9
v 0.5 3.2 -0.9
v 0.9 2.2 -0.9
v 0.9 2.9 -0.9
v 0.9 3.2 -0.9
v 0.9 3.8 -0.9
v 0.9 3.9 -0.9
v 0.9 4 -0.9
v 1.1 2.1 -0.9
v 1.1 2.6 -0.9
v 1.1 3.2 -0.9
v 1.1 3.7 -0.9
v 1.4 2.2 -0.9
v 1.4 2.3 -0.9
v 1.4 3.4 -0.9
v 1.4 3.5 -0.9
v 1.5 2.1 -0.9
v 1.5 2.2 -0.9
v 1.5 2.3 -0.9
v 1.5 2.6 -0.9
v 1.5 3.2 -0.9
v 1.5 3.4 -0.9
v 1.5 3.5 -0.9
v 1.5 3.7 -0.9
v 1.7 3.3 -0.9
v 1.7 3.4 -0.9
v 1.8 3.3 -0.9
v 1.8 3.4 -0.9
v 2 2.1 -0.9
v 2 3.1 -0.9
v 2 3.2 -0.9
v 2 3.8 -0.9
v 2 3.9 -0.9
v 2 4 -0.9
v 0.1 3.2 -1
v 0.1 3.4 -1
v 0.2 3.2 -1
v 0.2 3.3 -1
v 0.3 2.2 -1
v 0.3 2.9 -1
v 0.4 2.2 -1
v 0.4 2.9 -1
v 0.7 2.2 -1
v 0.7 2.9 -1
v 0.7 3.3 -1
v 0.7 3.4 -1
v 0.8 2.2 -1
v 0.8 2.9 -1
v 1.1 2.1 -1
v 1.1 2.6 -1
v 1.1 3.2 -1
v 1.1 3.7 -1
v 1.4 2.2 -1
v 1.4 2.3 -1
v 1.4 3.4 -1
v 1.4 3.5 -1
v 1.5 2.1 -1
v 1.5 2.2 -1
v 1.5 2.3 -1
v 1.5 2.6 -1
v 1.5 3.2 -1
v 1.5 3.4 -1
v 1.5 3.5 -1
v 1.5 3.7 -1
v 0.2 2.2 -1.2
v 0.2 2.9 -1.2
v 0.9 2.2 -1.2
v 0.9 2.9 -1.2
v 0.9 3.4 -1.7
v 0.9 3.7 -1.7
v 1 3.4 -1.7
v 1 3.7 -1.7
v 0.1 3.2 -1.8
v 0.1 3.3 -1.8
v 0.2 3.2 -1.8
v 0.2 3.3 -1.8
v 0.2 3.4 -1.8
v 0.9 3.3 -1.8
v 0.9 3.4 -1.8
v 0.6 2.1 -0.3
v 0.6 3.1 -0.3
v 0.6 3.2 -0.3
v 0.6 3.8 -0.3
v 0.7 3.3 -0.3
v 0.7 3.4 -0.3
v 0.8 2.1 -0.3
v 0.8 3.1 -0.3
v 0.8 3.2 -0.3
v 0.8 3.3 -0.3
v 0.8 3.4 -0.3
v 0.8 3.8 -0.3
v 1.7 2.1 -0.3
v 1.7 3.1 -0.3
v 1.7 3.2 -0.3
v 1.7 3.3 -0.3
v 1.7 3.4 -0.3
v 1.7 3.8 -0.3
v 1.8 3.3 -0.3
v 1.8 3.4 -0.3
v 1.9 2.1 -0.3
v 1.9 3.1 -0.3
v 1.9 3.2 -0.3
v 1.9 3.8 -0.3
v 0.5 3.8 -0.9
v 0.5 3.9 -0.9
v 0.9 3.8 -0.9
v 0.9 3.9 -0.9
v 0.1 3.2 -1.1
v 0.1 3.3 -1.1
v 0.2 3.2 -1.1
v 0.2 3.3 -1.1
v 0.2 3.4 -1.1
v 0.3 2.2 -1.1
v 0.3 2.9 -1.1
v 0.4 2.2 -1.1
v 0.4 2.9 -1.1
v 0.7 2.2 -1.1
v 0.7 2.9 -1.1
v 0.8 2.2 -1.1
v 0.8 2.9 -1.1
v 0.8 3.3 -1.1
v 0.8 3.4 -1.1
v 0.9 3.4 -1.2
v 0.9 3.7 -1.2
v 1 3.4 -1.2
v 1 3.7 -1.2
v 0.1 3.2 -1.9
v 0.1 3.4 -1.9
v 0.2 3.2 -1.9
v 0.2 3.3 -1.9
v 0.9 3.3 -1.9
v 0.9 3.4 -1.9
v 0 2 -2
v 0 3.2 -2
v 0.9 3.2 -2
v 0.9 4 -2
v 2 2 -2
v 2 4 -2
v 0 2 0
v 2 2 0
v 0.6 2 -0.1
v 0.8 2 -0.1
v 1.7 2 -0.1
v 1.9 2 -0.1
v 0.6 2 -0.3
v 0.8 2 -0.3
v 1.7 2 -0.3
v 1.9 2 -0.3
v 0 2 -0.9
v 1.1 2 -0.9
v 1.5 2 -0.9
v 2 2 -0.9
v 1.1 2 -1
v 1.5 2 -1
v 1.1 2 -1.1
v 1.5 2 -1.1
v 0 2 -2
v 2 2 -2
v 1.4 2.2 -0.9
v 1.5 2.2 -0.9
v 1.4 2.2 -1
v 1.5 2.2 -1
v 1.1 2.6 -0.9
v 1.5 2.6 -0.9
v 1.1 2.6 -1
v 1.5 2.6 -1
v 0.2 2.9 -0.9
v 0.9 2.9 -0.9
v 0.3 2.9 -1
v 0.4 2.9 -1
v 0.7 2.9 -1
v 0.8 2.9 -1
v 0.3 2.9 -1.1
v 0.4 2.9 -1.1
v 0.7 2.9 -1.1
v 0.8 2.9 -1.1
v 0.2 2.9 -1.2
v 0.9 2.9 -1.2
v 0.5 3.1 0
v 2 3.1 0
v 0.6 3.1 -0.1
v 0.8 3.1 -0.1
v 1.7 3.1 -0.1
v 1.9 3.1 -0.1
v 0.6 3.1 -0.3
v 0.8 3.1 -0.3
v 1.7 3.1 -0.3
v 1.9 3.1 -0.3
v 0.5 3.1 -0.9
v 2 3.1 -0.9
v 0.8 3.3 -0.2
v 1.7 3.3 -0.2
v 0.7 3.3 -0.3
v 0.8 3.3 -0.3
v 1.7 3.3 -0.3
v 1.8 3.3 -0.3
v 1.7 3.3 -0.9
v 1.8 3.3 -0.9
v 0.2 3.3 -1
v 0.7 3.3 -1
v 0.1 3.3 -1.1
v 0.2 3.3 -1.1
v 0.8 3.3 -1.1
v 0.1 3.3 -1.8
v 0.2 3.3 -1.8
v 0.9 3.3 -1.8
v 0.2 3.3 -1.9
v 0.9 3.3 -1.9
v 1.4 3.4 -0.9
v 1.5 3.4 -0.9
v 1.4 3.4 -1
v 1.5 3.4 -1
v 1.1 3.7 -0.9
v 1.5 3.7 -0.9
v 1.1 3.7 -1
v 1.5 3.7 -1
v 0.9 3.7 -1.2
v 1 3.7 -1.2
v 0.9 3.7 -1.7
v 1 3.7 -1.7
v 0.5 3.8 0
v 2 3.8 0
v 0.6 3.8 -0.1
v 0.8 3.8 -0.1
v 1.7 3.8 -0.1
v 1.9 3.8 -0.1
v 0.6 3.8 -0.3
v 0.8 3.8 -0.3
v 1.7 3.8 -0.3
v 1.9 3.8 -0.3
v 0.5 3.8 -0.9
v 0.9 3.8 -0.9
v 2 3.8 -0.9
v 0 2.1 0
v 2 2.1 0
v 0.6 2.1 -0.1
v 0.8 2.1 -0.1
v 1.7 2.1 -0.1
v 1.9 2.1 -0.1
v 0.6 2.1 -0.3
v 0.8 2.1 -0.3
v 1.7 2.1 -0.3
v 1.9 2.1 -0.3
v 0 2.1 -0.9
v 1.1 2.1 -0.9
v 1.5 2.1 -0.9
v 2 2.1 -0.9
v 1.1 2.1 -1
v 1.5 2.1 -1
v 0.2 2.2 -0.9
v 0.9 2.2 -0.9
v 0.3 2.2 -1
v 0.4 2.2 -1
v 0.7 2.2 -1
v 0.8 2.2 -1
v 0.3 2.2 -1.1
v 0.4 2.2 -1.1
v 0.7 2.2 -1.1
v 0.8 2.2 -1.1
v 0.2 2.2 -1.2
v 0.9 2.2 -1.2
v 1.4 2.3 -0.9
v 1.5 2.3 -0.9
v 1.4 2.3 -1
v 1.5 2.3 -1
v 0.5 3.2 0
v 2 3.2 0
v 0.6 3.2 -0.1
v 0.8 3.2 -0.1
v 1.7 3.2 -0.1
v 1.9 3.2 -0.1
v 0.6 3.2 -0.3
v 0.8 3.2 -0.3
v 1.7 3.2 -0.3
v 1.9 3.2 -0.3
v 0 3.2 -0.9
v 0.5 3.2 -0.9
v 0.9 3.2 -0.9
v 1.1 3.2 -0.9
v 1.5 3.2 -0.9
v 2 3.2 -0.9
v 0.1 3.2 -1
v 0.2 3.2 -1
v 1.1 3.2 -1
v 1.5 3.2 -1
v 0.1 3.2 -1.1
v 0.2 3.2 -1.1
v 0.1 3.2 -1.8
v 0.2 3.2 -1.8
v 0.1 3.2 -1.9
v 0.2 3.2 -1.9
v 0 3.2 -2
v 0.9 3.2 -2
v 0.8 3.4 -0.2
v 1.7 3.4 -0.2
v 0.7 3.4 -0.3
v 0.8 3.4 -0.3
v 1.7 3.4 -0.3
v 1.8 3.4 -0.3
v 1.7 3.4 -0.9
v 1.8 3.4 -0.9
v 0.1 3.4 -1
v 0.7 3.4 -1
v 0.2 3.4 -1.1
v 0.8 3.4 -1.1
v 0.9 3.4 -1.2
v 1 3.4 -1.2
v 0.9 3.4 -1.7
v 1 3.4 -1.7
v 0.2 3.4 -1.8
v 0.9 3.4 -1.8
v 0.1 3.4 -1.9
v 0.9 3.4 -1.9
v 1.4 3.5 -0.9
v 1.5 3.5 -0.9
v 1.4 3.5 -1
v 1.5 3.5 -1
v 0.5 3.9 0
v 2 3.9 0
v 0.5 3.9 -0.9
v 0.9 3.9 -0.9
v 2 3.9 -0.9
v 0.9 4 -0.9
v 2 4 -0.9
v 0.9 4 -2
v 2 4 -2

# faces
f 4/5/1 2/5/1 1/5/1
f 5/6/1 3/6/1 2/6/1
f 5/5/1 2/5/1 4/5/1
f 6/6/1 3/6/1 5/6/1
f 7/6/1 3/6/1 6/6/1
f 12/7/1 9/7/1 8/7/1
f 13/7/1 11/7/1 10/7/1
f 14/7/1 12/7/1 8/7/1
f 14/7/1 13/7/1 12/7/1
f 15/7/1 11/7/1 13/7/1
f 15/7/1 13/7/1 14/7/1
f 18/7/1 17/7/1 16/7/1
f 19/7/1 17/7/1 18/7/1
f 22/6/1 21/6/1 20/6/1
f 23/6/1 21/6/1 22/6/1
f 26/6/1 25/6/1 24/6/1
f 27/6/1 25/6/1 26/6/1
f 30/7/1 29/7/1 28/7/1
f 31/7/1 29/7/1 30/7/1
f 34/7/1 33/7/1 32/7/1
f 35/7/1 33/7/1 34/7/1
f 38/7/1 37/7/1 36/7/1
f 39/7/1 37/7/1 38/7/1
f 42/7/1 41/7/1 40/7/1
f 43/7/1 41/7/1 42/7/1
f 46/6/1 45/6/1 44/6/1
f 47/6/1 45/6/1 46/6/1
f 50/6/1 49/6/1 48/6/1
f 51/6/1 49/6/1 50/6/1
f 52/6/1 50/6/1 48/6/1
f 53/6/1 50/6/1 52/6/1
f 54/6/1 50/6/1 53/6/1
f 55/6/1 49/6/1 51/6/1
f 56/6/1 52/6/1 48/6/1
f 57/6/1 54/6/1 53/6/1
f 57/6/1 55/6/1 54/6/1
f 58/6/1 56/6/1 48/6/1
f 58/6/1 57/6/1 56/6/1
f 59/6/1 57/6/1 58/6/1
f 60/6/1 57/6/1 59/6/1
f 61/6/1 55/6/1 57/6/1
f 61/6/1 57/6/1 60/6/1
f 61/6/1 49/6/1 55/6/1
f 64/3/1 63/3/1 62/3/1
f 65/3/1 63/3/1 64/3/1
f 68/2/1 67/2/1 66/2/1
f 69/2/1 67/2/1 68/2/1
f 72/1/1 71/1/1 70/1/1
f 73/1/1 71/1/1 72/1/1
f 76/6/1 75/6/1 74/6/1
f 77/6/1 75/6/1 76/6/1
f 80/6/1 79/6/1 78/6/1
f 81/6/1 79/6/1 80/6/1
f 84/6/1 83/6/1 82/6/1
f 85/6/1 83/6/1 84/6/1
f 88/6/1 87/6/1 86/6/1
f 89/6/1 87/6/1 88/6/1
f 92/7/1 91/7/1 90/7/1
f 93/7/1 91/7/1 92/7/1
f 96/7/1 95/7/1 94/7/1
f 97/7/1 95/7/1 96/7/1
f 99/7/1 96/7/1 94/7/1
f 100/7/1 98/7/1 97/7/1
f 101/7/1 98/7/1 100/7/1
f 102/7/1 99/7/1 94/7/1
f 102/7/1 100/7/1 99/7/1
f 103/7/1 100/7/1 102/7/1
f 104/6/2 105/6/2 106/6/2
f 106/6/2 105/6/2 107/6/2
f 108/7/2 109/7/2 112/7/2
f 112/7/2 109/7/2 113/7/2
f 110/7/2 111/7/2 114/7/2
f 114/7/2 111/7/2 115/7/2
f 113/7/2 114/7/2 116/7/2
f 116/7/2 114/7/2 117/7/2
f 118/7/2 119/7/2 120/7/2
f 120/7/2 119/7/2 121/7/2
f 124/7/2 125/7/2 126/7/2
f 126/7/2 125/7/2 127/7/2
f 122/7/2 123/7/2 128/7/2
f 128/7/2 123/7/2 129/7/2
f 130/7/2 131/7/2 132/7/2
f 132/7/2 131/7/2 133/7/2
f 130/7/2 132/7/2 135/7/2
f 133/7/2 134/7/2 136/7/2
f 136/7/2 134/7/2 137/7/2
f 130/7/2 135/7/2 138/7/2
f 135/7/2 136/7/2 138/7/2
f 138/7/2 136/7/2 139/7/2
f 140/6/2 141/6/2 142/6/2
f 142/6/2 141/6/2 143/6/2
f 144/6/2 145/6/2 146/6/2
f 146/6/2 145/6/2 147/6/2
f 148/7/2 149/7/2 150/7/2
f 150/7/2 149/7/2 151/7/2
f 152/7/2 153/7/2 154/7/2
f 154/7/2 153/7/2 155/7/2
f 156/7/2 157/7/2 158/7/2
f 158/7/2 157/7/2 159/7/2
f 160/5/2 161/5/2 163/5/2
f 161/6/2 162/6/2 164/6/2
f 163/5/2 161/5/2 164/5/2
f 164/6/2 162/6/2 166/6/2
f 165/6/2 166/6/2 167/6/2
f 166/6/2 162/6/2 168/6/2
f 167/6/2 166/6/2 168/6/2
f 168/6/2 162/6/2 170/6/2
f 169/6/2 170/6/2 171/6/2
f 170/6/2 162/6/2 172/6/2
f 171/6/2 170/6/2 172/6/2
f 172/6/2 162/6/2 173/6/2
f 173/6/2 162/6/2 174/6/2
f 181/5/3 176/5/3 175/5/3
f 182/5/3 176/5/3 181/5/3
f 183/6/3 178/6/3 177/6/3
f 184/6/3 178/6/3 183/6/3
f 185/6/3 180/6/3 179/6/3
f 186/6/3 180/6/3 185/6/3
f 191/7/3 188/7/3 187/7/3
f 192/7/3 188/7/3 191/7/3
f 193/7/3 190/7/3 189/7/3
f 194/7/3 190/7/3 193/7/3
f 199/7/3 196/7/3 195/7/3
f 200/7/3 196/7/3 199/7/3
f 201/7/3 198/7/3 197/7/3
f 202/7/3 198/7/3 201/7/3
f 205/7/3 204/7/3 203/7/3
f 206/7/3 204/7/3 205/7/3
f 209/6/3 208/6/3 207/6/3
f 210/6/3 208/6/3 209/6/3
f 211/6/3 208/6/3 210/6/3
f 212/6/3 208/6/3 211/6/3
f 213/6/3 209/6/3 207/6/3
f 214/6/3 211/6/3 210/6/3
f 219/6/3 214/6/3 213/6/3
f 219/6/3 213/6/3 207/6/3
f 220/6/3 214/6/3 219/6/3
f 221/6/3 216/6/3 215/6/3
f 222/6/3 216/6/3 221/6/3
f 228/2/3 224/2/3 223/2/3
f 229/2/3 224/2/3 228/2/3
f 230/6/3 214/6/3 220/6/3
f 232/1/3 226/1/3 225/1/3
f 233/1/3 226/1/3 232/1/3
f 234/6/3 216/6/3 222/6/3
f 235/6/3 233/6/3 232/6/3
f 235/6/3 234/6/3 233/6/3
f 235/6/3 232/6/3 231/6/3
f 236/6/3 234/6/3 235/6/3
f 237/6/3 235/6/3 231/6/3
f 238/6/3 234/6/3 236/6/3
f 239/6/3 229/6/3 228/6/3
f 239/6/3 230/6/3 229/6/3
f 239/6/3 228/6/3 227/6/3
f 240/6/3 211/6/3 214/6/3
f 240/6/3 230/6/3 239/6/3
f 240/6/3 214/6/3 230/6/3
f 241/6/3 238/6/3 237/6/3
f 241/6/3 237/6/3 231/6/3
f 242/6/3 216/6/3 234/6/3
f 242/6/3 238/6/3 241/6/3
f 242/6/3 234/6/3 238/6/3
f 243/6/3 218/6/3 217/6/3
f 244/6/3 218/6/3 243/6/3
f 247/7/3 246/7/3 245/7/3
f 248/7/3 246/7/3 247/7/3
f 251/7/3 250/7/3 249/7/3
f 252/7/3 250/7/3 251/7/3
f 255/7/3 246/7/3 248/7/3
f 256/7/3 246/7/3 255/7/3
f 257/7/3 254/7/3 253/7/3
f 258/7/3 254/7/3 257/7/3
f 263/4/3 260/4/3 259/4/3
f 264/4/3 260/4/3 263/4/3
f 265/4/3 262/4/3 261/4/3
f 266/4/3 262/4/3 265/4/3
f 267/4/3 263/4/3 259/4/3
f 268/4/3 263/4/3 267/4/3
f 269/4/3 260/4/3 264/4/3
f 270/4/3 260/4/3 269/4/3
f 271/4/3 265/4/3 261/4/3
f 272/4/3 265/4/3 271/4/3
f 273/4/3 262/4/3 266/4/3
f 274/4/3 262/4/3 273/4/3
f 277/3/3 276/3/3 275/3/3
f 278/3/3 276/3/3 277/3/3
f 281/6/3 280/6/3 279/6/3
f 282/6/3 280/6/3 281/6/3
f 285/7/3 284/7/3 283/7/3
f 286/7/3 284/7/3 285/7/3
f 288/7/3 287/7/3 286/7/3
f 289/7/3 287/7/3 288/7/3
f 292/7/4 293/7/4 294/7/4
f 294/7/4 293/7/4 295/7/4
f 290/7/4 291/7/4 296/7/4
f 296/7/4 291/7/4 297/7/4
f 292/7/4 294/7/4 298/7/4
f 298/7/4 294/7/4 299/7/4
f 295/7/4 293/7/4 300/7/4
f 300/7/4 293/7/4 301/7/4
f 299/7/4 300/7/4 305/7/4
f 305/7/4 300/7/4 306/7/4
f 304/7/4 305/7/4 308/7/4
f 306/7/4 307/7/4 309/7/4
f 302/7/4 303/7/4 310/7/4
f 310/7/4 303/7/4 311/7/4
f 308/7/4 309/7/4 312/7/4
f 304/7/4 308/7/4 312/7/4
f 309/7/4 307/7/4 313/7/4
f 312/7/4 309/7/4 313/7/4
f 314/6/4 315/6/4 316/6/4
f 316/6/4 315/6/4 317/6/4
f 318/7/4 319/7/4 320/7/4
f 320/7/4 319/7/4 321/7/4
f 323/7/4 324/7/4 325/7/4
f 325/7/4 324/7/4 326/7/4
f 327/7/4 328/7/4 329/7/4
f 329/7/4 328/7/4 330/7/4
f 321/7/4 322/7/4 331/7/4
f 331/7/4 322/7/4 332/7/4
f 333/6/4 334/6/4 335/6/4
f 335/6/4 334/6/4 336/6/4
f 337/7/4 338/7/4 339/7/4
f 339/7/4 338/7/4 340/7/4
f 340/7/4 338/7/4 341/7/4
f 341/7/4 338/7/4 342/7/4
f 343/6/4 344/6/4 345/6/4
f 343/6/4 345/6/4 347/6/4
f 345/6/4 346/6/4 347/6/4
f 347/6/4 346/6/4 348/6/4
f 351/5/5 350/5/5 349/5/5
f 352/5/5 350/5/5 351/5/5
f 353/5/5 350/5/5 352/5/5
f 354/5/5 350/5/5 353/5/5
f 355/5/5 351/5/5 349/5/5
f 355/7/5 352/7/5 351/7/5
f 356/5/5 353/5/5 352/5/5
f 356/7/5 352/7/5 355/7/5
f 357/7/5 354/7/5 353/7/5
f 357/5/5 353/5/5 356/5/5
f 358/5/5 350/5/5 354/5/5
f 358/7/5 354/7/5 357/7/5
f 359/5/5 357/5/5 356/5/5
f 359/5/5 356/5/5 355/5/5
f 359/5/5 358/5/5 357/5/5
f 359/5/5 355/5/5 349/5/5
f 360/5/5 358/5/5 359/5/5
f 361/5/5 358/5/5 360/5/5
f 362/5/5 350/5/5 358/5/5
f 362/5/5 358/5/5 361/5/5
f 363/5/5 361/5/5 360/5/5
f 363/6/5 360/6/5 359/6/5
f 364/6/5 362/6/5 361/6/5
f 364/5/5 361/5/5 363/5/5
f 365/6/5 363/6/5 359/6/5
f 365/4/5 364/4/5 363/4/5
f 366/6/5 362/6/5 364/6/5
f 366/4/5 364/4/5 365/4/5
f 367/6/5 365/6/5 359/6/5
f 367/6/5 366/6/5 365/6/5
f 368/6/5 362/6/5 366/6/5
f 368/6/5 366/6/5 367/6/5
f 371/2/5 370/2/5 369/2/5
f 372/2/5 370/2/5 371/2/5
f 375/6/5 374/6/5 373/6/5
f 376/6/5 374/6/5 375/6/5
f 379/6/5 378/6/5 377/6/5
f 380/6/5 378/6/5 379/6/5
f 381/6/5 378/6/5 380/6/5
f 382/6/5 378/6/5 381/6/5
f 383/6/5 379/6/5 377/6/5
f 384/6/5 381/6/5 380/6/5
f 385/6/5 381/6/5 384/6/5
f 386/6/5 378/6/5 382/6/5
f 387/6/5 385/6/5 384/6/5
f 387/6/5 386/6/5 385/6/5
f 387/6/5 383/6/5 377/6/5
f 387/6/5 384/6/5 383/6/5
f 388/6/5 378/6/5 386/6/5
f 388/6/5 386/6/5 387/6/5
f 391/6/5 390/6/5 389/6/5
f 392/6/5 390/6/5 391/6/5
f 393/6/5 390/6/5 392/6/5
f 394/6/5 390/6/5 393/6/5
f 395/6/5 391/6/5 389/6/5
f 396/6/5 393/6/5 392/6/5
f 397/6/5 393/6/5 396/6/5
f 398/6/5 390/6/5 394/6/5
f 399/6/5 397/6/5 396/6/5
f 399/6/5 398/6/5 397/6/5
f 399/6/5 395/6/5 389/6/5
f 399/6/5 396/6/5 395/6/5
f 400/6/5 390/6/5 398/6/5
f 400/6/5 398/6/5 399/6/5
f 404/7/5 402/7/5 401/7/5
f 405/7/5 402/7/5 404/7/5
f 407/7/5 406/7/5 405/7/5
f 408/7/5 406/7/5 407/7/5
f 410/7/5 404/7/5 403/7/5
f 412/7/5 410/7/5 409/7/5
f 413/7/5 404/7/5 410/7/5
f 413/7/5 410/7/5 412/7/5
f 414/7/5 412/7/5 411/7/5
f 415/7/5 412/7/5 414/7/5
f 417/7/5 416/7/5 415/7/5
f 418/7/5 416/7/5 417/7/5
f 421/1/5 420/1/5 419/1/5
f 422/1/5 420/1/5 421/1/5
f 425/6/5 424/6/5 423/6/5
f 426/6/5 424/6/5 425/6/5
f 429/6/5 428/6/5 427/6/5
f 430/6/5 428/6/5 429/6/5
f 433/6/5 432/6/5 431/6/5
f 434/6/5 432/6/5 433/6/5
f 435/6/5 432/6/5 434/6/5
f 436/6/5 432/6/5 435/6/5
f 437/6/5 433/6/5 431/6/5
f 438/6/5 435/6/5 434/6/5
f 439/6/5 435/6/5 438/6/5
f 440/6/5 432/6/5 436/6/5
f 441/6/5 439/6/5 438/6/5
f 441/6/5 440/6/5 439/6/5
f 441/6/5 437/6/5 431/6/5
f 441/6/5 438/6/5 437/6/5
f 442/6/5 440/6/5 441/6/5
f 443/6/5 432/6/5 440/6/5
f 443/6/5 440/6/5 442/6/5
f 444/5/6 445/5/6 446/5/6
f 446/5/6 445/5/6 447/5/6
f 447/5/6 445/5/6 448/5/6
f 448/5/6 445/5/6 449/5/6
f 444/5/6 446/5/6 450/5/6
f 447/5/6 448/5/6 451/5/6
f 451/5/6 448/5/6 452/5/6
f 449/5/6 445/5/6 453/5/6
f 451/5/6 452/5/6 454/5/6
f 452/5/6 453/5/6 454/5/6
f 444/5/6 450/5/6 454/5/6
f 450/5/6 451/5/6 454/5/6
f 454/5/6 453/5/6 455/5/6
f 455/5/6 453/5/6 456/5/6
f 453/5/6 445/5/6 457/5/6
f 456/5/6 453/5/6 457/5/6
f 455/5/6 456/5/6 458/5/6
f 458/5/6 456/5/6 459/5/6
f 460/6/6 461/6/6 462/6/6
f 462/6/6 461/6/6 463/6/6
f 463/6/6 461/6/6 464/6/6
f 464/6/6 461/6/6 465/6/6
f 460/6/6 462/6/6 466/6/6
f 463/6/6 464/6/6 467/6/6
f 467/6/6 464/6/6 468/6/6
f 465/6/6 461/6/6 469/6/6
f 467/6/6 468/6/6 470/6/6
f 468/6/6 469/6/6 470/6/6
f 460/6/6 466/6/6 470/6/6
f 466/6/6 467/6/6 470/6/6
f 469/6/6 461/6/6 471/6/6
f 470/6/6 469/6/6 471/6/6
f 472/2/6 473/2/6 474/2/6
f 474/2/6 473/2/6 475/2/6
f 476/6/6 477/6/6 478/6/6
f 478/6/6 477/6/6 479/6/6
f 479/6/6 477/6/6 480/6/6
f 480/6/6 477/6/6 481/6/6
f 476/6/6 478/6/6 482/6/6
f 479/6/6 480/6/6 483/6/6
f 483/6/6 480/6/6 484/6/6
f 481/6/6 477/6/6 485/6/6
f 483/6/6 484/6/6 487/6/6
f 484/6/6 485/6/6 487/6/6
f 476/6/6 482/6/6 487/6/6
f 482/6/6 483/6/6 487/6/6
f 487/6/6 485/6/6 488/6/6
f 488/6/6 485/6/6 489/6/6
f 489/6/6 485/6/6 490/6/6
f 485/6/6 477/6/6 491/6/6
f 490/6/6 485/6/6 491/6/6
f 486/6/6 487/6/6 492/6/6
f 487/6/6 488/6/6 492/6/6
f 492/6/6 488/6/6 493/6/6
f 489/6/6 490/6/6 494/6/6
f 494/6/6 490/6/6 495/6/6
f 486/6/6 492/6/6 496/6/6
f 493/6/6 488/6/6 497/6/6
f 486/6/6 496/6/6 498/6/6
f 496/6/6 497/6/6 498/6/6
f 497/6/6 488/6/6 499/6/6
f 498/6/6 497/6/6 499/6/6
f 486/6/6 498/6/6 500/6/6
f 499/6/6 488/6/6 501/6/6
f 486/6/6 500/6/6 502/6/6
f 500/6/6 501/6/6 502/6/6
f 501/6/6 488/6/6 503/6/6
f 502/6/6 501/6/6 503/6/6
f 504/7/6 505/7/6 507/7/6
f 507/7/6 505/7/6 508/7/6
f 508/7/6 509/7/6 510/7/6
f 510/7/6 509/7/6 511/7/6
f 506/7/6 507/7/6 513/7/6
f 512/7/6 513/7/6 514/7/6
f 513/7/6 507/7/6 515/7/6
f 514/7/6 513/7/6 515/7/6
f 516/6/6 517/6/6 518/6/6
f 518/6/6 517/6/6 519/6/6
f 512/7/6 514/7/6 520/7/6
f 512/7/6 520/7/6 522/7/6
f 520/7/6 521/7/6 522/7/6
f 522/7/6 521/7/6 523/7/6
f 524/1/6 525/1/6 526/1/6
f 526/1/6 525/1/6 527/1/6
f 528/6/6 529/6/6 530/6/6
f 530/6/6 529/6/6 531/6/6
f 531/6/6 529/6/6 532/6/6
f 533/6/6 534/6/6 535/6/6
f 535/6/6 534/6/6 536/6/6
