# MagicaVoxel @ Ephtracy

# group
o 

# material
mtllib 20_House_02.mtl
usemtl palette

# normals
vn -1 0 0
vn 1 0 0
vn 0 0 1
vn 0 0 -1
vn 0 -1 0
vn 0 1 0

# texcoords
vt 0.0214844 0.5
vt 0.779297 0.5
vt 0.865234 0.5
vt 0.962891 0.5
vt 0.978516 0.5
vt 0.990234 0.5

# verts
v 0 2.2 -0.5
v 0 2.2 -0.9
v 0 2.3 -0.4
v 0 2.3 -0.5
v 0 2.3 -0.9
v 0 2.3 -1
v 0 2.4 -0.4
v 0 2.4 -1
v 0 2.8 -0.4
v 0 2.8 -1
v 0 2.9 -0.4
v 0 2.9 -1
v 0 3.7 0
v 0 3.7 -0.3
v 0 3.7 -0.6
v 0 3.8 0
v 0 3.8 -0.3
v 0 3.8 -0.6
v 0 3.8 -2
v 0 3.9 -0.3
v 0 3.9 -0.6
v 0 3.9 -2
v 0 4 -0.6
v 0 4 -2
v 0.1 2 -0.1
v 0.1 2 -1.9
v 0.1 2.2 -0.5
v 0.1 2.2 -0.9
v 0.1 2.3 -0.4
v 0.1 2.3 -0.5
v 0.1 2.3 -0.9
v 0.1 2.3 -1
v 0.1 2.4 -0.4
v 0.1 2.4 -0.5
v 0.1 2.4 -0.9
v 0.1 2.4 -1
v 0.1 2.8 -0.4
v 0.1 2.8 -0.5
v 0.1 2.8 -0.9
v 0.1 2.8 -1
v 0.1 2.9 -0.4
v 0.1 2.9 -1
v 0.1 3.7 -0.1
v 0.1 3.7 -0.3
v 0.1 3.7 -0.6
v 0.1 3.8 -0.6
v 0.1 3.8 -1.9
v 0.2 2.4 -0.5
v 0.2 2.4 -0.9
v 0.2 2.8 -0.5
v 0.2 2.8 -0.9
v 0.3 3.1 0
v 0.3 3.1 -0.1
v 0.3 3.2 0
v 0.3 3.2 -0.1
v 0.3 3.5 0
v 0.3 3.5 -0.1
v 0.3 3.6 0
v 0.3 3.6 -0.1
v 0.4 3 0
v 0.4 3 -0.1
v 0.4 3.1 0
v 0.4 3.1 -0.1
v 0.6 2.3 -0.3
v 0.6 2.3 -0.4
v 0.6 2.4 -0.3
v 0.6 2.4 -0.4
v 0.8 2.1 -0.2
v 0.8 2.1 -0.4
v 0.8 2.2 -0.2
v 0.8 2.2 -0.3
v 0.8 2.8 -0.3
v 0.8 2.8 -0.4
v 0.8 3.2 -0.1
v 0.8 3.2 -0.2
v 0.8 3.5 -0.1
v 0.8 3.5 -0.2
v 1 2.1 -0.1
v 1 2.1 -0.2
v 1 2.2 -0.2
v 1 2.2 -0.3
v 1 2.8 -0.2
v 1 2.8 -0.3
v 1 2.9 -0.1
v 1 2.9 -0.2
v 1.2 3 -0.1
v 1.2 3 -0.2
v 1.2 3.2 -0.1
v 1.2 3.2 -0.2
v 1.4 3 -0.1
v 1.4 3 -0.2
v 1.4 3.2 -0.1
v 1.4 3.2 -0.2
v 1.6 3 -0.1
v 1.6 3 -0.2
v 1.6 3.2 -0.1
v 1.6 3.2 -0.2
v 1.8 2.6 -0.1
v 1.8 2.6 -0.2
v 1.8 2.8 -0.1
v 1.8 2.8 -0.2
v 1.8 3 -0.1
v 1.8 3 -1
v 1.8 3.1 -0.2
v 1.8 3.1 -0.3
v 1.8 3.1 -0.4
v 1.8 3.1 -0.5
v 1.8 3.1 -0.6
v 1.8 3.1 -0.7
v 1.8 3.1 -0.8
v 1.8 3.1 -0.9
v 1.8 3.2 -0.1
v 1.8 3.2 -0.2
v 1.8 3.2 -0.3
v 1.8 3.2 -0.4
v 1.8 3.2 -0.5
v 1.8 3.2 -0.6
v 1.8 3.2 -0.7
v 1.8 3.2 -0.8
v 1.8 3.2 -0.9
v 1.8 3.3 -0.1
v 1.8 3.3 -0.2
v 1.8 3.3 -0.9
v 1.8 3.6 -0.2
v 1.8 3.6 -0.9
v 1.8 3.7 -0.1
v 1.8 3.7 -0.3
v 1.8 3.7 -1
v 0.2 2.1 -0.1
v 0.2 2.1 -0.2
v 0.2 2.2 -0.2
v 0.2 2.2 -0.3
v 0.2 2.8 -0.2
v 0.2 2.8 -0.3
v 0.2 2.9 -0.1
v 0.2 2.9 -0.2
v 0.4 2.1 -0.2
v 0.4 2.1 -0.4
v 0.4 2.2 -0.2
v 0.4 2.2 -0.3
v 0.4 2.8 -0.3
v 0.4 2.8 -0.4
v 0.4 3.2 -0.1
v 0.4 3.2 -0.2
v 0.4 3.5 -0.1
v 0.4 3.5 -0.2
v 0.7 2.3 -0.3
v 0.7 2.3 -0.4
v 0.7 2.4 -0.3
v 0.7 2.4 -0.4
v 0.8 3 0
v 0.8 3 -0.1
v 0.8 3.1 0
v 0.8 3.1 -0.1
v 0.9 3.1 0
v 0.9 3.1 -0.1
v 0.9 3.2 0
v 0.9 3.2 -0.1
v 0.9 3.5 0
v 0.9 3.5 -0.1
v 0.9 3.6 0
v 0.9 3.6 -0.1
v 1.1 2.6 -0.1
v 1.1 2.6 -0.2
v 1.1 2.8 -0.1
v 1.1 2.8 -0.2
v 1.1 3 -0.1
v 1.1 3 -0.7
v 1.1 3 -1
v 1.1 3.2 -0.1
v 1.1 3.2 -0.2
v 1.1 3.3 -0.1
v 1.1 3.3 -0.2
v 1.1 3.4 -0.7
v 1.1 3.4 -1
v 1.1 3.5 -0.7
v 1.1 3.5 -1
v 1.1 3.7 -0.1
v 1.1 3.7 -0.3
v 1.1 3.7 -1
v 1.2 3.4 -0.7
v 1.2 3.4 -1
v 1.2 3.5 -0.7
v 1.2 3.5 -1
v 1.3 3 -0.1
v 1.3 3 -0.2
v 1.3 3.2 -0.1
v 1.3 3.2 -0.2
v 1.5 3 -0.1
v 1.5 3 -0.2
v 1.5 3.2 -0.1
v 1.5 3.2 -0.2
v 1.7 3 -0.1
v 1.7 3 -0.2
v 1.7 3.2 -0.1
v 1.7 3.2 -0.2
v 1.9 2 -0.1
v 1.9 2 -1.9
v 1.9 3.1 -0.2
v 1.9 3.1 -0.3
v 1.9 3.1 -0.4
v 1.9 3.1 -0.5
v 1.9 3.1 -0.6
v 1.9 3.1 -0.7
v 1.9 3.1 -0.8
v 1.9 3.1 -0.9
v 1.9 3.2 -0.2
v 1.9 3.2 -0.3
v 1.9 3.2 -0.4
v 1.9 3.2 -0.5
v 1.9 3.2 -0.6
v 1.9 3.2 -0.7
v 1.9 3.2 -0.8
v 1.9 3.2 -0.9
v 1.9 3.3 -0.2
v 1.9 3.3 -0.9
v 1.9 3.6 -0.2
v 1.9 3.6 -0.9
v 1.9 3.7 -0.1
v 1.9 3.7 -0.3
v 1.9 3.7 -0.7
v 1.9 3.8 -0.7
v 1.9 3.8 -1.9
v 2 3.7 0
v 2 3.7 -0.3
v 2 3.7 -0.7
v 2 3.8 0
v 2 3.8 -0.3
v 2 3.8 -0.6
v 2 3.8 -0.7
v 2 3.8 -2
v 2 3.9 -0.3
v 2 3.9 -0.6
v 2 3.9 -2
v 2 4 -0.6
v 2 4 -2
v 0 3.7 0
v 0 3.8 0
v 0.3 3.1 0
v 0.3 3.2 0
v 0.3 3.5 0
v 0.3 3.6 0
v 0.4 3 0
v 0.4 3.1 0
v 0.8 3 0
v 0.8 3.1 0
v 0.9 3.1 0
v 0.9 3.2 0
v 0.9 3.5 0
v 0.9 3.6 0
v 2 3.7 0
v 2 3.8 0
v 0.1 2 -0.1
v 0.1 3.7 -0.1
v 0.2 2.1 -0.1
v 0.2 2.9 -0.1
v 0.3 3.1 -0.1
v 0.3 3.2 -0.1
v 0.3 3.5 -0.1
v 0.3 3.6 -0.1
v 0.4 3 -0.1
v 0.4 3.1 -0.1
v 0.4 3.2 -0.1
v 0.4 3.5 -0.1
v 0.8 3 -0.1
v 0.8 3.1 -0.1
v 0.8 3.2 -0.1
v 0.8 3.5 -0.1
v 0.9 3.1 -0.1
v 0.9 3.2 -0.1
v 0.9 3.5 -0.1
v 0.9 3.6 -0.1
v 1 2.1 -0.1
v 1 2.9 -0.1
v 1.1 2.6 -0.1
v 1.1 2.8 -0.1
v 1.1 3 -0.1
v 1.1 3.2 -0.1
v 1.1 3.3 -0.1
v 1.1 3.7 -0.1
v 1.2 3 -0.1
v 1.2 3.2 -0.1
v 1.3 3 -0.1
v 1.3 3.2 -0.1
v 1.4 3 -0.1
v 1.4 3.2 -0.1
v 1.5 3 -0.1
v 1.5 3.2 -0.1
v 1.6 3 -0.1
v 1.6 3.2 -0.1
v 1.7 3 -0.1
v 1.7 3.2 -0.1
v 1.8 2.6 -0.1
v 1.8 2.8 -0.1
v 1.8 3 -0.1
v 1.8 3.2 -0.1
v 1.8 3.3 -0.1
v 1.8 3.7 -0.1
v 1.9 2 -0.1
v 1.9 3.7 -0.1
v 0.2 2.1 -0.2
v 0.2 2.2 -0.2
v 0.2 2.8 -0.2
v 0.2 2.9 -0.2
v 0.4 2.1 -0.2
v 0.4 2.2 -0.2
v 0.4 3.2 -0.2
v 0.4 3.5 -0.2
v 0.8 2.1 -0.2
v 0.8 2.2 -0.2
v 0.8 3.2 -0.2
v 0.8 3.5 -0.2
v 1 2.1 -0.2
v 1 2.2 -0.2
v 1 2.8 -0.2
v 1 2.9 -0.2
v 1.1 2.6 -0.2
v 1.1 2.8 -0.2
v 1.4 2.6 -0.2
v 1.4 2.8 -0.2
v 1.5 2.6 -0.2
v 1.5 2.8 -0.2
v 1.8 2.6 -0.2
v 1.8 2.8 -0.2
v 0 3.8 -0.3
v 0 3.9 -0.3
v 0.2 2.2 -0.3
v 0.2 2.8 -0.3
v 0.4 2.2 -0.3
v 0.4 2.8 -0.3
v 0.6 2.3 -0.3
v 0.6 2.4 -0.3
v 0.7 2.3 -0.3
v 0.7 2.4 -0.3
v 0.8 2.2 -0.3
v 0.8 2.8 -0.3
v 1 2.2 -0.3
v 1 2.8 -0.3
v 1.8 3.1 -0.3
v 1.8 3.2 -0.3
v 1.9 3.1 -0.3
v 1.9 3.2 -0.3
v 2 3.8 -0.3
v 2 3.9 -0.3
v 0 2.3 -0.4
v 0 2.4 -0.4
v 0 2.8 -0.4
v 0 2.9 -0.4
v 0.1 2.3 -0.4
v 0.1 2.4 -0.4
v 0.1 2.8 -0.4
v 0.1 2.9 -0.4
v 0.4 2.1 -0.4
v 0.4 2.8 -0.4
v 0.6 2.3 -0.4
v 0.6 2.4 -0.4
v 0.7 2.3 -0.4
v 0.7 2.4 -0.4
v 0.8 2.1 -0.4
v 0.8 2.8 -0.4
v 0 2.2 -0.5
v 0 2.3 -0.5
v 0.1 2.2 -0.5
v 0.1 2.3 -0.5
v 1.8 3.1 -0.5
v 1.8 3.2 -0.5
v 1.9 3.1 -0.5
v 1.9 3.2 -0.5
v 0 3.9 -0.6
v 0 4 -0.6
v 2 3.9 -0.6
v 2 4 -0.6
v 1.1 3.4 -0.7
v 1.1 3.5 -0.7
v 1.2 3.4 -0.7
v 1.2 3.5 -0.7
v 1.8 3.1 -0.7
v 1.8 3.2 -0.7
v 1.9 3.1 -0.7
v 1.9 3.2 -0.7
v 0.1 2.4 -0.9
v 0.1 2.8 -0.9
v 0.2 2.4 -0.9
v 0.2 2.8 -0.9
v 1.8 3.1 -0.9
v 1.8 3.2 -0.9
v 1.8 3.3 -0.9
v 1.8 3.6 -0.9
v 1.9 3.1 -0.9
v 1.9 3.2 -0.9
v 1.9 3.3 -0.9
v 1.9 3.6 -0.9
v 1.1 3 -1
v 1.1 3.4 -1
v 1.1 3.5 -1
v 1.1 3.7 -1
v 1.2 3.4 -1
v 1.2 3.5 -1
v 1.8 3 -1
v 1.8 3.7 -1
v 1.1 3.2 -0.2
v 1.1 3.3 -0.2
v 1.2 3 -0.2
v 1.2 3.2 -0.2
v 1.3 3 -0.2
v 1.3 3.2 -0.2
v 1.4 3 -0.2
v 1.4 3.2 -0.2
v 1.5 3 -0.2
v 1.5 3.2 -0.2
v 1.6 3 -0.2
v 1.6 3.2 -0.2
v 1.7 3 -0.2
v 1.7 3.2 -0.2
v 1.8 3.1 -0.2
v 1.8 3.2 -0.2
v 1.8 3.3 -0.2
v 1.8 3.6 -0.2
v 1.9 3.1 -0.2
v 1.9 3.2 -0.2
v 1.9 3.3 -0.2
v 1.9 3.6 -0.2
v 1.8 3.1 -0.4
v 1.8 3.2 -0.4
v 1.9 3.1 -0.4
v 1.9 3.2 -0.4
v 0.1 2.4 -0.5
v 0.1 2.8 -0.5
v 0.2 2.4 -0.5
v 0.2 2.8 -0.5
v 0 3.7 -0.6
v 0 3.8 -0.6
v 0.1 3.7 -0.6
v 0.1 3.8 -0.6
v 1.8 3.1 -0.6
v 1.8 3.2 -0.6
v 1.9 3.1 -0.6
v 1.9 3.2 -0.6
v 1.9 3.7 -0.7
v 1.9 3.8 -0.7
v 2 3.7 -0.7
v 2 3.8 -0.7
v 1.8 3.1 -0.8
v 1.8 3.2 -0.8
v 1.9 3.1 -0.8
v 1.9 3.2 -0.8
v 0 2.2 -0.9
v 0 2.3 -0.9
v 0.1 2.2 -0.9
v 0.1 2.3 -0.9
v 0 2.3 -1
v 0 2.4 -1
v 0 2.8 -1
v 0 2.9 -1
v 0.1 2.3 -1
v 0.1 2.4 -1
v 0.1 2.8 -1
v 0.1 2.9 -1
v 0.1 2 -1.9
v 0.1 3.8 -1.9
v 1.9 2 -1.9
v 1.9 3.8 -1.9
v 0 3.8 -2
v 0 3.9 -2
v 0 4 -2
v 2 3.8 -2
v 2 3.9 -2
v 2 4 -2
v 0.1 2 -0.1
v 1.9 2 -0.1
v 0.1 2 -1.9
v 1.9 2 -1.9
v 0 2.2 -0.5
v 0.1 2.2 -0.5
v 0 2.2 -0.9
v 0.1 2.2 -0.9
v 0.6 2.3 -0.3
v 0.7 2.3 -0.3
v 0 2.3 -0.4
v 0.1 2.3 -0.4
v 0.6 2.3 -0.4
v 0.7 2.3 -0.4
v 0 2.3 -0.5
v 0.1 2.3 -0.5
v 0 2.3 -0.9
v 0.1 2.3 -0.9
v 0 2.3 -1
v 0.1 2.3 -1
v 1.1 2.8 -0.1
v 1.8 2.8 -0.1
v 0.2 2.8 -0.2
v 1 2.8 -0.2
v 1.1 2.8 -0.2
v 1.4 2.8 -0.2
v 1.5 2.8 -0.2
v 1.8 2.8 -0.2
v 0.2 2.8 -0.3
v 0.4 2.8 -0.3
v 0.8 2.8 -0.3
v 1 2.8 -0.3
v 0 2.8 -0.4
v 0.1 2.8 -0.4
v 0.4 2.8 -0.4
v 0.8 2.8 -0.4
v 0.1 2.8 -0.5
v 0.2 2.8 -0.5
v 0.1 2.8 -0.9
v 0.2 2.8 -0.9
v 0 2.8 -1
v 0.1 2.8 -1
v 0.2 2.9 -0.1
v 1 2.9 -0.1
v 0.2 2.9 -0.2
v 1 2.9 -0.2
v 0.4 3 0
v 0.8 3 0
v 0.4 3 -0.1
v 0.8 3 -0.1
v 0.3 3.1 0
v 0.4 3.1 0
v 0.8 3.1 0
v 0.9 3.1 0
v 0.3 3.1 -0.1
v 0.4 3.1 -0.1
v 0.8 3.1 -0.1
v 0.9 3.1 -0.1
v 1.1 3.2 -0.1
v 1.2 3.2 -0.1
v 1.3 3.2 -0.1
v 1.4 3.2 -0.1
v 1.5 3.2 -0.1
v 1.6 3.2 -0.1
v 1.7 3.2 -0.1
v 1.8 3.2 -0.1
v 1.1 3.2 -0.2
v 1.2 3.2 -0.2
v 1.3 3.2 -0.2
v 1.4 3.2 -0.2
v 1.5 3.2 -0.2
v 1.6 3.2 -0.2
v 1.7 3.2 -0.2
v 1.8 3.2 -0.2
v 1.9 3.2 -0.2
v 1.8 3.2 -0.3
v 1.9 3.2 -0.3
v 1.8 3.2 -0.4
v 1.9 3.2 -0.4
v 1.8 3.2 -0.5
v 1.9 3.2 -0.5
v 1.8 3.2 -0.6
v 1.9 3.2 -0.6
v 1.8 3.2 -0.7
v 1.9 3.2 -0.7
v 1.8 3.2 -0.8
v 1.9 3.2 -0.8
v 1.8 3.2 -0.9
v 1.9 3.2 -0.9
v 1.1 3.4 -0.7
v 1.2 3.4 -0.7
v 1.1 3.4 -1
v 1.2 3.4 -1
v 0.3 3.5 0
v 0.9 3.5 0
v 0.3 3.5 -0.1
v 0.4 3.5 -0.1
v 0.8 3.5 -0.1
v 0.9 3.5 -0.1
v 0.4 3.5 -0.2
v 0.8 3.5 -0.2
v 1.8 3.6 -0.2
v 1.9 3.6 -0.2
v 1.8 3.6 -0.9
v 1.9 3.6 -0.9
v 0 3.7 0
v 2 3.7 0
v 0.1 3.7 -0.1
v 1.1 3.7 -0.1
v 1.8 3.7 -0.1
v 1.9 3.7 -0.1
v 0 3.7 -0.3
v 0.1 3.7 -0.3
v 1.1 3.7 -0.3
v 1.8 3.7 -0.3
v 1.9 3.7 -0.3
v 2 3.7 -0.3
v 0 3.7 -0.6
v 0.1 3.7 -0.6
v 1.9 3.7 -0.7
v 2 3.7 -0.7
v 1.1 3.7 -1
v 1.8 3.7 -1
v 0 3.8 -0.6
v 0.1 3.8 -0.6
v 1.9 3.8 -0.7
v 2 3.8 -0.7
v 0.1 3.8 -1.9
v 1.9 3.8 -1.9
v 0 3.8 -2
v 2 3.8 -2
v 0.2 2.1 -0.1
v 1 2.1 -0.1
v 0.2 2.1 -0.2
v 0.4 2.1 -0.2
v 0.8 2.1 -0.2
v 1 2.1 -0.2
v 0.4 2.1 -0.4
v 0.8 2.1 -0.4
v 0.2 2.2 -0.2
v 0.4 2.2 -0.2
v 0.8 2.2 -0.2
v 1 2.2 -0.2
v 0.2 2.2 -0.3
v 0.4 2.2 -0.3
v 0.8 2.2 -0.3
v 1 2.2 -0.3
v 0.6 2.4 -0.3
v 0.7 2.4 -0.3
v 0 2.4 -0.4
v 0.1 2.4 -0.4
v 0.6 2.4 -0.4
v 0.7 2.4 -0.4
v 0.1 2.4 -0.5
v 0.2 2.4 -0.5
v 0.1 2.4 -0.9
v 0.2 2.4 -0.9
v 0 2.4 -1
v 0.1 2.4 -1
v 1.1 2.6 -0.1
v 1.8 2.6 -0.1
v 1.1 2.6 -0.2
v 1.4 2.6 -0.2
v 1.5 2.6 -0.2
v 1.8 2.6 -0.2
v 0 2.9 -0.4
v 0.1 2.9 -0.4
v 0 2.9 -1
v 0.1 2.9 -1
v 1.1 3 -0.1
v 1.2 3 -0.1
v 1.3 3 -0.1
v 1.4 3 -0.1
v 1.5 3 -0.1
v 1.6 3 -0.1
v 1.7 3 -0.1
v 1.8 3 -0.1
v 1.2 3 -0.2
v 1.3 3 -0.2
v 1.4 3 -0.2
v 1.5 3 -0.2
v 1.6 3 -0.2
v 1.7 3 -0.2
v 1.1 3 -0.7
v 1.1 3 -1
v 1.8 3 -1
v 1.8 3.1 -0.2
v 1.9 3.1 -0.2
v 1.8 3.1 -0.3
v 1.9 3.1 -0.3
v 1.8 3.1 -0.4
v 1.9 3.1 -0.4
v 1.8 3.1 -0.5
v 1.9 3.1 -0.5
v 1.8 3.1 -0.6
v 1.9 3.1 -0.6
v 1.8 3.1 -0.7
v 1.9 3.1 -0.7
v 1.8 3.1 -0.8
v 1.9 3.1 -0.8
v 1.8 3.1 -0.9
v 1.9 3.1 -0.9
v 0.3 3.2 0
v 0.9 3.2 0
v 0.3 3.2 -0.1
v 0.4 3.2 -0.1
v 0.8 3.2 -0.1
v 0.9 3.2 -0.1
v 0.4 3.2 -0.2
v 0.8 3.2 -0.2
v 1.1 3.3 -0.1
v 1.8 3.3 -0.1
v 1.1 3.3 -0.2
v 1.8 3.3 -0.2
v 1.9 3.3 -0.2
v 1.8 3.3 -0.9
v 1.9 3.3 -0.9
v 1.1 3.5 -0.7
v 1.2 3.5 -0.7
v 1.1 3.5 -1
v 1.2 3.5 -1
v 0.3 3.6 0
v 0.9 3.6 0
v 0.3 3.6 -0.1
v 0.9 3.6 -0.1
v 0 3.8 0
v 2 3.8 0
v 0 3.8 -0.3
v 2 3.8 -0.3
v 0 3.9 -0.3
v 2 3.9 -0.3
v 0 3.9 -0.6
v 2 3.9 -0.6
v 0 4 -0.6
v 2 4 -0.6
v 0 4 -2
v 2 4 -2

# faces
f 4/4/1 2/4/1 1/4/1
f 5/4/1 2/4/1 4/4/1
f 7/4/1 4/4/1 3/4/1
f 7/4/1 6/4/1 5/4/1
f 7/4/1 5/4/1 4/4/1
f 8/4/1 6/4/1 7/4/1
f 11/4/1 10/4/1 9/4/1
f 12/4/1 10/4/1 11/4/1
f 16/6/1 14/6/1 13/6/1
f 17/4/1 15/4/1 14/4/1
f 17/6/1 14/6/1 16/6/1
f 18/4/1 15/4/1 17/4/1
f 20/6/1 18/6/1 17/6/1
f 21/4/1 19/4/1 18/4/1
f 21/6/1 18/6/1 20/6/1
f 22/4/1 19/4/1 21/4/1
f 23/6/1 22/6/1 21/6/1
f 24/6/1 22/6/1 23/6/1
f 27/4/1 26/4/1 25/4/1
f 28/4/1 26/4/1 27/4/1
f 29/4/1 27/4/1 25/4/1
f 30/4/1 27/4/1 29/4/1
f 31/4/1 26/4/1 28/4/1
f 32/4/1 26/4/1 31/4/1
f 33/4/1 29/4/1 25/4/1
f 36/4/1 26/4/1 32/4/1
f 37/4/1 34/4/1 33/4/1
f 37/4/1 33/4/1 25/4/1
f 38/4/1 34/4/1 37/4/1
f 39/4/1 36/4/1 35/4/1
f 40/4/1 26/4/1 36/4/1
f 40/4/1 36/4/1 39/4/1
f 41/4/1 37/4/1 25/4/1
f 42/4/1 26/4/1 40/4/1
f 43/4/1 41/4/1 25/4/1
f 43/4/1 42/4/1 41/4/1
f 44/4/1 42/4/1 43/4/1
f 45/4/1 42/4/1 44/4/1
f 46/4/1 42/4/1 45/4/1
f 47/4/1 26/4/1 42/4/1
f 47/4/1 42/4/1 46/4/1
f 50/2/1 49/2/1 48/2/1
f 51/2/1 49/2/1 50/2/1
f 54/4/1 53/4/1 52/4/1
f 55/4/1 53/4/1 54/4/1
f 58/4/1 57/4/1 56/4/1
f 59/4/1 57/4/1 58/4/1
f 62/4/1 61/4/1 60/4/1
f 63/4/1 61/4/1 62/4/1
f 66/1/1 65/1/1 64/1/1
f 67/1/1 65/1/1 66/1/1
f 70/4/1 69/4/1 68/4/1
f 71/4/1 69/4/1 70/4/1
f 72/4/1 69/4/1 71/4/1
f 73/4/1 69/4/1 72/4/1
f 76/4/1 75/4/1 74/4/1
f 77/4/1 75/4/1 76/4/1
f 80/4/1 79/4/1 78/4/1
f 82/4/1 80/4/1 78/4/1
f 82/4/1 81/4/1 80/4/1
f 83/4/1 81/4/1 82/4/1
f 84/4/1 82/4/1 78/4/1
f 85/4/1 82/4/1 84/4/1
f 88/6/1 87/6/1 86/6/1
f 89/6/1 87/6/1 88/6/1
f 92/6/1 91/6/1 90/6/1
f 93/6/1 91/6/1 92/6/1
f 96/6/1 95/6/1 94/6/1
f 97/6/1 95/6/1 96/6/1
f 100/4/1 99/4/1 98/4/1
f 101/4/1 99/4/1 100/4/1
f 104/4/1 103/4/1 102/4/1
f 105/4/1 103/4/1 104/4/1
f 106/4/1 103/4/1 105/4/1
f 107/4/1 103/4/1 106/4/1
f 108/4/1 103/4/1 107/4/1
f 109/4/1 103/4/1 108/4/1
f 110/4/1 103/4/1 109/4/1
f 111/4/1 103/4/1 110/4/1
f 112/4/1 104/4/1 102/4/1
f 113/4/1 104/4/1 112/4/1
f 114/6/1 106/6/1 105/6/1
f 115/6/1 106/6/1 114/6/1
f 116/6/1 108/6/1 107/6/1
f 117/6/1 108/6/1 116/6/1
f 118/6/1 110/6/1 109/6/1
f 119/6/1 110/6/1 118/6/1
f 120/4/1 103/4/1 111/4/1
f 122/6/1 119/6/1 118/6/1
f 122/6/1 117/6/1 116/6/1
f 122/6/1 120/6/1 119/6/1
f 122/6/1 118/6/1 117/6/1
f 122/6/1 115/6/1 114/6/1
f 122/6/1 116/6/1 115/6/1
f 122/6/1 114/6/1 113/6/1
f 123/4/1 103/4/1 120/4/1
f 123/6/1 120/6/1 122/6/1
f 124/4/1 122/4/1 121/4/1
f 125/4/1 103/4/1 123/4/1
f 126/4/1 124/4/1 121/4/1
f 126/4/1 125/4/1 124/4/1
f 127/4/1 125/4/1 126/4/1
f 128/4/1 103/4/1 125/4/1
f 128/4/1 125/4/1 127/4/1
f 129/4/2 130/4/2 131/4/2
f 129/4/2 131/4/2 133/4/2
f 131/4/2 132/4/2 133/4/2
f 133/4/2 132/4/2 134/4/2
f 129/4/2 133/4/2 135/4/2
f 135/4/2 133/4/2 136/4/2
f 137/4/2 138/4/2 139/4/2
f 139/4/2 138/4/2 140/4/2
f 140/4/2 138/4/2 141/4/2
f 141/4/2 138/4/2 142/4/2
f 143/4/2 144/4/2 145/4/2
f 145/4/2 144/4/2 146/4/2
f 147/1/2 148/1/2 149/1/2
f 149/1/2 148/1/2 150/1/2
f 151/4/2 152/4/2 153/4/2
f 153/4/2 152/4/2 154/4/2
f 155/4/2 156/4/2 157/4/2
f 157/4/2 156/4/2 158/4/2
f 159/4/2 160/4/2 161/4/2
f 161/4/2 160/4/2 162/4/2
f 163/4/2 164/4/2 165/4/2
f 165/4/2 164/4/2 166/4/2
f 167/4/2 168/4/2 170/4/2
f 170/4/2 168/4/2 171/4/2
f 171/4/2 168/4/2 173/4/2
f 168/5/2 169/5/2 174/5/2
f 172/4/2 173/4/2 174/4/2
f 173/4/2 168/4/2 174/4/2
f 174/5/2 169/5/2 175/5/2
f 172/4/2 174/4/2 176/4/2
f 172/4/2 176/4/2 178/4/2
f 176/4/2 177/4/2 178/4/2
f 178/4/2 177/4/2 179/4/2
f 179/4/2 177/4/2 180/4/2
f 181/4/2 182/4/2 183/4/2
f 183/4/2 182/4/2 184/4/2
f 185/6/2 186/6/2 187/6/2
f 187/6/2 186/6/2 188/6/2
f 189/6/2 190/6/2 191/6/2
f 191/6/2 190/6/2 192/6/2
f 193/6/2 194/6/2 195/6/2
f 195/6/2 194/6/2 196/6/2
f 197/4/2 198/4/2 199/4/2
f 199/4/2 198/4/2 200/4/2
f 200/4/2 198/4/2 201/4/2
f 201/4/2 198/4/2 202/4/2
f 202/4/2 198/4/2 203/4/2
f 203/4/2 198/4/2 204/4/2
f 204/4/2 198/4/2 205/4/2
f 205/4/2 198/4/2 206/4/2
f 197/4/2 199/4/2 207/4/2
f 200/6/2 201/6/2 208/6/2
f 208/6/2 201/6/2 209/6/2
f 202/6/2 203/6/2 210/6/2
f 210/6/2 203/6/2 211/6/2
f 204/6/2 205/6/2 212/6/2
f 212/6/2 205/6/2 213/6/2
f 206/4/2 198/4/2 214/4/2
f 212/6/2 213/6/2 215/6/2
f 213/6/2 214/6/2 215/6/2
f 210/6/2 211/6/2 215/6/2
f 197/4/2 207/4/2 215/4/2
f 211/6/2 212/6/2 215/6/2
f 208/6/2 209/6/2 215/6/2
f 209/6/2 210/6/2 215/6/2
f 207/6/2 208/6/2 215/6/2
f 214/4/2 198/4/2 216/4/2
f 215/6/2 214/6/2 216/6/2
f 197/4/2 215/4/2 217/4/2
f 216/4/2 198/4/2 218/4/2
f 197/4/2 217/4/2 219/4/2
f 217/4/2 218/4/2 219/4/2
f 219/4/2 218/4/2 220/4/2
f 220/4/2 218/4/2 221/4/2
f 221/4/2 218/4/2 222/4/2
f 218/4/2 198/4/2 223/4/2
f 222/4/2 218/4/2 223/4/2
f 224/6/2 225/6/2 227/6/2
f 225/4/2 226/4/2 228/4/2
f 227/6/2 225/6/2 228/6/2
f 228/4/2 226/4/2 229/4/2
f 229/4/2 226/4/2 230/4/2
f 228/6/2 229/6/2 232/6/2
f 230/4/2 231/4/2 233/4/2
f 232/6/2 229/6/2 233/6/2
f 229/4/2 230/4/2 233/4/2
f 233/4/2 231/4/2 234/4/2
f 233/6/2 234/6/2 235/6/2
f 235/6/2 234/6/2 236/6/2
f 244/4/3 240/4/3 239/4/3
f 245/4/3 244/4/3 243/4/3
f 246/4/3 240/4/3 244/4/3
f 246/4/3 244/4/3 245/4/3
f 247/4/3 240/4/3 246/4/3
f 248/4/3 240/4/3 247/4/3
f 249/4/3 242/4/3 241/4/3
f 250/4/3 242/4/3 249/4/3
f 251/6/3 238/6/3 237/6/3
f 252/6/3 238/6/3 251/6/3
f 255/4/3 254/4/3 253/4/3
f 256/4/3 254/4/3 255/4/3
f 257/4/3 254/4/3 256/4/3
f 258/4/3 254/4/3 257/4/3
f 259/4/3 254/4/3 258/4/3
f 260/4/3 254/4/3 259/4/3
f 261/4/3 257/4/3 256/4/3
f 262/4/3 257/4/3 261/4/3
f 263/4/3 259/4/3 258/4/3
f 264/4/3 259/4/3 263/4/3
f 265/4/3 261/4/3 256/4/3
f 269/4/3 266/4/3 265/4/3
f 270/4/3 268/4/3 267/4/3
f 271/4/3 268/4/3 270/4/3
f 272/4/3 254/4/3 260/4/3
f 273/4/3 255/4/3 253/4/3
f 274/4/3 272/4/3 271/4/3
f 274/4/3 271/4/3 270/4/3
f 274/4/3 270/4/3 269/4/3
f 274/4/3 265/4/3 256/4/3
f 274/4/3 269/4/3 265/4/3
f 275/4/3 274/4/3 273/4/3
f 276/4/3 274/4/3 275/4/3
f 277/4/3 272/4/3 274/4/3
f 277/4/3 274/4/3 276/4/3
f 278/4/3 272/4/3 277/4/3
f 279/4/3 272/4/3 278/4/3
f 280/4/3 254/4/3 272/4/3
f 280/4/3 272/4/3 279/4/3
f 281/4/3 277/4/3 276/4/3
f 282/6/3 279/6/3 278/6/3
f 283/4/3 281/4/3 276/4/3
f 283/6/3 282/6/3 281/6/3
f 284/6/3 279/6/3 282/6/3
f 284/6/3 282/6/3 283/6/3
f 285/4/3 283/4/3 276/4/3
f 286/6/3 279/6/3 284/6/3
f 287/4/3 285/4/3 276/4/3
f 287/6/3 286/6/3 285/6/3
f 288/6/3 279/6/3 286/6/3
f 288/6/3 286/6/3 287/6/3
f 289/4/3 287/4/3 276/4/3
f 290/6/3 279/6/3 288/6/3
f 291/4/3 289/4/3 276/4/3
f 291/6/3 290/6/3 289/6/3
f 292/6/3 279/6/3 290/6/3
f 292/6/3 290/6/3 291/6/3
f 293/4/3 275/4/3 273/4/3
f 294/4/3 291/4/3 276/4/3
f 295/4/3 291/4/3 294/4/3
f 296/6/3 279/6/3 292/6/3
f 297/6/3 279/6/3 296/6/3
f 299/4/3 273/4/3 253/4/3
f 299/4/3 298/4/3 297/4/3
f 299/4/3 297/4/3 296/4/3
f 299/4/3 296/4/3 295/4/3
f 299/4/3 293/4/3 273/4/3
f 299/4/3 294/4/3 293/4/3
f 299/4/3 295/4/3 294/4/3
f 300/4/3 298/4/3 299/4/3
f 305/4/3 302/4/3 301/4/3
f 306/4/3 302/4/3 305/4/3
f 311/2/3 308/2/3 307/2/3
f 312/2/3 308/2/3 311/2/3
f 313/4/3 310/4/3 309/4/3
f 314/4/3 310/4/3 313/4/3
f 315/4/3 304/4/3 303/4/3
f 316/4/3 304/4/3 315/4/3
f 319/2/3 318/2/3 317/2/3
f 320/2/3 318/2/3 319/2/3
f 321/4/3 320/4/3 319/4/3
f 322/4/3 320/4/3 321/4/3
f 323/2/3 322/2/3 321/2/3
f 324/2/3 322/2/3 323/2/3
f 329/4/3 328/4/3 327/4/3
f 330/4/3 328/4/3 329/4/3
f 333/1/3 332/1/3 331/1/3
f 334/1/3 332/1/3 333/1/3
f 337/4/3 336/4/3 335/4/3
f 338/4/3 336/4/3 337/4/3
f 341/6/3 340/6/3 339/6/3
f 342/6/3 340/6/3 341/6/3
f 343/6/3 326/6/3 325/6/3
f 344/6/3 326/6/3 343/6/3
f 349/4/3 346/4/3 345/4/3
f 350/4/3 346/4/3 349/4/3
f 351/4/3 348/4/3 347/4/3
f 352/4/3 348/4/3 351/4/3
f 355/3/3 354/3/3 353/3/3
f 356/3/3 354/3/3 355/3/3
f 357/3/3 355/3/3 353/3/3
f 358/3/3 354/3/3 356/3/3
f 359/3/3 357/3/3 353/3/3
f 359/3/3 358/3/3 357/3/3
f 360/3/3 354/3/3 358/3/3
f 360/3/3 358/3/3 359/3/3
f 363/4/3 362/4/3 361/4/3
f 364/4/3 362/4/3 363/4/3
f 367/6/3 366/6/3 365/6/3
f 368/6/3 366/6/3 367/6/3
f 371/6/3 370/6/3 369/6/3
f 372/6/3 370/6/3 371/6/3
f 375/4/3 374/4/3 373/4/3
f 376/4/3 374/4/3 375/4/3
f 379/6/3 378/6/3 377/6/3
f 380/6/3 378/6/3 379/6/3
f 383/4/3 382/4/3 381/4/3
f 384/4/3 382/4/3 383/4/3
f 389/4/3 386/4/3 385/4/3
f 390/4/3 386/4/3 389/4/3
f 391/4/3 388/4/3 387/4/3
f 392/4/3 388/4/3 391/4/3
f 397/4/3 394/4/3 393/4/3
f 398/4/3 396/4/3 395/4/3
f 399/4/3 397/4/3 393/4/3
f 399/4/3 398/4/3 397/4/3
f 400/4/3 396/4/3 398/4/3
f 400/4/3 398/4/3 399/4/3
f 401/6/4 402/6/4 404/6/4
f 403/6/4 404/6/4 405/6/4
f 404/6/4 402/6/4 406/6/4
f 405/6/4 404/6/4 406/6/4
f 406/6/4 402/6/4 408/6/4
f 407/6/4 408/6/4 409/6/4
f 408/6/4 402/6/4 410/6/4
f 409/6/4 408/6/4 410/6/4
f 410/6/4 402/6/4 412/6/4
f 411/6/4 412/6/4 413/6/4
f 412/6/4 402/6/4 414/6/4
f 413/6/4 412/6/4 414/6/4
f 414/6/4 402/6/4 416/6/4
f 416/6/4 402/6/4 417/6/4
f 415/4/4 416/4/4 419/4/4
f 419/4/4 416/4/4 420/4/4
f 417/4/4 418/4/4 421/4/4
f 421/4/4 418/4/4 422/4/4
f 423/6/4 424/6/4 425/6/4
f 425/6/4 424/6/4 426/6/4
f 427/4/4 428/4/4 429/4/4
f 429/4/4 428/4/4 430/4/4
f 431/4/4 432/4/4 433/4/4
f 433/4/4 432/4/4 434/4/4
f 435/6/4 436/6/4 437/6/4
f 437/6/4 436/6/4 438/6/4
f 439/4/4 440/4/4 441/4/4
f 441/4/4 440/4/4 442/4/4
f 443/6/4 444/6/4 445/6/4
f 445/6/4 444/6/4 446/6/4
f 447/4/4 448/4/4 449/4/4
f 449/4/4 448/4/4 450/4/4
f 451/4/4 452/4/4 455/4/4
f 455/4/4 452/4/4 456/4/4
f 453/4/4 454/4/4 457/4/4
f 457/4/4 454/4/4 458/4/4
f 459/4/4 460/4/4 461/4/4
f 461/4/4 460/4/4 462/4/4
f 463/4/4 464/4/4 466/4/4
f 464/6/4 465/6/4 467/6/4
f 466/4/4 464/4/4 467/4/4
f 467/6/4 465/6/4 468/6/4
f 471/4/5 470/4/5 469/4/5
f 472/4/5 470/4/5 471/4/5
f 475/4/5 474/4/5 473/4/5
f 476/4/5 474/4/5 475/4/5
f 481/1/5 478/1/5 477/1/5
f 482/1/5 478/1/5 481/1/5
f 483/4/5 480/4/5 479/4/5
f 484/4/5 480/4/5 483/4/5
f 487/4/5 486/4/5 485/4/5
f 488/4/5 486/4/5 487/4/5
f 493/4/5 490/4/5 489/4/5
f 494/4/5 490/4/5 493/4/5
f 495/4/5 490/4/5 494/4/5
f 496/4/5 490/4/5 495/4/5
f 497/4/5 492/4/5 491/4/5
f 498/4/5 492/4/5 497/4/5
f 499/4/5 492/4/5 498/4/5
f 500/4/5 492/4/5 499/4/5
f 503/4/5 499/4/5 498/4/5
f 504/4/5 499/4/5 503/4/5
f 505/4/5 502/4/5 501/4/5
f 507/4/5 505/4/5 501/4/5
f 507/4/5 506/4/5 505/4/5
f 508/4/5 506/4/5 507/4/5
f 509/4/5 507/4/5 501/4/5
f 510/4/5 507/4/5 509/4/5
f 513/4/5 512/4/5 511/4/5
f 514/4/5 512/4/5 513/4/5
f 517/4/5 516/4/5 515/4/5
f 518/4/5 516/4/5 517/4/5
f 523/4/5 520/4/5 519/4/5
f 524/4/5 520/4/5 523/4/5
f 525/4/5 522/4/5 521/4/5
f 526/4/5 522/4/5 525/4/5
f 535/6/5 528/6/5 527/6/5
f 536/6/5 528/6/5 535/6/5
f 537/6/5 530/6/5 529/6/5
f 538/6/5 530/6/5 537/6/5
f 539/6/5 532/6/5 531/6/5
f 540/6/5 532/6/5 539/6/5
f 541/6/5 534/6/5 533/6/5
f 542/6/5 534/6/5 541/6/5
f 544/6/5 543/6/5 542/6/5
f 545/6/5 543/6/5 544/6/5
f 548/6/5 547/6/5 546/6/5
f 549/6/5 547/6/5 548/6/5
f 552/6/5 551/6/5 550/6/5
f 553/6/5 551/6/5 552/6/5
f 556/6/5 555/6/5 554/6/5
f 557/6/5 555/6/5 556/6/5
f 560/4/5 559/4/5 558/4/5
f 561/4/5 559/4/5 560/4/5
f 564/4/5 563/4/5 562/4/5
f 565/4/5 563/4/5 564/4/5
f 566/4/5 563/4/5 565/4/5
f 567/4/5 563/4/5 566/4/5
f 568/4/5 566/4/5 565/4/5
f 569/4/5 566/4/5 568/4/5
f 572/4/5 571/4/5 570/4/5
f 573/4/5 571/4/5 572/4/5
f 576/6/5 575/6/5 574/6/5
f 577/6/5 575/6/5 576/6/5
f 578/6/5 575/6/5 577/6/5
f 579/6/5 575/6/5 578/6/5
f 580/6/5 576/6/5 574/6/5
f 581/6/5 576/6/5 580/6/5
f 582/6/5 578/6/5 577/6/5
f 583/6/5 578/6/5 582/6/5
f 584/6/5 575/6/5 579/6/5
f 585/6/5 575/6/5 584/6/5
f 586/4/5 581/4/5 580/4/5
f 587/4/5 581/4/5 586/4/5
f 588/4/5 585/4/5 584/4/5
f 589/4/5 585/4/5 588/4/5
f 590/4/5 583/4/5 582/4/5
f 591/4/5 583/4/5 590/4/5
f 596/4/5 593/4/5 592/4/5
f 597/4/5 595/4/5 594/4/5
f 598/4/5 596/4/5 592/4/5
f 598/4/5 597/4/5 596/4/5
f 599/4/5 595/4/5 597/4/5
f 599/4/5 597/4/5 598/4/5
f 600/4/6 601/4/6 602/4/6
f 602/4/6 601/4/6 603/4/6
f 603/4/6 601/4/6 604/4/6
f 604/4/6 601/4/6 605/4/6
f 603/4/6 604/4/6 606/4/6
f 606/4/6 604/4/6 607/4/6
f 608/4/6 609/4/6 612/4/6
f 612/4/6 609/4/6 613/4/6
f 610/4/6 611/4/6 614/4/6
f 614/4/6 611/4/6 615/4/6
f 616/1/6 617/1/6 620/1/6
f 620/1/6 617/1/6 621/1/6
f 618/4/6 619/4/6 622/4/6
f 618/4/6 622/4/6 624/4/6
f 622/4/6 623/4/6 624/4/6
f 624/4/6 623/4/6 625/4/6
f 618/4/6 624/4/6 626/4/6
f 626/4/6 624/4/6 627/4/6
f 628/4/6 629/4/6 630/4/6
f 630/4/6 629/4/6 631/4/6
f 631/4/6 629/4/6 632/4/6
f 632/4/6 629/4/6 633/4/6
f 634/4/6 635/4/6 636/4/6
f 636/4/6 635/4/6 637/4/6
f 638/4/6 639/4/6 646/4/6
f 640/4/6 641/4/6 647/4/6
f 647/4/6 641/4/6 648/4/6
f 642/4/6 643/4/6 649/4/6
f 649/4/6 643/4/6 650/4/6
f 644/4/6 645/4/6 651/4/6
f 649/4/6 650/4/6 652/4/6
f 650/4/6 651/4/6 652/4/6
f 638/4/6 646/4/6 652/4/6
f 647/4/6 648/4/6 652/4/6
f 648/4/6 649/4/6 652/4/6
f 646/4/6 647/4/6 652/4/6
f 652/4/6 651/4/6 653/4/6
f 651/4/6 645/4/6 654/4/6
f 653/4/6 651/4/6 654/4/6
f 655/4/6 656/4/6 657/4/6
f 657/4/6 656/4/6 658/4/6
f 659/4/6 660/4/6 661/4/6
f 661/4/6 660/4/6 662/4/6
f 663/4/6 664/4/6 665/4/6
f 665/4/6 664/4/6 666/4/6
f 667/4/6 668/4/6 669/4/6
f 669/4/6 668/4/6 670/4/6
f 671/4/6 672/4/6 673/4/6
f 673/4/6 672/4/6 674/4/6
f 674/4/6 672/4/6 675/4/6
f 675/4/6 672/4/6 676/4/6
f 674/4/6 675/4/6 677/4/6
f 677/4/6 675/4/6 678/4/6
f 679/6/6 680/6/6 681/6/6
f 681/6/6 680/6/6 682/6/6
f 682/6/6 683/6/6 684/6/6
f 684/6/6 683/6/6 685/6/6
f 686/4/6 687/4/6 688/4/6
f 688/4/6 687/4/6 689/4/6
f 690/4/6 691/4/6 692/4/6
f 692/4/6 691/4/6 693/4/6
f 694/6/6 695/6/6 696/6/6
f 696/6/6 695/6/6 697/6/6
f 698/6/6 699/6/6 700/6/6
f 700/6/6 699/6/6 701/6/6
f 702/6/6 703/6/6 704/6/6
f 704/6/6 703/6/6 705/6/6
