# MagicaVoxel @ Ephtracy

# group
o 

# material
mtllib 20_House_02.mtl
usemtl palette

# normals
vn -1 0 0
vn 1 0 0
vn 0 0 1
vn 0 0 -1
vn 0 -1 0
vn 0 1 0

# texcoords
vt 0.0214844 0.5
vt 0.779297 0.5
vt 0.865234 0.5
vt 0.896484 0.5
vt 0.962891 0.5
vt 0.978516 0.5
vt 0.990234 0.5

# verts
v 0 2 0
v 0 2 -2
v 0 2.1 0
v 0 2.1 -2
v 0 2.2 -0.5
v 0 2.2 -0.9
v 0 2.3 -0.4
v 0 2.3 -0.5
v 0 2.3 -0.9
v 0 2.3 -1
v 0 2.4 -0.4
v 0 2.4 -1
v 0 2.8 -0.4
v 0 2.8 -1
v 0 2.9 -0.4
v 0 2.9 -1
v 0 3.7 0
v 0 3.7 -0.3
v 0 3.7 -0.6
v 0 3.8 0
v 0 3.8 -0.3
v 0 3.8 -0.6
v 0 3.8 -2
v 0 3.9 -0.3
v 0 3.9 -0.6
v 0 3.9 -2
v 0 4 -0.6
v 0 4 -2
v 0.1 2.1 -0.1
v 0.1 2.1 -1.9
v 0.1 2.2 -0.5
v 0.1 2.2 -0.9
v 0.1 2.3 -0.4
v 0.1 2.3 -0.5
v 0.1 2.3 -0.9
v 0.1 2.3 -1
v 0.1 2.4 -0.4
v 0.1 2.4 -0.5
v 0.1 2.4 -0.9
v 0.1 2.4 -1
v 0.1 2.8 -0.4
v 0.1 2.8 -0.5
v 0.1 2.8 -0.9
v 0.1 2.8 -1
v 0.1 2.9 -0.4
v 0.1 2.9 -1
v 0.1 3.7 -0.1
v 0.1 3.7 -0.3
v 0.1 3.7 -0.6
v 0.1 3.8 -0.6
v 0.1 3.8 -1.9
v 0.2 2.4 -0.5
v 0.2 2.4 -0.9
v 0.2 2.8 -0.5
v 0.2 2.8 -0.9
v 0.3 3.1 0
v 0.3 3.1 -0.1
v 0.3 3.2 0
v 0.3 3.2 -0.1
v 0.3 3.5 0
v 0.3 3.5 -0.1
v 0.3 3.6 0
v 0.3 3.6 -0.1
v 0.4 3 0
v 0.4 3 -0.1
v 0.4 3.1 0
v 0.4 3.1 -0.1
v 0.6 2.3 -0.3
v 0.6 2.3 -0.4
v 0.6 2.4 -0.3
v 0.6 2.4 -0.4
v 0.8 2.1 -0.2
v 0.8 2.1 -0.4
v 0.8 2.2 -0.2
v 0.8 2.2 -0.3
v 0.8 2.8 -0.3
v 0.8 2.8 -0.4
v 0.8 3.2 -0.1
v 0.8 3.2 -0.2
v 0.8 3.5 -0.1
v 0.8 3.5 -0.2
v 1 2.1 -0.1
v 1 2.1 -0.2
v 1 2.2 -0.2
v 1 2.2 -0.3
v 1 2.8 -0.2
v 1 2.8 -0.3
v 1 2.9 -0.1
v 1 2.9 -0.2
v 1.2 3 -0.1
v 1.2 3 -0.2
v 1.2 3.2 -0.1
v 1.2 3.2 -0.2
v 1.4 3 -0.1
v 1.4 3 -0.2
v 1.4 3.2 -0.1
v 1.4 3.2 -0.2
v 1.6 3 -0.1
v 1.6 3 -0.2
v 1.6 3.2 -0.1
v 1.6 3.2 -0.2
v 1.8 2.6 -0.1
v 1.8 2.6 -0.2
v 1.8 2.8 -0.1
v 1.8 2.8 -0.2
v 1.8 3 -0.1
v 1.8 3 -1
v 1.8 3.1 -0.2
v 1.8 3.1 -0.3
v 1.8 3.1 -0.4
v 1.8 3.1 -0.5
v 1.8 3.1 -0.6
v 1.8 3.1 -0.7
v 1.8 3.1 -0.8
v 1.8 3.1 -0.9
v 1.8 3.2 -0.1
v 1.8 3.2 -0.2
v 1.8 3.2 -0.3
v 1.8 3.2 -0.4
v 1.8 3.2 -0.5
v 1.8 3.2 -0.6
v 1.8 3.2 -0.7
v 1.8 3.2 -0.8
v 1.8 3.2 -0.9
v 1.8 3.3 -0.1
v 1.8 3.3 -0.2
v 1.8 3.3 -0.9
v 1.8 3.6 -0.2
v 1.8 3.6 -0.9
v 1.8 3.7 -0.1
v 1.8 3.7 -0.3
v 1.8 3.7 -1
v 0.2 2.1 -0.1
v 0.2 2.1 -0.2
v 0.2 2.2 -0.2
v 0.2 2.2 -0.3
v 0.2 2.8 -0.2
v 0.2 2.8 -0.3
v 0.2 2.9 -0.1
v 0.2 2.9 -0.2
v 0.4 2.1 -0.2
v 0.4 2.1 -0.4
v 0.4 2.2 -0.2
v 0.4 2.2 -0.3
v 0.4 2.8 -0.3
v 0.4 2.8 -0.4
v 0.4 3.2 -0.1
v 0.4 3.2 -0.2
v 0.4 3.5 -0.1
v 0.4 3.5 -0.2
v 0.7 2.3 -0.3
v 0.7 2.3 -0.4
v 0.7 2.4 -0.3
v 0.7 2.4 -0.4
v 0.8 3 0
v 0.8 3 -0.1
v 0.8 3.1 0
v 0.8 3.1 -0.1
v 0.9 3.1 0
v 0.9 3.1 -0.1
v 0.9 3.2 0
v 0.9 3.2 -0.1
v 0.9 3.5 0
v 0.9 3.5 -0.1
v 0.9 3.6 0
v 0.9 3.6 -0.1
v 1.1 2.6 -0.1
v 1.1 2.6 -0.2
v 1.1 2.8 -0.1
v 1.1 2.8 -0.2
v 1.1 3 -0.1
v 1.1 3 -0.7
v 1.1 3 -1
v 1.1 3.2 -0.1
v 1.1 3.2 -0.2
v 1.1 3.3 -0.1
v 1.1 3.3 -0.2
v 1.1 3.4 -0.7
v 1.1 3.4 -1
v 1.1 3.5 -0.7
v 1.1 3.5 -1
v 1.1 3.7 -0.1
v 1.1 3.7 -0.3
v 1.1 3.7 -1
v 1.2 3.4 -0.7
v 1.2 3.4 -1
v 1.2 3.5 -0.7
v 1.2 3.5 -1
v 1.3 3 -0.1
v 1.3 3 -0.2
v 1.3 3.2 -0.1
v 1.3 3.2 -0.2
v 1.5 3 -0.1
v 1.5 3 -0.2
v 1.5 3.2 -0.1
v 1.5 3.2 -0.2
v 1.7 3 -0.1
v 1.7 3 -0.2
v 1.7 3.2 -0.1
v 1.7 3.2 -0.2
v 1.9 2.1 -0.1
v 1.9 2.1 -1.9
v 1.9 3.1 -0.2
v 1.9 3.1 -0.3
v 1.9 3.1 -0.4
v 1.9 3.1 -0.5
v 1.9 3.1 -0.6
v 1.9 3.1 -0.7
v 1.9 3.1 -0.8
v 1.9 3.1 -0.9
v 1.9 3.2 -0.2
v 1.9 3.2 -0.3
v 1.9 3.2 -0.4
v 1.9 3.2 -0.5
v 1.9 3.2 -0.6
v 1.9 3.2 -0.7
v 1.9 3.2 -0.8
v 1.9 3.2 -0.9
v 1.9 3.3 -0.2
v 1.9 3.3 -0.9
v 1.9 3.6 -0.2
v 1.9 3.6 -0.9
v 1.9 3.7 -0.1
v 1.9 3.7 -0.3
v 1.9 3.7 -0.7
v 1.9 3.8 -0.7
v 1.9 3.8 -1.9
v 2 2 0
v 2 2 -2
v 2 2.1 0
v 2 2.1 -2
v 2 3.7 0
v 2 3.7 -0.3
v 2 3.7 -0.7
v 2 3.8 0
v 2 3.8 -0.3
v 2 3.8 -0.6
v 2 3.8 -0.7
v 2 3.8 -2
v 2 3.9 -0.3
v 2 3.9 -0.6
v 2 3.9 -2
v 2 4 -0.6
v 2 4 -2
v 0 2 0
v 0 2.1 0
v 0 3.7 0
v 0 3.8 0
v 0.3 3.1 0
v 0.3 3.2 0
v 0.3 3.5 0
v 0.3 3.6 0
v 0.4 3 0
v 0.4 3.1 0
v 0.8 3 0
v 0.8 3.1 0
v 0.9 3.1 0
v 0.9 3.2 0
v 0.9 3.5 0
v 0.9 3.6 0
v 2 2 0
v 2 2.1 0
v 2 3.7 0
v 2 3.8 0
v 0.1 2.1 -0.1
v 0.1 3.7 -0.1
v 0.2 2.1 -0.1
v 0.2 2.9 -0.1
v 0.3 3.1 -0.1
v 0.3 3.2 -0.1
v 0.3 3.5 -0.1
v 0.3 3.6 -0.1
v 0.4 3 -0.1
v 0.4 3.1 -0.1
v 0.4 3.2 -0.1
v 0.4 3.5 -0.1
v 0.8 3 -0.1
v 0.8 3.1 -0.1
v 0.8 3.2 -0.1
v 0.8 3.5 -0.1
v 0.9 3.1 -0.1
v 0.9 3.2 -0.1
v 0.9 3.5 -0.1
v 0.9 3.6 -0.1
v 1 2.1 -0.1
v 1 2.9 -0.1
v 1.1 2.6 -0.1
v 1.1 2.8 -0.1
v 1.1 3 -0.1
v 1.1 3.2 -0.1
v 1.1 3.3 -0.1
v 1.1 3.7 -0.1
v 1.2 3 -0.1
v 1.2 3.2 -0.1
v 1.3 3 -0.1
v 1.3 3.2 -0.1
v 1.4 3 -0.1
v 1.4 3.2 -0.1
v 1.5 3 -0.1
v 1.5 3.2 -0.1
v 1.6 3 -0.1
v 1.6 3.2 -0.1
v 1.7 3 -0.1
v 1.7 3.2 -0.1
v 1.8 2.6 -0.1
v 1.8 2.8 -0.1
v 1.8 3 -0.1
v 1.8 3.2 -0.1
v 1.8 3.3 -0.1
v 1.8 3.7 -0.1
v 1.9 2.1 -0.1
v 1.9 3.7 -0.1
v 0.2 2.1 -0.2
v 0.2 2.2 -0.2
v 0.2 2.8 -0.2
v 0.2 2.9 -0.2
v 0.4 2.1 -0.2
v 0.4 2.2 -0.2
v 0.4 3.2 -0.2
v 0.4 3.5 -0.2
v 0.8 2.1 -0.2
v 0.8 2.2 -0.2
v 0.8 3.2 -0.2
v 0.8 3.5 -0.2
v 1 2.1 -0.2
v 1 2.2 -0.2
v 1 2.8 -0.2
v 1 2.9 -0.2
v 1.1 2.6 -0.2
v 1.1 2.8 -0.2
v 1.4 2.6 -0.2
v 1.4 2.8 -0.2
v 1.5 2.6 -0.2
v 1.5 2.8 -0.2
v 1.8 2.6 -0.2
v 1.8 2.8 -0.2
v 0 3.8 -0.3
v 0 3.9 -0.3
v 0.2 2.2 -0.3
v 0.2 2.8 -0.3
v 0.4 2.2 -0.3
v 0.4 2.8 -0.3
v 0.6 2.3 -0.3
v 0.6 2.4 -0.3
v 0.7 2.3 -0.3
v 0.7 2.4 -0.3
v 0.8 2.2 -0.3
v 0.8 2.8 -0.3
v 1 2.2 -0.3
v 1 2.8 -0.3
v 1.8 3.1 -0.3
v 1.8 3.2 -0.3
v 1.9 3.1 -0.3
v 1.9 3.2 -0.3
v 2 3.8 -0.3
v 2 3.9 -0.3
v 0 2.3 -0.4
v 0 2.4 -0.4
v 0 2.8 -0.4
v 0 2.9 -0.4
v 0.1 2.3 -0.4
v 0.1 2.4 -0.4
v 0.1 2.8 -0.4
v 0.1 2.9 -0.4
v 0.4 2.1 -0.4
v 0.4 2.8 -0.4
v 0.6 2.3 -0.4
v 0.6 2.4 -0.4
v 0.7 2.3 -0.4
v 0.7 2.4 -0.4
v 0.8 2.1 -0.4
v 0.8 2.8 -0.4
v 0 2.2 -0.5
v 0 2.3 -0.5
v 0.1 2.2 -0.5
v 0.1 2.3 -0.5
v 1.8 3.1 -0.5
v 1.8 3.2 -0.5
v 1.9 3.1 -0.5
v 1.9 3.2 -0.5
v 0 3.9 -0.6
v 0 4 -0.6
v 2 3.9 -0.6
v 2 4 -0.6
v 1.1 3.4 -0.7
v 1.1 3.5 -0.7
v 1.2 3.4 -0.7
v 1.2 3.5 -0.7
v 1.8 3.1 -0.7
v 1.8 3.2 -0.7
v 1.9 3.1 -0.7
v 1.9 3.2 -0.7
v 0.1 2.4 -0.9
v 0.1 2.8 -0.9
v 0.2 2.4 -0.9
v 0.2 2.8 -0.9
v 1.8 3.1 -0.9
v 1.8 3.2 -0.9
v 1.8 3.3 -0.9
v 1.8 3.6 -0.9
v 1.9 3.1 -0.9
v 1.9 3.2 -0.9
v 1.9 3.3 -0.9
v 1.9 3.6 -0.9
v 1.1 3 -1
v 1.1 3.4 -1
v 1.1 3.5 -1
v 1.1 3.7 -1
v 1.2 3.4 -1
v 1.2 3.5 -1
v 1.8 3 -1
v 1.8 3.7 -1
v 1.1 3.2 -0.2
v 1.1 3.3 -0.2
v 1.2 3 -0.2
v 1.2 3.2 -0.2
v 1.3 3 -0.2
v 1.3 3.2 -0.2
v 1.4 3 -0.2
v 1.4 3.2 -0.2
v 1.5 3 -0.2
v 1.5 3.2 -0.2
v 1.6 3 -0.2
v 1.6 3.2 -0.2
v 1.7 3 -0.2
v 1.7 3.2 -0.2
v 1.8 3.1 -0.2
v 1.8 3.2 -0.2
v 1.8 3.3 -0.2
v 1.8 3.6 -0.2
v 1.9 3.1 -0.2
v 1.9 3.2 -0.2
v 1.9 3.3 -0.2
v 1.9 3.6 -0.2
v 1.8 3.1 -0.4
v 1.8 3.2 -0.4
v 1.9 3.1 -0.4
v 1.9 3.2 -0.4
v 0.1 2.4 -0.5
v 0.1 2.8 -0.5
v 0.2 2.4 -0.5
v 0.2 2.8 -0.5
v 0 3.7 -0.6
v 0 3.8 -0.6
v 0.1 3.7 -0.6
v 0.1 3.8 -0.6
v 1.8 3.1 -0.6
v 1.8 3.2 -0.6
v 1.9 3.1 -0.6
v 1.9 3.2 -0.6
v 1.9 3.7 -0.7
v 1.9 3.8 -0.7
v 2 3.7 -0.7
v 2 3.8 -0.7
v 1.8 3.1 -0.8
v 1.8 3.2 -0.8
v 1.9 3.1 -0.8
v 1.9 3.2 -0.8
v 0 2.2 -0.9
v 0 2.3 -0.9
v 0.1 2.2 -0.9
v 0.1 2.3 -0.9
v 0 2.3 -1
v 0 2.4 -1
v 0 2.8 -1
v 0 2.9 -1
v 0.1 2.3 -1
v 0.1 2.4 -1
v 0.1 2.8 -1
v 0.1 2.9 -1
v 0.1 2.1 -1.9
v 0.1 3.8 -1.9
v 1.9 2.1 -1.9
v 1.9 3.8 -1.9
v 0 2 -2
v 0 2.1 -2
v 0 3.8 -2
v 0 3.9 -2
v 0 4 -2
v 2 2 -2
v 2 2.1 -2
v 2 3.8 -2
v 2 3.9 -2
v 2 4 -2
v 0 2 0
v 2 2 0
v 0.1 2 -0.1
v 1.9 2 -0.1
v 0.1 2 -1.9
v 1.9 2 -1.9
v 0 2 -2
v 2 2 -2
v 0 2.2 -0.5
v 0.1 2.2 -0.5
v 0 2.2 -0.9
v 0.1 2.2 -0.9
v 0.6 2.3 -0.3
v 0.7 2.3 -0.3
v 0 2.3 -0.4
v 0.1 2.3 -0.4
v 0.6 2.3 -0.4
v 0.7 2.3 -0.4
v 0 2.3 -0.5
v 0.1 2.3 -0.5
v 0 2.3 -0.9
v 0.1 2.3 -0.9
v 0 2.3 -1
v 0.1 2.3 -1
v 1.1 2.8 -0.1
v 1.8 2.8 -0.1
v 0.2 2.8 -0.2
v 1 2.8 -0.2
v 1.1 2.8 -0.2
v 1.4 2.8 -0.2
v 1.5 2.8 -0.2
v 1.8 2.8 -0.2
v 0.2 2.8 -0.3
v 0.4 2.8 -0.3
v 0.8 2.8 -0.3
v 1 2.8 -0.3
v 0 2.8 -0.4
v 0.1 2.8 -0.4
v 0.4 2.8 -0.4
v 0.8 2.8 -0.4
v 0.1 2.8 -0.5
v 0.2 2.8 -0.5
v 0.1 2.8 -0.9
v 0.2 2.8 -0.9
v 0 2.8 -1
v 0.1 2.8 -1
v 0.2 2.9 -0.1
v 1 2.9 -0.1
v 0.2 2.9 -0.2
v 1 2.9 -0.2
v 0.4 3 0
v 0.8 3 0
v 0.4 3 -0.1
v 0.8 3 -0.1
v 0.3 3.1 0
v 0.4 3.1 0
v 0.8 3.1 0
v 0.9 3.1 0
v 0.3 3.1 -0.1
v 0.4 3.1 -0.1
v 0.8 3.1 -0.1
v 0.9 3.1 -0.1
v 1.1 3.2 -0.1
v 1.2 3.2 -0.1
v 1.3 3.2 -0.1
v 1.4 3.2 -0.1
v 1.5 3.2 -0.1
v 1.6 3.2 -0.1
v 1.7 3.2 -0.1
v 1.8 3.2 -0.1
v 1.1 3.2 -0.2
v 1.2 3.2 -0.2
v 1.3 3.2 -0.2
v 1.4 3.2 -0.2
v 1.5 3.2 -0.2
v 1.6 3.2 -0.2
v 1.7 3.2 -0.2
v 1.8 3.2 -0.2
v 1.9 3.2 -0.2
v 1.8 3.2 -0.3
v 1.9 3.2 -0.3
v 1.8 3.2 -0.4
v 1.9 3.2 -0.4
v 1.8 3.2 -0.5
v 1.9 3.2 -0.5
v 1.8 3.2 -0.6
v 1.9 3.2 -0.6
v 1.8 3.2 -0.7
v 1.9 3.2 -0.7
v 1.8 3.2 -0.8
v 1.9 3.2 -0.8
v 1.8 3.2 -0.9
v 1.9 3.2 -0.9
v 1.1 3.4 -0.7
v 1.2 3.4 -0.7
v 1.1 3.4 -1
v 1.2 3.4 -1
v 0.3 3.5 0
v 0.9 3.5 0
v 0.3 3.5 -0.1
v 0.4 3.5 -0.1
v 0.8 3.5 -0.1
v 0.9 3.5 -0.1
v 0.4 3.5 -0.2
v 0.8 3.5 -0.2
v 1.8 3.6 -0.2
v 1.9 3.6 -0.2
v 1.8 3.6 -0.9
v 1.9 3.6 -0.9
v 0 3.7 0
v 2 3.7 0
v 0.1 3.7 -0.1
v 1.1 3.7 -0.1
v 1.8 3.7 -0.1
v 1.9 3.7 -0.1
v 0 3.7 -0.3
v 0.1 3.7 -0.3
v 1.1 3.7 -0.3
v 1.8 3.7 -0.3
v 1.9 3.7 -0.3
v 2 3.7 -0.3
v 0 3.7 -0.6
v 0.1 3.7 -0.6
v 1.9 3.7 -0.7
v 2 3.7 -0.7
v 1.1 3.7 -1
v 1.8 3.7 -1
v 0 3.8 -0.6
v 0.1 3.8 -0.6
v 1.9 3.8 -0.7
v 2 3.8 -0.7
v 0.1 3.8 -1.9
v 1.9 3.8 -1.9
v 0 3.8 -2
v 2 3.8 -2
v 0 2.1 0
v 2 2.1 0
v 0.1 2.1 -0.1
v 0.2 2.1 -0.1
v 1 2.1 -0.1
v 1.9 2.1 -0.1
v 0.2 2.1 -0.2
v 0.4 2.1 -0.2
v 0.8 2.1 -0.2
v 1 2.1 -0.2
v 0.4 2.1 -0.4
v 0.8 2.1 -0.4
v 0.1 2.1 -1.9
v 1.9 2.1 -1.9
v 0 2.1 -2
v 2 2.1 -2
v 0.2 2.2 -0.2
v 0.4 2.2 -0.2
v 0.8 2.2 -0.2
v 1 2.2 -0.2
v 0.2 2.2 -0.3
v 0.4 2.2 -0.3
v 0.8 2.2 -0.3
v 1 2.2 -0.3
v 0.6 2.4 -0.3
v 0.7 2.4 -0.3
v 0 2.4 -0.4
v 0.1 2.4 -0.4
v 0.6 2.4 -0.4
v 0.7 2.4 -0.4
v 0.1 2.4 -0.5
v 0.2 2.4 -0.5
v 0.1 2.4 -0.9
v 0.2 2.4 -0.9
v 0 2.4 -1
v 0.1 2.4 -1
v 1.1 2.6 -0.1
v 1.8 2.6 -0.1
v 1.1 2.6 -0.2
v 1.4 2.6 -0.2
v 1.5 2.6 -0.2
v 1.8 2.6 -0.2
v 0 2.9 -0.4
v 0.1 2.9 -0.4
v 0 2.9 -1
v 0.1 2.9 -1
v 1.1 3 -0.1
v 1.2 3 -0.1
v 1.3 3 -0.1
v 1.4 3 -0.1
v 1.5 3 -0.1
v 1.6 3 -0.1
v 1.7 3 -0.1
v 1.8 3 -0.1
v 1.2 3 -0.2
v 1.3 3 -0.2
v 1.4 3 -0.2
v 1.5 3 -0.2
v 1.6 3 -0.2
v 1.7 3 -0.2
v 1.1 3 -0.7
v 1.1 3 -1
v 1.8 3 -1
v 1.8 3.1 -0.2
v 1.9 3.1 -0.2
v 1.8 3.1 -0.3
v 1.9 3.1 -0.3
v 1.8 3.1 -0.4
v 1.9 3.1 -0.4
v 1.8 3.1 -0.5
v 1.9 3.1 -0.5
v 1.8 3.1 -0.6
v 1.9 3.1 -0.6
v 1.8 3.1 -0.7
v 1.9 3.1 -0.7
v 1.8 3.1 -0.8
v 1.9 3.1 -0.8
v 1.8 3.1 -0.9
v 1.9 3.1 -0.9
v 0.3 3.2 0
v 0.9 3.2 0
v 0.3 3.2 -0.1
v 0.4 3.2 -0.1
v 0.8 3.2 -0.1
v 0.9 3.2 -0.1
v 0.4 3.2 -0.2
v 0.8 3.2 -0.2
v 1.1 3.3 -0.1
v 1.8 3.3 -0.1
v 1.1 3.3 -0.2
v 1.8 3.3 -0.2
v 1.9 3.3 -0.2
v 1.8 3.3 -0.9
v 1.9 3.3 -0.9
v 1.1 3.5 -0.7
v 1.2 3.5 -0.7
v 1.1 3.5 -1
v 1.2 3.5 -1
v 0.3 3.6 0
v 0.9 3.6 0
v 0.3 3.6 -0.1
v 0.9 3.6 -0.1
v 0 3.8 0
v 2 3.8 0
v 0 3.8 -0.3
v 2 3.8 -0.3
v 0 3.9 -0.3
v 2 3.9 -0.3
v 0 3.9 -0.6
v 2 3.9 -0.6
v 0 4 -0.6
v 2 4 -0.6
v 0 4 -2
v 2 4 -2

# faces
f 3/4/1 2/4/1 1/4/1
f 4/4/1 2/4/1 3/4/1
f 8/5/1 6/5/1 5/5/1
f 9/5/1 6/5/1 8/5/1
f 11/5/1 8/5/1 7/5/1
f 11/5/1 10/5/1 9/5/1
f 11/5/1 9/5/1 8/5/1
f 12/5/1 10/5/1 11/5/1
f 15/5/1 14/5/1 13/5/1
f 16/5/1 14/5/1 15/5/1
f 20/7/1 18/7/1 17/7/1
f 21/5/1 19/5/1 18/5/1
f 21/7/1 18/7/1 20/7/1
f 22/5/1 19/5/1 21/5/1
f 24/7/1 22/7/1 21/7/1
f 25/5/1 23/5/1 22/5/1
f 25/7/1 22/7/1 24/7/1
f 26/5/1 23/5/1 25/5/1
f 27/7/1 26/7/1 25/7/1
f 28/7/1 26/7/1 27/7/1
f 31/5/1 30/5/1 29/5/1
f 32/5/1 30/5/1 31/5/1
f 33/5/1 31/5/1 29/5/1
f 34/5/1 31/5/1 33/5/1
f 35/5/1 30/5/1 32/5/1
f 36/5/1 30/5/1 35/5/1
f 37/5/1 33/5/1 29/5/1
f 40/5/1 30/5/1 36/5/1
f 41/5/1 38/5/1 37/5/1
f 41/5/1 37/5/1 29/5/1
f 42/5/1 38/5/1 41/5/1
f 43/5/1 40/5/1 39/5/1
f 44/5/1 30/5/1 40/5/1
f 44/5/1 40/5/1 43/5/1
f 45/5/1 41/5/1 29/5/1
f 46/5/1 30/5/1 44/5/1
f 47/5/1 45/5/1 29/5/1
f 47/5/1 46/5/1 45/5/1
f 48/5/1 46/5/1 47/5/1
f 49/5/1 46/5/1 48/5/1
f 50/5/1 46/5/1 49/5/1
f 51/5/1 30/5/1 46/5/1
f 51/5/1 46/5/1 50/5/1
f 54/2/1 53/2/1 52/2/1
f 55/2/1 53/2/1 54/2/1
f 58/5/1 57/5/1 56/5/1
f 59/5/1 57/5/1 58/5/1
f 62/5/1 61/5/1 60/5/1
f 63/5/1 61/5/1 62/5/1
f 66/5/1 65/5/1 64/5/1
f 67/5/1 65/5/1 66/5/1
f 70/1/1 69/1/1 68/1/1
f 71/1/1 69/1/1 70/1/1
f 74/5/1 73/5/1 72/5/1
f 75/5/1 73/5/1 74/5/1
f 76/5/1 73/5/1 75/5/1
f 77/5/1 73/5/1 76/5/1
f 80/5/1 79/5/1 78/5/1
f 81/5/1 79/5/1 80/5/1
f 84/5/1 83/5/1 82/5/1
f 86/5/1 84/5/1 82/5/1
f 86/5/1 85/5/1 84/5/1
f 87/5/1 85/5/1 86/5/1
f 88/5/1 86/5/1 82/5/1
f 89/5/1 86/5/1 88/5/1
f 92/7/1 91/7/1 90/7/1
f 93/7/1 91/7/1 92/7/1
f 96/7/1 95/7/1 94/7/1
f 97/7/1 95/7/1 96/7/1
f 100/7/1 99/7/1 98/7/1
f 101/7/1 99/7/1 100/7/1
f 104/5/1 103/5/1 102/5/1
f 105/5/1 103/5/1 104/5/1
f 108/5/1 107/5/1 106/5/1
f 109/5/1 107/5/1 108/5/1
f 110/5/1 107/5/1 109/5/1
f 111/5/1 107/5/1 110/5/1
f 112/5/1 107/5/1 111/5/1
f 113/5/1 107/5/1 112/5/1
f 114/5/1 107/5/1 113/5/1
f 115/5/1 107/5/1 114/5/1
f 116/5/1 108/5/1 106/5/1
f 117/5/1 108/5/1 116/5/1
f 118/7/1 110/7/1 109/7/1
f 119/7/1 110/7/1 118/7/1
f 120/7/1 112/7/1 111/7/1
f 121/7/1 112/7/1 120/7/1
f 122/7/1 114/7/1 113/7/1
f 123/7/1 114/7/1 122/7/1
f 124/5/1 107/5/1 115/5/1
f 126/7/1 123/7/1 122/7/1
f 126/7/1 121/7/1 120/7/1
f 126/7/1 124/7/1 123/7/1
f 126/7/1 122/7/1 121/7/1
f 126/7/1 119/7/1 118/7/1
f 126/7/1 120/7/1 119/7/1
f 126/7/1 118/7/1 117/7/1
f 127/5/1 107/5/1 124/5/1
f 127/7/1 124/7/1 126/7/1
f 128/5/1 126/5/1 125/5/1
f 129/5/1 107/5/1 127/5/1
f 130/5/1 128/5/1 125/5/1
f 130/5/1 129/5/1 128/5/1
f 131/5/1 129/5/1 130/5/1
f 132/5/1 107/5/1 129/5/1
f 132/5/1 129/5/1 131/5/1
f 133/5/2 134/5/2 135/5/2
f 133/5/2 135/5/2 137/5/2
f 135/5/2 136/5/2 137/5/2
f 137/5/2 136/5/2 138/5/2
f 133/5/2 137/5/2 139/5/2
f 139/5/2 137/5/2 140/5/2
f 141/5/2 142/5/2 143/5/2
f 143/5/2 142/5/2 144/5/2
f 144/5/2 142/5/2 145/5/2
f 145/5/2 142/5/2 146/5/2
f 147/5/2 148/5/2 149/5/2
f 149/5/2 148/5/2 150/5/2
f 151/1/2 152/1/2 153/1/2
f 153/1/2 152/1/2 154/1/2
f 155/5/2 156/5/2 157/5/2
f 157/5/2 156/5/2 158/5/2
f 159/5/2 160/5/2 161/5/2
f 161/5/2 160/5/2 162/5/2
f 163/5/2 164/5/2 165/5/2
f 165/5/2 164/5/2 166/5/2
f 167/5/2 168/5/2 169/5/2
f 169/5/2 168/5/2 170/5/2
f 171/5/2 172/5/2 174/5/2
f 174/5/2 172/5/2 175/5/2
f 175/5/2 172/5/2 177/5/2
f 172/6/2 173/6/2 178/6/2
f 176/5/2 177/5/2 178/5/2
f 177/5/2 172/5/2 178/5/2
f 178/6/2 173/6/2 179/6/2
f 176/5/2 178/5/2 180/5/2
f 176/5/2 180/5/2 182/5/2
f 180/5/2 181/5/2 182/5/2
f 182/5/2 181/5/2 183/5/2
f 183/5/2 181/5/2 184/5/2
f 185/5/2 186/5/2 187/5/2
f 187/5/2 186/5/2 188/5/2
f 189/7/2 190/7/2 191/7/2
f 191/7/2 190/7/2 192/7/2
f 193/7/2 194/7/2 195/7/2
f 195/7/2 194/7/2 196/7/2
f 197/7/2 198/7/2 199/7/2
f 199/7/2 198/7/2 200/7/2
f 201/5/2 202/5/2 203/5/2
f 203/5/2 202/5/2 204/5/2
f 204/5/2 202/5/2 205/5/2
f 205/5/2 202/5/2 206/5/2
f 206/5/2 202/5/2 207/5/2
f 207/5/2 202/5/2 208/5/2
f 208/5/2 202/5/2 209/5/2
f 209/5/2 202/5/2 210/5/2
f 201/5/2 203/5/2 211/5/2
f 204/7/2 205/7/2 212/7/2
f 212/7/2 205/7/2 213/7/2
f 206/7/2 207/7/2 214/7/2
f 214/7/2 207/7/2 215/7/2
f 208/7/2 209/7/2 216/7/2
f 216/7/2 209/7/2 217/7/2
f 210/5/2 202/5/2 218/5/2
f 216/7/2 217/7/2 219/7/2
f 217/7/2 218/7/2 219/7/2
f 214/7/2 215/7/2 219/7/2
f 201/5/2 211/5/2 219/5/2
f 215/7/2 216/7/2 219/7/2
f 212/7/2 213/7/2 219/7/2
f 213/7/2 214/7/2 219/7/2
f 211/7/2 212/7/2 219/7/2
f 218/5/2 202/5/2 220/5/2
f 219/7/2 218/7/2 220/7/2
f 201/5/2 219/5/2 221/5/2
f 220/5/2 202/5/2 222/5/2
f 201/5/2 221/5/2 223/5/2
f 221/5/2 222/5/2 223/5/2
f 223/5/2 222/5/2 224/5/2
f 224/5/2 222/5/2 225/5/2
f 225/5/2 222/5/2 226/5/2
f 222/5/2 202/5/2 227/5/2
f 226/5/2 222/5/2 227/5/2
f 228/4/2 229/4/2 230/4/2
f 230/4/2 229/4/2 231/4/2
f 232/7/2 233/7/2 235/7/2
f 233/5/2 234/5/2 236/5/2
f 235/7/2 233/7/2 236/7/2
f 236/5/2 234/5/2 237/5/2
f 237/5/2 234/5/2 238/5/2
f 236/7/2 237/7/2 240/7/2
f 238/5/2 239/5/2 241/5/2
f 240/7/2 237/7/2 241/7/2
f 237/5/2 238/5/2 241/5/2
f 241/5/2 239/5/2 242/5/2
f 241/7/2 242/7/2 243/7/2
f 243/7/2 242/7/2 244/7/2
f 254/5/3 250/5/3 249/5/3
f 255/5/3 254/5/3 253/5/3
f 256/5/3 250/5/3 254/5/3
f 256/5/3 254/5/3 255/5/3
f 257/5/3 250/5/3 256/5/3
f 258/5/3 250/5/3 257/5/3
f 259/5/3 252/5/3 251/5/3
f 260/5/3 252/5/3 259/5/3
f 261/4/3 246/4/3 245/4/3
f 262/4/3 246/4/3 261/4/3
f 263/7/3 248/7/3 247/7/3
f 264/7/3 248/7/3 263/7/3
f 267/5/3 266/5/3 265/5/3
f 268/5/3 266/5/3 267/5/3
f 269/5/3 266/5/3 268/5/3
f 270/5/3 266/5/3 269/5/3
f 271/5/3 266/5/3 270/5/3
f 272/5/3 266/5/3 271/5/3
f 273/5/3 269/5/3 268/5/3
f 274/5/3 269/5/3 273/5/3
f 275/5/3 271/5/3 270/5/3
f 276/5/3 271/5/3 275/5/3
f 277/5/3 273/5/3 268/5/3
f 281/5/3 278/5/3 277/5/3
f 282/5/3 280/5/3 279/5/3
f 283/5/3 280/5/3 282/5/3
f 284/5/3 266/5/3 272/5/3
f 286/5/3 283/5/3 282/5/3
f 286/5/3 284/5/3 283/5/3
f 286/5/3 282/5/3 281/5/3
f 286/5/3 277/5/3 268/5/3
f 286/5/3 281/5/3 277/5/3
f 287/5/3 286/5/3 285/5/3
f 288/5/3 286/5/3 287/5/3
f 289/5/3 284/5/3 286/5/3
f 289/5/3 286/5/3 288/5/3
f 290/5/3 284/5/3 289/5/3
f 291/5/3 284/5/3 290/5/3
f 292/5/3 266/5/3 284/5/3
f 292/5/3 284/5/3 291/5/3
f 293/5/3 289/5/3 288/5/3
f 294/7/3 291/7/3 290/7/3
f 295/5/3 293/5/3 288/5/3
f 295/7/3 294/7/3 293/7/3
f 296/7/3 291/7/3 294/7/3
f 296/7/3 294/7/3 295/7/3
f 297/5/3 295/5/3 288/5/3
f 298/7/3 291/7/3 296/7/3
f 299/5/3 297/5/3 288/5/3
f 299/7/3 298/7/3 297/7/3
f 300/7/3 291/7/3 298/7/3
f 300/7/3 298/7/3 299/7/3
f 301/5/3 299/5/3 288/5/3
f 302/7/3 291/7/3 300/7/3
f 303/5/3 301/5/3 288/5/3
f 303/7/3 302/7/3 301/7/3
f 304/7/3 291/7/3 302/7/3
f 304/7/3 302/7/3 303/7/3
f 305/5/3 287/5/3 285/5/3
f 306/5/3 303/5/3 288/5/3
f 307/5/3 303/5/3 306/5/3
f 308/7/3 291/7/3 304/7/3
f 309/7/3 291/7/3 308/7/3
f 311/5/3 305/5/3 285/5/3
f 311/5/3 310/5/3 309/5/3
f 311/5/3 309/5/3 308/5/3
f 311/5/3 308/5/3 307/5/3
f 311/5/3 307/5/3 306/5/3
f 311/5/3 306/5/3 305/5/3
f 312/5/3 310/5/3 311/5/3
f 317/5/3 314/5/3 313/5/3
f 318/5/3 314/5/3 317/5/3
f 323/2/3 320/2/3 319/2/3
f 324/2/3 320/2/3 323/2/3
f 325/5/3 322/5/3 321/5/3
f 326/5/3 322/5/3 325/5/3
f 327/5/3 316/5/3 315/5/3
f 328/5/3 316/5/3 327/5/3
f 331/2/3 330/2/3 329/2/3
f 332/2/3 330/2/3 331/2/3
f 333/5/3 332/5/3 331/5/3
f 334/5/3 332/5/3 333/5/3
f 335/2/3 334/2/3 333/2/3
f 336/2/3 334/2/3 335/2/3
f 341/5/3 340/5/3 339/5/3
f 342/5/3 340/5/3 341/5/3
f 345/1/3 344/1/3 343/1/3
f 346/1/3 344/1/3 345/1/3
f 349/5/3 348/5/3 347/5/3
f 350/5/3 348/5/3 349/5/3
f 353/7/3 352/7/3 351/7/3
f 354/7/3 352/7/3 353/7/3
f 355/7/3 338/7/3 337/7/3
f 356/7/3 338/7/3 355/7/3
f 361/5/3 358/5/3 357/5/3
f 362/5/3 358/5/3 361/5/3
f 363/5/3 360/5/3 359/5/3
f 364/5/3 360/5/3 363/5/3
f 367/3/3 366/3/3 365/3/3
f 368/3/3 366/3/3 367/3/3
f 369/3/3 367/3/3 365/3/3
f 370/3/3 366/3/3 368/3/3
f 371/3/3 369/3/3 365/3/3
f 371/3/3 370/3/3 369/3/3
f 372/3/3 366/3/3 370/3/3
f 372/3/3 370/3/3 371/3/3
f 375/5/3 374/5/3 373/5/3
f 376/5/3 374/5/3 375/5/3
f 379/7/3 378/7/3 377/7/3
f 380/7/3 378/7/3 379/7/3
f 383/7/3 382/7/3 381/7/3
f 384/7/3 382/7/3 383/7/3
f 387/5/3 386/5/3 385/5/3
f 388/5/3 386/5/3 387/5/3
f 391/7/3 390/7/3 389/7/3
f 392/7/3 390/7/3 391/7/3
f 395/5/3 394/5/3 393/5/3
f 396/5/3 394/5/3 395/5/3
f 401/5/3 398/5/3 397/5/3
f 402/5/3 398/5/3 401/5/3
f 403/5/3 400/5/3 399/5/3
f 404/5/3 400/5/3 403/5/3
f 409/5/3 406/5/3 405/5/3
f 410/5/3 408/5/3 407/5/3
f 411/5/3 409/5/3 405/5/3
f 411/5/3 410/5/3 409/5/3
f 412/5/3 408/5/3 410/5/3
f 412/5/3 410/5/3 411/5/3
f 413/7/4 414/7/4 416/7/4
f 415/7/4 416/7/4 417/7/4
f 416/7/4 414/7/4 418/7/4
f 417/7/4 416/7/4 418/7/4
f 418/7/4 414/7/4 420/7/4
f 419/7/4 420/7/4 421/7/4
f 420/7/4 414/7/4 422/7/4
f 421/7/4 420/7/4 422/7/4
f 422/7/4 414/7/4 424/7/4
f 423/7/4 424/7/4 425/7/4
f 424/7/4 414/7/4 426/7/4
f 425/7/4 424/7/4 426/7/4
f 426/7/4 414/7/4 428/7/4
f 428/7/4 414/7/4 429/7/4
f 427/5/4 428/5/4 431/5/4
f 431/5/4 428/5/4 432/5/4
f 429/5/4 430/5/4 433/5/4
f 433/5/4 430/5/4 434/5/4
f 435/7/4 436/7/4 437/7/4
f 437/7/4 436/7/4 438/7/4
f 439/5/4 440/5/4 441/5/4
f 441/5/4 440/5/4 442/5/4
f 443/5/4 444/5/4 445/5/4
f 445/5/4 444/5/4 446/5/4
f 447/7/4 448/7/4 449/7/4
f 449/7/4 448/7/4 450/7/4
f 451/5/4 452/5/4 453/5/4
f 453/5/4 452/5/4 454/5/4
f 455/7/4 456/7/4 457/7/4
f 457/7/4 456/7/4 458/7/4
f 459/5/4 460/5/4 461/5/4
f 461/5/4 460/5/4 462/5/4
f 463/5/4 464/5/4 467/5/4
f 467/5/4 464/5/4 468/5/4
f 465/5/4 466/5/4 469/5/4
f 469/5/4 466/5/4 470/5/4
f 471/5/4 472/5/4 473/5/4
f 473/5/4 472/5/4 474/5/4
f 475/4/4 476/4/4 480/4/4
f 480/4/4 476/4/4 481/4/4
f 477/5/4 478/5/4 482/5/4
f 478/7/4 479/7/4 483/7/4
f 482/5/4 478/5/4 483/5/4
f 483/7/4 479/7/4 484/7/4
f 487/4/5 486/4/5 485/4/5
f 488/4/5 486/4/5 487/4/5
f 489/4/5 487/4/5 485/4/5
f 489/5/5 488/5/5 487/5/5
f 490/4/5 486/4/5 488/4/5
f 490/5/5 488/5/5 489/5/5
f 491/4/5 489/4/5 485/4/5
f 491/4/5 490/4/5 489/4/5
f 492/4/5 486/4/5 490/4/5
f 492/4/5 490/4/5 491/4/5
f 495/5/5 494/5/5 493/5/5
f 496/5/5 494/5/5 495/5/5
f 501/1/5 498/1/5 497/1/5
f 502/1/5 498/1/5 501/1/5
f 503/5/5 500/5/5 499/5/5
f 504/5/5 500/5/5 503/5/5
f 507/5/5 506/5/5 505/5/5
f 508/5/5 506/5/5 507/5/5
f 513/5/5 510/5/5 509/5/5
f 514/5/5 510/5/5 513/5/5
f 515/5/5 510/5/5 514/5/5
f 516/5/5 510/5/5 515/5/5
f 517/5/5 512/5/5 511/5/5
f 518/5/5 512/5/5 517/5/5
f 519/5/5 512/5/5 518/5/5
f 520/5/5 512/5/5 519/5/5
f 523/5/5 519/5/5 518/5/5
f 524/5/5 519/5/5 523/5/5
f 525/5/5 522/5/5 521/5/5
f 527/5/5 525/5/5 521/5/5
f 527/5/5 526/5/5 525/5/5
f 528/5/5 526/5/5 527/5/5
f 529/5/5 527/5/5 521/5/5
f 530/5/5 527/5/5 529/5/5
f 533/5/5 532/5/5 531/5/5
f 534/5/5 532/5/5 533/5/5
f 537/5/5 536/5/5 535/5/5
f 538/5/5 536/5/5 537/5/5
f 543/5/5 540/5/5 539/5/5
f 544/5/5 540/5/5 543/5/5
f 545/5/5 542/5/5 541/5/5
f 546/5/5 542/5/5 545/5/5
f 555/7/5 548/7/5 547/7/5
f 556/7/5 548/7/5 555/7/5
f 557/7/5 550/7/5 549/7/5
f 558/7/5 550/7/5 557/7/5
f 559/7/5 552/7/5 551/7/5
f 560/7/5 552/7/5 559/7/5
f 561/7/5 554/7/5 553/7/5
f 562/7/5 554/7/5 561/7/5
f 564/7/5 563/7/5 562/7/5
f 565/7/5 563/7/5 564/7/5
f 568/7/5 567/7/5 566/7/5
f 569/7/5 567/7/5 568/7/5
f 572/7/5 571/7/5 570/7/5
f 573/7/5 571/7/5 572/7/5
f 576/7/5 575/7/5 574/7/5
f 577/7/5 575/7/5 576/7/5
f 580/5/5 579/5/5 578/5/5
f 581/5/5 579/5/5 580/5/5
f 584/5/5 583/5/5 582/5/5
f 585/5/5 583/5/5 584/5/5
f 586/5/5 583/5/5 585/5/5
f 587/5/5 583/5/5 586/5/5
f 588/5/5 586/5/5 585/5/5
f 589/5/5 586/5/5 588/5/5
f 592/5/5 591/5/5 590/5/5
f 593/5/5 591/5/5 592/5/5
f 596/7/5 595/7/5 594/7/5
f 597/7/5 595/7/5 596/7/5
f 598/7/5 595/7/5 597/7/5
f 599/7/5 595/7/5 598/7/5
f 600/7/5 596/7/5 594/7/5
f 601/7/5 596/7/5 600/7/5
f 602/7/5 598/7/5 597/7/5
f 603/7/5 598/7/5 602/7/5
f 604/7/5 595/7/5 599/7/5
f 605/7/5 595/7/5 604/7/5
f 606/5/5 601/5/5 600/5/5
f 607/5/5 601/5/5 606/5/5
f 608/5/5 605/5/5 604/5/5
f 609/5/5 605/5/5 608/5/5
f 610/5/5 603/5/5 602/5/5
f 611/5/5 603/5/5 610/5/5
f 616/5/5 613/5/5 612/5/5
f 617/5/5 615/5/5 614/5/5
f 618/5/5 616/5/5 612/5/5
f 618/5/5 617/5/5 616/5/5
f 619/5/5 615/5/5 617/5/5
f 619/5/5 617/5/5 618/5/5
f 620/4/6 621/4/6 622/4/6
f 622/4/6 621/4/6 623/4/6
f 623/4/6 621/4/6 624/4/6
f 624/4/6 621/4/6 625/4/6
f 623/5/6 624/5/6 626/5/6
f 626/5/6 624/5/6 627/5/6
f 627/5/6 624/5/6 628/5/6
f 628/5/6 624/5/6 629/5/6
f 627/5/6 628/5/6 630/5/6
f 630/5/6 628/5/6 631/5/6
f 620/4/6 622/4/6 632/4/6
f 625/4/6 621/4/6 633/4/6
f 620/4/6 632/4/6 634/4/6
f 632/4/6 633/4/6 634/4/6
f 633/4/6 621/4/6 635/4/6
f 634/4/6 633/4/6 635/4/6
f 636/5/6 637/5/6 640/5/6
f 640/5/6 637/5/6 641/5/6
f 638/5/6 639/5/6 642/5/6
f 642/5/6 639/5/6 643/5/6
f 644/1/6 645/1/6 648/1/6
f 648/1/6 645/1/6 649/1/6
f 646/5/6 647/5/6 650/5/6
f 646/5/6 650/5/6 652/5/6
f 650/5/6 651/5/6 652/5/6
f 652/5/6 651/5/6 653/5/6
f 646/5/6 652/5/6 654/5/6
f 654/5/6 652/5/6 655/5/6
f 656/5/6 657/5/6 658/5/6
f 658/5/6 657/5/6 659/5/6
f 659/5/6 657/5/6 660/5/6
f 660/5/6 657/5/6 661/5/6
f 662/5/6 663/5/6 664/5/6
f 664/5/6 663/5/6 665/5/6
f 666/5/6 667/5/6 674/5/6
f 668/5/6 669/5/6 675/5/6
f 675/5/6 669/5/6 676/5/6
f 670/5/6 671/5/6 677/5/6
f 677/5/6 671/5/6 678/5/6
f 672/5/6 673/5/6 679/5/6
f 677/5/6 678/5/6 680/5/6
f 678/5/6 679/5/6 680/5/6
f 666/5/6 674/5/6 680/5/6
f 675/5/6 676/5/6 680/5/6
f 676/5/6 677/5/6 680/5/6
f 674/5/6 675/5/6 680/5/6
f 680/5/6 679/5/6 681/5/6
f 679/5/6 673/5/6 682/5/6
f 681/5/6 679/5/6 682/5/6
f 683/5/6 684/5/6 685/5/6
f 685/5/6 684/5/6 686/5/6
f 687/5/6 688/5/6 689/5/6
f 689/5/6 688/5/6 690/5/6
f 691/5/6 692/5/6 693/5/6
f 693/5/6 692/5/6 694/5/6
f 695/5/6 696/5/6 697/5/6
f 697/5/6 696/5/6 698/5/6
f 699/5/6 700/5/6 701/5/6
f 701/5/6 700/5/6 702/5/6
f 702/5/6 700/5/6 703/5/6
f 703/5/6 700/5/6 704/5/6
f 702/5/6 703/5/6 705/5/6
f 705/5/6 703/5/6 706/5/6
f 707/7/6 708/7/6 709/7/6
f 709/7/6 708/7/6 710/7/6
f 710/7/6 711/7/6 712/7/6
f 712/7/6 711/7/6 713/7/6
f 714/5/6 715/5/6 716/5/6
f 716/5/6 715/5/6 717/5/6
f 718/5/6 719/5/6 720/5/6
f 720/5/6 719/5/6 721/5/6
f 722/7/6 723/7/6 724/7/6
f 724/7/6 723/7/6 725/7/6
f 726/7/6 727/7/6 728/7/6
f 728/7/6 727/7/6 729/7/6
f 730/7/6 731/7/6 732/7/6
f 732/7/6 731/7/6 733/7/6
