# MagicaVoxel @ Ephtracy

# group
o 

# material
mtllib 20_LongHouse_04.mtl
usemtl palette

# normals
vn -1 0 0
vn 1 0 0
vn 0 0 1
vn 0 0 -1
vn 0 -1 0
vn 0 1 0

# texcoords
vt 0.0175781 0.5
vt 0.708984 0.5
vt 0.744141 0.5
vt 0.865234 0.5
vt 0.962891 0.5
vt 0.978516 0.5

# verts
v 0 2 0
v 0 2 -2
v 0 2.1 0
v 0 2.1 -2
v 0 5.9 -0.9
v 0 5.9 -2
v 0 6 -0.9
v 0 6 -2
v 0.1 2.1 -1
v 0.1 2.1 -1.9
v 0.1 5.9 -1
v 0.1 5.9 -1.9
v 0.3 4 -0.2
v 0.3 4 -1
v 0.3 4.6 -0.3
v 0.3 4.6 -1
v 0.3 4.7 -0.3
v 0.3 4.7 -1
v 0.3 4.8 -0.2
v 0.3 4.8 -1
v 0.5 2.1 -0.4
v 0.5 2.1 -0.6
v 0.5 4 -0.4
v 0.5 4 -0.6
v 0.8 4.2 -0.2
v 0.8 4.2 -0.3
v 0.8 4.4 -0.2
v 0.8 4.4 -0.3
v 0.8 4.6 -0.2
v 0.8 4.6 -0.3
v 0.8 4.7 -0.2
v 0.8 4.7 -0.3
v 0.8 4.7 -1
v 0.8 4.8 -0.3
v 0.8 4.8 -1
v 1 3 -0.6
v 1 3 -1
v 1 3.7 -0.6
v 1 3.7 -1
v 1 4.8 -0.9
v 1 4.8 -1
v 1 5.7 -0.9
v 1 5.7 -1
v 1.1 4 -1.2
v 1.1 4 -1.3
v 1.1 4.5 -1.2
v 1.1 4.5 -1.3
v 1.4 4 -1.2
v 1.4 4 -1.3
v 1.4 4.5 -1.2
v 1.4 4.5 -1.3
v 1.5 4.9 -0.9
v 1.5 4.9 -1
v 1.5 5.6 -0.9
v 1.5 5.6 -1
v 1.6 3.3 -0.6
v 1.6 3.3 -0.7
v 1.6 3.5 -0.6
v 1.6 3.5 -0.7
v 1.6 4 -1
v 1.6 4 -1.5
v 1.6 4.5 -1
v 1.6 4.5 -1.5
v 1.7 2.4 -1
v 1.7 2.4 -1.1
v 1.7 2.5 -1
v 1.7 2.5 -1.1
v 1.8 2.1 -1
v 1.8 2.1 -1.1
v 1.8 2.4 -1
v 1.8 2.4 -1.1
v 1.8 2.5 -1
v 1.8 2.5 -1.1
v 1.8 2.7 -1
v 1.8 2.7 -1.1
v 0.4 4.2 -0.2
v 0.4 4.2 -0.3
v 0.4 4.4 -0.2
v 0.4 4.4 -0.3
v 0.4 4.6 -0.2
v 0.4 4.6 -0.3
v 0.4 4.7 -0.2
v 0.4 4.7 -0.3
v 0.4 4.7 -1
v 0.4 4.8 -0.3
v 0.4 4.8 -1
v 0.7 2.1 -0.4
v 0.7 2.1 -0.6
v 0.7 4 -0.4
v 0.7 4 -0.6
v 0.9 4 -0.2
v 0.9 4 -1
v 0.9 4.6 -0.3
v 0.9 4.6 -1
v 0.9 4.7 -0.3
v 0.9 4.7 -1
v 0.9 4.8 -0.2
v 0.9 4.8 -1
v 1 4 -1
v 1 4 -1.5
v 1 4.5 -1
v 1 4.5 -1.5
v 1.1 3.3 -0.6
v 1.1 3.3 -0.7
v 1.1 3.5 -0.6
v 1.1 3.5 -0.7
v 1.1 4.9 -0.9
v 1.1 4.9 -1
v 1.1 5.6 -0.9
v 1.1 5.6 -1
v 1.2 4 -1.2
v 1.2 4 -1.3
v 1.2 4.5 -1.2
v 1.2 4.5 -1.3
v 1.4 2.1 -1
v 1.4 2.1 -1.1
v 1.4 2.7 -1
v 1.4 2.7 -1.1
v 1.5 4 -1.2
v 1.5 4 -1.3
v 1.5 4.5 -1.2
v 1.5 4.5 -1.3
v 1.6 4.8 -0.9
v 1.6 4.8 -1
v 1.6 5.7 -0.9
v 1.6 5.7 -1
v 1.7 3 -0.6
v 1.7 3 -1
v 1.7 3.7 -0.6
v 1.7 3.7 -1
v 1.9 2.1 -1
v 1.9 2.1 -1.9
v 1.9 5.9 -1
v 1.9 5.9 -1.9
v 2 2 0
v 2 2 -2
v 2 2.1 0
v 2 2.1 -2
v 2 5.9 -0.9
v 2 5.9 -2
v 2 6 -0.9
v 2 6 -2
v 0 2 0
v 0 2.1 0
v 2 2 0
v 2 2.1 0
v 0.3 4 -0.2
v 0.3 4.8 -0.2
v 0.4 4.2 -0.2
v 0.4 4.4 -0.2
v 0.4 4.6 -0.2
v 0.4 4.7 -0.2
v 0.8 4.2 -0.2
v 0.8 4.4 -0.2
v 0.8 4.6 -0.2
v 0.8 4.7 -0.2
v 0.9 4 -0.2
v 0.9 4.8 -0.2
v 0.4 4.2 -0.3
v 0.4 4.4 -0.3
v 0.8 4.2 -0.3
v 0.8 4.4 -0.3
v 0.5 2.1 -0.4
v 0.5 4 -0.4
v 0.7 2.1 -0.4
v 0.7 4 -0.4
v 1 3 -0.6
v 1 3.7 -0.6
v 1.1 3.3 -0.6
v 1.1 3.5 -0.6
v 1.6 3.3 -0.6
v 1.6 3.5 -0.6
v 1.7 3 -0.6
v 1.7 3.7 -0.6
v 1.1 3.3 -0.7
v 1.1 3.5 -0.7
v 1.6 3.3 -0.7
v 1.6 3.5 -0.7
v 0 5.9 -0.9
v 0 6 -0.9
v 1 4.8 -0.9
v 1 5.7 -0.9
v 1.1 4.9 -0.9
v 1.1 5.6 -0.9
v 1.5 4.9 -0.9
v 1.5 5.6 -0.9
v 1.6 4.8 -0.9
v 1.6 5.7 -0.9
v 2 5.9 -0.9
v 2 6 -0.9
v 0.1 2.1 -1
v 0.1 5.9 -1
v 0.3 4 -1
v 0.3 4.6 -1
v 0.3 4.7 -1
v 0.3 4.8 -1
v 0.4 4.7 -1
v 0.4 4.8 -1
v 0.8 4.7 -1
v 0.8 4.8 -1
v 0.9 4 -1
v 0.9 4.6 -1
v 0.9 4.7 -1
v 0.9 4.8 -1
v 1 3 -1
v 1 3.7 -1
v 1 4 -1
v 1 4.5 -1
v 1 4.8 -1
v 1 5.7 -1
v 1.1 4.9 -1
v 1.1 5.6 -1
v 1.4 2.1 -1
v 1.4 2.7 -1
v 1.5 4.9 -1
v 1.5 5.6 -1
v 1.6 4 -1
v 1.6 4.5 -1
v 1.6 4.8 -1
v 1.6 5.7 -1
v 1.7 2.4 -1
v 1.7 2.5 -1
v 1.7 3 -1
v 1.7 3.7 -1
v 1.8 2.1 -1
v 1.8 2.4 -1
v 1.8 2.5 -1
v 1.8 2.7 -1
v 1.9 2.1 -1
v 1.9 5.9 -1
v 1.4 2.1 -1.1
v 1.4 2.7 -1.1
v 1.7 2.4 -1.1
v 1.7 2.5 -1.1
v 1.8 2.1 -1.1
v 1.8 2.4 -1.1
v 1.8 2.5 -1.1
v 1.8 2.7 -1.1
v 1.1 4 -1.2
v 1.1 4.5 -1.2
v 1.2 4 -1.2
v 1.2 4.5 -1.2
v 1.4 4 -1.2
v 1.4 4.5 -1.2
v 1.5 4 -1.2
v 1.5 4.5 -1.2
v 1 4 -1.5
v 1 4.5 -1.5
v 1.6 4 -1.5
v 1.6 4.5 -1.5
v 0.3 4.6 -0.3
v 0.3 4.7 -0.3
v 0.4 4.6 -0.3
v 0.4 4.7 -0.3
v 0.4 4.8 -0.3
v 0.8 4.6 -0.3
v 0.8 4.7 -0.3
v 0.8 4.8 -0.3
v 0.9 4.6 -0.3
v 0.9 4.7 -0.3
v 0.5 2.1 -0.6
v 0.5 4 -0.6
v 0.7 2.1 -0.6
v 0.7 4 -0.6
v 1.1 4 -1.3
v 1.1 4.5 -1.3
v 1.2 4 -1.3
v 1.2 4.5 -1.3
v 1.4 4 -1.3
v 1.4 4.5 -1.3
v 1.5 4 -1.3
v 1.5 4.5 -1.3
v 0.1 2.1 -1.9
v 0.1 5.9 -1.9
v 1.9 2.1 -1.9
v 1.9 5.9 -1.9
v 0 2 -2
v 0 2.1 -2
v 0 5.9 -2
v 0 6 -2
v 2 2 -2
v 2 2.1 -2
v 2 5.9 -2
v 2 6 -2
v 0 2 0
v 2 2 0
v 0 2 -2
v 2 2 -2
v 1.7 2.4 -1
v 1.8 2.4 -1
v 1.7 2.4 -1.1
v 1.8 2.4 -1.1
v 1.4 2.7 -1
v 1.8 2.7 -1
v 1.4 2.7 -1.1
v 1.8 2.7 -1.1
v 1 3 -0.6
v 1.7 3 -0.6
v 1 3 -1
v 1.7 3 -1
v 1.1 3.5 -0.6
v 1.6 3.5 -0.6
v 1.1 3.5 -0.7
v 1.6 3.5 -0.7
v 0.3 4 -0.2
v 0.9 4 -0.2
v 0.5 4 -0.4
v 0.7 4 -0.4
v 0.5 4 -0.6
v 0.7 4 -0.6
v 0.3 4 -1
v 0.9 4 -1
v 0.4 4.4 -0.2
v 0.8 4.4 -0.2
v 0.4 4.4 -0.3
v 0.8 4.4 -0.3
v 1 4.5 -1
v 1.6 4.5 -1
v 1.1 4.5 -1.2
v 1.2 4.5 -1.2
v 1.4 4.5 -1.2
v 1.5 4.5 -1.2
v 1.1 4.5 -1.3
v 1.2 4.5 -1.3
v 1.4 4.5 -1.3
v 1.5 4.5 -1.3
v 1 4.5 -1.5
v 1.6 4.5 -1.5
v 0.4 4.7 -0.2
v 0.8 4.7 -0.2
v 0.3 4.7 -0.3
v 0.4 4.7 -0.3
v 0.8 4.7 -0.3
v 0.9 4.7 -0.3
v 0.3 4.7 -1
v 0.4 4.7 -1
v 0.8 4.7 -1
v 0.9 4.7 -1
v 1 4.8 -0.9
v 1.6 4.8 -0.9
v 1 4.8 -1
v 1.6 4.8 -1
v 1.1 5.6 -0.9
v 1.5 5.6 -0.9
v 1.1 5.6 -1
v 1.5 5.6 -1
v 0 5.9 -0.9
v 2 5.9 -0.9
v 0.1 5.9 -1
v 1.9 5.9 -1
v 0.1 5.9 -1.9
v 1.9 5.9 -1.9
v 0 5.9 -2
v 2 5.9 -2
v 0 2.1 0
v 2 2.1 0
v 0.5 2.1 -0.4
v 0.7 2.1 -0.4
v 0.5 2.1 -0.6
v 0.7 2.1 -0.6
v 0.1 2.1 -1
v 1.4 2.1 -1
v 1.8 2.1 -1
v 1.9 2.1 -1
v 1.4 2.1 -1.1
v 1.8 2.1 -1.1
v 0.1 2.1 -1.9
v 1.9 2.1 -1.9
v 0 2.1 -2
v 2 2.1 -2
v 1.7 2.5 -1
v 1.8 2.5 -1
v 1.7 2.5 -1.1
v 1.8 2.5 -1.1
v 1.1 3.3 -0.6
v 1.6 3.3 -0.6
v 1.1 3.3 -0.7
v 1.6 3.3 -0.7
v 1 3.7 -0.6
v 1.7 3.7 -0.6
v 1 3.7 -1
v 1.7 3.7 -1
v 1 4 -1
v 1.6 4 -1
v 1.1 4 -1.2
v 1.2 4 -1.2
v 1.4 4 -1.2
v 1.5 4 -1.2
v 1.1 4 -1.3
v 1.2 4 -1.3
v 1.4 4 -1.3
v 1.5 4 -1.3
v 1 4 -1.5
v 1.6 4 -1.5
v 0.4 4.2 -0.2
v 0.8 4.2 -0.2
v 0.4 4.2 -0.3
v 0.8 4.2 -0.3
v 0.4 4.6 -0.2
v 0.8 4.6 -0.2
v 0.3 4.6 -0.3
v 0.4 4.6 -0.3
v 0.8 4.6 -0.3
v 0.9 4.6 -0.3
v 0.3 4.6 -1
v 0.9 4.6 -1
v 0.3 4.8 -0.2
v 0.9 4.8 -0.2
v 0.4 4.8 -0.3
v 0.8 4.8 -0.3
v 0.3 4.8 -1
v 0.4 4.8 -1
v 0.8 4.8 -1
v 0.9 4.8 -1
v 1.1 4.9 -0.9
v 1.5 4.9 -0.9
v 1.1 4.9 -1
v 1.5 4.9 -1
v 1 5.7 -0.9
v 1.6 5.7 -0.9
v 1 5.7 -1
v 1.6 5.7 -1
v 0 6 -0.9
v 2 6 -0.9
v 0 6 -2
v 2 6 -2

# faces
f 3/3/1 2/3/1 1/3/1
f 4/3/1 2/3/1 3/3/1
f 7/6/1 6/6/1 5/6/1
f 8/6/1 6/6/1 7/6/1
f 11/5/1 10/5/1 9/5/1
f 12/5/1 10/5/1 11/5/1
f 15/5/1 14/5/1 13/5/1
f 16/5/1 14/5/1 15/5/1
f 17/5/1 15/5/1 13/5/1
f 19/5/1 17/5/1 13/5/1
f 19/5/1 18/5/1 17/5/1
f 20/5/1 18/5/1 19/5/1
f 23/5/1 22/5/1 21/5/1
f 24/5/1 22/5/1 23/5/1
f 27/5/1 26/5/1 25/5/1
f 28/5/1 26/5/1 27/5/1
f 31/5/1 30/5/1 29/5/1
f 32/5/1 30/5/1 31/5/1
f 34/5/1 33/5/1 32/5/1
f 35/5/1 33/5/1 34/5/1
f 38/5/1 37/5/1 36/5/1
f 39/5/1 37/5/1 38/5/1
f 42/5/1 41/5/1 40/5/1
f 43/5/1 41/5/1 42/5/1
f 46/5/1 45/5/1 44/5/1
f 47/5/1 45/5/1 46/5/1
f 50/5/1 49/5/1 48/5/1
f 51/5/1 49/5/1 50/5/1
f 54/5/1 53/5/1 52/5/1
f 55/5/1 53/5/1 54/5/1
f 58/5/1 57/5/1 56/5/1
f 59/5/1 57/5/1 58/5/1
f 62/5/1 61/5/1 60/5/1
f 63/5/1 61/5/1 62/5/1
f 66/1/1 65/1/1 64/1/1
f 67/1/1 65/1/1 66/1/1
f 70/5/1 69/5/1 68/5/1
f 71/5/1 69/5/1 70/5/1
f 74/5/1 73/5/1 72/5/1
f 75/5/1 73/5/1 74/5/1
f 76/5/2 77/5/2 78/5/2
f 78/5/2 77/5/2 79/5/2
f 80/5/2 81/5/2 82/5/2
f 82/5/2 81/5/2 83/5/2
f 83/5/2 84/5/2 85/5/2
f 85/5/2 84/5/2 86/5/2
f 87/5/2 88/5/2 89/5/2
f 89/5/2 88/5/2 90/5/2
f 91/5/2 92/5/2 93/5/2
f 93/5/2 92/5/2 94/5/2
f 91/5/2 93/5/2 95/5/2
f 91/5/2 95/5/2 97/5/2
f 95/5/2 96/5/2 97/5/2
f 97/5/2 96/5/2 98/5/2
f 99/5/2 100/5/2 101/5/2
f 101/5/2 100/5/2 102/5/2
f 103/5/2 104/5/2 105/5/2
f 105/5/2 104/5/2 106/5/2
f 107/5/2 108/5/2 109/5/2
f 109/5/2 108/5/2 110/5/2
f 111/5/2 112/5/2 113/5/2
f 113/5/2 112/5/2 114/5/2
f 115/5/2 116/5/2 117/5/2
f 117/5/2 116/5/2 118/5/2
f 119/5/2 120/5/2 121/5/2
f 121/5/2 120/5/2 122/5/2
f 123/5/2 124/5/2 125/5/2
f 125/5/2 124/5/2 126/5/2
f 127/5/2 128/5/2 129/5/2
f 129/5/2 128/5/2 130/5/2
f 131/5/2 132/5/2 133/5/2
f 133/5/2 132/5/2 134/5/2
f 135/3/2 136/3/2 137/3/2
f 137/3/2 136/3/2 138/3/2
f 139/6/2 140/6/2 141/6/2
f 141/6/2 140/6/2 142/6/2
f 145/3/3 144/3/3 143/3/3
f 146/3/3 144/3/3 145/3/3
f 149/5/3 148/5/3 147/5/3
f 150/5/3 148/5/3 149/5/3
f 151/5/3 148/5/3 150/5/3
f 152/5/3 148/5/3 151/5/3
f 153/5/3 149/5/3 147/5/3
f 154/5/3 151/5/3 150/5/3
f 155/5/3 151/5/3 154/5/3
f 156/5/3 148/5/3 152/5/3
f 157/5/3 155/5/3 154/5/3
f 157/5/3 156/5/3 155/5/3
f 157/5/3 153/5/3 147/5/3
f 157/5/3 154/5/3 153/5/3
f 158/5/3 148/5/3 156/5/3
f 158/5/3 156/5/3 157/5/3
f 161/2/3 160/2/3 159/2/3
f 162/2/3 160/2/3 161/2/3
f 165/5/3 164/5/3 163/5/3
f 166/5/3 164/5/3 165/5/3
f 169/5/3 168/5/3 167/5/3
f 170/5/3 168/5/3 169/5/3
f 171/5/3 169/5/3 167/5/3
f 172/5/3 168/5/3 170/5/3
f 173/5/3 171/5/3 167/5/3
f 173/5/3 172/5/3 171/5/3
f 174/5/3 168/5/3 172/5/3
f 174/5/3 172/5/3 173/5/3
f 177/2/3 176/2/3 175/2/3
f 178/2/3 176/2/3 177/2/3
f 183/5/3 182/5/3 181/5/3
f 184/5/3 182/5/3 183/5/3
f 185/5/3 183/5/3 181/5/3
f 186/5/3 182/5/3 184/5/3
f 187/5/3 185/5/3 181/5/3
f 187/5/3 186/5/3 185/5/3
f 188/5/3 182/5/3 186/5/3
f 188/5/3 186/5/3 187/5/3
f 189/6/3 180/6/3 179/6/3
f 190/6/3 180/6/3 189/6/3
f 193/5/3 192/5/3 191/5/3
f 194/5/3 192/5/3 193/5/3
f 195/5/3 192/5/3 194/5/3
f 196/5/3 192/5/3 195/5/3
f 197/5/3 195/5/3 194/5/3
f 198/5/3 192/5/3 196/5/3
f 199/5/3 197/5/3 194/5/3
f 199/5/3 198/5/3 197/5/3
f 200/5/3 192/5/3 198/5/3
f 200/5/3 198/5/3 199/5/3
f 201/5/3 193/5/3 191/5/3
f 202/5/3 199/5/3 194/5/3
f 203/5/3 199/5/3 202/5/3
f 204/5/3 192/5/3 200/5/3
f 205/5/3 203/5/3 202/5/3
f 205/5/3 204/5/3 203/5/3
f 205/5/3 201/5/3 191/5/3
f 205/5/3 202/5/3 201/5/3
f 206/5/3 204/5/3 205/5/3
f 207/5/3 204/5/3 206/5/3
f 208/5/3 204/5/3 207/5/3
f 209/5/3 192/5/3 204/5/3
f 209/5/3 204/5/3 208/5/3
f 210/5/3 192/5/3 209/5/3
f 213/5/3 205/5/3 191/5/3
f 214/5/3 205/5/3 213/5/3
f 215/2/3 212/2/3 211/2/3
f 216/2/3 212/2/3 215/2/3
f 217/5/3 207/5/3 206/5/3
f 218/5/3 209/5/3 208/5/3
f 219/5/3 209/5/3 218/5/3
f 220/5/3 192/5/3 210/5/3
f 223/5/3 205/5/3 214/5/3
f 224/5/3 219/5/3 218/5/3
f 224/5/3 217/5/3 206/5/3
f 224/5/3 220/5/3 219/5/3
f 224/5/3 218/5/3 217/5/3
f 226/1/3 222/1/3 221/1/3
f 227/1/3 222/1/3 226/1/3
f 228/5/3 223/5/3 214/5/3
f 228/5/3 224/5/3 223/5/3
f 229/5/3 227/5/3 226/5/3
f 229/5/3 228/5/3 227/5/3
f 229/5/3 226/5/3 225/5/3
f 230/5/3 224/5/3 228/5/3
f 230/5/3 228/5/3 229/5/3
f 230/5/3 192/5/3 220/5/3
f 230/5/3 220/5/3 224/5/3
f 233/4/3 232/4/3 231/4/3
f 234/4/3 232/4/3 233/4/3
f 235/4/3 233/4/3 231/4/3
f 236/4/3 233/4/3 235/4/3
f 237/4/3 232/4/3 234/4/3
f 238/4/3 232/4/3 237/4/3
f 241/5/3 240/5/3 239/5/3
f 242/5/3 240/5/3 241/5/3
f 245/5/3 244/5/3 243/5/3
f 246/5/3 244/5/3 245/5/3
f 249/6/3 248/6/3 247/6/3
f 250/6/3 248/6/3 249/6/3
f 251/5/4 252/5/4 253/5/4
f 253/5/4 252/5/4 254/5/4
f 254/5/4 255/5/4 257/5/4
f 257/5/4 255/5/4 258/5/4
f 256/5/4 257/5/4 259/5/4
f 259/5/4 257/5/4 260/5/4
f 261/5/4 262/5/4 263/5/4
f 263/5/4 262/5/4 264/5/4
f 265/5/4 266/5/4 267/5/4
f 267/5/4 266/5/4 268/5/4
f 269/5/4 270/5/4 271/5/4
f 271/5/4 270/5/4 272/5/4
f 273/5/4 274/5/4 275/5/4
f 275/5/4 274/5/4 276/5/4
f 277/3/4 278/3/4 281/3/4
f 281/3/4 278/3/4 282/3/4
f 279/6/4 280/6/4 283/6/4
f 283/6/4 280/6/4 284/6/4
f 287/3/5 286/3/5 285/3/5
f 288/3/5 286/3/5 287/3/5
f 291/1/5 290/1/5 289/1/5
f 292/1/5 290/1/5 291/1/5
f 295/5/5 294/5/5 293/5/5
f 296/5/5 294/5/5 295/5/5
f 299/5/5 298/5/5 297/5/5
f 300/5/5 298/5/5 299/5/5
f 303/5/5 302/5/5 301/5/5
f 304/5/5 302/5/5 303/5/5
f 307/5/5 306/5/5 305/5/5
f 308/5/5 306/5/5 307/5/5
f 309/5/5 307/5/5 305/5/5
f 310/5/5 306/5/5 308/5/5
f 311/5/5 309/5/5 305/5/5
f 311/5/5 310/5/5 309/5/5
f 312/5/5 306/5/5 310/5/5
f 312/5/5 310/5/5 311/5/5
f 315/5/5 314/5/5 313/5/5
f 316/5/5 314/5/5 315/5/5
f 319/5/5 318/5/5 317/5/5
f 320/5/5 318/5/5 319/5/5
f 321/5/5 318/5/5 320/5/5
f 322/5/5 318/5/5 321/5/5
f 323/5/5 319/5/5 317/5/5
f 324/5/5 321/5/5 320/5/5
f 325/5/5 321/5/5 324/5/5
f 326/5/5 318/5/5 322/5/5
f 327/5/5 325/5/5 324/5/5
f 327/5/5 326/5/5 325/5/5
f 327/5/5 323/5/5 317/5/5
f 327/5/5 324/5/5 323/5/5
f 328/5/5 318/5/5 326/5/5
f 328/5/5 326/5/5 327/5/5
f 332/5/5 330/5/5 329/5/5
f 333/5/5 330/5/5 332/5/5
f 335/5/5 332/5/5 331/5/5
f 336/5/5 332/5/5 335/5/5
f 337/5/5 334/5/5 333/5/5
f 338/5/5 334/5/5 337/5/5
f 341/5/5 340/5/5 339/5/5
f 342/5/5 340/5/5 341/5/5
f 345/5/5 344/5/5 343/5/5
f 346/5/5 344/5/5 345/5/5
f 349/6/5 348/6/5 347/6/5
f 350/6/5 348/6/5 349/6/5
f 351/6/5 349/6/5 347/6/5
f 352/6/5 348/6/5 350/6/5
f 353/6/5 351/6/5 347/6/5
f 353/6/5 352/6/5 351/6/5
f 354/6/5 348/6/5 352/6/5
f 354/6/5 352/6/5 353/6/5
f 355/3/6 356/3/6 357/3/6
f 357/3/6 356/3/6 358/3/6
f 355/3/6 357/3/6 359/3/6
f 358/3/6 356/3/6 360/3/6
f 355/3/6 359/3/6 361/3/6
f 359/3/6 360/3/6 361/3/6
f 360/3/6 356/3/6 362/3/6
f 361/3/6 360/3/6 362/3/6
f 362/3/6 356/3/6 363/3/6
f 363/3/6 356/3/6 364/3/6
f 362/3/6 363/3/6 365/3/6
f 365/3/6 363/3/6 366/3/6
f 355/3/6 361/3/6 367/3/6
f 364/3/6 356/3/6 368/3/6
f 355/3/6 367/3/6 369/3/6
f 367/3/6 368/3/6 369/3/6
f 368/3/6 356/3/6 370/3/6
f 369/3/6 368/3/6 370/3/6
f 371/1/6 372/1/6 373/1/6
f 373/1/6 372/1/6 374/1/6
f 375/5/6 376/5/6 377/5/6
f 377/5/6 376/5/6 378/5/6
f 379/5/6 380/5/6 381/5/6
f 381/5/6 380/5/6 382/5/6
f 383/5/6 384/5/6 385/5/6
f 385/5/6 384/5/6 386/5/6
f 386/5/6 384/5/6 387/5/6
f 387/5/6 384/5/6 388/5/6
f 383/5/6 385/5/6 389/5/6
f 386/5/6 387/5/6 390/5/6
f 390/5/6 387/5/6 391/5/6
f 388/5/6 384/5/6 392/5/6
f 390/5/6 391/5/6 393/5/6
f 391/5/6 392/5/6 393/5/6
f 383/5/6 389/5/6 393/5/6
f 389/5/6 390/5/6 393/5/6
f 392/5/6 384/5/6 394/5/6
f 393/5/6 392/5/6 394/5/6
f 395/5/6 396/5/6 397/5/6
f 397/5/6 396/5/6 398/5/6
f 399/5/6 400/5/6 402/5/6
f 402/5/6 400/5/6 403/5/6
f 401/5/6 402/5/6 405/5/6
f 403/5/6 404/5/6 405/5/6
f 402/5/6 403/5/6 405/5/6
f 405/5/6 404/5/6 406/5/6
f 407/5/6 408/5/6 409/5/6
f 409/5/6 408/5/6 410/5/6
f 407/5/6 409/5/6 411/5/6
f 411/5/6 409/5/6 412/5/6
f 410/5/6 408/5/6 413/5/6
f 413/5/6 408/5/6 414/5/6
f 415/5/6 416/5/6 417/5/6
f 417/5/6 416/5/6 418/5/6
f 419/5/6 420/5/6 421/5/6
f 421/5/6 420/5/6 422/5/6
f 423/6/6 424/6/6 425/6/6
f 425/6/6 424/6/6 426/6/6
