# MagicaVoxel @ Ephtracy

# group
o 

# material
mtllib 20_LongHouse_05.mtl
usemtl palette

# normals
vn -1 0 0
vn 1 0 0
vn 0 0 1
vn 0 0 -1
vn 0 -1 0
vn 0 1 0

# texcoords
vt 0.0136719 0.5
vt 0.0175781 0.5
vt 0.708984 0.5
vt 0.744141 0.5
vt 0.857422 0.5
vt 0.861328 0.5
vt 0.962891 0.5
vt 0.970703 0.5
vt 0.978516 0.5

# verts
v 0 2 0
v 0 2 -2
v 0 2.1 0
v 0 2.1 -2
v 0 4.1 0
v 0 4.1 -2
v 0 4.2 0
v 0 4.2 -2
v 0 5.9 -0.9
v 0 5.9 -2
v 0 6 -0.9
v 0 6 -2
v 0.1 2.1 -1
v 0.1 2.1 -1.9
v 0.1 3.1 -1
v 0.1 3.1 -1.9
v 0.1 3.2 -1
v 0.1 3.2 -1.9
v 0.1 4.1 -1
v 0.1 4.1 -1.9
v 0.1 4.2 -1
v 0.1 4.2 -1.9
v 0.1 5.9 -1
v 0.1 5.9 -1.9
v 0.2 2.1 -0.2
v 0.2 2.1 -0.4
v 0.2 4.1 -0.2
v 0.2 4.1 -0.4
v 0.2 4.2 -0.2
v 0.2 4.2 -0.4
v 0.2 4.3 -0.2
v 0.2 4.3 -0.4
v 0.3 2.4 -1.1
v 0.3 2.4 -1.2
v 0.3 2.7 -1.1
v 0.3 2.7 -1.2
v 0.5 4.5 -1
v 0.5 4.5 -1.1
v 0.5 4.6 -1
v 0.5 4.6 -1.1
v 0.6 4.2 -1
v 0.6 4.2 -1.1
v 0.6 4.5 -1
v 0.6 4.5 -1.1
v 0.6 4.6 -1
v 0.6 4.6 -1.1
v 0.6 4.8 -1
v 0.6 4.8 -1.1
v 0.7 3.6 -1
v 0.7 3.6 -1.1
v 0.7 4 -1
v 0.7 4 -1.1
v 0.9 2.4 -1.1
v 0.9 2.4 -1.2
v 0.9 2.7 -1.1
v 0.9 2.7 -1.2
v 1 5 -0.9
v 1 5 -1
v 1 5 -1.9
v 1 5 -2
v 1 5.1 -0.9
v 1 5.1 -1
v 1 5.1 -1.9
v 1 5.1 -2
v 1.1 2.4 -1
v 1.1 2.4 -1.3
v 1.1 2.7 -1
v 1.1 2.7 -1.3
v 1.2 3.6 -1
v 1.2 3.6 -1.1
v 1.2 4 -1
v 1.2 4 -1.1
v 1.5 3.6 -1
v 1.5 3.6 -1.1
v 1.5 4 -1
v 1.5 4 -1.1
v 1.6 2.1 -0.2
v 1.6 2.1 -0.4
v 1.6 2.4 -1
v 1.6 2.4 -1.1
v 1.6 2.5 -1
v 1.6 2.5 -1.1
v 1.6 4.1 -0.2
v 1.6 4.1 -0.4
v 1.6 4.2 -0.2
v 1.6 4.2 -0.4
v 1.6 4.3 -0.2
v 1.6 4.3 -0.4
v 1.7 2.1 -1
v 1.7 2.1 -1.1
v 1.7 2.4 -1
v 1.7 2.4 -1.1
v 1.7 2.5 -1
v 1.7 2.5 -1.1
v 1.7 2.7 -1
v 1.7 2.7 -1.1
v 1.7 3.4 -1.1
v 1.7 3.4 -1.8
v 1.7 3.5 -1.1
v 1.7 3.5 -1.8
v 0.2 2.4 -1
v 0.2 2.4 -1.3
v 0.2 2.7 -1
v 0.2 2.7 -1.3
v 0.2 4.2 -1
v 0.2 4.2 -1.1
v 0.2 4.8 -1
v 0.2 4.8 -1.1
v 0.4 2.1 -0.2
v 0.4 2.1 -0.4
v 0.4 2.4 -1.1
v 0.4 2.4 -1.2
v 0.4 2.7 -1.1
v 0.4 2.7 -1.2
v 0.4 4.1 -0.2
v 0.4 4.1 -0.4
v 0.4 4.2 -0.2
v 0.4 4.2 -0.4
v 0.4 4.3 -0.2
v 0.4 4.3 -0.4
v 0.5 3.6 -1
v 0.5 3.6 -1.1
v 0.5 4 -1
v 0.5 4 -1.1
v 0.8 3.6 -1
v 0.8 3.6 -1.1
v 0.8 4 -1
v 0.8 4 -1.1
v 0.9 4.5 -1
v 0.9 4.5 -1.1
v 0.9 4.7 -1
v 0.9 4.7 -1.1
v 1 2.4 -1.1
v 1 2.4 -1.2
v 1 2.7 -1.1
v 1 2.7 -1.2
v 1 5.1 -1
v 1 5.1 -1.9
v 1 5.9 -1
v 1 5.9 -1.9
v 1.1 5.9 -0.9
v 1.1 5.9 -2
v 1.1 6 -0.9
v 1.1 6 -2
v 1.3 2.1 -1
v 1.3 2.1 -1.1
v 1.3 2.7 -1
v 1.3 2.7 -1.1
v 1.3 3.6 -1
v 1.3 3.6 -1.1
v 1.3 4 -1
v 1.3 4 -1.1
v 1.6 3.3 -1.1
v 1.6 3.3 -1.8
v 1.6 3.9 -1.1
v 1.6 3.9 -1.8
v 1.7 4.5 -1.1
v 1.7 4.5 -1.7
v 1.7 4.7 -1.1
v 1.7 4.7 -1.7
v 1.8 2.1 -0.2
v 1.8 2.1 -0.4
v 1.8 2.4 -1.1
v 1.8 2.4 -1.8
v 1.8 3 -1.1
v 1.8 3 -1.8
v 1.8 3.4 -1.1
v 1.8 3.4 -1.8
v 1.8 3.5 -1.1
v 1.8 3.5 -1.8
v 1.8 4.1 -0.2
v 1.8 4.1 -0.4
v 1.8 4.2 -0.2
v 1.8 4.2 -0.4
v 1.8 4.2 -1
v 1.8 4.2 -1.9
v 1.8 4.3 -0.2
v 1.8 4.3 -0.4
v 1.8 4.5 -1
v 1.8 4.5 -1.7
v 1.8 4.7 -1
v 1.8 4.7 -1.7
v 1.8 5 -1
v 1.8 5 -1.9
v 1.9 2.1 -1
v 1.9 2.1 -1.9
v 1.9 2.4 -1.1
v 1.9 2.4 -1.8
v 1.9 3 -1.1
v 1.9 3 -1.8
v 1.9 3.1 -1
v 1.9 3.1 -1.9
v 1.9 3.2 -1
v 1.9 3.2 -1.9
v 1.9 3.3 -1.1
v 1.9 3.3 -1.8
v 1.9 3.9 -1.1
v 1.9 3.9 -1.8
v 1.9 4.1 -1
v 1.9 4.1 -1.9
v 1.9 5 -0.9
v 1.9 5 -2
v 1.9 5.1 -0.9
v 1.9 5.1 -2
v 2 2 0
v 2 2 -2
v 2 2.1 0
v 2 2.1 -2
v 2 4.1 0
v 2 4.1 -2
v 2 4.2 0
v 2 4.2 -2
v 0 2 0
v 0 2.1 0
v 0 4.1 0
v 0 4.2 0
v 2 2 0
v 2 2.1 0
v 2 4.1 0
v 2 4.2 0
v 0.2 2.1 -0.2
v 0.2 4.1 -0.2
v 0.2 4.2 -0.2
v 0.2 4.3 -0.2
v 0.4 2.1 -0.2
v 0.4 4.1 -0.2
v 0.4 4.2 -0.2
v 0.4 4.3 -0.2
v 1.6 2.1 -0.2
v 1.6 4.1 -0.2
v 1.6 4.2 -0.2
v 1.6 4.3 -0.2
v 1.8 2.1 -0.2
v 1.8 4.1 -0.2
v 1.8 4.2 -0.2
v 1.8 4.3 -0.2
v 0 5.9 -0.9
v 0 6 -0.9
v 1 5 -0.9
v 1 5.1 -0.9
v 1.1 5.9 -0.9
v 1.1 6 -0.9
v 1.9 5 -0.9
v 1.9 5.1 -0.9
v 0.1 2.1 -1
v 0.1 3.1 -1
v 0.1 3.2 -1
v 0.1 4.1 -1
v 0.1 4.2 -1
v 0.1 5.9 -1
v 0.2 2.4 -1
v 0.2 2.7 -1
v 0.2 4.2 -1
v 0.2 4.8 -1
v 0.5 3.6 -1
v 0.5 4 -1
v 0.5 4.5 -1
v 0.5 4.6 -1
v 0.6 4.2 -1
v 0.6 4.5 -1
v 0.6 4.6 -1
v 0.6 4.8 -1
v 0.7 3.6 -1
v 0.7 4 -1
v 0.8 3.6 -1
v 0.8 4 -1
v 0.9 4.5 -1
v 0.9 4.7 -1
v 1 5 -1
v 1 5.1 -1
v 1 5.9 -1
v 1.1 2.4 -1
v 1.1 2.7 -1
v 1.2 3.6 -1
v 1.2 4 -1
v 1.3 2.1 -1
v 1.3 2.7 -1
v 1.3 3.6 -1
v 1.3 4 -1
v 1.5 3.6 -1
v 1.5 4 -1
v 1.6 2.4 -1
v 1.6 2.5 -1
v 1.7 2.1 -1
v 1.7 2.4 -1
v 1.7 2.5 -1
v 1.7 2.7 -1
v 1.8 4.2 -1
v 1.8 4.5 -1
v 1.8 4.7 -1
v 1.8 5 -1
v 1.9 2.1 -1
v 1.9 3.1 -1
v 1.9 3.2 -1
v 1.9 4.1 -1
v 0.2 4.2 -1.1
v 0.2 4.8 -1.1
v 0.3 2.4 -1.1
v 0.3 2.7 -1.1
v 0.4 2.4 -1.1
v 0.4 2.7 -1.1
v 0.5 3.6 -1.1
v 0.5 4 -1.1
v 0.5 4.5 -1.1
v 0.5 4.6 -1.1
v 0.6 4.2 -1.1
v 0.6 4.5 -1.1
v 0.6 4.6 -1.1
v 0.6 4.8 -1.1
v 0.7 3.6 -1.1
v 0.7 4 -1.1
v 0.8 3.6 -1.1
v 0.8 4 -1.1
v 0.9 2.4 -1.1
v 0.9 2.7 -1.1
v 0.9 4.5 -1.1
v 0.9 4.7 -1.1
v 1 2.4 -1.1
v 1 2.7 -1.1
v 1.2 3.6 -1.1
v 1.2 4 -1.1
v 1.3 2.1 -1.1
v 1.3 2.7 -1.1
v 1.3 3.6 -1.1
v 1.3 4 -1.1
v 1.5 3.6 -1.1
v 1.5 4 -1.1
v 1.6 2.4 -1.1
v 1.6 2.5 -1.1
v 1.7 2.1 -1.1
v 1.7 2.4 -1.1
v 1.7 2.5 -1.1
v 1.7 2.7 -1.1
v 1.7 4.5 -1.1
v 1.7 4.7 -1.1
v 0.2 2.4 -1.3
v 0.2 2.7 -1.3
v 1.1 2.4 -1.3
v 1.1 2.7 -1.3
v 1.7 4.5 -1.7
v 1.7 4.7 -1.7
v 1.8 4.5 -1.7
v 1.8 4.7 -1.7
v 1.6 3.3 -1.8
v 1.6 3.9 -1.8
v 1.7 3.4 -1.8
v 1.7 3.5 -1.8
v 1.8 2.4 -1.8
v 1.8 3 -1.8
v 1.8 3.4 -1.8
v 1.8 3.5 -1.8
v 1.9 2.4 -1.8
v 1.9 3 -1.8
v 1.9 3.3 -1.8
v 1.9 3.9 -1.8
v 0.2 2.1 -0.4
v 0.2 4.1 -0.4
v 0.2 4.2 -0.4
v 0.2 4.3 -0.4
v 0.4 2.1 -0.4
v 0.4 4.1 -0.4
v 0.4 4.2 -0.4
v 0.4 4.3 -0.4
v 1.6 2.1 -0.4
v 1.6 4.1 -0.4
v 1.6 4.2 -0.4
v 1.6 4.3 -0.4
v 1.8 2.1 -0.4
v 1.8 4.1 -0.4
v 1.8 4.2 -0.4
v 1.8 4.3 -0.4
v 1.6 3.3 -1.1
v 1.6 3.9 -1.1
v 1.7 3.4 -1.1
v 1.7 3.5 -1.1
v 1.8 2.4 -1.1
v 1.8 3 -1.1
v 1.8 3.4 -1.1
v 1.8 3.5 -1.1
v 1.9 2.4 -1.1
v 1.9 3 -1.1
v 1.9 3.3 -1.1
v 1.9 3.9 -1.1
v 0.3 2.4 -1.2
v 0.3 2.7 -1.2
v 0.4 2.4 -1.2
v 0.4 2.7 -1.2
v 0.9 2.4 -1.2
v 0.9 2.7 -1.2
v 1 2.4 -1.2
v 1 2.7 -1.2
v 0.1 2.1 -1.9
v 0.1 3.1 -1.9
v 0.1 3.2 -1.9
v 0.1 4.1 -1.9
v 0.1 4.2 -1.9
v 0.1 5.9 -1.9
v 1 5 -1.9
v 1 5.1 -1.9
v 1 5.9 -1.9
v 1.8 4.2 -1.9
v 1.8 5 -1.9
v 1.9 2.1 -1.9
v 1.9 3.1 -1.9
v 1.9 3.2 -1.9
v 1.9 4.1 -1.9
v 0 2 -2
v 0 2.1 -2
v 0 4.1 -2
v 0 4.2 -2
v 0 5.9 -2
v 0 6 -2
v 1 5 -2
v 1 5.1 -2
v 1.1 5.9 -2
v 1.1 6 -2
v 1.9 5 -2
v 1.9 5.1 -2
v 2 2 -2
v 2 2.1 -2
v 2 4.1 -2
v 2 4.2 -2
v 0 2 0
v 2 2 0
v 0 2 -2
v 2 2 -2
v 1.6 2.4 -1
v 1.7 2.4 -1
v 1.6 2.4 -1.1
v 1.7 2.4 -1.1
v 0.2 2.7 -1
v 1.1 2.7 -1
v 1.3 2.7 -1
v 1.7 2.7 -1
v 0.3 2.7 -1.1
v 0.4 2.7 -1.1
v 0.9 2.7 -1.1
v 1 2.7 -1.1
v 1.3 2.7 -1.1
v 1.7 2.7 -1.1
v 0.3 2.7 -1.2
v 0.4 2.7 -1.2
v 0.9 2.7 -1.2
v 1 2.7 -1.2
v 0.2 2.7 -1.3
v 1.1 2.7 -1.3
v 1.8 3 -1.1
v 1.9 3 -1.1
v 1.8 3 -1.8
v 1.9 3 -1.8
v 1.7 3.4 -1.1
v 1.8 3.4 -1.1
v 1.7 3.4 -1.8
v 1.8 3.4 -1.8
v 1.6 3.9 -1.1
v 1.9 3.9 -1.1
v 1.6 3.9 -1.8
v 1.9 3.9 -1.8
v 0.5 4 -1
v 0.7 4 -1
v 0.8 4 -1
v 1.2 4 -1
v 1.3 4 -1
v 1.5 4 -1
v 0.5 4 -1.1
v 0.7 4 -1.1
v 0.8 4 -1.1
v 1.2 4 -1.1
v 1.3 4 -1.1
v 1.5 4 -1.1
v 0 4.1 0
v 2 4.1 0
v 0.2 4.1 -0.2
v 0.4 4.1 -0.2
v 1.6 4.1 -0.2
v 1.8 4.1 -0.2
v 0.2 4.1 -0.4
v 0.4 4.1 -0.4
v 1.6 4.1 -0.4
v 1.8 4.1 -0.4
v 0.1 4.1 -1
v 1.9 4.1 -1
v 0.1 4.1 -1.9
v 1.9 4.1 -1.9
v 0 4.1 -2
v 2 4.1 -2
v 0.5 4.5 -1
v 0.6 4.5 -1
v 0.5 4.5 -1.1
v 0.6 4.5 -1.1
v 0.9 4.7 -1
v 1.8 4.7 -1
v 0.9 4.7 -1.1
v 1.7 4.7 -1.1
v 1.7 4.7 -1.7
v 1.8 4.7 -1.7
v 0.2 4.8 -1
v 0.6 4.8 -1
v 0.2 4.8 -1.1
v 0.6 4.8 -1.1
v 1 5 -0.9
v 1.9 5 -0.9
v 1 5 -1
v 1.8 5 -1
v 1 5 -1.9
v 1.8 5 -1.9
v 1 5 -2
v 1.9 5 -2
v 0 5.9 -0.9
v 1.1 5.9 -0.9
v 0.1 5.9 -1
v 1 5.9 -1
v 0.1 5.9 -1.9
v 1 5.9 -1.9
v 0 5.9 -2
v 1.1 5.9 -2
v 0 2.1 0
v 2 2.1 0
v 0.2 2.1 -0.2
v 0.4 2.1 -0.2
v 1.6 2.1 -0.2
v 1.8 2.1 -0.2
v 0.2 2.1 -0.4
v 0.4 2.1 -0.4
v 1.6 2.1 -0.4
v 1.8 2.1 -0.4
v 0.1 2.1 -1
v 1.3 2.1 -1
v 1.7 2.1 -1
v 1.9 2.1 -1
v 1.3 2.1 -1.1
v 1.7 2.1 -1.1
v 0.1 2.1 -1.9
v 1.9 2.1 -1.9
v 0 2.1 -2
v 2 2.1 -2
v 0.2 2.4 -1
v 1.1 2.4 -1
v 0.3 2.4 -1.1
v 0.4 2.4 -1.1
v 0.9 2.4 -1.1
v 1 2.4 -1.1
v 1.8 2.4 -1.1
v 1.9 2.4 -1.1
v 0.3 2.4 -1.2
v 0.4 2.4 -1.2
v 0.9 2.4 -1.2
v 1 2.4 -1.2
v 0.2 2.4 -1.3
v 1.1 2.4 -1.3
v 1.8 2.4 -1.8
v 1.9 2.4 -1.8
v 1.6 2.5 -1
v 1.7 2.5 -1
v 1.6 2.5 -1.1
v 1.7 2.5 -1.1
v 1.6 3.3 -1.1
v 1.9 3.3 -1.1
v 1.6 3.3 -1.8
v 1.9 3.3 -1.8
v 1.7 3.5 -1.1
v 1.8 3.5 -1.1
v 1.7 3.5 -1.8
v 1.8 3.5 -1.8
v 0.5 3.6 -1
v 0.7 3.6 -1
v 0.8 3.6 -1
v 1.2 3.6 -1
v 1.3 3.6 -1
v 1.5 3.6 -1
v 0.5 3.6 -1.1
v 0.7 3.6 -1.1
v 0.8 3.6 -1.1
v 1.2 3.6 -1.1
v 1.3 3.6 -1.1
v 1.5 3.6 -1.1
v 0 4.2 0
v 2 4.2 0
v 0.2 4.2 -0.2
v 0.4 4.2 -0.2
v 1.6 4.2 -0.2
v 1.8 4.2 -0.2
v 0.2 4.2 -0.4
v 0.4 4.2 -0.4
v 1.6 4.2 -0.4
v 1.8 4.2 -0.4
v 0.1 4.2 -1
v 0.2 4.2 -1
v 0.6 4.2 -1
v 1.8 4.2 -1
v 0.2 4.2 -1.1
v 0.6 4.2 -1.1
v 0.1 4.2 -1.9
v 1.8 4.2 -1.9
v 0 4.2 -2
v 2 4.2 -2
v 0.2 4.3 -0.2
v 0.4 4.3 -0.2
v 1.6 4.3 -0.2
v 1.8 4.3 -0.2
v 0.2 4.3 -0.4
v 0.4 4.3 -0.4
v 1.6 4.3 -0.4
v 1.8 4.3 -0.4
v 0.9 4.5 -1
v 1.8 4.5 -1
v 0.9 4.5 -1.1
v 1.7 4.5 -1.1
v 1.7 4.5 -1.7
v 1.8 4.5 -1.7
v 0.5 4.6 -1
v 0.6 4.6 -1
v 0.5 4.6 -1.1
v 0.6 4.6 -1.1
v 1 5.1 -0.9
v 1.9 5.1 -0.9
v 1 5.1 -1
v 1 5.1 -1.9
v 1 5.1 -2
v 1.9 5.1 -2
v 0 6 -0.9
v 1.1 6 -0.9
v 0 6 -2
v 1.1 6 -2

# faces
f 3/4/1 2/4/1 1/4/1
f 4/4/1 2/4/1 3/4/1
f 7/9/1 6/9/1 5/9/1
f 8/9/1 6/9/1 7/9/1
f 11/9/1 10/9/1 9/9/1
f 12/9/1 10/9/1 11/9/1
f 15/7/1 14/7/1 13/7/1
f 16/7/1 14/7/1 15/7/1
f 17/8/1 16/8/1 15/8/1
f 18/8/1 16/8/1 17/8/1
f 19/7/1 18/7/1 17/7/1
f 20/7/1 18/7/1 19/7/1
f 23/7/1 22/7/1 21/7/1
f 24/7/1 22/7/1 23/7/1
f 27/7/1 26/7/1 25/7/1
f 28/7/1 26/7/1 27/7/1
f 31/7/1 30/7/1 29/7/1
f 32/7/1 30/7/1 31/7/1
f 35/7/1 34/7/1 33/7/1
f 36/7/1 34/7/1 35/7/1
f 39/1/1 38/1/1 37/1/1
f 40/1/1 38/1/1 39/1/1
f 43/7/1 42/7/1 41/7/1
f 44/7/1 42/7/1 43/7/1
f 47/7/1 46/7/1 45/7/1
f 48/7/1 46/7/1 47/7/1
f 51/9/1 50/9/1 49/9/1
f 52/9/1 50/9/1 51/9/1
f 55/7/1 54/7/1 53/7/1
f 56/7/1 54/7/1 55/7/1
f 61/9/1 58/9/1 57/9/1
f 62/9/1 58/9/1 61/9/1
f 63/9/1 60/9/1 59/9/1
f 64/9/1 60/9/1 63/9/1
f 67/7/1 66/7/1 65/7/1
f 68/7/1 66/7/1 67/7/1
f 71/9/1 70/9/1 69/9/1
f 72/9/1 70/9/1 71/9/1
f 75/7/1 74/7/1 73/7/1
f 76/7/1 74/7/1 75/7/1
f 81/2/1 80/2/1 79/2/1
f 82/2/1 80/2/1 81/2/1
f 83/7/1 78/7/1 77/7/1
f 84/7/1 78/7/1 83/7/1
f 87/7/1 86/7/1 85/7/1
f 88/7/1 86/7/1 87/7/1
f 91/7/1 90/7/1 89/7/1
f 92/7/1 90/7/1 91/7/1
f 95/7/1 94/7/1 93/7/1
f 96/7/1 94/7/1 95/7/1
f 99/7/1 98/7/1 97/7/1
f 100/7/1 98/7/1 99/7/1
f 101/7/2 102/7/2 103/7/2
f 103/7/2 102/7/2 104/7/2
f 105/7/2 106/7/2 107/7/2
f 107/7/2 106/7/2 108/7/2
f 111/7/2 112/7/2 113/7/2
f 113/7/2 112/7/2 114/7/2
f 109/7/2 110/7/2 115/7/2
f 115/7/2 110/7/2 116/7/2
f 117/7/2 118/7/2 119/7/2
f 119/7/2 118/7/2 120/7/2
f 121/7/2 122/7/2 123/7/2
f 123/7/2 122/7/2 124/7/2
f 125/9/2 126/9/2 127/9/2
f 127/9/2 126/9/2 128/9/2
f 129/7/2 130/7/2 131/7/2
f 131/7/2 130/7/2 132/7/2
f 133/7/2 134/7/2 135/7/2
f 135/7/2 134/7/2 136/7/2
f 137/7/2 138/7/2 139/7/2
f 139/7/2 138/7/2 140/7/2
f 141/9/2 142/9/2 143/9/2
f 143/9/2 142/9/2 144/9/2
f 145/7/2 146/7/2 147/7/2
f 147/7/2 146/7/2 148/7/2
f 149/9/2 150/9/2 151/9/2
f 151/9/2 150/9/2 152/9/2
f 153/9/2 154/9/2 155/9/2
f 155/9/2 154/9/2 156/9/2
f 157/3/2 158/3/2 159/3/2
f 159/3/2 158/3/2 160/3/2
f 163/3/2 164/3/2 165/3/2
f 165/3/2 164/3/2 166/3/2
f 167/7/2 168/7/2 169/7/2
f 169/7/2 168/7/2 170/7/2
f 161/7/2 162/7/2 171/7/2
f 171/7/2 162/7/2 172/7/2
f 173/7/2 174/7/2 177/7/2
f 177/7/2 174/7/2 178/7/2
f 175/7/2 176/7/2 179/7/2
f 179/7/2 176/7/2 180/7/2
f 180/7/2 176/7/2 182/7/2
f 181/7/2 182/7/2 183/7/2
f 182/7/2 176/7/2 184/7/2
f 183/7/2 182/7/2 184/7/2
f 185/7/2 186/7/2 187/7/2
f 187/7/2 186/7/2 188/7/2
f 185/7/2 187/7/2 189/7/2
f 188/7/2 186/7/2 190/7/2
f 185/7/2 189/7/2 191/7/2
f 189/7/2 190/7/2 191/7/2
f 190/7/2 186/7/2 192/7/2
f 191/7/2 190/7/2 192/7/2
f 191/8/2 192/8/2 193/8/2
f 193/8/2 192/8/2 194/8/2
f 193/7/2 194/7/2 195/7/2
f 195/7/2 194/7/2 196/7/2
f 193/7/2 195/7/2 197/7/2
f 196/7/2 194/7/2 198/7/2
f 193/7/2 197/7/2 199/7/2
f 197/7/2 198/7/2 199/7/2
f 198/7/2 194/7/2 200/7/2
f 199/7/2 198/7/2 200/7/2
f 201/9/2 202/9/2 203/9/2
f 203/9/2 202/9/2 204/9/2
f 205/4/2 206/4/2 207/4/2
f 207/4/2 206/4/2 208/4/2
f 209/9/2 210/9/2 211/9/2
f 211/9/2 210/9/2 212/9/2
f 217/4/3 214/4/3 213/4/3
f 218/4/3 214/4/3 217/4/3
f 219/9/3 216/9/3 215/9/3
f 220/9/3 216/9/3 219/9/3
f 225/7/3 222/7/3 221/7/3
f 226/7/3 222/7/3 225/7/3
f 227/7/3 224/7/3 223/7/3
f 228/7/3 224/7/3 227/7/3
f 233/7/3 230/7/3 229/7/3
f 234/7/3 230/7/3 233/7/3
f 235/7/3 232/7/3 231/7/3
f 236/7/3 232/7/3 235/7/3
f 241/9/3 238/9/3 237/9/3
f 242/9/3 238/9/3 241/9/3
f 243/9/3 240/9/3 239/9/3
f 244/9/3 240/9/3 243/9/3
f 251/7/3 246/7/3 245/7/3
f 252/7/3 246/7/3 251/7/3
f 253/7/3 250/7/3 249/7/3
f 254/7/3 250/7/3 253/7/3
f 255/7/3 248/7/3 247/7/3
f 256/7/3 248/7/3 255/7/3
f 260/1/3 258/1/3 257/1/3
f 261/1/3 258/1/3 260/1/3
f 262/7/3 250/7/3 254/7/3
f 263/7/3 255/7/3 247/7/3
f 264/7/3 248/7/3 256/7/3
f 265/7/3 263/7/3 247/7/3
f 265/9/3 264/9/3 263/9/3
f 266/7/3 248/7/3 264/7/3
f 266/9/3 264/9/3 265/9/3
f 267/7/3 261/7/3 260/7/3
f 267/7/3 262/7/3 261/7/3
f 267/7/3 260/7/3 259/7/3
f 268/7/3 262/7/3 267/7/3
f 269/7/3 250/7/3 262/7/3
f 269/7/3 262/7/3 268/7/3
f 270/7/3 250/7/3 269/7/3
f 271/7/3 250/7/3 270/7/3
f 272/7/3 251/7/3 245/7/3
f 273/7/3 246/7/3 252/7/3
f 274/7/3 265/7/3 247/7/3
f 275/7/3 248/7/3 266/7/3
f 276/7/3 272/7/3 245/7/3
f 276/7/3 273/7/3 272/7/3
f 277/7/3 246/7/3 273/7/3
f 277/7/3 273/7/3 276/7/3
f 278/9/3 275/9/3 274/9/3
f 278/7/3 274/7/3 247/7/3
f 279/7/3 248/7/3 275/7/3
f 279/9/3 275/9/3 278/9/3
f 280/7/3 278/7/3 247/7/3
f 281/7/3 248/7/3 279/7/3
f 285/2/3 283/2/3 282/2/3
f 286/2/3 283/2/3 285/2/3
f 287/7/3 246/7/3 277/7/3
f 288/7/3 267/7/3 259/7/3
f 289/7/3 267/7/3 288/7/3
f 290/7/3 269/7/3 268/7/3
f 291/7/3 269/7/3 290/7/3
f 292/7/3 286/7/3 285/7/3
f 292/7/3 287/7/3 286/7/3
f 292/7/3 285/7/3 284/7/3
f 293/8/3 247/8/3 246/8/3
f 293/7/3 287/7/3 292/7/3
f 293/7/3 246/7/3 287/7/3
f 294/7/3 280/7/3 247/7/3
f 294/8/3 247/8/3 293/8/3
f 294/7/3 281/7/3 280/7/3
f 295/7/3 248/7/3 281/7/3
f 295/7/3 281/7/3 294/7/3
f 300/7/3 299/7/3 298/7/3
f 301/7/3 299/7/3 300/7/3
f 304/6/3 297/6/3 296/6/3
f 305/6/3 297/6/3 304/6/3
f 306/6/3 304/6/3 296/6/3
f 307/6/3 304/6/3 306/6/3
f 308/6/3 297/6/3 305/6/3
f 309/6/3 297/6/3 308/6/3
f 310/9/3 303/9/3 302/9/3
f 311/9/3 303/9/3 310/9/3
f 318/7/3 315/7/3 314/7/3
f 319/7/3 315/7/3 318/7/3
f 320/9/3 313/9/3 312/9/3
f 321/9/3 313/9/3 320/9/3
f 326/9/3 325/9/3 324/9/3
f 327/9/3 325/9/3 326/9/3
f 328/6/3 323/6/3 322/6/3
f 329/6/3 323/6/3 328/6/3
f 330/6/3 328/6/3 322/6/3
f 331/6/3 328/6/3 330/6/3
f 332/6/3 323/6/3 329/6/3
f 333/6/3 323/6/3 332/6/3
f 334/3/3 317/3/3 316/3/3
f 335/3/3 317/3/3 334/3/3
f 338/3/3 337/3/3 336/3/3
f 339/3/3 337/3/3 338/3/3
f 342/7/3 341/7/3 340/7/3
f 343/7/3 341/7/3 342/7/3
f 346/7/3 345/7/3 344/7/3
f 347/7/3 345/7/3 346/7/3
f 350/7/3 346/7/3 344/7/3
f 351/7/3 345/7/3 347/7/3
f 352/7/3 349/7/3 348/7/3
f 353/7/3 349/7/3 352/7/3
f 354/7/3 351/7/3 350/7/3
f 354/7/3 350/7/3 344/7/3
f 355/7/3 345/7/3 351/7/3
f 355/7/3 351/7/3 354/7/3
f 356/7/4 357/7/4 360/7/4
f 360/7/4 357/7/4 361/7/4
f 358/7/4 359/7/4 362/7/4
f 362/7/4 359/7/4 363/7/4
f 364/7/4 365/7/4 368/7/4
f 368/7/4 365/7/4 369/7/4
f 366/7/4 367/7/4 370/7/4
f 370/7/4 367/7/4 371/7/4
f 372/7/4 373/7/4 374/7/4
f 374/7/4 373/7/4 375/7/4
f 372/7/4 374/7/4 378/7/4
f 375/7/4 373/7/4 379/7/4
f 376/7/4 377/7/4 380/7/4
f 380/7/4 377/7/4 381/7/4
f 378/7/4 379/7/4 382/7/4
f 372/7/4 378/7/4 382/7/4
f 379/7/4 373/7/4 383/7/4
f 382/7/4 379/7/4 383/7/4
f 384/7/4 385/7/4 386/7/4
f 386/7/4 385/7/4 387/7/4
f 388/7/4 389/7/4 390/7/4
f 390/7/4 389/7/4 391/7/4
f 396/7/4 397/7/4 398/7/4
f 398/7/4 397/7/4 399/7/4
f 399/7/4 397/7/4 400/7/4
f 396/7/4 398/7/4 401/7/4
f 401/7/4 398/7/4 402/7/4
f 392/7/4 393/7/4 403/7/4
f 393/8/4 394/8/4 404/8/4
f 403/7/4 393/7/4 404/7/4
f 394/7/4 395/7/4 405/7/4
f 404/8/4 394/8/4 405/8/4
f 405/7/4 395/7/4 406/7/4
f 411/9/4 412/9/4 415/9/4
f 415/9/4 412/9/4 416/9/4
f 413/9/4 414/9/4 417/9/4
f 417/9/4 414/9/4 418/9/4
f 407/4/4 408/4/4 419/4/4
f 419/4/4 408/4/4 420/4/4
f 409/9/4 410/9/4 421/9/4
f 421/9/4 410/9/4 422/9/4
f 425/4/5 424/4/5 423/4/5
f 426/4/5 424/4/5 425/4/5
f 429/2/5 428/2/5 427/2/5
f 430/2/5 428/2/5 429/2/5
f 435/7/5 432/7/5 431/7/5
f 436/7/5 432/7/5 435/7/5
f 437/7/5 432/7/5 436/7/5
f 438/7/5 432/7/5 437/7/5
f 439/7/5 434/7/5 433/7/5
f 440/7/5 434/7/5 439/7/5
f 441/7/5 435/7/5 431/7/5
f 442/7/5 437/7/5 436/7/5
f 443/7/5 437/7/5 442/7/5
f 444/7/5 432/7/5 438/7/5
f 445/7/5 443/7/5 442/7/5
f 445/7/5 444/7/5 443/7/5
f 445/7/5 441/7/5 431/7/5
f 445/7/5 442/7/5 441/7/5
f 446/7/5 432/7/5 444/7/5
f 446/7/5 444/7/5 445/7/5
f 449/7/5 448/7/5 447/7/5
f 450/7/5 448/7/5 449/7/5
f 453/7/5 452/7/5 451/7/5
f 454/7/5 452/7/5 453/7/5
f 457/7/5 456/7/5 455/7/5
f 458/7/5 456/7/5 457/7/5
f 465/7/5 460/7/5 459/7/5
f 466/7/5 460/7/5 465/7/5
f 467/7/5 462/7/5 461/7/5
f 468/7/5 462/7/5 467/7/5
f 469/7/5 464/7/5 463/7/5
f 470/7/5 464/7/5 469/7/5
f 473/9/5 472/9/5 471/9/5
f 474/9/5 472/9/5 473/9/5
f 475/9/5 472/9/5 474/9/5
f 476/9/5 472/9/5 475/9/5
f 477/9/5 473/9/5 471/9/5
f 478/9/5 475/9/5 474/9/5
f 479/9/5 475/9/5 478/9/5
f 480/9/5 472/9/5 476/9/5
f 481/9/5 479/9/5 478/9/5
f 481/9/5 480/9/5 479/9/5
f 481/9/5 477/9/5 471/9/5
f 481/9/5 478/9/5 477/9/5
f 482/9/5 472/9/5 480/9/5
f 482/9/5 480/9/5 481/9/5
f 483/9/5 481/9/5 471/9/5
f 484/9/5 472/9/5 482/9/5
f 485/9/5 483/9/5 471/9/5
f 485/9/5 484/9/5 483/9/5
f 486/9/5 472/9/5 484/9/5
f 486/9/5 484/9/5 485/9/5
f 489/1/5 488/1/5 487/1/5
f 490/1/5 488/1/5 489/1/5
f 493/7/5 492/7/5 491/7/5
f 494/7/5 492/7/5 493/7/5
f 495/7/5 492/7/5 494/7/5
f 496/7/5 492/7/5 495/7/5
f 499/7/5 498/7/5 497/7/5
f 500/7/5 498/7/5 499/7/5
f 503/9/5 502/9/5 501/9/5
f 504/9/5 502/9/5 503/9/5
f 506/9/5 502/9/5 504/9/5
f 507/9/5 506/9/5 505/9/5
f 508/9/5 502/9/5 506/9/5
f 508/9/5 506/9/5 507/9/5
f 511/9/5 510/9/5 509/9/5
f 512/9/5 510/9/5 511/9/5
f 513/9/5 511/9/5 509/9/5
f 514/9/5 510/9/5 512/9/5
f 515/9/5 513/9/5 509/9/5
f 515/9/5 514/9/5 513/9/5
f 516/9/5 510/9/5 514/9/5
f 516/9/5 514/9/5 515/9/5
f 517/4/6 518/4/6 519/4/6
f 519/4/6 518/4/6 520/4/6
f 520/4/6 518/4/6 521/4/6
f 521/4/6 518/4/6 522/4/6
f 517/4/6 519/4/6 523/4/6
f 520/4/6 521/4/6 524/4/6
f 524/4/6 521/4/6 525/4/6
f 522/4/6 518/4/6 526/4/6
f 524/4/6 525/4/6 527/4/6
f 525/4/6 526/4/6 527/4/6
f 517/4/6 523/4/6 527/4/6
f 523/4/6 524/4/6 527/4/6
f 527/4/6 526/4/6 528/4/6
f 528/4/6 526/4/6 529/4/6
f 526/4/6 518/4/6 530/4/6
f 529/4/6 526/4/6 530/4/6
f 528/4/6 529/4/6 531/4/6
f 531/4/6 529/4/6 532/4/6
f 517/4/6 527/4/6 533/4/6
f 530/4/6 518/4/6 534/4/6
f 517/4/6 533/4/6 535/4/6
f 533/4/6 534/4/6 535/4/6
f 534/4/6 518/4/6 536/4/6
f 535/4/6 534/4/6 536/4/6
f 537/7/6 538/7/6 539/7/6
f 539/7/6 538/7/6 540/7/6
f 540/7/6 538/7/6 541/7/6
f 541/7/6 538/7/6 542/7/6
f 537/7/6 539/7/6 545/7/6
f 540/7/6 541/7/6 546/7/6
f 546/7/6 541/7/6 547/7/6
f 542/7/6 538/7/6 548/7/6
f 546/7/6 547/7/6 549/7/6
f 547/7/6 548/7/6 549/7/6
f 537/7/6 545/7/6 549/7/6
f 545/7/6 546/7/6 549/7/6
f 548/7/6 538/7/6 550/7/6
f 549/7/6 548/7/6 550/7/6
f 543/7/6 544/7/6 551/7/6
f 551/7/6 544/7/6 552/7/6
f 553/2/6 554/2/6 555/2/6
f 555/2/6 554/2/6 556/2/6
f 557/7/6 558/7/6 559/7/6
f 559/7/6 558/7/6 560/7/6
f 561/7/6 562/7/6 563/7/6
f 563/7/6 562/7/6 564/7/6
f 565/7/6 566/7/6 571/7/6
f 571/7/6 566/7/6 572/7/6
f 567/7/6 568/7/6 573/7/6
f 573/7/6 568/7/6 574/7/6
f 569/7/6 570/7/6 575/7/6
f 575/7/6 570/7/6 576/7/6
f 577/9/6 578/9/6 579/9/6
f 579/9/6 578/9/6 580/9/6
f 580/9/6 578/9/6 581/9/6
f 581/9/6 578/9/6 582/9/6
f 577/9/6 579/9/6 583/9/6
f 580/9/6 581/9/6 584/9/6
f 584/9/6 581/9/6 585/9/6
f 582/9/6 578/9/6 586/9/6
f 584/9/6 585/9/6 587/9/6
f 585/9/6 586/9/6 587/9/6
f 577/9/6 583/9/6 587/9/6
f 583/9/6 584/9/6 587/9/6
f 587/9/6 586/9/6 588/9/6
f 588/9/6 586/9/6 589/9/6
f 586/9/6 578/9/6 590/9/6
f 589/9/6 586/9/6 590/9/6
f 588/9/6 589/9/6 591/9/6
f 591/9/6 589/9/6 592/9/6
f 577/9/6 587/9/6 593/9/6
f 590/9/6 578/9/6 594/9/6
f 577/9/6 593/9/6 595/9/6
f 593/9/6 594/9/6 595/9/6
f 594/9/6 578/9/6 596/9/6
f 595/9/6 594/9/6 596/9/6
f 597/7/6 598/7/6 601/7/6
f 601/7/6 598/7/6 602/7/6
f 599/7/6 600/7/6 603/7/6
f 603/7/6 600/7/6 604/7/6
f 605/7/6 606/7/6 607/7/6
f 607/7/6 606/7/6 608/7/6
f 608/7/6 606/7/6 609/7/6
f 609/7/6 606/7/6 610/7/6
f 611/1/6 612/1/6 613/1/6
f 613/1/6 612/1/6 614/1/6
f 615/9/6 616/9/6 617/9/6
f 617/9/6 616/9/6 618/9/6
f 618/9/6 616/9/6 619/9/6
f 619/9/6 616/9/6 620/9/6
f 621/9/6 622/9/6 623/9/6
f 623/9/6 622/9/6 624/9/6
