# MagicaVoxel @ Ephtracy

# group
o 

# material
mtllib 20_LongHouse_07.mtl
usemtl palette

# normals
vn -1 0 0
vn 1 0 0
vn 0 0 1
vn 0 0 -1
vn 0 -1 0
vn 0 1 0

# texcoords
vt 0.0175781 0.5
vt 0.587891 0.5
vt 0.744141 0.5
vt 0.861328 0.5
vt 0.962891 0.5
vt 0.978516 0.5

# verts
v 0 2 0
v 0 2 -2
v 0 2.1 0
v 0 2.1 -0.6
v 0 2.1 -2
v 0 3.9 -0.6
v 0 3.9 -0.7
v 0 3.9 -1.2
v 0 4.1 -0.7
v 0 4.1 -1.2
v 0 4.2 -0.6
v 0 4.2 -1.2
v 0 5.6 -0.8
v 0 5.6 -1.2
v 0 5.6 -2
v 0 5.7 -0.8
v 0 5.7 -1.1
v 0 5.8 -1.1
v 0 5.8 -1.2
v 0 6 -1.2
v 0 6 -2
v 0.3 3 -0.7
v 0.3 3 -0.8
v 0.3 3.7 -0.7
v 0.3 3.7 -0.8
v 0.7 4.1 -1.2
v 0.7 4.1 -1.3
v 0.7 4.2 -1.2
v 0.7 4.2 -1.3
v 0.8 3.9 -1.2
v 0.8 3.9 -1.3
v 0.8 4.1 -1.2
v 0.8 4.1 -1.3
v 0.8 4.2 -1.2
v 0.8 4.2 -1.3
v 0.8 4.5 -1.2
v 0.8 4.5 -1.3
v 0.9 3 -0.7
v 0.9 3 -0.8
v 0.9 3.7 -0.7
v 0.9 3.7 -0.8
v 0.9 3.9 -0.6
v 0.9 3.9 -0.7
v 0.9 4.1 -0.6
v 0.9 4.1 -0.7
v 0.9 4.1 -1.2
v 0.9 4.2 -0.7
v 0.9 4.2 -1.2
v 0.9 4.8 -1.2
v 0.9 4.8 -1.3
v 0.9 5.4 -1.2
v 0.9 5.4 -1.3
v 1.1 2.5 -0.6
v 1.1 2.5 -0.7
v 1.1 2.7 -0.6
v 1.1 2.7 -0.7
v 1.1 3 -0.6
v 1.1 3 -0.9
v 1.1 3.7 -0.6
v 1.1 3.7 -0.9
v 1.7 2.3 -0.7
v 1.7 2.3 -0.8
v 1.7 2.4 -0.7
v 1.7 2.4 -0.8
v 1.8 2.1 -0.7
v 1.8 2.1 -0.8
v 1.8 2.3 -0.7
v 1.8 2.3 -0.8
v 1.8 2.4 -0.7
v 1.8 2.4 -0.8
v 1.8 2.6 -0.7
v 1.8 2.6 -0.8
v 1.8 4.1 -1.2
v 1.8 4.1 -1.3
v 1.8 4.7 -1.2
v 1.8 4.7 -1.3
v 1.9 2.1 -0.6
v 1.9 2.1 -0.7
v 1.9 2.8 -0.6
v 1.9 2.8 -0.7
v 0.1 3.9 -0.6
v 0.1 3.9 -0.7
v 0.1 4.1 -0.6
v 0.1 4.1 -0.7
v 0.1 4.1 -1.2
v 0.1 4.2 -0.7
v 0.1 4.2 -1.2
v 0.2 2.5 -0.6
v 0.2 2.5 -0.7
v 0.2 2.7 -0.6
v 0.2 2.7 -0.7
v 0.2 3 -0.6
v 0.2 3 -0.9
v 0.2 3.7 -0.6
v 0.2 3.7 -0.9
v 0.2 4.8 -1.2
v 0.2 4.8 -1.3
v 0.2 5.4 -1.2
v 0.2 5.4 -1.3
v 0.4 3 -0.7
v 0.4 3 -0.8
v 0.4 3.7 -0.7
v 0.4 3.7 -0.8
v 0.4 3.9 -1.2
v 0.4 3.9 -1.3
v 0.4 4.5 -1.2
v 0.4 4.5 -1.3
v 1 3 -0.7
v 1 3 -0.8
v 1 3.7 -0.7
v 1 3.7 -0.8
v 1 3.9 -0.6
v 1 3.9 -0.7
v 1 4.1 -0.7
v 1 4.1 -1.2
v 1 4.2 -0.6
v 1 4.2 -1.2
v 1.1 4.1 -1.2
v 1.1 4.1 -1.3
v 1.1 4.7 -1.2
v 1.1 4.7 -1.3
v 1.3 2.1 -0.6
v 1.3 2.1 -0.7
v 1.3 2.8 -0.6
v 1.3 2.8 -0.7
v 1.4 2.1 -0.7
v 1.4 2.1 -0.8
v 1.4 2.6 -0.7
v 1.4 2.6 -0.8
v 1.7 3.1 -0.6
v 1.7 3.1 -0.7
v 1.7 3.9 -0.6
v 1.7 3.9 -0.7
v 2 2 0
v 2 2 -2
v 2 2.1 0
v 2 2.1 -0.6
v 2 2.1 -2
v 2 3.1 -0.6
v 2 3.1 -0.7
v 2 3.9 -0.7
v 2 3.9 -1.2
v 2 5.6 -0.8
v 2 5.6 -1.2
v 2 5.6 -2
v 2 5.7 -0.8
v 2 5.7 -1.1
v 2 5.8 -1.1
v 2 5.8 -1.2
v 2 6 -1.2
v 2 6 -2
v 0 2 0
v 0 2.1 0
v 2 2 0
v 2 2.1 0
v 0 2.1 -0.6
v 0 3.9 -0.6
v 0 4.2 -0.6
v 0.1 3.9 -0.6
v 0.1 4.1 -0.6
v 0.2 2.5 -0.6
v 0.2 2.7 -0.6
v 0.2 3 -0.6
v 0.2 3.7 -0.6
v 0.9 3.9 -0.6
v 0.9 4.1 -0.6
v 1 3.9 -0.6
v 1 4.2 -0.6
v 1.1 2.5 -0.6
v 1.1 2.7 -0.6
v 1.1 3 -0.6
v 1.1 3.7 -0.6
v 1.3 2.1 -0.6
v 1.3 2.8 -0.6
v 1.7 3.1 -0.6
v 1.7 3.9 -0.6
v 1.9 2.1 -0.6
v 1.9 2.8 -0.6
v 2 2.1 -0.6
v 2 3.1 -0.6
v 0.2 2.5 -0.7
v 0.2 2.7 -0.7
v 0.3 3 -0.7
v 0.3 3.7 -0.7
v 0.4 3 -0.7
v 0.4 3.7 -0.7
v 0.9 3 -0.7
v 0.9 3.7 -0.7
v 1 3 -0.7
v 1 3.7 -0.7
v 1.1 2.5 -0.7
v 1.1 2.7 -0.7
v 1.3 2.1 -0.7
v 1.3 2.8 -0.7
v 1.4 2.1 -0.7
v 1.4 2.6 -0.7
v 1.7 2.3 -0.7
v 1.7 2.4 -0.7
v 1.7 3.1 -0.7
v 1.7 3.9 -0.7
v 1.8 2.1 -0.7
v 1.8 2.3 -0.7
v 1.8 2.4 -0.7
v 1.8 2.6 -0.7
v 1.9 2.1 -0.7
v 1.9 2.8 -0.7
v 2 3.1 -0.7
v 2 3.9 -0.7
v 0 5.6 -0.8
v 0 5.7 -0.8
v 1.4 2.1 -0.8
v 1.4 2.6 -0.8
v 1.7 2.3 -0.8
v 1.7 2.4 -0.8
v 1.8 2.1 -0.8
v 1.8 2.3 -0.8
v 1.8 2.4 -0.8
v 1.8 2.6 -0.8
v 2 5.6 -0.8
v 2 5.7 -0.8
v 0.2 3 -0.9
v 0.2 3.7 -0.9
v 1.1 3 -0.9
v 1.1 3.7 -0.9
v 0 5.7 -1.1
v 0 5.8 -1.1
v 2 5.7 -1.1
v 2 5.8 -1.1
v 0 3.9 -1.2
v 0 4.1 -1.2
v 0 4.2 -1.2
v 0 5.6 -1.2
v 0 5.8 -1.2
v 0 6 -1.2
v 0.1 4.1 -1.2
v 0.1 4.2 -1.2
v 0.2 4.8 -1.2
v 0.2 5.4 -1.2
v 0.4 3.9 -1.2
v 0.4 4.5 -1.2
v 0.7 4.1 -1.2
v 0.7 4.2 -1.2
v 0.8 3.9 -1.2
v 0.8 4.1 -1.2
v 0.8 4.2 -1.2
v 0.8 4.5 -1.2
v 0.9 4.1 -1.2
v 0.9 4.2 -1.2
v 0.9 4.8 -1.2
v 0.9 5.4 -1.2
v 1 4.1 -1.2
v 1 4.2 -1.2
v 1.1 4.1 -1.2
v 1.1 4.7 -1.2
v 1.8 4.1 -1.2
v 1.8 4.7 -1.2
v 2 3.9 -1.2
v 2 5.6 -1.2
v 2 5.8 -1.2
v 2 6 -1.2
v 0.2 4.8 -1.3
v 0.2 5.4 -1.3
v 0.4 3.9 -1.3
v 0.4 4.5 -1.3
v 0.7 4.1 -1.3
v 0.7 4.2 -1.3
v 0.8 3.9 -1.3
v 0.8 4.1 -1.3
v 0.8 4.2 -1.3
v 0.8 4.5 -1.3
v 0.9 4.8 -1.3
v 0.9 5.4 -1.3
v 1.1 4.1 -1.3
v 1.1 4.7 -1.3
v 1.8 4.1 -1.3
v 1.8 4.7 -1.3
v 0 3.9 -0.7
v 0 4.1 -0.7
v 0.1 3.9 -0.7
v 0.1 4.1 -0.7
v 0.1 4.2 -0.7
v 0.9 3.9 -0.7
v 0.9 4.1 -0.7
v 0.9 4.2 -0.7
v 1 3.9 -0.7
v 1 4.1 -0.7
v 0.3 3 -0.8
v 0.3 3.7 -0.8
v 0.4 3 -0.8
v 0.4 3.7 -0.8
v 0.9 3 -0.8
v 0.9 3.7 -0.8
v 1 3 -0.8
v 1 3.7 -0.8
v 0 2 -2
v 0 2.1 -2
v 0 5.6 -2
v 0 6 -2
v 2 2 -2
v 2 2.1 -2
v 2 5.6 -2
v 2 6 -2
v 0 2 0
v 2 2 0
v 0 2 -2
v 2 2 -2
v 1.7 2.3 -0.7
v 1.8 2.3 -0.7
v 1.7 2.3 -0.8
v 1.8 2.3 -0.8
v 1.4 2.6 -0.7
v 1.8 2.6 -0.7
v 1.4 2.6 -0.8
v 1.8 2.6 -0.8
v 0.2 2.7 -0.6
v 1.1 2.7 -0.6
v 0.2 2.7 -0.7
v 1.1 2.7 -0.7
v 1.3 2.8 -0.6
v 1.9 2.8 -0.6
v 1.3 2.8 -0.7
v 1.9 2.8 -0.7
v 0.2 3.7 -0.6
v 1.1 3.7 -0.6
v 0.3 3.7 -0.7
v 0.4 3.7 -0.7
v 0.9 3.7 -0.7
v 1 3.7 -0.7
v 0.3 3.7 -0.8
v 0.4 3.7 -0.8
v 0.9 3.7 -0.8
v 1 3.7 -0.8
v 0.2 3.7 -0.9
v 1.1 3.7 -0.9
v 0.1 4.1 -0.6
v 0.9 4.1 -0.6
v 0 4.1 -0.7
v 0.1 4.1 -0.7
v 0.9 4.1 -0.7
v 1 4.1 -0.7
v 0 4.1 -1.2
v 0.1 4.1 -1.2
v 0.7 4.1 -1.2
v 0.8 4.1 -1.2
v 0.9 4.1 -1.2
v 1 4.1 -1.2
v 0.7 4.1 -1.3
v 0.8 4.1 -1.3
v 0.4 4.5 -1.2
v 0.8 4.5 -1.2
v 0.4 4.5 -1.3
v 0.8 4.5 -1.3
v 1.1 4.7 -1.2
v 1.8 4.7 -1.2
v 1.1 4.7 -1.3
v 1.8 4.7 -1.3
v 0.2 5.4 -1.2
v 0.9 5.4 -1.2
v 0.2 5.4 -1.3
v 0.9 5.4 -1.3
v 0 5.6 -0.8
v 2 5.6 -0.8
v 0 5.6 -1.2
v 2 5.6 -1.2
v 0 2.1 0
v 2 2.1 0
v 0 2.1 -0.6
v 1.3 2.1 -0.6
v 1.9 2.1 -0.6
v 2 2.1 -0.6
v 1.3 2.1 -0.7
v 1.4 2.1 -0.7
v 1.8 2.1 -0.7
v 1.9 2.1 -0.7
v 1.4 2.1 -0.8
v 1.8 2.1 -0.8
v 1.7 2.4 -0.7
v 1.8 2.4 -0.7
v 1.7 2.4 -0.8
v 1.8 2.4 -0.8
v 0.2 2.5 -0.6
v 1.1 2.5 -0.6
v 0.2 2.5 -0.7
v 1.1 2.5 -0.7
v 0.2 3 -0.6
v 1.1 3 -0.6
v 0.3 3 -0.7
v 0.4 3 -0.7
v 0.9 3 -0.7
v 1 3 -0.7
v 0.3 3 -0.8
v 0.4 3 -0.8
v 0.9 3 -0.8
v 1 3 -0.8
v 0.2 3 -0.9
v 1.1 3 -0.9
v 1.7 3.1 -0.6
v 2 3.1 -0.6
v 1.7 3.1 -0.7
v 2 3.1 -0.7
v 0.1 3.9 -0.6
v 0.9 3.9 -0.6
v 1 3.9 -0.6
v 1.7 3.9 -0.6
v 0 3.9 -0.7
v 0.1 3.9 -0.7
v 0.9 3.9 -0.7
v 1 3.9 -0.7
v 1.7 3.9 -0.7
v 2 3.9 -0.7
v 0 3.9 -1.2
v 0.4 3.9 -1.2
v 0.8 3.9 -1.2
v 2 3.9 -1.2
v 0.4 3.9 -1.3
v 0.8 3.9 -1.3
v 1.1 4.1 -1.2
v 1.8 4.1 -1.2
v 1.1 4.1 -1.3
v 1.8 4.1 -1.3
v 0 4.2 -0.6
v 1 4.2 -0.6
v 0.1 4.2 -0.7
v 0.9 4.2 -0.7
v 0 4.2 -1.2
v 0.1 4.2 -1.2
v 0.7 4.2 -1.2
v 0.8 4.2 -1.2
v 0.9 4.2 -1.2
v 1 4.2 -1.2
v 0.7 4.2 -1.3
v 0.8 4.2 -1.3
v 0.2 4.8 -1.2
v 0.9 4.8 -1.2
v 0.2 4.8 -1.3
v 0.9 4.8 -1.3
v 0 5.7 -0.8
v 2 5.7 -0.8
v 0 5.7 -1.1
v 2 5.7 -1.1
v 0 5.8 -1.1
v 2 5.8 -1.1
v 0 5.8 -1.2
v 2 5.8 -1.2
v 0 6 -1.2
v 2 6 -1.2
v 0 6 -2
v 2 6 -2

# faces
f 3/3/1 2/3/1 1/3/1
f 4/3/1 2/3/1 3/3/1
f 5/3/1 2/3/1 4/3/1
f 6/5/1 5/5/1 4/5/1
f 7/5/1 5/5/1 6/5/1
f 8/5/1 5/5/1 7/5/1
f 9/6/1 7/6/1 6/6/1
f 10/5/1 5/5/1 8/5/1
f 11/6/1 9/6/1 6/6/1
f 11/6/1 10/6/1 9/6/1
f 12/5/1 5/5/1 10/5/1
f 12/6/1 10/6/1 11/6/1
f 14/5/1 5/5/1 12/5/1
f 15/5/1 5/5/1 14/5/1
f 16/6/1 14/6/1 13/6/1
f 16/6/1 15/6/1 14/6/1
f 17/6/1 15/6/1 16/6/1
f 18/6/1 15/6/1 17/6/1
f 19/6/1 15/6/1 18/6/1
f 20/6/1 15/6/1 19/6/1
f 21/6/1 15/6/1 20/6/1
f 24/5/1 23/5/1 22/5/1
f 25/5/1 23/5/1 24/5/1
f 28/1/1 27/1/1 26/1/1
f 29/1/1 27/1/1 28/1/1
f 32/5/1 31/5/1 30/5/1
f 33/5/1 31/5/1 32/5/1
f 36/5/1 35/5/1 34/5/1
f 37/5/1 35/5/1 36/5/1
f 40/5/1 39/5/1 38/5/1
f 41/5/1 39/5/1 40/5/1
f 44/6/1 43/6/1 42/6/1
f 45/6/1 43/6/1 44/6/1
f 47/6/1 46/6/1 45/6/1
f 48/6/1 46/6/1 47/6/1
f 51/5/1 50/5/1 49/5/1
f 52/5/1 50/5/1 51/5/1
f 55/5/1 54/5/1 53/5/1
f 56/5/1 54/5/1 55/5/1
f 59/5/1 58/5/1 57/5/1
f 60/5/1 58/5/1 59/5/1
f 63/1/1 62/1/1 61/1/1
f 64/1/1 62/1/1 63/1/1
f 67/5/1 66/5/1 65/5/1
f 68/5/1 66/5/1 67/5/1
f 71/5/1 70/5/1 69/5/1
f 72/5/1 70/5/1 71/5/1
f 75/5/1 74/5/1 73/5/1
f 76/5/1 74/5/1 75/5/1
f 79/5/1 78/5/1 77/5/1
f 80/5/1 78/5/1 79/5/1
f 81/6/2 82/6/2 83/6/2
f 83/6/2 82/6/2 84/6/2
f 84/6/2 85/6/2 86/6/2
f 86/6/2 85/6/2 87/6/2
f 88/5/2 89/5/2 90/5/2
f 90/5/2 89/5/2 91/5/2
f 92/5/2 93/5/2 94/5/2
f 94/5/2 93/5/2 95/5/2
f 96/5/2 97/5/2 98/5/2
f 98/5/2 97/5/2 99/5/2
f 100/5/2 101/5/2 102/5/2
f 102/5/2 101/5/2 103/5/2
f 104/5/2 105/5/2 106/5/2
f 106/5/2 105/5/2 107/5/2
f 108/5/2 109/5/2 110/5/2
f 110/5/2 109/5/2 111/5/2
f 112/6/2 113/6/2 114/6/2
f 112/6/2 114/6/2 116/6/2
f 114/6/2 115/6/2 116/6/2
f 116/6/2 115/6/2 117/6/2
f 118/5/2 119/5/2 120/5/2
f 120/5/2 119/5/2 121/5/2
f 122/5/2 123/5/2 124/5/2
f 124/5/2 123/5/2 125/5/2
f 126/5/2 127/5/2 128/5/2
f 128/5/2 127/5/2 129/5/2
f 130/5/2 131/5/2 132/5/2
f 132/5/2 131/5/2 133/5/2
f 134/3/2 135/3/2 136/3/2
f 136/3/2 135/3/2 137/3/2
f 137/3/2 135/3/2 138/3/2
f 137/5/2 138/5/2 139/5/2
f 139/5/2 138/5/2 140/5/2
f 140/5/2 138/5/2 141/5/2
f 141/5/2 138/5/2 142/5/2
f 142/5/2 138/5/2 144/5/2
f 144/5/2 138/5/2 145/5/2
f 143/6/2 144/6/2 146/6/2
f 144/6/2 145/6/2 146/6/2
f 146/6/2 145/6/2 147/6/2
f 147/6/2 145/6/2 148/6/2
f 148/6/2 145/6/2 149/6/2
f 149/6/2 145/6/2 150/6/2
f 150/6/2 145/6/2 151/6/2
f 154/3/3 153/3/3 152/3/3
f 155/3/3 153/3/3 154/3/3
f 159/5/3 157/5/3 156/5/3
f 159/6/3 158/6/3 157/6/3
f 160/6/3 158/6/3 159/6/3
f 161/5/3 159/5/3 156/5/3
f 162/5/3 159/5/3 161/5/3
f 163/5/3 159/5/3 162/5/3
f 164/5/3 159/5/3 163/5/3
f 165/5/3 159/5/3 164/5/3
f 166/6/3 158/6/3 160/6/3
f 167/5/3 165/5/3 164/5/3
f 167/6/3 166/6/3 165/6/3
f 168/6/3 158/6/3 166/6/3
f 168/6/3 166/6/3 167/6/3
f 169/5/3 161/5/3 156/5/3
f 170/5/3 163/5/3 162/5/3
f 171/5/3 163/5/3 170/5/3
f 172/5/3 167/5/3 164/5/3
f 173/5/3 171/5/3 170/5/3
f 173/5/3 172/5/3 171/5/3
f 173/5/3 169/5/3 156/5/3
f 173/5/3 170/5/3 169/5/3
f 174/5/3 172/5/3 173/5/3
f 175/5/3 172/5/3 174/5/3
f 176/5/3 167/5/3 172/5/3
f 176/5/3 172/5/3 175/5/3
f 178/5/3 175/5/3 174/5/3
f 179/5/3 178/5/3 177/5/3
f 180/5/3 175/5/3 178/5/3
f 180/5/3 178/5/3 179/5/3
f 185/5/3 184/5/3 183/5/3
f 186/5/3 184/5/3 185/5/3
f 189/5/3 188/5/3 187/5/3
f 190/5/3 188/5/3 189/5/3
f 191/2/3 182/2/3 181/2/3
f 192/2/3 182/2/3 191/2/3
f 195/5/3 194/5/3 193/5/3
f 196/5/3 194/5/3 195/5/3
f 202/1/3 198/1/3 197/1/3
f 203/1/3 198/1/3 202/1/3
f 204/5/3 194/5/3 196/5/3
f 205/5/3 203/5/3 202/5/3
f 205/5/3 204/5/3 203/5/3
f 205/5/3 202/5/3 201/5/3
f 206/5/3 194/5/3 204/5/3
f 206/5/3 204/5/3 205/5/3
f 207/5/3 200/5/3 199/5/3
f 208/5/3 200/5/3 207/5/3
f 213/4/3 212/4/3 211/4/3
f 214/4/3 212/4/3 213/4/3
f 215/4/3 213/4/3 211/4/3
f 216/4/3 213/4/3 215/4/3
f 217/4/3 212/4/3 214/4/3
f 218/4/3 212/4/3 217/4/3
f 219/6/3 210/6/3 209/6/3
f 220/6/3 210/6/3 219/6/3
f 223/6/3 222/6/3 221/6/3
f 224/6/3 222/6/3 223/6/3
f 227/6/3 226/6/3 225/6/3
f 228/6/3 226/6/3 227/6/3
f 235/5/3 230/5/3 229/5/3
f 236/5/3 232/5/3 231/5/3
f 237/5/3 232/5/3 236/5/3
f 237/5/3 236/5/3 235/5/3
f 238/5/3 232/5/3 237/5/3
f 239/5/3 235/5/3 229/5/3
f 239/5/3 237/5/3 235/5/3
f 240/5/3 237/5/3 239/5/3
f 244/1/3 242/1/3 241/1/3
f 245/1/3 242/1/3 244/1/3
f 246/5/3 237/5/3 240/5/3
f 247/5/3 245/5/3 244/5/3
f 247/5/3 246/5/3 245/5/3
f 247/5/3 244/5/3 243/5/3
f 248/5/3 246/5/3 247/5/3
f 249/5/3 237/5/3 246/5/3
f 249/5/3 246/5/3 248/5/3
f 250/5/3 232/5/3 238/5/3
f 251/5/3 247/5/3 243/5/3
f 252/5/3 249/5/3 248/5/3
f 252/5/3 250/5/3 249/5/3
f 253/5/3 251/5/3 243/5/3
f 253/5/3 252/5/3 251/5/3
f 254/5/3 250/5/3 252/5/3
f 254/5/3 252/5/3 253/5/3
f 255/5/3 253/5/3 243/5/3
f 256/5/3 250/5/3 254/5/3
f 257/5/3 255/5/3 243/5/3
f 257/5/3 256/5/3 255/5/3
f 258/5/3 250/5/3 256/5/3
f 258/5/3 256/5/3 257/5/3
f 258/5/3 232/5/3 250/5/3
f 259/6/3 234/6/3 233/6/3
f 260/6/3 234/6/3 259/6/3
f 265/4/3 264/4/3 263/4/3
f 266/4/3 264/4/3 265/4/3
f 267/4/3 265/4/3 263/4/3
f 268/4/3 265/4/3 267/4/3
f 269/4/3 264/4/3 266/4/3
f 270/4/3 264/4/3 269/4/3
f 271/2/3 262/2/3 261/2/3
f 272/2/3 262/2/3 271/2/3
f 275/2/3 274/2/3 273/2/3
f 276/2/3 274/2/3 275/2/3
f 277/6/4 278/6/4 279/6/4
f 279/6/4 278/6/4 280/6/4
f 280/6/4 281/6/4 283/6/4
f 283/6/4 281/6/4 284/6/4
f 282/6/4 283/6/4 285/6/4
f 285/6/4 283/6/4 286/6/4
f 287/5/4 288/5/4 289/5/4
f 289/5/4 288/5/4 290/5/4
f 291/5/4 292/5/4 293/5/4
f 293/5/4 292/5/4 294/5/4
f 295/3/4 296/3/4 299/3/4
f 296/5/4 297/5/4 300/5/4
f 299/3/4 296/3/4 300/3/4
f 297/6/4 298/6/4 301/6/4
f 300/5/4 297/5/4 301/5/4
f 301/6/4 298/6/4 302/6/4
f 305/3/5 304/3/5 303/3/5
f 306/3/5 304/3/5 305/3/5
f 309/1/5 308/1/5 307/1/5
f 310/1/5 308/1/5 309/1/5
f 313/5/5 312/5/5 311/5/5
f 314/5/5 312/5/5 313/5/5
f 317/5/5 316/5/5 315/5/5
f 318/5/5 316/5/5 317/5/5
f 321/5/5 320/5/5 319/5/5
f 322/5/5 320/5/5 321/5/5
f 325/5/5 324/5/5 323/5/5
f 326/5/5 324/5/5 325/5/5
f 327/5/5 324/5/5 326/5/5
f 328/5/5 324/5/5 327/5/5
f 329/5/5 325/5/5 323/5/5
f 330/5/5 327/5/5 326/5/5
f 331/5/5 327/5/5 330/5/5
f 332/5/5 324/5/5 328/5/5
f 333/5/5 331/5/5 330/5/5
f 333/5/5 332/5/5 331/5/5
f 333/5/5 329/5/5 323/5/5
f 333/5/5 330/5/5 329/5/5
f 334/5/5 324/5/5 332/5/5
f 334/5/5 332/5/5 333/5/5
f 338/6/5 336/6/5 335/6/5
f 339/6/5 336/6/5 338/6/5
f 341/6/5 338/6/5 337/6/5
f 342/6/5 338/6/5 341/6/5
f 345/6/5 340/6/5 339/6/5
f 346/6/5 340/6/5 345/6/5
f 347/1/5 344/1/5 343/1/5
f 348/1/5 344/1/5 347/1/5
f 351/5/5 350/5/5 349/5/5
f 352/5/5 350/5/5 351/5/5
f 355/5/5 354/5/5 353/5/5
f 356/5/5 354/5/5 355/5/5
f 359/5/5 358/5/5 357/5/5
f 360/5/5 358/5/5 359/5/5
f 363/6/5 362/6/5 361/6/5
f 364/6/5 362/6/5 363/6/5
f 365/3/6 366/3/6 367/3/6
f 367/3/6 366/3/6 368/3/6
f 368/3/6 366/3/6 369/3/6
f 369/3/6 366/3/6 370/3/6
f 368/3/6 369/3/6 371/3/6
f 371/3/6 369/3/6 372/3/6
f 372/3/6 369/3/6 373/3/6
f 373/3/6 369/3/6 374/3/6
f 372/3/6 373/3/6 375/3/6
f 375/3/6 373/3/6 376/3/6
f 377/1/6 378/1/6 379/1/6
f 379/1/6 378/1/6 380/1/6
f 381/5/6 382/5/6 383/5/6
f 383/5/6 382/5/6 384/5/6
f 385/5/6 386/5/6 387/5/6
f 387/5/6 386/5/6 388/5/6
f 388/5/6 386/5/6 389/5/6
f 389/5/6 386/5/6 390/5/6
f 385/5/6 387/5/6 391/5/6
f 388/5/6 389/5/6 392/5/6
f 392/5/6 389/5/6 393/5/6
f 390/5/6 386/5/6 394/5/6
f 392/5/6 393/5/6 395/5/6
f 393/5/6 394/5/6 395/5/6
f 385/5/6 391/5/6 395/5/6
f 391/5/6 392/5/6 395/5/6
f 394/5/6 386/5/6 396/5/6
f 395/5/6 394/5/6 396/5/6
f 397/5/6 398/5/6 399/5/6
f 399/5/6 398/5/6 400/5/6
f 401/5/6 402/5/6 406/5/6
f 406/5/6 402/5/6 407/5/6
f 403/5/6 404/5/6 408/5/6
f 408/5/6 404/5/6 409/5/6
f 406/5/6 407/5/6 411/5/6
f 409/5/6 410/5/6 411/5/6
f 408/5/6 409/5/6 411/5/6
f 407/5/6 408/5/6 411/5/6
f 405/5/6 406/5/6 411/5/6
f 411/5/6 410/5/6 412/5/6
f 412/5/6 410/5/6 413/5/6
f 413/5/6 410/5/6 414/5/6
f 412/5/6 413/5/6 415/5/6
f 415/5/6 413/5/6 416/5/6
f 417/5/6 418/5/6 419/5/6
f 419/5/6 418/5/6 420/5/6
f 421/6/6 422/6/6 423/6/6
f 423/6/6 422/6/6 424/6/6
f 421/6/6 423/6/6 425/6/6
f 425/6/6 423/6/6 426/6/6
f 424/6/6 422/6/6 429/6/6
f 429/6/6 422/6/6 430/6/6
f 427/1/6 428/1/6 431/1/6
f 431/1/6 428/1/6 432/1/6
f 433/5/6 434/5/6 435/5/6
f 435/5/6 434/5/6 436/5/6
f 437/6/6 438/6/6 439/6/6
f 439/6/6 438/6/6 440/6/6
f 441/6/6 442/6/6 443/6/6
f 443/6/6 442/6/6 444/6/6
f 445/6/6 446/6/6 447/6/6
f 447/6/6 446/6/6 448/6/6
