# MagicaVoxel @ Ephtracy

# group
o 

# material
mtllib 20_LongHouse_06.mtl
usemtl palette

# normals
vn -1 0 0
vn 1 0 0
vn 0 0 1
vn 0 0 -1
vn 0 -1 0
vn 0 1 0

# texcoords
vt 0.0175781 0.5
vt 0.708984 0.5
vt 0.744141 0.5
vt 0.861328 0.5
vt 0.962891 0.5
vt 0.978516 0.5

# verts
v 0 2 0
v 0 2 -2
v 0 2.1 0
v 0 2.1 -2
v 0 3 0
v 0 3 -2
v 0 3.1 0
v 0 3.1 -2
v 0.2 2.1 -0.2
v 0.2 2.1 -1.8
v 0.2 3 -0.2
v 0.2 3 -1.8
v 0.2 4 -0.2
v 0.2 4 -1.8
v 0.2 4.1 -0.2
v 0.2 4.1 -1.8
v 0.3 3.1 -0.3
v 0.3 3.1 -1.7
v 0.3 4 -0.3
v 0.3 4 -1.7
v 0.3 5 -0.3
v 0.3 5 -1.7
v 0.3 5.1 -0.3
v 0.3 5.1 -1.7
v 0.4 4.1 -0.4
v 0.4 4.1 -1.6
v 0.4 5 -0.4
v 0.4 5 -1.6
v 0.4 5.9 -0.4
v 0.4 5.9 -1.6
v 0.4 6 -0.4
v 0.4 6 -1.6
v 0.5 3.4 -0.4
v 0.5 3.4 -0.5
v 0.5 3.7 -0.4
v 0.5 3.7 -0.5
v 0.5 5.1 -0.5
v 0.5 5.1 -1.5
v 0.5 5.4 -0.5
v 0.5 5.4 -1.5
v 0.5 5.6 -0.5
v 0.5 5.6 -1.5
v 0.5 5.9 -0.5
v 0.5 5.9 -1.5
v 0.6 5.4 -0.6
v 0.6 5.4 -1.4
v 0.6 5.6 -0.6
v 0.6 5.6 -1.4
v 1.2 4.4 -0.6
v 1.2 4.4 -0.8
v 1.2 4.7 -0.6
v 1.2 4.7 -0.8
v 1.4 3.4 -0.4
v 1.4 3.4 -0.5
v 1.4 3.7 -0.4
v 1.4 3.7 -0.5
v 1.6 2.3 -0.2
v 1.6 2.3 -0.3
v 1.6 2.4 -0.2
v 1.6 2.4 -0.3
v 1.6 3.4 -0.3
v 1.6 3.4 -0.6
v 1.6 3.7 -0.3
v 1.6 3.7 -0.6
v 1.7 2.1 -0.2
v 1.7 2.1 -0.3
v 1.7 2.3 -0.2
v 1.7 2.3 -0.3
v 1.7 2.4 -0.2
v 1.7 2.4 -0.3
v 1.7 2.6 -0.2
v 1.7 2.6 -0.3
v 0.4 3.4 -0.3
v 0.4 3.4 -0.6
v 0.4 3.7 -0.3
v 0.4 3.7 -0.6
v 0.6 3.4 -0.4
v 0.6 3.4 -0.5
v 0.6 3.7 -0.4
v 0.6 3.7 -0.5
v 0.9 4.4 -0.4
v 0.9 4.4 -1.1
v 0.9 4.7 -0.4
v 0.9 4.7 -1.1
v 1.4 2.1 -0.2
v 1.4 2.1 -0.3
v 1.4 2.6 -0.2
v 1.4 2.6 -0.3
v 1.4 4.4 -0.6
v 1.4 4.4 -0.8
v 1.4 4.7 -0.6
v 1.4 4.7 -0.8
v 1.4 5.4 -0.6
v 1.4 5.4 -1.4
v 1.4 5.6 -0.6
v 1.4 5.6 -1.4
v 1.5 3.4 -0.4
v 1.5 3.4 -0.5
v 1.5 3.7 -0.4
v 1.5 3.7 -0.5
v 1.5 5.1 -0.5
v 1.5 5.1 -1.5
v 1.5 5.4 -0.5
v 1.5 5.4 -1.5
v 1.5 5.6 -0.5
v 1.5 5.6 -1.5
v 1.5 5.9 -0.5
v 1.5 5.9 -1.5
v 1.6 3.4 -1.1
v 1.6 3.4 -1.5
v 1.6 3.8 -1.1
v 1.6 3.8 -1.5
v 1.6 4.1 -0.4
v 1.6 4.1 -1.6
v 1.6 4.4 -0.4
v 1.6 4.4 -1.1
v 1.6 4.7 -0.4
v 1.6 4.7 -1.1
v 1.6 5 -0.4
v 1.6 5 -1.6
v 1.6 5.9 -0.4
v 1.6 5.9 -1.6
v 1.6 6 -0.4
v 1.6 6 -1.6
v 1.7 3.1 -0.3
v 1.7 3.1 -1.7
v 1.7 3.4 -1.1
v 1.7 3.4 -1.5
v 1.7 3.8 -1.1
v 1.7 3.8 -1.5
v 1.7 4 -0.3
v 1.7 4 -1.7
v 1.7 5 -0.3
v 1.7 5 -1.7
v 1.7 5.1 -0.3
v 1.7 5.1 -1.7
v 1.8 2.1 -0.2
v 1.8 2.1 -1.8
v 1.8 3 -0.2
v 1.8 3 -1.8
v 1.8 4 -0.2
v 1.8 4 -1.8
v 1.8 4.1 -0.2
v 1.8 4.1 -1.8
v 2 2 0
v 2 2 -2
v 2 2.1 0
v 2 2.1 -2
v 2 3 0
v 2 3 -2
v 2 3.1 0
v 2 3.1 -2
v 0 2 0
v 0 2.1 0
v 0 3 0
v 0 3.1 0
v 2 2 0
v 2 2.1 0
v 2 3 0
v 2 3.1 0
v 0.2 2.1 -0.2
v 0.2 3 -0.2
v 0.2 4 -0.2
v 0.2 4.1 -0.2
v 1.4 2.1 -0.2
v 1.4 2.6 -0.2
v 1.6 2.3 -0.2
v 1.6 2.4 -0.2
v 1.7 2.1 -0.2
v 1.7 2.3 -0.2
v 1.7 2.4 -0.2
v 1.7 2.6 -0.2
v 1.8 2.1 -0.2
v 1.8 3 -0.2
v 1.8 4 -0.2
v 1.8 4.1 -0.2
v 0.3 3.1 -0.3
v 0.3 4 -0.3
v 0.3 5 -0.3
v 0.3 5.1 -0.3
v 0.4 3.4 -0.3
v 0.4 3.7 -0.3
v 1.4 2.1 -0.3
v 1.4 2.6 -0.3
v 1.6 2.3 -0.3
v 1.6 2.4 -0.3
v 1.6 3.4 -0.3
v 1.6 3.7 -0.3
v 1.7 2.1 -0.3
v 1.7 2.3 -0.3
v 1.7 2.4 -0.3
v 1.7 2.6 -0.3
v 1.7 3.1 -0.3
v 1.7 4 -0.3
v 1.7 5 -0.3
v 1.7 5.1 -0.3
v 0.4 4.1 -0.4
v 0.4 5 -0.4
v 0.4 5.9 -0.4
v 0.4 6 -0.4
v 0.5 3.4 -0.4
v 0.5 3.7 -0.4
v 0.6 3.4 -0.4
v 0.6 3.7 -0.4
v 0.9 4.4 -0.4
v 0.9 4.7 -0.4
v 1.4 3.4 -0.4
v 1.4 3.7 -0.4
v 1.5 3.4 -0.4
v 1.5 3.7 -0.4
v 1.6 4.1 -0.4
v 1.6 4.4 -0.4
v 1.6 4.7 -0.4
v 1.6 5 -0.4
v 1.6 5.9 -0.4
v 1.6 6 -0.4
v 0.5 5.1 -0.5
v 0.5 5.4 -0.5
v 0.5 5.6 -0.5
v 0.5 5.9 -0.5
v 1.5 5.1 -0.5
v 1.5 5.4 -0.5
v 1.5 5.6 -0.5
v 1.5 5.9 -0.5
v 0.4 3.4 -0.6
v 0.4 3.7 -0.6
v 0.6 5.4 -0.6
v 0.6 5.6 -0.6
v 1.2 4.4 -0.6
v 1.2 4.7 -0.6
v 1.4 4.4 -0.6
v 1.4 4.7 -0.6
v 1.4 5.4 -0.6
v 1.4 5.6 -0.6
v 1.6 3.4 -0.6
v 1.6 3.7 -0.6
v 0.9 4.4 -1.1
v 0.9 4.7 -1.1
v 1.6 4.4 -1.1
v 1.6 4.7 -1.1
v 1.6 3.4 -1.5
v 1.6 3.8 -1.5
v 1.7 3.4 -1.5
v 1.7 3.8 -1.5
v 0.5 3.4 -0.5
v 0.5 3.7 -0.5
v 0.6 3.4 -0.5
v 0.6 3.7 -0.5
v 1.4 3.4 -0.5
v 1.4 3.7 -0.5
v 1.5 3.4 -0.5
v 1.5 3.7 -0.5
v 1.2 4.4 -0.8
v 1.2 4.7 -0.8
v 1.4 4.4 -0.8
v 1.4 4.7 -0.8
v 1.6 3.4 -1.1
v 1.6 3.8 -1.1
v 1.7 3.4 -1.1
v 1.7 3.8 -1.1
v 0.6 5.4 -1.4
v 0.6 5.6 -1.4
v 1.4 5.4 -1.4
v 1.4 5.6 -1.4
v 0.5 5.1 -1.5
v 0.5 5.4 -1.5
v 0.5 5.6 -1.5
v 0.5 5.9 -1.5
v 1.5 5.1 -1.5
v 1.5 5.4 -1.5
v 1.5 5.6 -1.5
v 1.5 5.9 -1.5
v 0.4 4.1 -1.6
v 0.4 5 -1.6
v 0.4 5.9 -1.6
v 0.4 6 -1.6
v 1.6 4.1 -1.6
v 1.6 5 -1.6
v 1.6 5.9 -1.6
v 1.6 6 -1.6
v 0.3 3.1 -1.7
v 0.3 4 -1.7
v 0.3 5 -1.7
v 0.3 5.1 -1.7
v 1.7 3.1 -1.7
v 1.7 4 -1.7
v 1.7 5 -1.7
v 1.7 5.1 -1.7
v 0.2 2.1 -1.8
v 0.2 3 -1.8
v 0.2 4 -1.8
v 0.2 4.1 -1.8
v 1.8 2.1 -1.8
v 1.8 3 -1.8
v 1.8 4 -1.8
v 1.8 4.1 -1.8
v 0 2 -2
v 0 2.1 -2
v 0 3 -2
v 0 3.1 -2
v 2 2 -2
v 2 2.1 -2
v 2 3 -2
v 2 3.1 -2
v 0 2 0
v 2 2 0
v 0 2 -2
v 2 2 -2
v 1.6 2.3 -0.2
v 1.7 2.3 -0.2
v 1.6 2.3 -0.3
v 1.7 2.3 -0.3
v 1.4 2.6 -0.2
v 1.7 2.6 -0.2
v 1.4 2.6 -0.3
v 1.7 2.6 -0.3
v 0 3 0
v 2 3 0
v 0.2 3 -0.2
v 1.8 3 -0.2
v 0.2 3 -1.8
v 1.8 3 -1.8
v 0 3 -2
v 2 3 -2
v 0.4 3.7 -0.3
v 1.6 3.7 -0.3
v 0.5 3.7 -0.4
v 0.6 3.7 -0.4
v 1.4 3.7 -0.4
v 1.5 3.7 -0.4
v 0.5 3.7 -0.5
v 0.6 3.7 -0.5
v 1.4 3.7 -0.5
v 1.5 3.7 -0.5
v 0.4 3.7 -0.6
v 1.6 3.7 -0.6
v 1.6 3.8 -1.1
v 1.7 3.8 -1.1
v 1.6 3.8 -1.5
v 1.7 3.8 -1.5
v 0.2 4 -0.2
v 1.8 4 -0.2
v 0.3 4 -0.3
v 1.7 4 -0.3
v 0.3 4 -1.7
v 1.7 4 -1.7
v 0.2 4 -1.8
v 1.8 4 -1.8
v 0.9 4.7 -0.4
v 1.6 4.7 -0.4
v 1.2 4.7 -0.6
v 1.4 4.7 -0.6
v 1.2 4.7 -0.8
v 1.4 4.7 -0.8
v 0.9 4.7 -1.1
v 1.6 4.7 -1.1
v 0.3 5 -0.3
v 1.7 5 -0.3
v 0.4 5 -0.4
v 1.6 5 -0.4
v 0.4 5 -1.6
v 1.6 5 -1.6
v 0.3 5 -1.7
v 1.7 5 -1.7
v 0.5 5.6 -0.5
v 1.5 5.6 -0.5
v 0.6 5.6 -0.6
v 1.4 5.6 -0.6
v 0.6 5.6 -1.4
v 1.4 5.6 -1.4
v 0.5 5.6 -1.5
v 1.5 5.6 -1.5
v 0.4 5.9 -0.4
v 1.6 5.9 -0.4
v 0.5 5.9 -0.5
v 1.5 5.9 -0.5
v 0.5 5.9 -1.5
v 1.5 5.9 -1.5
v 0.4 5.9 -1.6
v 1.6 5.9 -1.6
v 0 2.1 0
v 2 2.1 0
v 0.2 2.1 -0.2
v 1.4 2.1 -0.2
v 1.7 2.1 -0.2
v 1.8 2.1 -0.2
v 1.4 2.1 -0.3
v 1.7 2.1 -0.3
v 0.2 2.1 -1.8
v 1.8 2.1 -1.8
v 0 2.1 -2
v 2 2.1 -2
v 1.6 2.4 -0.2
v 1.7 2.4 -0.2
v 1.6 2.4 -0.3
v 1.7 2.4 -0.3
v 0 3.1 0
v 2 3.1 0
v 0.3 3.1 -0.3
v 1.7 3.1 -0.3
v 0.3 3.1 -1.7
v 1.7 3.1 -1.7
v 0 3.1 -2
v 2 3.1 -2
v 0.4 3.4 -0.3
v 1.6 3.4 -0.3
v 0.5 3.4 -0.4
v 0.6 3.4 -0.4
v 1.4 3.4 -0.4
v 1.5 3.4 -0.4
v 0.5 3.4 -0.5
v 0.6 3.4 -0.5
v 1.4 3.4 -0.5
v 1.5 3.4 -0.5
v 0.4 3.4 -0.6
v 1.6 3.4 -0.6
v 1.6 3.4 -1.1
v 1.7 3.4 -1.1
v 1.6 3.4 -1.5
v 1.7 3.4 -1.5
v 0.2 4.1 -0.2
v 1.8 4.1 -0.2
v 0.4 4.1 -0.4
v 1.6 4.1 -0.4
v 0.4 4.1 -1.6
v 1.6 4.1 -1.6
v 0.2 4.1 -1.8
v 1.8 4.1 -1.8
v 0.9 4.4 -0.4
v 1.6 4.4 -0.4
v 1.2 4.4 -0.6
v 1.4 4.4 -0.6
v 1.2 4.4 -0.8
v 1.4 4.4 -0.8
v 0.9 4.4 -1.1
v 1.6 4.4 -1.1
v 0.3 5.1 -0.3
v 1.7 5.1 -0.3
v 0.5 5.1 -0.5
v 1.5 5.1 -0.5
v 0.5 5.1 -1.5
v 1.5 5.1 -1.5
v 0.3 5.1 -1.7
v 1.7 5.1 -1.7
v 0.5 5.4 -0.5
v 1.5 5.4 -0.5
v 0.6 5.4 -0.6
v 1.4 5.4 -0.6
v 0.6 5.4 -1.4
v 1.4 5.4 -1.4
v 0.5 5.4 -1.5
v 1.5 5.4 -1.5
v 0.4 6 -0.4
v 1.6 6 -0.4
v 0.4 6 -1.6
v 1.6 6 -1.6

# faces
f 3/3/1 2/3/1 1/3/1
f 4/3/1 2/3/1 3/3/1
f 7/6/1 6/6/1 5/6/1
f 8/6/1 6/6/1 7/6/1
f 11/5/1 10/5/1 9/5/1
f 12/5/1 10/5/1 11/5/1
f 15/6/1 14/6/1 13/6/1
f 16/6/1 14/6/1 15/6/1
f 19/5/1 18/5/1 17/5/1
f 20/5/1 18/5/1 19/5/1
f 23/6/1 22/6/1 21/6/1
f 24/6/1 22/6/1 23/6/1
f 27/5/1 26/5/1 25/5/1
f 28/5/1 26/5/1 27/5/1
f 31/6/1 30/6/1 29/6/1
f 32/6/1 30/6/1 31/6/1
f 35/5/1 34/5/1 33/5/1
f 36/5/1 34/5/1 35/5/1
f 39/5/1 38/5/1 37/5/1
f 40/5/1 38/5/1 39/5/1
f 43/5/1 42/5/1 41/5/1
f 44/5/1 42/5/1 43/5/1
f 47/2/1 46/2/1 45/2/1
f 48/2/1 46/2/1 47/2/1
f 51/5/1 50/5/1 49/5/1
f 52/5/1 50/5/1 51/5/1
f 55/5/1 54/5/1 53/5/1
f 56/5/1 54/5/1 55/5/1
f 59/1/1 58/1/1 57/1/1
f 60/1/1 58/1/1 59/1/1
f 63/5/1 62/5/1 61/5/1
f 64/5/1 62/5/1 63/5/1
f 67/5/1 66/5/1 65/5/1
f 68/5/1 66/5/1 67/5/1
f 71/5/1 70/5/1 69/5/1
f 72/5/1 70/5/1 71/5/1
f 73/5/2 74/5/2 75/5/2
f 75/5/2 74/5/2 76/5/2
f 77/5/2 78/5/2 79/5/2
f 79/5/2 78/5/2 80/5/2
f 81/5/2 82/5/2 83/5/2
f 83/5/2 82/5/2 84/5/2
f 85/5/2 86/5/2 87/5/2
f 87/5/2 86/5/2 88/5/2
f 89/5/2 90/5/2 91/5/2
f 91/5/2 90/5/2 92/5/2
f 93/2/2 94/2/2 95/2/2
f 95/2/2 94/2/2 96/2/2
f 97/5/2 98/5/2 99/5/2
f 99/5/2 98/5/2 100/5/2
f 101/5/2 102/5/2 103/5/2
f 103/5/2 102/5/2 104/5/2
f 105/5/2 106/5/2 107/5/2
f 107/5/2 106/5/2 108/5/2
f 109/2/2 110/2/2 111/2/2
f 111/2/2 110/2/2 112/2/2
f 113/5/2 114/5/2 115/5/2
f 115/5/2 114/5/2 116/5/2
f 116/5/2 114/5/2 118/5/2
f 117/5/2 118/5/2 119/5/2
f 118/5/2 114/5/2 120/5/2
f 119/5/2 118/5/2 120/5/2
f 121/6/2 122/6/2 123/6/2
f 123/6/2 122/6/2 124/6/2
f 125/5/2 126/5/2 127/5/2
f 127/5/2 126/5/2 128/5/2
f 125/5/2 127/5/2 129/5/2
f 128/5/2 126/5/2 130/5/2
f 125/5/2 129/5/2 131/5/2
f 129/5/2 130/5/2 131/5/2
f 130/5/2 126/5/2 132/5/2
f 131/5/2 130/5/2 132/5/2
f 133/6/2 134/6/2 135/6/2
f 135/6/2 134/6/2 136/6/2
f 137/5/2 138/5/2 139/5/2
f 139/5/2 138/5/2 140/5/2
f 141/6/2 142/6/2 143/6/2
f 143/6/2 142/6/2 144/6/2
f 145/3/2 146/3/2 147/3/2
f 147/3/2 146/3/2 148/3/2
f 149/6/2 150/6/2 151/6/2
f 151/6/2 150/6/2 152/6/2
f 157/3/3 154/3/3 153/3/3
f 158/3/3 154/3/3 157/3/3
f 159/6/3 156/6/3 155/6/3
f 160/6/3 156/6/3 159/6/3
f 165/5/3 162/5/3 161/5/3
f 166/5/3 162/5/3 165/5/3
f 170/1/3 168/1/3 167/1/3
f 171/1/3 168/1/3 170/1/3
f 172/5/3 162/5/3 166/5/3
f 173/5/3 171/5/3 170/5/3
f 173/5/3 172/5/3 171/5/3
f 173/5/3 170/5/3 169/5/3
f 174/5/3 162/5/3 172/5/3
f 174/5/3 172/5/3 173/5/3
f 175/6/3 164/6/3 163/6/3
f 176/6/3 164/6/3 175/6/3
f 181/5/3 178/5/3 177/5/3
f 182/5/3 178/5/3 181/5/3
f 185/4/3 184/4/3 183/4/3
f 186/4/3 184/4/3 185/4/3
f 187/5/3 181/5/3 177/5/3
f 188/5/3 178/5/3 182/5/3
f 189/4/3 185/4/3 183/4/3
f 190/4/3 185/4/3 189/4/3
f 191/4/3 184/4/3 186/4/3
f 192/4/3 184/4/3 191/4/3
f 193/5/3 187/5/3 177/5/3
f 193/5/3 188/5/3 187/5/3
f 194/5/3 178/5/3 188/5/3
f 194/5/3 188/5/3 193/5/3
f 195/6/3 180/6/3 179/6/3
f 196/6/3 180/6/3 195/6/3
f 203/5/3 202/5/3 201/5/3
f 204/5/3 202/5/3 203/5/3
f 205/5/3 198/5/3 197/5/3
f 206/5/3 198/5/3 205/5/3
f 209/5/3 208/5/3 207/5/3
f 210/5/3 208/5/3 209/5/3
f 211/5/3 205/5/3 197/5/3
f 212/5/3 205/5/3 211/5/3
f 213/5/3 198/5/3 206/5/3
f 214/5/3 198/5/3 213/5/3
f 215/6/3 200/6/3 199/6/3
f 216/6/3 200/6/3 215/6/3
f 221/5/3 218/5/3 217/5/3
f 222/5/3 218/5/3 221/5/3
f 223/5/3 220/5/3 219/5/3
f 224/5/3 220/5/3 223/5/3
f 231/5/3 230/5/3 229/5/3
f 232/5/3 230/5/3 231/5/3
f 233/2/3 228/2/3 227/2/3
f 234/2/3 228/2/3 233/2/3
f 235/6/3 226/6/3 225/6/3
f 236/6/3 226/6/3 235/6/3
f 239/5/3 238/5/3 237/5/3
f 240/5/3 238/5/3 239/5/3
f 243/5/3 242/5/3 241/5/3
f 244/5/3 242/5/3 243/5/3
f 245/5/4 246/5/4 247/5/4
f 247/5/4 246/5/4 248/5/4
f 249/5/4 250/5/4 251/5/4
f 251/5/4 250/5/4 252/5/4
f 253/5/4 254/5/4 255/5/4
f 255/5/4 254/5/4 256/5/4
f 257/5/4 258/5/4 259/5/4
f 259/5/4 258/5/4 260/5/4
f 261/2/4 262/2/4 263/2/4
f 263/2/4 262/2/4 264/2/4
f 265/5/4 266/5/4 269/5/4
f 269/5/4 266/5/4 270/5/4
f 267/5/4 268/5/4 271/5/4
f 271/5/4 268/5/4 272/5/4
f 273/5/4 274/5/4 277/5/4
f 277/5/4 274/5/4 278/5/4
f 275/6/4 276/6/4 279/6/4
f 279/6/4 276/6/4 280/6/4
f 281/5/4 282/5/4 285/5/4
f 285/5/4 282/5/4 286/5/4
f 283/6/4 284/6/4 287/6/4
f 287/6/4 284/6/4 288/6/4
f 289/5/4 290/5/4 293/5/4
f 293/5/4 290/5/4 294/5/4
f 291/6/4 292/6/4 295/6/4
f 295/6/4 292/6/4 296/6/4
f 297/3/4 298/3/4 301/3/4
f 301/3/4 298/3/4 302/3/4
f 299/6/4 300/6/4 303/6/4
f 303/6/4 300/6/4 304/6/4
f 307/3/5 306/3/5 305/3/5
f 308/3/5 306/3/5 307/3/5
f 311/1/5 310/1/5 309/1/5
f 312/1/5 310/1/5 311/1/5
f 315/5/5 314/5/5 313/5/5
f 316/5/5 314/5/5 315/5/5
f 319/6/5 318/6/5 317/6/5
f 320/6/5 318/6/5 319/6/5
f 321/6/5 319/6/5 317/6/5
f 322/6/5 318/6/5 320/6/5
f 323/6/5 321/6/5 317/6/5
f 323/6/5 322/6/5 321/6/5
f 324/6/5 318/6/5 322/6/5
f 324/6/5 322/6/5 323/6/5
f 327/5/5 326/5/5 325/5/5
f 328/5/5 326/5/5 327/5/5
f 329/5/5 326/5/5 328/5/5
f 330/5/5 326/5/5 329/5/5
f 331/5/5 327/5/5 325/5/5
f 332/5/5 329/5/5 328/5/5
f 333/5/5 329/5/5 332/5/5
f 334/5/5 326/5/5 330/5/5
f 335/5/5 333/5/5 332/5/5
f 335/5/5 334/5/5 333/5/5
f 335/5/5 331/5/5 325/5/5
f 335/5/5 332/5/5 331/5/5
f 336/5/5 326/5/5 334/5/5
f 336/5/5 334/5/5 335/5/5
f 339/5/5 338/5/5 337/5/5
f 340/5/5 338/5/5 339/5/5
f 343/6/5 342/6/5 341/6/5
f 344/6/5 342/6/5 343/6/5
f 345/6/5 343/6/5 341/6/5
f 346/6/5 342/6/5 344/6/5
f 347/6/5 345/6/5 341/6/5
f 347/6/5 346/6/5 345/6/5
f 348/6/5 342/6/5 346/6/5
f 348/6/5 346/6/5 347/6/5
f 351/5/5 350/5/5 349/5/5
f 352/5/5 350/5/5 351/5/5
f 353/5/5 351/5/5 349/5/5
f 354/5/5 350/5/5 352/5/5
f 355/5/5 353/5/5 349/5/5
f 355/5/5 354/5/5 353/5/5
f 356/5/5 350/5/5 354/5/5
f 356/5/5 354/5/5 355/5/5
f 359/6/5 358/6/5 357/6/5
f 360/6/5 358/6/5 359/6/5
f 361/6/5 359/6/5 357/6/5
f 362/6/5 358/6/5 360/6/5
f 363/6/5 361/6/5 357/6/5
f 363/6/5 362/6/5 361/6/5
f 364/6/5 358/6/5 362/6/5
f 364/6/5 362/6/5 363/6/5
f 367/5/5 366/5/5 365/5/5
f 368/5/5 366/5/5 367/5/5
f 369/5/5 367/5/5 365/5/5
f 370/5/5 366/5/5 368/5/5
f 371/5/5 369/5/5 365/5/5
f 371/5/5 370/5/5 369/5/5
f 372/5/5 366/5/5 370/5/5
f 372/5/5 370/5/5 371/5/5
f 375/6/5 374/6/5 373/6/5
f 376/6/5 374/6/5 375/6/5
f 377/6/5 375/6/5 373/6/5
f 378/6/5 374/6/5 376/6/5
f 379/6/5 377/6/5 373/6/5
f 379/6/5 378/6/5 377/6/5
f 380/6/5 374/6/5 378/6/5
f 380/6/5 378/6/5 379/6/5
f 381/3/6 382/3/6 383/3/6
f 383/3/6 382/3/6 384/3/6
f 384/3/6 382/3/6 385/3/6
f 385/3/6 382/3/6 386/3/6
f 384/3/6 385/3/6 387/3/6
f 387/3/6 385/3/6 388/3/6
f 381/3/6 383/3/6 389/3/6
f 386/3/6 382/3/6 390/3/6
f 381/3/6 389/3/6 391/3/6
f 389/3/6 390/3/6 391/3/6
f 390/3/6 382/3/6 392/3/6
f 391/3/6 390/3/6 392/3/6
f 393/1/6 394/1/6 395/1/6
f 395/1/6 394/1/6 396/1/6
f 397/6/6 398/6/6 399/6/6
f 399/6/6 398/6/6 400/6/6
f 397/6/6 399/6/6 401/6/6
f 400/6/6 398/6/6 402/6/6
f 397/6/6 401/6/6 403/6/6
f 401/6/6 402/6/6 403/6/6
f 402/6/6 398/6/6 404/6/6
f 403/6/6 402/6/6 404/6/6
f 405/5/6 406/5/6 407/5/6
f 407/5/6 406/5/6 408/5/6
f 408/5/6 406/5/6 409/5/6
f 409/5/6 406/5/6 410/5/6
f 405/5/6 407/5/6 411/5/6
f 408/5/6 409/5/6 412/5/6
f 412/5/6 409/5/6 413/5/6
f 410/5/6 406/5/6 414/5/6
f 412/5/6 413/5/6 415/5/6
f 413/5/6 414/5/6 415/5/6
f 405/5/6 411/5/6 415/5/6
f 411/5/6 412/5/6 415/5/6
f 414/5/6 406/5/6 416/5/6
f 415/5/6 414/5/6 416/5/6
f 417/5/6 418/5/6 419/5/6
f 419/5/6 418/5/6 420/5/6
f 421/6/6 422/6/6 423/6/6
f 423/6/6 422/6/6 424/6/6
f 421/6/6 423/6/6 425/6/6
f 424/6/6 422/6/6 426/6/6
f 421/6/6 425/6/6 427/6/6
f 425/6/6 426/6/6 427/6/6
f 426/6/6 422/6/6 428/6/6
f 427/6/6 426/6/6 428/6/6
f 429/5/6 430/5/6 431/5/6
f 431/5/6 430/5/6 432/5/6
f 429/5/6 431/5/6 433/5/6
f 432/5/6 430/5/6 434/5/6
f 429/5/6 433/5/6 435/5/6
f 433/5/6 434/5/6 435/5/6
f 434/5/6 430/5/6 436/5/6
f 435/5/6 434/5/6 436/5/6
f 437/6/6 438/6/6 439/6/6
f 439/6/6 438/6/6 440/6/6
f 437/6/6 439/6/6 441/6/6
f 440/6/6 438/6/6 442/6/6
f 437/6/6 441/6/6 443/6/6
f 441/6/6 442/6/6 443/6/6
f 442/6/6 438/6/6 444/6/6
f 443/6/6 442/6/6 444/6/6
f 445/5/6 446/5/6 447/5/6
f 447/5/6 446/5/6 448/5/6
f 445/5/6 447/5/6 449/5/6
f 448/5/6 446/5/6 450/5/6
f 445/5/6 449/5/6 451/5/6
f 449/5/6 450/5/6 451/5/6
f 450/5/6 446/5/6 452/5/6
f 451/5/6 450/5/6 452/5/6
f 453/6/6 454/6/6 455/6/6
f 455/6/6 454/6/6 456/6/6
