# MagicaVoxel @ Ephtracy

# group
o 

# material
mtllib 20_LongHouse_10.mtl
usemtl palette

# normals
vn -1 0 0
vn 1 0 0
vn 0 0 1
vn 0 0 -1
vn 0 -1 0
vn 0 1 0

# texcoords
vt 0.0136719 0.5
vt 0.0175781 0.5
vt 0.744141 0.5
vt 0.853516 0.5
vt 0.857422 0.5
vt 0.861328 0.5
vt 0.865234 0.5
vt 0.962891 0.5
vt 0.978516 0.5

# verts
v 0 2 0
v 0 2 -2
v 0 2.1 0
v 0 2.1 -2
v 0.1 2.1 -0.1
v 0.1 2.1 -1.9
v 0.1 6 -0.1
v 0.1 6 -1.9
v 1.1 2.3 -0.3
v 1.1 2.3 -0.4
v 1.1 2.6 -0.3
v 1.1 2.6 -0.4
v 1.1 2.7 -0.3
v 1.1 2.7 -0.4
v 1.1 3 -0.3
v 1.1 3 -0.4
v 1.1 3.9 -0.3
v 1.1 3.9 -0.4
v 1.1 3.9 -0.8
v 1.1 3.9 -1.6
v 1.1 3.9 -1.7
v 1.1 4.1 -0.3
v 1.1 4.1 -0.4
v 1.1 4.1 -0.5
v 1.1 4.1 -1.6
v 1.1 4.1 -1.7
v 1.1 4.2 -0.3
v 1.1 4.2 -0.4
v 1.1 4.2 -0.5
v 1.1 4.2 -1.6
v 1.1 4.2 -1.7
v 1.1 4.5 -0.4
v 1.1 4.5 -0.8
v 1.1 5.1 -0.3
v 1.1 5.1 -1.7
v 1.2 3.9 -0.4
v 1.2 3.9 -0.8
v 1.2 4.1 -0.4
v 1.2 4.1 -0.5
v 1.2 4.2 -0.4
v 1.2 4.2 -0.5
v 1.2 4.5 -0.4
v 1.2 4.5 -0.8
v 1.6 2.3 -0.3
v 1.6 2.3 -0.4
v 1.6 2.4 -0.3
v 1.6 2.4 -0.4
v 1.7 2.1 -0.3
v 1.7 2.1 -0.4
v 1.7 2.3 -0.3
v 1.7 2.3 -0.4
v 1.7 2.4 -0.3
v 1.7 2.4 -0.4
v 1.7 2.7 -0.3
v 1.7 2.7 -0.4
v 1.7 3.1 -0.3
v 1.7 3.1 -0.4
v 1.7 3.4 -0.3
v 1.7 3.4 -0.4
v 1.7 5.3 -0.3
v 1.7 5.3 -0.4
v 1.7 5.7 -0.3
v 1.7 5.7 -0.4
v 1.8 2.1 -0.1
v 1.8 2.1 -0.3
v 1.8 2.1 -1.7
v 1.8 2.1 -1.9
v 1.8 3.6 -0.3
v 1.8 3.6 -1.7
v 1.8 3.8 -0.3
v 1.8 3.8 -1.7
v 1.8 5.9 -0.1
v 1.8 5.9 -0.3
v 1.8 5.9 -1.7
v 1.8 5.9 -1.9
v 0.2 2.1 -0.1
v 0.2 2.1 -0.3
v 0.2 2.1 -1.7
v 0.2 2.1 -1.9
v 0.2 3.6 -0.3
v 0.2 3.6 -1.7
v 0.2 3.8 -0.3
v 0.2 3.8 -1.7
v 0.2 3.9 -0.3
v 0.2 3.9 -0.4
v 0.2 3.9 -1.6
v 0.2 3.9 -1.7
v 0.2 4.1 -0.3
v 0.2 4.1 -0.4
v 0.2 4.1 -1.6
v 0.2 4.1 -1.7
v 0.2 4.2 -0.3
v 0.2 4.2 -0.4
v 0.2 4.2 -1.6
v 0.2 4.2 -1.7
v 0.2 5.1 -0.3
v 0.2 5.1 -1.7
v 0.2 5.9 -0.1
v 0.2 5.9 -0.3
v 0.2 5.9 -1.7
v 0.2 5.9 -1.9
v 0.3 2.3 -0.3
v 0.3 2.3 -0.4
v 0.3 2.6 -0.3
v 0.3 2.6 -0.4
v 0.3 2.7 -0.3
v 0.3 2.7 -0.4
v 0.3 3 -0.3
v 0.3 3 -0.4
v 0.3 3.1 -0.3
v 0.3 3.1 -0.4
v 0.3 3.4 -0.3
v 0.3 3.4 -0.4
v 1.1 5.3 -0.3
v 1.1 5.3 -0.4
v 1.1 5.7 -0.3
v 1.1 5.7 -0.4
v 1.3 2.1 -0.3
v 1.3 2.1 -0.4
v 1.3 2.7 -0.3
v 1.3 2.7 -0.4
v 1.9 2.1 -0.1
v 1.9 2.1 -1.9
v 1.9 6 -0.1
v 1.9 6 -1.9
v 2 2 0
v 2 2 -2
v 2 2.1 0
v 2 2.1 -2
v 0 2 0
v 0 2.1 0
v 2 2 0
v 2 2.1 0
v 0.1 2.1 -0.1
v 0.1 6 -0.1
v 0.2 2.1 -0.1
v 0.2 5.9 -0.1
v 1.8 2.1 -0.1
v 1.8 5.9 -0.1
v 1.9 2.1 -0.1
v 1.9 6 -0.1
v 0.2 2.1 -0.3
v 0.2 3.6 -0.3
v 0.2 3.8 -0.3
v 0.2 3.9 -0.3
v 0.2 4.1 -0.3
v 0.2 4.2 -0.3
v 0.2 5.1 -0.3
v 0.2 5.9 -0.3
v 0.3 2.3 -0.3
v 0.3 2.6 -0.3
v 0.3 2.7 -0.3
v 0.3 3 -0.3
v 0.3 3.1 -0.3
v 0.3 3.4 -0.3
v 1.1 2.3 -0.3
v 1.1 2.6 -0.3
v 1.1 2.7 -0.3
v 1.1 3 -0.3
v 1.1 3.9 -0.3
v 1.1 4.1 -0.3
v 1.1 4.2 -0.3
v 1.1 5.1 -0.3
v 1.1 5.3 -0.3
v 1.1 5.7 -0.3
v 1.3 2.1 -0.3
v 1.3 2.7 -0.3
v 1.6 2.3 -0.3
v 1.6 2.4 -0.3
v 1.7 2.1 -0.3
v 1.7 2.3 -0.3
v 1.7 2.4 -0.3
v 1.7 2.7 -0.3
v 1.7 3.1 -0.3
v 1.7 3.4 -0.3
v 1.7 5.3 -0.3
v 1.7 5.7 -0.3
v 1.8 2.1 -0.3
v 1.8 3.6 -0.3
v 1.8 3.8 -0.3
v 1.8 5.9 -0.3
v 0.3 2.3 -0.4
v 0.3 2.6 -0.4
v 0.3 2.7 -0.4
v 0.3 3 -0.4
v 0.3 3.1 -0.4
v 0.3 3.4 -0.4
v 1.1 2.3 -0.4
v 1.1 2.6 -0.4
v 1.1 2.7 -0.4
v 1.1 3 -0.4
v 1.1 5.3 -0.4
v 1.1 5.7 -0.4
v 1.3 2.1 -0.4
v 1.3 2.7 -0.4
v 1.6 2.3 -0.4
v 1.6 2.4 -0.4
v 1.7 2.1 -0.4
v 1.7 2.3 -0.4
v 1.7 2.4 -0.4
v 1.7 2.7 -0.4
v 1.7 3.1 -0.4
v 1.7 3.4 -0.4
v 1.7 5.3 -0.4
v 1.7 5.7 -0.4
v 1.1 3.9 -0.8
v 1.1 4.5 -0.8
v 1.2 3.9 -0.8
v 1.2 4.5 -0.8
v 0.2 4.1 -1.6
v 0.2 4.2 -1.6
v 1.1 4.1 -1.6
v 1.1 4.2 -1.6
v 0.2 4.1 -0.4
v 0.2 4.2 -0.4
v 1.1 3.9 -0.4
v 1.1 4.1 -0.4
v 1.1 4.2 -0.4
v 1.1 4.5 -0.4
v 1.2 3.9 -0.4
v 1.2 4.1 -0.4
v 1.2 4.2 -0.4
v 1.2 4.5 -0.4
v 1.1 4.1 -0.5
v 1.1 4.2 -0.5
v 1.2 4.1 -0.5
v 1.2 4.2 -0.5
v 0.2 2.1 -1.7
v 0.2 3.6 -1.7
v 0.2 3.8 -1.7
v 0.2 3.9 -1.7
v 0.2 4.1 -1.7
v 0.2 4.2 -1.7
v 0.2 5.1 -1.7
v 0.2 5.9 -1.7
v 1.1 3.9 -1.7
v 1.1 4.1 -1.7
v 1.1 4.2 -1.7
v 1.1 5.1 -1.7
v 1.8 2.1 -1.7
v 1.8 3.6 -1.7
v 1.8 3.8 -1.7
v 1.8 5.9 -1.7
v 0.1 2.1 -1.9
v 0.1 6 -1.9
v 0.2 2.1 -1.9
v 0.2 5.9 -1.9
v 1.8 2.1 -1.9
v 1.8 5.9 -1.9
v 1.9 2.1 -1.9
v 1.9 6 -1.9
v 0 2 -2
v 0 2.1 -2
v 2 2 -2
v 2 2.1 -2
v 0 2 0
v 2 2 0
v 0 2 -2
v 2 2 -2
v 1.6 2.3 -0.3
v 1.7 2.3 -0.3
v 1.6 2.3 -0.4
v 1.7 2.3 -0.4
v 0.3 2.6 -0.3
v 1.1 2.6 -0.3
v 0.3 2.6 -0.4
v 1.1 2.6 -0.4
v 1.3 2.7 -0.3
v 1.7 2.7 -0.3
v 1.3 2.7 -0.4
v 1.7 2.7 -0.4
v 0.3 3 -0.3
v 1.1 3 -0.3
v 0.3 3 -0.4
v 1.1 3 -0.4
v 0.3 3.4 -0.3
v 1.7 3.4 -0.3
v 0.3 3.4 -0.4
v 1.7 3.4 -0.4
v 0.2 4.1 -0.3
v 1.1 4.1 -0.3
v 0.2 4.1 -0.4
v 1.1 4.1 -0.4
v 1.2 4.1 -0.4
v 1.1 4.1 -0.5
v 1.2 4.1 -0.5
v 0.2 4.1 -1.6
v 1.1 4.1 -1.6
v 0.2 4.1 -1.7
v 1.1 4.1 -1.7
v 1.1 4.5 -0.4
v 1.2 4.5 -0.4
v 1.1 4.5 -0.8
v 1.2 4.5 -0.8
v 0.2 5.1 -0.3
v 1.1 5.1 -0.3
v 0.2 5.1 -1.7
v 1.1 5.1 -1.7
v 1.1 5.7 -0.3
v 1.7 5.7 -0.3
v 1.1 5.7 -0.4
v 1.7 5.7 -0.4
v 0.2 5.9 -0.1
v 1.8 5.9 -0.1
v 0.2 5.9 -0.3
v 1.8 5.9 -0.3
v 0.2 5.9 -1.7
v 1.8 5.9 -1.7
v 0.2 5.9 -1.9
v 1.8 5.9 -1.9
v 0 2.1 0
v 2 2.1 0
v 0.1 2.1 -0.1
v 0.2 2.1 -0.1
v 1.8 2.1 -0.1
v 1.9 2.1 -0.1
v 0.2 2.1 -0.3
v 1.3 2.1 -0.3
v 1.7 2.1 -0.3
v 1.8 2.1 -0.3
v 1.3 2.1 -0.4
v 1.7 2.1 -0.4
v 0.2 2.1 -1.7
v 1.8 2.1 -1.7
v 0.1 2.1 -1.9
v 0.2 2.1 -1.9
v 1.8 2.1 -1.9
v 1.9 2.1 -1.9
v 0 2.1 -2
v 2 2.1 -2
v 0.3 2.3 -0.3
v 1.1 2.3 -0.3
v 0.3 2.3 -0.4
v 1.1 2.3 -0.4
v 1.6 2.4 -0.3
v 1.7 2.4 -0.3
v 1.6 2.4 -0.4
v 1.7 2.4 -0.4
v 0.3 2.7 -0.3
v 1.1 2.7 -0.3
v 0.3 2.7 -0.4
v 1.1 2.7 -0.4
v 0.3 3.1 -0.3
v 1.7 3.1 -0.3
v 0.3 3.1 -0.4
v 1.7 3.1 -0.4
v 0.2 3.9 -0.3
v 1.1 3.9 -0.3
v 0.2 3.9 -0.4
v 1.1 3.9 -0.4
v 1.2 3.9 -0.4
v 1.1 3.9 -0.8
v 1.2 3.9 -0.8
v 0.2 3.9 -1.6
v 1.1 3.9 -1.6
v 0.2 3.9 -1.7
v 1.1 3.9 -1.7
v 0.2 4.2 -0.3
v 1.1 4.2 -0.3
v 0.2 4.2 -0.4
v 1.1 4.2 -0.4
v 1.2 4.2 -0.4
v 1.1 4.2 -0.5
v 1.2 4.2 -0.5
v 0.2 4.2 -1.6
v 1.1 4.2 -1.6
v 0.2 4.2 -1.7
v 1.1 4.2 -1.7
v 1.1 5.3 -0.3
v 1.7 5.3 -0.3
v 1.1 5.3 -0.4
v 1.7 5.3 -0.4
v 0.1 6 -0.1
v 1.9 6 -0.1
v 0.1 6 -1.9
v 1.9 6 -1.9

# faces
f 3/3/1 2/3/1 1/3/1
f 4/3/1 2/3/1 3/3/1
f 7/8/1 6/8/1 5/8/1
f 8/8/1 6/8/1 7/8/1
f 11/5/1 10/5/1 9/5/1
f 12/5/1 10/5/1 11/5/1
f 15/5/1 14/5/1 13/5/1
f 16/5/1 14/5/1 15/5/1
f 22/5/1 18/5/1 17/5/1
f 23/5/1 18/5/1 22/5/1
f 25/5/1 21/5/1 20/5/1
f 25/5/1 20/5/1 19/5/1
f 26/5/1 21/5/1 25/5/1
f 28/1/1 24/1/1 23/1/1
f 29/1/1 24/1/1 28/1/1
f 30/5/1 25/5/1 19/5/1
f 32/5/1 28/5/1 27/5/1
f 33/5/1 31/5/1 30/5/1
f 33/5/1 30/5/1 19/5/1
f 34/5/1 32/5/1 27/5/1
f 34/5/1 33/5/1 32/5/1
f 35/5/1 31/5/1 33/5/1
f 35/5/1 33/5/1 34/5/1
f 38/7/1 37/7/1 36/7/1
f 39/7/1 37/7/1 38/7/1
f 41/7/1 37/7/1 39/7/1
f 42/7/1 41/7/1 40/7/1
f 43/7/1 37/7/1 41/7/1
f 43/7/1 41/7/1 42/7/1
f 46/2/1 45/2/1 44/2/1
f 47/2/1 45/2/1 46/2/1
f 50/5/1 49/5/1 48/5/1
f 51/5/1 49/5/1 50/5/1
f 54/5/1 53/5/1 52/5/1
f 55/5/1 53/5/1 54/5/1
f 58/5/1 57/5/1 56/5/1
f 59/5/1 57/5/1 58/5/1
f 62/5/1 61/5/1 60/5/1
f 63/5/1 61/5/1 62/5/1
f 68/8/1 65/8/1 64/8/1
f 69/8/1 67/8/1 66/8/1
f 70/8/1 68/8/1 64/8/1
f 71/8/1 67/8/1 69/8/1
f 72/8/1 70/8/1 64/8/1
f 73/8/1 70/8/1 72/8/1
f 74/8/1 67/8/1 71/8/1
f 75/8/1 67/8/1 74/8/1
f 76/8/2 77/8/2 80/8/2
f 78/8/2 79/8/2 81/8/2
f 76/8/2 80/8/2 82/8/2
f 81/8/2 79/8/2 83/8/2
f 76/8/2 82/8/2 84/8/2
f 83/8/2 79/8/2 87/8/2
f 85/8/2 86/8/2 88/8/2
f 86/8/2 87/8/2 88/8/2
f 76/8/2 84/8/2 88/8/2
f 84/8/2 85/8/2 88/8/2
f 88/8/2 87/8/2 89/8/2
f 89/8/2 87/8/2 90/8/2
f 87/8/2 79/8/2 91/8/2
f 90/8/2 87/8/2 91/8/2
f 76/8/2 88/8/2 92/8/2
f 89/8/2 90/8/2 93/8/2
f 93/8/2 90/8/2 94/8/2
f 91/8/2 79/8/2 95/8/2
f 76/8/2 92/8/2 96/8/2
f 94/8/2 95/8/2 96/8/2
f 93/8/2 94/8/2 96/8/2
f 92/8/2 93/8/2 96/8/2
f 95/8/2 79/8/2 97/8/2
f 96/8/2 95/8/2 97/8/2
f 76/8/2 96/8/2 98/8/2
f 98/8/2 96/8/2 99/8/2
f 97/8/2 79/8/2 100/8/2
f 100/8/2 79/8/2 101/8/2
f 102/5/2 103/5/2 104/5/2
f 104/5/2 103/5/2 105/5/2
f 106/5/2 107/5/2 108/5/2
f 108/5/2 107/5/2 109/5/2
f 110/5/2 111/5/2 112/5/2
f 112/5/2 111/5/2 113/5/2
f 114/5/2 115/5/2 116/5/2
f 116/5/2 115/5/2 117/5/2
f 118/5/2 119/5/2 120/5/2
f 120/5/2 119/5/2 121/5/2
f 122/8/2 123/8/2 124/8/2
f 124/8/2 123/8/2 125/8/2
f 126/3/2 127/3/2 128/3/2
f 128/3/2 127/3/2 129/3/2
f 132/3/3 131/3/3 130/3/3
f 133/3/3 131/3/3 132/3/3
f 136/8/3 135/8/3 134/8/3
f 137/8/3 135/8/3 136/8/3
f 139/8/3 135/8/3 137/8/3
f 140/8/3 139/8/3 138/8/3
f 141/8/3 135/8/3 139/8/3
f 141/8/3 139/8/3 140/8/3
f 150/5/3 143/5/3 142/5/3
f 151/5/3 143/5/3 150/5/3
f 152/5/3 143/5/3 151/5/3
f 153/5/3 143/5/3 152/5/3
f 154/5/3 143/5/3 153/5/3
f 155/5/3 143/5/3 154/5/3
f 156/5/3 150/5/3 142/5/3
f 157/5/3 152/5/3 151/5/3
f 158/5/3 152/5/3 157/5/3
f 159/5/3 154/5/3 153/5/3
f 160/5/3 145/5/3 144/5/3
f 161/9/3 147/9/3 146/9/3
f 162/9/3 147/9/3 161/9/3
f 163/5/3 149/5/3 148/5/3
f 164/5/3 149/5/3 163/5/3
f 165/5/3 149/5/3 164/5/3
f 166/5/3 159/5/3 158/5/3
f 166/5/3 158/5/3 157/5/3
f 166/5/3 156/5/3 142/5/3
f 166/5/3 157/5/3 156/5/3
f 167/5/3 159/5/3 166/5/3
f 171/2/3 169/2/3 168/2/3
f 172/2/3 169/2/3 171/2/3
f 173/5/3 159/5/3 167/5/3
f 174/5/3 154/5/3 159/5/3
f 174/5/3 159/5/3 173/5/3
f 175/5/3 143/5/3 155/5/3
f 176/5/3 162/5/3 161/5/3
f 176/5/3 164/5/3 163/5/3
f 176/5/3 163/5/3 162/5/3
f 176/5/3 161/5/3 160/5/3
f 177/5/3 149/5/3 165/5/3
f 178/5/3 175/5/3 174/5/3
f 178/5/3 174/5/3 173/5/3
f 178/5/3 173/5/3 172/5/3
f 178/5/3 172/5/3 171/5/3
f 178/5/3 171/5/3 170/5/3
f 179/4/3 144/4/3 143/4/3
f 179/5/3 175/5/3 178/5/3
f 179/5/3 143/5/3 175/5/3
f 180/5/3 177/5/3 176/5/3
f 180/4/3 144/4/3 179/4/3
f 180/5/3 176/5/3 160/5/3
f 180/5/3 160/5/3 144/5/3
f 181/5/3 149/5/3 177/5/3
f 181/5/3 177/5/3 180/5/3
f 188/8/3 183/8/3 182/8/3
f 189/8/3 183/8/3 188/8/3
f 190/8/3 185/8/3 184/8/3
f 191/8/3 185/8/3 190/8/3
f 196/6/3 195/6/3 194/6/3
f 197/6/3 195/6/3 196/6/3
f 198/6/3 196/6/3 194/6/3
f 199/6/3 196/6/3 198/6/3
f 200/6/3 195/6/3 197/6/3
f 201/6/3 195/6/3 200/6/3
f 202/8/3 187/8/3 186/8/3
f 203/8/3 187/8/3 202/8/3
f 204/8/3 193/8/3 192/8/3
f 205/8/3 193/8/3 204/8/3
f 208/5/3 207/5/3 206/5/3
f 209/5/3 207/5/3 208/5/3
f 212/9/3 211/9/3 210/9/3
f 213/9/3 211/9/3 212/9/3
f 214/9/4 215/9/4 217/9/4
f 217/9/4 215/9/4 218/9/4
f 216/5/4 217/5/4 220/5/4
f 220/5/4 217/5/4 221/5/4
f 218/5/4 219/5/4 222/5/4
f 222/5/4 219/5/4 223/5/4
f 224/1/4 225/1/4 226/1/4
f 226/1/4 225/1/4 227/1/4
f 230/5/4 231/5/4 236/5/4
f 232/9/4 233/9/4 237/9/4
f 237/9/4 233/9/4 238/9/4
f 234/5/4 235/5/4 239/5/4
f 228/5/4 229/5/4 240/5/4
f 229/4/4 230/4/4 241/4/4
f 240/5/4 229/5/4 241/5/4
f 238/5/4 239/5/4 242/5/4
f 241/4/4 230/4/4 242/4/4
f 237/5/4 238/5/4 242/5/4
f 230/5/4 236/5/4 242/5/4
f 236/5/4 237/5/4 242/5/4
f 239/5/4 235/5/4 243/5/4
f 242/5/4 239/5/4 243/5/4
f 244/8/4 245/8/4 246/8/4
f 246/8/4 245/8/4 247/8/4
f 247/8/4 245/8/4 249/8/4
f 248/8/4 249/8/4 250/8/4
f 249/8/4 245/8/4 251/8/4
f 250/8/4 249/8/4 251/8/4
f 252/3/4 253/3/4 254/3/4
f 254/3/4 253/3/4 255/3/4
f 258/3/5 257/3/5 256/3/5
f 259/3/5 257/3/5 258/3/5
f 262/2/5 261/2/5 260/2/5
f 263/2/5 261/2/5 262/2/5
f 266/5/5 265/5/5 264/5/5
f 267/5/5 265/5/5 266/5/5
f 270/5/5 269/5/5 268/5/5
f 271/5/5 269/5/5 270/5/5
f 274/5/5 273/5/5 272/5/5
f 275/5/5 273/5/5 274/5/5
f 278/5/5 277/5/5 276/5/5
f 279/5/5 277/5/5 278/5/5
f 282/9/5 281/9/5 280/9/5
f 283/9/5 281/9/5 282/9/5
f 285/1/5 284/1/5 283/1/5
f 286/1/5 284/1/5 285/1/5
f 289/9/5 288/9/5 287/9/5
f 290/9/5 288/9/5 289/9/5
f 293/5/5 292/5/5 291/5/5
f 294/5/5 292/5/5 293/5/5
f 297/5/5 296/5/5 295/5/5
f 298/5/5 296/5/5 297/5/5
f 301/5/5 300/5/5 299/5/5
f 302/5/5 300/5/5 301/5/5
f 305/8/5 304/8/5 303/8/5
f 306/8/5 304/8/5 305/8/5
f 309/8/5 308/8/5 307/8/5
f 310/8/5 308/8/5 309/8/5
f 311/3/6 312/3/6 313/3/6
f 313/3/6 312/3/6 314/3/6
f 314/3/6 312/3/6 315/3/6
f 315/3/6 312/3/6 316/3/6
f 314/3/6 315/3/6 317/3/6
f 317/3/6 315/3/6 318/3/6
f 318/3/6 315/3/6 319/3/6
f 319/3/6 315/3/6 320/3/6
f 318/3/6 319/3/6 321/3/6
f 321/3/6 319/3/6 322/3/6
f 311/3/6 313/3/6 325/3/6
f 323/3/6 324/3/6 326/3/6
f 326/3/6 324/3/6 327/3/6
f 316/3/6 312/3/6 328/3/6
f 311/3/6 325/3/6 329/3/6
f 327/3/6 328/3/6 329/3/6
f 326/3/6 327/3/6 329/3/6
f 325/3/6 326/3/6 329/3/6
f 328/3/6 312/3/6 330/3/6
f 329/3/6 328/3/6 330/3/6
f 331/5/6 332/5/6 333/5/6
f 333/5/6 332/5/6 334/5/6
f 335/2/6 336/2/6 337/2/6
f 337/2/6 336/2/6 338/2/6
f 339/5/6 340/5/6 341/5/6
f 341/5/6 340/5/6 342/5/6
f 343/5/6 344/5/6 345/5/6
f 345/5/6 344/5/6 346/5/6
f 347/5/6 348/5/6 349/5/6
f 349/5/6 348/5/6 350/5/6
f 349/8/6 350/8/6 352/8/6
f 350/5/6 351/5/6 352/5/6
f 352/5/6 351/5/6 353/5/6
f 349/8/6 352/8/6 354/8/6
f 354/8/6 352/8/6 355/8/6
f 354/5/6 355/5/6 356/5/6
f 356/5/6 355/5/6 357/5/6
f 358/9/6 359/9/6 360/9/6
f 360/9/6 359/9/6 361/9/6
f 361/1/6 362/1/6 363/1/6
f 363/1/6 362/1/6 364/1/6
f 365/9/6 366/9/6 367/9/6
f 367/9/6 366/9/6 368/9/6
f 369/5/6 370/5/6 371/5/6
f 371/5/6 370/5/6 372/5/6
f 373/8/6 374/8/6 375/8/6
f 375/8/6 374/8/6 376/8/6
