# MagicaVoxel @ Ephtracy

# group
o 

# material
mtllib 20_toilet_02.mtl
usemtl palette

# normals
vn -1 0 0
vn 1 0 0
vn 0 0 1
vn 0 0 -1
vn 0 -1 0
vn 0 1 0

# texcoords
vt 0.779297 0.5
vt 0.853516 0.5
vt 0.896484 0.5
vt 0.962891 0.5
vt 0.982422 0.5
vt 0.990234 0.5

# verts
v 0 2 0
v 0 2 -2
v 0 2.1 0
v 0 2.1 -2
v 0.1 2.1 -0.2
v 0.1 2.1 -1.8
v 0.1 2.9 -0.2
v 0.1 2.9 -1.8
v 0.1 3 -0.2
v 0.1 3 -1.8
v 0.5 2.1 -0.3
v 0.5 2.1 -0.4
v 0.5 2.9 -0.3
v 0.5 2.9 -0.4
v 0.9 2.1 -0.2
v 0.9 2.1 -0.3
v 0.9 2.1 -0.4
v 0.9 2.1 -1.2
v 0.9 2.1 -1.7
v 0.9 2.1 -1.8
v 0.9 2.9 -0.2
v 0.9 2.9 -0.3
v 0.9 2.9 -0.4
v 0.9 2.9 -1.2
v 0.9 2.9 -1.7
v 0.9 2.9 -1.8
v 1.4 2.1 -0.8
v 1.4 2.1 -0.9
v 1.4 2.1 -1.1
v 1.4 2.9 -0.8
v 1.4 2.9 -0.9
v 1.4 2.9 -1.1
v 1.8 2.1 -0.2
v 1.8 2.1 -0.3
v 1.8 2.1 -0.8
v 1.8 2.1 -1.7
v 1.8 2.1 -1.8
v 1.8 2.9 -0.2
v 1.8 2.9 -0.8
v 1.8 2.9 -1.7
v 1.8 2.9 -1.8
v 0.2 2.1 -0.2
v 0.2 2.1 -0.3
v 0.2 2.1 -0.8
v 0.2 2.1 -1.7
v 0.2 2.1 -1.8
v 0.2 2.9 -0.2
v 0.2 2.9 -0.8
v 0.2 2.9 -1.7
v 0.2 2.9 -1.8
v 0.6 2.1 -0.8
v 0.6 2.1 -0.9
v 0.6 2.1 -1.2
v 0.6 2.9 -0.8
v 0.6 2.9 -0.9
v 0.6 2.9 -1.2
v 1.1 2.1 -0.2
v 1.1 2.1 -0.3
v 1.1 2.1 -1.7
v 1.1 2.1 -1.8
v 1.1 2.9 -0.2
v 1.1 2.9 -0.3
v 1.1 2.9 -1.7
v 1.1 2.9 -1.8
v 1.2 2.1 -0.4
v 1.2 2.1 -1.1
v 1.2 2.4 -0.4
v 1.2 2.7 -0.4
v 1.2 2.9 -0.4
v 1.2 2.9 -1.1
v 1.5 2.1 -0.3
v 1.5 2.1 -0.4
v 1.5 2.9 -0.3
v 1.5 2.9 -0.4
v 1.9 2.1 -0.2
v 1.9 2.1 -1.8
v 1.9 2.9 -0.2
v 1.9 2.9 -1.8
v 1.9 3 -0.2
v 1.9 3 -1.8
v 2 2 0
v 2 2 -2
v 2 2.1 0
v 2 2.1 -2
v 0 2 0
v 0 2.1 0
v 2 2 0
v 2 2.1 0
v 0.1 2.1 -0.2
v 0.1 2.9 -0.2
v 0.1 3 -0.2
v 0.2 2.1 -0.2
v 0.2 2.9 -0.2
v 0.9 2.1 -0.2
v 0.9 2.9 -0.2
v 1.1 2.1 -0.2
v 1.1 2.9 -0.2
v 1.8 2.1 -0.2
v 1.8 2.9 -0.2
v 1.9 2.1 -0.2
v 1.9 2.9 -0.2
v 1.9 3 -0.2
v 0.5 2.1 -0.3
v 0.5 2.9 -0.3
v 0.6 2.4 -0.3
v 0.6 2.7 -0.3
v 0.8 2.4 -0.3
v 0.8 2.7 -0.3
v 0.9 2.1 -0.3
v 0.9 2.9 -0.3
v 1.1 2.1 -0.3
v 1.1 2.9 -0.3
v 1.2 2.4 -0.3
v 1.2 2.7 -0.3
v 1.4 2.4 -0.3
v 1.4 2.7 -0.3
v 1.5 2.1 -0.3
v 1.5 2.9 -0.3
v 0.2 2.1 -0.8
v 0.2 2.9 -0.8
v 0.6 2.1 -0.8
v 0.6 2.9 -0.8
v 1.4 2.1 -0.8
v 1.4 2.9 -0.8
v 1.8 2.1 -0.8
v 1.8 2.9 -0.8
v 1.2 2.1 -1.1
v 1.2 2.9 -1.1
v 1.4 2.1 -1.1
v 1.4 2.9 -1.1
v 0.6 2.1 -1.2
v 0.6 2.9 -1.2
v 0.9 2.1 -1.2
v 0.9 2.9 -1.2
v 0.5 2.1 -0.4
v 0.5 2.9 -0.4
v 0.6 2.4 -0.4
v 0.6 2.7 -0.4
v 0.8 2.4 -0.4
v 0.8 2.7 -0.4
v 0.9 2.1 -0.4
v 0.9 2.9 -0.4
v 1.2 2.1 -0.4
v 1.2 2.4 -0.4
v 1.2 2.7 -0.4
v 1.2 2.9 -0.4
v 1.4 2.4 -0.4
v 1.4 2.7 -0.4
v 1.5 2.1 -0.4
v 1.5 2.9 -0.4
v 0.2 2.1 -1.7
v 0.2 2.9 -1.7
v 0.9 2.1 -1.7
v 0.9 2.9 -1.7
v 1.1 2.1 -1.7
v 1.1 2.9 -1.7
v 1.8 2.1 -1.7
v 1.8 2.9 -1.7
v 0.1 2.1 -1.8
v 0.1 2.9 -1.8
v 0.1 3 -1.8
v 0.2 2.1 -1.8
v 0.2 2.9 -1.8
v 0.9 2.1 -1.8
v 0.9 2.9 -1.8
v 1.1 2.1 -1.8
v 1.1 2.9 -1.8
v 1.8 2.1 -1.8
v 1.8 2.9 -1.8
v 1.9 2.1 -1.8
v 1.9 2.9 -1.8
v 1.9 3 -1.8
v 0 2 -2
v 0 2.1 -2
v 2 2 -2
v 2 2.1 -2
v 0 2 0
v 2 2 0
v 0.2 2 -0.3
v 0.5 2 -0.3
v 1.5 2 -0.3
v 1.8 2 -0.3
v 0.5 2 -0.4
v 0.9 2 -0.4
v 1.2 2 -0.4
v 1.5 2 -0.4
v 0.2 2 -0.8
v 0.6 2 -0.8
v 1.4 2 -0.8
v 1.8 2 -0.8
v 1.2 2 -1.1
v 1.4 2 -1.1
v 0.6 2 -1.2
v 0.9 2 -1.2
v 0 2 -2
v 2 2 -2
v 0.2 2.9 -0.2
v 0.9 2.9 -0.2
v 1.1 2.9 -0.2
v 1.8 2.9 -0.2
v 0.5 2.9 -0.3
v 0.9 2.9 -0.3
v 1.1 2.9 -0.3
v 1.5 2.9 -0.3
v 0.5 2.9 -0.4
v 0.9 2.9 -0.4
v 1.2 2.9 -0.4
v 1.5 2.9 -0.4
v 0.2 2.9 -0.8
v 0.6 2.9 -0.8
v 1.4 2.9 -0.8
v 1.8 2.9 -0.8
v 0.6 2.9 -0.9
v 1.4 2.9 -0.9
v 1.2 2.9 -1.1
v 1.4 2.9 -1.1
v 0.6 2.9 -1.2
v 0.9 2.9 -1.2
v 0.2 2.9 -1.7
v 0.9 2.9 -1.7
v 1.1 2.9 -1.7
v 1.8 2.9 -1.7
v 0.2 2.9 -1.8
v 0.9 2.9 -1.8
v 1.1 2.9 -1.8
v 1.8 2.9 -1.8
v 0 2.1 0
v 2 2.1 0
v 0.1 2.1 -0.2
v 0.2 2.1 -0.2
v 0.9 2.1 -0.2
v 1.1 2.1 -0.2
v 1.8 2.1 -0.2
v 1.9 2.1 -0.2
v 0.2 2.1 -0.3
v 0.5 2.1 -0.3
v 0.9 2.1 -0.3
v 1.1 2.1 -0.3
v 1.5 2.1 -0.3
v 1.8 2.1 -0.3
v 0.5 2.1 -0.4
v 0.9 2.1 -0.4
v 1.2 2.1 -0.4
v 1.5 2.1 -0.4
v 0.2 2.1 -0.8
v 0.6 2.1 -0.8
v 1.4 2.1 -0.8
v 1.8 2.1 -0.8
v 0.6 2.1 -0.9
v 1.4 2.1 -0.9
v 1.2 2.1 -1.1
v 1.4 2.1 -1.1
v 0.6 2.1 -1.2
v 0.9 2.1 -1.2
v 0.2 2.1 -1.7
v 0.9 2.1 -1.7
v 1.1 2.1 -1.7
v 1.8 2.1 -1.7
v 0.1 2.1 -1.8
v 0.2 2.1 -1.8
v 0.9 2.1 -1.8
v 1.1 2.1 -1.8
v 1.8 2.1 -1.8
v 1.9 2.1 -1.8
v 0 2.1 -2
v 2 2.1 -2
v 0.1 3 -0.2
v 1.9 3 -0.2
v 0.1 3 -1.8
v 1.9 3 -1.8

# faces
f 3/3/1 2/3/1 1/3/1
f 4/3/1 2/3/1 3/3/1
f 7/4/1 6/4/1 5/4/1
f 8/4/1 6/4/1 7/4/1
f 9/5/1 8/5/1 7/5/1
f 10/5/1 8/5/1 9/5/1
f 13/1/1 12/1/1 11/1/1
f 14/1/1 12/1/1 13/1/1
f 21/4/1 16/4/1 15/4/1
f 22/4/1 16/4/1 21/4/1
f 23/4/1 18/4/1 17/4/1
f 24/4/1 18/4/1 23/4/1
f 25/4/1 20/4/1 19/4/1
f 26/4/1 20/4/1 25/4/1
f 30/2/1 28/2/1 27/2/1
f 31/4/1 29/4/1 28/4/1
f 31/2/1 28/2/1 30/2/1
f 32/4/1 29/4/1 31/4/1
f 38/4/1 34/4/1 33/4/1
f 38/4/1 35/4/1 34/4/1
f 39/4/1 35/4/1 38/4/1
f 40/4/1 37/4/1 36/4/1
f 41/4/1 37/4/1 40/4/1
f 42/4/2 43/4/2 47/4/2
f 43/4/2 44/4/2 47/4/2
f 47/4/2 44/4/2 48/4/2
f 45/4/2 46/4/2 49/4/2
f 49/4/2 46/4/2 50/4/2
f 51/1/2 52/1/2 54/1/2
f 52/4/2 53/4/2 55/4/2
f 54/1/2 52/1/2 55/1/2
f 55/4/2 53/4/2 56/4/2
f 57/4/2 58/4/2 61/4/2
f 61/4/2 58/4/2 62/4/2
f 59/4/2 60/4/2 63/4/2
f 63/4/2 60/4/2 64/4/2
f 65/4/2 66/4/2 67/4/2
f 67/4/2 66/4/2 68/4/2
f 68/4/2 66/4/2 69/4/2
f 69/4/2 66/4/2 70/4/2
f 71/2/2 72/2/2 73/2/2
f 73/2/2 72/2/2 74/2/2
f 75/4/2 76/4/2 77/4/2
f 77/4/2 76/4/2 78/4/2
f 77/5/2 78/5/2 79/5/2
f 79/5/2 78/5/2 80/5/2
f 81/3/2 82/3/2 83/3/2
f 83/3/2 82/3/2 84/3/2
f 87/3/3 86/3/3 85/3/3
f 88/3/3 86/3/3 87/3/3
f 92/4/3 90/4/3 89/4/3
f 93/5/3 91/5/3 90/5/3
f 93/4/3 90/4/3 92/4/3
f 95/5/3 91/5/3 93/5/3
f 96/4/3 95/4/3 94/4/3
f 97/5/3 91/5/3 95/5/3
f 97/4/3 95/4/3 96/4/3
f 99/5/3 91/5/3 97/5/3
f 100/4/3 99/4/3 98/4/3
f 101/5/3 91/5/3 99/5/3
f 101/4/3 99/4/3 100/4/3
f 102/5/3 91/5/3 101/5/3
f 105/1/3 104/1/3 103/1/3
f 106/1/3 104/1/3 105/1/3
f 107/1/3 105/1/3 103/1/3
f 107/4/3 106/4/3 105/4/3
f 108/1/3 104/1/3 106/1/3
f 108/4/3 106/4/3 107/4/3
f 109/1/3 107/1/3 103/1/3
f 109/1/3 108/1/3 107/1/3
f 110/1/3 104/1/3 108/1/3
f 110/1/3 108/1/3 109/1/3
f 113/2/3 112/2/3 111/2/3
f 114/2/3 112/2/3 113/2/3
f 115/2/3 113/2/3 111/2/3
f 115/4/3 114/4/3 113/4/3
f 116/2/3 112/2/3 114/2/3
f 116/4/3 114/4/3 115/4/3
f 117/2/3 115/2/3 111/2/3
f 117/2/3 116/2/3 115/2/3
f 118/2/3 112/2/3 116/2/3
f 118/2/3 116/2/3 117/2/3
f 121/1/3 120/1/3 119/1/3
f 122/1/3 120/1/3 121/1/3
f 125/2/3 124/2/3 123/2/3
f 126/2/3 124/2/3 125/2/3
f 129/6/3 128/6/3 127/6/3
f 130/6/3 128/6/3 129/6/3
f 133/6/3 132/6/3 131/6/3
f 134/6/3 132/6/3 133/6/3
f 135/1/4 136/1/4 137/1/4
f 137/1/4 136/1/4 138/1/4
f 135/1/4 137/1/4 139/1/4
f 137/4/4 138/4/4 139/4/4
f 138/1/4 136/1/4 140/1/4
f 139/4/4 138/4/4 140/4/4
f 135/1/4 139/1/4 141/1/4
f 139/1/4 140/1/4 141/1/4
f 140/1/4 136/1/4 142/1/4
f 141/1/4 140/1/4 142/1/4
f 143/2/4 144/2/4 147/2/4
f 144/4/4 145/4/4 147/4/4
f 145/2/4 146/2/4 148/2/4
f 147/4/4 145/4/4 148/4/4
f 143/2/4 147/2/4 149/2/4
f 147/2/4 148/2/4 149/2/4
f 148/2/4 146/2/4 150/2/4
f 149/2/4 148/2/4 150/2/4
f 151/4/4 152/4/4 153/4/4
f 153/4/4 152/4/4 154/4/4
f 155/4/4 156/4/4 157/4/4
f 157/4/4 156/4/4 158/4/4
f 159/4/4 160/4/4 162/4/4
f 160/5/4 161/5/4 163/5/4
f 162/4/4 160/4/4 163/4/4
f 163/5/4 161/5/4 165/5/4
f 164/4/4 165/4/4 166/4/4
f 165/5/4 161/5/4 167/5/4
f 166/4/4 165/4/4 167/4/4
f 167/5/4 161/5/4 169/5/4
f 168/4/4 169/4/4 170/4/4
f 169/5/4 161/5/4 171/5/4
f 170/4/4 169/4/4 171/4/4
f 171/5/4 161/5/4 172/5/4
f 173/3/4 174/3/4 175/3/4
f 175/3/4 174/3/4 176/3/4
f 179/3/5 178/3/5 177/3/5
f 180/3/5 178/3/5 179/3/5
f 181/3/5 178/3/5 180/3/5
f 182/3/5 178/3/5 181/3/5
f 183/4/5 180/4/5 179/4/5
f 183/3/5 181/3/5 180/3/5
f 184/3/5 181/3/5 183/3/5
f 185/3/5 181/3/5 184/3/5
f 186/4/5 182/4/5 181/4/5
f 186/3/5 181/3/5 185/3/5
f 187/3/5 179/3/5 177/3/5
f 187/4/5 183/4/5 179/4/5
f 187/4/5 184/4/5 183/4/5
f 188/4/5 184/4/5 187/4/5
f 189/4/5 186/4/5 185/4/5
f 190/4/5 182/4/5 186/4/5
f 190/4/5 186/4/5 189/4/5
f 190/3/5 178/3/5 182/3/5
f 191/4/5 189/4/5 185/4/5
f 191/3/5 185/3/5 184/3/5
f 192/3/5 190/3/5 189/3/5
f 192/4/5 189/4/5 191/4/5
f 193/3/5 188/3/5 187/3/5
f 193/4/5 184/4/5 188/4/5
f 194/3/5 191/3/5 184/3/5
f 194/4/5 184/4/5 193/4/5
f 194/3/5 192/3/5 191/3/5
f 195/3/5 193/3/5 187/3/5
f 195/3/5 187/3/5 177/3/5
f 195/3/5 194/3/5 193/3/5
f 196/3/5 178/3/5 190/3/5
f 196/3/5 194/3/5 195/3/5
f 196/3/5 190/3/5 192/3/5
f 196/3/5 192/3/5 194/3/5
f 201/5/5 198/5/5 197/5/5
f 202/5/5 198/5/5 201/5/5
f 203/5/5 200/5/5 199/5/5
f 204/5/5 200/5/5 203/5/5
f 205/5/5 201/5/5 197/5/5
f 208/5/5 200/5/5 204/5/5
f 209/5/5 206/5/5 205/5/5
f 209/5/5 205/5/5 197/5/5
f 210/5/5 206/5/5 209/5/5
f 211/5/5 208/5/5 207/5/5
f 212/5/5 200/5/5 208/5/5
f 212/5/5 208/5/5 211/5/5
f 213/5/5 206/5/5 210/5/5
f 214/5/5 211/5/5 207/5/5
f 215/5/5 214/5/5 207/5/5
f 216/5/5 214/5/5 215/5/5
f 217/5/5 206/5/5 213/5/5
f 218/5/5 206/5/5 217/5/5
f 223/5/5 220/5/5 219/5/5
f 224/5/5 220/5/5 223/5/5
f 225/5/5 222/5/5 221/5/5
f 226/5/5 222/5/5 225/5/5
f 227/3/6 228/3/6 229/3/6
f 229/3/6 228/3/6 230/3/6
f 230/3/6 228/3/6 231/3/6
f 231/3/6 228/3/6 232/3/6
f 232/3/6 228/3/6 233/3/6
f 233/3/6 228/3/6 234/3/6
f 230/3/6 231/3/6 235/3/6
f 235/3/6 231/3/6 236/3/6
f 236/3/6 231/3/6 237/3/6
f 232/3/6 233/3/6 238/3/6
f 238/3/6 233/3/6 239/3/6
f 239/3/6 233/3/6 240/3/6
f 235/4/6 236/4/6 241/4/6
f 239/4/6 240/4/6 244/4/6
f 241/4/6 242/4/6 245/4/6
f 235/4/6 241/4/6 245/4/6
f 245/4/6 242/4/6 246/4/6
f 243/4/6 244/4/6 247/4/6
f 244/4/6 240/4/6 248/4/6
f 247/4/6 244/4/6 248/4/6
f 246/4/6 242/4/6 249/4/6
f 243/4/6 247/4/6 250/4/6
f 243/4/6 250/4/6 251/4/6
f 251/4/6 250/4/6 252/4/6
f 249/4/6 242/4/6 253/4/6
f 253/4/6 242/4/6 254/4/6
f 227/3/6 229/3/6 259/3/6
f 255/3/6 256/3/6 260/3/6
f 260/3/6 256/3/6 261/3/6
f 257/3/6 258/3/6 262/3/6
f 262/3/6 258/3/6 263/3/6
f 234/3/6 228/3/6 264/3/6
f 260/3/6 261/3/6 265/3/6
f 263/3/6 264/3/6 265/3/6
f 262/3/6 263/3/6 265/3/6
f 261/3/6 262/3/6 265/3/6
f 259/3/6 260/3/6 265/3/6
f 227/3/6 259/3/6 265/3/6
f 264/3/6 228/3/6 266/3/6
f 265/3/6 264/3/6 266/3/6
f 267/5/6 268/5/6 269/5/6
f 269/5/6 268/5/6 270/5/6
