# MagicaVoxel @ Ephtracy

# group
o 

# material
mtllib 40_House_01.mtl
usemtl palette

# normals
vn -1 0 0
vn 1 0 0
vn 0 0 1
vn 0 0 -1
vn 0 -1 0
vn 0 1 0

# texcoords
vt 0.0175781 0.5
vt 0.587891 0.5
vt 0.861328 0.5
vt 0.962891 0.5
vt 0.982422 0.5

# verts
v 0 3.8 0
v 0 3.8 -4
v 0 4.2 0
v 0 4.2 -0.1
v 0 4.2 -3.9
v 0 4.2 -4
v 0 4.5 -0.1
v 0 4.5 -3.9
v 0 4.6 0
v 0 4.6 -4
v 0.2 2 -0.1
v 0.2 2 -0.4
v 0.2 2 -3.6
v 0.2 2 -3.9
v 0.2 2.1 -0.1
v 0.2 2.1 -0.4
v 0.2 2.1 -3.6
v 0.2 2.1 -3.9
v 0.2 3.8 -0.1
v 0.2 3.8 -0.4
v 0.2 3.8 -3.6
v 0.2 3.8 -3.9
v 2 3.4 0
v 2 3.4 -4
v 2 3.8 0
v 2 3.8 -4
v 2 4.2 0
v 2 4.2 -0.4
v 2 4.2 -1.2
v 2 4.2 -4
v 2 4.5 0
v 2 4.5 -0.1
v 2 4.5 -3.9
v 2 4.5 -4
v 2 4.6 -0.1
v 2 4.6 -0.4
v 2 4.6 -1.2
v 2 4.6 -3.9
v 2.1 4.6 -2.3
v 2.1 4.6 -2.4
v 2.1 4.6 -2.6
v 2.1 4.6 -2.7
v 2.1 4.6 -2.9
v 2.1 4.6 -3
v 2.1 4.6 -3.2
v 2.1 4.6 -3.3
v 2.1 4.6 -3.5
v 2.1 4.6 -3.6
v 2.1 4.7 -2.3
v 2.1 4.7 -2.4
v 2.1 4.7 -2.6
v 2.1 4.7 -2.7
v 2.1 4.7 -2.9
v 2.1 4.7 -3
v 2.1 4.7 -3.2
v 2.1 4.7 -3.3
v 2.1 4.7 -3.5
v 2.1 4.7 -3.6
v 2.2 5.3 -1.3
v 2.2 5.3 -3.7
v 2.2 5.4 -1.3
v 2.2 5.4 -3.7
v 2.3 2.9 -0.3
v 2.3 2.9 -1.6
v 2.3 2.9 -2.4
v 2.3 2.9 -3.7
v 2.3 3 -0.3
v 2.3 3 -1.6
v 2.3 3 -2.4
v 2.3 3 -3.7
v 2.3 5.3 -1.2
v 2.3 5.3 -1.3
v 2.3 5.3 -3.7
v 2.3 5.3 -3.8
v 2.3 5.4 -1.2
v 2.3 5.4 -1.3
v 2.3 5.4 -3.7
v 2.3 5.4 -3.8
v 2.3 5.5 -1.3
v 2.3 5.5 -3.7
v 2.4 2.9 -0.2
v 2.4 2.9 -0.3
v 2.4 2.9 -1.6
v 2.4 2.9 -1.7
v 2.4 2.9 -2.3
v 2.4 2.9 -2.4
v 2.4 2.9 -3.7
v 2.4 2.9 -3.8
v 2.4 3 -0.2
v 2.4 3 -0.3
v 2.4 3 -1.6
v 2.4 3 -1.7
v 2.4 3 -2.3
v 2.4 3 -2.4
v 2.4 3 -3.7
v 2.4 3 -3.8
v 2.4 3.1 -0.3
v 2.4 3.1 -1.6
v 2.4 3.1 -2.4
v 2.4 3.1 -3.7
v 2.4 4.2 -0.4
v 2.4 4.2 -0.5
v 2.4 4.2 -1.1
v 2.4 4.2 -1.2
v 2.4 4.5 -0.6
v 2.4 4.5 -0.7
v 2.4 4.6 0
v 2.4 4.6 -0.4
v 2.4 4.6 -0.6
v 2.4 4.6 -0.7
v 2.4 4.6 -1.2
v 2.4 4.6 -4
v 2.4 4.9 -1.3
v 2.4 4.9 -2.3
v 2.4 4.9 -2.6
v 2.4 4.9 -3.7
v 2.4 5.2 -0.5
v 2.4 5.2 -1.1
v 2.4 5.3 -1.2
v 2.4 5.3 -1.3
v 2.4 5.3 -2.3
v 2.4 5.3 -2.6
v 2.4 5.3 -3.7
v 2.4 5.3 -3.8
v 2.4 5.4 -1.2
v 2.4 5.4 -1.3
v 2.4 5.4 -3.7
v 2.4 5.4 -3.8
v 2.4 5.5 -1.3
v 2.4 5.5 -3.7
v 2.4 6 0
v 2.4 6 -4
v 2.5 2 0
v 2.5 2 -4
v 2.5 2.5 -0.3
v 2.5 2.5 -1.6
v 2.5 2.5 -2.4
v 2.5 2.5 -3.7
v 2.5 2.9 -0.2
v 2.5 2.9 -0.3
v 2.5 2.9 -1.6
v 2.5 2.9 -1.7
v 2.5 2.9 -2.3
v 2.5 2.9 -2.4
v 2.5 2.9 -3.7
v 2.5 2.9 -3.8
v 2.5 3 -0.2
v 2.5 3 -0.3
v 2.5 3 -1.6
v 2.5 3 -1.7
v 2.5 3 -2.3
v 2.5 3 -2.4
v 2.5 3 -3.7
v 2.5 3 -3.8
v 2.5 3.1 -0.3
v 2.5 3.1 -1.6
v 2.5 3.1 -2.4
v 2.5 3.1 -3.7
v 2.5 3.4 0
v 2.5 3.4 -4
v 2.5 4.2 -0.5
v 2.5 4.2 -1.1
v 2.5 4.5 -0.6
v 2.5 4.5 -0.7
v 2.5 4.6 -0.6
v 2.5 4.6 -0.7
v 2.5 4.9 -1.3
v 2.5 4.9 -2.3
v 2.5 4.9 -2.6
v 2.5 4.9 -3.7
v 2.5 5.2 -0.5
v 2.5 5.2 -1.1
v 2.5 5.3 -1.3
v 2.5 5.3 -2.3
v 2.5 5.3 -2.6
v 2.5 5.3 -3.7
v 2.6 2.5 -0.3
v 2.6 2.5 -1.6
v 2.6 2.5 -2.4
v 2.6 2.5 -3.7
v 2.6 2.9 -0.3
v 2.6 2.9 -1.6
v 2.6 2.9 -2.4
v 2.6 2.9 -3.7
v 3.5 2.4 0
v 3.5 2.4 -0.1
v 3.5 2.5 0
v 3.5 2.5 -0.1
v 3.7 2 0
v 3.7 2 -0.1
v 3.7 3 0
v 3.7 3 -0.1
v 0.1 4.2 0
v 0.1 4.2 -0.1
v 0.1 4.2 -3.9
v 0.1 4.2 -4
v 0.1 4.5 0
v 0.1 4.5 -0.1
v 0.1 4.5 -3.9
v 0.1 4.5 -4
v 0.1 4.6 -0.1
v 0.1 4.6 -3.9
v 0.5 2 -0.1
v 0.5 2 -0.4
v 0.5 2 -3.6
v 0.5 2 -3.9
v 0.5 2.1 -0.1
v 0.5 2.1 -0.4
v 0.5 2.1 -3.6
v 0.5 2.1 -3.9
v 0.5 3.8 -0.1
v 0.5 3.8 -0.4
v 0.5 3.8 -3.6
v 0.5 3.8 -3.9
v 2.2 4.6 -2.3
v 2.2 4.6 -2.4
v 2.2 4.6 -2.6
v 2.2 4.6 -2.7
v 2.2 4.6 -2.9
v 2.2 4.6 -3
v 2.2 4.6 -3.2
v 2.2 4.6 -3.3
v 2.2 4.6 -3.5
v 2.2 4.6 -3.6
v 2.2 4.7 -2.3
v 2.2 4.7 -2.4
v 2.2 4.7 -2.6
v 2.2 4.7 -2.7
v 2.2 4.7 -2.9
v 2.2 4.7 -3
v 2.2 4.7 -3.2
v 2.2 4.7 -3.3
v 2.2 4.7 -3.5
v 2.2 4.7 -3.6
v 3.1 2 0
v 3.1 2 -0.1
v 3.1 3 0
v 3.1 3 -0.1
v 3.6 2.4 0
v 3.6 2.4 -0.1
v 3.6 2.5 0
v 3.6 2.5 -0.1
v 4 2 0
v 4 2 -4
v 4 6 0
v 4 6 -4
v 0 3.8 0
v 0 4.2 0
v 0 4.6 0
v 0.1 4.2 0
v 0.1 4.5 0
v 2 3.4 0
v 2 3.8 0
v 2 4.2 0
v 2 4.5 0
v 2 4.6 0
v 2.4 4.6 0
v 2.4 6 0
v 2.5 2 0
v 2.5 3.4 0
v 3.1 2 0
v 3.1 3 0
v 3.5 2.4 0
v 3.5 2.5 0
v 3.6 2.4 0
v 3.6 2.5 0
v 3.7 2 0
v 3.7 3 0
v 4 2 0
v 4 6 0
v 0.2 2 -0.1
v 0.2 2.1 -0.1
v 0.2 3.8 -0.1
v 0.5 2 -0.1
v 0.5 2.1 -0.1
v 0.5 3.8 -0.1
v 3.1 2 -0.1
v 3.1 3 -0.1
v 3.5 2.4 -0.1
v 3.5 2.5 -0.1
v 3.6 2.4 -0.1
v 3.6 2.5 -0.1
v 3.7 2 -0.1
v 3.7 3 -0.1
v 2.4 2.9 -0.2
v 2.4 3 -0.2
v 2.5 2.9 -0.2
v 2.5 3 -0.2
v 2.3 2.9 -0.3
v 2.3 3 -0.3
v 2.4 2.9 -0.3
v 2.4 3 -0.3
v 2.4 3.1 -0.3
v 2.5 3 -0.3
v 2.5 3.1 -0.3
v 2.4 4.5 -0.6
v 2.4 4.6 -0.6
v 2.5 4.5 -0.6
v 2.5 4.6 -0.6
v 2.4 4.2 -1.1
v 2.4 5.2 -1.1
v 2.5 4.2 -1.1
v 2.5 5.2 -1.1
v 2 4.2 -1.2
v 2 4.6 -1.2
v 2.3 5.3 -1.2
v 2.3 5.4 -1.2
v 2.4 4.2 -1.2
v 2.4 4.6 -1.2
v 2.4 5.3 -1.2
v 2.4 5.4 -1.2
v 2.2 5.3 -1.3
v 2.2 5.4 -1.3
v 2.3 5.3 -1.3
v 2.3 5.4 -1.3
v 2.3 5.5 -1.3
v 2.4 5.4 -1.3
v 2.4 5.5 -1.3
v 2.5 2.5 -1.6
v 2.5 2.9 -1.6
v 2.6 2.5 -1.6
v 2.6 2.9 -1.6
v 2.1 4.6 -2.3
v 2.1 4.7 -2.3
v 2.2 4.6 -2.3
v 2.2 4.7 -2.3
v 2.4 2.9 -2.3
v 2.4 3 -2.3
v 2.4 4.9 -2.3
v 2.4 5.3 -2.3
v 2.5 2.9 -2.3
v 2.5 3 -2.3
v 2.5 4.9 -2.3
v 2.5 5.3 -2.3
v 2.3 2.9 -2.4
v 2.3 3 -2.4
v 2.4 2.9 -2.4
v 2.4 3 -2.4
v 2.4 3.1 -2.4
v 2.5 3 -2.4
v 2.5 3.1 -2.4
v 2.1 4.6 -2.6
v 2.1 4.7 -2.6
v 2.2 4.6 -2.6
v 2.2 4.7 -2.6
v 2.1 4.6 -2.9
v 2.1 4.7 -2.9
v 2.2 4.6 -2.9
v 2.2 4.7 -2.9
v 2.1 4.6 -3.2
v 2.1 4.7 -3.2
v 2.2 4.6 -3.2
v 2.2 4.7 -3.2
v 2.1 4.6 -3.5
v 2.1 4.7 -3.5
v 2.2 4.6 -3.5
v 2.2 4.7 -3.5
v 0.2 2 -3.6
v 0.2 2.1 -3.6
v 0.2 3.8 -3.6
v 0.5 2 -3.6
v 0.5 2.1 -3.6
v 0.5 3.8 -3.6
v 2.4 4.9 -3.7
v 2.4 5.3 -3.7
v 2.5 2.5 -3.7
v 2.5 2.9 -3.7
v 2.5 4.9 -3.7
v 2.5 5.3 -3.7
v 2.6 2.5 -3.7
v 2.6 2.9 -3.7
v 0 4.2 -3.9
v 0 4.5 -3.9
v 0.1 4.2 -3.9
v 0.1 4.5 -3.9
v 0.1 4.6 -3.9
v 2 4.5 -3.9
v 2 4.6 -3.9
v 0 4.2 -0.1
v 0 4.5 -0.1
v 0.1 4.2 -0.1
v 0.1 4.5 -0.1
v 0.1 4.6 -0.1
v 2 4.5 -0.1
v 2 4.6 -0.1
v 2.5 2.5 -0.3
v 2.5 2.9 -0.3
v 2.6 2.5 -0.3
v 2.6 2.9 -0.3
v 0.2 2 -0.4
v 0.2 2.1 -0.4
v 0.2 3.8 -0.4
v 0.5 2 -0.4
v 0.5 2.1 -0.4
v 0.5 3.8 -0.4
v 2 4.2 -0.4
v 2 4.6 -0.4
v 2.4 4.2 -0.4
v 2.4 4.6 -0.4
v 2.4 4.2 -0.5
v 2.4 5.2 -0.5
v 2.5 4.2 -0.5
v 2.5 5.2 -0.5
v 2.4 4.5 -0.7
v 2.4 4.6 -0.7
v 2.5 4.5 -0.7
v 2.5 4.6 -0.7
v 2.4 4.9 -1.3
v 2.4 5.3 -1.3
v 2.5 4.9 -1.3
v 2.5 5.3 -1.3
v 2.3 2.9 -1.6
v 2.3 3 -1.6
v 2.4 2.9 -1.6
v 2.4 3 -1.6
v 2.4 3.1 -1.6
v 2.5 3 -1.6
v 2.5 3.1 -1.6
v 2.4 2.9 -1.7
v 2.4 3 -1.7
v 2.5 2.9 -1.7
v 2.5 3 -1.7
v 2.1 4.6 -2.4
v 2.1 4.7 -2.4
v 2.2 4.6 -2.4
v 2.2 4.7 -2.4
v 2.5 2.5 -2.4
v 2.5 2.9 -2.4
v 2.6 2.5 -2.4
v 2.6 2.9 -2.4
v 2.4 4.9 -2.6
v 2.4 5.3 -2.6
v 2.5 4.9 -2.6
v 2.5 5.3 -2.6
v 2.1 4.6 -2.7
v 2.1 4.7 -2.7
v 2.2 4.6 -2.7
v 2.2 4.7 -2.7
v 2.1 4.6 -3
v 2.1 4.7 -3
v 2.2 4.6 -3
v 2.2 4.7 -3
v 2.1 4.6 -3.3
v 2.1 4.7 -3.3
v 2.2 4.6 -3.3
v 2.2 4.7 -3.3
v 2.1 4.6 -3.6
v 2.1 4.7 -3.6
v 2.2 4.6 -3.6
v 2.2 4.7 -3.6
v 2.2 5.3 -3.7
v 2.2 5.4 -3.7
v 2.3 2.9 -3.7
v 2.3 3 -3.7
v 2.3 5.3 -3.7
v 2.3 5.4 -3.7
v 2.3 5.5 -3.7
v 2.4 2.9 -3.7
v 2.4 3 -3.7
v 2.4 3.1 -3.7
v 2.4 5.4 -3.7
v 2.4 5.5 -3.7
v 2.5 3 -3.7
v 2.5 3.1 -3.7
v 2.3 5.3 -3.8
v 2.3 5.4 -3.8
v 2.4 2.9 -3.8
v 2.4 3 -3.8
v 2.4 5.3 -3.8
v 2.4 5.4 -3.8
v 2.5 2.9 -3.8
v 2.5 3 -3.8
v 0.2 2 -3.9
v 0.2 2.1 -3.9
v 0.2 3.8 -3.9
v 0.5 2 -3.9
v 0.5 2.1 -3.9
v 0.5 3.8 -3.9
v 0 3.8 -4
v 0 4.2 -4
v 0 4.6 -4
v 0.1 4.2 -4
v 0.1 4.5 -4
v 2 3.4 -4
v 2 3.8 -4
v 2 4.2 -4
v 2 4.5 -4
v 2 4.6 -4
v 2.4 4.6 -4
v 2.4 6 -4
v 2.5 2 -4
v 2.5 3.4 -4
v 4 2 -4
v 4 6 -4
v 2.5 2 0
v 3.1 2 0
v 3.7 2 0
v 4 2 0
v 0.2 2 -0.1
v 0.5 2 -0.1
v 3.1 2 -0.1
v 3.7 2 -0.1
v 3.1 2 -0.2
v 3.7 2 -0.2
v 0.2 2 -0.4
v 0.5 2 -0.4
v 0.2 2 -3.6
v 0.5 2 -3.6
v 0.2 2 -3.9
v 0.5 2 -3.9
v 2.5 2 -4
v 4 2 -4
v 3.5 2.4 0
v 3.6 2.4 0
v 3.5 2.4 -0.1
v 3.6 2.4 -0.1
v 2.4 2.9 -0.2
v 2.5 2.9 -0.2
v 2.3 2.9 -0.3
v 2.4 2.9 -0.3
v 2.5 2.9 -0.3
v 2.6 2.9 -0.3
v 2.3 2.9 -1.6
v 2.4 2.9 -1.6
v 2.5 2.9 -1.6
v 2.6 2.9 -1.6
v 2.4 2.9 -1.7
v 2.5 2.9 -1.7
v 2.4 2.9 -2.3
v 2.5 2.9 -2.3
v 2.3 2.9 -2.4
v 2.4 2.9 -2.4
v 2.5 2.9 -2.4
v 2.6 2.9 -2.4
v 2.3 2.9 -3.7
v 2.4 2.9 -3.7
v 2.5 2.9 -3.7
v 2.6 2.9 -3.7
v 2.4 2.9 -3.8
v 2.5 2.9 -3.8
v 3.1 3 0
v 3.7 3 0
v 3.1 3 -0.1
v 3.7 3 -0.1
v 2 3.4 0
v 2.5 3.4 0
v 2 3.4 -4
v 2.5 3.4 -4
v 0 3.8 0
v 2 3.8 0
v 0.2 3.8 -0.1
v 0.5 3.8 -0.1
v 0.2 3.8 -0.4
v 0.5 3.8 -0.4
v 0.2 3.8 -3.6
v 0.5 3.8 -3.6
v 0.2 3.8 -3.9
v 0.5 3.8 -3.9
v 0 3.8 -4
v 2 3.8 -4
v 0.1 4.5 0
v 2 4.5 0
v 0 4.5 -0.1
v 0.1 4.5 -0.1
v 2 4.5 -0.1
v 2.4 4.5 -0.6
v 2.5 4.5 -0.6
v 2.4 4.5 -0.7
v 2.5 4.5 -0.7
v 0 4.5 -3.9
v 0.1 4.5 -3.9
v 2 4.5 -3.9
v 0.1 4.5 -4
v 2 4.5 -4
v 2.4 5.2 -0.5
v 2.5 5.2 -0.5
v 2.4 5.2 -1.1
v 2.5 5.2 -1.1
v 2.3 5.3 -1.2
v 2.4 5.3 -1.2
v 2.2 5.3 -1.3
v 2.3 5.3 -1.3
v 2.4 5.3 -1.3
v 2.5 5.3 -1.3
v 2.4 5.3 -2.3
v 2.5 5.3 -2.3
v 2.4 5.3 -2.6
v 2.5 5.3 -2.6
v 2.2 5.3 -3.7
v 2.3 5.3 -3.7
v 2.4 5.3 -3.7
v 2.5 5.3 -3.7
v 2.3 5.3 -3.8
v 2.4 5.3 -3.8
v 3.5 2.5 0
v 3.6 2.5 0
v 3.5 2.5 -0.1
v 3.6 2.5 -0.1
v 2.5 2.5 -0.3
v 2.6 2.5 -0.3
v 2.5 2.5 -1.6
v 2.6 2.5 -1.6
v 2.5 2.5 -2.4
v 2.6 2.5 -2.4
v 2.5 2.5 -3.7
v 2.6 2.5 -3.7
v 2.4 3 -0.2
v 2.5 3 -0.2
v 2.3 3 -0.3
v 2.4 3 -0.3
v 2.5 3 -0.3
v 2.3 3 -1.6
v 2.4 3 -1.6
v 2.5 3 -1.6
v 2.4 3 -1.7
v 2.5 3 -1.7
v 2.4 3 -2.3
v 2.5 3 -2.3
v 2.3 3 -2.4
v 2.4 3 -2.4
v 2.5 3 -2.4
v 2.3 3 -3.7
v 2.4 3 -3.7
v 2.5 3 -3.7
v 2.4 3 -3.8
v 2.5 3 -3.8
v 2.4 3.1 -0.3
v 2.5 3.1 -0.3
v 2.4 3.1 -1.6
v 2.5 3.1 -1.6
v 2.4 3.1 -2.4
v 2.5 3.1 -2.4
v 2.4 3.1 -3.7
v 2.5 3.1 -3.7
v 0.1 4.2 0
v 2 4.2 0
v 0 4.2 -0.1
v 0.1 4.2 -0.1
v 2 4.2 -0.4
v 2.4 4.2 -0.4
v 2.4 4.2 -0.5
v 2.5 4.2 -0.5
v 2.4 4.2 -1.1
v 2.5 4.2 -1.1
v 2 4.2 -1.2
v 2.4 4.2 -1.2
v 0 4.2 -3.9
v 0.1 4.2 -3.9
v 0.1 4.2 -4
v 2 4.2 -4
v 0 4.6 0
v 2 4.6 0
v 2.4 4.6 0
v 0.1 4.6 -0.1
v 2 4.6 -0.1
v 2 4.6 -0.4
v 2.4 4.6 -0.4
v 2.4 4.6 -0.6
v 2.5 4.6 -0.6
v 2.4 4.6 -0.7
v 2.5 4.6 -0.7
v 2 4.6 -1.2
v 2.4 4.6 -1.2
v 2.1 4.6 -2.3
v 2.2 4.6 -2.3
v 2.1 4.6 -2.4
v 2.2 4.6 -2.4
v 2.1 4.6 -2.6
v 2.2 4.6 -2.6
v 2.1 4.6 -2.7
v 2.2 4.6 -2.7
v 2.1 4.6 -2.9
v 2.2 4.6 -2.9
v 2.1 4.6 -3
v 2.2 4.6 -3
v 2.1 4.6 -3.2
v 2.2 4.6 -3.2
v 2.1 4.6 -3.3
v 2.2 4.6 -3.3
v 2.1 4.6 -3.5
v 2.2 4.6 -3.5
v 2.1 4.6 -3.6
v 2.2 4.6 -3.6
v 0.1 4.6 -3.9
v 2 4.6 -3.9
v 0 4.6 -4
v 2 4.6 -4
v 2.4 4.6 -4
v 2.1 4.7 -2.3
v 2.2 4.7 -2.3
v 2.1 4.7 -2.4
v 2.2 4.7 -2.4
v 2.1 4.7 -2.6
v 2.2 4.7 -2.6
v 2.1 4.7 -2.7
v 2.2 4.7 -2.7
v 2.1 4.7 -2.9
v 2.2 4.7 -2.9
v 2.1 4.7 -3
v 2.2 4.7 -3
v 2.1 4.7 -3.2
v 2.2 4.7 -3.2
v 2.1 4.7 -3.3
v 2.2 4.7 -3.3
v 2.1 4.7 -3.5
v 2.2 4.7 -3.5
v 2.1 4.7 -3.6
v 2.2 4.7 -3.6
v 2.4 4.9 -1.3
v 2.5 4.9 -1.3
v 2.4 4.9 -2.3
v 2.5 4.9 -2.3
v 2.4 4.9 -2.6
v 2.5 4.9 -2.6
v 2.4 4.9 -3.7
v 2.5 4.9 -3.7
v 2.3 5.4 -1.2
v 2.4 5.4 -1.2
v 2.2 5.4 -1.3
v 2.3 5.4 -1.3
v 2.4 5.4 -1.3
v 2.2 5.4 -3.7
v 2.3 5.4 -3.7
v 2.4 5.4 -3.7
v 2.3 5.4 -3.8
v 2.4 5.4 -3.8
v 2.3 5.5 -1.3
v 2.4 5.5 -1.3
v 2.3 5.5 -3.7
v 2.4 5.5 -3.7
v 2.4 6 0
v 4 6 0
v 2.4 6 -4
v 4 6 -4

# faces
f 3/4/1 2/4/1 1/4/1
f 4/4/1 2/4/1 3/4/1
f 5/4/1 2/4/1 4/4/1
f 6/4/1 2/4/1 5/4/1
f 7/5/1 4/5/1 3/5/1
f 8/5/1 6/5/1 5/5/1
f 9/5/1 7/5/1 3/5/1
f 9/5/1 8/5/1 7/5/1
f 10/5/1 6/5/1 8/5/1
f 10/5/1 8/5/1 9/5/1
f 15/4/1 12/4/1 11/4/1
f 16/4/1 12/4/1 15/4/1
f 17/4/1 14/4/1 13/4/1
f 18/4/1 14/4/1 17/4/1
f 19/5/1 16/5/1 15/5/1
f 20/5/1 16/5/1 19/5/1
f 21/5/1 18/5/1 17/5/1
f 22/5/1 18/5/1 21/5/1
f 25/4/1 24/4/1 23/4/1
f 26/4/1 24/4/1 25/4/1
f 31/4/1 28/4/1 27/4/1
f 32/4/1 28/4/1 31/4/1
f 33/4/1 30/4/1 29/4/1
f 34/4/1 30/4/1 33/4/1
f 35/4/1 28/4/1 32/4/1
f 36/4/1 28/4/1 35/4/1
f 37/4/1 33/4/1 29/4/1
f 38/4/1 33/4/1 37/4/1
f 49/3/1 40/3/1 39/3/1
f 50/3/1 40/3/1 49/3/1
f 51/3/1 42/3/1 41/3/1
f 52/3/1 42/3/1 51/3/1
f 53/3/1 44/3/1 43/3/1
f 54/3/1 44/3/1 53/3/1
f 55/3/1 46/3/1 45/3/1
f 56/3/1 46/3/1 55/3/1
f 57/3/1 48/3/1 47/3/1
f 58/3/1 48/3/1 57/3/1
f 61/5/1 60/5/1 59/5/1
f 62/5/1 60/5/1 61/5/1
f 67/5/1 64/5/1 63/5/1
f 68/5/1 64/5/1 67/5/1
f 69/5/1 66/5/1 65/5/1
f 70/5/1 66/5/1 69/5/1
f 75/5/1 72/5/1 71/5/1
f 76/5/1 72/5/1 75/5/1
f 77/5/1 74/5/1 73/5/1
f 78/5/1 74/5/1 77/5/1
f 79/5/1 77/5/1 76/5/1
f 80/5/1 77/5/1 79/5/1
f 89/5/1 82/5/1 81/5/1
f 90/5/1 82/5/1 89/5/1
f 91/5/1 84/5/1 83/5/1
f 92/5/1 84/5/1 91/5/1
f 93/5/1 86/5/1 85/5/1
f 94/5/1 86/5/1 93/5/1
f 95/5/1 88/5/1 87/5/1
f 96/5/1 88/5/1 95/5/1
f 97/5/1 91/5/1 90/5/1
f 98/5/1 91/5/1 97/5/1
f 99/5/1 95/5/1 94/5/1
f 100/5/1 95/5/1 99/5/1
f 108/4/1 102/4/1 101/4/1
f 109/1/1 106/1/1 105/1/1
f 110/1/1 106/1/1 109/1/1
f 111/4/1 104/4/1 103/4/1
f 113/4/1 112/4/1 111/4/1
f 114/4/1 112/4/1 113/4/1
f 115/4/1 112/4/1 114/4/1
f 116/4/1 112/4/1 115/4/1
f 117/4/1 108/4/1 107/4/1
f 117/4/1 102/4/1 108/4/1
f 118/4/1 111/4/1 103/4/1
f 118/4/1 113/4/1 111/4/1
f 119/4/1 113/4/1 118/4/1
f 119/4/1 118/4/1 117/4/1
f 120/4/1 113/4/1 119/4/1
f 121/4/1 115/4/1 114/4/1
f 122/4/1 115/4/1 121/4/1
f 123/4/1 112/4/1 116/4/1
f 124/4/1 112/4/1 123/4/1
f 125/4/1 119/4/1 117/4/1
f 128/4/1 112/4/1 124/4/1
f 129/4/1 126/4/1 125/4/1
f 130/4/1 128/4/1 127/4/1
f 131/4/1 117/4/1 107/4/1
f 131/4/1 130/4/1 129/4/1
f 131/4/1 129/4/1 125/4/1
f 131/4/1 125/4/1 117/4/1
f 132/4/1 128/4/1 130/4/1
f 132/4/1 130/4/1 131/4/1
f 132/4/1 112/4/1 128/4/1
f 135/4/1 134/4/1 133/4/1
f 136/4/1 134/4/1 135/4/1
f 137/4/1 134/4/1 136/4/1
f 138/4/1 134/4/1 137/4/1
f 139/4/1 135/4/1 133/4/1
f 140/4/1 135/4/1 139/4/1
f 141/4/1 137/4/1 136/4/1
f 142/4/1 137/4/1 141/4/1
f 143/4/1 137/4/1 142/4/1
f 144/4/1 137/4/1 143/4/1
f 145/4/1 134/4/1 138/4/1
f 146/4/1 134/4/1 145/4/1
f 147/4/1 139/4/1 133/4/1
f 150/4/1 143/4/1 142/4/1
f 151/4/1 143/4/1 150/4/1
f 154/4/1 134/4/1 146/4/1
f 155/4/1 148/4/1 147/4/1
f 156/4/1 152/4/1 151/4/1
f 156/4/1 150/4/1 149/4/1
f 156/4/1 151/4/1 150/4/1
f 157/4/1 152/4/1 156/4/1
f 158/4/1 154/4/1 153/4/1
f 159/4/1 155/4/1 147/4/1
f 159/4/1 158/4/1 157/4/1
f 159/4/1 157/4/1 156/4/1
f 159/4/1 147/4/1 133/4/1
f 159/4/1 156/4/1 155/4/1
f 160/4/1 154/4/1 158/4/1
f 160/4/1 158/4/1 159/4/1
f 160/4/1 134/4/1 154/4/1
f 163/3/1 162/3/1 161/3/1
f 164/3/1 162/3/1 163/3/1
f 165/3/1 163/3/1 161/3/1
f 166/3/1 162/3/1 164/3/1
f 171/3/1 165/3/1 161/3/1
f 171/3/1 166/3/1 165/3/1
f 172/3/1 162/3/1 166/3/1
f 172/3/1 166/3/1 171/3/1
f 173/2/1 168/2/1 167/2/1
f 174/2/1 168/2/1 173/2/1
f 175/2/1 170/2/1 169/2/1
f 176/2/1 170/2/1 175/2/1
f 181/2/1 178/2/1 177/2/1
f 182/2/1 178/2/1 181/2/1
f 183/2/1 180/2/1 179/2/1
f 184/2/1 180/2/1 183/2/1
f 187/1/1 186/1/1 185/1/1
f 188/1/1 186/1/1 187/1/1
f 191/4/1 190/4/1 189/4/1
f 192/4/1 190/4/1 191/4/1
f 193/5/2 194/5/2 197/5/2
f 197/5/2 194/5/2 198/5/2
f 195/5/2 196/5/2 199/5/2
f 199/5/2 196/5/2 200/5/2
f 198/5/2 199/5/2 201/5/2
f 201/5/2 199/5/2 202/5/2
f 203/4/2 204/4/2 207/4/2
f 207/4/2 204/4/2 208/4/2
f 205/4/2 206/4/2 209/4/2
f 209/4/2 206/4/2 210/4/2
f 207/5/2 208/5/2 211/5/2
f 211/5/2 208/5/2 212/5/2
f 209/5/2 210/5/2 213/5/2
f 213/5/2 210/5/2 214/5/2
f 215/3/2 216/3/2 225/3/2
f 225/3/2 216/3/2 226/3/2
f 217/3/2 218/3/2 227/3/2
f 227/3/2 218/3/2 228/3/2
f 219/3/2 220/3/2 229/3/2
f 229/3/2 220/3/2 230/3/2
f 221/3/2 222/3/2 231/3/2
f 231/3/2 222/3/2 232/3/2
f 223/3/2 224/3/2 233/3/2
f 233/3/2 224/3/2 234/3/2
f 235/4/2 236/4/2 237/4/2
f 237/4/2 236/4/2 238/4/2
f 239/1/2 240/1/2 241/1/2
f 241/1/2 240/1/2 242/1/2
f 243/4/2 244/4/2 245/4/2
f 245/4/2 244/4/2 246/4/2
f 250/4/3 248/4/3 247/4/3
f 250/5/3 249/5/3 248/5/3
f 251/5/3 249/5/3 250/5/3
f 253/4/3 250/4/3 247/4/3
f 254/4/3 250/4/3 253/4/3
f 255/5/3 249/5/3 251/5/3
f 256/5/3 249/5/3 255/5/3
f 257/4/3 254/4/3 253/4/3
f 257/4/3 253/4/3 252/4/3
f 257/4/3 256/4/3 255/4/3
f 257/4/3 255/4/3 254/4/3
f 260/4/3 257/4/3 252/4/3
f 260/4/3 258/4/3 257/4/3
f 261/4/3 260/4/3 259/4/3
f 262/4/3 260/4/3 261/4/3
f 265/1/3 264/1/3 263/1/3
f 266/1/3 264/1/3 265/1/3
f 268/4/3 260/4/3 262/4/3
f 269/4/3 268/4/3 267/4/3
f 270/4/3 258/4/3 260/4/3
f 270/4/3 268/4/3 269/4/3
f 270/4/3 260/4/3 268/4/3
f 274/4/3 272/4/3 271/4/3
f 275/5/3 273/5/3 272/5/3
f 275/4/3 272/4/3 274/4/3
f 276/5/3 273/5/3 275/5/3
f 279/3/3 278/3/3 277/3/3
f 280/3/3 278/3/3 279/3/3
f 281/3/3 279/3/3 277/3/3
f 282/3/3 278/3/3 280/3/3
f 283/3/3 281/3/3 277/3/3
f 283/3/3 282/3/3 281/3/3
f 284/3/3 278/3/3 282/3/3
f 284/3/3 282/3/3 283/3/3
f 287/5/3 286/5/3 285/5/3
f 288/5/3 286/5/3 287/5/3
f 291/5/3 290/5/3 289/5/3
f 292/5/3 290/5/3 291/5/3
f 294/5/3 293/5/3 292/5/3
f 295/5/3 293/5/3 294/5/3
f 298/1/3 297/1/3 296/1/3
f 299/1/3 297/1/3 298/1/3
f 302/4/3 301/4/3 300/4/3
f 303/4/3 301/4/3 302/4/3
f 308/4/3 305/4/3 304/4/3
f 309/4/3 305/4/3 308/4/3
f 310/5/3 307/5/3 306/5/3
f 311/5/3 307/5/3 310/5/3
f 314/5/3 313/5/3 312/5/3
f 315/5/3 313/5/3 314/5/3
f 317/5/3 316/5/3 315/5/3
f 318/5/3 316/5/3 317/5/3
f 321/4/3 320/4/3 319/4/3
f 322/4/3 320/4/3 321/4/3
f 325/3/3 324/3/3 323/3/3
f 326/3/3 324/3/3 325/3/3
f 331/5/3 328/5/3 327/5/3
f 332/5/3 328/5/3 331/5/3
f 333/4/3 330/4/3 329/4/3
f 334/4/3 330/4/3 333/4/3
f 337/5/3 336/5/3 335/5/3
f 338/5/3 336/5/3 337/5/3
f 340/5/3 339/5/3 338/5/3
f 341/5/3 339/5/3 340/5/3
f 344/3/3 343/3/3 342/3/3
f 345/3/3 343/3/3 344/3/3
f 348/3/3 347/3/3 346/3/3
f 349/3/3 347/3/3 348/3/3
f 352/3/3 351/3/3 350/3/3
f 353/3/3 351/3/3 352/3/3
f 356/3/3 355/3/3 354/3/3
f 357/3/3 355/3/3 356/3/3
f 361/4/3 359/4/3 358/4/3
f 362/5/3 360/5/3 359/5/3
f 362/4/3 359/4/3 361/4/3
f 363/5/3 360/5/3 362/5/3
f 368/4/3 365/4/3 364/4/3
f 369/4/3 365/4/3 368/4/3
f 370/4/3 367/4/3 366/4/3
f 371/4/3 367/4/3 370/4/3
f 374/5/3 373/5/3 372/5/3
f 375/5/3 373/5/3 374/5/3
f 377/5/3 376/5/3 375/5/3
f 378/5/3 376/5/3 377/5/3
f 379/5/4 380/5/4 381/5/4
f 381/5/4 380/5/4 382/5/4
f 382/5/4 383/5/4 384/5/4
f 384/5/4 383/5/4 385/5/4
f 386/4/4 387/4/4 388/4/4
f 388/4/4 387/4/4 389/4/4
f 390/4/4 391/4/4 393/4/4
f 391/5/4 392/5/4 394/5/4
f 393/4/4 391/4/4 394/4/4
f 394/5/4 392/5/4 395/5/4
f 396/4/4 397/4/4 398/4/4
f 398/4/4 397/4/4 399/4/4
f 400/4/4 401/4/4 402/4/4
f 402/4/4 401/4/4 403/4/4
f 404/1/4 405/1/4 406/1/4
f 406/1/4 405/1/4 407/1/4
f 408/4/4 409/4/4 410/4/4
f 410/4/4 409/4/4 411/4/4
f 412/5/4 413/5/4 414/5/4
f 414/5/4 413/5/4 415/5/4
f 415/5/4 416/5/4 417/5/4
f 417/5/4 416/5/4 418/5/4
f 419/5/4 420/5/4 421/5/4
f 421/5/4 420/5/4 422/5/4
f 423/3/4 424/3/4 425/3/4
f 425/3/4 424/3/4 426/3/4
f 427/4/4 428/4/4 429/4/4
f 429/4/4 428/4/4 430/4/4
f 431/4/4 432/4/4 433/4/4
f 433/4/4 432/4/4 434/4/4
f 435/3/4 436/3/4 437/3/4
f 437/3/4 436/3/4 438/3/4
f 439/3/4 440/3/4 441/3/4
f 441/3/4 440/3/4 442/3/4
f 443/3/4 444/3/4 445/3/4
f 445/3/4 444/3/4 446/3/4
f 447/3/4 448/3/4 449/3/4
f 449/3/4 448/3/4 450/3/4
f 451/5/4 452/5/4 455/5/4
f 455/5/4 452/5/4 456/5/4
f 453/5/4 454/5/4 458/5/4
f 458/5/4 454/5/4 459/5/4
f 456/5/4 457/5/4 461/5/4
f 461/5/4 457/5/4 462/5/4
f 459/5/4 460/5/4 463/5/4
f 463/5/4 460/5/4 464/5/4
f 465/5/4 466/5/4 469/5/4
f 469/5/4 466/5/4 470/5/4
f 467/5/4 468/5/4 471/5/4
f 471/5/4 468/5/4 472/5/4
f 473/4/4 474/4/4 476/4/4
f 474/5/4 475/5/4 477/5/4
f 476/4/4 474/4/4 477/4/4
f 477/5/4 475/5/4 478/5/4
f 479/4/4 480/4/4 482/4/4
f 480/5/4 481/5/4 482/5/4
f 482/5/4 481/5/4 483/5/4
f 479/4/4 482/4/4 485/4/4
f 485/4/4 482/4/4 486/4/4
f 483/5/4 481/5/4 487/5/4
f 487/5/4 481/5/4 488/5/4
f 485/4/4 486/4/4 489/4/4
f 484/4/4 485/4/4 489/4/4
f 487/4/4 488/4/4 489/4/4
f 486/4/4 487/4/4 489/4/4
f 484/4/4 489/4/4 492/4/4
f 489/4/4 490/4/4 492/4/4
f 491/4/4 492/4/4 493/4/4
f 492/4/4 490/4/4 494/4/4
f 493/4/4 492/4/4 494/4/4
f 501/4/5 496/4/5 495/4/5
f 502/4/5 498/4/5 497/4/5
f 503/4/5 501/4/5 495/4/5
f 503/3/5 502/3/5 501/3/5
f 504/4/5 498/4/5 502/4/5
f 504/3/5 502/3/5 503/3/5
f 505/4/5 500/4/5 499/4/5
f 506/4/5 500/4/5 505/4/5
f 509/4/5 508/4/5 507/4/5
f 510/4/5 508/4/5 509/4/5
f 511/4/5 503/4/5 495/4/5
f 511/4/5 504/4/5 503/4/5
f 512/4/5 498/4/5 504/4/5
f 512/4/5 504/4/5 511/4/5
f 515/1/5 514/1/5 513/1/5
f 516/1/5 514/1/5 515/1/5
f 520/5/5 518/5/5 517/5/5
f 521/5/5 518/5/5 520/5/5
f 523/5/5 520/5/5 519/5/5
f 523/5/5 521/5/5 520/5/5
f 524/5/5 521/5/5 523/5/5
f 525/4/5 522/4/5 521/4/5
f 525/5/5 521/5/5 524/5/5
f 526/4/5 522/4/5 525/4/5
f 527/5/5 525/5/5 524/5/5
f 528/5/5 525/5/5 527/5/5
f 532/5/5 530/5/5 529/5/5
f 533/5/5 530/5/5 532/5/5
f 535/5/5 533/5/5 532/5/5
f 535/5/5 532/5/5 531/5/5
f 536/5/5 533/5/5 535/5/5
f 537/4/5 534/4/5 533/4/5
f 537/5/5 533/5/5 536/5/5
f 538/4/5 534/4/5 537/4/5
f 539/5/5 537/5/5 536/5/5
f 540/5/5 537/5/5 539/5/5
f 543/4/5 542/4/5 541/4/5
f 544/4/5 542/4/5 543/4/5
f 547/4/5 546/4/5 545/4/5
f 548/4/5 546/4/5 547/4/5
f 551/4/5 550/4/5 549/4/5
f 552/4/5 550/4/5 551/4/5
f 553/4/5 551/4/5 549/4/5
f 554/4/5 550/4/5 552/4/5
f 555/4/5 553/4/5 549/4/5
f 555/4/5 554/4/5 553/4/5
f 556/4/5 550/4/5 554/4/5
f 556/4/5 554/4/5 555/4/5
f 557/4/5 555/4/5 549/4/5
f 558/4/5 550/4/5 556/4/5
f 559/4/5 557/4/5 549/4/5
f 559/4/5 558/4/5 557/4/5
f 560/4/5 550/4/5 558/4/5
f 560/4/5 558/4/5 559/4/5
f 564/5/5 562/5/5 561/5/5
f 565/5/5 562/5/5 564/5/5
f 568/1/5 567/1/5 566/1/5
f 569/1/5 567/1/5 568/1/5
f 570/5/5 564/5/5 563/5/5
f 571/5/5 564/5/5 570/5/5
f 573/5/5 572/5/5 571/5/5
f 574/5/5 572/5/5 573/5/5
f 577/4/5 576/4/5 575/4/5
f 578/4/5 576/4/5 577/4/5
f 582/5/5 580/5/5 579/5/5
f 583/5/5 580/5/5 582/5/5
f 585/5/5 582/5/5 581/5/5
f 585/4/5 584/4/5 583/4/5
f 585/5/5 583/5/5 582/5/5
f 586/4/5 584/4/5 585/4/5
f 587/5/5 585/5/5 581/5/5
f 589/5/5 587/5/5 581/5/5
f 590/5/5 587/5/5 589/5/5
f 591/4/5 588/4/5 587/4/5
f 591/5/5 587/5/5 590/5/5
f 592/4/5 588/4/5 591/4/5
f 593/5/5 591/5/5 590/5/5
f 594/5/5 591/5/5 593/5/5
f 595/1/6 596/1/6 597/1/6
f 597/1/6 596/1/6 598/1/6
f 599/4/6 600/4/6 601/4/6
f 601/4/6 600/4/6 602/4/6
f 603/4/6 604/4/6 605/4/6
f 605/4/6 604/4/6 606/4/6
f 607/5/6 608/5/6 610/5/6
f 610/5/6 608/5/6 611/5/6
f 609/5/6 610/5/6 612/5/6
f 612/5/6 610/5/6 613/5/6
f 613/5/6 614/5/6 615/5/6
f 615/5/6 614/5/6 616/5/6
f 617/5/6 618/5/6 620/5/6
f 620/5/6 618/5/6 621/5/6
f 619/5/6 620/5/6 622/5/6
f 622/5/6 620/5/6 623/5/6
f 623/5/6 624/5/6 625/5/6
f 625/5/6 624/5/6 626/5/6
f 627/5/6 628/5/6 629/5/6
f 629/5/6 628/5/6 630/5/6
f 631/5/6 632/5/6 633/5/6
f 633/5/6 632/5/6 634/5/6
f 635/4/6 636/4/6 638/4/6
f 638/4/6 636/4/6 639/4/6
f 637/4/6 638/4/6 639/4/6
f 639/4/6 640/4/6 641/4/6
f 639/4/6 641/4/6 643/4/6
f 641/4/6 642/4/6 643/4/6
f 643/4/6 642/4/6 644/4/6
f 637/4/6 639/4/6 645/4/6
f 639/4/6 643/4/6 645/4/6
f 645/4/6 643/4/6 646/4/6
f 637/4/6 645/4/6 647/4/6
f 647/4/6 645/4/6 648/4/6
f 648/4/6 645/4/6 649/4/6
f 649/4/6 645/4/6 650/4/6
f 651/5/6 652/5/6 654/5/6
f 652/4/6 653/4/6 655/4/6
f 654/5/6 652/5/6 655/5/6
f 655/4/6 653/4/6 656/4/6
f 656/4/6 653/4/6 657/4/6
f 658/1/6 659/1/6 660/1/6
f 660/1/6 659/1/6 661/1/6
f 662/4/6 663/4/6 664/4/6
f 664/4/6 663/4/6 665/4/6
f 662/4/6 664/4/6 666/4/6
f 665/4/6 663/4/6 667/4/6
f 662/4/6 666/4/6 668/4/6
f 666/4/6 667/4/6 668/4/6
f 667/4/6 663/4/6 669/4/6
f 668/4/6 667/4/6 669/4/6
f 662/4/6 668/4/6 670/4/6
f 669/4/6 663/4/6 671/4/6
f 662/4/6 670/4/6 672/4/6
f 670/4/6 671/4/6 672/4/6
f 671/4/6 663/4/6 673/4/6
f 672/4/6 671/4/6 673/4/6
f 662/4/6 672/4/6 674/4/6
f 673/4/6 663/4/6 675/4/6
f 662/4/6 674/4/6 676/4/6
f 674/4/6 675/4/6 676/4/6
f 675/4/6 663/4/6 677/4/6
f 676/4/6 675/4/6 677/4/6
f 662/4/6 676/4/6 678/4/6
f 677/4/6 663/4/6 679/4/6
f 662/4/6 678/4/6 680/4/6
f 678/4/6 679/4/6 680/4/6
f 679/4/6 663/4/6 681/4/6
f 680/4/6 679/4/6 681/4/6
f 662/4/6 680/4/6 682/4/6
f 681/4/6 663/4/6 683/4/6
f 651/5/6 654/5/6 684/5/6
f 682/4/6 683/4/6 685/4/6
f 662/4/6 682/4/6 685/4/6
f 651/5/6 684/5/6 686/5/6
f 684/5/6 685/5/6 686/5/6
f 685/4/6 683/4/6 687/4/6
f 686/5/6 685/5/6 687/5/6
f 683/4/6 663/4/6 688/4/6
f 687/4/6 683/4/6 688/4/6
f 689/3/6 690/3/6 691/3/6
f 691/3/6 690/3/6 692/3/6
f 693/3/6 694/3/6 695/3/6
f 695/3/6 694/3/6 696/3/6
f 697/3/6 698/3/6 699/3/6
f 699/3/6 698/3/6 700/3/6
f 701/3/6 702/3/6 703/3/6
f 703/3/6 702/3/6 704/3/6
f 705/3/6 706/3/6 707/3/6
f 707/3/6 706/3/6 708/3/6
f 709/4/6 710/4/6 711/4/6
f 711/4/6 710/4/6 712/4/6
f 713/4/6 714/4/6 715/4/6
f 715/4/6 714/4/6 716/4/6
f 717/5/6 718/5/6 720/5/6
f 720/5/6 718/5/6 721/5/6
f 719/5/6 720/5/6 722/5/6
f 722/5/6 720/5/6 723/5/6
f 723/5/6 724/5/6 725/5/6
f 725/5/6 724/5/6 726/5/6
f 727/5/6 728/5/6 729/5/6
f 729/5/6 728/5/6 730/5/6
f 731/4/6 732/4/6 733/4/6
f 733/4/6 732/4/6 734/4/6
