# MagicaVoxel @ Ephtracy

# group
o 

# material
mtllib LoadL_ver4.mtl
usemtl palette

# normals
vn -1 0 0
vn 1 0 0
vn 0 0 1
vn 0 0 -1
vn 0 -1 0
vn 0 1 0

# texcoords
vt 0.958984 0.5
vt 0.970703 0.5
vt 0.978516 0.5
vt 0.986328 0.5

# verts
v 0 2 0
v 0 2 -0.1
v 0 2.2 0
v 0 2.2 -0.1
v 0 2.8 0
v 0 2.8 -0.1
v 0 3.2 0
v 0 3.2 -0.1
v 0 3.8 0
v 0 3.8 -0.1
v 0 4 0
v 0 4 -0.1
v 1.6 2 -0.1
v 1.6 2 -0.2
v 1.6 4 -0.1
v 1.6 4 -0.2
v 1.7 2 -0.1
v 1.7 2 -0.2
v 1.7 4 -0.1
v 1.7 4 -0.2
v 2 2 0
v 2 2 -0.1
v 2 4 0
v 2 4 -0.1
v 0 2 0
v 0 2.2 0
v 0 2.8 0
v 0 3.2 0
v 0 3.8 0
v 0 4 0
v 0.1 2.2 0
v 0.1 2.8 0
v 0.1 3.2 0
v 0.1 3.8 0
v 1.3 2 0
v 1.3 4 0
v 1.4 2 0
v 1.4 4 0
v 1.6 2 0
v 1.6 4 0
v 1.7 2 0
v 1.7 4 0
v 2 2 0
v 2 4 0
v 0 2 -0.1
v 0 2.2 -0.1
v 0 2.8 -0.1
v 0 3.2 -0.1
v 0 3.8 -0.1
v 0 4 -0.1
v 0.1 2.2 -0.1
v 0.1 2.8 -0.1
v 0.1 3.2 -0.1
v 0.1 3.8 -0.1
v 1.3 2 -0.1
v 1.3 4 -0.1
v 1.4 2 -0.1
v 1.4 4 -0.1
v 1.6 2 -0.1
v 1.6 4 -0.1
v 1.7 2 -0.1
v 1.7 4 -0.1
v 2 2 -0.1
v 2 4 -0.1
v 1.6 2 -0.2
v 1.6 4 -0.2
v 1.7 2 -0.2
v 1.7 4 -0.2
v 0 2 0
v 1.3 2 0
v 1.4 2 0
v 1.6 2 0
v 1.7 2 0
v 2 2 0
v 0 2 -0.1
v 1.3 2 -0.1
v 1.4 2 -0.1
v 1.6 2 -0.1
v 1.7 2 -0.1
v 2 2 -0.1
v 1.6 2 -0.2
v 1.7 2 -0.2
v 0 4 0
v 1.3 4 0
v 1.4 4 0
v 1.6 4 0
v 1.7 4 0
v 2 4 0
v 0 4 -0.1
v 1.3 4 -0.1
v 1.4 4 -0.1
v 1.6 4 -0.1
v 1.7 4 -0.1
v 2 4 -0.1
v 1.6 4 -0.2
v 1.7 4 -0.2

# faces
f 3/4/1 2/4/1 1/4/1
f 4/4/1 2/4/1 3/4/1
f 5/1/1 4/1/1 3/1/1
f 6/1/1 4/1/1 5/1/1
f 7/4/1 6/4/1 5/4/1
f 8/4/1 6/4/1 7/4/1
f 9/1/1 8/1/1 7/1/1
f 10/1/1 8/1/1 9/1/1
f 11/4/1 10/4/1 9/4/1
f 12/4/1 10/4/1 11/4/1
f 15/2/1 14/2/1 13/2/1
f 16/2/1 14/2/1 15/2/1
f 17/2/2 18/2/2 19/2/2
f 19/2/2 18/2/2 20/2/2
f 21/3/2 22/3/2 23/3/2
f 23/3/2 22/3/2 24/3/2
f 31/4/3 26/4/3 25/4/3
f 31/1/3 27/1/3 26/1/3
f 32/4/3 28/4/3 27/4/3
f 32/1/3 27/1/3 31/1/3
f 33/1/3 29/1/3 28/1/3
f 33/4/3 28/4/3 32/4/3
f 34/4/3 30/4/3 29/4/3
f 34/1/3 29/1/3 33/1/3
f 35/4/3 33/4/3 32/4/3
f 35/4/3 32/4/3 31/4/3
f 35/4/3 34/4/3 33/4/3
f 35/4/3 31/4/3 25/4/3
f 36/4/3 30/4/3 34/4/3
f 36/4/3 34/4/3 35/4/3
f 37/1/3 36/1/3 35/1/3
f 38/1/3 36/1/3 37/1/3
f 39/4/3 38/4/3 37/4/3
f 40/4/3 38/4/3 39/4/3
f 41/2/3 40/2/3 39/2/3
f 42/2/3 40/2/3 41/2/3
f 43/3/3 42/3/3 41/3/3
f 44/3/3 42/3/3 43/3/3
f 45/4/4 46/4/4 51/4/4
f 46/1/4 47/1/4 51/1/4
f 47/4/4 48/4/4 52/4/4
f 51/1/4 47/1/4 52/1/4
f 48/1/4 49/1/4 53/1/4
f 52/4/4 48/4/4 53/4/4
f 49/4/4 50/4/4 54/4/4
f 53/1/4 49/1/4 54/1/4
f 52/4/4 53/4/4 55/4/4
f 51/4/4 52/4/4 55/4/4
f 53/4/4 54/4/4 55/4/4
f 45/4/4 51/4/4 55/4/4
f 54/4/4 50/4/4 56/4/4
f 55/4/4 54/4/4 56/4/4
f 55/1/4 56/1/4 57/1/4
f 57/1/4 56/1/4 58/1/4
f 57/4/4 58/4/4 59/4/4
f 59/4/4 58/4/4 60/4/4
f 61/3/4 62/3/4 63/3/4
f 63/3/4 62/3/4 64/3/4
f 65/2/4 66/2/4 67/2/4
f 67/2/4 66/2/4 68/2/4
f 75/4/5 70/4/5 69/4/5
f 76/1/5 71/1/5 70/1/5
f 76/4/5 70/4/5 75/4/5
f 77/4/5 72/4/5 71/4/5
f 77/1/5 71/1/5 76/1/5
f 78/2/5 73/2/5 72/2/5
f 78/4/5 72/4/5 77/4/5
f 79/3/5 74/3/5 73/3/5
f 79/2/5 73/2/5 78/2/5
f 80/3/5 74/3/5 79/3/5
f 81/2/5 79/2/5 78/2/5
f 82/2/5 79/2/5 81/2/5
f 83/4/6 84/4/6 89/4/6
f 84/1/6 85/1/6 90/1/6
f 89/4/6 84/4/6 90/4/6
f 85/4/6 86/4/6 91/4/6
f 90/1/6 85/1/6 91/1/6
f 86/2/6 87/2/6 92/2/6
f 91/4/6 86/4/6 92/4/6
f 87/3/6 88/3/6 93/3/6
f 92/2/6 87/2/6 93/2/6
f 93/3/6 88/3/6 94/3/6
f 92/2/6 93/2/6 95/2/6
f 95/2/6 93/2/6 96/2/6
